<svg width="44" height="40" viewBox="0 0 44 40" fill="none" xmlns="http://www.w3.org/2000/svg">
<path d="M20.4842 31.0549C20.7974 31.0549 21.0978 30.9304 21.3193 30.7089C21.5408 30.4874 21.6653 30.187 21.6653 29.8738V27.6218H22.6259C23.454 27.6213 24.2633 27.3753 24.9517 26.9149C25.64 26.4546 26.1765 25.8006 26.4933 25.0355C26.8101 24.2704 26.8931 23.4286 26.7317 22.6164C26.5703 21.8042 26.1718 21.058 25.5865 20.4722C25.1983 20.0824 24.7369 19.7733 24.2288 19.5625C23.7208 19.3516 23.176 19.2434 22.6259 19.2439H21.6653V15.6061H24.8149C25.1281 15.6061 25.4285 15.4816 25.65 15.2601C25.8715 15.0386 25.996 14.7382 25.996 14.425C25.996 14.1117 25.8715 13.8113 25.65 13.5898C25.4285 13.3683 25.1281 13.2439 24.8149 13.2439H21.6653V11.0234C21.6653 10.7101 21.5408 10.4097 21.3193 10.1882C21.0978 9.96672 20.7974 9.84229 20.4842 9.84229C20.1709 9.84229 19.8705 9.96672 19.649 10.1882C19.4275 10.4097 19.3031 10.7101 19.3031 11.0234V13.2439H18.3424C17.4978 13.228 16.6682 13.4678 15.9623 13.9319C15.2565 14.396 14.7074 15.0627 14.3873 15.8444C14.0671 16.6261 13.9907 17.4863 14.1682 18.3122C14.3457 19.1381 14.7687 19.891 15.3818 20.4722C15.7708 20.8598 16.2326 21.1666 16.7408 21.3747C17.249 21.5828 17.7933 21.6882 18.3424 21.6848H19.3031V25.1966H15.3346C15.0213 25.1966 14.7209 25.3211 14.4994 25.5426C14.2779 25.7641 14.1535 26.0645 14.1535 26.3777C14.1535 26.691 14.2779 26.9914 14.4994 27.2129C14.7209 27.4344 15.0213 27.5588 15.3346 27.5588H19.3031V29.921C19.3153 30.226 19.4451 30.5144 19.6653 30.7258C19.8855 30.9372 20.1789 31.0551 20.4842 31.0549ZM21.6653 21.6061H22.6259C23.1093 21.6113 23.572 21.8031 23.9172 22.1415C24.1837 22.3951 24.3673 22.7233 24.4442 23.083C24.521 23.4427 24.4874 23.8173 24.3479 24.1576C24.2084 24.4979 23.9693 24.7882 23.6621 24.9905C23.3548 25.1927 22.9937 25.2975 22.6259 25.2911H21.6653V21.6061ZM18.3424 19.2439C18.1024 19.2446 17.8647 19.1977 17.643 19.1058C17.4213 19.0138 17.2201 18.8788 17.0511 18.7084C16.8812 18.5423 16.7463 18.3439 16.6543 18.1248C16.5624 17.9057 16.5152 17.6704 16.5157 17.4328C16.5157 16.9483 16.7081 16.4837 17.0507 16.1411C17.3933 15.7985 17.8579 15.6061 18.3424 15.6061H19.3031V19.2439H18.3424Z" fill="black"/>
<path d="M31.3175 33.0707C31.4066 32.8492 31.56 32.6595 31.7578 32.5258C31.9557 32.3922 32.189 32.3208 32.4277 32.3208C32.6665 32.3208 32.8997 32.3922 33.0976 32.5258C33.2954 32.6595 33.4488 32.8492 33.5379 33.0707C33.6004 33.2148 33.6326 33.3703 33.6326 33.5274C33.6326 33.6844 33.6004 33.8399 33.5379 33.984L32.6088 35.9683L39.9159 32.0628L32.6403 28.173L33.5379 30.1415C33.6 30.283 33.632 30.4358 33.632 30.5903C33.632 30.7448 33.6 30.8977 33.5379 31.0392C33.4811 31.1876 33.3945 31.3229 33.2835 31.4366C33.1725 31.5504 33.0393 31.6402 32.8923 31.7006C32.6039 31.8285 32.2767 31.8374 31.9818 31.7254C31.6868 31.6133 31.4481 31.3893 31.3175 31.1022L28.9553 25.9525C28.8522 25.7222 28.8257 25.4649 28.8795 25.2183C28.9334 24.9717 29.0648 24.7489 29.2545 24.5825C29.4416 24.4182 29.6737 24.3139 29.9208 24.283C30.1679 24.2522 30.4185 24.2961 30.6403 24.4092L42.9868 31.0234C43.1772 31.1219 43.3368 31.2711 43.448 31.4545C43.5591 31.6379 43.6175 31.8484 43.6167 32.0628C43.6157 32.2769 43.5566 32.4866 43.4457 32.6697C43.3347 32.8528 43.1761 33.0023 42.9868 33.1022L30.6403 39.7006C30.4601 39.7935 30.2604 39.842 30.0576 39.8423C29.7616 39.8482 29.4745 39.7412 29.2545 39.5431C29.0682 39.3778 28.9389 39.1577 28.8851 38.9145C28.8314 38.6712 28.856 38.4172 28.9553 38.1888L31.3175 33.0707Z" fill="black"/>
<path d="M20.4843 6.20546e-06C15.1841 6.20546e-06 10.101 2.10548 6.35325 5.85326C2.60548 9.60103 0.5 14.6841 0.5 19.9843C0.5 25.2844 2.60548 30.3675 6.35325 34.1153C10.101 37.863 15.1841 39.9685 20.4843 39.9685C21.8924 39.9724 23.2968 39.8245 24.6732 39.5276C24.8509 39.4924 25.0194 39.4212 25.1684 39.3182C25.3174 39.2153 25.4436 39.0829 25.5394 38.9291C25.6877 38.7031 25.7658 38.4382 25.7639 38.1678C25.762 37.8974 25.6801 37.6336 25.5286 37.4097C25.377 37.1857 25.1626 37.0116 24.9123 36.9093C24.662 36.807 24.3871 36.781 24.122 36.8346C20.6388 37.5803 17.0101 37.2279 13.7354 35.826C10.4607 34.4241 7.70108 32.0416 5.83641 29.0065C3.97174 25.9713 3.09371 22.4328 3.32319 18.8781C3.55267 15.3233 4.87838 11.9271 7.11782 9.15694C9.35726 6.38676 12.4003 4.37886 15.8281 3.40963C19.2558 2.4404 22.8997 2.5575 26.2582 3.74482C29.6167 4.93213 32.5245 7.13128 34.5815 10.0395C36.6384 12.9478 37.7433 16.4221 37.7441 19.9843C37.7441 20.5669 37.7441 21.1339 37.6654 21.7165C37.6427 21.8961 37.6577 22.0784 37.7092 22.2519C37.7607 22.4254 37.8476 22.5863 37.9646 22.7244C38.2001 23.0006 38.5336 23.1747 38.8949 23.2099C39.2562 23.2452 39.6171 23.1389 39.9016 22.9134C40.1806 22.6782 40.3605 22.3464 40.4055 21.9843C40.4055 21.3386 40.5 20.6614 40.5 19.9843C40.4979 17.3578 39.9786 14.7575 38.9716 12.3318C37.9646 9.90607 36.4896 7.70244 34.631 5.84673C32.7724 3.99102 30.5664 2.51957 28.1391 1.51639C25.7118 0.513204 23.1107 -0.00206267 20.4843 6.20546e-06V6.20546e-06Z" fill="black"/>
</svg>
