<svg fill="none" height="64" viewBox="0 0 65 64" width="65" xmlns="http://www.w3.org/2000/svg">
    <circle cx="32.8105" cy="32" r="31.25" stroke="white" stroke-width="1.5" />
    <path
        d="M32.8105 23V41M32.8105 23H39.8105C40.341 23 40.8497 23.2107 41.2248 23.5858C41.5998 23.9609 41.8105 24.4696 41.8105 25V39C41.8105 39.5304 41.5998 40.0391 41.2248 40.4142C40.8497 40.7893 40.341 41 39.8105 41H32.8105V23ZM32.8105 23H25.8105C25.2801 23 24.7714 23.2107 24.3963 23.5858C24.0213 23.9609 23.8105 24.4696 23.8105 25V39C23.8105 39.5304 24.0213 40.0391 24.3963 40.4142C24.7714 40.7893 25.2801 41 25.8105 41H32.8105V23Z"
        stroke="white" stroke-linecap="round" stroke-linejoin="round" stroke-width="2" />
</svg>
