<svg fill="none" height="58" viewBox="0 0 58 58" width="58" xmlns="http://www.w3.org/2000/svg">
    <circle cx="29" cy="29" r="28.5" stroke="#BEBEBE" />
    <path clip-rule="evenodd"
        d="M29.5 19C28.6716 19 28 19.6716 28 20.5V27.5H21C20.1716 27.5 19.5 28.1716 19.5 29C19.5 29.8284 20.1716 30.5 21 30.5H28V37.5C28 38.3284 28.6716 39 29.5 39C30.3284 39 31 38.3284 31 37.5V30.5H38C38.8284 30.5 39.5 29.8284 39.5 29C39.5 28.1716 38.8284 27.5 38 27.5H31V20.5C31 19.6716 30.3284 19 29.5 19Z"
        fill="#C4C4C4" fill-rule="evenodd" />
</svg>
