<svg width="26" height="24" viewBox="0 0 26 24" fill="none" xmlns="http://www.w3.org/2000/svg">
<g id="Layer_1" clip-path="url(#clip0_14788_11528)">
<path id="Vector" d="M24.9998 16.4H20.3998V11.8C20.3998 11.25 19.9498 10.8 19.3998 10.8C18.8498 10.8 18.3998 11.25 18.3998 11.8V16.4H13.7998C13.2498 16.4 12.7998 16.85 12.7998 17.4C12.7998 17.95 13.2498 18.4 13.7998 18.4H18.3998V23C18.3998 23.55 18.8498 24 19.3998 24C19.9498 24 20.3998 23.55 20.3998 23V18.4H24.9998C25.5498 18.4 25.9998 17.95 25.9998 17.4C25.9998 16.85 25.5498 16.4 24.9998 16.4Z" fill="black"/>
<path id="Vector_2" d="M20.82 5.35C20.24 4.77 19.46 4.44 18.64 4.44H17.28V3.08C17.28 2.68 17.2 2.27 17.05 1.9C16.89 1.53 16.67 1.19 16.38 0.9C15.8 0.33 15.01 0 14.19 0H3.08C2.26 0 1.48 0.32 0.9 0.9C0.33 1.48 0 2.26 0 3.08V16.42C0 16.82 0.08 17.23 0.23 17.6C0.39 17.97 0.61 18.31 0.9 18.6C1.19 18.89 1.53 19.11 1.9 19.27C2.27 19.42 2.68 19.5 3.08 19.5H10.44C10.9 19.5 11.28 19.12 11.28 18.66C11.28 18.2 10.9 17.82 10.44 17.82H3.08C2.9 17.82 2.71 17.79 2.54 17.72C2.37 17.65 2.21 17.55 2.08 17.42C1.95 17.29 1.85 17.13 1.78 16.96C1.71 16.79 1.68 16.61 1.68 16.42V5.87L2.06 6C2.38 6.12 2.72 6.18 3.06 6.18H18.64C18.82 6.16 19.01 6.2 19.18 6.26C19.35 6.33 19.51 6.43 19.64 6.56C19.77 6.69 19.88 6.85 19.94 7.02C20.01 7.19 20.05 7.37 20.04 7.56V8.47C20.04 8.94 20.42 9.31 20.88 9.31C21.34 9.31 21.72 8.94 21.72 8.47V7.53C21.72 6.71 21.4 5.93 20.82 5.35ZM15.59 4.44H3.08C2.9 4.45 2.71 4.41 2.54 4.35C2.37 4.28 2.21 4.18 2.08 4.05C1.82 3.78 1.68 3.42 1.68 3.05C1.7 2.7 1.86 2.36 2.12 2.12C2.25 1.99 2.41 1.88 2.58 1.82C2.75 1.75 2.93 1.71 3.12 1.72H14.19C14.38 1.72 14.56 1.75 14.73 1.82C14.9 1.88 15.06 1.99 15.19 2.12C15.32 2.25 15.42 2.41 15.49 2.58C15.56 2.75 15.59 2.94 15.59 3.12V4.44Z" fill="black"/>
</g>
<defs>
<clipPath id="clip0_14788_11528">
<rect width="26" height="24" fill="white"/>
</clipPath>
</defs>
</svg>
