<svg fill="none" height="40" viewBox="0 0 41 40" width="41" xmlns="http://www.w3.org/2000/svg">
<path d="M17.65 6.43319L3.53337 29.9999C3.24231 30.5039 3.08831 31.0754 3.08668 31.6574C3.08505 32.2394 3.23585 32.8117 3.52408 33.3174C3.81231 33.8231 4.22791 34.2444 4.72955 34.5396C5.23118 34.8348 5.80137 34.9935 6.38337 34.9999H34.6167C35.1987 34.9935 35.7689 34.8348 36.2705 34.5396C36.7722 34.2444 37.1878 33.8231 37.476 33.3174C37.7642 32.8117 37.915 32.2394 37.9134 31.6574C37.9118 31.0754 37.7578 30.5039 37.4667 29.9999L23.35 6.43319C23.0529 5.94336 22.6346 5.53839 22.1354 5.25733C21.6361 4.97627 21.0729 4.82861 20.5 4.82861C19.9271 4.82861 19.3639 4.97627 18.8647 5.25733C18.3655 5.53839 17.9472 5.94336 17.65 6.43319V6.43319Z" stroke="black" stroke-linecap="round" stroke-linejoin="round" stroke-width="2"/>
<path d="M20.5 15V21.6667" stroke="black" stroke-linecap="round" stroke-linejoin="round" stroke-width="2"/>
<path d="M20.5 28.3335H20.5167" stroke="black" stroke-linecap="round" stroke-linejoin="round" stroke-width="2"/>
</svg>
