<svg width="55" height="35" viewBox="0 0 55 35" fill="none" xmlns="http://www.w3.org/2000/svg">
<path d="M49.3905 0.333313H5.60959C5.42725 0.333313 5.24459 0.333313 5.06257 0.334376C4.90871 0.335472 4.75521 0.33718 4.6017 0.341368C4.26692 0.350423 3.92927 0.370174 3.59868 0.429591C3.2628 0.490038 2.95025 0.588636 2.64534 0.743879C2.34559 0.896319 2.07116 1.09571 1.83333 1.33363C1.59541 1.57155 1.39602 1.84553 1.24361 2.14561C1.08834 2.45052 0.989674 2.76317 0.929646 3.0993C0.86991 3.42999 0.850026 3.76757 0.841004 4.102C0.83688 4.2555 0.835111 4.40901 0.834109 4.56248C0.833046 4.74488 0.8334 4.92716 0.8334 5.10989V29.7006C0.8334 29.8833 0.833046 30.0653 0.834109 30.2481C0.835111 30.4015 0.83688 30.555 0.841004 30.7085C0.850026 31.0427 0.86991 31.3803 0.929646 31.7108C0.989674 32.0471 1.08834 32.3596 1.24361 32.6646C1.39602 32.9646 1.59541 33.239 1.83333 33.4765C2.07116 33.7149 2.34559 33.9142 2.64534 34.0663C2.95025 34.2219 3.2628 34.3206 3.59868 34.381C3.92927 34.44 4.26692 34.4601 4.6017 34.4692C4.75521 34.4726 4.90871 34.4747 5.06257 34.4754C5.24459 34.4768 5.42725 34.4768 5.60959 34.4768H49.3905C49.5725 34.4768 49.7552 34.4768 49.9372 34.4754C50.0907 34.4747 50.2442 34.4726 50.3984 34.4692C50.7324 34.4601 51.07 34.44 51.4014 34.381C51.7369 34.3206 52.0495 34.2219 52.3544 34.0663C52.6545 33.9142 52.9281 33.7149 53.1664 33.4765C53.404 33.239 53.6034 32.9646 53.7561 32.6646C53.9118 32.3596 54.0103 32.0471 54.0701 31.7108C54.1298 31.3803 54.1492 31.0427 54.1583 30.7085C54.1625 30.555 54.1646 30.4015 54.1653 30.2481C54.1667 30.0653 54.1667 29.8833 54.1667 29.7006V5.10989C54.1667 4.92716 54.1667 4.74488 54.1653 4.56248C54.1646 4.40901 54.1625 4.2555 54.1583 4.102C54.1492 3.76757 54.1298 3.42999 54.0701 3.0993C54.0103 2.76317 53.9118 2.45052 53.7561 2.14561C53.6034 1.84553 53.404 1.57155 53.1664 1.33363C52.9281 1.09571 52.6545 0.896319 52.3544 0.743879C52.0495 0.588636 51.7369 0.490038 51.4014 0.429591C51.07 0.370174 50.7325 0.350423 50.3984 0.341368C50.2442 0.33718 50.0907 0.335472 49.9372 0.334376C49.7552 0.333313 49.5725 0.333313 49.3905 0.333313Z" fill="black"/>
<path d="M49.3904 1.47046L49.929 1.47149C50.0749 1.47252 50.2208 1.4741 50.3675 1.4781C50.6227 1.48499 50.9212 1.49881 51.1995 1.54869C51.4414 1.59226 51.6443 1.6585 51.8389 1.75762C52.0311 1.85528 52.2072 1.98326 52.361 2.1368C52.5153 2.29137 52.6435 2.46775 52.7424 2.66207C52.841 2.85524 52.9068 3.05714 52.9501 3.3008C52.9999 3.57604 53.0136 3.87537 53.0206 4.13215C53.0246 4.27708 53.0265 4.42201 53.0272 4.57039C53.0286 4.74983 53.0286 4.92918 53.0286 5.10897V29.6997C53.0286 29.8795 53.0286 30.0585 53.0272 30.2418C53.0265 30.3867 53.0246 30.5316 53.0206 30.6768C53.0136 30.9332 52.9999 31.2324 52.9495 31.5109C52.9068 31.7512 52.841 31.9531 52.7419 32.1472C52.6433 32.3411 52.5153 32.5173 52.3616 32.6709C52.207 32.8255 52.0315 32.9531 51.837 33.0517C51.6438 33.1503 51.4413 33.2165 51.2018 33.2596C50.9179 33.3102 50.6068 33.3241 50.3726 33.3305C50.2252 33.3338 50.0785 33.3358 49.9283 33.3365C49.7492 33.3379 49.5695 33.3379 49.3904 33.3379H5.60953C5.60715 33.3379 5.60483 33.3379 5.60241 33.3379C5.42539 33.3379 5.24801 33.3379 5.06776 33.3365C4.9208 33.3358 4.77416 33.3338 4.63239 33.3306C4.39279 33.3241 4.08156 33.3102 3.79998 33.2599C3.55841 33.2165 3.3559 33.1503 3.16012 33.0504C2.96747 32.9527 2.79209 32.8252 2.63739 32.6703C2.48389 32.517 2.35632 32.3414 2.25769 32.1473C2.15897 31.9533 2.09291 31.7508 2.04948 31.5076C1.99928 31.2297 1.98549 30.9317 1.9786 30.677C1.97466 30.5312 1.97302 30.3855 1.97208 30.2405L1.97137 29.8127L1.97141 29.6997V5.10897L1.97137 4.996L1.97205 4.56904C1.97302 4.42324 1.97466 4.27747 1.9786 4.13179C1.98549 3.87689 1.99928 3.57877 2.0499 3.29851C2.09295 3.05753 2.15897 2.85498 2.25821 2.66008C2.35607 2.46742 2.48386 2.29156 2.63817 2.13728C2.79187 1.98352 2.96782 1.8557 3.1617 1.7571C3.35538 1.65847 3.55828 1.59226 3.79985 1.54879C4.07818 1.49878 4.3769 1.48499 4.63274 1.47806C4.77857 1.4741 4.92441 1.47252 5.06915 1.47152L5.60953 1.47046H49.3904Z" fill="white"/>
<path d="M15.3929 11.8179C15.8496 11.2467 16.1595 10.4798 16.0777 9.69611C15.4093 9.72935 14.5935 10.1371 14.1212 10.7088C13.6972 11.1983 13.3219 11.9973 13.4197 12.7481C14.1701 12.8132 14.9198 12.3731 15.3929 11.8179Z" fill="black"/>
<path d="M16.0691 12.8949C14.9794 12.83 14.0528 13.5134 13.5324 13.5134C13.0117 13.5134 12.2148 12.9276 11.3528 12.9434C10.2309 12.9599 9.18996 13.5942 8.62066 14.6031C7.44969 16.6213 8.31164 19.615 9.45034 21.2588C10.0033 22.072 10.6698 22.9674 11.5479 22.9352C12.3776 22.9026 12.7028 22.398 13.7113 22.398C14.7191 22.398 15.012 22.9352 15.8903 22.9189C16.8011 22.9026 17.3705 22.1053 17.9234 21.2913C18.5578 20.3643 18.8175 19.4692 18.8338 19.4201C18.8175 19.4038 17.0776 18.7363 17.0614 16.7349C17.045 15.059 18.4275 14.2619 18.4925 14.2125C17.7118 13.0578 16.492 12.9276 16.0691 12.8949Z" fill="black"/>
<path d="M25.558 10.6262C27.9266 10.6262 29.5759 12.2589 29.5759 14.636C29.5759 17.0215 27.8926 18.6627 25.4986 18.6627H22.8761V22.8332H20.9814V10.6262H25.558V10.6262ZM22.8761 17.0723H25.0502C26.6999 17.0723 27.6388 16.1841 27.6388 14.6445C27.6388 13.105 26.6999 12.2251 25.0587 12.2251H22.8761V17.0723Z" fill="black"/>
<path d="M30.0712 20.3046C30.0712 18.7479 31.264 17.7921 33.379 17.6736L35.8152 17.5298V16.8447C35.8152 15.8549 35.1468 15.2627 34.0304 15.2627C32.9727 15.2627 32.3129 15.7702 32.1523 16.5655H30.4266C30.5281 14.9581 31.8984 13.7738 34.098 13.7738C36.2551 13.7738 37.6339 14.9158 37.6339 16.7008V22.8339H35.8827V21.3704H35.8406C35.3247 22.3602 34.1995 22.9861 33.0321 22.9861C31.2895 22.9861 30.0712 21.9033 30.0712 20.3046ZM35.8152 19.5009V18.7988L33.6241 18.9341C32.5328 19.0103 31.9154 19.4925 31.9154 20.2538C31.9154 21.032 32.5583 21.5396 33.5396 21.5396C34.8169 21.5396 35.8152 20.6598 35.8152 19.5009Z" fill="black"/>
<path d="M39.287 26.1067V24.6263C39.4221 24.6601 39.7266 24.6601 39.879 24.6601C40.7248 24.6601 41.1817 24.3048 41.4607 23.3912C41.4607 23.3743 41.6216 22.8498 41.6216 22.8414L38.4072 13.9335H40.3864L42.6369 21.1749H42.6705L44.9209 13.9335H46.8496L43.5164 23.2981C42.7553 25.4554 41.8755 26.149 40.0314 26.149C39.879 26.149 39.4221 26.132 39.287 26.1067Z" fill="black"/>
</svg>
