<svg fill="none" height="28" viewBox="0 0 28 28" width="28" xmlns="http://www.w3.org/2000/svg">
    <path
        d="M17.43 4.88829C17.8711 4.37995 18.2074 3.78949 18.4196 3.15082C18.6318 2.51215 18.7158 1.83784 18.6667 1.16663C17.3126 1.27593 16.0557 1.91277 15.1667 2.93996C14.741 3.43226 14.4184 4.00499 14.218 4.62421C14.0176 5.24344 13.9435 5.89658 14 6.54496C14.6605 6.55046 15.3134 6.4039 15.9082 6.11663C16.503 5.82935 17.0237 5.40906 17.43 4.88829ZM20.37 13.5683C20.3778 12.6743 20.6133 11.7971 21.0542 11.0194C21.4951 10.2416 22.1269 9.58909 22.89 9.12329C22.4084 8.42941 21.7718 7.85727 21.0306 7.45225C20.2895 7.04723 19.4641 6.82047 18.62 6.78996C16.8 6.60329 15.12 7.85163 14.1517 7.85163C13.1834 7.85163 11.8184 6.81329 10.3017 6.83663C9.31017 6.86929 8.34404 7.15837 7.49754 7.67568C6.65104 8.19298 5.95306 8.92085 5.47169 9.78829C3.41835 13.3583 4.94669 18.6666 7.00002 21.5483C7.93335 22.96 9.10002 24.5583 10.64 24.5C12.18 24.4416 12.6817 23.5433 14.4667 23.5433C16.2517 23.5433 16.8 24.5 18.3167 24.465C19.8334 24.43 20.9067 23.0183 21.8867 21.6066C22.5809 20.5817 23.1232 19.4618 23.4967 18.2816C22.5721 17.8873 21.7832 17.2308 21.2276 16.3932C20.6719 15.5555 20.3738 14.5735 20.37 13.5683Z"
        fill="white" />
</svg>
