<svg fill="none" height="26" viewBox="0 0 40 26" width="40" xmlns="http://www.w3.org/2000/svg">
    <g clip-path="url(#clip0_8243_628)">
        <path
            d="M36.4179 0H3.58218C3.44543 0 3.30843 0 3.17192 0.000809701C3.05652 0.00164394 2.9414 0.00294437 2.82627 0.0061341C2.57518 0.0130288 2.32195 0.0280696 2.074 0.0733147C1.82209 0.119345 1.58768 0.194426 1.359 0.312643C1.13418 0.428724 0.928359 0.580555 0.749992 0.761732C0.571547 0.942909 0.422007 1.15154 0.307701 1.38005C0.191245 1.61224 0.117248 1.85031 0.0722267 2.10628C0.0274252 2.35809 0.0125122 2.61516 0.00574573 2.86982C0.00265247 2.98672 0.00132575 3.10361 0.000574187 3.22047C-0.000223295 3.35937 4.25324e-05 3.49818 4.25324e-05 3.63732V22.3629C4.25324e-05 22.5021 -0.000223295 22.6407 0.000574187 22.7798C0.00132575 22.8967 0.00265247 23.0136 0.00574573 23.1305C0.0125122 23.3849 0.0274252 23.642 0.0722267 23.8937C0.117248 24.1498 0.191245 24.3878 0.307701 24.62C0.422007 24.8485 0.571547 25.0574 0.749992 25.2383C0.928359 25.4198 1.13418 25.5716 1.359 25.6874C1.58768 25.8059 1.82209 25.881 2.074 25.927C2.32195 25.972 2.57518 25.9873 2.82627 25.9942C2.9414 25.9968 3.05652 25.9984 3.17192 25.9989C3.30843 26 3.44543 26 3.58218 26H36.4179C36.5544 26 36.6914 26 36.8279 25.9989C36.943 25.9984 37.0581 25.9968 37.1738 25.9942C37.4243 25.9873 37.6775 25.972 37.9261 25.927C38.1776 25.881 38.4121 25.8059 38.6408 25.6874C38.8659 25.5716 39.0711 25.4198 39.2498 25.2383C39.428 25.0574 39.5775 24.8485 39.6921 24.62C39.8088 24.3878 39.8827 24.1498 39.9275 23.8937C39.9724 23.642 39.9869 23.3849 39.9937 23.1305C39.9969 23.0136 39.9984 22.8967 39.9989 22.7798C40 22.6407 40 22.5021 40 22.3629V3.63732C40 3.49818 40 3.35937 39.9989 3.22047C39.9984 3.10361 39.9969 2.98672 39.9937 2.86982C39.9869 2.61516 39.9724 2.35809 39.9275 2.10628C39.8827 1.85031 39.8088 1.61224 39.6921 1.38005C39.5775 1.15154 39.428 0.942909 39.2498 0.761732C39.0711 0.580555 38.8659 0.428724 38.6408 0.312643C38.4121 0.194426 38.1776 0.119345 37.9261 0.0733147C37.6775 0.0280696 37.4243 0.0130288 37.1738 0.0061341C37.0581 0.00294437 36.943 0.00164394 36.8279 0.000809701C36.6914 0 36.5544 0 36.4179 0Z"
            fill="black" />
        <path
            d="M36.4178 0.866699L36.8217 0.867484C36.9312 0.86827 37.0406 0.869472 37.1506 0.872514C37.342 0.877765 37.5659 0.888291 37.7746 0.926274C37.956 0.959447 38.1082 1.00989 38.2542 1.08537C38.3983 1.15974 38.5304 1.2572 38.6457 1.37411C38.7615 1.49181 38.8576 1.62612 38.9318 1.7741C39.0057 1.9212 39.0551 2.07494 39.0876 2.26049C39.1249 2.47008 39.1352 2.69802 39.1405 2.89355C39.1434 3.00392 39.1449 3.11428 39.1454 3.22727C39.1464 3.36391 39.1464 3.50048 39.1464 3.6374V22.363C39.1464 22.4999 39.1464 22.6363 39.1454 22.7758C39.1449 22.8862 39.1434 22.9965 39.1404 23.1071C39.1352 23.3023 39.1249 23.5301 39.0871 23.7422C39.0551 23.9252 39.0058 24.079 38.9314 24.2268C38.8574 24.3744 38.7615 24.5086 38.6462 24.6255C38.5302 24.7433 38.3986 24.8405 38.2527 24.9155C38.1078 24.9906 37.9559 25.041 37.7763 25.0739C37.5634 25.1124 37.3301 25.123 37.1544 25.1278C37.0439 25.1304 36.9339 25.1319 36.8212 25.1324C36.6869 25.1335 36.5521 25.1334 36.4178 25.1334H3.58213C3.58035 25.1334 3.57861 25.1334 3.57679 25.1334C3.44403 25.1334 3.31099 25.1334 3.17581 25.1324C3.06558 25.1319 2.9556 25.1304 2.84927 25.1279C2.66957 25.123 2.43615 25.1124 2.22497 25.0741C2.0438 25.041 1.89191 24.9906 1.74508 24.9146C1.60059 24.8402 1.46905 24.7431 1.35303 24.6251C1.2379 24.5084 1.14223 24.3747 1.06826 24.2268C0.994211 24.0791 0.94467 23.9249 0.912097 23.7397C0.874444 23.5281 0.8641 23.3012 0.858931 23.1073C0.855981 22.9962 0.854748 22.8852 0.854047 22.7749L0.853516 22.449L0.85354 22.363V3.6374L0.853516 3.55137L0.854023 3.22624C0.854748 3.11521 0.855981 3.00421 0.858931 2.89328C0.8641 2.69917 0.874443 2.47216 0.912408 2.25875C0.944694 2.07524 0.994211 1.921 1.06864 1.77258C1.14203 1.62588 1.23788 1.49196 1.35361 1.37448C1.46888 1.25739 1.60085 1.16006 1.74626 1.08497C1.89152 1.00987 2.0437 0.959447 2.22487 0.926347C2.43362 0.888267 2.65766 0.877765 2.84954 0.87249C2.95892 0.869472 3.06829 0.86827 3.17685 0.867509L3.58213 0.866699H36.4178Z"
            fill="white" />
        <path
            d="M10.9199 8.74482C11.2624 8.30988 11.4948 7.72587 11.4335 7.12909C10.9322 7.1544 10.3203 7.46492 9.96613 7.90021C9.64809 8.27297 9.3666 8.88142 9.43998 9.45319C10.0028 9.50276 10.5651 9.16757 10.9199 8.74482Z"
            fill="black" />
        <path
            d="M11.4271 9.56483C10.6097 9.5154 9.91482 10.0358 9.5245 10.0358C9.13397 10.0358 8.53627 9.58974 7.88981 9.60177C7.04841 9.61431 6.26768 10.0973 5.8407 10.8656C4.96248 12.4024 5.60894 14.6821 6.46296 15.9338C6.87769 16.5531 7.37752 17.2349 8.03612 17.2104C8.65838 17.1856 8.90228 16.8013 9.65867 16.8013C10.4145 16.8013 10.6342 17.2104 11.2929 17.198C11.976 17.1856 12.4031 16.5785 12.8178 15.9586C13.2936 15.2527 13.4883 14.5711 13.5006 14.5337C13.4883 14.5213 12.1834 14.013 12.1713 12.4889C12.159 11.2128 13.1958 10.6058 13.2446 10.5681C12.6591 9.68888 11.7442 9.58974 11.4271 9.56483Z"
            fill="black" />
        <path
            d="M18.5438 7.8378C20.3202 7.8378 21.5572 9.08108 21.5572 10.8912C21.5572 12.7078 20.2948 13.9575 18.4992 13.9575H16.5324V17.1333H15.1113V7.8378H18.5438V7.8378ZM16.5324 12.7464H18.1629C19.4002 12.7464 20.1044 12.0701 20.1044 10.8977C20.1044 9.72533 19.4002 9.05536 18.1693 9.05536H16.5324V12.7464Z"
            fill="black" />
        <path
            d="M21.9287 15.2074C21.9287 14.022 22.8233 13.2942 24.4096 13.204L26.2367 13.0945V12.5728C26.2367 11.819 25.7354 11.3681 24.8981 11.3681C24.1048 11.3681 23.6099 11.7546 23.4895 12.3602H22.1952C22.2714 11.1361 23.2991 10.2343 24.9488 10.2343C26.5666 10.2343 27.6007 11.104 27.6007 12.4632V17.1335H26.2873V16.019H26.2558C25.8688 16.7728 25.0249 17.2494 24.1494 17.2494C22.8424 17.2494 21.9287 16.4249 21.9287 15.2074ZM26.2367 14.5955V14.0608L24.5934 14.1638C23.7749 14.2219 23.3118 14.589 23.3118 15.1688C23.3118 15.7613 23.794 16.1479 24.53 16.1479C25.488 16.1479 26.2367 15.4779 26.2367 14.5955Z"
            fill="black" />
        <path
            d="M28.8405 19.6264V18.4991C28.9419 18.5248 29.1702 18.5248 29.2845 18.5248C29.9189 18.5248 30.2616 18.2543 30.4709 17.5586C30.4709 17.5457 30.5915 17.1464 30.5915 17.1399L28.1807 10.3567H29.6651L31.3529 15.8709H31.3782L33.066 10.3567H34.5125L32.0126 17.4877C31.4418 19.1304 30.7819 19.6586 29.3988 19.6586C29.2845 19.6586 28.9419 19.6457 28.8405 19.6264Z"
            fill="black" />
    </g>
    <defs>
        <clipPath id="clip0_8243_628">
            <rect fill="white" height="26" width="40" />
        </clipPath>
    </defs>
</svg>
