<svg width="123" height="47" viewBox="0 0 123 47" fill="none" xmlns="http://www.w3.org/2000/svg">
<g clip-path="url(#clip0_15534_7788)">
<path d="M7.57037 10.6123L8.09641 8.69112C9.49155 8.69112 10.6351 8.87409 11.5728 9.2629C12.4877 9.65171 13.1967 10.1549 13.6541 10.8181C14.1344 11.4814 14.3631 12.259 14.3631 13.1281C14.3631 14.8435 13.7456 16.1243 12.4877 16.9477C11.2298 17.771 9.44581 18.1827 7.13581 18.1827C6.65551 18.1827 6.17522 18.1827 5.64918 18.137C5.12314 18.1141 4.5971 18.0455 4.07106 17.954C3.54502 17.8625 3.04185 17.7481 2.58443 17.6338C1.71532 17.3365 1.28076 16.7876 1.28076 16.0328V2.74458C1.28076 2.42438 1.37225 2.1728 1.55522 1.96696C1.73819 1.76112 1.98977 1.64676 2.30997 1.55528C2.92749 1.34943 3.6365 1.21221 4.437 1.14359C5.23749 1.07498 6.08373 1.02924 6.95284 1.02924C9.10274 1.02924 10.7723 1.41805 11.9617 2.1728C13.151 2.92755 13.7456 4.09399 13.7456 5.64924C13.7456 6.4726 13.5169 7.18161 13.0595 7.82201C12.602 8.4624 11.9159 8.9427 11.0239 9.28577C10.1091 9.62884 8.96552 9.81181 7.59324 9.81181L7.3874 8.18795C8.39373 8.18795 9.14849 7.98211 9.62878 7.57042C10.1091 7.15874 10.3607 6.60983 10.3607 5.87795C10.3607 5.14607 10.0862 4.62003 9.51443 4.23122C8.94264 3.86528 8.09641 3.68231 6.97571 3.68231C6.49542 3.68231 6.06086 3.68231 5.64918 3.72805C5.23749 3.77379 4.87155 3.81953 4.57423 3.86528V15.278C4.94017 15.3695 5.35185 15.4381 5.85502 15.461C6.33532 15.5068 6.83849 15.5068 7.31878 15.5068C8.46235 15.5068 9.35433 15.3009 9.99472 14.8892C10.6351 14.4776 10.9553 13.86 10.9553 13.0138C10.9553 12.2133 10.6809 11.6186 10.1091 11.207C9.5373 10.7953 8.71393 10.5894 7.63898 10.5894L7.57037 10.6123ZM10.0176 8.11933V10.6123H3.40779V8.11933H9.99472H10.0176Z" fill="white"/>
<path d="M18.7316 13.1052L18.5944 10.7723L25.8903 9.72022C25.8446 9.01121 25.5701 8.39368 25.0898 7.89051C24.6095 7.36448 23.9234 7.11289 23.0085 7.11289C22.0937 7.11289 21.2932 7.43309 20.6757 8.09636C20.0581 8.75962 19.7379 9.67448 19.7379 10.8867L19.8294 12.2589C19.9666 13.4254 20.4241 14.2716 21.156 14.8205C21.8878 15.3694 22.8256 15.6439 23.9691 15.6439C24.7239 15.6439 25.4329 15.5295 26.0733 15.3008C26.7137 15.0721 27.2397 14.8205 27.6285 14.5461C27.8572 14.7062 28.0631 14.912 28.2003 15.1636C28.3604 15.4152 28.429 15.6668 28.429 15.9412C28.429 16.4215 28.2232 16.8103 27.8115 17.1534C27.3998 17.4965 26.8509 17.748 26.1419 17.931C25.4329 18.114 24.6324 18.2055 23.7404 18.2055C22.3453 18.2055 21.1102 17.9539 20.0353 17.4278C18.9603 16.9247 18.1141 16.147 17.5194 15.1178C16.9248 14.0886 16.6274 12.8078 16.6274 11.2983C16.6274 10.1776 16.7875 9.19418 17.1306 8.37081C17.4737 7.54745 17.9311 6.83844 18.5029 6.28952C19.0975 5.74061 19.7608 5.32893 20.5384 5.05448C21.3161 4.78002 22.1165 4.64279 22.9857 4.64279C24.175 4.64279 25.227 4.8715 26.119 5.3518C27.011 5.8321 27.72 6.49537 28.2232 7.3416C28.7264 8.18784 28.9779 9.17131 28.9779 10.2691C28.9779 10.7723 28.8407 11.1611 28.5891 11.3898C28.3375 11.6414 27.9716 11.7786 27.5142 11.8472L18.7087 13.128L18.7316 13.1052Z" fill="white"/>
<path d="M41.6711 14.2259C41.6711 15.461 41.1908 16.4444 40.2531 17.1763C39.3153 17.8853 37.9659 18.2513 36.182 18.2513C34.7411 18.2513 33.5518 18.0454 32.6369 17.6109C31.7221 17.1763 31.2646 16.6045 31.2646 15.8955C31.2646 15.5753 31.3333 15.278 31.4705 15.0264C31.6077 14.7748 31.8136 14.569 32.0423 14.4318C32.5454 14.7519 33.1401 15.0493 33.8034 15.3009C34.4666 15.5524 35.2214 15.6897 36.0905 15.6897C37.6457 15.6897 38.4234 15.2094 38.4234 14.2488C38.4234 13.86 38.2861 13.5398 38.0117 13.2882C37.7372 13.0366 37.3255 12.8536 36.7309 12.7393L35.1528 12.3505C33.8262 12.0531 32.8656 11.6186 32.2252 11.0011C31.5848 10.3835 31.2875 9.56017 31.2875 8.53096C31.2875 7.38739 31.7449 6.47254 32.6827 5.74066C33.6204 5.00878 34.9241 4.66571 36.5937 4.66571C37.4628 4.66571 38.2404 4.7572 38.9037 4.91729C39.5898 5.10027 40.1158 5.32898 40.5046 5.64918C40.8935 5.96937 41.0764 6.35819 41.0764 6.79274C41.0764 7.09007 41.0078 7.36452 40.8706 7.61611C40.7334 7.84482 40.5504 8.05066 40.3445 8.18789C40.1387 8.05066 39.8414 7.89056 39.4526 7.75333C39.0866 7.61611 38.6521 7.47888 38.1946 7.36452C37.7144 7.25017 37.2569 7.20442 36.7766 7.20442C36.0676 7.20442 35.5187 7.31878 35.107 7.54749C34.6953 7.77621 34.4895 8.0964 34.4895 8.53096C34.4895 8.82828 34.6039 9.10274 34.8326 9.33145C35.0613 9.56017 35.4501 9.74314 36.0447 9.85749L37.417 10.1777C38.8808 10.5208 39.9557 11.0239 40.619 11.6872C41.2823 12.3505 41.6253 13.1967 41.6253 14.2488L41.6711 14.2259Z" fill="white"/>
<path d="M47.7779 11.4128H44.5302V1.64673C44.6674 1.60098 44.8733 1.53237 45.1477 1.48663C45.4222 1.44088 45.7195 1.39514 46.0168 1.39514C46.6344 1.39514 47.0689 1.5095 47.3662 1.73821C47.6407 1.96692 47.7779 2.35574 47.7779 2.92752V11.4128ZM44.5302 10.6809H47.7779V13.9057C47.7779 14.5004 47.9609 14.9349 48.3268 15.1865C48.6928 15.461 49.1959 15.5753 49.8363 15.5753C50.1337 15.5753 50.431 15.5296 50.7741 15.461C51.1171 15.3695 51.3916 15.278 51.6203 15.1865C51.7575 15.3238 51.8948 15.5067 51.9862 15.7126C52.0777 15.9184 52.1235 16.1471 52.1235 16.4216C52.1235 16.9476 51.8719 17.3822 51.3916 17.7252C50.9113 18.0683 50.1337 18.2513 49.0816 18.2513C47.6636 18.2513 46.5657 17.9311 45.7424 17.2907C44.919 16.6503 44.5073 15.6211 44.5073 14.1573V10.7266L44.5302 10.6809ZM46.4971 7.89059V5.28326H51.8033C51.8948 5.42049 51.9634 5.58059 52.0549 5.83217C52.1463 6.08376 52.1692 6.31247 52.1692 6.56405C52.1692 7.02148 52.0549 7.34168 51.849 7.57039C51.6432 7.7991 51.3458 7.89059 51.0028 7.89059H46.4971Z" fill="white"/>
<path d="M68.7965 15.0264V6.49543H72.0671V15.3924C72.0671 15.7812 71.9756 16.1014 71.8156 16.353C71.6555 16.6045 71.3581 16.8561 70.9922 17.1077C70.5576 17.405 69.963 17.6566 69.2311 17.8853C68.4992 18.114 67.653 18.2284 66.6924 18.2284C65.2744 18.2284 64.0164 17.9997 62.9872 17.5194C61.9352 17.0391 61.1347 16.3072 60.54 15.3009C59.9682 14.2945 59.6709 13.0366 59.6709 11.4814C59.6709 9.92612 59.9682 8.62246 60.54 7.61612C61.1118 6.60978 61.9123 5.8779 62.8957 5.37474C63.8792 4.89444 64.9999 4.64285 66.2121 4.64285C66.8754 4.64285 67.4929 4.73434 68.0418 4.89444C68.5907 5.05454 69.0481 5.26038 69.3912 5.48909V8.30226C69.0939 8.02781 68.7279 7.79909 68.2476 7.59325C67.7673 7.38741 67.2413 7.27305 66.6238 7.27305C65.9376 7.27305 65.3201 7.41028 64.7712 7.70761C64.2223 8.00493 63.8106 8.46236 63.4904 9.07988C63.1702 9.69741 63.0101 10.5208 63.0101 11.5271C63.0101 12.9451 63.3303 13.9743 63.9936 14.6147C64.6568 15.278 65.5488 15.5982 66.6695 15.5982C67.1498 15.5982 67.5844 15.5525 67.9274 15.4381C68.2705 15.3237 68.5678 15.2094 68.8194 15.0493L68.7965 15.0264ZM72.0671 7.1587H68.7508L68.7737 0.205825C68.9109 0.160082 69.1167 0.11434 69.3912 0.068597C69.6657 0.0228544 69.9401 -0.0228882 70.2603 -0.0228882C70.9007 -0.0228882 71.3581 0.0914683 71.6326 0.320181C71.9299 0.548894 72.0671 0.937706 72.0671 1.50949V7.18157V7.1587Z" fill="white"/>
<path d="M77.0534 13.1052L76.9162 10.7723L84.2121 9.72022C84.1663 9.01121 83.8919 8.39368 83.4116 7.89051C82.9313 7.36448 82.2452 7.11289 81.3303 7.11289C80.4155 7.11289 79.615 7.43309 78.9974 8.09636C78.3799 8.75962 78.0597 9.67448 78.0597 10.8867L78.1512 12.2589C78.2884 13.4254 78.7459 14.2716 79.4777 14.8205C80.2096 15.3694 81.1473 15.6439 82.2909 15.6439C83.0457 15.6439 83.7547 15.5295 84.3951 15.3008C85.0355 15.0721 85.5615 14.8205 85.9503 14.5461C86.179 14.7062 86.3849 14.912 86.5221 15.1636C86.6822 15.4152 86.7508 15.6668 86.7508 15.9412C86.7508 16.4215 86.545 16.8103 86.1333 17.1534C85.7216 17.4965 85.1727 17.748 84.4637 17.931C83.7547 18.114 82.9542 18.2055 82.0622 18.2055C80.667 18.2055 79.432 17.9539 78.357 17.4278C77.2821 16.9247 76.4359 16.147 75.8412 15.1178C75.2465 14.0886 74.9492 12.8078 74.9492 11.2983C74.9492 10.1776 75.1093 9.19418 75.4524 8.37081C75.7955 7.54745 76.2529 6.83844 76.8247 6.28952C77.4193 5.74061 78.0826 5.32893 78.8602 5.05448C79.6378 4.78002 80.4383 4.64279 81.3074 4.64279C82.4967 4.64279 83.5488 4.8715 84.4408 5.3518C85.3328 5.8321 86.0418 6.49537 86.545 7.3416C87.0481 8.18784 87.2997 9.17131 87.2997 10.2691C87.2997 10.7723 87.1625 11.1611 86.9109 11.3898C86.6593 11.6414 86.2934 11.7786 85.8359 11.8472L77.0305 13.128L77.0534 13.1052Z" fill="white"/>
<path d="M94.9392 4.6429C96.7003 4.6429 98.0954 5.00884 99.1246 5.76359C100.154 6.51834 100.68 7.68478 100.68 9.30864V15.5754C100.68 16.0099 100.588 16.353 100.383 16.5817C100.177 16.8104 99.9251 17.0391 99.6049 17.245C99.1017 17.5423 98.4613 17.771 97.6837 17.954C96.9061 18.137 96.037 18.2284 95.0535 18.2284C93.2696 18.2284 91.8515 17.8854 90.8223 17.1764C89.7931 16.4674 89.2671 15.4381 89.2671 14.0659C89.2671 12.8537 89.6559 11.9388 90.4107 11.2984C91.1883 10.658 92.2861 10.2692 93.7499 10.132L97.455 9.74319V9.2629C97.455 8.53102 97.2034 7.9821 96.7003 7.66191C96.1971 7.34171 95.4881 7.18161 94.5961 7.18161C93.8871 7.18161 93.201 7.27309 92.5377 7.45607C91.8744 7.63904 91.2798 7.84488 90.7537 8.09646C90.5708 7.95923 90.4107 7.75339 90.2734 7.52468C90.1362 7.27309 90.0676 7.02151 90.0676 6.74706C90.0676 6.10666 90.4107 5.62636 91.1197 5.30616C91.6228 5.10032 92.2175 4.91735 92.8808 4.803C93.544 4.68864 94.2302 4.62003 94.9163 4.62003L94.9392 4.6429ZM95.0535 15.7355C95.6253 15.7355 96.1056 15.6897 96.5402 15.5754C96.9747 15.461 97.2949 15.3467 97.4779 15.2323V12.1218L94.7791 12.3734C94.0472 12.442 93.4754 12.625 93.0866 12.8766C92.6978 13.1281 92.5148 13.5398 92.5148 14.043C92.5148 14.5462 92.7207 14.9807 93.1323 15.3009C93.544 15.5982 94.1844 15.7583 95.0535 15.7583V15.7355Z" fill="white"/>
<path d="M107.587 12.5106L104.316 12.3505V0.205825C104.454 0.160082 104.659 0.11434 104.934 0.068597C105.208 0.0228544 105.483 -0.0228882 105.803 -0.0228882C106.443 -0.0228882 106.901 0.0914683 107.175 0.320181C107.45 0.548894 107.587 0.937706 107.587 1.50949V12.5106ZM104.316 10.658L107.587 10.8181V17.7481C107.45 17.7938 107.267 17.8396 106.992 17.8853C106.718 17.9311 106.42 17.9539 106.123 17.9539C105.506 17.9539 105.048 17.8396 104.751 17.6337C104.454 17.4279 104.293 17.0162 104.293 16.4444V10.6351L104.316 10.658Z" fill="white"/>
<path d="M121.149 14.2259C121.149 15.461 120.669 16.4444 119.731 17.1763C118.793 17.8853 117.444 18.2513 115.66 18.2513C114.219 18.2513 113.03 18.0454 112.115 17.6109C111.2 17.1763 110.743 16.6045 110.743 15.8955C110.743 15.5753 110.811 15.278 110.949 15.0264C111.086 14.7748 111.292 14.569 111.52 14.4318C112.023 14.7519 112.618 15.0493 113.281 15.3009C113.945 15.5524 114.699 15.6897 115.569 15.6897C117.124 15.6897 117.901 15.2094 117.901 14.2488C117.901 13.86 117.764 13.5398 117.49 13.2882C117.215 13.0366 116.804 12.8536 116.209 12.7393L114.631 12.3505C113.304 12.0531 112.344 11.6186 111.703 11.0011C111.063 10.3835 110.766 9.56017 110.766 8.53096C110.766 7.38739 111.223 6.47254 112.161 5.74066C113.098 5.00878 114.402 4.66571 116.072 4.66571C116.941 4.66571 117.718 4.7572 118.382 4.91729C119.068 5.10027 119.594 5.32898 119.983 5.64918C120.371 5.96937 120.554 6.35819 120.554 6.79274C120.554 7.09007 120.486 7.36452 120.349 7.61611C120.211 7.84482 120.028 8.05066 119.823 8.18789C119.617 8.05066 119.319 7.89056 118.931 7.75333C118.565 7.61611 118.13 7.47888 117.673 7.36452C117.192 7.25017 116.735 7.20442 116.255 7.20442C115.546 7.20442 114.997 7.31878 114.585 7.54749C114.173 7.77621 113.968 8.0964 113.968 8.53096C113.968 8.82828 114.082 9.10274 114.311 9.33145C114.539 9.56017 114.928 9.74314 115.523 9.85749L116.895 10.1777C118.359 10.5208 119.434 11.0239 120.097 11.6872C120.76 12.3505 121.103 13.1967 121.103 14.2488L121.149 14.2259Z" fill="white"/>
<path d="M9.49174 37.3944C9.24016 38.3779 8.94283 39.4071 8.62263 40.4363C8.30243 41.4655 7.98223 42.4261 7.70778 43.3181C7.41045 44.2101 7.15887 44.942 6.95303 45.5366C6.77006 45.6967 6.51847 45.8339 6.22115 45.9254C5.92382 46.0169 5.53501 46.0627 5.10045 46.0627C4.62016 46.0627 4.1856 45.994 3.79679 45.8339C3.40798 45.6738 3.15639 45.468 3.01917 45.1707C2.8362 44.8047 2.65322 44.3016 2.44738 43.6154C2.24154 42.9522 2.01283 42.1745 1.80699 41.3054C1.57827 40.4363 1.34956 39.5215 1.12085 38.5837C0.892136 37.646 0.686294 36.7312 0.503324 35.8392C0.320354 34.9472 0.160255 34.1696 0.0458984 33.4835C0.228869 33.3005 0.457582 33.1404 0.754908 32.9803C1.05224 32.8202 1.3953 32.7516 1.76124 32.7516C2.24154 32.7516 2.60748 32.8659 2.88194 33.0946C3.15639 33.3234 3.33936 33.7122 3.43085 34.2611C3.59095 35.3132 3.75105 36.2966 3.93402 37.2343C4.11699 38.1721 4.27709 39.0183 4.43719 39.7731C4.59728 40.5278 4.73451 41.1911 4.84887 41.74C4.96322 42.2889 5.05471 42.7006 5.12332 42.975H5.23768C5.35204 42.5634 5.53501 41.9001 5.78659 40.9852C6.03818 40.0704 6.35837 39.0412 6.70144 37.8519C7.04451 36.6854 7.41045 35.4961 7.75352 34.3068C8.00511 34.1696 8.27956 34.0552 8.53115 33.9866C8.8056 33.918 9.1258 33.8723 9.46887 33.8723C9.94916 33.8723 10.338 33.9409 10.6582 34.101C10.9784 34.2611 11.1842 34.4898 11.2757 34.81C11.6645 35.9536 12.0076 37.0742 12.3278 38.1721C12.648 39.2699 12.9224 40.2533 13.174 41.0767C13.4256 41.9001 13.5857 42.5405 13.7001 42.9522H13.8373C14.1346 41.4427 14.4777 39.8645 14.8207 38.1721C15.1638 36.4796 15.4611 34.81 15.7127 33.1404C16.1702 32.8659 16.6505 32.7287 17.1994 32.7287C17.6568 32.7287 18.0227 32.8202 18.3201 33.0489C18.6174 33.2547 18.7546 33.5978 18.7546 34.0552C18.7546 34.2839 18.7089 34.6956 18.5945 35.2674C18.4802 35.8392 18.3429 36.5025 18.1828 37.2343C17.9999 37.9662 17.8169 38.7667 17.611 39.5901C17.4052 40.4134 17.1765 41.2139 16.9478 41.9916C16.7191 42.7692 16.5132 43.4553 16.3074 44.0729C16.1015 44.6904 15.9414 45.1707 15.7813 45.5137C15.6212 45.651 15.3468 45.7882 15.0037 45.8797C14.6378 45.9712 14.249 46.0398 13.8373 46.0398C12.7395 46.0398 12.0991 45.7653 11.9161 45.2164C11.7103 44.6675 11.4587 43.9814 11.1613 43.1351C10.864 42.2889 10.5896 41.3512 10.3151 40.3677C10.0178 39.3614 9.76619 38.3779 9.49174 37.3944Z" fill="white"/>
<path d="M21.27 29.1837C21.27 28.6576 21.453 28.2231 21.8189 27.88C22.1849 27.5369 22.6423 27.354 23.1912 27.354C23.7401 27.354 24.1975 27.5369 24.5635 27.88C24.9066 28.2231 25.0895 28.6805 25.0895 29.1837C25.0895 29.6868 24.9066 30.1214 24.5635 30.4873C24.2204 30.8533 23.763 31.0362 23.1912 31.0362C22.6194 31.0362 22.162 30.8533 21.8189 30.4873C21.453 30.1214 21.27 29.6868 21.27 29.1837ZM24.8151 40.3449H21.5445V33.1175C21.6817 33.0718 21.8875 33.0261 22.162 32.9803C22.4365 32.9346 22.7109 32.8888 23.0311 32.8888C23.6715 32.8888 24.1289 33.0032 24.4034 33.2319C24.6778 33.4606 24.8151 33.8494 24.8151 34.4441V40.3449ZM21.5445 38.6753H24.8151V45.7654C24.6778 45.8111 24.4949 45.8568 24.2204 45.9026C23.946 45.9483 23.6486 45.9712 23.3284 45.9712C22.7338 45.9712 22.2764 45.8568 21.979 45.651C21.6817 45.4452 21.5216 45.0335 21.5216 44.4617V38.6524L21.5445 38.6753Z" fill="white"/>
<path d="M31.7462 39.4072H28.4985V29.664C28.6357 29.6183 28.8415 29.5497 29.116 29.5039C29.3904 29.4582 29.6878 29.4124 29.9851 29.4124C30.6026 29.4124 31.0372 29.5268 31.3345 29.7555C31.609 29.9842 31.7462 30.373 31.7462 30.9448V39.4301V39.4072ZM28.4985 38.6753H31.7462V41.9002C31.7462 42.4948 31.9292 42.9294 32.2951 43.181C32.661 43.4554 33.1642 43.5698 33.8046 43.5698C34.1019 43.5698 34.3992 43.524 34.7423 43.4554C35.0854 43.3639 35.3598 43.2724 35.5886 43.181C35.7258 43.3182 35.863 43.5012 35.9545 43.707C36.046 43.9128 36.0917 44.1416 36.0917 44.416C36.0917 44.942 35.8401 45.3766 35.3598 45.7197C34.8795 46.0627 34.1019 46.2457 33.0498 46.2457C31.6318 46.2457 30.534 45.9255 29.7106 45.2851C28.8873 44.6447 28.4756 43.6155 28.4756 42.1518V38.7211L28.4985 38.6753ZM30.4654 35.885V33.2777H35.7715C35.863 33.4149 35.9316 33.575 36.0231 33.8266C36.1146 34.0782 36.1375 34.3069 36.1375 34.5585C36.1375 35.0159 36.0231 35.3361 35.8173 35.5648C35.6114 35.7935 35.3141 35.885 34.971 35.885H30.4654Z" fill="white"/>
<path d="M42.2206 40.3449H38.9043V28.2003C39.0415 28.1545 39.2474 28.1088 39.5218 28.063C39.7963 28.0173 40.0936 27.9716 40.4138 27.9716C41.0313 27.9716 41.4888 28.0859 41.7632 28.3146C42.0605 28.5433 42.1978 28.9322 42.1978 29.5039V40.3449H42.2206ZM38.9043 38.6753H42.2206V45.7654C42.0834 45.8112 41.8776 45.8569 41.6031 45.9026C41.3287 45.9484 41.0542 45.9713 40.734 45.9713C40.1165 45.9713 39.659 45.8569 39.3617 45.6511C39.0644 45.4452 38.9043 45.0335 38.9043 44.4618V38.6524V38.6753ZM50.7288 40.3449H47.4124V37.8977C47.4124 36.96 47.1608 36.2738 46.6577 35.8622C46.1545 35.4505 45.537 35.2446 44.7822 35.2446C44.1418 35.2446 43.57 35.359 43.0669 35.5877C42.5637 35.8164 42.1063 36.0909 41.7175 36.4339L41.5116 33.758C41.9462 33.5064 42.4951 33.2548 43.1355 33.0032C43.7759 32.7517 44.5306 32.6144 45.354 32.6144C46.955 32.6144 48.2587 33.049 49.2421 33.8952C50.2256 34.7415 50.7288 36.0223 50.7288 37.7376V40.3449ZM47.4124 38.6982H50.7288V45.7654C50.5915 45.8112 50.3857 45.8569 50.1112 45.9026C49.8368 45.9484 49.5394 45.9713 49.2421 45.9713C48.6017 45.9713 48.1443 45.8569 47.8698 45.6511C47.5725 45.4452 47.4353 45.0335 47.4353 44.4618V38.6982H47.4124Z" fill="white"/>
<path d="M62.9872 35.1074H59.6709V28.2003C59.8081 28.1545 60.014 28.1088 60.2884 28.063C60.5629 28.0173 60.8602 27.9716 61.1804 27.9716C61.7979 27.9716 62.2554 28.0859 62.5298 28.3146C62.8271 28.5433 62.9644 28.9322 62.9644 29.5039V35.1074H62.9872ZM66.0291 32.6144C67.1956 32.6144 68.2248 32.866 69.1625 33.3692C70.1002 33.8724 70.8321 34.6042 71.381 35.6106C71.9299 36.6169 72.2044 37.8748 72.2044 39.3843C72.2044 40.8938 71.9299 42.1289 71.3581 43.1581C70.7863 44.1644 70.0087 44.9192 68.9795 45.4452C67.9503 45.9713 66.7839 46.2 65.4345 46.2C64.4053 46.2 63.5133 46.0856 62.7357 45.834C61.958 45.5825 61.3405 45.308 60.8145 44.9878C60.4257 44.7362 60.1512 44.4618 59.9682 44.1644C59.7853 43.8671 59.6938 43.524 59.6938 43.1124V34.3526H62.9644V42.9065C63.2159 43.0666 63.5361 43.2267 63.9478 43.3639C64.3595 43.5012 64.8169 43.5698 65.3658 43.5698C66.3951 43.5698 67.2184 43.2267 67.8588 42.5406C68.4992 41.8544 68.7965 40.8024 68.7965 39.4072C68.7965 38.0121 68.4763 36.9142 67.8588 36.251C67.2413 35.5877 66.4179 35.2675 65.4345 35.2675C64.7941 35.2675 64.2223 35.3819 63.7191 35.6334C63.2388 35.885 62.8043 36.1595 62.4841 36.4568L62.2782 33.7809C62.667 33.5293 63.1931 33.2777 63.8106 33.0261C64.4281 32.7745 65.1829 32.6373 66.0062 32.6373L66.0291 32.6144Z" fill="white"/>
<path d="M78.4941 40.505L75.2236 40.3449V28.2003C75.3608 28.1545 75.5666 28.1088 75.8411 28.063C76.1155 28.0173 76.39 27.9716 76.7102 27.9716C77.3506 27.9716 77.808 28.0859 78.0825 28.3146C78.3569 28.5433 78.4941 28.9322 78.4941 29.5039V40.505ZM75.2236 38.6524L78.4941 38.8125V45.7425C78.3569 45.7883 78.174 45.834 77.8995 45.8798C77.625 45.9255 77.3277 45.9484 77.0304 45.9484C76.4129 45.9484 75.9554 45.834 75.6581 45.6282C75.3608 45.4224 75.2007 45.0107 75.2007 44.4389V38.6296L75.2236 38.6524Z" fill="white"/>
<path d="M82.0405 29.1837C82.0405 28.6576 82.2235 28.2231 82.5894 27.88C82.9554 27.5369 83.4128 27.354 83.9617 27.354C84.5106 27.354 84.9681 27.5369 85.334 27.88C85.6771 28.2231 85.86 28.6805 85.86 29.1837C85.86 29.6868 85.6771 30.1214 85.334 30.4873C84.9909 30.8533 84.5335 31.0362 83.9617 31.0362C83.3899 31.0362 82.9325 30.8533 82.5894 30.4873C82.2235 30.1214 82.0405 29.6868 82.0405 29.1837ZM85.5856 40.3449H82.315V33.1175C82.4522 33.0718 82.6581 33.0261 82.9325 32.9803C83.207 32.9346 83.4814 32.8888 83.8016 32.8888C84.442 32.8888 84.8994 33.0032 85.1739 33.2319C85.4484 33.4606 85.5856 33.8494 85.5856 34.4441V40.3449ZM82.315 38.6753H85.5856V45.7654C85.4483 45.8111 85.2654 45.8568 84.9909 45.9026C84.7165 45.9483 84.4191 45.9712 84.0989 45.9712C83.5043 45.9712 83.0469 45.8568 82.7495 45.651C82.4522 45.4452 82.2921 45.0335 82.2921 44.4617V38.6524L82.315 38.6753Z" fill="white"/>
<path d="M101.047 37.4402V40.0933H97.7765V37.5774C97.7765 36.7541 97.5478 36.1823 97.0904 35.7935C96.633 35.4275 96.0154 35.2445 95.2378 35.2445C94.6889 35.2445 94.2086 35.3132 93.7512 35.4504C93.2938 35.5876 92.9049 35.7477 92.5619 35.9536V40.0933H89.2455V35.7248C89.2455 35.2903 89.337 34.9472 89.52 34.6728C89.703 34.3983 89.9774 34.1467 90.3662 33.8951C90.8923 33.5521 91.5784 33.2547 92.4475 33.0032C93.3166 32.7516 94.2543 32.6143 95.2836 32.6143C97.1133 32.6143 98.5313 33.026 99.5605 33.8265C100.59 34.627 101.093 35.8392 101.093 37.4402H101.047ZM89.2227 38.7439H92.539V45.7653C92.4018 45.8111 92.1959 45.8568 91.9215 45.9026C91.647 45.9483 91.3497 45.9712 91.0524 45.9712C90.4348 45.9712 89.9774 45.8568 89.6801 45.651C89.3828 45.4451 89.2227 45.0335 89.2227 44.4617V38.7439ZM97.7537 38.7439H101.024V45.7653C100.887 45.8111 100.704 45.8568 100.407 45.9026C100.132 45.9483 99.8349 45.9712 99.5376 45.9712C98.9201 45.9712 98.4627 45.8568 98.1882 45.651C97.8909 45.4451 97.7537 45.0335 97.7537 44.4617V38.7439Z" fill="white"/>
<path d="M107.886 40.4593L104.569 40.2992V28.2231C104.707 28.1774 104.912 28.1316 105.187 28.0859C105.461 28.0402 105.759 27.9944 106.079 27.9944C106.696 27.9944 107.154 28.1088 107.428 28.3375C107.726 28.5662 107.863 28.955 107.863 29.5268V40.4821L107.886 40.4593ZM104.569 38.6067L107.886 38.7668V45.7654C107.748 45.8111 107.543 45.8569 107.268 45.9026C106.994 45.9484 106.719 45.9712 106.399 45.9712C105.782 45.9712 105.324 45.8569 105.027 45.651C104.729 45.4452 104.569 45.0335 104.569 44.4617V38.6067ZM109.372 40.4135L107.085 38.8583L113.215 32.7516C113.878 32.7516 114.427 32.9117 114.816 33.2091C115.204 33.5064 115.41 33.8723 115.41 34.3298C115.41 34.7186 115.273 35.0845 115.022 35.3818C114.77 35.6792 114.358 36.0451 113.832 36.4797L109.372 40.4135ZM107.154 39.3614L109.67 38.1493L116.028 44.1187C115.982 44.7133 115.799 45.1707 115.479 45.5138C115.182 45.8569 114.747 46.017 114.198 46.017C113.809 46.017 113.443 45.9026 113.1 45.6968C112.757 45.4909 112.414 45.1707 112.025 44.7362L107.131 39.3614H107.154Z" fill="white"/>
<path d="M118.451 44.21C118.451 43.6611 118.634 43.1808 119 42.792C119.366 42.4032 119.846 42.2202 120.464 42.2202C121.081 42.2202 121.562 42.4032 121.928 42.792C122.294 43.1808 122.477 43.6382 122.477 44.21C122.477 44.7818 122.294 45.2621 121.928 45.628C121.562 45.994 121.081 46.177 120.464 46.177C119.846 46.177 119.366 45.994 119 45.628C118.634 45.2621 118.451 44.7818 118.451 44.21ZM122.133 29.0464C122.133 29.4352 122.133 29.9841 122.133 30.6702C122.133 31.3564 122.111 32.1111 122.065 32.9574C122.019 33.8036 121.996 34.6498 121.95 35.5418C121.905 36.4338 121.882 37.28 121.836 38.0805C121.79 38.9039 121.745 39.6129 121.722 40.2533C121.585 40.3448 121.402 40.4134 121.15 40.482C120.898 40.5506 120.67 40.5735 120.441 40.5735C120.075 40.5735 119.778 40.5049 119.526 40.3448C119.275 40.2076 119.114 39.956 119.069 39.6358C119.023 39.2241 119 38.6294 118.954 37.8976C118.909 37.1428 118.886 36.3194 118.84 35.4046C118.794 34.4897 118.771 33.5749 118.748 32.6372C118.748 31.6994 118.703 30.8075 118.703 29.9841C118.703 29.1607 118.68 28.4746 118.68 27.9257C119.229 27.6055 119.846 27.4454 120.532 27.4454C121.607 27.4454 122.156 27.9943 122.156 29.0692L122.133 29.0464Z" fill="white"/>
</g>
<defs>
<clipPath id="clip0_15534_7788">
<rect width="122.476" height="46.2" fill="white"/>
</clipPath>
</defs>
</svg>
