<svg fill="none" height="96" viewBox="0 0 170 96" width="170" xmlns="http://www.w3.org/2000/svg">
<path clip-rule="evenodd" d="M2.37175 30C3.66543 30 4.74349 28.913 4.74349 27.6087V15.9783C4.74349 9.78261 9.7026 4.78261 15.8476 4.78261H26.6283C27.9219 4.78261 29 3.69565 29 2.3913C29 1.08696 27.9219 0 26.6283 0H15.8476C7.11524 0 0 7.17391 0 15.9783V27.6087C0 28.913 1.07807 30 2.37175 30ZM143.372 0H154.152C162.885 0 170 7.17391 170 15.9783V27.6087C170 28.913 168.922 30 167.628 30C166.335 30 165.257 28.913 165.257 27.6087V15.9783C165.257 9.78261 160.297 4.78261 154.152 4.78261H143.372C142.078 4.78261 141 3.69565 141 2.3913C141 1.08696 142.078 0 143.372 0ZM165.257 70.3602C165.257 69.0728 166.335 68 167.628 68C168.922 68 170 69.0728 170 70.3602V80.2299C170 88.9195 162.885 96 154.152 96H143.372C142.078 96 141 94.9272 141 93.6398C141 92.3525 142.078 91.2797 143.372 91.2797H154.152C160.297 91.2797 165.257 86.3448 165.257 80.2299V70.3602ZM15.8476 91.2797H26.6283C27.9219 91.2797 29 92.3525 29 93.6398C29 94.9272 28.0297 96 26.6283 96H15.8476C7.11524 96 0 88.9195 0 80.2299V70.3602C0 69.0728 1.07807 68 2.37175 68C3.66543 68 4.74349 69.0728 4.74349 70.3602V80.2299C4.74349 86.3448 9.7026 91.2797 15.8476 91.2797Z" fill="#841FD0" fill-rule="evenodd"/>
<path d="M101.122 15.3505C105.601 13.2933 110.84 12.25 116.693 12.25C122.507 12.25 127.746 13.2933 132.27 15.3538C132.488 15.4545 132.719 15.5 132.943 15.5C133.561 15.5 134.152 15.1458 134.425 14.5478C134.796 13.732 134.435 12.7668 133.619 12.3963C128.669 10.144 122.975 9 116.693 9C110.365 9 104.668 10.144 99.7638 12.3995C98.9513 12.7733 98.5938 13.7385 98.9676 14.5543C99.3446 15.3668 100.303 15.7243 101.122 15.3505Z" fill="#841FD0" stroke="white" stroke-width="1.17"/>
<path d="M95.1009 28.019C101.091 21.9545 108.553 18.75 116.687 18.75C124.855 18.75 132.326 21.9545 138.287 28.0158C138.605 28.3375 139.025 28.5 139.444 28.5C139.853 28.5 140.266 28.344 140.585 28.032C141.225 27.4015 141.235 26.3745 140.604 25.7343C134.016 19.0393 125.745 15.5 116.687 15.5C107.665 15.5 99.4006 19.0393 92.7901 25.731C92.1596 26.3713 92.1661 27.4015 92.8031 28.032C93.4434 28.6625 94.4704 28.6528 95.1009 28.019Z" fill="#841FD0" stroke="white" stroke-width="1.17"/>
<path d="M116.687 22C114.37 22 112.069 22.286 109.846 22.8515C108.975 23.0725 108.449 23.9565 108.67 24.8275C108.891 25.6985 109.781 26.2185 110.646 26.0008C112.605 25.5035 114.64 25.25 116.687 25.25C130.129 25.25 141.062 36.183 141.062 49.625C141.062 50.522 141.79 51.25 142.687 51.25C143.584 51.25 144.312 50.522 144.312 49.625C144.312 34.3923 131.92 22 116.687 22Z" fill="#841FD0" stroke="white" stroke-width="1.17"/>
<path d="M92.3185 49.6515C92.4225 43.0865 94.938 36.9863 99.4068 32.4688C100.928 30.9283 102.628 29.6088 104.457 28.5395C105.231 28.0878 105.491 27.0933 105.039 26.3165C104.591 25.5463 103.599 25.283 102.816 25.7348C100.743 26.947 98.8153 28.4453 97.096 30.1873C92.0358 35.3028 89.1855 42.196 89.0685 49.6028C89.0555 50.4998 89.7705 51.2375 90.6708 51.2505C90.6773 51.2505 90.687 51.2505 90.6968 51.2505C91.5808 51.2505 92.3055 50.542 92.3185 49.6515Z" fill="#841FD0" stroke="white" stroke-width="1.17"/>
<path d="M98.8156 50.0248C98.8156 45.049 100.665 40.4405 104.029 37.041C107.402 33.6285 111.894 31.75 116.687 31.75C121.845 31.75 126.759 33.9893 130.162 37.8958C130.75 38.5717 131.78 38.64 132.456 38.0518C133.132 37.4602 133.201 36.4333 132.612 35.7573C128.589 31.1455 122.784 28.5 116.687 28.5C111.019 28.5 105.706 30.723 101.721 34.7563C97.7496 38.7668 95.5656 44.191 95.5656 50.1093C95.5754 53.6063 94.4834 57.7987 92.5269 61.8255L91.6136 63.4505C91.1749 64.2337 91.4511 65.2218 92.2344 65.6638C92.4879 65.8068 92.7609 65.875 93.0306 65.875C93.5994 65.875 94.1519 65.576 94.4476 65.0463L95.4064 63.3368C97.6521 58.7153 98.8286 54.1393 98.8156 50.0248Z" fill="#841FD0" stroke="white" stroke-width="1.17"/>
<path d="M139.001 62.361C137.971 57.6582 137.883 53.17 137.828 50.4855L137.812 49.6242C137.812 47.216 137.406 44.85 136.606 42.5912C136.307 41.7462 135.387 41.3042 134.533 41.6032C133.688 41.9022 133.246 42.8285 133.545 43.6767C134.221 45.5845 134.562 47.5865 134.562 49.6665L134.581 50.5505C134.64 53.352 134.731 58.0417 135.862 63.18L137.721 69.303C137.932 70.005 138.579 70.4535 139.278 70.4535C139.434 70.4535 139.593 70.4307 139.752 70.3852C140.61 70.122 141.094 69.2185 140.834 68.3572L139.001 62.361Z" fill="#841FD0" stroke="white" stroke-width="1.17"/>
<path d="M134.581 71.0263C131.9 62.6543 131.4 53.2423 131.312 49.625C131.312 41.5618 124.75 35 116.687 35C108.624 35 102.065 41.6625 102.065 49.9078C102.072 51.6173 101.756 60.649 94.8925 70.5485C94.379 71.2863 94.5642 72.3003 95.2987 72.8105C96.0332 73.3208 97.0505 73.1388 97.5607 72.4043C104.795 61.975 105.325 52.5403 105.315 49.8558C105.315 43.4565 110.418 38.2533 116.687 38.2533C122.959 38.2533 128.062 43.3558 128.062 49.6673C128.179 54.3863 128.78 63.5643 131.484 72.011L132.986 76.8308C133.203 77.5263 133.844 77.9715 134.539 77.9715C134.698 77.9715 134.861 77.9488 135.023 77.9C135.881 77.6303 136.359 76.7203 136.093 75.8655L134.581 71.0263Z" fill="#841FD0" stroke="white" stroke-width="1.17"/>
<path d="M124.812 49.625C124.812 45.1465 121.165 41.5 116.687 41.5C112.208 41.5 108.562 45.1465 108.562 49.6868C108.581 50.223 108.942 62.989 98.6202 76.4213C98.0742 77.133 98.2074 78.1535 98.9192 78.6995C99.6342 79.2488 100.651 79.109 101.197 78.4005C112.225 64.0485 111.828 50.1482 111.809 49.625C111.809 46.9373 113.996 44.75 116.684 44.75C119.371 44.75 121.559 46.9373 121.562 49.6608C121.607 51.4808 121.617 67.8997 108.929 84.3838C108.383 85.0955 108.513 86.116 109.225 86.662C109.524 86.8895 109.872 87 110.216 87C110.704 87 111.185 86.7823 111.503 86.3663C124.896 68.9723 124.857 51.5198 124.812 49.625Z" fill="#841FD0" stroke="white" stroke-width="1.17"/>
<path d="M115.894 57.7238C115.982 57.7368 116.07 57.7433 116.154 57.7433C116.937 57.7433 117.63 57.1745 117.756 56.3783C118.419 52.254 118.312 49.6605 118.306 49.5533C118.263 48.6595 117.561 47.9478 116.612 48.003C115.719 48.042 115.023 48.7993 115.059 49.6963C115.059 49.719 115.15 52.098 114.545 55.8583C114.406 56.7455 115.01 57.5808 115.894 57.7238Z" fill="#841FD0" stroke="white" stroke-width="1.17"/>
<path d="M115.118 61.1129C114.253 60.8561 113.353 61.3501 113.096 62.2081C111.065 69.0689 107.685 75.4844 103.057 81.2824C102.498 81.9844 102.612 83.0049 103.314 83.5671C103.613 83.8076 103.97 83.9214 104.328 83.9214C104.805 83.9214 105.277 83.7134 105.598 83.3104C110.49 77.1874 114.061 70.3981 116.216 63.1344C116.47 62.2731 115.979 61.3664 115.118 61.1129Z" fill="#841FD0" stroke="white" stroke-width="1.17"/>
<path d="M128.907 74.3603C128.127 72.0268 127.399 69.56 127.396 69.5503C127.201 68.8905 126.616 68.4258 125.93 68.3868C125.228 68.338 124.608 68.741 124.341 69.3748C124.305 69.4593 120.685 77.971 116.535 84.5035C116.054 85.2608 116.278 86.265 117.035 86.746C117.305 86.9183 117.607 86.9995 117.906 86.9995C118.446 86.9995 118.969 86.733 119.278 86.2455C121.79 82.2903 124.071 77.7435 125.56 74.5813C125.644 74.8413 125.732 75.1045 125.82 75.3645L127.767 81.559C128.036 82.4138 128.94 82.8948 129.804 82.6218C130.659 82.352 131.137 81.442 130.867 80.584L128.907 74.3603Z" fill="#841FD0" stroke="white" stroke-width="1.17"/>
<path clip-rule="evenodd" d="M25 35.6603C25 34.2352 26.1518 33 27.6875 33C29.1272 33 30.375 34.1401 30.375 35.6603V42.5012C30.375 43.9264 29.2232 45.0665 27.6875 45.0665C26.2478 45.0665 25 43.9264 25 42.4062V35.6603ZM68 42.5012C67.904 43.9264 66.7522 45.0665 65.3125 45.0665C63.8728 45.0665 62.625 43.9264 62.625 42.4062V35.6603C62.625 34.2352 63.7768 33 65.3125 33C66.8482 33 68 34.1401 68 35.6603V42.5012ZM47.5558 68.8195C52.2589 68.8195 56.8661 66.9192 60.3214 63.4988C61.1853 62.6437 62.529 62.6437 63.2969 63.4988C64.1607 64.3539 64.1607 65.6841 63.2969 66.4442C59.0737 70.7197 53.4107 73 47.5558 73H46.7879C40.933 73 35.3661 70.7197 31.0469 66.4442C30.183 65.5891 30.183 64.2589 31.0469 63.4988C31.9107 62.6437 33.2545 62.6437 34.0223 63.4988C37.4777 66.9192 41.9888 68.8195 46.7879 68.8195H47.5558ZM41.8929 57.7031H42.3728C46.692 57.7031 50.1473 54.2827 50.1473 50.1021V35.6603C50.1473 34.5202 49.1875 33.5701 48.0357 33.5701C46.8839 33.5701 45.9241 34.5202 45.9241 35.6603V50.0071C45.9241 52.0024 44.2924 53.5226 42.3728 53.5226H41.8929C40.7411 53.5226 39.7812 54.4727 39.7812 55.6128C39.7812 56.753 40.7411 57.7031 41.8929 57.7031Z" fill="#841FD0" fill-rule="evenodd"/>
<path d="M68 42.5012L68.5837 42.5405L68.585 42.5209V42.5012H68ZM60.3214 63.4988L60.733 63.9146V63.9146L60.3214 63.4988ZM63.2969 63.4988L62.8616 63.8897L62.8731 63.9025L62.8853 63.9146L63.2969 63.4988ZM63.2969 66.4442L62.9104 66.005L62.8951 66.0185L62.8807 66.0331L63.2969 66.4442ZM31.0469 66.4442L31.4584 66.0284H31.4584L31.0469 66.4442ZM31.0469 63.4988L31.4333 63.938L31.4462 63.9267L31.4584 63.9146L31.0469 63.4988ZM34.0223 63.4988L33.5871 63.8897L33.5985 63.9025L33.6108 63.9146L34.0223 63.4988ZM27.6875 32.415C25.8207 32.415 24.415 33.9201 24.415 35.6603H25.585C25.585 34.5502 26.4829 33.585 27.6875 33.585V32.415ZM30.96 35.6603C30.96 33.798 29.4309 32.415 27.6875 32.415V33.585C28.8235 33.585 29.79 34.4823 29.79 35.6603H30.96ZM30.96 42.5012V35.6603H29.79V42.5012H30.96ZM27.6875 45.6515C29.5266 45.6515 30.96 44.2688 30.96 42.5012H29.79C29.79 43.5839 28.9199 44.4815 27.6875 44.4815V45.6515ZM24.415 42.4062C24.415 44.2685 25.9441 45.6515 27.6875 45.6515V44.4815C26.5515 44.4815 25.585 43.5842 25.585 42.4062H24.415ZM24.415 35.6603V42.4062H25.585V35.6603H24.415ZM65.3125 45.6515C67.0769 45.6515 68.4682 44.2557 68.5837 42.5405L67.4163 42.4619C67.3399 43.597 66.4276 44.4815 65.3125 44.4815V45.6515ZM62.04 42.4062C62.04 44.2685 63.5691 45.6515 65.3125 45.6515V44.4815C64.1765 44.4815 63.21 43.5842 63.21 42.4062H62.04ZM62.04 35.6603V42.4062H63.21V35.6603H62.04ZM65.3125 32.415C63.4457 32.415 62.04 33.9201 62.04 35.6603H63.21C63.21 34.5502 64.1079 33.585 65.3125 33.585V32.415ZM68.585 35.6603C68.585 33.8115 67.1657 32.415 65.3125 32.415V33.585C66.5307 33.585 67.415 34.4688 67.415 35.6603H68.585ZM68.585 42.5012V35.6603H67.415V42.5012H68.585ZM59.9099 63.0831C56.5618 66.3973 52.1017 68.2345 47.5558 68.2345V69.4045C52.4162 69.4045 57.1704 67.4412 60.733 63.9146L59.9099 63.0831ZM63.7321 63.108C62.7191 61.9798 60.9873 62.0165 59.9099 63.0831L60.733 63.9146C61.3832 63.2709 62.339 63.3076 62.8616 63.8897L63.7321 63.108ZM63.6833 66.8834C64.8265 65.8775 64.789 64.1527 63.7084 63.0831L62.8853 63.9146C63.5325 64.5552 63.495 65.4907 62.9104 66.005L63.6833 66.8834ZM47.5558 73.585C53.5635 73.585 59.3774 71.2446 63.7131 66.8553L62.8807 66.0331C58.7699 70.1948 53.2579 72.415 47.5558 72.415V73.585ZM46.7879 73.585H47.5558V72.415H46.7879V73.585ZM30.6353 66.8599C35.0623 71.2421 40.7764 73.585 46.7879 73.585V72.415C41.0896 72.415 35.6699 70.1973 31.4584 66.0284L30.6353 66.8599ZM30.6604 63.0596C29.5173 64.0655 29.5548 65.7903 30.6353 66.8599L31.4584 66.0284C30.8113 65.3878 30.8488 64.4523 31.4333 63.938L30.6604 63.0596ZM34.4576 63.108C33.4445 61.9798 31.7128 62.0165 30.6353 63.0831L31.4584 63.9146C32.1087 63.2709 33.0644 63.3076 33.5871 63.8897L34.4576 63.108ZM46.7879 68.2345C42.1478 68.2345 37.7832 66.3985 34.4339 63.0831L33.6108 63.9146C37.1722 67.44 41.8299 69.4045 46.7879 69.4045V68.2345ZM47.5558 68.2345H46.7879V69.4045H47.5558V68.2345ZM42.3728 57.1181H41.8929V58.2881H42.3728V57.1181ZM49.5623 50.1021C49.5623 53.9493 46.3793 57.1181 42.3728 57.1181V58.2881C47.0047 58.2881 50.7323 54.616 50.7323 50.1021H49.5623ZM49.5623 35.6603V50.1021H50.7323V35.6603H49.5623ZM48.0357 34.1551C48.87 34.1551 49.5623 34.8489 49.5623 35.6603H50.7323C50.7323 34.1915 49.505 32.9851 48.0357 32.9851V34.1551ZM46.5091 35.6603C46.5091 34.8489 47.2014 34.1551 48.0357 34.1551V32.9851C46.5665 32.9851 45.3391 34.1915 45.3391 35.6603H46.5091ZM46.5091 50.0071V35.6603H45.3391V50.0071H46.5091ZM42.3728 54.1076C44.5995 54.1076 46.5091 52.3413 46.5091 50.0071H45.3391C45.3391 51.6635 43.9853 52.9376 42.3728 52.9376V54.1076ZM41.8929 54.1076H42.3728V52.9376H41.8929V54.1076ZM40.3663 55.6128C40.3663 54.8014 41.0585 54.1076 41.8929 54.1076V52.9376C40.4236 52.9376 39.1962 54.144 39.1962 55.6128H40.3663ZM41.8929 57.1181C41.0585 57.1181 40.3663 56.4243 40.3663 55.6128H39.1962C39.1962 57.0816 40.4236 58.2881 41.8929 58.2881V57.1181Z" fill="white"/>
</svg>
