<svg fill="none" height="24" viewBox="0 0 24 24" width="24" xmlns="http://www.w3.org/2000/svg">
    <path
        d="M13.1904 8.75876L13.1903 8.75886L13.199 8.76647C13.6924 9.19824 13.988 9.86733 13.988 10.5371V14.3259C13.988 16.2022 13.3232 18.0083 12.1352 19.4347L9.03409 23.0904C8.92156 23.215 8.77857 23.2726 8.65334 23.2726C8.52121 23.2726 8.39141 23.2251 8.32202 23.1656L8.32208 23.1655L8.31448 23.1593C8.10642 22.9879 8.07228 22.6746 8.25435 22.451L11.3584 18.7917L11.3585 18.7916C12.421 17.5385 12.9926 15.9586 12.9926 14.3259V10.5371C12.9926 10.1537 12.839 9.75906 12.5188 9.47888C12.2106 9.2092 11.8201 9.09157 11.4325 9.13032L11.4325 9.13029L11.4271 9.1309C10.6959 9.21214 10.2928 9.81021 10.1859 10.3023C10.1189 10.5918 9.85536 10.7424 9.60268 10.6822L9.60268 10.6822L9.59768 10.681C9.30681 10.6149 9.15535 10.3509 9.21543 10.0976C9.47324 9.02429 10.3212 8.25936 11.3283 8.15538C12.0307 8.09224 12.6959 8.30553 13.1904 8.75876Z"
        fill="black" stroke="#101010" />
    <path
        d="M10.674 13.6189C10.674 13.0632 10.2193 12.6338 9.6889 12.6338C9.15847 12.6338 8.70382 13.0884 8.70382 13.6189C8.70382 14.6797 8.32494 15.7153 7.64297 16.5236L4.43515 20.3123C4.08153 20.7417 4.13205 21.3732 4.56144 21.7268C4.73825 21.8784 4.99083 21.9541 5.21816 21.9541C5.496 21.9541 5.77384 21.8279 5.97591 21.6005L9.18373 17.8118C10.1183 16.6499 10.674 15.1596 10.674 13.6189Z"
        fill="black" />
    <path
        d="M17.3422 13.3408C16.7865 13.3408 16.3572 13.7955 16.3572 14.3259C16.3572 16.7507 15.4984 19.0997 13.9323 20.9689L12.7199 22.3581C12.3663 22.7875 12.4168 23.4189 12.8462 23.7725C13.023 23.9241 13.2504 23.9999 13.5029 23.9999C13.7808 23.9999 14.0586 23.8736 14.2607 23.6463L15.4478 22.257C17.317 20.0343 18.3526 17.2306 18.3526 14.3259C18.3273 13.7702 17.8979 13.3408 17.3422 13.3408Z"
        fill="black" />
    <path
        d="M10.9265 3.81876C10.3708 3.86928 9.96669 4.34919 10.0172 4.90487C10.0677 5.46056 10.5476 5.86469 11.1033 5.81417C12.442 5.68788 13.7807 6.11728 14.7658 7.02658C15.7509 7.93588 16.3318 9.22406 16.3318 10.5628C16.3318 11.1184 16.7865 11.5478 17.3169 11.5478C17.8473 11.5478 18.302 11.0932 18.302 10.5628C18.302 8.66837 17.4937 6.82451 16.0792 5.56159C14.7153 4.27341 12.8209 3.64195 10.9265 3.81876Z"
        fill="black" />
    <path
        d="M6.83465 13.6189V10.6637C6.83465 9.22397 7.44085 7.86001 8.5017 6.95071C8.90584 6.59709 8.95635 5.96563 8.60274 5.53624C8.24912 5.13211 7.61766 5.08159 7.18826 5.43521C5.69802 6.74864 4.81397 8.64302 4.81397 10.6637V13.6694C4.81397 13.7452 4.78871 13.8968 4.7382 13.9725C4.53613 14.2251 2.97011 16.069 2.03555 17.1551C1.68193 17.5592 1.73245 18.1907 2.13658 18.5696C2.31339 18.7211 2.56597 18.8222 2.7933 18.8222C3.07114 18.8222 3.34899 18.6959 3.55105 18.4685C3.95519 17.9886 6.05164 15.5638 6.35474 15.1597C6.78413 14.5788 6.83465 14.1241 6.83465 13.6189Z"
        fill="black" />
    <path
        d="M18.6809 2.70702C17.519 1.64617 16.1045 0.837902 14.5385 0.38325C14.0081 0.2317 13.4524 0.534801 13.3009 1.06523C13.1493 1.59565 13.4524 2.15134 13.9828 2.30289C15.2458 2.68177 16.4076 3.31323 17.3422 4.17201C19.1355 5.78855 20.1711 8.11232 20.1711 10.5371V14.3259C20.1711 14.8563 20.1459 15.311 20.0954 15.7404C20.0448 16.296 20.4237 16.8012 20.9794 16.8517C21.0299 16.8517 21.0552 16.8517 21.1057 16.8517C21.6109 16.8517 22.0403 16.4729 22.0908 15.9677C22.1413 15.4625 22.1918 14.9068 22.1918 14.3006V10.5119C22.1666 7.55664 20.9036 4.70244 18.6809 2.70702Z"
        fill="black" />
    <path
        d="M2.99541 12.8105V10.6383C2.99541 6.1423 6.32952 2.42932 10.7245 1.97467C11.2802 1.92415 11.6843 1.41898 11.6085 0.888555C11.558 0.33287 11.0528 -0.0460067 10.5224 0.00451016C5.09186 0.560195 1 5.13197 1 10.6636V12.8358C1 13.3915 1.45465 13.8209 1.98508 13.8209C2.5155 13.8209 2.99541 13.3662 2.99541 12.8105Z"
        fill="black" />
</svg>
