<svg width="32" height="32" viewBox="0 0 32 32" fill="none" xmlns="http://www.w3.org/2000/svg">
<path d="M29.9993 10.3327V27.2037C29.9993 28.7482 28.7477 29.998 27.2011 29.998C25.683 29.998 24.4457 28.7862 24.4029 27.2797V10.3755C24.4029 8.83573 23.1513 7.58586 21.6094 7.58586C20.0676 7.58586 18.816 8.83573 18.816 10.3755V21.6386C18.816 26.2437 15.0803 29.9743 10.4643 29.9743H10.3881C5.7768 29.9743 2.03636 26.2437 2.03636 21.6386V13.2317C2.03636 11.6872 3.28793 10.4373 4.83456 10.4373C6.35262 10.4373 7.58992 11.6491 7.63275 13.1556V21.5959C7.63275 23.1356 8.88432 24.3855 10.4262 24.3855C11.968 24.3855 13.2196 23.1356 13.2196 21.5959V10.3327C13.2196 5.72768 16.9553 1.99707 21.5714 1.99707H21.6475C26.2636 1.99707 29.9993 5.72768 29.9993 10.3327Z" fill="#101010"/>
<path d="M4.79826 7.66275C6.34371 7.66275 7.59655 6.41161 7.59655 4.86825C7.59655 3.3249 6.34371 2.07376 4.79826 2.07376C3.2528 2.07376 1.99997 3.3249 1.99997 4.86825C1.99997 6.41161 3.2528 7.66275 4.79826 7.66275Z" fill="#E53E51"/>
</svg>
