<svg fill="none" height="34" viewBox="0 0 72 34" width="72" xmlns="http://www.w3.org/2000/svg">
<g clip-path="url(#clip0_4173_6024)">
<path d="M52.7509 16.7505V31.2383C52.7509 32.5639 51.6787 33.6361 50.3532 33.6361C49.053 33.6361 47.9892 32.5976 47.9554 31.3059V16.7843C47.9554 15.4588 46.8832 14.3866 45.5577 14.3866C44.2322 14.3866 43.1599 15.4588 43.1599 16.7843V26.4597C43.1599 30.411 39.9517 33.6192 36.0005 33.6192H35.9329C31.9733 33.6192 28.7734 30.411 28.7734 26.4597V19.2412C28.7734 17.9156 29.8457 16.8434 31.1712 16.8434C32.4714 16.8434 33.5352 17.8819 33.5689 19.1736V26.426C33.5689 27.7515 34.6412 28.8237 35.9667 28.8237C37.2922 28.8237 38.3644 27.7515 38.3644 26.426V16.7505C38.3644 12.7993 41.5727 9.59106 45.5239 9.59106H45.5915C49.5427 9.59106 52.7509 12.7909 52.7509 16.7505Z" fill="white"/>
<path d="M21.5872 33.6279C20.2617 33.6279 19.1895 32.5557 19.1895 31.2302V2.40654C19.1895 1.08102 20.2617 0.00878906 21.5872 0.00878906C22.9127 0.00878906 23.985 1.08102 23.985 2.40654V31.2302C23.985 32.5557 22.9127 33.6279 21.5872 33.6279Z" fill="white"/>
<path d="M4.7955 9.59944V2.39775C4.7955 1.07223 3.72326 0 2.39775 0C1.07223 0 0 1.07223 0 2.39775V26.5188C0 30.4447 3.18293 33.6276 7.10882 33.6276H7.28612C11.212 33.6276 14.3949 30.4447 14.3949 26.5188V16.7589C14.3949 12.8077 11.1867 9.59944 7.23546 9.59944H4.7955ZM7.19325 28.8321C5.86773 28.8321 4.7955 27.7598 4.7955 26.4343V16.7927C4.7955 15.4672 5.86773 14.3949 7.19325 14.3949C8.51876 14.3949 9.59099 15.4672 9.59099 16.7927V26.4259C9.59099 27.7598 8.51876 28.8321 7.19325 28.8321Z" fill="white"/>
<path d="M72.0004 16.8181L71.992 12.0226C71.992 10.6971 70.9197 9.62489 69.5942 9.62489C68.2687 9.62489 67.1965 10.6971 67.1965 12.0226V16.8181C67.1965 18.1437 66.1242 19.2159 64.7987 19.2159C63.4732 19.2159 62.401 18.1437 62.401 16.8181V2.44853C62.401 1.12301 61.3287 0.0507812 60.0032 0.0507812C58.6777 0.0507812 57.6055 1.12301 57.6055 2.44853V31.23C57.6055 32.5555 58.6777 33.6277 60.0032 33.6277C61.3287 33.6277 62.401 32.5555 62.401 31.23V26.426C62.401 25.1005 63.4732 24.0283 64.7987 24.0283C66.1242 24.0283 67.1965 25.1005 67.1965 26.426V31.2215C67.1965 32.547 68.2687 33.6193 69.5942 33.6193C70.9197 33.6193 71.992 32.547 71.992 31.2215L72.0004 26.426C72.0004 24.577 71.2997 22.8969 70.1514 21.6221C71.2997 20.3472 72.0004 18.6671 72.0004 16.8181Z" fill="white"/>
<path d="M31.1614 14.3866C29.8359 14.3866 28.7637 13.3143 28.7637 11.9888C28.7637 10.6633 29.8359 9.59106 31.1614 9.59106C32.4869 9.59106 33.5592 10.6633 33.5592 11.9888C33.5676 13.3143 32.4869 14.3866 31.1614 14.3866Z" fill="black"/>
</g>
<defs>
<clipPath id="clip0_4173_6024">
<rect fill="white" height="33.636" width="72"/>
</clipPath>
</defs>
</svg>
