<svg fill="none" height="34" viewBox="0 0 72 34" width="72" xmlns="http://www.w3.org/2000/svg">
    <path
        d="M52.7504 16.7505V31.2383C52.7504 32.5639 51.6782 33.6361 50.3527 33.6361C49.0525 33.6361 47.9887 32.5976 47.9549 31.3059V16.7843C47.9549 15.4588 46.8827 14.3866 45.5572 14.3866C44.2317 14.3866 43.1594 15.4588 43.1594 16.7843V26.4597C43.1594 30.411 39.9512 33.6192 36 33.6192H35.9324C31.9728 33.6192 28.7729 30.411 28.7729 26.4597V19.2412C28.7729 17.9156 29.8452 16.8434 31.1707 16.8434C32.4709 16.8434 33.5347 17.8819 33.5684 19.1736V26.426C33.5684 27.7515 34.6407 28.8237 35.9662 28.8237C37.2917 28.8237 38.3639 27.7515 38.3639 26.426V16.7505C38.3639 12.7993 41.5722 9.59106 45.5234 9.59106H45.591C49.5422 9.59106 52.7504 12.7909 52.7504 16.7505Z"
        fill="black" />
    <path
        d="M21.5882 33.6279C20.2627 33.6279 19.1904 32.5557 19.1904 31.2302V2.40654C19.1904 1.08102 20.2627 0.00878906 21.5882 0.00878906C22.9137 0.00878906 23.9859 1.08102 23.9859 2.40654V31.2302C23.9859 32.5557 22.9137 33.6279 21.5882 33.6279Z"
        fill="black" />
    <path
        d="M4.7955 9.59944V2.39775C4.7955 1.07223 3.72326 0 2.39775 0C1.07223 0 0 1.07223 0 2.39775V26.5188C0 30.4447 3.18293 33.6276 7.10882 33.6276H7.28612C11.212 33.6276 14.3949 30.4447 14.3949 26.5188V16.7589C14.3949 12.8077 11.1867 9.59944 7.23546 9.59944H4.7955ZM7.19325 28.8321C5.86773 28.8321 4.7955 27.7598 4.7955 26.4343V16.7927C4.7955 15.4672 5.86773 14.3949 7.19325 14.3949C8.51876 14.3949 9.59099 15.4672 9.59099 16.7927V26.4259C9.59099 27.7598 8.51876 28.8321 7.19325 28.8321Z"
        fill="black" />
    <path
        d="M71.9999 16.8181L71.9915 12.0226C71.9915 10.6971 70.9192 9.62489 69.5937 9.62489C68.2682 9.62489 67.196 10.6971 67.196 12.0226V16.8181C67.196 18.1437 66.1237 19.2159 64.7982 19.2159C63.4727 19.2159 62.4005 18.1437 62.4005 16.8181V2.44853C62.4005 1.12301 61.3282 0.0507812 60.0027 0.0507812C58.6772 0.0507812 57.605 1.12301 57.605 2.44853V31.23C57.605 32.5555 58.6772 33.6277 60.0027 33.6277C61.3282 33.6277 62.4005 32.5555 62.4005 31.23V26.426C62.4005 25.1005 63.4727 24.0283 64.7982 24.0283C66.1237 24.0283 67.196 25.1005 67.196 26.426V31.2215C67.196 32.547 68.2682 33.6193 69.5937 33.6193C70.9192 33.6193 71.9915 32.547 71.9915 31.2215L71.9999 26.426C71.9999 24.577 71.2992 22.8969 70.151 21.6221C71.2992 20.3472 71.9999 18.6671 71.9999 16.8181Z"
        fill="black" />
    <path
        d="M31.1624 14.3866C29.8369 14.3866 28.7646 13.3143 28.7646 11.9888C28.7646 10.6633 29.8369 9.59106 31.1624 9.59106C32.4879 9.59106 33.5601 10.6633 33.5601 11.9888C33.5686 13.3143 32.4879 14.3866 31.1624 14.3866Z"
        fill="#E53E51" />
</svg>
