<svg width="80" height="80" viewBox="0 0 80 80" fill="none" xmlns="http://www.w3.org/2000/svg">
<rect width="80" height="80" rx="40" fill="black"/>
<path d="M52.0001 35.1446V49.6049C52.0001 50.9287 50.9273 52 49.6017 52C48.3006 52 47.2401 50.9613 47.2033 49.6701V35.1813C47.2033 33.8615 46.1306 32.7902 44.8091 32.7902C43.4875 32.7902 42.4148 33.8615 42.4148 35.1813V44.835C42.4148 48.7821 39.2129 51.9796 35.2564 51.9796H35.1911C31.2387 51.9796 28.0327 48.7821 28.0327 44.835V37.6293C28.0327 36.3055 29.1055 35.2342 30.4311 35.2342C31.7322 35.2342 32.7927 36.2729 32.8295 37.5642V44.7984C32.8295 46.1181 33.9022 47.1894 35.2237 47.1894C36.5453 47.1894 37.618 46.1181 37.618 44.7984V35.1446C37.618 31.1976 40.8199 28 44.7764 28H44.8417C48.7982 28 52.0001 31.1976 52.0001 35.1446Z" fill="white"/>
<path d="M30.3984 32.8557C31.723 32.8557 32.7967 31.7833 32.7967 30.4605C32.7967 29.1378 31.723 28.0654 30.3984 28.0654C29.0738 28.0654 28 29.1378 28 30.4605C28 31.7833 29.0738 32.8557 30.3984 32.8557Z" fill="#E53E51"/>
</svg>
