<svg fill="none" height="90" viewBox="0 0 192 90" width="192" xmlns="http://www.w3.org/2000/svg">
<path d="M140.672 44.8338V83.4856C140.665 85.1634 140 86.7714 138.82 87.9636C137.64 89.1557 136.039 89.8366 134.361 89.8597C132.684 89.8828 131.065 89.2464 129.852 88.0872C128.64 86.9281 127.931 85.339 127.877 83.662V44.9253C127.877 43.2302 127.204 41.6046 126.006 40.4059C124.808 39.2073 123.183 38.534 121.488 38.534C119.794 38.534 118.168 39.2073 116.97 40.4059C115.772 41.6046 115.099 43.2302 115.099 44.9253V70.7389C115.095 75.8031 113.082 80.6588 109.501 84.2388C105.921 87.8188 101.065 89.8303 96.0028 89.8311H95.8232C90.7594 89.8294 85.9037 87.8162 82.3234 84.2342C78.7431 80.6521 76.7313 75.7944 76.7305 70.7291V51.4702C76.7374 49.7924 77.4026 48.1843 78.5828 46.9922C79.7631 45.8001 81.3641 45.1191 83.0413 45.096C84.7184 45.0729 86.3376 45.7094 87.5503 46.8685C88.763 48.0277 89.4722 49.6167 89.5254 51.2937V70.6343C89.5254 72.3294 90.1985 73.9551 91.3967 75.1537C92.595 76.3523 94.2201 77.0256 95.9146 77.0256C97.6092 77.0256 99.2343 76.3523 100.433 75.1537C101.631 73.9551 102.304 72.3294 102.304 70.6343V44.8207C102.31 39.7594 104.324 34.9072 107.903 31.3295C111.482 27.7518 116.334 25.7409 121.393 25.7383H121.573C126.637 25.7383 131.493 27.7498 135.075 31.3306C138.656 34.9115 140.67 39.7685 140.672 44.8338V44.8338Z" fill="white"/>
<path d="M57.5709 89.8587C55.8738 89.8587 54.2462 89.1843 53.0461 87.9839C51.8461 86.7834 51.1719 85.1553 51.1719 83.4576V6.57885C51.1719 4.88117 51.8461 3.25302 53.0461 2.05258C54.2462 0.852141 55.8738 0.177734 57.5709 0.177734C59.2681 0.177734 60.8957 0.852141 62.0958 2.05258C63.2958 3.25302 63.97 4.88117 63.97 6.57885V83.4576C63.97 85.1553 63.2958 86.7834 62.0958 87.9839C60.8957 89.1843 59.2681 89.8587 57.5709 89.8587Z" fill="white"/>
<path d="M12.8031 25.7622V6.54904C12.8223 5.69604 12.671 4.84781 12.358 4.05412C12.045 3.26044 11.5766 2.53733 10.9803 1.92724C10.3841 1.31715 9.67195 0.832395 8.88579 0.501439C8.09963 0.170484 7.2553 0 6.40236 0C5.54942 0 4.70508 0.170484 3.91893 0.501439C3.13277 0.832395 2.42064 1.31715 1.82437 1.92724C1.2281 2.53733 0.7597 3.26044 0.446691 4.05412C0.133681 4.84781 -0.0176313 5.69604 0.00163339 6.54904V70.8935C0.00163339 75.9198 1.99769 80.7403 5.5507 84.2944C9.10371 87.8485 13.9226 89.8452 18.9474 89.8452H19.4112C24.4359 89.8452 29.2548 87.8485 32.8078 84.2944C36.3609 80.7403 38.3569 75.9198 38.3569 70.8935V44.8643C38.3569 42.3557 37.863 39.8718 36.9033 37.5542C35.9437 35.2366 34.5371 33.1308 32.7638 31.3571C30.9906 29.5833 28.8855 28.1762 26.5686 27.2162C24.2518 26.2563 21.7687 25.7622 19.2609 25.7622H12.8031ZM19.1923 77.0626C17.4978 77.0626 15.8727 76.3892 14.6744 75.1906C13.4762 73.992 12.8031 72.3664 12.8031 70.6713V44.959C12.8408 43.2885 13.5307 41.6992 14.7251 40.5311C15.9196 39.363 17.5236 38.709 19.194 38.709C20.8644 38.709 22.4684 39.363 23.6628 40.5311C24.8572 41.6992 25.5471 43.2885 25.5849 44.959V70.6648C25.584 72.3601 24.9101 73.9858 23.7114 75.1843C22.5127 76.3828 20.8872 77.0561 19.1923 77.0561" fill="white"/>
<path d="M192 45.0179L191.977 32.2385C191.996 31.3859 191.845 30.5381 191.532 29.7448C191.219 28.9516 190.751 28.2288 190.155 27.619C189.559 27.0092 188.848 26.5247 188.062 26.194C187.276 25.8632 186.432 25.6928 185.58 25.6928C184.727 25.6928 183.883 25.8632 183.098 26.194C182.312 26.5247 181.6 27.0092 181.004 27.619C180.408 28.2288 179.94 28.9516 179.627 29.7448C179.314 30.5381 179.163 31.3859 179.182 32.2385V45.0179C179.182 46.7155 178.508 48.3437 177.308 49.5441C176.108 50.7446 174.48 51.419 172.783 51.419C171.086 51.419 169.458 50.7446 168.258 49.5441C167.058 48.3437 166.384 46.7155 166.384 45.0179V6.67651C166.384 4.97882 165.71 3.35067 164.51 2.15023C163.31 0.949787 161.682 0.275391 159.985 0.275391C158.288 0.275391 156.66 0.949787 155.46 2.15023C154.26 3.35067 153.586 4.97882 153.586 6.67651V83.4637C153.586 85.1614 154.26 86.7896 155.46 87.99C156.66 89.1905 158.288 89.8649 159.985 89.8649C161.682 89.8649 163.31 89.1905 164.51 87.99C165.71 86.7896 166.384 85.1614 166.384 83.4637V70.655C166.384 68.9573 167.058 67.3292 168.258 66.1287C169.458 64.9283 171.086 64.2539 172.783 64.2539C174.48 64.2539 176.108 64.9283 177.308 66.1287C178.508 67.3292 179.182 68.9573 179.182 70.655V83.454C179.163 84.3065 179.314 85.1543 179.627 85.9476C179.94 86.7409 180.408 87.4637 181.004 88.0734C181.6 88.6832 182.312 89.1677 183.098 89.4985C183.883 89.8293 184.727 89.9997 185.58 89.9997C186.432 89.9997 187.276 89.8293 188.062 89.4985C188.848 89.1677 189.559 88.6832 190.155 88.0734C190.751 87.4637 191.219 86.7409 191.532 85.9476C191.845 85.1543 191.996 84.3065 191.977 83.454L192 70.6517C192.001 65.9179 190.247 61.3518 187.077 57.8364C190.248 54.3205 192.002 49.753 192 45.0179V45.0179Z" fill="white"/>
<path d="M83.0235 38.7209C86.5594 38.7209 89.4258 35.8535 89.4258 32.3165C89.4258 28.7795 86.5594 25.9121 83.0235 25.9121C79.4875 25.9121 76.6211 28.7795 76.6211 32.3165C76.6211 35.8535 79.4875 38.7209 83.0235 38.7209Z" fill="black"/>
</svg>
