<svg fill="none" height="25" viewBox="0 0 53 25" width="53" xmlns="http://www.w3.org/2000/svg">
    <path
        d="M38.7543 12.737V23.2075C38.7543 24.1654 37.9794 24.9404 37.0215 24.9404C36.0818 24.9404 35.313 24.1899 35.2886 23.2563V12.7614C35.2886 11.8034 34.5137 11.0285 33.5557 11.0285C32.5977 11.0285 31.8228 11.8034 31.8228 12.7614V19.7539C31.8228 22.6095 29.5042 24.9282 26.6486 24.9282H26.5998C23.7381 24.9282 21.4255 22.6095 21.4255 19.7539V14.537C21.4255 13.579 22.2005 12.8041 23.1584 12.8041C24.0981 12.8041 24.8669 13.5546 24.8913 14.4882V19.7295C24.8913 20.6875 25.6662 21.4624 26.6242 21.4624C27.5821 21.4624 28.3571 20.6875 28.3571 19.7295V12.737C28.3571 9.88139 30.6757 7.56274 33.5313 7.56274H33.5801C36.4357 7.56274 38.7543 9.87528 38.7543 12.737Z"
        fill="white" />
    <path
        d="M16.2331 24.9344C15.2752 24.9344 14.5002 24.1595 14.5002 23.2015V2.37033C14.5002 1.41237 15.2752 0.637451 16.2331 0.637451C17.1911 0.637451 17.966 1.41237 17.966 2.37033V23.2015C17.966 24.1595 17.1911 24.9344 16.2331 24.9344Z"
        fill="white" />
    <path
        d="M4.09686 7.56873V2.36398C4.09686 1.40602 3.32195 0.631104 2.36398 0.631104C1.40602 0.631104 0.631104 1.40602 0.631104 2.36398V19.7965C0.631104 22.6338 2.93144 24.9341 5.76873 24.9341H5.89686C8.73415 24.9341 11.0345 22.6338 11.0345 19.7965V12.743C11.0345 9.88737 8.71585 7.56873 5.86025 7.56873H4.09686ZM5.82974 21.4684C4.87178 21.4684 4.09686 20.6935 4.09686 19.7355V12.7674C4.09686 11.8094 4.87178 11.0345 5.82974 11.0345C6.78771 11.0345 7.56263 11.8094 7.56263 12.7674V19.7294C7.56263 20.6935 6.78771 21.4684 5.82974 21.4684Z"
        fill="white" />
    <path
        d="M52.6663 12.7857L52.6602 9.31992C52.6602 8.36196 51.8853 7.58704 50.9273 7.58704C49.9694 7.58704 49.1945 8.36196 49.1945 9.31992V12.7857C49.1945 13.7436 48.4195 14.5186 47.4616 14.5186C46.5036 14.5186 45.7287 13.7436 45.7287 12.7857V2.4006C45.7287 1.44264 44.9538 0.667725 43.9958 0.667725C43.0379 0.667725 42.2629 1.44264 42.2629 2.4006V23.2013C42.2629 24.1592 43.0379 24.9342 43.9958 24.9342C44.9538 24.9342 45.7287 24.1592 45.7287 23.2013V19.7294C45.7287 18.7714 46.5036 17.9965 47.4616 17.9965C48.4195 17.9965 49.1945 18.7714 49.1945 19.7294V23.1952C49.1945 24.1531 49.9694 24.928 50.9273 24.928C51.8853 24.928 52.6602 24.1531 52.6602 23.1952L52.6663 19.7294C52.6663 18.3931 52.1599 17.1789 51.3301 16.2575C52.1599 15.3362 52.6663 14.122 52.6663 12.7857Z"
        fill="white" />
    <path
        d="M23.1526 11.0285C22.1946 11.0285 21.4197 10.2536 21.4197 9.29562C21.4197 8.33766 22.1946 7.56274 23.1526 7.56274C24.1105 7.56274 24.8854 8.33766 24.8854 9.29562C24.8915 10.2536 24.1105 11.0285 23.1526 11.0285Z"
        fill="black" />
</svg>
