<svg fill="none" height="39" viewBox="0 0 39 39" width="39" xmlns="http://www.w3.org/2000/svg">
<path d="M34.125 16.25C34.125 27.625 19.5 37.375 19.5 37.375C19.5 37.375 4.875 27.625 4.875 16.25C4.875 12.3712 6.41584 8.65128 9.15856 5.90856C11.9013 3.16584 15.6212 1.625 19.5 1.625C23.3788 1.625 27.0987 3.16584 29.8414 5.90856C32.5842 8.65128 34.125 12.3712 34.125 16.25Z" fill="#E53E51" stroke="#E53E51" stroke-linecap="round" stroke-linejoin="round" stroke-width="2.4375"/>
<g clip-path="url(#clip0_953_119228)">
<path d="M26 21.6137C26 21.665 26 21.7078 25.9914 21.7592C25.9829 21.8533 25.9658 21.9474 25.9315 22.033C25.923 22.0672 25.9059 22.1015 25.8973 22.1357C25.8802 22.1785 25.8631 22.2213 25.8374 22.2641C25.8288 22.2897 25.8117 22.3154 25.7946 22.3411C25.7689 22.3924 25.7347 22.4352 25.7005 22.478C25.6834 22.5037 25.6663 22.5208 25.6491 22.5465C25.632 22.5636 25.6149 22.5892 25.5892 22.6064C25.3325 22.8631 24.9902 23.0171 24.5966 23.0171C24.5538 23.0171 24.5196 23.0171 24.4768 23.0086C24.4597 23.0086 24.4425 23.0086 24.4254 23.0086C24.3912 23.0086 24.3484 23 24.3142 22.9914C24.2714 22.9829 24.2286 22.9743 24.1773 22.9572C24.1345 22.9487 24.0917 22.9315 24.0489 22.9144C24.0147 22.8973 23.9719 22.8802 23.9377 22.8631H23.9291C23.8949 22.846 23.8521 22.8203 23.8178 22.7946C23.7408 22.7433 23.6724 22.6919 23.6125 22.632L23.6039 22.6235C23.544 22.5636 23.4841 22.4866 23.4328 22.4181C23.4071 22.3753 23.3814 22.3325 23.3557 22.2897C23.3386 22.2555 23.3215 22.2213 23.3044 22.187C23.2702 22.11 23.2445 22.0244 23.2188 21.9389C23.2103 21.9046 23.2103 21.879 23.2017 21.8447C23.1932 21.8105 23.1932 21.7763 23.1932 21.7421C23.1932 21.7078 23.1932 21.665 23.1932 21.6308V13.2017C23.1932 13.1675 23.1932 13.1247 23.1932 13.0905C23.1932 13.0648 23.1932 13.0391 23.1846 13.0134C23.1846 12.9792 23.176 12.9535 23.1675 12.9193C23.1589 12.8851 23.1504 12.8423 23.1418 12.8081C23.1418 12.791 23.1333 12.7738 23.1247 12.7567C23.1161 12.7225 23.099 12.6883 23.0819 12.654C23.0648 12.6112 23.0477 12.5685 23.022 12.5342C23.0049 12.4914 22.9792 12.4572 22.9535 12.423C22.945 12.4144 22.9364 12.3973 22.9279 12.3888C22.9193 12.3802 22.9108 12.3631 22.9022 12.3545C22.8765 12.3203 22.8509 12.2861 22.8166 12.2518L22.8081 12.2433L22.791 12.2262C22.791 12.2176 22.7824 12.2176 22.7824 12.209C22.7738 12.2005 22.7738 12.2005 22.7653 12.1919C22.7653 12.1834 22.7567 12.1834 22.7482 12.1748C22.7396 12.1748 22.7396 12.1663 22.7311 12.1577C22.7311 12.1577 22.7311 12.1491 22.7225 12.1491C22.7139 12.1491 22.7139 12.1406 22.7054 12.1406C22.6968 12.132 22.6883 12.132 22.6797 12.1235C22.6112 12.0721 22.5342 12.0208 22.4572 11.978C22.4315 11.9694 22.4059 11.9523 22.3802 11.9438C22.3716 11.9438 22.3631 11.9352 22.3545 11.9352C22.346 11.9267 22.3374 11.9267 22.3288 11.9267C22.3203 11.9181 22.3032 11.9181 22.2861 11.9095C22.2689 11.901 22.2518 11.901 22.2347 11.8924C22.2262 11.8924 22.209 11.8839 22.2005 11.8839C22.132 11.8667 22.0636 11.8496 21.9866 11.8411C21.978 11.8411 21.978 11.8411 21.9694 11.8411C21.9609 11.8411 21.9438 11.8411 21.9352 11.8411C21.901 11.8411 21.8667 11.8411 21.824 11.8411C21.7897 11.8411 21.7555 11.8411 21.7127 11.8411C21.7042 11.8411 21.687 11.8411 21.6785 11.8411C21.6699 11.8411 21.6699 11.8411 21.6614 11.8411C21.5844 11.8496 21.5159 11.8667 21.4474 11.8839C21.4389 11.8839 21.4218 11.8839 21.4132 11.8924C21.3961 11.901 21.379 11.901 21.3619 11.9095C21.3362 11.9181 21.3191 11.9267 21.2934 11.9352C21.2848 11.9352 21.2763 11.9352 21.2677 11.9438C21.2421 11.9523 21.2164 11.9694 21.1907 11.978C21.1137 12.0208 21.0367 12.0636 20.9682 12.1235C20.9682 12.1235 20.9682 12.1235 20.9597 12.1235C20.9511 12.132 20.9425 12.1406 20.934 12.1406C20.9254 12.1406 20.9254 12.1491 20.9169 12.1491L20.9083 12.1577C20.8998 12.1663 20.8826 12.1748 20.8741 12.1834C20.8655 12.1834 20.8655 12.1919 20.857 12.2005C20.857 12.2005 20.8484 12.209 20.8484 12.2176C20.8484 12.2176 20.8484 12.2176 20.8399 12.2262L20.8313 12.2347L20.8227 12.2433C20.7885 12.2775 20.7628 12.3117 20.7372 12.346C20.7286 12.3545 20.72 12.3716 20.7115 12.3802C20.7029 12.3888 20.6944 12.4059 20.6858 12.4144C20.6601 12.4487 20.643 12.4914 20.6174 12.5257C20.6002 12.5685 20.5746 12.6027 20.5575 12.6455C20.5403 12.6797 20.5318 12.7139 20.5147 12.7482C20.5147 12.7653 20.5061 12.7824 20.4976 12.7995C20.489 12.8337 20.4804 12.8765 20.4719 12.9108C20.4633 12.945 20.4633 12.9707 20.4548 13.0049C20.4462 13.0306 20.4462 13.0562 20.4462 13.0819C20.4462 13.1161 20.4462 13.1589 20.4462 13.1932V18.7983C20.4462 18.7641 20.4462 18.7384 20.4462 18.7042V18.8582C20.4462 18.8839 20.4462 18.9095 20.4462 18.9438C20.4205 20.1504 19.89 21.22 19.0513 21.9645C18.7604 22.2213 18.4352 22.4438 18.0758 22.6064C17.5538 22.8545 16.9804 22.9914 16.3729 23.0086C16.3472 23.0086 16.3215 23.0086 16.3044 23.0086H16.2017C16.176 23.0086 16.1504 23.0086 16.1333 23.0086C13.8399 22.9743 12.0342 21.1687 12 18.9352V10.3949C12 9.62469 12.6161 9.10269 13.3863 9.10269C13.7714 9.10269 14.0367 9.19682 14.2848 9.45355C14.5416 9.71027 14.7983 10.0098 14.7983 10.3949V18.8068C14.7983 18.9523 14.8154 19.0892 14.8582 19.2176C14.8924 19.3289 14.9352 19.423 14.9951 19.5171C15.0293 19.577 15.0721 19.6369 15.1235 19.6968C15.1491 19.7225 15.1748 19.7482 15.2005 19.7738C15.4572 20.0391 15.8081 20.1932 16.2017 20.1932C16.2445 20.1932 16.2958 20.1932 16.3386 20.1846C16.39 20.1846 16.4413 20.176 16.4841 20.1675C16.9377 20.0562 17.1259 19.8509 17.1858 19.7824C17.3142 19.654 17.4169 19.5086 17.4853 19.3374C17.5196 19.2518 17.5452 19.1663 17.5623 19.0807C17.5795 18.9866 17.5966 18.8924 17.5966 18.7983V13.176C17.5966 11.9352 18.1357 10.8227 18.9914 10.0611C18.9914 10.0611 19.4535 9.65892 19.7873 9.50489C19.967 9.41932 20.1467 9.32518 20.3435 9.25672C20.4034 9.23105 20.4719 9.21394 20.5403 9.18826C20.5917 9.17115 20.6516 9.15403 20.7115 9.13692C20.7286 9.13692 20.7457 9.12836 20.7628 9.1198C20.8056 9.11125 20.8484 9.10269 20.8998 9.09413C20.9169 9.09413 20.9425 9.08557 20.9597 9.07702C21.011 9.06846 21.0623 9.0599 21.1137 9.05134C21.1993 9.03423 21.2848 9.02567 21.379 9.01711C21.5073 9.00856 21.6443 9 21.7726 9H21.8154C21.9523 9 22.0807 9.00856 22.209 9.01711C22.2946 9.02567 22.3802 9.03423 22.4743 9.05134C22.5257 9.0599 22.577 9.06846 22.6284 9.07702C22.6455 9.07702 22.6711 9.08557 22.6883 9.09413C22.7311 9.10269 22.7824 9.11125 22.8252 9.1198C22.8423 9.1198 22.8594 9.12836 22.8765 9.13692C22.9364 9.15403 22.9878 9.17115 23.0477 9.18826C23.1161 9.20538 23.176 9.23105 23.2445 9.25672C23.4413 9.32518 23.621 9.41076 23.8007 9.50489C25.1015 10.2152 25.9829 11.5929 25.9829 13.176V18.7555V18.9438L26 21.6137Z" fill="white"/>
<path d="M13.4034 11.8068C14.1785 11.8068 14.8068 11.1785 14.8068 10.4034C14.8068 9.62833 14.1785 9 13.4034 9C12.6283 9 12 9.62833 12 10.4034C12 11.1785 12.6283 11.8068 13.4034 11.8068Z" fill="black"/>
</g>
<defs>
<clipPath id="clip0_953_119228">
<rect fill="white" height="14.0086" transform="translate(12 9)" width="14"/>
</clipPath>
</defs>
</svg>
