
<svg width="121" height="34" viewBox="0 0 121 34" fill="none" xmlns="http://www.w3.org/2000/svg">
<g clip-path="url(#clip0_15192_12626)">
<path d="M117.436 33.6294H3.03597C1.37181 33.6294 0 32.2801 0 30.5934V3.76448C0 2.07783 1.34932 0.728516 3.03597 0.728516H117.436C119.1 0.728516 120.472 2.07783 120.472 3.76448V30.6159C120.472 32.2801 119.122 33.6519 117.436 33.6519" fill="#FFE816"/>
<path d="M21.702 19.8444C21.702 22.4981 20.0603 23.8474 16.7545 23.8474H12.3242V9.79199H16.1698C19.1833 9.79199 20.69 10.9389 20.69 13.2552C20.69 14.7845 20.0378 15.819 18.7335 16.3362V16.4037C19.1608 16.4037 19.678 16.5836 20.2177 16.9434C21.2072 17.5506 21.6795 18.5176 21.6795 19.8669M19.0258 13.5026C19.0258 12.6031 18.756 11.9734 18.2162 11.5911C17.6765 11.2088 16.8444 11.0289 15.6975 11.0289H13.8984V15.9764H15.8774C17.9689 15.9764 19.0258 15.1443 19.0258 13.5026ZM20.0378 19.9119C20.0378 18.8549 19.633 18.1353 18.8459 17.7305C18.1938 17.4156 17.1143 17.2582 15.6076 17.2582H13.9209V22.5431H16.3947C17.5416 22.5431 18.4186 22.3856 18.9809 22.0483C19.7005 21.6435 20.0603 20.9239 20.0603 19.9119" fill="#E53E51"/>
<path d="M34.0922 18.427C34.0922 20.2485 33.5974 21.6653 32.6304 22.6773C31.7309 23.6218 30.539 24.0941 29.0547 24.0941C27.5705 24.0941 26.3786 23.5994 25.5465 22.6323C24.7144 21.6653 24.2871 20.2935 24.2871 18.5394C24.2871 16.7853 24.7594 15.2786 25.7039 14.2216C26.581 13.2096 27.7729 12.7148 29.2346 12.7148C32.473 12.7148 34.0922 14.6264 34.0922 18.427ZM32.4955 18.427C32.4955 17.1901 32.2706 16.2006 31.8658 15.436C31.3036 14.4465 30.404 13.9742 29.1896 13.9742C27.9752 13.9742 27.0982 14.469 26.536 15.436C26.0862 16.2231 25.8613 17.2351 25.8613 18.4495C25.8613 21.373 26.9857 22.8122 29.2346 22.8122C31.4835 22.8122 32.518 21.3505 32.518 18.427" fill="#E53E51"/>
<path d="M46.2816 18.427C46.2816 20.2485 45.7869 21.6653 44.8199 22.6773C43.9203 23.6218 42.7284 24.0941 41.2442 24.0941C39.7599 24.0941 38.568 23.5994 37.7359 22.6323C36.9038 21.6653 36.4766 20.2935 36.4766 18.5394C36.4766 16.7853 36.9488 15.2786 37.8933 14.2216C38.7704 13.2096 39.9623 12.7148 41.4241 12.7148C44.6624 12.7148 46.2816 14.6264 46.2816 18.427ZM44.6849 18.427C44.6849 17.1901 44.46 16.2006 44.0552 15.436C43.493 14.4465 42.5935 13.9742 41.3791 13.9742C40.1647 13.9742 39.2876 14.469 38.7254 15.436C38.2757 16.2231 38.0508 17.2351 38.0508 18.4495C38.0508 21.373 39.1752 22.8122 41.4241 22.8122C43.6729 22.8122 44.7074 21.3505 44.7074 18.427" fill="#E53E51"/>
<path d="M51.1845 23.8466H49.6553V8.84668H51.1845V23.8466ZM58.1785 22.8796L57.9086 24.049C56.7842 23.9815 55.7047 23.3069 54.6927 22.0475L51.5443 18.1345L56.222 13.0071H58.0211L53.3659 18.067L55.6148 20.8556C56.4918 21.9576 57.3689 22.6322 58.1785 22.8796Z" fill="#E53E51"/>
<path d="M78.126 23.8474H75.5173L68.4783 11.0514L68.6133 12.7155V23.8474H67.0391V9.79199H69.4903L76.7317 22.9479L76.5293 20.8564V9.79199H78.126V23.8474Z" fill="#E53E51"/>
<path d="M91.5062 18.427C91.5062 20.2485 91.0115 21.6653 90.0445 22.6773C89.1449 23.6218 87.953 24.0941 86.4688 24.0941C84.9845 24.0941 83.7926 23.5994 82.9605 22.6323C82.1285 21.6653 81.7012 20.2935 81.7012 18.5394C81.7012 16.7853 82.1734 15.2786 83.118 14.2216C83.995 13.2096 85.1869 12.7148 86.6487 12.7148C89.887 12.7148 91.5062 14.6264 91.5062 18.427ZM89.9095 18.427C89.9095 17.1901 89.6846 16.2006 89.2798 15.436C88.7176 14.4465 87.8181 13.9742 86.6037 13.9742C85.3893 13.9742 84.5123 14.469 83.95 15.436C83.5003 16.2231 83.2754 17.2351 83.2754 18.4495C83.2754 21.373 84.3998 22.8122 86.6487 22.8122C88.8975 22.8122 89.932 21.3505 89.932 18.427" fill="#E53E51"/>
<path d="M110.037 12.9854L106.237 23.8474H103.988L101.897 15.8189L101.559 14.1548L101.199 15.7964L98.8831 23.8474H96.6342L93.1035 12.9854H94.7677L97.7587 22.7454L98.3434 20.654L100.502 12.9854H102.729L105.112 22.7454L108.441 12.9854H110.037Z" fill="#E53E51"/>
</g>
<defs>
<clipPath id="clip0_15192_12626">
<rect width="120.472" height="32.9009" fill="white" transform="translate(0 0.729492)"/>
</clipPath>
</defs>
</svg>
