<svg fill="none" height="32" viewBox="0 0 32 32" width="32" xmlns="http://www.w3.org/2000/svg">
    <path
        d="M16.002 4V28M16.002 4H25.3353C26.0425 4 26.7208 4.28095 27.2209 4.78105C27.721 5.28115 28.002 5.95942 28.002 6.66667V25.3333C28.002 26.0406 27.721 26.7189 27.2209 27.219C26.7208 27.719 26.0425 28 25.3353 28H16.002V4ZM16.002 4H6.66862C5.96138 4 5.2831 4.28095 4.783 4.78105C4.2829 5.28115 4.00195 5.95942 4.00195 6.66667V25.3333C4.00195 26.0406 4.2829 26.7189 4.783 27.219C5.2831 27.719 5.96138 28 6.66862 28H16.002V4Z"
        stroke="black" stroke-linecap="round" stroke-linejoin="round" stroke-width="2" />
</svg>
