<svg fill="none" height="18" viewBox="0 0 13 18" width="13" xmlns="http://www.w3.org/2000/svg">
    <path
        d="M10.5151 2.67637C8.3686 0.505935 4.81517 0.396571 2.54832 2.62075C0.32728 4.79994 0.336974 8.23014 2.2921 10.413C2.88125 11.0708 3.2057 11.906 3.2057 12.7647V13.7843C3.2057 14.3831 3.60247 14.8909 4.14687 15.0587V15.6039C4.14687 16.3737 4.69009 17 5.35785 17H7.64179C8.30952 17 8.85277 16.3737 8.85277 15.6039V15.0587C9.39714 14.8909 9.79394 14.3831 9.79394 13.7843V12.7647C9.79394 11.906 10.1184 11.0708 10.7076 10.4129C12.6719 8.21973 12.6435 4.82852 10.5151 2.67637ZM7.64176 16.0588H5.35782C5.23305 16.0588 5.08801 15.8601 5.08801 15.6039V15.1177H7.91153V15.6039C7.91156 15.8601 7.76653 16.0588 7.64176 16.0588ZM8.85274 13.7843C8.85274 14.0006 8.67683 14.1765 8.46058 14.1765H4.53903C4.32278 14.1765 4.14687 14.0006 4.14687 13.7843V13.2353H8.85274V13.7843ZM10.0065 9.78499C9.37007 10.4955 8.97848 11.3726 8.87849 12.2941H4.12112C4.0211 11.3726 3.62957 10.4955 2.99318 9.78502C2.21144 8.91227 1.7856 7.78547 1.79407 6.61217C1.81276 4.03264 3.93843 1.91183 6.55653 1.94154C9.12009 1.97172 11.2057 4.08261 11.2057 6.64706C11.2057 7.80721 10.7798 8.92162 10.0065 9.78499Z"
        fill="#3CB4E5" stroke="#3CB4E5" stroke-width="0.291667" />
</svg>
