<svg width="25" height="24" viewBox="0 0 25 24" fill="none" xmlns="http://www.w3.org/2000/svg">
<mask id="path-1-inside-1_15534_7071" fill="white">
<path d="M20.0317 0C17.9801 0 16.2661 1.47225 15.89 3.41569C15.8891 3.42019 15.8883 3.42474 15.8874 3.42924C15.8387 3.68508 15.813 3.94894 15.813 4.21876V8.48439C15.813 10.8106 17.7055 12.7031 20.0317 12.7031C22.3579 12.7031 24.2505 10.8106 24.2505 8.48439V4.21876C24.2505 1.89253 22.358 0 20.0317 0ZM17.2193 4.26563H17.8755C18.2632 4.26563 18.5787 4.58105 18.5787 4.96876C18.5787 5.35707 18.8935 5.67188 19.2818 5.67188C19.6695 5.67188 19.9849 5.98731 19.9849 6.37501C19.9849 6.76271 19.6695 7.07814 19.2818 7.07814H17.2193V4.26563ZM22.8442 8.48439C22.8442 10.0352 21.5826 11.2969 20.0317 11.2969C18.4809 11.2969 17.2192 10.0352 17.2192 8.48439H19.2817C20.4449 8.48439 21.3911 7.53812 21.3911 6.37501C21.3911 5.42481 20.7596 4.6193 19.8942 4.35629C19.6312 3.49088 18.8257 2.85938 17.8755 2.85938H17.5707C18.0507 1.99374 18.9738 1.40625 20.0317 1.40625C21.5826 1.40625 22.8442 2.66794 22.8442 4.21876V8.48439Z"/>
</mask>
<path d="M20.0317 0C17.9801 0 16.2661 1.47225 15.89 3.41569C15.8891 3.42019 15.8883 3.42474 15.8874 3.42924C15.8387 3.68508 15.813 3.94894 15.813 4.21876V8.48439C15.813 10.8106 17.7055 12.7031 20.0317 12.7031C22.3579 12.7031 24.2505 10.8106 24.2505 8.48439V4.21876C24.2505 1.89253 22.358 0 20.0317 0ZM17.2193 4.26563H17.8755C18.2632 4.26563 18.5787 4.58105 18.5787 4.96876C18.5787 5.35707 18.8935 5.67188 19.2818 5.67188C19.6695 5.67188 19.9849 5.98731 19.9849 6.37501C19.9849 6.76271 19.6695 7.07814 19.2818 7.07814H17.2193V4.26563ZM22.8442 8.48439C22.8442 10.0352 21.5826 11.2969 20.0317 11.2969C18.4809 11.2969 17.2192 10.0352 17.2192 8.48439H19.2817C20.4449 8.48439 21.3911 7.53812 21.3911 6.37501C21.3911 5.42481 20.7596 4.6193 19.8942 4.35629C19.6312 3.49088 18.8257 2.85938 17.8755 2.85938H17.5707C18.0507 1.99374 18.9738 1.40625 20.0317 1.40625C21.5826 1.40625 22.8442 2.66794 22.8442 4.21876V8.48439Z" fill="#101010"/>
<path d="M15.89 3.41569L18.1263 3.88159L18.1296 3.86569L18.1327 3.84974L15.89 3.41569ZM15.8874 3.42924L13.6465 2.98574L13.6449 2.99409L13.6433 3.00246L15.8874 3.42924ZM24.2505 4.21876L21.9661 4.21871V4.21876H24.2505ZM17.2193 4.26563V1.98131H14.935V4.26563H17.2193ZM17.2193 7.07814H14.935V9.36246H17.2193V7.07814ZM17.2192 8.48439V6.20007H14.9349V8.48439H17.2192ZM19.8942 4.35629L17.7086 5.02054L18.0632 6.18729L19.23 6.5419L19.8942 4.35629ZM17.5707 2.85938L15.573 1.75154L13.6918 5.1437H17.5707V2.85938ZM20.0317 -2.28432C16.8633 -2.28432 14.227 -0.0137291 13.6473 2.98165L18.1327 3.84974C18.3052 2.95823 19.097 2.28432 20.0317 2.28432V-2.28432ZM13.6537 2.9498C13.651 2.96269 13.6489 2.97358 13.6473 2.98144C13.6458 2.98911 13.6446 2.99535 13.6441 2.99799C13.644 2.99872 13.6439 2.99935 13.6438 2.99977C13.6438 2.99998 13.6437 3.00018 13.6437 3.0003C13.6437 3.00045 13.6437 3.00053 13.6436 3.0006C13.6436 3.00095 13.6437 3.00036 13.6439 2.99944C13.6442 2.99769 13.6452 2.99256 13.6465 2.98574L18.1282 3.87274C18.13 3.86367 18.1314 3.85628 18.1322 3.85227C18.1326 3.85023 18.1329 3.8485 18.1331 3.84772C18.1333 3.84651 18.1332 3.8469 18.1332 3.84694C18.1331 3.84732 18.1324 3.8513 18.1313 3.85671C18.1302 3.86231 18.1285 3.87095 18.1263 3.88159L13.6537 2.9498ZM13.6433 3.00246C13.5683 3.39657 13.5287 3.8033 13.5287 4.21876H18.0973C18.0973 4.09459 18.1091 3.97359 18.1315 3.85602L13.6433 3.00246ZM13.5287 4.21876V8.48439H18.0973V4.21876H13.5287ZM13.5287 8.48439C13.5287 12.0722 16.4439 14.9875 20.0317 14.9875V10.4188C18.9671 10.4188 18.0973 9.54904 18.0973 8.48439H13.5287ZM20.0317 14.9875C23.6195 14.9875 26.5348 12.0722 26.5348 8.48439H21.9661C21.9661 9.549 21.0963 10.4188 20.0317 10.4188V14.9875ZM26.5348 8.48439V4.21876H21.9661V8.48439H26.5348ZM26.5348 4.2188C26.5348 0.630942 23.6196 -2.28432 20.0317 -2.28432V2.28432C21.0964 2.28432 21.9662 3.15413 21.9661 4.21871L26.5348 4.2188ZM17.2193 6.54995H17.8755V1.98131H17.2193V6.54995ZM17.8755 6.54995C17.0016 6.54995 16.2943 5.84265 16.2943 4.96876H20.863C20.863 3.31946 19.5248 1.98131 17.8755 1.98131V6.54995ZM16.2943 4.96876C16.2943 6.61867 17.6319 7.9562 19.2818 7.9562V3.38757C20.1551 3.38757 20.863 4.09548 20.863 4.96876H16.2943ZM19.2818 7.9562C18.4079 7.9562 17.7006 7.2489 17.7006 6.37501H22.2692C22.2692 4.72571 20.9311 3.38757 19.2818 3.38757V7.9562ZM17.7006 6.37501C17.7006 5.50112 18.4079 4.79382 19.2818 4.79382V9.36246C20.9311 9.36246 22.2692 8.02431 22.2692 6.37501H17.7006ZM19.2818 4.79382H17.2193V9.36246H19.2818V4.79382ZM19.5036 7.07814V4.26563H14.935V7.07814H19.5036ZM20.5599 8.48439C20.5599 8.77361 20.321 9.01258 20.0317 9.01258V13.5812C22.8442 13.5812 25.1286 11.2968 25.1286 8.48439H20.5599ZM20.0317 9.01258C19.7425 9.01258 19.5036 8.77361 19.5036 8.48439H14.9349C14.9349 11.2968 17.2193 13.5812 20.0317 13.5812V9.01258ZM17.2192 10.7687H19.2817V6.20007H17.2192V10.7687ZM19.2817 10.7687C21.7064 10.7687 23.6754 8.79972 23.6754 6.37501H19.1068C19.1068 6.27653 19.1833 6.20007 19.2817 6.20007V10.7687ZM23.6754 6.37501C23.6754 4.38911 22.3572 2.71735 20.5585 2.17068L19.23 6.5419C19.1896 6.52964 19.1614 6.50733 19.1429 6.48277C19.1216 6.45453 19.1068 6.41431 19.1068 6.37501H23.6754ZM22.0798 3.69204C21.5332 1.89338 19.8615 0.575061 17.8755 0.575061V5.1437C17.8362 5.1437 17.796 5.12886 17.7677 5.10756C17.7431 5.08904 17.7209 5.06084 17.7086 5.02054L22.0798 3.69204ZM17.8755 0.575061H17.5707V5.1437H17.8755V0.575061ZM19.5684 3.96722C19.6637 3.79523 19.8404 3.69057 20.0317 3.69057V-0.878066C18.1072 -0.878066 16.4377 0.192242 15.573 1.75154L19.5684 3.96722ZM20.0317 3.69057C20.321 3.69057 20.5599 3.92954 20.5599 4.21876H25.1286C25.1286 1.40635 22.8442 -0.878066 20.0317 -0.878066V3.69057ZM20.5599 4.21876V8.48439H25.1286V4.21876H20.5599Z" fill="#101010" mask="url(#path-1-inside-1_15534_7071)"/>
<path d="M17.1694 14.1094H9.10691V12.7031H14.3569C14.7452 12.7031 15.06 12.3883 15.06 12V10.5938C15.06 9.43066 14.1137 8.48439 12.9506 8.48439H6.11516L5.01355 1.99697C4.81714 0.839814 3.82264 0 2.64898 0C1.17785 0 0.0528037 1.31358 0.279023 2.76722L3.48861 23.3943C3.5359 23.7354 3.82723 23.997 4.17889 24H4.17898H4.18006H4.18123H4.18236H4.18353C4.184 24 4.18451 24 4.18503 24H18.5756C18.9639 24 19.2787 23.6852 19.2787 23.2969V16.2188C19.2787 15.0557 18.3325 14.1094 17.1694 14.1094ZM17.1694 15.5157C17.5571 15.5157 17.8725 15.8311 17.8725 16.2188V16.9219H9.81004C9.42233 16.9219 9.10691 16.6065 9.10691 16.2188V15.5157H17.1694ZM3.4819 10.5938V14.205L1.66854 2.55104C1.57498 1.94968 2.0404 1.40625 2.64898 1.40625C3.13451 1.40625 3.54589 1.75369 3.62722 2.23238L4.72076 8.6725C3.99073 9.00461 3.4819 9.74088 3.4819 10.5938ZM17.8725 22.5938H4.88815V10.5938C4.88815 10.2061 5.20358 9.89064 5.59128 9.89064H12.9506C13.3383 9.89064 13.6537 10.2061 13.6537 10.5938V11.2969H8.40379C8.01547 11.2969 7.70066 11.6117 7.70066 12V16.2188C7.70066 17.3819 8.64693 18.3282 9.81004 18.3282H17.8725V22.5938Z" fill="#101010"/>
</svg>
