<svg fill="none" height="48" viewBox="0 0 48 48" width="48" xmlns="http://www.w3.org/2000/svg">
    <g filter="url(#filter0_d_10945_168040)">
        <rect fill="white" height="40" rx="20" shape-rendering="crispEdges" width="40" x="4" />
        <path
            d="M31.3334 24.6667C31.3334 25.0203 31.1929 25.3594 30.9429 25.6095C30.6928 25.8595 30.3537 26 30.0001 26H18.0001C17.6465 26 17.3073 25.8595 17.0573 25.6095C16.8072 25.3594 16.6667 25.0203 16.6667 24.6667V17.3333C16.6667 16.9797 16.8072 16.6406 17.0573 16.3905C17.3073 16.1405 17.6465 16 18.0001 16H20.6667L22.0001 14H26.0001L27.3334 16H30.0001C30.3537 16 30.6928 16.1405 30.9429 16.3905C31.1929 16.6406 31.3334 16.9797 31.3334 17.3333V24.6667Z"
            stroke="#3CB4E5" stroke-linecap="round" stroke-linejoin="round" stroke-width="1.5" />
        <path
            d="M23.9999 23.3333C25.4727 23.3333 26.6666 22.1394 26.6666 20.6667C26.6666 19.1939 25.4727 18 23.9999 18C22.5272 18 21.3333 19.1939 21.3333 20.6667C21.3333 22.1394 22.5272 23.3333 23.9999 23.3333Z"
            stroke="#3CB4E5" stroke-linecap="round" stroke-linejoin="round" stroke-width="1.5" />
        <rect height="39" rx="19.5" shape-rendering="crispEdges" stroke="#DDDDDD" width="39" x="4.5"
            y="0.5" />
    </g>
    <defs>
        <filter color-interpolation-filters="sRGB" filterUnits="userSpaceOnUse" height="48"
            id="filter0_d_10945_168040" width="48" x="0" y="0">
            <feFlood flood-opacity="0" result="BackgroundImageFix" />
            <feColorMatrix in="SourceAlpha" result="hardAlpha" type="matrix"
                values="0 0 0 0 0 0 0 0 0 0 0 0 0 0 0 0 0 0 127 0" />
            <feOffset dy="4" />
            <feGaussianBlur stdDeviation="2" />
            <feComposite in2="hardAlpha" operator="out" />
            <feColorMatrix type="matrix" values="0 0 0 0 0 0 0 0 0 0 0 0 0 0 0 0 0 0 0.08 0" />
            <feBlend in2="BackgroundImageFix" mode="normal"
                result="effect1_dropShadow_10945_168040" />
            <feBlend in="SourceGraphic" in2="effect1_dropShadow_10945_168040" mode="normal"
                result="shape" />
        </filter>
    </defs>
</svg>
