<svg fill="none" height="42" viewBox="0 0 46 42" width="46" xmlns="http://www.w3.org/2000/svg">
<path d="M31.5002 6H4.50024C2.84339 6 1.50024 7.34315 1.50024 9V27C1.50024 28.6569 2.84339 30 4.50024 30H31.5002C33.1571 30 34.5002 28.6569 34.5002 27V9C34.5002 7.34315 33.1571 6 31.5002 6Z" stroke="black" stroke-linecap="round" stroke-linejoin="round" stroke-width="2.25"/>
<path d="M1.50024 15H34.5002" stroke="black" stroke-linecap="round" stroke-linejoin="round" stroke-width="2.25"/>
<g clip-path="url(#clip0_629_91596)">
<rect fill="white" height="24" transform="translate(22 18)" width="24"/>
<mask fill="black" height="26" id="path-3-outside-1_629_91596" maskUnits="userSpaceOnUse" width="26" x="21" y="17">
<rect fill="white" height="26" width="26" x="21" y="17"/>
<path clip-rule="evenodd" d="M28.3824 22.968C29.922 21.7365 31.875 21 34 21C38.9706 21 43 25.0294 43 30C43 32.125 42.2635 34.078 41.032 35.6176L28.3824 22.968ZM26.9682 24.3822C25.7365 25.9219 25 27.875 25 30C25 34.9706 29.0294 39 34 39C36.125 39 38.0781 38.2635 39.6178 37.0318L26.9682 24.3822ZM34 19C27.9249 19 23 23.9249 23 30C23 36.0751 27.9249 41 34 41C40.0751 41 45 36.0751 45 30C45 23.9249 40.0751 19 34 19Z" fill-rule="evenodd"/>
</mask>
<path clip-rule="evenodd" d="M28.3824 22.968C29.922 21.7365 31.875 21 34 21C38.9706 21 43 25.0294 43 30C43 32.125 42.2635 34.078 41.032 35.6176L28.3824 22.968ZM26.9682 24.3822C25.7365 25.9219 25 27.875 25 30C25 34.9706 29.0294 39 34 39C36.125 39 38.0781 38.2635 39.6178 37.0318L26.9682 24.3822ZM34 19C27.9249 19 23 23.9249 23 30C23 36.0751 27.9249 41 34 41C40.0751 41 45 36.0751 45 30C45 23.9249 40.0751 19 34 19Z" fill="black" fill-rule="evenodd"/>
<path d="M28.3824 22.968L27.1331 21.4062C26.6888 21.7616 26.4169 22.2894 26.3854 22.8574C26.354 23.4254 26.5659 23.98 26.9682 24.3823L28.3824 22.968ZM41.032 35.6176L39.6177 37.0318C40.02 37.4341 40.5746 37.646 41.1426 37.6146C41.7106 37.5831 42.2384 37.3112 42.5938 36.8669L41.032 35.6176ZM26.9682 24.3822L28.3824 22.968C27.9801 22.5658 27.4255 22.3538 26.8575 22.3853C26.2895 22.4168 25.7617 22.6887 25.4064 23.1329L26.9682 24.3822ZM39.6178 37.0318L40.8671 38.5936C41.3113 38.2383 41.5832 37.7105 41.6147 37.1425C41.6462 36.5745 41.4342 36.0199 41.032 35.6176L39.6178 37.0318ZM34 19C31.4048 19 29.0145 19.9012 27.1331 21.4062L29.6317 24.5299C30.8296 23.5717 32.3453 23 34 23V19ZM45 30C45 23.9249 40.0751 19 34 19V23C37.866 23 41 26.134 41 30H45ZM42.5938 36.8669C44.0988 34.9855 45 32.5952 45 30H41C41 31.6547 40.4283 33.1704 39.4701 34.3683L42.5938 36.8669ZM26.9682 24.3823L39.6177 37.0318L42.4462 34.2034L29.7966 21.5538L26.9682 24.3823ZM25.4064 23.1329C23.9013 25.0144 23 27.4047 23 30H27C27 28.3452 27.5717 26.8295 28.5299 25.6316L25.4064 23.1329ZM23 30C23 36.0751 27.9249 41 34 41V37C30.134 37 27 33.866 27 30H23ZM34 41C36.5953 41 38.9856 40.0987 40.8671 38.5936L38.3684 35.4701C37.1705 36.4283 35.6548 37 34 37V41ZM41.032 35.6176L28.3824 22.968L25.5539 25.7965L38.2035 38.4461L41.032 35.6176ZM25 30C25 25.0294 29.0294 21 34 21V17C26.8203 17 21 22.8203 21 30H25ZM34 39C29.0294 39 25 34.9706 25 30H21C21 37.1797 26.8203 43 34 43V39ZM43 30C43 34.9706 38.9706 39 34 39V43C41.1797 43 47 37.1797 47 30H43ZM34 21C38.9706 21 43 25.0294 43 30H47C47 22.8203 41.1797 17 34 17V21Z" fill="white" mask="url(#path-3-outside-1_629_91596)"/>
</g>
<defs>
<clipPath id="clip0_629_91596">
<rect fill="white" height="24" transform="translate(22 18)" width="24"/>
</clipPath>
</defs>
</svg>
