<svg width="42" height="42" viewBox="0 0 42 42" fill="none" xmlns="http://www.w3.org/2000/svg">
<path d="M40.5 25L25.5 40" stroke="black" stroke-width="2.5" stroke-linecap="round" stroke-linejoin="round"/>
<path d="M25.5 25L40.5 40" stroke="black" stroke-width="2.5" stroke-linecap="round" stroke-linejoin="round"/>
<path fill-rule="evenodd" clip-rule="evenodd" d="M36.5021 19.8312C36.462 19.8015 36.4215 19.7731 36.381 19.7461L24.0714 13.6V5.23077C24.0714 3.79231 23.5476 2.48461 22.5 1.56923C21.5833 0.523077 20.2738 0 18.8333 0C17.3929 0 16.0833 0.523077 15.1667 1.56923C14.119 2.48461 13.5952 3.79231 13.5952 5.23077V13.6L1.28571 19.7461C0.761905 20.0077 0.5 20.4 0.5 20.9231V24.8461C0.5 25.2384 0.630952 25.6308 1.02381 25.8923C1.28571 26.1538 1.67857 26.2846 2.07143 26.1538L13.5952 23.8V28.2461L11.369 30.4692C11.1071 30.7308 10.9762 30.9923 10.9762 31.3846V35.3077C10.9762 35.7 11.1071 36.0923 11.5 36.3538C11.7619 36.6154 12.1548 36.7461 12.5476 36.6154L18.8333 35.3077L20.3327 35.6196L22.8315 33.4778L19.0952 32.6923H18.8333H18.5714L13.5952 33.7384V31.9077L15.8214 29.6846C16.0833 29.4231 16.2143 29.1615 16.2143 28.7692V22.2308C16.2143 21.8385 15.9524 21.4461 15.6905 21.1846C15.4286 20.9231 15.0357 20.7923 14.6429 20.9231L3.11905 23.2769V21.7077L15.4286 15.5615C15.9524 15.3 16.2143 14.9077 16.2143 14.3846V5.23077C16.2143 4.57692 16.4762 3.92307 17 3.4C17.9167 2.35384 19.619 2.35384 20.6667 3.4C21.1905 3.92307 21.4524 4.57692 21.4524 5.23077V14.3846C21.4524 14.9077 21.7143 15.3 22.2381 15.5615L34.5476 21.7077V21.7857L36.5021 19.8312Z" fill="black"/>
</svg>
