<svg width="34" height="32" viewBox="0 0 34 32" fill="none" xmlns="http://www.w3.org/2000/svg">
<path d="M15.045 19.6156C10.9082 19.6156 7.25548 19.6156 3.11862 19.6156C1.94854 19.6156 1 18.6671 1 17.497V4.78528C1 3.6152 1.94854 2.66666 3.11862 2.66666H22.1862C23.3563 2.66666 24.3048 3.6152 24.3048 4.78528V9.02252" stroke="#101010" stroke-width="2" stroke-linecap="round" stroke-linejoin="round"/>
<path d="M1 9.02262H24.3048" stroke="#101010" stroke-width="2" stroke-linecap="round" stroke-linejoin="round"/>
<path d="M31.3704 20.667H19.963C19.063 20.667 18.3334 21.3966 18.3334 22.2966V28.0003C18.3334 28.9003 19.063 29.6299 19.963 29.6299H31.3704C32.2704 29.6299 33 28.9003 33 28.0003V22.2966C33 21.3966 32.2704 20.667 31.3704 20.667Z" stroke="black" stroke-width="2" stroke-linecap="round" stroke-linejoin="round"/>
<path d="M21.5925 20.6667V17.4074C21.5925 16.3269 22.0218 15.2906 22.7858 14.5266C23.5498 13.7626 24.5861 13.3333 25.6666 13.3333C26.7471 13.3333 27.7834 13.7626 28.5474 14.5266C29.3114 15.2906 29.7407 16.3269 29.7407 17.4074V20.6667" stroke="black" stroke-width="2" stroke-linecap="round" stroke-linejoin="round"/>
</svg>
