<svg fill="none" height="42" viewBox="0 0 46 42" width="46" xmlns="http://www.w3.org/2000/svg">
<path d="M31.5002 6H4.50024C2.84339 6 1.50024 7.34315 1.50024 9V27C1.50024 28.6569 2.84339 30 4.50024 30H31.5002C33.1571 30 34.5002 28.6569 34.5002 27V9C34.5002 7.34315 33.1571 6 31.5002 6Z" stroke="black" stroke-linecap="round" stroke-linejoin="round" stroke-width="2.25"/>
<path d="M1.50024 15H34.5002" stroke="black" stroke-linecap="round" stroke-linejoin="round" stroke-width="2.25"/>
<path d="M42.4339 32.5174V32.4063L41.9342 32.1179L41.9339 32.1177L38.266 29.9999L41.9339 27.8822L41.9342 27.882C42.4239 27.5991 42.7811 27.1332 42.9274 26.5869C43.0737 26.0407 42.997 25.4586 42.7143 24.9688C42.4316 24.4791 41.9659 24.1216 41.4197 23.975C40.8735 23.8285 40.2914 23.9048 39.8015 24.1873L39.801 24.1876L36.1329 26.3055V22.0699C36.1329 21.5042 35.9081 20.9617 35.5082 20.5617C35.1082 20.1617 34.5657 19.937 34 19.937C33.4343 19.937 32.8918 20.1617 32.4918 20.5617C32.0918 20.9617 31.8671 21.5042 31.8671 22.0699V26.3055L28.199 24.1876L28.1985 24.1873C27.7085 23.9048 27.1265 23.8284 26.5803 23.975C26.0341 24.1216 25.5684 24.479 25.2857 24.9688C25.003 25.4586 24.9263 26.0406 25.0726 26.5869C25.2189 27.1332 25.5761 27.599 26.0658 27.882L26.0661 27.8822L29.734 29.9999L26.0661 32.1177L26.0658 32.1179C25.5761 32.4008 25.2189 32.8667 25.0726 33.413C24.9263 33.9592 25.003 34.5413 25.2857 35.031C25.5684 35.5208 26.0341 35.8783 26.5803 36.0249C27.1265 36.1714 27.7085 36.0951 28.1985 35.8126L28.199 35.8123L31.8671 33.6944V37.93C31.8671 38.4957 32.0918 39.0382 32.4918 39.4382C32.8918 39.8382 33.4343 40.0629 34 40.0629C34.5657 40.0629 35.1082 39.8382 35.5082 39.4382C35.9081 39.0382 36.1329 38.4957 36.1329 37.93V33.6944L39.801 35.8123L39.8015 35.8126C40.2914 36.0951 40.8735 36.1715 41.4197 36.0249C41.9659 35.8783 42.4316 35.5209 42.7143 35.0311C42.997 34.5413 43.0737 33.9593 42.9274 33.413C42.8371 33.0758 42.6664 32.7692 42.4339 32.5174Z" fill="black" stroke="white" stroke-width="2"/>
</svg>
