<svg fill="none" height="25" viewBox="0 0 25 25" width="25" xmlns="http://www.w3.org/2000/svg">
<path d="M10 14C10.4295 14.5741 10.9774 15.0491 11.6066 15.3929C12.2357 15.7367 12.9315 15.9411 13.6467 15.9923C14.3618 16.0435 15.0796 15.9403 15.7513 15.6897C16.4231 15.4392 17.0331 15.047 17.54 14.54L20.54 11.54C21.4508 10.597 21.9548 9.33394 21.9434 8.02296C21.932 6.71198 21.4061 5.45791 20.4791 4.53087C19.5521 3.60383 18.298 3.07799 16.987 3.0666C15.676 3.0552 14.413 3.55918 13.47 4.46997L11.75 6.17997" stroke="black" stroke-linecap="round" stroke-linejoin="round" stroke-width="2"/>
<path d="M14 12.0002C13.5705 11.4261 13.0226 10.951 12.3934 10.6073C11.7642 10.2635 11.0684 10.0591 10.3533 10.0079C9.63816 9.95667 8.92037 10.0599 8.24861 10.3104C7.57685 10.561 6.96684 10.9532 6.45996 11.4602L3.45996 14.4602C2.54917 15.4032 2.04519 16.6662 2.05659 17.9772C2.06798 19.2882 2.59382 20.5423 3.52086 21.4693C4.4479 22.3964 5.70197 22.9222 7.01295 22.9336C8.32393 22.945 9.58694 22.441 10.53 21.5302L12.24 19.8202" stroke="black" stroke-linecap="round" stroke-linejoin="round" stroke-width="2"/>
<rect fill="#E53E51" height="7" rx="3.5" stroke="white" width="7" x="17.5" y="0.5"/>
</svg>
