<svg fill="none" height="18" viewBox="0 0 42 18" width="42" xmlns="http://www.w3.org/2000/svg">
<path d="M39.8999 14.7466C39.6417 14.5631 39.3835 14.3962 39.1253 14.2127C39.0564 14.1627 39.0564 14.1627 39.1081 14.0793C39.1081 14.0793 39.1081 14.0793 39.1081 14.0626C39.9343 12.8281 40.399 11.4769 40.5195 10.0088C40.5884 9.24147 40.5368 8.47409 40.3818 7.70672C40.0031 5.92173 39.1425 4.38698 37.7827 3.11914C36.2335 1.68448 34.3917 0.917099 32.2745 0.750278C31.4482 0.683549 30.6392 0.733595 29.8302 0.900417C28.0917 1.25074 26.5941 2.0348 25.3548 3.25259C23.7195 4.85408 22.8761 6.7892 22.7556 9.0246C22.7212 9.7753 22.79 10.5427 22.9794 11.2767C23.5474 13.5455 24.8212 15.3138 26.8351 16.5983C28.1261 17.4157 29.5376 17.8494 31.0867 17.9495C31.8269 17.9996 32.5671 17.9662 33.29 17.8328C34.4605 17.6159 35.5622 17.1822 36.5605 16.5482C36.6638 16.4815 36.7843 16.3981 36.8876 16.3314C36.922 16.298 36.9564 16.298 36.9908 16.3314C37.0081 16.3481 37.0425 16.3647 37.0597 16.3814C37.7999 16.8819 38.5228 17.3823 39.263 17.8828C39.2974 17.8995 39.3318 17.9328 39.3835 17.9495C39.9687 17.1488 40.554 16.3481 41.1392 15.5473C41.1048 15.5306 41.0876 15.5139 41.0704 15.4973C40.6572 15.247 40.2786 14.9968 39.8999 14.7466ZM31.6548 15.4973C28.0572 15.4639 25.3376 12.678 25.3376 9.39161C25.3548 5.87169 28.2982 3.26928 31.6548 3.26928C35.1318 3.28596 37.972 6.02182 37.9548 9.39161C37.9376 12.8448 35.063 15.4806 31.6548 15.4973Z" fill="#101010"/>
<path d="M12.7893 1.70121C12.5656 1.58443 12.3418 1.50102 12.118 1.41761C11.3262 1.1507 10.5 1.01724 9.65656 0.950514C8.91639 0.900468 8.19344 0.91715 7.45328 1.00056C6.78197 1.08397 6.12787 1.20075 5.49098 1.4343C3.23607 2.20167 1.63525 3.65302 0.705738 5.77165C0.189344 6.93939 0 8.17387 0 9.42503C0 9.90881 0.0344262 10.3926 0.103279 10.8764C0.206557 11.577 0.361475 12.261 0.636885 12.9116C1.27377 14.5131 2.34098 15.7476 3.89016 16.5817C5.06066 17.2156 6.31721 17.4992 7.64262 17.5826C8.15902 17.6159 8.67541 17.5993 9.1918 17.5659C9.89754 17.5159 10.5861 17.4324 11.2746 17.2656C11.7738 17.1488 12.273 16.9987 12.7377 16.7652C12.8238 16.7318 12.8238 16.7318 12.7893 16.6484C12.7205 16.3815 12.6516 16.0979 12.5828 15.831C12.4795 15.464 12.3934 15.0803 12.2902 14.7133C12.273 14.6465 12.273 14.6465 12.2041 14.6799C12.1697 14.6966 12.118 14.7133 12.0836 14.7299C11.7566 14.8968 11.4123 15.0135 11.0508 15.0969C10.2762 15.2971 9.46721 15.3805 8.67541 15.3805C7.98689 15.3805 7.29836 15.2971 6.62705 15.1136C5.09508 14.6632 3.99344 13.7457 3.33934 12.3277C2.96066 11.5103 2.80574 10.6595 2.77131 9.77535C2.7541 9.19148 2.77131 8.62429 2.85738 8.0571C2.94344 7.45654 3.09836 6.88935 3.33934 6.33884C3.8041 5.30455 4.50984 4.47044 5.52541 3.90325C6.33443 3.45283 7.2123 3.23596 8.1418 3.16924C8.72705 3.11919 9.29508 3.13587 9.88033 3.2026C10.5 3.26933 11.0852 3.41947 11.6705 3.63633C11.8598 3.70306 12.032 3.78647 12.2213 3.86988C12.2385 3.8532 12.2385 3.83652 12.2385 3.83652C12.4451 3.15255 12.6516 2.48527 12.8754 1.8013C12.8582 1.73457 12.8238 1.73457 12.7893 1.70121Z" fill="#101010"/>
<path d="M17.0927 1.25065C17.0755 1.25065 17.0583 1.25065 17.041 1.25065C16.2837 1.25065 15.5435 1.25065 14.7861 1.25065C14.7689 1.25065 14.7345 1.25065 14.7173 1.25065C14.6656 1.25065 14.6484 1.26733 14.6656 1.31737C14.6656 1.33406 14.6656 1.36742 14.6656 1.3841C14.6656 6.67233 14.6656 11.9606 14.6656 17.2488C14.6656 17.2822 14.6656 17.2988 14.6656 17.3322C14.6656 17.3656 14.6828 17.3822 14.7173 17.3822C14.7517 17.3822 14.7689 17.3822 14.8033 17.3822C15.5435 17.3822 16.3009 17.3822 17.041 17.3822C17.196 17.3822 17.1788 17.3989 17.1788 17.2488C17.1788 14.613 17.1788 11.9772 17.1788 9.32479C17.1788 6.67233 17.1788 4.05324 17.1788 1.40078C17.1788 1.36742 17.1788 1.35074 17.1788 1.31737C17.1788 1.25065 17.1443 1.23396 17.0927 1.25065Z" fill="#101010"/>
<path d="M21.4303 6.22174C21.4131 6.22174 21.3787 6.22174 21.3615 6.22174C20.6213 6.22174 19.8811 6.22174 19.141 6.22174C18.986 6.22174 19.0033 6.20506 19.0033 6.3552C19.0033 8.17355 19.0033 9.97522 19.0033 11.7936C19.0033 13.5952 19.0033 15.3969 19.0033 17.2153C19.0033 17.2486 19.0033 17.2653 19.0033 17.2987C19.0033 17.3487 19.0205 17.3821 19.0721 17.3821C19.0893 17.3821 19.1237 17.3821 19.141 17.3821C19.8811 17.3821 20.6213 17.3821 21.3615 17.3821C21.5164 17.3821 21.4992 17.3988 21.4992 17.2486C21.4992 13.6286 21.4992 10.0086 21.4992 6.37188C21.4992 6.3552 21.4992 6.32184 21.4992 6.30515C21.5164 6.23843 21.4819 6.22174 21.4303 6.22174Z" fill="#101010"/>
<path d="M19.3821 2.28527C18.9518 2.58555 18.7625 3.01928 18.7625 3.53643C18.7797 3.90343 18.9002 4.23708 19.1584 4.50399C19.4682 4.82095 19.8641 4.95441 20.3288 4.93773C21.1551 4.90436 21.7575 4.30381 21.7575 3.50306C21.7575 3.20279 21.6887 2.91919 21.5166 2.66896C21.0518 1.98499 20.0534 1.80149 19.3821 2.28527Z" fill="#101010"/>
<path d="M41.8795 10.9762C41.8106 10.9762 41.7417 10.9595 41.6729 10.9428C41.4147 10.9094 41.1737 10.8761 40.9155 10.8427C40.8639 10.826 40.8467 10.8594 40.8295 10.9094C40.8122 11.0429 40.795 11.1764 40.7606 11.3098C40.7434 11.3599 40.7606 11.3765 40.8122 11.3765C40.9499 11.3932 41.0877 11.4266 41.2426 11.46C41.4147 11.4933 41.5868 11.5267 41.7417 11.56C41.7762 11.56 41.8278 11.5767 41.8278 11.5267C41.8622 11.3599 41.8795 11.2097 41.9139 11.0429C41.9311 11.0095 41.9139 10.9762 41.8795 10.9762Z" fill="#101010"/>
<path d="M40.9154 8.74128C40.881 8.74128 40.8638 8.75797 40.881 8.79133C40.8982 8.94147 40.8982 9.07492 40.9154 9.22506C40.9154 9.25843 40.9327 9.27511 40.9671 9.27511C40.9843 9.27511 41.0187 9.27511 41.0359 9.27511C41.2941 9.25843 41.5695 9.24175 41.8277 9.24175C41.9827 9.24175 41.9827 9.24175 41.9827 9.05824C41.9827 8.95815 41.9654 8.84138 41.9482 8.7246C41.9482 8.65787 41.931 8.64119 41.8622 8.65787C41.6384 8.67455 41.4146 8.70792 41.1909 8.7246C41.1048 8.7246 41.0187 8.74128 40.9154 8.74128Z" fill="#101010"/>
<path d="M41.9311 9.80867C41.7762 9.80867 41.6213 9.80867 41.4663 9.80867V9.79199C41.3114 9.79199 41.1393 9.79199 40.9844 9.79199C40.9327 9.79199 40.9155 9.80867 40.8983 9.85872C40.8983 9.99218 40.8811 10.1256 40.8811 10.2591C40.8811 10.2925 40.8983 10.3091 40.9327 10.3091C40.95 10.3091 40.9844 10.3091 41.0016 10.3091C41.2942 10.3258 41.6041 10.3425 41.8967 10.3759C41.9483 10.3759 41.9655 10.3759 41.9655 10.3258C41.9655 10.1757 41.9827 10.0255 41.9827 9.8754C42.0172 9.80867 42 9.80867 41.9311 9.80867Z" fill="#101010"/>
<path d="M41.6385 12.1275C41.3287 12.0441 41.0188 11.9774 40.709 11.894C40.6573 11.8773 40.6401 11.894 40.6229 11.944C40.5885 12.0775 40.5541 12.1942 40.5196 12.3277C40.5024 12.3777 40.5196 12.3944 40.5713 12.4111C40.8639 12.4945 41.1565 12.5946 41.4664 12.678C41.518 12.6947 41.5524 12.678 41.5696 12.628C41.6041 12.4778 41.6557 12.3444 41.6901 12.1942C41.6901 12.1775 41.6901 12.1775 41.7073 12.1609C41.6901 12.1275 41.6557 12.1275 41.6385 12.1275Z" fill="#101010"/>
<path d="M40.7262 7.77346C40.7607 7.89023 40.7779 8.00701 40.7951 8.12378C40.8123 8.22388 40.8123 8.22388 40.9156 8.20719C41.1049 8.17383 41.2943 8.15715 41.4836 8.12378C41.6041 8.1071 41.7418 8.09042 41.8623 8.05706C41.8279 7.87355 41.7935 7.70673 41.759 7.53991C41.759 7.50654 41.7246 7.48986 41.6902 7.50654C41.3803 7.57327 41.0705 7.64 40.7607 7.70673C40.7262 7.70673 40.709 7.72341 40.7262 7.77346Z" fill="#101010"/>
<path d="M41.2598 13.2289C40.9672 13.1288 40.6746 13.012 40.382 12.8952C40.3303 12.8785 40.3131 12.8952 40.2959 12.9286C40.2443 13.0454 40.1926 13.1788 40.141 13.2956C40.1238 13.3456 40.141 13.379 40.1926 13.3957C40.2787 13.429 40.3647 13.4624 40.4508 13.5125C40.6574 13.5959 40.8639 13.696 41.0877 13.7794C41.1566 13.6125 41.2426 13.4457 41.3115 13.2789C41.3287 13.2622 41.2943 13.2455 41.2598 13.2289Z" fill="#101010"/>
<path d="M40.4337 6.73924C40.4681 6.8727 40.5198 7.00615 40.5542 7.13961C40.5714 7.17297 40.5886 7.18965 40.623 7.17297C40.6747 7.15629 40.7435 7.13961 40.7952 7.12293C41.0362 7.0562 41.2599 6.98947 41.5009 6.92274C41.5526 6.90606 41.587 6.90606 41.5698 6.83933C41.5181 6.68919 41.4665 6.53905 41.4149 6.37223C41.4149 6.35555 41.3976 6.33887 41.3804 6.33887C41.3632 6.33887 41.3632 6.33887 41.346 6.35555C41.0534 6.45564 40.778 6.55573 40.4853 6.63915C40.4337 6.67251 40.4165 6.68919 40.4337 6.73924Z" fill="#101010"/>
<path d="M39.8484 13.9124C39.7795 14.0292 39.7279 14.146 39.659 14.2628C39.6246 14.3128 39.6418 14.3295 39.6935 14.3628C39.9516 14.513 40.2098 14.6631 40.4508 14.7966C40.5025 14.8299 40.5197 14.8133 40.5541 14.7632C40.623 14.6298 40.709 14.513 40.7779 14.3795C40.8123 14.3128 40.8123 14.3128 40.7434 14.2794C40.4853 14.146 40.2271 14.0125 39.9689 13.8791C39.9516 13.8624 39.9344 13.8624 39.9172 13.8457C39.8828 13.8624 39.8656 13.8957 39.8484 13.9124Z" fill="#101010"/>
<path d="M40.055 5.75478C40.0894 5.83819 40.1239 5.90492 40.1583 5.98833C40.1927 6.05506 40.1927 6.13847 40.2444 6.15515C40.3132 6.18851 40.3821 6.12178 40.4337 6.1051C40.6575 6.02169 40.8812 5.9216 41.105 5.83819C41.1394 5.82151 41.1911 5.82151 41.1566 5.75478C41.0878 5.60464 41.0017 5.4545 40.9329 5.30436C40.9157 5.28768 40.9157 5.271 40.8812 5.271H40.864C40.6058 5.40445 40.3304 5.52123 40.0722 5.65468C40.0378 5.70473 40.0378 5.72141 40.055 5.75478Z" fill="#101010"/>
<path d="M39.5385 4.80434C39.6246 4.93779 39.6934 5.07125 39.7795 5.22139C40.0549 5.07125 40.3131 4.93779 40.5885 4.78765C40.6229 4.77097 40.6229 4.73761 40.6057 4.72093C40.5024 4.57079 40.4164 4.43733 40.3131 4.27051C40.227 4.32055 40.1582 4.3706 40.0893 4.40396C39.9172 4.50406 39.7623 4.60415 39.5902 4.72093C39.5557 4.73761 39.5213 4.75429 39.5385 4.80434Z" fill="#101010"/>
<path d="M38.9359 3.93645C39.0047 4.03655 39.0908 4.13664 39.1597 4.23673C39.2113 4.30346 39.2113 4.30346 39.2802 4.25341C39.4695 4.11996 39.6761 3.96982 39.8654 3.83636C39.8826 3.81968 39.917 3.803 39.917 3.76963C39.8138 3.63618 39.6933 3.50272 39.59 3.36926C39.5556 3.3359 39.5383 3.3359 39.5039 3.36926C39.3146 3.5194 39.1252 3.66954 38.9359 3.81968C38.9015 3.86973 38.9187 3.90309 38.9359 3.93645Z" fill="#101010"/>
<path d="M38.2304 3.10239C38.3337 3.20248 38.437 3.31926 38.523 3.41935C38.5402 3.43603 38.5402 3.43603 38.5575 3.45271C38.5747 3.45271 38.5747 3.43603 38.5919 3.43603C38.7812 3.26921 38.9534 3.11907 39.1427 2.95225C39.1771 2.91889 39.1599 2.9022 39.1427 2.88552C39.0222 2.76875 38.9017 2.66865 38.7812 2.55188C38.7468 2.51851 38.7296 2.51851 38.6952 2.55188C38.5402 2.70202 38.3853 2.85216 38.2304 3.01898C38.196 3.05234 38.196 3.08571 38.2304 3.10239Z" fill="#101010"/>
<path d="M37.4213 2.36846C37.5418 2.46855 37.6622 2.56865 37.8 2.68542C37.9549 2.50192 38.1098 2.3351 38.2647 2.15159C38.2647 2.13491 38.2475 2.13491 38.2475 2.11823C38.1442 2.03482 38.0409 1.96809 37.9377 1.88468C37.886 1.85132 37.8516 1.80127 37.8 1.80127C37.7311 1.80127 37.7139 1.88468 37.6795 1.91804C37.5934 2.03482 37.5073 2.13491 37.4213 2.25169C37.3868 2.31841 37.3696 2.3351 37.4213 2.36846Z" fill="#101010"/>
<path d="M36.5261 1.71783C36.6466 1.80124 36.767 1.88465 36.8875 1.96806C36.922 2.00143 36.9392 1.98474 36.9736 1.95138C37.0597 1.81792 37.163 1.68446 37.2662 1.53433C37.3007 1.50096 37.2834 1.4676 37.249 1.45092C37.1113 1.38419 36.9736 1.30078 36.8531 1.21737C36.8359 1.21737 36.8187 1.20068 36.8187 1.20068C36.7843 1.20068 36.7843 1.21737 36.767 1.23405C36.681 1.3675 36.6121 1.50096 36.5261 1.63442C36.4916 1.68446 36.4916 1.70115 36.5261 1.71783Z" fill="#101010"/>
<path d="M35.5623 1.1843C35.6828 1.25103 35.8205 1.31776 35.941 1.38449C35.9927 1.41785 36.0099 1.40117 36.0443 1.35112C36.096 1.23435 36.1648 1.11758 36.2337 1.0008C36.2681 0.950754 36.2509 0.934072 36.1992 0.91739C36.0615 0.867344 35.9238 0.800615 35.7861 0.750569C35.7689 0.750569 35.7517 0.733887 35.7517 0.733887C35.7173 0.733887 35.7 0.750569 35.7 0.767251C35.6484 0.884026 35.5968 0.984118 35.5451 1.10089C35.5107 1.15094 35.5279 1.16762 35.5623 1.1843Z" fill="#101010"/>
<path d="M34.5294 0.733902C34.6671 0.783949 34.8048 0.833995 34.9597 0.900724C34.9942 0.917406 35.0286 0.900724 35.0458 0.867359C35.0802 0.767267 35.1319 0.667174 35.1663 0.567081V0.550399C35.1663 0.517035 35.1491 0.517035 35.1319 0.500353C34.977 0.450307 34.822 0.416942 34.6671 0.366896C34.6327 0.350214 34.6155 0.366896 34.6155 0.40026C34.5811 0.483671 34.5638 0.583763 34.5294 0.667174C34.4778 0.700538 34.495 0.71722 34.5294 0.733902Z" fill="#101010"/>
<path d="M33.445 0.433498C33.5999 0.466862 33.7376 0.500227 33.8925 0.550273C33.9441 0.566955 33.9613 0.550273 33.9613 0.500227C33.9786 0.416816 33.9958 0.333406 34.0302 0.233313C33.8409 0.199949 33.6687 0.166584 33.4966 0.149902C33.4622 0.149902 33.4449 0.149902 33.4277 0.199949C33.4105 0.266677 33.4105 0.316723 33.3933 0.383452C33.3933 0.400134 33.4105 0.416816 33.445 0.433498Z" fill="#101010"/>
<path d="M32.3435 0.249663C32.4468 0.266345 32.5673 0.283027 32.6706 0.283027C32.8599 0.299709 32.8599 0.299709 32.8771 0.116206C32.8771 0.0661596 32.8599 0.0494775 32.8083 0.0494775C32.6533 0.0494775 32.5156 0.0327954 32.3607 0.0161133C32.3091 0.0161133 32.2919 0.0161133 32.2919 0.0661596C32.2919 0.0995238 32.2919 0.132888 32.2747 0.182934C32.2747 0.216299 32.2919 0.232981 32.3435 0.249663Z" fill="#101010"/>
<path d="M31.2074 0.199697C31.3451 0.199697 31.4828 0.199697 31.6377 0.199697C31.6894 0.199697 31.7238 0.183015 31.7238 0.132969C31.7238 0.116286 31.7238 0.0829223 31.7238 0.0662402C31.7238 0.0328759 31.7066 -0.000488281 31.6549 -0.000488281C31.5861 -0.000488281 31.5 -0.000488281 31.4312 -0.000488281C31.3623 -0.000488281 31.2935 0.0161938 31.2074 0.0161938C31.1385 0.0161938 31.1213 0.0328759 31.1385 0.0996044C31.1385 0.183015 31.1385 0.199697 31.2074 0.199697Z" fill="#101010"/>
<path d="M34.9255 6.8227C34.891 6.83938 34.8566 6.85606 34.8222 6.88943C33.8755 7.55671 32.9287 8.20731 31.982 8.8746C31.8787 8.94133 31.7927 8.95801 31.6894 8.89128C31.2419 8.64105 30.8115 8.39082 30.364 8.15727C30.3468 8.15727 30.3468 8.14059 30.3296 8.14059C30.2951 8.1239 30.2779 8.1239 30.2607 8.15727C30.2435 8.17395 30.2435 8.20731 30.2607 8.224C30.2779 8.25736 30.3124 8.29072 30.3296 8.34077C30.8287 9.09147 31.3279 9.82548 31.8271 10.5762C31.8443 10.6095 31.8615 10.6262 31.8787 10.6596C31.896 10.6763 31.9132 10.6929 31.9304 10.6596C31.9476 10.6429 31.9476 10.6262 31.9648 10.6095C32.3951 10.0924 32.8255 9.55857 33.2558 9.04142C33.8238 8.34077 34.3919 7.64012 34.9599 6.95616C34.9771 6.93947 34.9943 6.92279 34.9943 6.88943C35.0115 6.83938 34.9599 6.80602 34.9255 6.8227Z" fill="#101010"/>
</svg>
