<svg width="32" height="14" viewBox="0 0 32 14" fill="none" xmlns="http://www.w3.org/2000/svg">
<g clip-path="url(#clip0_7020_6418)">
<path d="M30.3999 11.4693C30.2031 11.3266 30.0064 11.1968 29.8097 11.0541C29.7572 11.0152 29.7572 11.0152 29.7966 10.9503C29.7966 10.9503 29.7966 10.9503 29.7966 10.9373C30.4261 9.97716 30.7802 8.92619 30.872 7.78439C30.9244 7.18754 30.8851 6.59069 30.7671 5.99384C30.4785 4.60552 29.8228 3.41182 28.7867 2.42572C27.6064 1.30988 26.2031 0.713028 24.59 0.583278C23.9605 0.531378 23.3441 0.570303 22.7277 0.700053C21.4031 0.972527 20.2621 1.58235 19.3179 2.52952C18.072 3.77512 17.4294 5.28022 17.3376 7.01887C17.3113 7.60274 17.3638 8.19959 17.508 8.77049C17.9408 10.5351 18.9113 11.9104 20.4457 12.9095C21.4294 13.5453 22.5048 13.8826 23.6851 13.9605C24.249 13.9994 24.813 13.9735 25.3638 13.8697C26.2556 13.701 27.0949 13.3636 27.8556 12.8706C27.9343 12.8187 28.0261 12.7538 28.1048 12.7019C28.131 12.676 28.1572 12.676 28.1835 12.7019C28.1966 12.7149 28.2228 12.7279 28.2359 12.7408C28.7999 13.1301 29.3507 13.5193 29.9146 13.9086C29.9408 13.9216 29.9671 13.9475 30.0064 13.9605C30.4523 13.3377 30.8982 12.7149 31.3441 12.0921C31.3179 12.0791 31.3048 12.0661 31.2917 12.0532C30.9769 11.8585 30.6884 11.6639 30.3999 11.4693ZM24.1179 12.0532C21.3769 12.0272 19.3048 9.86039 19.3048 7.30432C19.3179 4.5666 21.5605 2.5425 24.1179 2.5425C26.7671 2.55547 28.931 4.68337 28.9179 7.30432C28.9048 9.99014 26.7146 12.0402 24.1179 12.0532Z" fill="white"/>
<path d="M9.74426 1.32305C9.57377 1.23223 9.40328 1.16735 9.23279 1.10248C8.62951 0.89488 8 0.79108 7.35738 0.73918C6.79344 0.700255 6.24262 0.71323 5.67869 0.778105C5.16721 0.84298 4.66885 0.933805 4.18361 1.11545C2.46557 1.7123 1.2459 2.84113 0.537705 4.48895C0.144262 5.3972 0 6.35735 0 7.33047C0 7.70674 0.0262295 8.08302 0.0786885 8.45929C0.157377 9.00424 0.27541 9.53622 0.485246 10.0422C0.970492 11.2878 1.78361 12.248 2.96393 12.8967C3.85574 13.3898 4.81311 13.6104 5.82295 13.6752C6.21639 13.7012 6.60984 13.6882 7.00328 13.6623C7.54098 13.6233 8.06557 13.5585 8.59016 13.4287C8.97049 13.3379 9.35082 13.2211 9.70492 13.0395C9.77049 13.0135 9.77049 13.0135 9.74426 12.9486C9.6918 12.741 9.63934 12.5205 9.58688 12.3129C9.5082 12.0274 9.44262 11.729 9.36393 11.4435C9.35082 11.3916 9.35082 11.3916 9.29836 11.4176C9.27213 11.4306 9.23279 11.4435 9.20656 11.4565C8.95738 11.5863 8.69508 11.6771 8.41967 11.742C7.82951 11.8977 7.21311 11.9625 6.60984 11.9625C6.08525 11.9625 5.56066 11.8977 5.04918 11.7549C3.88197 11.4046 3.04262 10.691 2.54426 9.58812C2.25574 8.95234 2.1377 8.29062 2.11148 7.60294C2.09836 7.14882 2.11148 6.70767 2.17705 6.26652C2.24262 5.79942 2.36066 5.35827 2.54426 4.9301C2.89836 4.12565 3.43607 3.4769 4.20984 3.03575C4.82623 2.68543 5.49508 2.51675 6.20328 2.46485C6.64918 2.42593 7.08197 2.4389 7.52787 2.4908C8 2.5427 8.4459 2.65948 8.8918 2.82815C9.03607 2.88005 9.16721 2.94493 9.31147 3.0098C9.32459 2.99683 9.32459 2.98385 9.32459 2.98385C9.48197 2.45188 9.63934 1.93288 9.80984 1.4009C9.79672 1.349 9.77049 1.349 9.74426 1.32305Z" fill="white"/>
<path d="M13.023 0.972942C13.0099 0.972942 12.9968 0.972942 12.9837 0.972942C12.4067 0.972942 11.8427 0.972942 11.2657 0.972942C11.2526 0.972942 11.2263 0.972942 11.2132 0.972942C11.1739 0.972942 11.1607 0.985917 11.1739 1.02484C11.1739 1.03782 11.1739 1.06377 11.1739 1.07674C11.1739 5.18981 11.1739 9.30288 11.1739 13.4159C11.1739 13.4419 11.1739 13.4549 11.1739 13.4808C11.1739 13.5068 11.187 13.5197 11.2132 13.5197C11.2394 13.5197 11.2526 13.5197 11.2788 13.5197C11.8427 13.5197 12.4198 13.5197 12.9837 13.5197C13.1017 13.5197 13.0886 13.5327 13.0886 13.4159C13.0886 11.3659 13.0886 9.31585 13.0886 7.25283C13.0886 5.18981 13.0886 3.15274 13.0886 1.08972C13.0886 1.06377 13.0886 1.05079 13.0886 1.02484C13.0886 0.972942 13.0624 0.959967 13.023 0.972942Z" fill="white"/>
<path d="M16.3276 4.8393C16.3145 4.8393 16.2883 4.8393 16.2752 4.8393C15.7112 4.8393 15.1473 4.8393 14.5834 4.8393C14.4653 4.8393 14.4785 4.82632 14.4785 4.9431C14.4785 6.35737 14.4785 7.75867 14.4785 9.17294C14.4785 10.5742 14.4785 11.9755 14.4785 13.3898C14.4785 13.4158 14.4785 13.4287 14.4785 13.4547C14.4785 13.4936 14.4916 13.5196 14.5309 13.5196C14.544 13.5196 14.5703 13.5196 14.5834 13.5196C15.1473 13.5196 15.7112 13.5196 16.2752 13.5196C16.3932 13.5196 16.3801 13.5325 16.3801 13.4158C16.3801 10.6002 16.3801 7.78462 16.3801 4.95607C16.3801 4.9431 16.3801 4.91715 16.3801 4.90417C16.3932 4.85227 16.367 4.8393 16.3276 4.8393Z" fill="white"/>
<path d="M14.7671 1.77716C14.4392 2.01071 14.2949 2.34806 14.2949 2.75028C14.308 3.03573 14.3998 3.29523 14.5966 3.50283C14.8326 3.74936 15.1343 3.85316 15.4884 3.84018C16.1179 3.81423 16.5769 3.34713 16.5769 2.72433C16.5769 2.49078 16.5244 2.27021 16.3933 2.07559C16.0392 1.54361 15.2785 1.40089 14.7671 1.77716Z" fill="white"/>
<path d="M31.9082 8.53686C31.8557 8.53686 31.8032 8.52389 31.7508 8.51091C31.5541 8.48496 31.3705 8.45901 31.1737 8.43306C31.1344 8.42009 31.1213 8.44604 31.1082 8.48496C31.095 8.58876 31.0819 8.69256 31.0557 8.79636C31.0426 8.83529 31.0557 8.84826 31.095 8.84826C31.2 8.86124 31.3049 8.88719 31.4229 8.91314C31.5541 8.93909 31.6852 8.96504 31.8032 8.99099C31.8295 8.99099 31.8688 9.00396 31.8688 8.96504C31.895 8.83529 31.9082 8.71851 31.9344 8.58876C31.9475 8.56281 31.9344 8.53686 31.9082 8.53686Z" fill="white"/>
<path d="M31.174 6.79856C31.1477 6.79856 31.1346 6.81153 31.1477 6.83748C31.1608 6.95426 31.1608 7.05806 31.174 7.17483C31.174 7.20078 31.1871 7.21376 31.2133 7.21376C31.2264 7.21376 31.2526 7.21376 31.2658 7.21376C31.4625 7.20078 31.6723 7.18781 31.869 7.18781C31.9871 7.18781 31.9871 7.18781 31.9871 7.04508C31.9871 6.96723 31.974 6.87641 31.9608 6.78558C31.9608 6.73368 31.9477 6.72071 31.8953 6.73368C31.7248 6.74666 31.5543 6.77261 31.3838 6.78558C31.3182 6.78558 31.2526 6.79856 31.174 6.79856Z" fill="white"/>
<path d="M31.9475 7.6287C31.8294 7.6287 31.7114 7.6287 31.5934 7.6287V7.61572C31.4753 7.61572 31.3442 7.61572 31.2262 7.61572C31.1868 7.61572 31.1737 7.6287 31.1606 7.66762C31.1606 7.77142 31.1475 7.87522 31.1475 7.97902C31.1475 8.00497 31.1606 8.01795 31.1868 8.01795C31.1999 8.01795 31.2261 8.01795 31.2393 8.01795C31.4622 8.03092 31.6983 8.0439 31.9212 8.06985C31.9606 8.06985 31.9737 8.06985 31.9737 8.03092C31.9737 7.91415 31.9868 7.79737 31.9868 7.6806C32.013 7.6287 31.9999 7.6287 31.9475 7.6287Z" fill="white"/>
<path d="M31.7246 9.43261C31.4885 9.36773 31.2524 9.31583 31.0164 9.25096C30.977 9.23798 30.9639 9.25096 30.9508 9.28988C30.9246 9.39368 30.8983 9.48451 30.8721 9.58831C30.859 9.62723 30.8721 9.64021 30.9115 9.65318C31.1344 9.71806 31.3574 9.79591 31.5934 9.86078C31.6328 9.87376 31.659 9.86078 31.6721 9.82186C31.6983 9.70508 31.7377 9.60128 31.7639 9.48451C31.7639 9.47153 31.7639 9.47153 31.777 9.45856C31.7639 9.43261 31.7377 9.43261 31.7246 9.43261Z" fill="white"/>
<path d="M31.0296 6.0457C31.0558 6.13652 31.0689 6.22735 31.082 6.31817C31.0951 6.39602 31.0951 6.39602 31.1738 6.38305C31.3181 6.3571 31.4623 6.34412 31.6066 6.31817C31.6984 6.3052 31.8033 6.29222 31.8951 6.26627C31.8689 6.12355 31.8427 5.9938 31.8164 5.86405C31.8164 5.8381 31.7902 5.82512 31.764 5.8381C31.5279 5.89 31.2919 5.9419 31.0558 5.9938C31.0296 5.9938 31.0164 6.00677 31.0296 6.0457Z" fill="white"/>
<path d="M31.436 10.289C31.213 10.2112 30.9901 10.1203 30.7671 10.0295C30.7278 10.0165 30.7147 10.0295 30.7016 10.0555C30.6622 10.1463 30.6229 10.2501 30.5835 10.3409C30.5704 10.3798 30.5835 10.4058 30.6229 10.4188C30.6884 10.4447 30.754 10.4707 30.8196 10.5096C30.977 10.5745 31.1344 10.6523 31.3048 10.7172C31.3573 10.5874 31.4229 10.4577 31.4753 10.3279C31.4885 10.315 31.4622 10.302 31.436 10.289Z" fill="white"/>
<path d="M30.8067 5.24158C30.8329 5.34538 30.8723 5.44918 30.8985 5.55298C30.9116 5.57893 30.9247 5.5919 30.9509 5.57893C30.9903 5.56595 31.0427 5.55298 31.0821 5.54C31.2657 5.4881 31.4362 5.4362 31.6198 5.3843C31.6591 5.37133 31.6854 5.37133 31.6723 5.31943C31.6329 5.20265 31.5936 5.08588 31.5542 4.95613C31.5542 4.94315 31.5411 4.93018 31.528 4.93018C31.5149 4.93018 31.5149 4.93018 31.5018 4.94315C31.2788 5.021 31.069 5.09885 30.846 5.16373C30.8067 5.18968 30.7936 5.20265 30.8067 5.24158Z" fill="white"/>
<path d="M30.3605 10.8205C30.3081 10.9113 30.2687 11.0021 30.2163 11.0929C30.1901 11.1319 30.2032 11.1448 30.2425 11.1708C30.4392 11.2876 30.636 11.4043 30.8196 11.5081C30.8589 11.5341 30.872 11.5211 30.8982 11.4822C30.9507 11.3784 31.0163 11.2876 31.0687 11.1838C31.095 11.1319 31.095 11.1319 31.0425 11.1059C30.8458 11.0021 30.6491 10.8983 30.4523 10.7945C30.4392 10.7815 30.4261 10.7815 30.413 10.7686C30.3868 10.7815 30.3737 10.8075 30.3605 10.8205Z" fill="white"/>
<path d="M30.5179 4.47588C30.5441 4.54076 30.5704 4.59266 30.5966 4.65753C30.6228 4.70943 30.6228 4.77431 30.6622 4.78728C30.7146 4.81323 30.7671 4.76133 30.8064 4.74836C30.9769 4.68348 31.1474 4.60563 31.3179 4.54076C31.3441 4.52778 31.3835 4.52778 31.3572 4.47588C31.3048 4.35911 31.2392 4.24233 31.1867 4.12556C31.1736 4.11258 31.1736 4.09961 31.1474 4.09961H31.1343C30.9376 4.20341 30.7277 4.29423 30.531 4.39803C30.5048 4.43696 30.5048 4.44993 30.5179 4.47588Z" fill="white"/>
<path d="M30.1246 3.73649C30.1902 3.84029 30.2426 3.94409 30.3082 4.06086C30.518 3.94409 30.7147 3.84029 30.9246 3.72351C30.9508 3.71054 30.9508 3.68459 30.9377 3.67161C30.859 3.55484 30.7934 3.45104 30.7147 3.32129C30.6492 3.36021 30.5967 3.39914 30.5443 3.42509C30.4131 3.50294 30.2951 3.58079 30.1639 3.67161C30.1377 3.68459 30.1115 3.69756 30.1246 3.73649Z" fill="white"/>
<path d="M29.6655 3.06169C29.718 3.13954 29.7836 3.21739 29.836 3.29524C29.8754 3.34714 29.8754 3.34714 29.9278 3.30821C30.0721 3.20441 30.2295 3.08764 30.3737 2.98384C30.3868 2.97086 30.4131 2.95789 30.4131 2.93194C30.3344 2.82814 30.2426 2.72434 30.1639 2.62054C30.1377 2.59459 30.1245 2.59459 30.0983 2.62054C29.9541 2.73731 29.8098 2.85409 29.6655 2.97086C29.6393 3.00979 29.6524 3.03574 29.6655 3.06169Z" fill="white"/>
<path d="M29.1281 2.41297C29.2068 2.49082 29.2854 2.58164 29.351 2.65949C29.3641 2.67247 29.3641 2.67247 29.3773 2.68544C29.3904 2.68544 29.3904 2.67247 29.4035 2.67247C29.5477 2.54272 29.6789 2.42594 29.8232 2.29619C29.8494 2.27024 29.8363 2.25727 29.8232 2.24429C29.7313 2.15347 29.6395 2.07562 29.5477 1.98479C29.5215 1.95884 29.5084 1.95884 29.4822 1.98479C29.3641 2.10157 29.2461 2.21834 29.1281 2.34809C29.1018 2.37404 29.1018 2.39999 29.1281 2.41297Z" fill="white"/>
<path d="M28.5116 1.84203C28.6035 1.91988 28.6953 1.99773 28.8002 2.08855C28.9182 1.94583 29.0362 1.81608 29.1543 1.67335C29.1543 1.66038 29.1412 1.66038 29.1412 1.6474C29.0625 1.58253 28.9838 1.53063 28.9051 1.46575C28.8657 1.4398 28.8395 1.40088 28.8002 1.40088C28.7477 1.40088 28.7346 1.46575 28.7084 1.4917C28.6428 1.58253 28.5772 1.66038 28.5116 1.7512C28.4854 1.8031 28.4723 1.81608 28.5116 1.84203Z" fill="white"/>
<path d="M27.8292 1.33582C27.921 1.40069 28.0129 1.46557 28.1047 1.53044C28.1309 1.55639 28.144 1.54342 28.1702 1.51747C28.2358 1.41367 28.3145 1.30987 28.3932 1.19309C28.4194 1.16714 28.4063 1.14119 28.3801 1.12822C28.2751 1.07632 28.1702 1.01144 28.0784 0.946569C28.0653 0.946569 28.0522 0.933594 28.0522 0.933594C28.026 0.933594 28.026 0.946569 28.0129 0.959544C27.9473 1.06334 27.8948 1.16714 27.8292 1.27094C27.803 1.30987 27.803 1.32284 27.8292 1.33582Z" fill="white"/>
<path d="M27.0953 0.921125C27.1871 0.973025 27.292 1.02492 27.3838 1.07682C27.4232 1.10277 27.4363 1.0898 27.4625 1.05087C27.5018 0.96005 27.5543 0.869225 27.6068 0.7784C27.633 0.739475 27.6199 0.7265 27.5805 0.713526C27.4756 0.674601 27.3707 0.622701 27.2658 0.583776C27.2527 0.583776 27.2395 0.570801 27.2395 0.570801C27.2133 0.570801 27.2002 0.583776 27.2002 0.596751C27.1609 0.687576 27.1215 0.765425 27.0822 0.85625C27.0559 0.895175 27.0691 0.90815 27.0953 0.921125Z" fill="white"/>
<path d="M26.308 0.570813C26.413 0.609738 26.5179 0.648663 26.6359 0.700563C26.6621 0.713538 26.6884 0.700563 26.7015 0.674613C26.7277 0.596763 26.7671 0.518913 26.7933 0.441063V0.428088C26.7933 0.402138 26.7802 0.402138 26.7671 0.389163C26.649 0.350238 26.531 0.324289 26.413 0.285364C26.3867 0.272389 26.3736 0.285364 26.3736 0.311314C26.3474 0.376188 26.3343 0.454038 26.308 0.518913C26.2687 0.544863 26.2818 0.557838 26.308 0.570813Z" fill="white"/>
<path d="M25.4817 0.336785C25.5998 0.362735 25.7047 0.388685 25.8227 0.42761C25.8621 0.440585 25.8752 0.42761 25.8752 0.388685C25.8883 0.323811 25.9014 0.258936 25.9276 0.181086C25.7834 0.155136 25.6522 0.129186 25.5211 0.116211C25.4948 0.116211 25.4817 0.116211 25.4686 0.155136C25.4555 0.207036 25.4555 0.245961 25.4424 0.297861C25.4424 0.310836 25.4555 0.323811 25.4817 0.336785Z" fill="white"/>
<path d="M24.6428 0.194345C24.7215 0.20732 24.8133 0.220295 24.892 0.220295C25.0362 0.23327 25.0362 0.23327 25.0493 0.0905452C25.0493 0.0516202 25.0362 0.0386453 24.9969 0.0386453C24.8789 0.0386453 24.7739 0.0256703 24.6559 0.0126953C24.6166 0.0126953 24.6034 0.0126953 24.6034 0.0516202C24.6034 0.0775702 24.6034 0.10352 24.5903 0.142445C24.5903 0.168395 24.6034 0.18137 24.6428 0.194345Z" fill="white"/>
<path d="M23.7769 0.155211C23.8818 0.155211 23.9868 0.155211 24.1048 0.155211C24.1441 0.155211 24.1704 0.142236 24.1704 0.103312C24.1704 0.0903366 24.1704 0.0643866 24.1704 0.0514116C24.1704 0.0254617 24.1572 -0.000488281 24.1179 -0.000488281C24.0654 -0.000488281 23.9999 -0.000488281 23.9474 -0.000488281C23.8949 -0.000488281 23.8425 0.0124867 23.7769 0.0124867C23.7245 0.0124867 23.7113 0.0254617 23.7245 0.0773616C23.7245 0.142236 23.7245 0.155211 23.7769 0.155211Z" fill="white"/>
<path d="M26.6098 5.3066C26.5836 5.31957 26.5574 5.33255 26.5311 5.3585C25.8098 5.8775 25.0885 6.38352 24.3672 6.90252C24.2885 6.95442 24.2229 6.96739 24.1443 6.9155C23.8033 6.72087 23.4754 6.52625 23.1344 6.3446C23.1213 6.3446 23.1213 6.33162 23.1082 6.33162C23.082 6.31865 23.0688 6.31865 23.0557 6.3446C23.0426 6.35757 23.0426 6.38352 23.0557 6.3965C23.0688 6.42245 23.0951 6.4484 23.1082 6.48732C23.4885 7.07119 23.8688 7.64209 24.2492 8.22597C24.2623 8.25192 24.2754 8.26489 24.2885 8.29084C24.3016 8.30382 24.3148 8.31679 24.3279 8.29084C24.341 8.27787 24.341 8.26489 24.3541 8.25192C24.682 7.84969 25.0098 7.43449 25.3377 7.03227C25.7705 6.48732 26.2033 5.94237 26.6361 5.4104C26.6492 5.39742 26.6623 5.38445 26.6623 5.3585C26.6754 5.31957 26.6361 5.29362 26.6098 5.3066Z" fill="white"/>
</g>
<defs>
<clipPath id="clip0_7020_6418">
<rect width="32" height="14" fill="white"/>
</clipPath>
</defs>
</svg>
