<svg width="26" height="28" viewBox="0 0 26 28" fill="none" xmlns="http://www.w3.org/2000/svg">
<g id="Layer_1" clip-path="url(#clip0_14871_11847)">
<path id="Vector" d="M1.67971 9.14194L1.67 9.19049V9.20171C1.48543 10.1623 1.46156 11.1386 1.57866 12.1029C1.32935 12.797 1.13742 13.505 1.00442 14.2211C0.880814 13.839 0.778964 13.449 0.700554 13.0533C0.299285 11.0083 0.50045 8.8992 1.30133 6.9828L1.30134 6.9828L1.30215 6.98084C2.09477 5.06136 3.44082 3.41069 5.16629 2.26673C6.89565 1.12019 8.91979 0.5 11 0.5C13.7879 0.5 16.4606 1.60766 18.4164 3.56355L18.4164 3.56357L18.42 3.56711C18.4487 3.59523 18.4772 3.62354 18.5054 3.65205C17.8052 3.43439 17.0841 3.27348 16.3467 3.17066C15.8159 2.80451 15.2461 2.47011 14.6306 2.21774C12.8999 1.50035 10.99 1.31039 9.14332 1.67943C7.29444 2.03892 5.60545 2.94745 4.27645 4.27645C2.94582 5.60708 2.04884 7.2963 1.67971 9.14194Z" fill="black" stroke="black"/>
<path id="Vector_2" d="M14.4397 27.16C8.66587 27.16 3.96973 22.4638 3.96973 16.69C3.96973 10.9161 8.66587 6.21997 14.4397 6.21997C20.2136 6.21997 24.9097 10.9161 24.9097 16.69C24.9097 16.9638 24.6836 17.19 24.4097 17.19C24.1359 17.19 23.9097 16.9638 23.9097 16.69C23.9097 11.4638 19.6659 7.21997 14.4397 7.21997C9.21322 7.21997 4.96973 11.4742 4.96973 16.69C4.96973 21.9058 9.21322 26.16 14.4397 26.16C14.7136 26.16 14.9397 26.3861 14.9397 26.66C14.9397 26.9338 14.7136 27.16 14.4397 27.16Z" fill="black" stroke="black"/>
<path id="Vector_3" fill-rule="evenodd" clip-rule="evenodd" d="M23.3397 24.1L25.0897 22.35C25.4997 21.94 25.4997 21.26 25.0897 20.85C24.8897 20.65 24.6197 20.54 24.3397 20.54C24.0597 20.54 23.7897 20.65 23.5897 20.85L21.8397 22.6L20.0897 20.85C19.8897 20.65 19.6197 20.54 19.3397 20.54C19.0597 20.54 18.7897 20.65 18.5897 20.85C18.1797 21.26 18.1797 21.94 18.5897 22.35L20.3397 24.1L18.5897 25.85C18.1797 26.26 18.1797 26.94 18.5897 27.35C18.7897 27.55 19.0597 27.66 19.3397 27.66C19.6197 27.66 19.8897 27.55 20.0897 27.35L21.8397 25.6L23.5897 27.35C23.7897 27.55 24.0597 27.66 24.3397 27.66C24.6197 27.66 24.8897 27.55 25.0897 27.35C25.4997 26.94 25.4997 26.26 25.0897 25.85L23.3397 24.1Z" fill="black"/>
<path id="Vector_4" d="M17.4297 11.6899H15.4297V10.6899C15.4297 10.4199 15.3197 10.1699 15.1397 9.97994C14.9497 9.78994 14.6997 9.68994 14.4297 9.68994C14.1597 9.68994 13.9097 9.79994 13.7197 9.97994C13.5297 10.1699 13.4297 10.4199 13.4297 10.6899V11.6899C12.6297 11.6899 11.8697 12.0099 11.3097 12.5699C10.7497 13.1299 10.4297 13.8999 10.4297 14.6899C10.4297 15.4799 10.7497 16.2499 11.3097 16.8099C11.8697 17.3699 12.6397 17.6899 13.4297 17.6899H15.4297C15.6997 17.6899 15.9497 17.7999 16.1397 17.9799C16.3297 18.1599 16.4297 18.4199 16.4297 18.6899C16.4297 18.9599 16.3197 19.2099 16.1397 19.3999C15.9597 19.5899 15.6997 19.6899 15.4297 19.6899H11.4297C11.1597 19.6899 10.9097 19.7999 10.7197 19.9799C10.5297 20.1599 10.4297 20.4199 10.4297 20.6899C10.4297 20.9599 10.5397 21.2099 10.7197 21.3999C10.8997 21.5899 11.1597 21.6899 11.4297 21.6899H13.4297V22.6899C13.4297 22.9599 13.5397 23.2099 13.7197 23.3999C13.8997 23.5899 14.1597 23.6899 14.4297 23.6899C14.6997 23.6899 14.9497 23.5799 15.1397 23.3999C15.3297 23.2199 15.4297 22.9599 15.4297 22.6899V21.6899C16.2297 21.6899 16.9897 21.3699 17.5497 20.8099C18.1097 20.2499 18.4297 19.4799 18.4297 18.6899C18.4297 17.8999 18.1097 17.1299 17.5497 16.5699C16.9897 16.0099 16.2197 15.6899 15.4297 15.6899H13.4297C13.1597 15.6899 12.9097 15.5799 12.7197 15.3999C12.5297 15.2199 12.4297 14.9599 12.4297 14.6899C12.4297 14.4199 12.5397 14.1699 12.7197 13.9799C12.9097 13.7899 13.1597 13.6899 13.4297 13.6899H17.4297C17.6997 13.6899 17.9497 13.5799 18.1397 13.3999C18.3297 13.2099 18.4297 12.9599 18.4297 12.6899C18.4297 12.4199 18.3197 12.1699 18.1397 11.9799C17.9497 11.7899 17.6997 11.6899 17.4297 11.6899Z" fill="black"/>
</g>
<defs>
<clipPath id="clip0_14871_11847">
<rect width="25.4" height="27.66" fill="white"/>
</clipPath>
</defs>
</svg>
