<svg width="24" height="24" viewBox="0 0 24 24" fill="none" xmlns="http://www.w3.org/2000/svg">
<g clip-path="url(#clip0_16696_11617)">
<path d="M23 20.9989V18.9989C22.9993 18.1126 22.7044 17.2517 22.1614 16.5512C21.6184 15.8508 20.8581 15.3505 20 15.1289" stroke="#3CB4E5" stroke-width="2" stroke-linecap="round" stroke-linejoin="round"/>
<path d="M17.001 21V19C17.001 17.9391 16.5795 16.9217 15.8294 16.1716C15.0793 15.4214 14.0618 15 13.001 15H5.00098C3.94011 15 2.92269 15.4214 2.17255 16.1716C1.4224 16.9217 1.00098 17.9391 1.00098 19V21" stroke="#3CB4E5" stroke-width="2" stroke-linecap="round" stroke-linejoin="round"/>
<path d="M16 3.12988C16.8604 3.35018 17.623 3.85058 18.1676 4.55219C18.7122 5.2538 19.0078 6.11671 19.0078 7.00488C19.0078 7.89305 18.7122 8.75596 18.1676 9.45757C17.623 10.1592 16.8604 10.6596 16 10.8799" stroke="#3CB4E5" stroke-width="2" stroke-linecap="round" stroke-linejoin="round"/>
<path d="M9 11C11.2091 11 13 9.20914 13 7C13 4.79086 11.2091 3 9 3C6.79086 3 5 4.79086 5 7C5 9.20914 6.79086 11 9 11Z" stroke="#3CB4E5" stroke-width="2" stroke-linecap="round" stroke-linejoin="round"/>
</g>
<defs>
<clipPath id="clip0_16696_11617">
<rect width="24" height="24" fill="white"/>
</clipPath>
</defs>
</svg>
