<svg width="32" height="32" viewBox="0 0 32 32" fill="none" xmlns="http://www.w3.org/2000/svg">
<path d="M26.2575 13.5382H26.1871V11.8151C26.1871 6.27984 21.7 1.79263 16.1647 1.79263C10.6294 1.79263 6.14221 6.27984 6.14221 11.8151V13.5382H5.72023C4.17289 13.5382 2.97725 14.9097 2.97725 16.4923V20.8881C2.93827 22.4219 4.15014 23.6969 5.68395 23.7358C5.69607 23.7362 5.70812 23.7364 5.72023 23.7365H8.32254C8.69113 23.7192 8.97593 23.4063 8.95856 23.0377C8.95795 23.0244 8.95694 23.0112 8.95553 22.998V14.3822C8.95553 13.9602 8.70937 13.5382 8.32254 13.5382H7.54887V11.815C7.54887 7.05668 11.4063 3.19923 16.1647 3.19923C20.923 3.19923 24.7805 7.05668 24.7805 11.815V13.5382H24.0068C23.6199 13.5382 23.3738 13.9601 23.3738 14.3822V22.998C23.3345 23.3649 23.6002 23.6942 23.9671 23.7334C23.9803 23.7348 23.9935 23.7358 24.0068 23.7364H24.8156L24.7453 23.8419C23.69 25.2443 22.0342 26.0657 20.2791 26.0574C19.8949 24.1734 18.0561 22.9576 16.1721 23.3419C14.561 23.6704 13.3995 25.0814 13.3865 26.7256C13.4057 28.654 14.9746 30.2072 16.9031 30.207C17.8578 30.1916 18.7678 29.7998 19.4351 29.1169C19.8853 28.6558 20.1804 28.0657 20.2791 27.4289C22.4769 27.4372 24.5496 26.4073 25.8706 24.6507L26.5387 23.666C28.0509 23.5606 29.0004 22.6111 29.0004 21.2396V16.8437C29.0004 15.3317 27.8751 13.5382 26.2575 13.5382ZM7.54887 22.3299H5.72023C4.96299 22.3114 4.36405 21.6827 4.3825 20.9254C4.38283 20.913 4.3833 20.9005 4.38391 20.888V16.4922C4.38391 15.6834 4.94656 14.9448 5.72023 14.9448H7.54887V22.3299V22.3299ZM18.4153 28.1323C18.0256 28.5549 17.478 28.7969 16.9032 28.8005C15.759 28.7823 14.8306 27.8693 14.7932 26.7257C14.7927 25.5798 15.7213 24.6505 16.8672 24.65C18.0131 24.6495 18.9424 25.5781 18.9428 26.724C18.9428 26.7245 18.9428 26.7251 18.9428 26.7257C18.9721 27.2478 18.7807 27.7582 18.4153 28.1323ZM27.5938 21.2397C27.5938 22.1892 26.6794 22.3299 26.2575 22.3299H24.7805V14.9449H26.2575C27.0311 14.9449 27.5938 16.0351 27.5938 16.8439V21.2397Z" fill="#090909" stroke="#090909" stroke-width="0.71036"/>
</svg>
