<svg width="124" height="190" viewBox="0 0 124 190" fill="none" xmlns="http://www.w3.org/2000/svg">
<rect width="124" height="190" rx="11.5634" fill="#E53E51"/>
<mask id="mask0_6035_149950" style="mask-type:alpha" maskUnits="userSpaceOnUse" x="0" y="0" width="124" height="190">
<rect width="124" height="190" rx="11.5634" fill="#E53E51"/>
</mask>
<g mask="url(#mask0_6035_149950)">
<g clip-path="url(#clip0_6035_149950)">
<path d="M41.5916 25.3357V31.6916C41.5916 32.2731 41.1159 32.7435 40.5278 32.7435C39.951 32.7435 39.4791 32.2879 39.4641 31.7212V25.3505C39.4641 24.769 38.9884 24.2986 38.4003 24.2986C37.8123 24.2986 37.3366 24.769 37.3366 25.3505V29.5952C37.3366 31.3286 35.9133 32.7361 34.1603 32.7361H34.1304C32.3737 32.7361 30.9541 31.3286 30.9541 29.5952V26.4283C30.9541 25.8468 31.4298 25.3764 32.0179 25.3764C32.5947 25.3764 33.0666 25.832 33.0816 26.3987V29.5803C33.0816 30.1619 33.5573 30.6323 34.1453 30.6323C34.7334 30.6323 35.2091 30.1619 35.2091 29.5803V25.3357C35.2091 23.6022 36.6324 22.1948 38.3854 22.1948H38.4153C40.1683 22.1948 41.5916 23.5985 41.5916 25.3357Z" fill="white"/>
<path d="M27.7664 32.7398C27.1783 32.7398 26.7026 32.2694 26.7026 31.6879V19.0428C26.7026 18.4613 27.1783 17.9909 27.7664 17.9909C28.3544 17.9909 28.8301 18.4613 28.8301 19.0428V31.6879C28.8301 32.2694 28.3544 32.7398 27.7664 32.7398Z" fill="white"/>
<path d="M20.3165 22.1984V19.039C20.3165 18.4575 19.8408 17.9871 19.2527 17.9871C18.6647 17.9871 18.189 18.4575 18.189 19.039V29.621C18.189 31.3433 19.6011 32.7397 21.3428 32.7397H21.4214C23.1631 32.7397 24.5752 31.3433 24.5752 29.621V25.3393C24.5752 23.6059 23.1519 22.1984 21.3989 22.1984H20.3165ZM21.3802 30.6359C20.7922 30.6359 20.3165 30.1655 20.3165 29.584V25.3541C20.3165 24.7726 20.7922 24.3022 21.3802 24.3022C21.9683 24.3022 22.444 24.7726 22.444 25.3541V29.5803C22.444 30.1655 21.9683 30.6359 21.3802 30.6359Z" fill="white"/>
<path d="M50.1314 25.3653L50.1276 23.2615C50.1276 22.68 49.6519 22.2096 49.0639 22.2096C48.4758 22.2096 48.0001 22.68 48.0001 23.2615V25.3653C48.0001 25.9468 47.5244 26.4172 46.9364 26.4172C46.3483 26.4172 45.8726 25.9468 45.8726 25.3653V19.0612C45.8726 18.4797 45.3969 18.0093 44.8089 18.0093C44.2208 18.0093 43.7451 18.4797 43.7451 19.0612V31.6879C43.7451 32.2694 44.2208 32.7398 44.8089 32.7398C45.3969 32.7398 45.8726 32.2694 45.8726 31.6879V29.5803C45.8726 28.9988 46.3483 28.5284 46.9364 28.5284C47.5244 28.5284 48.0001 28.9988 48.0001 29.5803V31.6841C48.0001 32.2657 48.4758 32.7361 49.0639 32.7361C49.6519 32.7361 50.1276 32.2657 50.1276 31.6841L50.1314 29.5803C50.1314 28.7692 49.8205 28.0321 49.3111 27.4728C49.8205 26.9135 50.1314 26.1764 50.1314 25.3653Z" fill="white"/>
<path d="M32.0139 24.2989C31.4259 24.2989 30.9502 23.8284 30.9502 23.2468C30.9502 22.6652 31.4259 22.1948 32.0139 22.1948C32.602 22.1948 33.0777 22.6652 33.0777 23.2468C33.0814 23.8284 32.602 24.2989 32.0139 24.2989Z" fill="black"/>
</g>
<path d="M56.7762 111.381L56.7637 126.422C56.6258 130.786 54.6572 134.68 51.5853 137.395C48.8519 139.801 45.2408 141.264 41.2912 141.264H41.0279C38.6456 141.264 36.3761 140.73 34.3574 139.788C29.0787 137.308 25.4301 132.001 25.4301 125.839V105.008C25.4301 102.156 23.0979 99.8498 20.214 99.8498C17.3302 99.8498 14.998 102.156 14.998 105.008L14.9855 126.422C14.8601 130.786 12.879 134.68 9.80711 137.395C7.07372 139.801 3.46264 141.264 -0.486976 141.264H-0.750284C-9.36421 141.264 -16.3481 134.357 -16.3481 125.839V94.6792C-16.3481 91.8274 -14.0035 89.5087 -11.1196 89.5087C-8.28591 89.5087 -5.97883 91.753 -5.89106 94.5304V125.752C-5.89106 128.604 -3.5589 130.91 -0.675053 130.91C2.2088 130.91 4.54095 128.604 4.54095 125.752L4.55349 104.338C4.69141 99.9737 6.65995 96.0803 9.73188 93.3649C12.4653 90.9594 16.0763 89.4963 20.026 89.4963H20.2893C22.6841 89.4963 24.9661 90.0294 26.9974 90.9966C32.251 93.4765 35.8871 98.7834 35.8871 104.921V125.752C35.8871 128.604 38.2193 130.91 41.1031 130.91C43.987 130.91 46.3191 128.604 46.3191 125.752V111.369H56.7762V111.381Z" fill="white"/>
<path d="M124.221 130.898V141.251C121.964 141.202 119.832 140.681 117.926 139.776C112.648 137.308 108.999 131.989 108.999 125.826V104.995C108.999 102.144 106.667 99.8373 103.783 99.8373C100.899 99.8373 98.567 102.144 98.567 104.995L98.5544 126.409C98.4291 130.774 96.448 134.667 93.376 137.383C90.6427 139.788 87.0441 141.251 83.082 141.251H82.8187C80.4363 141.251 78.1794 140.718 76.1482 139.776C70.9071 137.321 67.2709 132.063 67.2208 125.963V104.995C67.2208 102.144 64.8886 99.8373 62.0048 99.8373C59.1209 99.8373 56.7888 102.144 56.7888 104.995V111.369H46.3442V104.338C46.4696 99.9737 48.4507 96.0803 51.5226 93.3648C54.256 90.9593 57.8671 89.4962 61.8167 89.4962H62.08C64.4749 89.4962 66.7569 90.0294 68.7881 90.9965C74.0041 93.464 77.6277 98.6965 77.6779 104.785V125.752C77.6779 128.604 80.01 130.91 82.8939 130.91C85.7777 130.91 88.1099 128.604 88.1099 125.752L88.1224 104.338C88.2478 99.9737 90.2289 96.0803 93.3008 93.3648C96.0342 90.9593 99.6453 89.4962 103.595 89.4962H103.858C106.266 89.4962 108.535 90.0294 110.566 90.9965C115.807 93.4888 119.444 98.7833 119.444 104.933V125.764C119.444 128.455 121.55 130.675 124.221 130.898Z" fill="#010202"/>
<path d="M56.7759 111.344C56.7759 114.195 54.4312 116.514 51.5474 116.514C48.6635 116.514 46.3188 114.195 46.3188 111.344C46.3188 108.492 48.6635 106.173 51.5474 106.173C54.4312 106.185 56.7759 108.492 56.7759 111.344Z" fill="#E53E51"/>
</g>
<path d="M98.0205 179.962H98.9502C99.294 179.962 99.5614 180.05 99.727 180.214C99.9053 180.378 99.9944 180.604 99.9944 180.882C99.9944 181.184 99.8926 181.423 99.7015 181.587C99.5105 181.751 99.2176 181.839 98.8356 181.839H98.4408V182.897C98.4408 183.023 98.3771 183.086 98.237 183.086H98.0205V179.962ZM98.861 181.473C99.103 181.473 99.2813 181.423 99.3959 181.322C99.5105 181.222 99.5614 181.083 99.5614 180.882C99.5614 180.693 99.5105 180.554 99.4086 180.453C99.3067 180.365 99.1412 180.315 98.912 180.315H98.4408V181.461H98.861V181.473Z" fill="white"/>
<path d="M100.428 179.962H100.835V182.884C100.835 182.934 100.823 182.985 100.784 183.023C100.746 183.06 100.708 183.073 100.644 183.073H100.44V179.962H100.428Z" fill="white"/>
<path d="M102.936 183.123C102.873 183.085 102.822 183.048 102.796 183.01C102.758 182.96 102.733 182.897 102.707 182.808C102.643 182.897 102.567 182.972 102.452 183.035C102.338 183.098 102.236 183.123 102.109 183.123C101.892 183.123 101.727 183.06 101.599 182.934C101.472 182.808 101.408 182.632 101.408 182.418C101.408 182.216 101.485 182.053 101.625 181.939C101.765 181.826 101.969 181.776 102.223 181.776C102.376 181.776 102.529 181.788 102.669 181.826V181.599C102.669 181.461 102.631 181.373 102.567 181.297C102.503 181.234 102.389 181.196 102.236 181.196C102.121 181.196 102.007 181.209 101.918 181.234C101.828 181.259 101.727 181.297 101.637 181.36L101.536 181.108C101.714 180.932 101.969 180.844 102.274 180.844C102.542 180.844 102.745 180.907 102.885 181.045C103.026 181.184 103.089 181.36 103.089 181.599V182.582C103.089 182.67 103.102 182.745 103.115 182.796C103.127 182.859 103.166 182.909 103.217 182.972L102.936 183.123ZM102.236 182.078C102.083 182.078 101.981 182.103 101.905 182.166C101.841 182.216 101.803 182.305 101.803 182.418C101.803 182.519 101.828 182.607 101.892 182.67C101.956 182.733 102.045 182.771 102.16 182.771C102.249 182.771 102.338 182.745 102.427 182.682C102.516 182.632 102.593 182.557 102.656 182.481V182.116C102.516 182.09 102.376 182.078 102.236 182.078Z" fill="white"/>
<path d="M104.579 182.758C104.643 182.758 104.707 182.758 104.745 182.745C104.783 182.733 104.847 182.708 104.898 182.682L105.012 182.947C104.898 183.073 104.745 183.123 104.528 183.123C104.325 183.123 104.159 183.073 104.057 182.96C103.943 182.846 103.892 182.682 103.892 182.456V181.221H103.535V180.944L103.892 180.881V180.214H104.299V180.881H104.872V181.221H104.299V182.431C104.299 182.645 104.388 182.758 104.579 182.758Z" fill="white"/>
<path d="M105.955 180.29C105.904 180.34 105.84 180.365 105.763 180.365C105.687 180.365 105.623 180.34 105.572 180.29C105.522 180.239 105.509 180.176 105.509 180.113C105.509 180.038 105.534 179.975 105.572 179.924C105.611 179.874 105.674 179.861 105.763 179.861C105.853 179.861 105.916 179.887 105.955 179.924C106.005 179.975 106.018 180.025 106.018 180.113C106.018 180.189 105.993 180.239 105.955 180.29ZM105.955 180.882V182.897C105.955 182.947 105.942 182.997 105.904 183.035C105.865 183.073 105.814 183.086 105.763 183.086H105.547V180.882H105.955Z" fill="white"/>
<path d="M107.012 180.881L107.075 181.159C107.203 181.058 107.33 180.982 107.47 180.919C107.61 180.869 107.738 180.831 107.852 180.831C108.043 180.831 108.196 180.894 108.311 181.007C108.413 181.133 108.476 181.297 108.476 181.511V182.884C108.476 182.934 108.464 182.985 108.425 183.023C108.387 183.06 108.349 183.073 108.285 183.073H108.069V181.536C108.069 181.423 108.043 181.335 107.992 181.272C107.941 181.209 107.865 181.184 107.776 181.184C107.61 181.184 107.381 181.272 107.101 181.436V182.871C107.101 182.922 107.088 182.972 107.05 183.01C107.012 183.048 106.974 183.06 106.91 183.06H106.693V180.856H107.012V180.881Z" fill="white"/>
<path d="M110.654 183.123C110.603 183.098 110.552 183.06 110.514 183.01C110.476 182.96 110.437 182.897 110.412 182.808C110.272 182.909 110.144 182.997 110.03 183.048C109.915 183.098 109.788 183.123 109.686 183.123C109.495 183.123 109.342 183.06 109.228 182.947C109.113 182.834 109.062 182.657 109.062 182.443V180.881H109.47V182.418C109.47 182.531 109.495 182.619 109.546 182.682C109.597 182.745 109.661 182.771 109.75 182.771C109.852 182.771 109.953 182.745 110.055 182.708C110.157 182.67 110.272 182.607 110.386 182.519V180.894H110.794V182.582C110.794 182.657 110.807 182.72 110.819 182.783C110.845 182.846 110.87 182.909 110.909 182.985L110.654 183.123Z" fill="white"/>
<path d="M111.749 180.881L111.813 181.158C111.889 181.083 111.991 181.02 112.118 180.944C112.246 180.869 112.373 180.844 112.488 180.844C112.742 180.844 112.921 180.944 113.022 181.158C113.264 180.957 113.519 180.844 113.761 180.844C113.952 180.844 114.105 180.907 114.22 181.02C114.334 181.133 114.385 181.322 114.385 181.574V182.909C114.385 182.96 114.372 183.01 114.334 183.048C114.296 183.085 114.245 183.098 114.181 183.098H113.978V181.511C113.978 181.423 113.952 181.347 113.914 181.297C113.863 181.247 113.812 181.221 113.736 181.221C113.557 181.221 113.354 181.297 113.124 181.436V182.909C113.124 182.96 113.112 183.01 113.073 183.048C113.035 183.085 112.997 183.098 112.933 183.098H112.717V181.511C112.717 181.423 112.691 181.347 112.653 181.297C112.602 181.247 112.551 181.209 112.475 181.209C112.386 181.209 112.284 181.234 112.195 181.272C112.093 181.31 111.991 181.373 111.864 181.461V182.897C111.864 182.947 111.851 182.997 111.813 183.035C111.774 183.073 111.736 183.086 111.673 183.086H111.456V180.881H111.749V180.881Z" fill="white"/>
<path d="M96.3396 168.918L92.4809 178.035H89.9594L88.0619 170.756C87.9472 170.303 87.8454 170.139 87.4888 169.95C86.9157 169.648 85.9733 169.359 85.1328 169.17L85.1838 168.905H89.2462C89.7683 168.905 90.2268 169.245 90.3414 169.837L91.3475 175.114L93.8308 168.905H96.3396V168.918ZM106.209 175.063C106.222 172.658 102.847 172.519 102.873 171.449C102.885 171.122 103.191 170.769 103.879 170.681C104.223 170.63 105.165 170.605 106.235 171.084L106.655 169.157C106.082 168.956 105.343 168.754 104.426 168.754C102.07 168.754 100.415 169.988 100.402 171.764C100.389 173.074 101.586 173.804 102.491 174.245C103.42 174.686 103.726 174.975 103.726 175.378C103.713 175.995 102.987 176.26 102.3 176.272C101.102 176.297 100.402 175.957 99.8545 175.693L99.4215 177.695C99.9818 177.947 101.001 178.174 102.07 178.174C104.566 178.186 106.196 176.952 106.209 175.063ZM112.437 178.035H114.64L112.717 168.918H110.679C110.221 168.918 109.839 169.182 109.66 169.585L106.082 178.035H108.591L109.087 176.675H112.144L112.437 178.035ZM109.775 174.811L111.036 171.386L111.762 174.811H109.775ZM99.7399 168.918L97.7659 178.035H95.3845L97.3584 168.918H99.7399Z" fill="white"/>
<path d="M81.9358 25.1831C82.1013 25.4098 82.2414 25.6617 82.3305 25.9388C82.4197 26.2158 82.4706 26.5055 82.4706 26.8078C82.4706 27.1101 82.4197 27.3998 82.3305 27.6769C82.2414 27.9539 82.1013 28.2058 81.9358 28.4325C81.7065 28.7474 81.7702 29.1756 82.0886 29.415C82.407 29.6417 82.8399 29.5787 83.0819 29.2764C83.3366 28.9363 83.5404 28.5459 83.6805 28.1303C83.8205 27.7146 83.8969 27.2738 83.8969 26.8204C83.8969 26.3544 83.8205 25.9136 83.6805 25.4979C83.5404 25.0823 83.3366 24.7045 83.0819 24.3518C82.8527 24.0369 82.407 23.9739 82.0886 24.2132C81.7702 24.44 81.7065 24.8682 81.9358 25.1831Z" fill="white"/>
<path d="M84.3559 23.8732C84.8908 24.7296 85.1964 25.7244 85.1964 26.8074C85.1964 27.8779 84.8908 28.8853 84.3559 29.7291C84.1521 30.0565 84.254 30.4847 84.5851 30.6862C84.9162 30.8877 85.3492 30.7869 85.553 30.4595C86.2152 29.4017 86.5972 28.1423 86.5972 26.7949C86.5972 25.46 86.2152 24.2006 85.553 23.1302C85.3492 22.8028 84.9162 22.702 84.5851 22.9035C84.254 23.1176 84.1521 23.5458 84.3559 23.8732Z" fill="white"/>
<path d="M86.9281 22.5512C87.6667 23.7979 88.087 25.2461 88.087 26.8077C88.087 28.3566 87.6667 29.8175 86.9281 31.0642C86.7371 31.3916 86.8389 31.8198 87.1828 32.0213C87.5139 32.2228 87.9469 32.1094 88.1506 31.7694C89.0166 30.3086 89.5006 28.6211 89.5006 26.8077C89.5006 25.0068 89.0039 23.3067 88.1506 21.8459C87.9596 21.5185 87.5266 21.4052 87.1828 21.5941C86.8389 21.7956 86.7243 22.2237 86.9281 22.5512Z" fill="white"/>
<path d="M89.488 21.216C90.4431 22.8658 90.978 24.7673 90.978 26.8074C90.978 28.8475 90.4431 30.7491 89.488 32.3988C89.297 32.7389 89.4116 33.1544 89.7555 33.3559C90.0993 33.5448 90.5323 33.4315 90.7233 33.0915C91.7931 31.2403 92.4043 29.0994 92.4043 26.82C92.4043 24.5407 91.7931 22.3872 90.7233 20.536C90.5323 20.196 90.0993 20.0826 89.7555 20.2715C89.4116 20.4604 89.297 20.8886 89.488 21.216Z" fill="white"/>
<defs>
<clipPath id="clip0_6035_149950">
<rect width="31.9424" height="14.7563" fill="white" transform="translate(18.189 17.9871)"/>
</clipPath>
</defs>
</svg>
