<svg fill="none" height="226" viewBox="0 0 160 226" width="160" xmlns="http://www.w3.org/2000/svg">
    <g filter="url(#filter0_d_6347_142871)">
        <g filter="url(#filter1_d_6347_142871)">
            <rect fill="#E53E51" height="190" rx="11.5634" width="124" x="18" y="10" />
        </g>
        <mask style="mask-type:alpha" height="190" id="mask0_6347_142871" maskUnits="userSpaceOnUse"
            width="124" x="18" y="10">
            <rect fill="#E53E51" height="190" rx="11.5634" width="124" x="18" y="10" />
        </mask>
        <g mask="url(#mask0_6347_142871)">
            <g clip-path="url(#clip0_6347_142871)">
                <path
                    d="M59.5916 35.3357V41.6916C59.5916 42.2731 59.1159 42.7435 58.5278 42.7435C57.951 42.7435 57.4791 42.2879 57.4641 41.7212V35.3505C57.4641 34.769 56.9884 34.2986 56.4003 34.2986C55.8123 34.2986 55.3366 34.769 55.3366 35.3505V39.5952C55.3366 41.3286 53.9133 42.7361 52.1603 42.7361H52.1304C50.3737 42.7361 48.9541 41.3286 48.9541 39.5952V36.4283C48.9541 35.8468 49.4298 35.3764 50.0179 35.3764C50.5947 35.3764 51.0666 35.832 51.0816 36.3987V39.5803C51.0816 40.1619 51.5573 40.6323 52.1453 40.6323C52.7334 40.6323 53.2091 40.1619 53.2091 39.5803V35.3357C53.2091 33.6022 54.6324 32.1948 56.3854 32.1948H56.4153C58.1683 32.1948 59.5916 33.5985 59.5916 35.3357Z"
                    fill="white" />
                <path
                    d="M45.7664 42.7398C45.1783 42.7398 44.7026 42.2694 44.7026 41.6879V29.0428C44.7026 28.4613 45.1783 27.9909 45.7664 27.9909C46.3544 27.9909 46.8301 28.4613 46.8301 29.0428V41.6879C46.8301 42.2694 46.3544 42.7398 45.7664 42.7398Z"
                    fill="white" />
                <path
                    d="M38.3165 32.1984V29.039C38.3165 28.4575 37.8408 27.9871 37.2527 27.9871C36.6647 27.9871 36.189 28.4575 36.189 29.039V39.621C36.189 41.3433 37.6011 42.7397 39.3428 42.7397H39.4214C41.1631 42.7397 42.5752 41.3433 42.5752 39.621V35.3393C42.5752 33.6059 41.1519 32.1984 39.3989 32.1984H38.3165ZM39.3802 40.6359C38.7922 40.6359 38.3165 40.1655 38.3165 39.584V35.3541C38.3165 34.7726 38.7922 34.3022 39.3802 34.3022C39.9683 34.3022 40.444 34.7726 40.444 35.3541V39.5803C40.444 40.1655 39.9683 40.6359 39.3802 40.6359Z"
                    fill="white" />
                <path
                    d="M68.1314 35.3653L68.1276 33.2615C68.1276 32.68 67.6519 32.2096 67.0639 32.2096C66.4758 32.2096 66.0001 32.68 66.0001 33.2615V35.3653C66.0001 35.9468 65.5244 36.4172 64.9364 36.4172C64.3483 36.4172 63.8726 35.9468 63.8726 35.3653V29.0612C63.8726 28.4797 63.3969 28.0093 62.8089 28.0093C62.2208 28.0093 61.7451 28.4797 61.7451 29.0612V41.6878C61.7451 42.2694 62.2208 42.7398 62.8089 42.7398C63.3969 42.7398 63.8726 42.2694 63.8726 41.6878V39.5803C63.8726 38.9988 64.3483 38.5284 64.9364 38.5284C65.5244 38.5284 66.0001 38.9988 66.0001 39.5803V41.6841C66.0001 42.2657 66.4758 42.7361 67.0639 42.7361C67.6519 42.7361 68.1276 42.2657 68.1276 41.6841L68.1314 39.5803C68.1314 38.7692 67.8205 38.0321 67.3111 37.4728C67.8205 36.9135 68.1314 36.1764 68.1314 35.3653Z"
                    fill="white" />
                <path
                    d="M50.0139 34.2989C49.4259 34.2989 48.9502 33.8284 48.9502 33.2468C48.9502 32.6652 49.4259 32.1948 50.0139 32.1948C50.602 32.1948 51.0777 32.6652 51.0777 33.2468C51.0814 33.8284 50.602 34.2989 50.0139 34.2989Z"
                    fill="black" />
            </g>
            <path
                d="M74.7762 121.381L74.7637 136.422C74.6258 140.786 72.6572 144.68 69.5853 147.395C66.8519 149.801 63.2408 151.264 59.2912 151.264H59.0279C56.6456 151.264 54.3761 150.73 52.3574 149.788C47.0787 147.308 43.43 142.001 43.43 135.839V115.008C43.43 112.156 41.0979 109.85 38.214 109.85C35.3302 109.85 32.998 112.156 32.998 115.008L32.9855 136.422C32.8601 140.786 30.879 144.68 27.8071 147.395C25.0737 149.801 21.4626 151.264 17.513 151.264H17.2497C8.63579 151.264 1.65186 144.357 1.65186 135.839V104.679C1.65186 101.827 3.99655 99.5087 6.8804 99.5087C9.71409 99.5087 12.0212 101.753 12.1089 104.53V135.752C12.1089 138.604 14.4411 140.91 17.3249 140.91C20.2088 140.91 22.541 138.604 22.541 135.752L22.5535 114.338C22.6914 109.974 24.66 106.08 27.7319 103.365C30.4653 100.959 34.0763 99.4963 38.026 99.4963H38.2893C40.6841 99.4963 42.9661 100.029 44.9974 100.997C50.251 103.476 53.8871 108.783 53.8871 114.921V135.752C53.8871 138.604 56.2193 140.91 59.1031 140.91C61.987 140.91 64.3191 138.604 64.3191 135.752V121.369H74.7762V121.381Z"
                fill="white" />
            <path
                d="M142.221 140.898V151.251C139.964 151.202 137.832 150.681 135.926 149.776C130.648 147.308 126.999 141.989 126.999 135.826V114.995C126.999 112.144 124.667 109.837 121.783 109.837C118.899 109.837 116.567 112.144 116.567 114.995L116.554 136.409C116.429 140.774 114.448 144.667 111.376 147.383C108.643 149.788 105.044 151.251 101.082 151.251H100.819C98.4363 151.251 96.1794 150.718 94.1482 149.776C88.9071 147.321 85.2709 142.063 85.2208 135.963V114.995C85.2208 112.144 82.8886 109.837 80.0048 109.837C77.1209 109.837 74.7888 112.144 74.7888 114.995V121.369H64.3442V114.338C64.4696 109.974 66.4507 106.08 69.5226 103.365C72.256 100.959 75.8671 99.4962 79.8167 99.4962H80.08C82.4749 99.4962 84.7569 100.029 86.7881 100.997C92.0041 103.464 95.6277 108.697 95.6779 114.785V135.752C95.6779 138.604 98.01 140.91 100.894 140.91C103.778 140.91 106.11 138.604 106.11 135.752L106.122 114.338C106.248 109.974 108.229 106.08 111.301 103.365C114.034 100.959 117.645 99.4962 121.595 99.4962H121.858C124.266 99.4962 126.535 100.029 128.566 100.997C133.807 103.489 137.444 108.783 137.444 114.933V135.764C137.444 138.455 139.55 140.675 142.221 140.898Z"
                fill="#010202" />
            <path
                d="M74.7759 121.344C74.7759 124.195 72.4312 126.514 69.5474 126.514C66.6635 126.514 64.3188 124.195 64.3188 121.344C64.3188 118.492 66.6635 116.173 69.5474 116.173C72.4312 116.185 74.7759 118.492 74.7759 121.344Z"
                fill="#E53E51" />
        </g>
        <path
            d="M116.021 189.962H116.95C117.294 189.962 117.561 190.05 117.727 190.214C117.905 190.378 117.994 190.604 117.994 190.881C117.994 191.184 117.893 191.423 117.702 191.587C117.511 191.751 117.218 191.839 116.836 191.839H116.441V192.897C116.441 193.023 116.377 193.086 116.237 193.086H116.021V189.962ZM116.861 191.473C117.103 191.473 117.281 191.423 117.396 191.322C117.511 191.222 117.561 191.083 117.561 190.881C117.561 190.693 117.511 190.554 117.409 190.453C117.307 190.365 117.141 190.315 116.912 190.315H116.441V191.461H116.861V191.473Z"
            fill="white" />
        <path
            d="M118.428 189.962H118.835V192.884C118.835 192.934 118.823 192.985 118.784 193.023C118.746 193.06 118.708 193.073 118.644 193.073H118.44V189.962H118.428Z"
            fill="white" />
        <path
            d="M120.936 193.123C120.873 193.086 120.822 193.048 120.796 193.01C120.758 192.96 120.733 192.897 120.707 192.808C120.643 192.897 120.567 192.972 120.452 193.035C120.338 193.098 120.236 193.123 120.109 193.123C119.892 193.123 119.727 193.06 119.599 192.934C119.472 192.808 119.408 192.632 119.408 192.418C119.408 192.216 119.485 192.053 119.625 191.939C119.765 191.826 119.969 191.776 120.223 191.776C120.376 191.776 120.529 191.788 120.669 191.826V191.599C120.669 191.461 120.631 191.373 120.567 191.297C120.503 191.234 120.389 191.196 120.236 191.196C120.121 191.196 120.007 191.209 119.918 191.234C119.828 191.259 119.727 191.297 119.637 191.36L119.536 191.108C119.714 190.932 119.969 190.844 120.274 190.844C120.542 190.844 120.745 190.907 120.885 191.045C121.026 191.184 121.089 191.36 121.089 191.599V192.582C121.089 192.67 121.102 192.745 121.115 192.796C121.127 192.859 121.166 192.909 121.217 192.972L120.936 193.123ZM120.236 192.078C120.083 192.078 119.981 192.103 119.905 192.166C119.841 192.216 119.803 192.305 119.803 192.418C119.803 192.519 119.828 192.607 119.892 192.67C119.956 192.733 120.045 192.771 120.16 192.771C120.249 192.771 120.338 192.745 120.427 192.682C120.516 192.632 120.593 192.557 120.656 192.481V192.116C120.516 192.091 120.376 192.078 120.236 192.078Z"
            fill="white" />
        <path
            d="M122.579 192.758C122.643 192.758 122.707 192.758 122.745 192.745C122.783 192.733 122.847 192.708 122.898 192.682L123.012 192.947C122.898 193.073 122.745 193.123 122.528 193.123C122.325 193.123 122.159 193.073 122.057 192.96C121.943 192.846 121.892 192.682 121.892 192.456V191.221H121.535V190.944L121.892 190.881V190.214H122.299V190.881H122.872V191.221H122.299V192.431C122.299 192.645 122.388 192.758 122.579 192.758Z"
            fill="white" />
        <path
            d="M123.955 190.29C123.904 190.34 123.84 190.365 123.763 190.365C123.687 190.365 123.623 190.34 123.572 190.29C123.522 190.239 123.509 190.176 123.509 190.113C123.509 190.038 123.534 189.975 123.572 189.924C123.611 189.874 123.674 189.861 123.763 189.861C123.853 189.861 123.916 189.887 123.955 189.924C124.005 189.975 124.018 190.025 124.018 190.113C124.018 190.189 123.993 190.239 123.955 190.29ZM123.955 190.882V192.897C123.955 192.947 123.942 192.997 123.904 193.035C123.865 193.073 123.814 193.086 123.763 193.086H123.547V190.882H123.955Z"
            fill="white" />
        <path
            d="M125.012 190.881L125.075 191.159C125.203 191.058 125.33 190.982 125.47 190.919C125.61 190.869 125.738 190.831 125.852 190.831C126.043 190.831 126.196 190.894 126.311 191.007C126.413 191.133 126.476 191.297 126.476 191.511V192.884C126.476 192.934 126.464 192.985 126.425 193.023C126.387 193.06 126.349 193.073 126.285 193.073H126.069V191.536C126.069 191.423 126.043 191.335 125.992 191.272C125.941 191.209 125.865 191.184 125.776 191.184C125.61 191.184 125.381 191.272 125.101 191.436V192.871C125.101 192.922 125.088 192.972 125.05 193.01C125.012 193.048 124.974 193.06 124.91 193.06H124.693V190.856H125.012V190.881Z"
            fill="white" />
        <path
            d="M128.654 193.123C128.603 193.098 128.552 193.06 128.514 193.01C128.476 192.96 128.437 192.897 128.412 192.808C128.272 192.909 128.144 192.997 128.03 193.048C127.915 193.098 127.788 193.123 127.686 193.123C127.495 193.123 127.342 193.06 127.228 192.947C127.113 192.834 127.062 192.657 127.062 192.443V190.881H127.47V192.418C127.47 192.531 127.495 192.619 127.546 192.682C127.597 192.745 127.661 192.771 127.75 192.771C127.852 192.771 127.953 192.745 128.055 192.708C128.157 192.67 128.272 192.607 128.386 192.519V190.894H128.794V192.582C128.794 192.657 128.807 192.72 128.819 192.783C128.845 192.846 128.87 192.909 128.909 192.985L128.654 193.123Z"
            fill="white" />
        <path
            d="M129.749 190.881L129.813 191.159C129.889 191.083 129.991 191.02 130.118 190.944C130.246 190.869 130.373 190.844 130.488 190.844C130.742 190.844 130.921 190.944 131.022 191.159C131.264 190.957 131.519 190.844 131.761 190.844C131.952 190.844 132.105 190.907 132.22 191.02C132.334 191.133 132.385 191.322 132.385 191.574V192.909C132.385 192.96 132.372 193.01 132.334 193.048C132.296 193.086 132.245 193.098 132.181 193.098H131.978V191.511C131.978 191.423 131.952 191.347 131.914 191.297C131.863 191.247 131.812 191.221 131.736 191.221C131.557 191.221 131.354 191.297 131.124 191.436V192.909C131.124 192.96 131.112 193.01 131.073 193.048C131.035 193.086 130.997 193.098 130.933 193.098H130.717V191.511C130.717 191.423 130.691 191.347 130.653 191.297C130.602 191.247 130.551 191.209 130.475 191.209C130.386 191.209 130.284 191.234 130.195 191.272C130.093 191.31 129.991 191.373 129.864 191.461V192.897C129.864 192.947 129.851 192.997 129.813 193.035C129.774 193.073 129.736 193.086 129.673 193.086H129.456V190.881H129.749Z"
            fill="white" />
        <path
            d="M114.34 178.918L110.481 188.035H107.959L106.062 180.756C105.947 180.303 105.845 180.139 105.489 179.95C104.916 179.648 103.973 179.359 103.133 179.17L103.184 178.905H107.246C107.768 178.905 108.227 179.245 108.341 179.837L109.347 185.114L111.831 178.905H114.34V178.918ZM124.209 185.063C124.222 182.658 120.847 182.519 120.873 181.449C120.885 181.122 121.191 180.769 121.879 180.681C122.223 180.63 123.165 180.605 124.235 181.084L124.655 179.157C124.082 178.956 123.343 178.754 122.426 178.754C120.07 178.754 118.415 179.988 118.402 181.764C118.389 183.074 119.586 183.804 120.491 184.245C121.42 184.686 121.726 184.975 121.726 185.378C121.713 185.995 120.987 186.26 120.3 186.272C119.102 186.297 118.402 185.957 117.854 185.693L117.421 187.695C117.982 187.947 119.001 188.174 120.07 188.174C122.566 188.186 124.196 186.952 124.209 185.063ZM130.437 188.035H132.64L130.717 178.918H128.679C128.221 178.918 127.839 179.182 127.66 179.585L124.082 188.035H126.591L127.087 186.675H130.144L130.437 188.035ZM127.775 184.811L129.036 181.386L129.762 184.811H127.775ZM117.74 178.918L115.766 188.035H113.384L115.358 178.918H117.74Z"
            fill="white" />
        <path
            d="M99.9358 35.1831C100.101 35.4098 100.241 35.6617 100.331 35.9388C100.42 36.2158 100.471 36.5055 100.471 36.8078C100.471 37.1101 100.42 37.3998 100.331 37.6769C100.241 37.9539 100.101 38.2058 99.9358 38.4325C99.7065 38.7474 99.7702 39.1756 100.089 39.415C100.407 39.6417 100.84 39.5787 101.082 39.2764C101.337 38.9363 101.54 38.5459 101.68 38.1303C101.821 37.7146 101.897 37.2738 101.897 36.8204C101.897 36.3544 101.821 35.9136 101.68 35.4979C101.54 35.0823 101.337 34.7045 101.082 34.3518C100.853 34.0369 100.407 33.9739 100.089 34.2132C99.7702 34.44 99.7065 34.8682 99.9358 35.1831Z"
            fill="white" />
        <path
            d="M102.356 33.8732C102.891 34.7296 103.196 35.7244 103.196 36.8074C103.196 37.8779 102.891 38.8853 102.356 39.7291C102.152 40.0565 102.254 40.4847 102.585 40.6862C102.916 40.8877 103.349 40.7869 103.553 40.4595C104.215 39.4017 104.597 38.1423 104.597 36.7949C104.597 35.46 104.215 34.2006 103.553 33.1302C103.349 32.8028 102.916 32.702 102.585 32.9035C102.254 33.1176 102.152 33.5458 102.356 33.8732Z"
            fill="white" />
        <path
            d="M104.928 32.5512C105.667 33.7979 106.087 35.2461 106.087 36.8077C106.087 38.3566 105.667 39.8175 104.928 41.0642C104.737 41.3916 104.839 41.8198 105.183 42.0213C105.514 42.2228 105.947 42.1094 106.151 41.7694C107.017 40.3086 107.501 38.6211 107.501 36.8077C107.501 35.0068 107.004 33.3067 106.151 31.8459C105.96 31.5185 105.527 31.4052 105.183 31.5941C104.839 31.7956 104.724 32.2237 104.928 32.5512Z"
            fill="white" />
        <path
            d="M107.488 31.216C108.443 32.8658 108.978 34.7673 108.978 36.8074C108.978 38.8475 108.443 40.7491 107.488 42.3988C107.297 42.7389 107.412 43.1544 107.755 43.3559C108.099 43.5448 108.532 43.4315 108.723 43.0915C109.793 41.2403 110.404 39.0994 110.404 36.82C110.404 34.5407 109.793 32.3872 108.723 30.536C108.532 30.196 108.099 30.0826 107.755 30.2715C107.412 30.4604 107.297 30.8886 107.488 31.216Z"
            fill="white" />
    </g>
    <defs>
        <filter color-interpolation-filters="sRGB" filterUnits="userSpaceOnUse" height="222"
            id="filter0_d_6347_142871" width="156" x="2" y="2">
            <feFlood flood-opacity="0" result="BackgroundImageFix" />
            <feColorMatrix in="SourceAlpha" result="hardAlpha" type="matrix"
                values="0 0 0 0 0 0 0 0 0 0 0 0 0 0 0 0 0 0 127 0" />
            <feOffset dy="8" />
            <feGaussianBlur stdDeviation="8" />
            <feComposite in2="hardAlpha" operator="out" />
            <feColorMatrix type="matrix" values="0 0 0 0 0 0 0 0 0 0 0 0 0 0 0 0 0 0 0.08 0" />
            <feBlend in2="BackgroundImageFix" mode="normal"
                result="effect1_dropShadow_6347_142871" />
            <feBlend in="SourceGraphic" in2="effect1_dropShadow_6347_142871" mode="normal"
                result="shape" />
        </filter>
        <filter color-interpolation-filters="sRGB" filterUnits="userSpaceOnUse" height="224.69"
            id="filter1_d_6347_142871" width="158.69" x="0.654928" y="0.437973">
            <feFlood flood-opacity="0" result="BackgroundImageFix" />
            <feColorMatrix in="SourceAlpha" result="hardAlpha" type="matrix"
                values="0 0 0 0 0 0 0 0 0 0 0 0 0 0 0 0 0 0 127 0" />
            <feOffset dy="7.78305" />
            <feGaussianBlur stdDeviation="8.67254" />
            <feComposite in2="hardAlpha" operator="out" />
            <feColorMatrix type="matrix" values="0 0 0 0 0 0 0 0 0 0 0 0 0 0 0 0 0 0 0.2 0" />
            <feBlend in2="BackgroundImageFix" mode="normal"
                result="effect1_dropShadow_6347_142871" />
            <feBlend in="SourceGraphic" in2="effect1_dropShadow_6347_142871" mode="normal"
                result="shape" />
        </filter>
        <clipPath id="clip0_6347_142871">
            <rect fill="white" height="14.7563" transform="translate(36.189 27.9871)"
                width="31.9424" />
        </clipPath>
    </defs>
</svg>
