<svg fill="none" height="222" viewBox="0 0 156 222" width="156" xmlns="http://www.w3.org/2000/svg">
    <g filter="url(#filter0_d_6347_142952)">
        <g clip-path="url(#clip0_6347_142952)">
            <path d="M145.26 1.87085H10.8945V204.116H145.26V1.87085Z" fill="#FFE816" />
            <path
                d="M61.9532 134.552C75.0986 134.552 85.7551 123.985 85.7551 110.95C85.7551 97.9145 75.0986 87.3473 61.9532 87.3473C48.8078 87.3473 38.1514 97.9145 38.1514 110.95C38.1514 123.985 48.8078 134.552 61.9532 134.552Z"
                fill="#E53E51" />
            <path
                d="M185.979 145.326V154.881C183.905 154.83 181.948 154.348 180.182 153.523C175.319 151.239 171.966 146.341 171.966 140.643V121.419C171.966 118.792 169.816 116.66 167.155 116.66C164.506 116.66 162.356 118.792 162.356 121.419V129.832C162.356 129.883 162.356 141.189 162.356 141.189C162.241 145.212 160.411 148.815 157.583 151.315C155.062 153.536 151.747 154.894 148.113 154.894H147.87C145.669 154.894 143.596 154.399 141.728 153.536C136.903 151.265 133.55 146.417 133.512 140.783V121.431C133.512 118.805 131.362 116.673 128.713 116.673C126.064 116.673 123.915 118.805 123.915 121.431V129.845C123.915 129.895 123.915 141.202 123.915 141.202C123.787 145.224 121.969 148.828 119.141 151.328C116.62 153.549 113.306 154.906 109.672 154.906H109.429C107.228 154.906 105.155 154.412 103.286 153.549C98.4235 151.265 95.0708 146.366 95.0708 140.669V121.444C95.0708 118.817 92.9209 116.686 90.2592 116.686C87.6103 116.686 85.4605 118.817 85.4605 121.444V129.857C85.4605 129.908 85.4605 141.214 85.4605 141.214C85.3453 145.237 83.5154 148.841 80.6873 151.341C78.1663 153.561 74.852 154.919 71.2177 154.919H70.9746C63.0406 154.919 56.6167 148.549 56.6167 140.681V111.902C56.6167 109.262 58.7665 107.13 61.4283 107.13C64.0388 107.13 66.163 109.199 66.2398 111.775V140.593C66.2398 143.219 68.3897 145.351 71.0386 145.351C73.6875 145.351 75.8373 143.219 75.8373 140.593L75.8501 120.822C75.9781 116.8 77.7952 113.196 80.6233 110.696C83.1443 108.476 86.4586 107.118 90.0929 107.118H90.336C92.5498 107.118 94.6357 107.613 96.5168 108.501C101.354 110.785 104.707 115.683 104.707 121.355V140.58C104.707 143.207 106.857 145.339 109.518 145.339C112.167 145.339 114.317 143.207 114.317 140.58L114.33 120.81C114.445 116.787 116.275 113.183 119.103 110.683C121.624 108.463 124.938 107.105 128.573 107.105H128.816C131.029 107.105 133.115 107.6 134.996 108.488C139.744 110.772 143.071 115.607 143.122 121.228V140.58C143.122 143.207 145.272 145.339 147.921 145.339C150.57 145.339 152.72 143.207 152.72 140.58L152.733 120.81C152.848 116.787 154.678 113.183 157.506 110.683C160.027 108.463 163.341 107.105 166.975 107.105H167.219C169.432 107.105 171.518 107.6 173.399 108.488C178.237 110.772 181.589 115.67 181.589 121.343V140.567C181.589 143.08 183.522 145.123 185.979 145.326Z"
                fill="white" />
            <path
                d="M61.3775 116.609C64.0348 116.609 66.189 114.473 66.189 111.838C66.189 109.203 64.0348 107.067 61.3775 107.067C58.7201 107.067 56.5659 109.203 56.5659 111.838C56.5659 114.473 58.7201 116.609 61.3775 116.609Z"
                fill="#FFE816" />
            <path
                d="M114.958 188.288H115.892C116.237 188.288 116.493 188.364 116.672 188.529C116.852 188.694 116.928 188.922 116.928 189.201C116.928 189.506 116.826 189.734 116.634 189.899C116.442 190.064 116.148 190.14 115.764 190.14H115.367V191.206C115.367 191.333 115.303 191.396 115.162 191.396H114.945V188.288H114.958ZM115.802 189.785C116.045 189.785 116.224 189.734 116.34 189.633C116.455 189.531 116.506 189.391 116.506 189.201C116.506 189.011 116.455 188.871 116.352 188.77C116.25 188.681 116.084 188.63 115.866 188.63H115.393V189.785H115.802Z"
                fill="black" />
            <path
                d="M117.35 188.356H117.747V191.287C117.747 191.338 117.734 191.389 117.696 191.427C117.657 191.465 117.619 191.477 117.555 191.477H117.35V188.356Z"
                fill="black" />
            <path
                d="M119.858 191.516C119.794 191.477 119.743 191.439 119.718 191.401C119.679 191.363 119.654 191.287 119.628 191.198C119.564 191.287 119.487 191.363 119.372 191.427C119.27 191.49 119.155 191.516 119.027 191.516C118.809 191.516 118.643 191.452 118.515 191.325C118.387 191.198 118.323 191.033 118.323 190.805C118.323 190.602 118.4 190.437 118.54 190.323C118.681 190.209 118.886 190.158 119.142 190.158C119.295 190.158 119.449 190.171 119.59 190.196V189.967C119.59 189.841 119.551 189.739 119.487 189.663C119.423 189.6 119.308 189.561 119.155 189.561C119.039 189.561 118.924 189.574 118.835 189.6C118.745 189.625 118.643 189.663 118.553 189.726L118.451 189.473C118.63 189.295 118.886 189.206 119.193 189.206C119.462 189.206 119.666 189.27 119.807 189.409C119.948 189.549 120.012 189.726 120.012 189.955V190.945C120.012 191.033 120.025 191.11 120.038 191.16C120.05 191.224 120.089 191.274 120.14 191.325L119.858 191.516ZM119.167 190.462C119.014 190.462 118.911 190.488 118.835 190.551C118.771 190.602 118.732 190.691 118.732 190.805C118.732 190.906 118.758 190.995 118.822 191.059C118.886 191.122 118.975 191.16 119.091 191.16C119.18 191.16 119.27 191.135 119.359 191.084C119.449 191.033 119.526 190.957 119.59 190.881V190.513C119.449 190.475 119.308 190.462 119.167 190.462Z"
                fill="black" />
            <path
                d="M121.497 191.147C121.561 191.147 121.625 191.147 121.663 191.135C121.701 191.122 121.765 191.097 121.817 191.071L121.932 191.338C121.817 191.465 121.663 191.515 121.445 191.515C121.241 191.515 121.087 191.465 120.972 191.35C120.857 191.236 120.806 191.071 120.806 190.856V189.612H120.447V189.333L120.806 189.269V188.597H121.215V189.269H121.791V189.612H121.215V190.817C121.228 191.033 121.317 191.147 121.497 191.147Z"
                fill="black" />
            <path
                d="M122.879 188.686C122.827 188.737 122.763 188.762 122.687 188.762C122.61 188.762 122.546 188.737 122.495 188.686C122.456 188.635 122.431 188.572 122.431 188.508C122.431 188.432 122.456 188.369 122.495 188.318C122.533 188.267 122.597 188.254 122.687 188.254C122.776 188.254 122.84 188.28 122.879 188.318C122.917 188.369 122.943 188.419 122.943 188.508C122.943 188.572 122.93 188.635 122.879 188.686ZM122.879 189.27V191.287C122.879 191.338 122.866 191.389 122.827 191.427C122.789 191.465 122.751 191.478 122.687 191.478H122.469V189.27H122.879Z"
                fill="black" />
            <path
                d="M123.941 189.27L124.005 189.549C124.132 189.447 124.26 189.371 124.401 189.308C124.529 189.257 124.657 189.219 124.785 189.219C124.977 189.219 125.131 189.282 125.233 189.396C125.335 189.511 125.399 189.688 125.399 189.904V191.287C125.399 191.338 125.387 191.389 125.348 191.427C125.31 191.465 125.271 191.477 125.207 191.477H125.003V189.942C125.003 189.828 124.977 189.739 124.926 189.676C124.875 189.612 124.811 189.587 124.721 189.587C124.555 189.587 124.324 189.676 124.056 189.841V191.274C124.056 191.325 124.043 191.376 124.005 191.414C123.966 191.452 123.928 191.465 123.864 191.465H123.621V189.257H123.941V189.27Z"
                fill="black" />
            <path
                d="M127.576 191.516C127.524 191.49 127.473 191.452 127.435 191.401C127.396 191.351 127.358 191.287 127.333 191.198C127.205 191.3 127.077 191.389 126.949 191.44C126.821 191.49 126.718 191.516 126.603 191.516C126.411 191.516 126.258 191.452 126.142 191.338C126.027 191.224 125.976 191.046 125.976 190.83V189.257H126.373V190.792C126.373 190.907 126.398 190.995 126.45 191.059C126.501 191.122 126.565 191.148 126.654 191.148C126.757 191.148 126.859 191.122 126.961 191.084C127.064 191.046 127.179 190.983 127.294 190.894V189.257H127.704V190.945C127.704 191.021 127.716 191.084 127.729 191.148C127.755 191.211 127.78 191.275 127.819 191.351L127.576 191.516Z"
                fill="black" />
            <path
                d="M128.675 189.269L128.739 189.549C128.816 189.472 128.918 189.409 129.046 189.333C129.174 189.257 129.302 189.231 129.417 189.231C129.673 189.231 129.853 189.333 129.942 189.536C130.185 189.333 130.441 189.231 130.684 189.231C130.876 189.231 131.03 189.295 131.132 189.409C131.247 189.523 131.299 189.714 131.299 189.967V191.3C131.299 191.35 131.286 191.401 131.247 191.439C131.209 191.477 131.158 191.49 131.094 191.49H130.889V189.904C130.889 189.815 130.864 189.739 130.825 189.688C130.787 189.637 130.723 189.612 130.646 189.612C130.467 189.612 130.275 189.688 130.032 189.828V191.3C130.032 191.35 130.019 191.401 129.981 191.439C129.942 191.477 129.904 191.49 129.84 191.49H129.635V189.904C129.635 189.815 129.609 189.739 129.571 189.688C129.52 189.637 129.469 189.612 129.392 189.612C129.302 189.612 129.2 189.637 129.11 189.675C129.008 189.714 128.906 189.777 128.778 189.866V191.3C128.778 191.35 128.765 191.401 128.726 191.439C128.688 191.477 128.65 191.49 128.586 191.49H128.368V189.282H128.675V189.269Z"
                fill="black" />
            <path
                d="M113.268 177.291L109.403 186.427H106.882L104.988 179.143C104.873 178.699 104.771 178.534 104.425 178.344C103.85 178.039 102.903 177.747 102.071 177.57L102.122 177.303H106.179C106.69 177.303 107.164 177.646 107.279 178.23L108.277 183.521L110.76 177.303H113.268V177.291ZM123.134 183.432C123.147 181.021 119.769 180.894 119.794 179.816C119.807 179.486 120.114 179.143 120.805 179.054C121.151 179.016 122.085 178.978 123.16 179.461L123.582 177.519C123.006 177.316 122.264 177.113 121.355 177.113C119.001 177.113 117.337 178.357 117.324 180.133C117.312 181.453 118.502 182.176 119.41 182.62C120.332 183.064 120.652 183.356 120.652 183.75C120.652 184.359 119.909 184.638 119.231 184.638C118.028 184.663 117.337 184.321 116.787 184.067L116.352 186.072C116.915 186.326 117.939 186.541 119.001 186.554C121.496 186.567 123.134 185.336 123.134 183.432ZM129.353 186.414H131.554L129.635 177.278H127.6C127.14 177.278 126.756 177.544 126.589 177.95L123.019 186.414H125.514L126.013 185.057H129.072L129.353 186.414ZM126.692 183.179L127.946 179.752L128.662 183.179H126.692ZM116.672 177.291L114.701 186.427H112.321L114.292 177.291H116.672Z"
                fill="black" />
            <path
                d="M104.157 33.7464C104.323 33.9748 104.464 34.2286 104.553 34.5078C104.643 34.787 104.694 35.0789 104.694 35.3835C104.694 35.6881 104.643 35.98 104.553 36.2592C104.464 36.5384 104.323 36.7922 104.157 37.0207C103.926 37.3253 103.99 37.7695 104.297 37.9979C104.604 38.2263 105.052 38.1629 105.283 37.8583C105.539 37.5156 105.743 37.1349 105.884 36.7161C106.025 36.2973 106.102 35.8531 106.102 35.3962C106.102 34.9393 106.025 34.4951 105.884 34.0763C105.743 33.6575 105.539 33.2768 105.283 32.9341C105.052 32.6295 104.604 32.5534 104.297 32.7945C103.99 32.9976 103.926 33.4418 104.157 33.7464Z"
                fill="black" />
            <path
                d="M106.575 32.4393C107.1 33.2895 107.407 34.2919 107.407 35.3705C107.407 36.4491 107.1 37.4516 106.575 38.3018C106.37 38.6317 106.473 39.0632 106.805 39.2662C107.138 39.4692 107.573 39.3677 107.778 39.0378C108.443 37.9719 108.827 36.7156 108.827 35.3705C108.827 34.0254 108.443 32.7692 107.778 31.7033C107.573 31.3733 107.138 31.2718 106.805 31.4749C106.473 31.6906 106.37 32.122 106.575 32.4393Z"
                fill="black" />
            <path
                d="M109.134 31.12C109.877 32.3762 110.299 33.8228 110.299 35.3836C110.299 36.9444 109.877 38.391 109.134 39.6473C108.942 39.9772 109.058 40.4087 109.39 40.599C109.723 40.7894 110.158 40.6878 110.35 40.3452C111.207 38.8859 111.707 37.1855 111.707 35.3709C111.707 33.5563 111.22 31.8559 110.35 30.3966C110.158 30.0667 109.723 29.9525 109.39 30.1429C109.058 30.3586 108.942 30.7773 109.134 31.12Z"
                fill="black" />
            <path
                d="M111.694 29.7876C112.64 31.4373 113.178 33.3407 113.178 35.3837C113.178 37.4267 112.64 39.3301 111.694 40.9798C111.502 41.3097 111.617 41.7412 111.962 41.9315C112.308 42.1218 112.73 42.0076 112.922 41.665C113.984 39.8123 114.598 37.6551 114.598 35.371C114.598 33.0869 113.984 30.9297 112.922 29.077C112.73 28.7344 112.295 28.6202 111.962 28.8105C111.617 29.0136 111.502 29.445 111.694 29.7876Z"
                fill="black" />
            <path
                d="M53.0475 34.9392V40.5099C53.0475 41.0175 52.6252 41.4363 52.1133 41.4363C51.6014 41.4363 51.1919 41.0302 51.1791 40.5353V34.9519C51.1791 34.4443 50.7568 34.0256 50.245 34.0256C49.7331 34.0256 49.3108 34.4443 49.3108 34.9519V36.5762C49.3108 36.5889 49.3108 38.7715 49.3108 38.7715C49.2852 39.5455 48.9397 40.2434 48.3894 40.7256C47.9032 41.1571 47.2633 41.4109 46.5595 41.4109H46.5083C44.9727 41.4109 43.7314 40.18 43.7314 38.6572V35.8656C43.7314 35.358 44.1537 34.9392 44.6656 34.9392C45.1775 34.9392 45.587 35.3453 45.5998 35.8402V38.6446C45.5998 39.1521 46.0221 39.5709 46.5339 39.5709C47.0458 39.5709 47.4681 39.1521 47.4681 38.6446V34.8123C47.4937 34.0383 47.8392 33.3403 48.3894 32.8581C48.8757 32.4267 49.5156 32.1729 50.2194 32.1729H50.2706C51.8062 32.1856 53.0475 33.4165 53.0475 34.9392Z"
                fill="black" />
            <path
                d="M40.9547 41.4369C40.4428 41.4369 40.0205 41.0181 40.0205 40.5105V29.4199C40.0205 28.9123 40.4428 28.4936 40.9547 28.4936C41.4665 28.4936 41.8888 28.9123 41.8888 29.4199V40.5105C41.876 41.0181 41.4665 41.4369 40.9547 41.4369Z"
                fill="black" />
            <path
                d="M34.4406 32.1862V29.4199C34.4406 28.9123 34.0183 28.4936 33.5064 28.4936C32.9946 28.4936 32.5723 28.9123 32.5723 29.4199V38.7086C32.5723 40.2187 33.8135 41.4495 35.3364 41.4495H35.4003C36.9231 41.4495 38.1644 40.2187 38.1644 38.7086V34.9525C38.1644 33.4298 36.9231 32.1989 35.3875 32.1989H34.4406V32.1862ZM35.3619 39.5842C34.8501 39.5842 34.4278 39.1654 34.4278 38.6579V34.9525C34.4278 34.4449 34.8501 34.0262 35.3619 34.0262C35.8738 34.0262 36.2961 34.4449 36.2961 34.9525V38.6579C36.2961 39.1781 35.8738 39.5842 35.3619 39.5842Z"
                fill="black" />
            <path
                d="M60.5205 34.9652V33.1252C60.5205 32.6176 60.0982 32.1988 59.5863 32.1988C59.0744 32.1988 58.6522 32.6176 58.6522 33.1252V34.9652C58.6522 35.4727 58.2299 35.8915 57.718 35.8915C57.2061 35.8915 56.7838 35.4727 56.7838 34.9652V29.4325C56.7838 28.9249 56.3616 28.5062 55.8497 28.5062C55.3378 28.5062 54.9155 28.9249 54.9155 29.4325V40.5105C54.9155 41.018 55.3378 41.4368 55.8497 41.4368C56.3616 41.4368 56.7838 41.018 56.7838 40.5105V38.6578C56.7838 38.1502 57.2061 37.7315 57.718 37.7315C58.2299 37.7315 58.6522 38.1502 58.6522 38.6578V40.5105C58.6522 41.018 59.0744 41.4368 59.5863 41.4368C60.0982 41.4368 60.5205 41.018 60.5205 40.5105V38.6578C60.5205 37.9472 60.2517 37.3 59.8039 36.8051C60.2389 36.3229 60.5205 35.6758 60.5205 34.9652Z"
                fill="black" />
            <path
                d="M44.6773 34.0382C44.1655 34.0382 43.7432 33.6194 43.7432 33.1119C43.7432 32.6043 44.1655 32.1855 44.6773 32.1855C45.1892 32.1855 45.6115 32.6043 45.6115 33.1119C45.5987 33.6194 45.1892 34.0382 44.6773 34.0382Z"
                fill="#E53E51" />
        </g>
    </g>
    <defs>
        <filter color-interpolation-filters="sRGB" filterUnits="userSpaceOnUse" height="222"
            id="filter0_d_6347_142952" width="156" x="0" y="0">
            <feFlood flood-opacity="0" result="BackgroundImageFix" />
            <feColorMatrix in="SourceAlpha" result="hardAlpha" type="matrix"
                values="0 0 0 0 0 0 0 0 0 0 0 0 0 0 0 0 0 0 127 0" />
            <feOffset dy="8" />
            <feGaussianBlur stdDeviation="8" />
            <feComposite in2="hardAlpha" operator="out" />
            <feColorMatrix type="matrix" values="0 0 0 0 0 0 0 0 0 0 0 0 0 0 0 0 0 0 0.08 0" />
            <feBlend in2="BackgroundImageFix" mode="normal"
                result="effect1_dropShadow_6347_142952" />
            <feBlend in="SourceGraphic" in2="effect1_dropShadow_6347_142952" mode="normal"
                result="shape" />
        </filter>
        <clipPath id="clip0_6347_142952">
            <rect fill="white" height="190" rx="12" width="124" x="16" y="8" />
        </clipPath>
    </defs>
</svg>
