<svg width="124" height="190" viewBox="0 0 124 190" fill="none" xmlns="http://www.w3.org/2000/svg">
<g clip-path="url(#clip0_6035_149983)">
<rect width="124" height="190" rx="12" fill="#FFE816"/>
<path d="M45.9532 126.552C59.0986 126.552 69.7551 115.985 69.7551 102.95C69.7551 89.9145 59.0986 79.3473 45.9532 79.3473C32.8078 79.3473 22.1514 89.9145 22.1514 102.95C22.1514 115.985 32.8078 126.552 45.9532 126.552Z" fill="#E53E51"/>
<path d="M169.979 137.326V146.881C167.905 146.83 165.948 146.348 164.182 145.523C159.319 143.239 155.966 138.341 155.966 132.643V113.419C155.966 110.792 153.816 108.66 151.155 108.66C148.506 108.66 146.356 110.792 146.356 113.419V121.832C146.356 121.883 146.356 133.189 146.356 133.189C146.241 137.212 144.411 140.815 141.583 143.315C139.062 145.536 135.747 146.894 132.113 146.894H131.87C129.669 146.894 127.596 146.399 125.728 145.536C120.903 143.264 117.55 138.417 117.512 132.783V113.431C117.512 110.805 115.362 108.673 112.713 108.673C110.064 108.673 107.915 110.805 107.915 113.431V121.845C107.915 121.895 107.915 133.202 107.915 133.202C107.787 137.224 105.969 140.828 103.141 143.328C100.62 145.549 97.3061 146.906 93.6718 146.906H93.4287C91.2276 146.906 89.1546 146.411 87.2863 145.549C82.4235 143.264 79.0708 138.366 79.0708 132.669V113.444C79.0708 110.817 76.9209 108.686 74.2592 108.686C71.6103 108.686 69.4605 110.817 69.4605 113.444V121.857C69.4605 121.908 69.4605 133.214 69.4605 133.214C69.3453 137.237 67.5154 140.841 64.6873 143.341C62.1663 145.561 58.852 146.919 55.2177 146.919H54.9746C47.0406 146.919 40.6167 140.549 40.6167 132.681V103.902C40.6167 101.262 42.7665 99.1304 45.4283 99.1304C48.0388 99.1304 50.163 101.199 50.2398 103.775V132.593C50.2398 135.219 52.3897 137.351 55.0386 137.351C57.6875 137.351 59.8373 135.219 59.8373 132.593L59.8501 112.822C59.9781 108.8 61.7952 105.196 64.6233 102.696C67.1443 100.475 70.4586 99.1177 74.0929 99.1177H74.336C76.5498 99.1177 78.6357 99.6126 80.5168 100.501C85.354 102.785 88.7067 107.683 88.7067 113.355V132.58C88.7067 135.207 90.8565 137.338 93.5182 137.338C96.1672 137.338 98.317 135.207 98.317 132.58L98.3298 112.81C98.445 108.787 100.275 105.183 103.103 102.683C105.624 100.463 108.938 99.105 112.573 99.105H112.816C115.029 99.105 117.115 99.5999 118.996 100.488C123.744 102.772 127.071 107.607 127.122 113.228V132.58C127.122 135.207 129.272 137.338 131.921 137.338C134.57 137.338 136.72 135.207 136.72 132.58L136.733 112.81C136.848 108.787 138.678 105.183 141.506 102.683C144.027 100.463 147.341 99.105 150.975 99.105H151.219C153.432 99.105 155.518 99.5999 157.399 100.488C162.237 102.772 165.589 107.67 165.589 113.343V132.567C165.589 135.08 167.522 137.123 169.979 137.326Z" fill="white"/>
<path d="M45.377 108.609C48.0343 108.609 50.1886 106.473 50.1886 103.838C50.1886 101.203 48.0343 99.0668 45.377 99.0668C42.7196 99.0668 40.5654 101.203 40.5654 103.838C40.5654 106.473 42.7196 108.609 45.377 108.609Z" fill="#FFE816"/>
<path d="M98.9571 180.288H99.8913C100.237 180.288 100.493 180.364 100.672 180.529C100.851 180.694 100.928 180.922 100.928 181.201C100.928 181.506 100.825 181.734 100.634 181.899C100.442 182.064 100.147 182.14 99.7633 182.14H99.3666V183.206C99.3666 183.333 99.3026 183.396 99.1619 183.396H98.9443V180.288H98.9571ZM99.8017 181.785C100.045 181.785 100.224 181.734 100.339 181.633C100.454 181.531 100.506 181.391 100.506 181.201C100.506 181.011 100.454 180.871 100.352 180.77C100.25 180.681 100.083 180.63 99.8657 180.63H99.3922V181.785H99.8017V181.785Z" fill="black"/>
<path d="M101.35 180.356H101.746V183.287C101.746 183.338 101.733 183.389 101.695 183.427C101.657 183.465 101.618 183.477 101.554 183.477H101.35V180.356Z" fill="black"/>
<path d="M103.858 183.516C103.794 183.477 103.743 183.439 103.717 183.401C103.679 183.363 103.653 183.287 103.628 183.198C103.564 183.287 103.487 183.363 103.372 183.427C103.269 183.49 103.154 183.516 103.026 183.516C102.809 183.516 102.642 183.452 102.514 183.325C102.386 183.198 102.322 183.033 102.322 182.805C102.322 182.602 102.399 182.437 102.54 182.323C102.681 182.209 102.885 182.158 103.141 182.158C103.295 182.158 103.448 182.171 103.589 182.196V181.967C103.589 181.841 103.551 181.739 103.487 181.663C103.423 181.6 103.308 181.561 103.154 181.561C103.039 181.561 102.924 181.574 102.834 181.6C102.745 181.625 102.642 181.663 102.553 181.726L102.45 181.473C102.629 181.295 102.885 181.206 103.192 181.206C103.461 181.206 103.666 181.27 103.807 181.409C103.947 181.549 104.011 181.726 104.011 181.955V182.945C104.011 183.033 104.024 183.11 104.037 183.16C104.05 183.224 104.088 183.274 104.139 183.325L103.858 183.516ZM103.167 182.462C103.013 182.462 102.911 182.488 102.834 182.551C102.77 182.602 102.732 182.691 102.732 182.805C102.732 182.906 102.757 182.995 102.821 183.059C102.885 183.122 102.975 183.16 103.09 183.16C103.18 183.16 103.269 183.135 103.359 183.084C103.448 183.033 103.525 182.957 103.589 182.881V182.513C103.448 182.475 103.308 182.462 103.167 182.462Z" fill="black"/>
<path d="M105.496 183.147C105.56 183.147 105.624 183.147 105.662 183.135C105.701 183.122 105.765 183.097 105.816 183.071L105.931 183.338C105.816 183.465 105.662 183.515 105.445 183.515C105.24 183.515 105.087 183.465 104.971 183.35C104.856 183.236 104.805 183.071 104.805 182.856V181.612H104.447V181.333L104.805 181.269V180.597H105.215V181.269H105.79V181.612H105.215V182.817C105.227 183.033 105.317 183.147 105.496 183.147Z" fill="black"/>
<path d="M106.878 180.686C106.827 180.737 106.763 180.762 106.686 180.762C106.609 180.762 106.545 180.737 106.494 180.686C106.456 180.635 106.43 180.572 106.43 180.508C106.43 180.432 106.456 180.369 106.494 180.318C106.533 180.267 106.597 180.254 106.686 180.254C106.776 180.254 106.84 180.28 106.878 180.318C106.916 180.369 106.942 180.419 106.942 180.508C106.942 180.572 106.929 180.635 106.878 180.686ZM106.878 181.27V183.287C106.878 183.338 106.865 183.389 106.827 183.427C106.788 183.465 106.75 183.478 106.686 183.478H106.469V181.27H106.878Z" fill="black"/>
<path d="M107.94 181.27L108.004 181.549C108.132 181.447 108.26 181.371 108.401 181.308C108.529 181.257 108.657 181.219 108.785 181.219C108.977 181.219 109.13 181.282 109.232 181.396C109.335 181.511 109.399 181.688 109.399 181.904V183.287C109.399 183.338 109.386 183.389 109.348 183.427C109.309 183.465 109.271 183.477 109.207 183.477H109.002V181.942C109.002 181.828 108.977 181.739 108.925 181.676C108.874 181.612 108.81 181.587 108.721 181.587C108.554 181.587 108.324 181.676 108.055 181.841V183.274C108.055 183.325 108.042 183.376 108.004 183.414C107.966 183.452 107.927 183.465 107.863 183.465H107.62V181.257H107.94V181.27Z" fill="black"/>
<path d="M111.575 183.516C111.524 183.49 111.473 183.452 111.434 183.401C111.396 183.351 111.358 183.287 111.332 183.198C111.204 183.3 111.076 183.389 110.948 183.44C110.82 183.49 110.718 183.516 110.603 183.516C110.411 183.516 110.257 183.452 110.142 183.338C110.027 183.224 109.976 183.046 109.976 182.83V181.257H110.372V182.792C110.372 182.907 110.398 182.995 110.449 183.059C110.5 183.122 110.564 183.148 110.654 183.148C110.756 183.148 110.859 183.122 110.961 183.084C111.063 183.046 111.178 182.983 111.294 182.894V181.257H111.703V182.945C111.703 183.021 111.716 183.084 111.729 183.148C111.754 183.211 111.78 183.275 111.818 183.351L111.575 183.516Z" fill="black"/>
<path d="M112.675 181.269L112.739 181.549C112.816 181.472 112.918 181.409 113.046 181.333C113.174 181.257 113.302 181.231 113.417 181.231C113.673 181.231 113.852 181.333 113.942 181.536C114.185 181.333 114.441 181.231 114.684 181.231C114.876 181.231 115.029 181.295 115.132 181.409C115.247 181.523 115.298 181.714 115.298 181.967V183.3C115.298 183.35 115.285 183.401 115.247 183.439C115.209 183.477 115.157 183.49 115.093 183.49H114.889V181.904C114.889 181.815 114.863 181.739 114.825 181.688C114.786 181.637 114.722 181.612 114.645 181.612C114.466 181.612 114.274 181.688 114.031 181.828V183.3C114.031 183.35 114.018 183.401 113.98 183.439C113.942 183.477 113.903 183.49 113.839 183.49H113.635V181.904C113.635 181.815 113.609 181.739 113.571 181.688C113.519 181.637 113.468 181.612 113.391 181.612C113.302 181.612 113.199 181.637 113.11 181.675C113.008 181.714 112.905 181.777 112.777 181.866V183.3C112.777 183.35 112.764 183.401 112.726 183.439C112.688 183.477 112.649 183.49 112.585 183.49H112.368V181.282H112.675V181.269Z" fill="black"/>
<path d="M97.2679 169.291L93.4033 178.427H90.8824L88.9885 171.143C88.8733 170.699 88.7709 170.534 88.4254 170.344C87.8495 170.039 86.9026 169.747 86.0708 169.57L86.122 169.303H90.1785C90.6904 169.303 91.1639 169.646 91.2791 170.23L92.2772 175.521L94.7598 169.303H97.2679V169.291ZM107.134 175.432C107.147 173.021 103.769 172.894 103.794 171.816C103.807 171.486 104.114 171.143 104.805 171.054C105.151 171.016 106.085 170.978 107.16 171.461L107.582 169.519C107.006 169.316 106.264 169.113 105.355 169.113C103.001 169.113 101.337 170.357 101.324 172.133C101.312 173.453 102.502 174.176 103.41 174.62C104.332 175.064 104.652 175.356 104.652 175.75C104.652 176.359 103.909 176.638 103.231 176.638C102.028 176.663 101.337 176.321 100.787 176.067L100.352 178.072C100.915 178.326 101.939 178.541 103.001 178.554C105.496 178.567 107.134 177.336 107.134 175.432ZM113.353 178.414H115.554L113.635 169.278H111.6C111.14 169.278 110.756 169.544 110.589 169.95L107.019 178.414H109.514L110.013 177.057H113.072L113.353 178.414ZM110.692 175.179L111.946 171.752L112.662 175.179H110.692ZM100.672 169.291L98.7011 178.427H96.321L98.2916 169.291H100.672Z" fill="black"/>
<path d="M88.156 25.7464C88.3224 25.9748 88.4631 26.2287 88.5527 26.5079C88.6423 26.7871 88.6935 27.079 88.6935 27.3836C88.6935 27.6881 88.6423 27.98 88.5527 28.2592C88.4631 28.5385 88.3224 28.7923 88.156 29.0207C87.9257 29.3253 87.9897 29.7695 88.2968 29.9979C88.6039 30.2264 89.0518 30.1629 89.2821 29.8583C89.5381 29.5157 89.7428 29.1349 89.8836 28.7161C90.0244 28.2973 90.1011 27.8531 90.1011 27.3962C90.1011 26.9394 90.0244 26.4952 89.8836 26.0764C89.7428 25.6576 89.5381 25.2768 89.2821 24.9342C89.0518 24.6296 88.6039 24.5534 88.2968 24.7946C87.9897 24.9976 87.9257 25.4418 88.156 25.7464Z" fill="black"/>
<path d="M90.5747 24.4393C91.0993 25.2895 91.4064 26.292 91.4064 27.3706C91.4064 28.4492 91.0993 29.4516 90.5747 30.3018C90.3699 30.6318 90.4723 31.0632 90.805 31.2662C91.1377 31.4693 91.5728 31.3678 91.7775 31.0378C92.443 29.9719 92.8269 28.7157 92.8269 27.3706C92.8269 26.0255 92.443 24.7692 91.7775 23.7033C91.5728 23.3734 91.1377 23.2719 90.805 23.4749C90.4723 23.6906 90.3699 24.1221 90.5747 24.4393Z" fill="black"/>
<path d="M93.1339 23.12C93.8761 24.3762 94.2984 25.8228 94.2984 27.3836C94.2984 28.9444 93.8761 30.391 93.1339 31.6473C92.942 31.9772 93.0572 32.4087 93.3899 32.599C93.7226 32.7894 94.1577 32.6878 94.3496 32.3452C95.207 30.8859 95.7061 29.1855 95.7061 27.3709C95.7061 25.5563 95.2198 23.8559 94.3496 22.3966C94.1577 22.0667 93.7226 21.9525 93.3899 22.1429C93.0572 22.3586 92.942 22.7773 93.1339 23.12Z" fill="black"/>
<path d="M95.6931 21.7877C96.64 23.4373 97.1775 25.3407 97.1775 27.3837C97.1775 29.4267 96.64 31.3302 95.6931 32.9798C95.5011 33.3097 95.6163 33.7412 95.9618 33.9315C96.3073 34.1219 96.7296 34.0077 96.9215 33.665C97.9837 31.8124 98.5979 29.6552 98.5979 27.371C98.5979 25.0869 97.9837 22.9297 96.9215 21.077C96.7296 20.7344 96.2945 20.6202 95.9618 20.8106C95.6163 21.0136 95.5011 21.445 95.6931 21.7877Z" fill="black"/>
<path d="M76.7928 16.2426C77.4454 16.2426 77.9701 16.7628 77.9701 17.41V36.9518C77.9701 37.599 77.4454 38.1193 76.7928 38.1193H61.7183C61.0657 38.1193 60.541 37.599 60.541 36.9518V17.41C60.541 16.7628 61.0657 16.2426 61.7183 16.2426H76.7928V16.2426Z" fill="url(#paint0_linear_6035_149983)"/>
<path d="M71.6106 29.5165H66.9014V24.8461H71.3802H71.6106V29.5165ZM71.3802 25.0873H71.1499H71.3802ZM71.1499 29.0596V25.303H67.3621V29.0596H71.1499Z" fill="#92855F"/>
<path d="M67.1313 27.4086H60.541V26.9526H67.1313V27.4086Z" fill="#92855F"/>
<path d="M77.9707 27.4086H71.3804V26.9526H77.9707V27.4086Z" fill="#92855F"/>
<path d="M66.9653 25.2394L64.0732 22.3716V16.2426H64.5339V22.1812L67.298 24.9222L66.9653 25.2394Z" fill="#92855F"/>
<path d="M74.4377 22.3589L71.5456 25.2394L71.2129 24.9222L73.9898 22.1812V16.2426H74.4377V22.3589Z" fill="#92855F"/>
<path d="M64.5339 32.1932V38.1192H64.0732V32.0029L66.9781 29.1351V29.1224L67.298 29.4523L64.5339 32.1932Z" fill="#92855F"/>
<path d="M74.4377 38.1192H73.9898L73.977 32.1932L71.2129 29.4523L71.5456 29.1224L74.4377 32.0029V38.1192Z" fill="#92855F"/>
<path d="M69.4856 25.0872H69.0249V16.2426H69.4856V25.0872Z" fill="#92855F"/>
<path d="M69.4856 38.1194H69.0249V29.2875H69.4856V38.1194Z" fill="#92855F"/>
<path d="M37.047 26.9393V32.51C37.047 33.0176 36.6247 33.4363 36.1128 33.4363C35.6009 33.4363 35.1914 33.0302 35.1786 32.5354V26.952C35.1786 26.4444 34.7564 26.0256 34.2445 26.0256C33.7326 26.0256 33.3103 26.4444 33.3103 26.952V28.5762C33.3103 28.5889 33.3103 30.7715 33.3103 30.7715C33.2847 31.5456 32.9392 32.2435 32.389 32.7257C31.9027 33.1571 31.2629 33.4109 30.559 33.4109H30.5078C28.9722 33.4109 27.731 32.1801 27.731 30.6573V27.8656C27.731 27.358 28.1532 26.9393 28.6651 26.9393C29.177 26.9393 29.5865 27.3453 29.5993 27.8402V30.6446C29.5993 31.1522 30.0216 31.571 30.5334 31.571C31.0453 31.571 31.4676 31.1522 31.4676 30.6446V26.8124C31.4932 26.0383 31.8387 25.3404 32.389 24.8582C32.8752 24.4268 33.5151 24.173 34.2189 24.173H34.2701C35.8057 24.1857 37.047 25.4165 37.047 26.9393Z" fill="black"/>
<path d="M24.9542 33.4369C24.4423 33.4369 24.02 33.0181 24.02 32.5106V21.4199C24.02 20.9123 24.4423 20.4936 24.9542 20.4936C25.466 20.4936 25.8883 20.9123 25.8883 21.4199V32.5106C25.8755 33.0181 25.466 33.4369 24.9542 33.4369Z" fill="black"/>
<path d="M18.4401 24.1862V21.4199C18.4401 20.9123 18.0178 20.4936 17.5059 20.4936C16.9941 20.4936 16.5718 20.9123 16.5718 21.4199V30.7086C16.5718 32.2187 17.8131 33.4496 19.3359 33.4496H19.3998C20.9227 33.4496 22.1639 32.2187 22.1639 30.7086V26.9525C22.1639 25.4298 20.9227 24.1989 19.3871 24.1989H18.4401V24.1862ZM19.3615 31.5842C18.8496 31.5842 18.4273 31.1655 18.4273 30.6579V26.9525C18.4273 26.445 18.8496 26.0262 19.3615 26.0262C19.8733 26.0262 20.2956 26.445 20.2956 26.9525V30.6579C20.2956 31.1782 19.8733 31.5842 19.3615 31.5842Z" fill="black"/>
<path d="M44.52 26.9652V25.1252C44.52 24.6176 44.0977 24.1989 43.5858 24.1989C43.074 24.1989 42.6517 24.6176 42.6517 25.1252V26.9652C42.6517 27.4728 42.2294 27.8915 41.7175 27.8915C41.2056 27.8915 40.7834 27.4728 40.7834 26.9652V21.4326C40.7834 20.925 40.3611 20.5062 39.8492 20.5062C39.3373 20.5062 38.915 20.925 38.915 21.4326V32.5105C38.915 33.0181 39.3373 33.4368 39.8492 33.4368C40.3611 33.4368 40.7834 33.0181 40.7834 32.5105V30.6578C40.7834 30.1502 41.2056 29.7315 41.7175 29.7315C42.2294 29.7315 42.6517 30.1502 42.6517 30.6578V32.5105C42.6517 33.0181 43.074 33.4368 43.5858 33.4368C44.0977 33.4368 44.52 33.0181 44.52 32.5105V30.6578C44.52 29.9472 44.2513 29.3001 43.8034 28.8052C44.2385 28.323 44.52 27.6758 44.52 26.9652Z" fill="black"/>
<path d="M28.6768 26.0382C28.165 26.0382 27.7427 25.6194 27.7427 25.1119C27.7427 24.6043 28.165 24.1855 28.6768 24.1855C29.1887 24.1855 29.611 24.6043 29.611 25.1119C29.5982 25.6194 29.1887 26.0382 28.6768 26.0382Z" fill="#E53E51"/>
</g>
<defs>
<linearGradient id="paint0_linear_6035_149983" x1="63.0007" y1="14.2885" x2="71.3544" y2="31.802" gradientUnits="userSpaceOnUse">
<stop stop-color="#FFCE44"/>
<stop offset="0.094634" stop-color="#FFCF48"/>
<stop offset="0.1977" stop-color="#FFD256"/>
<stop offset="0.3047" stop-color="#FFD76B"/>
<stop offset="0.4138" stop-color="#FFDF8A"/>
<stop offset="0.478" stop-color="#FFE49F"/>
<stop offset="0.5528" stop-color="#FFDE88"/>
<stop offset="0.6688" stop-color="#FFD76A"/>
<stop offset="0.7834" stop-color="#FFD255"/>
<stop offset="0.895" stop-color="#FFCF48"/>
<stop offset="1" stop-color="#FFCE44"/>
</linearGradient>
<clipPath id="clip0_6035_149983">
<rect width="124" height="190" rx="12" fill="white"/>
</clipPath>
</defs>
</svg>
