<svg width="41" height="40" viewBox="0 0 41 40" fill="none" xmlns="http://www.w3.org/2000/svg">
<path d="M5.5 10H8.83333H35.5" stroke="black" stroke-width="2" stroke-linecap="round" stroke-linejoin="round"/>
<path d="M13.8333 10V6.66667C13.8333 5.78261 14.1844 4.93476 14.8096 4.30964C15.4347 3.68452 16.2825 3.33333 17.1666 3.33333H23.8333C24.7173 3.33333 25.5652 3.68452 26.1903 4.30964C26.8154 4.93476 27.1666 5.78261 27.1666 6.66667V10M32.1666 10V33.3333C32.1666 34.2174 31.8154 35.0652 31.1903 35.6904C30.5652 36.3155 29.7173 36.6667 28.8333 36.6667H12.1666C11.2825 36.6667 10.4347 36.3155 9.80956 35.6904C9.18444 35.0652 8.83325 34.2174 8.83325 33.3333V10H32.1666Z" stroke="black" stroke-width="2" stroke-linecap="round" stroke-linejoin="round"/>
</svg>
