<svg width="72" height="88" viewBox="0 0 72 88" fill="none" xmlns="http://www.w3.org/2000/svg">
<rect width="72" height="88" fill="#890000"/>
<path d="M29.25 39.5H30.75H42.75" stroke="white" stroke-width="2" stroke-linecap="round" stroke-linejoin="round"/>
<path d="M33 39.5V38C33 37.6022 33.158 37.2206 33.4393 36.9393C33.7206 36.658 34.1022 36.5 34.5 36.5H37.5C37.8978 36.5 38.2794 36.658 38.5607 36.9393C38.842 37.2206 39 37.6022 39 38V39.5M41.25 39.5V50C41.25 50.3978 41.092 50.7794 40.8107 51.0607C40.5294 51.342 40.1478 51.5 39.75 51.5H32.25C31.8522 51.5 31.4706 51.342 31.1893 51.0607C30.908 50.7794 30.75 50.3978 30.75 50V39.5H41.25Z" stroke="#F8F8F8" stroke-width="2" stroke-linecap="round" stroke-linejoin="round"/>
</svg>
