<svg width="24" height="24" viewBox="0 0 24 24" fill="none" xmlns="http://www.w3.org/2000/svg">
    <path d="M23.8237 15.2096C19.9977 4.07241 20.2609 4.83546 20.2446 4.79754C19.8463 3.87581 19.0732 3.15926 18.1234 2.83155C17.9875 2.78462 10.2863 0.983168 10.0638 0.906103C9.38121 0.669706 8.4329 0.802225 7.76717 1.41452L1.1675 7.4873C0.425543 8.16972 0 9.14119 0 10.1527V20.9066C0 22.1739 1.02551 23.2049 2.28606 23.2049H16.4054C17.666 23.2049 18.6915 22.1739 18.6915 20.9066V19.8671L22.627 18.1829C23.7712 17.6877 24.3035 16.3588 23.8237 15.2096V15.2096ZM16.4054 21.7986H2.28606C1.80094 21.7986 1.40629 21.3984 1.40629 20.9066V10.1527C1.40629 9.5335 1.66626 8.9392 2.1196 8.52223C7.77382 3.31953 4.27891 6.56468 8.74177 2.44899C8.97451 2.23448 9.29585 2.14832 9.61456 2.24442C9.89943 2.3295 9.39677 1.92008 16.572 8.52233C17.0252 8.93924 17.2852 9.5335 17.2852 10.1527V20.9066C17.2852 21.3984 16.8905 21.7986 16.4054 21.7986V21.7986ZM22.0711 16.8911L18.6914 18.3375V10.1527C18.6914 9.14119 18.2659 8.16972 17.524 7.48739L12.6092 2.96491L17.6954 4.17179C18.2506 4.37274 18.7031 4.79341 18.9435 5.3323C22.7622 16.4482 22.5046 15.7021 22.5214 15.7406C22.7134 16.1844 22.5102 16.7011 22.0711 16.8911Z" fill="white"/>
    <path d="M11.3423 9.48336C10.9843 9.33307 10.5721 9.50164 10.4218 9.85968L6.99878 18.018C6.80349 18.4835 7.14846 18.9934 7.64685 18.9934C7.92159 18.9934 8.18259 18.8314 8.29557 18.5622L11.7186 10.4038C11.8689 10.0457 11.7004 9.6336 11.3423 9.48336Z" fill="white"/>
    <path d="M8.04625 11.5095C8.04625 10.1524 7.05233 9.04834 5.8306 9.04834C4.60886 9.04834 3.61499 10.1524 3.61499 11.5095C3.61499 12.8666 4.60891 13.9706 5.83064 13.9706C7.05238 13.9706 8.04625 12.8666 8.04625 11.5095ZM5.83064 12.5643C5.39193 12.5643 5.02128 12.0813 5.02128 11.5095C5.02128 10.9377 5.39188 10.4546 5.83064 10.4546C6.26941 10.4546 6.64001 10.9377 6.64001 11.5095C6.63996 12.0813 6.26936 12.5643 5.83064 12.5643Z" fill="white"/>
    <path d="M12.9256 14.6263C11.7039 14.6263 10.71 15.7304 10.71 17.0875C10.71 18.4446 11.7039 19.5486 12.9256 19.5486C14.1474 19.5486 15.1413 18.4446 15.1413 17.0875C15.1413 15.7304 14.1473 14.6263 12.9256 14.6263ZM12.9256 18.1423C12.4869 18.1423 12.1162 17.6593 12.1162 17.0875C12.1162 16.5157 12.4869 16.0326 12.9256 16.0326C13.3644 16.0326 13.735 16.5157 13.735 17.0875C13.735 17.6593 13.3643 18.1423 12.9256 18.1423Z" fill="white"/>
</svg>
