<svg width="25" height="24" viewBox="0 0 25 24" fill="none" xmlns="http://www.w3.org/2000/svg">
<g clip-path="url(#clip0_4904_49442)">
<mask id="path-1-inside-1_4904_49442" fill="white">
<path d="M20.7802 0C18.7302 0 17.0102 1.47 16.6402 3.42C16.6402 3.42 16.6402 3.42 16.6402 3.43C16.5902 3.69 16.5702 3.95 16.5702 4.22V8.49C16.5702 10.82 18.4602 12.71 20.7902 12.71C23.1202 12.71 25.0102 10.82 25.0102 8.49V4.22C25.0102 1.89 23.1202 0 20.7902 0H20.7802ZM17.9702 4.27H18.6302C19.0202 4.27 19.3302 4.59 19.3302 4.97C19.3302 5.35 19.6402 5.67 20.0302 5.67C20.4202 5.67 20.7302 5.99 20.7302 6.37C20.7302 6.75 20.4102 7.07 20.0302 7.07H17.9702V4.26V4.27ZM23.5902 8.49C23.5902 10.04 22.3302 11.3 20.7802 11.3C19.2302 11.3 17.9702 10.04 17.9702 8.49H20.0302C21.1902 8.49 22.1402 7.54 22.1402 6.38C22.1402 5.43 21.5102 4.62 20.6402 4.36C20.3802 3.49 19.5702 2.86 18.6202 2.86H18.3202C18.8002 1.99 19.7202 1.41 20.7802 1.41C22.3302 1.41 23.5902 2.67 23.5902 4.22V8.49Z"/>
</mask>
<path d="M20.7802 0C18.7302 0 17.0102 1.47 16.6402 3.42C16.6402 3.42 16.6402 3.42 16.6402 3.43C16.5902 3.69 16.5702 3.95 16.5702 4.22V8.49C16.5702 10.82 18.4602 12.71 20.7902 12.71C23.1202 12.71 25.0102 10.82 25.0102 8.49V4.22C25.0102 1.89 23.1202 0 20.7902 0H20.7802ZM17.9702 4.27H18.6302C19.0202 4.27 19.3302 4.59 19.3302 4.97C19.3302 5.35 19.6402 5.67 20.0302 5.67C20.4202 5.67 20.7302 5.99 20.7302 6.37C20.7302 6.75 20.4102 7.07 20.0302 7.07H17.9702V4.26V4.27ZM23.5902 8.49C23.5902 10.04 22.3302 11.3 20.7802 11.3C19.2302 11.3 17.9702 10.04 17.9702 8.49H20.0302C21.1902 8.49 22.1402 7.54 22.1402 6.38C22.1402 5.43 21.5102 4.62 20.6402 4.36C20.3802 3.49 19.5702 2.86 18.6202 2.86H18.3202C18.8002 1.99 19.7202 1.41 20.7802 1.41C22.3302 1.41 23.5902 2.67 23.5902 4.22V8.49Z" fill="#101010"/>
<path d="M16.6402 3.42H14.3559L18.8845 3.84584L16.6402 3.42ZM16.6402 3.43L18.8834 3.86139L18.9245 3.64765V3.43H16.6402ZM17.9702 4.27H15.6859V6.55432H17.9702V4.27ZM17.9702 7.07H15.6859V9.35432H17.9702V7.07ZM17.9702 8.49V6.20568H15.6859V8.49H17.9702ZM20.6402 4.36L18.4515 5.01409L18.8046 6.19558L19.9861 6.54867L20.6402 4.36ZM18.3202 2.86L16.3201 1.7565L14.4509 5.14432H18.3202V2.86ZM20.7802 -2.28432C17.6179 -2.28432 14.9677 -0.0193108 14.3959 2.99416L18.8845 3.84584C19.0527 2.95931 19.8424 2.28432 20.7802 2.28432V-2.28432ZM16.6402 3.42C18.9245 3.42 16.6402 3.42 14.3559 3.42C14.3559 3.42 14.3559 3.42 14.3559 3.42C14.3559 3.42 14.3559 3.42 14.3559 3.42C14.3559 3.42 14.3559 3.42 14.3559 3.42C14.3559 3.42 14.3559 3.42 14.3559 3.42C14.3559 3.42 14.3559 3.42 14.3559 3.42C14.3559 3.42 14.3559 3.42 14.3559 3.42C14.3559 3.42 14.3559 3.42 14.3559 3.42C14.3559 3.42 14.3559 3.42 14.3559 3.42C14.3559 3.42 14.3559 3.42 14.3559 3.42C14.3559 3.42 14.3559 3.42 14.3559 3.42C14.3559 3.42 14.3559 3.42 14.3559 3.42C14.3559 3.42 14.3559 3.42 14.3559 3.42C14.3559 3.42 14.3559 3.42 14.3559 3.42C14.3559 3.42 14.3559 3.42 14.3559 3.42C14.3559 3.42 14.3559 3.42 14.3559 3.42C14.3559 3.42 14.3559 3.42 14.3559 3.42C14.3559 3.42 14.3559 3.42 14.3559 3.42C14.3559 3.42 14.3559 3.42 14.3559 3.42C14.3559 3.42 14.3559 3.42 14.3559 3.42C14.3559 3.42 14.3559 3.42 14.3559 3.42C14.3559 3.42 14.3559 3.42 14.3559 3.42C14.3559 3.42 14.3559 3.42 14.3559 3.42C14.3559 3.42 14.3559 3.42 14.3559 3.42C14.3559 3.42 14.3559 3.42 14.3559 3.42C14.3559 3.42 14.3559 3.42 14.3559 3.42C14.3559 3.42 14.3559 3.42 14.3559 3.42C14.3559 3.42 14.3559 3.42 14.3559 3.42C14.3559 3.42 14.3559 3.42 14.3559 3.42C14.3559 3.42 14.3559 3.42 14.3559 3.42C14.3559 3.42 14.3559 3.42 14.3559 3.42C14.3559 3.42 14.3559 3.42 14.3559 3.42C14.3559 3.42 14.3559 3.42 14.3559 3.42C14.3559 3.42 14.3559 3.42 14.3559 3.42C14.3559 3.42 14.3559 3.42 14.3559 3.42C14.3559 3.42 14.3559 3.42 14.3559 3.42C14.3559 3.42 14.3559 3.42 14.3559 3.42C14.3559 3.42 14.3559 3.42 14.3559 3.42C14.3559 3.42 14.3559 3.42 14.3559 3.42C14.3559 3.42 14.3559 3.42 14.3559 3.42C14.3559 3.42 14.3559 3.42001 14.3559 3.42001C14.3559 3.42001 14.3559 3.42001 14.3559 3.42001C14.3559 3.42001 14.3559 3.42001 14.3559 3.42001C14.3559 3.42001 14.3559 3.42001 14.3559 3.42001C14.3559 3.42001 14.3559 3.42001 14.3559 3.42001C14.3559 3.42001 14.3559 3.42001 14.3559 3.42001C14.3559 3.42001 14.3559 3.42001 14.3559 3.42001C14.3559 3.42001 14.3559 3.42001 14.3559 3.42001C14.3559 3.42001 14.3559 3.42001 14.3559 3.42001C14.3559 3.42001 14.3559 3.42001 14.3559 3.42001C14.3559 3.42001 14.3559 3.42001 14.3559 3.42001C14.3559 3.42001 14.3559 3.42001 14.3559 3.42001C14.3559 3.42001 14.3559 3.42001 14.3559 3.42001C14.3559 3.42001 14.3559 3.42001 14.3559 3.42001C14.3559 3.42001 14.3559 3.42001 14.3559 3.42001C14.3559 3.42001 14.3559 3.42001 14.3559 3.42001C14.3559 3.42001 14.3559 3.42001 14.3559 3.42001C14.3559 3.42001 14.3559 3.42001 14.3559 3.42001C14.3559 3.42001 14.3559 3.42002 14.3559 3.42002C14.3559 3.42002 14.3559 3.42002 14.3559 3.42002C14.3559 3.42002 14.3559 3.42002 14.3559 3.42002C14.3559 3.42002 14.3559 3.42002 14.3559 3.42002C14.3559 3.42002 14.3559 3.42002 14.3559 3.42002C14.3559 3.42002 14.3559 3.42002 14.3559 3.42002C14.3559 3.42002 14.3559 3.42002 14.3559 3.42002C14.3559 3.42002 14.3559 3.42002 14.3559 3.42002C14.3559 3.42002 14.3559 3.42002 14.3559 3.42002C14.3559 3.42002 14.3559 3.42002 14.3559 3.42002C14.3559 3.42002 14.3559 3.42002 14.3559 3.42002C14.3559 3.42002 14.3559 3.42003 14.3559 3.42003C14.3559 3.42003 14.3559 3.42003 14.3559 3.42003C14.3559 3.42003 14.3559 3.42003 14.3559 3.42003C14.3559 3.42003 14.3559 3.42003 14.3559 3.42003C14.3559 3.42003 14.3559 3.42003 14.3559 3.42003C14.3559 3.42003 14.3559 3.42003 14.3559 3.42003C14.3559 3.42003 14.3559 3.42003 14.3559 3.42003C14.3559 3.42003 14.3559 3.42003 14.3559 3.42003C14.3559 3.42003 14.3559 3.42003 14.3559 3.42004C14.3559 3.42004 14.3559 3.42004 14.3559 3.42004C14.3559 3.42004 14.3559 3.42004 14.3559 3.42004C14.3559 3.42004 14.3559 3.42004 14.3559 3.42004C14.3559 3.42004 14.3559 3.42004 14.3559 3.42004C14.3559 3.42004 14.3559 3.42004 14.3559 3.42004C14.3559 3.42004 14.3559 3.42004 14.3559 3.42004C14.3559 3.42004 14.3559 3.42005 14.3559 3.42005C14.3559 3.42005 14.3559 3.42005 14.3559 3.42005C14.3559 3.42005 14.3559 3.42005 14.3559 3.42005C14.3559 3.42005 14.3559 3.42005 14.3559 3.42005C14.3559 3.42005 14.3559 3.42005 14.3559 3.42005C14.3559 3.42005 14.3559 3.42005 14.3559 3.42005C14.3559 3.42005 14.3559 3.42006 14.3559 3.42006C14.3559 3.42006 14.3559 3.42006 14.3559 3.42006C14.3559 3.42006 14.3559 3.42006 14.3559 3.42006C14.3559 3.42006 14.3559 3.42006 14.3559 3.42006C14.3559 3.42006 14.3559 3.42006 14.3559 3.42006C14.3559 3.42006 14.3559 3.42007 14.3559 3.42007C14.3559 3.42007 14.3559 3.42007 14.3559 3.42007C14.3559 3.42007 14.3559 3.42007 14.3559 3.42007C14.3559 3.42007 14.3559 3.42007 14.3559 3.42007C14.3559 3.42007 14.3559 3.42007 14.3559 3.42007C14.3559 3.42008 14.3559 3.42008 14.3559 3.42008C14.3559 3.42008 14.3559 3.42008 14.3559 3.42008C14.3559 3.42008 14.3559 3.42008 14.3559 3.42008C14.3559 3.42008 14.3559 3.42008 14.3559 3.42008C14.3559 3.42008 14.3559 3.42009 14.3559 3.42009C14.3559 3.42009 14.3559 3.42009 14.3559 3.42009C14.3559 3.42009 14.3559 3.42009 14.3559 3.42009C14.3559 3.42009 14.3559 3.42009 14.3559 3.42009C14.3559 3.42009 14.3559 3.4201 14.3559 3.4201C14.3559 3.4201 14.3559 3.4201 14.3559 3.4201C14.3559 3.4201 14.3559 3.4201 14.3559 3.4201C14.3559 3.4201 14.3559 3.4201 14.3559 3.4201C14.3559 3.42011 14.3559 3.42011 14.3559 3.42011C14.3559 3.42011 14.3559 3.42011 14.3559 3.42011C14.3559 3.42011 14.3559 3.42011 14.3559 3.42011C14.3559 3.42011 14.3559 3.42012 14.3559 3.42012C14.3559 3.42012 14.3559 3.42012 14.3559 3.42012C14.3559 3.42012 14.3559 3.42012 14.3559 3.42012C14.3559 3.42012 14.3559 3.42012 14.3559 3.42013C14.3559 3.42013 14.3559 3.42013 14.3559 3.42013C14.3559 3.42013 14.3559 3.42013 14.3559 3.42013C14.3559 3.42013 14.3559 3.42013 14.3559 3.42014C14.3559 3.42014 14.3559 3.42014 14.3559 3.42014C14.3559 3.42014 14.3559 3.42014 14.3559 3.42014C14.3559 3.42014 14.3559 3.42014 14.3559 3.42015C14.3559 3.42015 14.3559 3.42015 14.3559 3.42015C14.3559 3.42015 14.3559 3.42015 14.3559 3.42015C14.3559 3.42015 14.3559 3.42016 14.3559 3.42016C14.3559 3.42016 14.3559 3.42016 14.3559 3.42016C14.3559 3.42016 14.3559 3.42016 14.3559 3.42016C14.3559 3.42017 14.3559 3.42017 14.3559 3.42017C14.3559 3.42017 14.3559 3.42017 14.3559 3.42017C14.3559 3.42017 14.3559 3.42017 14.3559 3.42018C14.3559 3.42018 14.3559 3.42018 14.3559 3.42018C14.3559 3.42018 14.3559 3.42018 14.3559 3.42018C14.3559 3.42018 14.3559 3.42019 14.3559 3.42019C14.3559 3.42019 14.3559 3.42019 14.3559 3.42019C14.3559 3.42019 14.3559 3.42019 14.3559 3.4202C14.3559 3.4202 14.3559 3.4202 14.3559 3.4202C14.3559 3.4202 14.3559 3.4202 14.3559 3.4202C14.3559 3.42021 14.3559 3.42021 14.3559 3.42021C14.3559 3.42021 14.3559 3.42021 14.3559 3.42021C14.3559 3.42021 14.3559 3.42022 14.3559 3.42022C14.3559 3.42022 14.3559 3.42022 14.3559 3.42022C14.3559 3.42022 14.3559 3.42023 14.3559 3.42023C14.3559 3.42023 14.3559 3.42023 14.3559 3.42023C14.3559 3.42023 14.3559 3.42024 14.3559 3.42024C14.3559 3.42024 14.3559 3.42024 14.3559 3.42024C14.3559 3.42024 14.3559 3.42024 14.3559 3.42025C14.3559 3.42025 14.3559 3.42025 14.3559 3.42025C14.3559 3.42025 14.3559 3.42025 14.3559 3.42026C14.3559 3.42026 14.3559 3.42026 14.3559 3.42026C14.3559 3.42026 14.3559 3.42027 14.3559 3.42027C14.3559 3.42027 14.3559 3.42027 14.3559 3.42027C14.3559 3.42027 14.3559 3.42028 14.3559 3.42028C14.3559 3.42028 14.3559 3.42028 14.3559 3.42028C14.3559 3.42028 14.3559 3.42029 14.3559 3.42029C14.3559 3.42029 14.3559 3.42029 14.3559 3.42029C14.3559 3.4203 14.3559 3.4203 14.3559 3.4203C14.3559 3.4203 14.3559 3.4203 14.3559 3.42031C14.3559 3.42031 14.3559 3.42031 14.3559 3.42031C14.3559 3.42031 14.3559 3.42031 14.3559 3.42032C14.3559 3.42032 14.3559 3.42032 14.3559 3.42032C14.3559 3.42032 14.3559 3.42033 14.3559 3.42033C14.3559 3.42033 14.3559 3.42033 14.3559 3.42033C14.3559 3.42034 14.3559 3.42034 14.3559 3.42034C14.3559 3.42034 14.3559 3.42035 14.3559 3.42035C14.3559 3.42035 14.3559 3.42035 14.3559 3.42035C14.3559 3.42036 14.3559 3.42036 14.3559 3.42036C14.3559 3.42036 14.3559 3.42036 14.3559 3.42037C14.3559 3.42037 14.3559 3.42037 14.3559 3.42037C14.3559 3.42037 14.3559 3.42038 14.3559 3.42038C14.3559 3.42038 14.3559 3.42038 14.3559 3.42039C14.3559 3.42039 14.3559 3.42039 14.3559 3.42039C14.3559 3.42039 14.3559 3.4204 14.3559 3.4204C14.3559 3.4204 14.3559 3.4204 14.3559 3.42041C14.3559 3.42041 14.3559 3.42041 14.3559 3.42041C14.3559 3.42042 14.3559 3.42042 14.3559 3.42042C14.3559 3.42042 14.3559 3.42043 14.3559 3.42043C14.3559 3.42043 14.3559 3.42043 14.3559 3.42043C14.3559 3.42044 14.3559 3.42044 14.3559 3.42044C14.3559 3.42044 14.3559 3.42045 14.3559 3.42045C14.3559 3.42045 14.3559 3.42045 14.3559 3.42046C14.3559 3.42046 14.3559 3.42046 14.3559 3.42046C14.3559 3.42047 14.3559 3.42047 14.3559 3.42047C14.3559 3.42047 14.3559 3.42048 14.3559 3.42048C14.3559 3.42048 14.3559 3.42048 14.3559 3.42049C14.3559 3.42049 14.3559 3.42049 14.3559 3.4205C14.3559 3.4205 14.3559 3.4205 14.3559 3.4205C14.3559 3.42051 14.3559 3.42051 14.3559 3.42051C14.3559 3.42051 14.3559 3.42052 14.3559 3.42052C14.3559 3.42052 14.3559 3.42052 14.3559 3.42053C14.3559 3.42053 14.3559 3.42053 14.3559 3.42054C14.3559 3.42054 14.3559 3.42054 14.3559 3.42054C14.3559 3.42055 14.3559 3.42055 14.3559 3.42055C14.3559 3.42056 14.3559 3.42056 14.3559 3.42056C14.3559 3.42056 14.3559 3.42057 14.3559 3.42057C14.3559 3.42057 14.3559 3.42058 14.3559 3.42058C14.3559 3.42058 14.3559 3.42058 14.3559 3.42059C14.3559 3.42059 14.3559 3.42059 14.3559 3.4206C14.3559 3.4206 14.3559 3.4206 14.3559 3.42061C14.3559 3.42061 14.3559 3.42061 14.3559 3.42061C14.3559 3.42062 14.3559 3.42062 14.3559 3.42062C14.3559 3.42063 14.3559 3.42063 14.3559 3.42063C14.3559 3.42064 14.3559 3.42064 14.3559 3.42064C14.3559 3.42065 14.3559 3.42065 14.3559 3.42065C14.3559 3.42065 14.3559 3.42066 14.3559 3.42066C14.3559 3.42066 14.3559 3.42067 14.3559 3.42067C14.3559 3.42067 14.3559 3.42068 14.3559 3.42068C14.3559 3.42068 14.3559 3.42069 14.3559 3.42069C14.3559 3.42069 14.3559 3.4207 14.3559 3.4207C14.3559 3.4207 14.3559 3.42071 14.3559 3.42071C14.3559 3.42071 14.3559 3.42072 14.3559 3.42072C14.3559 3.42072 14.3559 3.42073 14.3559 3.42073C14.3559 3.42073 14.3559 3.42074 14.3559 3.42074C14.3559 3.42074 14.3559 3.42075 14.3559 3.42075C14.3559 3.42075 14.3559 3.42076 14.3559 3.42076C14.3559 3.42076 14.3559 3.42077 14.3559 3.42077C14.3559 3.42078 14.3559 3.42078 14.3559 3.42078C14.3559 3.42079 14.3559 3.42079 14.3559 3.42079C14.3559 3.4208 14.3559 3.4208 14.3559 3.4208C14.3559 3.42081 14.3559 3.42081 14.3559 3.42082C14.3559 3.42082 14.3559 3.42082 14.3559 3.42083C14.3559 3.42083 14.3559 3.42083 14.3559 3.42084C14.3559 3.42084 14.3559 3.42084 14.3559 3.42085C14.3559 3.42085 14.3559 3.42086 14.3559 3.42086C14.3559 3.42086 14.3559 3.42087 14.3559 3.42087C14.3559 3.42088 14.3559 3.42088 14.3559 3.42088C14.3559 3.42089 14.3559 3.42089 14.3559 3.42089C14.3559 3.4209 14.3559 3.4209 14.3559 3.42091C14.3559 3.42091 14.3559 3.42091 14.3559 3.42092C14.3559 3.42092 14.3559 3.42093 14.3559 3.42093C14.3559 3.42093 14.3559 3.42094 14.3559 3.42094C14.3559 3.42095 14.3559 3.42095 14.3559 3.42095C14.3559 3.42096 14.3559 3.42096 14.3559 3.42097C14.3559 3.42097 14.3559 3.42098 14.3559 3.42098C14.3559 3.42098 14.3559 3.42099 14.3559 3.42099C14.3559 3.421 14.3559 3.421 14.3559 3.421C14.3559 3.42101 14.3559 3.42101 14.3559 3.42102C14.3559 3.42102 14.3559 3.42103 14.3559 3.42103C14.3559 3.42103 14.3559 3.42104 14.3559 3.42104C14.3559 3.42105 14.3559 3.42105 14.3559 3.42106C14.3559 3.42106 14.3559 3.42106 14.3559 3.42107C14.3559 3.42107 14.3559 3.42108 14.3559 3.42108C14.3559 3.42109 14.3559 3.42109 14.3559 3.4211C14.3559 3.4211 14.3559 3.4211 14.3559 3.42111C14.3559 3.42111 14.3559 3.42112 14.3559 3.42112C14.3559 3.42113 14.3559 3.42113 14.3559 3.42114C14.3559 3.42114 14.3559 3.42115 14.3559 3.42115C14.3559 3.42115 14.3559 3.42116 14.3559 3.42116C14.3559 3.42117 14.3559 3.42117 14.3559 3.42118C14.3559 3.42118 14.3559 3.42119 14.3559 3.42119C14.3559 3.4212 14.3559 3.4212 14.3559 3.42121C14.3559 3.42121 14.3559 3.42122 14.3559 3.42122C14.3559 3.42123 14.3559 3.42123 14.3559 3.42124C14.3559 3.42124 14.3559 3.42125 14.3559 3.42125C14.3559 3.42125 14.3559 3.42126 14.3559 3.42126C14.3559 3.42127 14.3559 3.42127 14.3559 3.42128C14.3559 3.42128 14.3559 3.42129 14.3559 3.42129C14.3559 3.4213 14.3559 3.4213 14.3559 3.42131C14.3559 3.42131 14.3559 3.42132 14.3559 3.42132C14.3559 3.42133 14.3559 3.42133 14.3559 3.42134C14.3559 3.42135 14.3559 3.42135 14.3559 3.42136C14.3559 3.42136 14.3559 3.42137 14.3559 3.42137C14.3559 3.42138 14.3559 3.42138 14.3559 3.42139C14.3559 3.42139 14.3559 3.4214 14.3559 3.4214C14.3559 3.42141 14.3559 3.42141 14.3559 3.42142C14.3559 3.42142 14.3559 3.42143 14.3559 3.42143C14.3559 3.42144 14.3559 3.42144 14.3559 3.42145C14.3559 3.42146 14.3559 3.42146 14.3559 3.42147C14.3559 3.42147 14.3559 3.42148 14.3559 3.42148C14.3559 3.42149 14.3559 3.42149 14.3559 3.4215C14.3559 3.4215 14.3559 3.42151 14.3559 3.42152C14.3559 3.42152 14.3559 3.42153 14.3559 3.42153C14.3559 3.42154 14.3559 3.42154 14.3559 3.42155C14.3559 3.42156 14.3559 3.42156 14.3559 3.42157C14.3559 3.42157 14.3559 3.42158 14.3559 3.42158C14.3559 3.42159 14.3559 3.4216 14.3559 3.4216C14.3559 3.42161 14.3559 3.42161 14.3559 3.42162C14.3559 3.42162 14.3559 3.42163 14.3559 3.42164C14.3559 3.42164 14.3559 3.42165 14.3559 3.42165C14.3559 3.42166 14.3559 3.42166 14.3559 3.42167C14.3559 3.42168 14.3559 3.42168 14.3559 3.42169C14.3559 3.42169 14.3559 3.4217 14.3559 3.42171C14.3559 3.42171 14.3559 3.42172 14.3559 3.42172C14.3559 3.42173 14.3559 3.42174 14.3559 3.42174C14.3559 3.42175 14.3559 3.42176 14.3559 3.42176C14.3559 3.42177 14.3559 3.42177 14.3559 3.42178C14.3559 3.42179 14.3559 3.42179 14.3559 3.4218C14.3559 3.4218 14.3559 3.42181 14.3559 3.42182C14.3559 3.42182 14.3559 3.42183 14.3559 3.42184C14.3559 3.42184 14.3559 3.42185 14.3559 3.42186C14.3559 3.42186 14.3559 3.42187 14.3559 3.42187C14.3559 3.42188 14.3559 3.42189 14.3559 3.42189C14.3559 3.4219 14.3559 3.42191 14.3559 3.42191C14.3559 3.42192 14.3559 3.42193 14.3559 3.42193C14.3559 3.42194 14.3559 3.42195 14.3559 3.42195C14.3559 3.42196 14.3559 3.42197 14.3559 3.42197C14.3559 3.42198 14.3559 3.42199 14.3559 3.42199C14.3559 3.422 14.3559 3.42201 14.3559 3.42201C14.3559 3.42202 14.3559 3.42203 14.3559 3.42203C14.3559 3.42204 14.3559 3.42205 14.3559 3.42205C14.3559 3.42206 14.3559 3.42207 14.3559 3.42207C14.3559 3.42208 14.3559 3.42209 14.3559 3.42209C14.3559 3.4221 14.3559 3.42211 14.3559 3.42211C14.3559 3.42212 14.3559 3.42213 14.3559 3.42213C14.3559 3.42214 14.3559 3.42215 14.3559 3.42216C14.3559 3.42216 14.3559 3.42217 14.3559 3.42218C14.3559 3.42218 14.3559 3.42219 14.3559 3.4222C14.3559 3.42221 14.3559 3.42221 14.3559 3.42222C14.3559 3.42223 14.3559 3.42223 14.3559 3.42224C14.3559 3.42225 14.3559 3.42226 14.3559 3.42226C14.3559 3.42227 14.3559 3.42228 14.3559 3.42228C14.3559 3.42229 14.3559 3.4223 14.3559 3.42231C14.3559 3.42231 14.3559 3.42232 14.3559 3.42233C14.3559 3.42234 14.3559 3.42234 14.3559 3.42235C14.3559 3.42236 14.3559 3.42237 14.3559 3.42237C14.3559 3.42238 14.3559 3.42239 14.3559 3.4224C14.3559 3.4224 14.3559 3.42241 14.3559 3.42242C14.3559 3.42243 14.3559 3.42243 14.3559 3.42244C14.3559 3.42245 14.3559 3.42246 14.3559 3.42246C14.3559 3.42247 14.3559 3.42248 14.3559 3.42249C14.3559 3.4225 14.3559 3.4225 14.3559 3.42251C14.3559 3.42252 14.3559 3.42253 14.3559 3.42253C14.3559 3.42254 14.3559 3.42255 14.3559 3.42256C14.3559 3.42257 14.3559 3.42257 14.3559 3.42258C14.3559 3.42259 14.3559 3.4226 14.3559 3.42261C14.3559 3.42261 14.3559 3.42262 14.3559 3.42263C14.3559 3.42264 14.3559 3.42265 14.3559 3.42265C14.3559 3.42266 14.3559 3.42267 14.3559 3.42268C14.3559 3.42269 14.3559 3.42269 14.3559 3.4227C14.3559 3.42271 14.3559 3.42272 14.3559 3.42273C14.3559 3.42273 14.3559 3.42274 14.3559 3.42275C14.3559 3.42276 14.3559 3.42277 14.3559 3.42278C14.3559 3.42278 14.3559 3.42279 14.3559 3.4228C14.3559 3.42281 14.3559 3.42282 14.3559 3.42283C14.3559 3.42283 14.3559 3.42284 14.3559 3.42285C14.3559 3.42286 14.3559 3.42287 14.3559 3.42288C14.3559 3.42289 14.3559 3.42289 14.3559 3.4229C14.3559 3.42291 14.3559 3.42292 14.3559 3.42293C14.3559 3.42294 14.3559 3.42295 14.3559 3.42295C14.3559 3.42296 14.3559 3.42297 14.3559 3.42298C14.3559 3.42299 14.3559 3.423 14.3559 3.42301C14.3559 3.42302 14.3559 3.42302 14.3559 3.42303C14.3559 3.42304 14.3559 3.42305 14.3559 3.42306C14.3559 3.42307 14.3559 3.42308 14.3559 3.42309C14.3559 3.4231 14.3559 3.4231 14.3559 3.42311C14.3559 3.42312 14.3559 3.42313 14.3559 3.42314C14.3559 3.42315 14.3559 3.42316 14.3559 3.42317C14.3559 3.42318 14.3559 3.42319 14.3559 3.42319C14.3559 3.4232 14.3559 3.42321 14.3559 3.42322C14.3559 3.42323 14.3559 3.42324 14.3559 3.42325C14.3559 3.42326 14.3559 3.42327 14.3559 3.42328C14.3559 3.42329 14.3559 3.4233 14.3559 3.42331C14.3559 3.42331 14.3559 3.42332 14.3559 3.42333C14.3559 3.42334 14.3559 3.42335 14.3559 3.42336C14.3559 3.42337 14.3559 3.42338 14.3559 3.42339C14.3559 3.4234 14.3559 3.42341 14.3559 3.42342C14.3559 3.42343 14.3559 3.42344 14.3559 3.42345C14.3559 3.42346 14.3559 3.42347 14.3559 3.42348C14.3559 3.42349 14.3559 3.4235 14.3559 3.42351C14.3559 3.42351 14.3559 3.42352 14.3559 3.42353C14.3559 3.42354 14.3559 3.42355 14.3559 3.42356C14.3559 3.42357 14.3559 3.42358 14.3559 3.42359C14.3559 3.4236 14.3559 3.42361 14.3559 3.42362C14.3559 3.42363 14.3559 3.42364 14.3559 3.42365C14.3559 3.42366 14.3559 3.42367 14.3559 3.42368C14.3559 3.42369 14.3559 3.4237 14.3559 3.42371C14.3559 3.42372 14.3559 3.42373 14.3559 3.42374C14.3559 3.42375 14.3559 3.42376 14.3559 3.42377C14.3559 3.42378 14.3559 3.42379 14.3559 3.4238C14.3559 3.42381 14.3559 3.42383 14.3559 3.42384C14.3559 3.42385 14.3559 3.42386 14.3559 3.42387C14.3559 3.42388 14.3559 3.42389 14.3559 3.4239C14.3559 3.42391 14.3559 3.42392 14.3559 3.42393C14.3559 3.42394 14.3559 3.42395 14.3559 3.42396C14.3559 3.42397 14.3559 3.42398 14.3559 3.42399C14.3559 3.424 14.3559 3.42401 14.3559 3.42402C14.3559 3.42403 14.3559 3.42405 14.3559 3.42406C14.3559 3.42407 14.3559 3.42408 14.3559 3.42409C14.3559 3.4241 14.3559 3.42411 14.3559 3.42412C14.3559 3.42413 14.3559 3.42414 14.3559 3.42415C14.3559 3.42416 14.3559 3.42418 14.3559 3.42419C14.3559 3.4242 14.3559 3.42421 14.3559 3.42422C14.3559 3.42423 14.3559 3.42424 14.3559 3.42425C14.3559 3.42426 14.3559 3.42427 14.3559 3.42429C14.3559 3.4243 14.3559 3.42431 14.3559 3.42432C14.3559 3.42433 14.3559 3.42434 14.3559 3.42435C14.3559 3.42436 14.3559 3.42437 14.3559 3.42439C14.3559 3.4244 14.3559 3.42441 14.3559 3.42442C14.3559 3.42443 14.3559 3.42444 14.3559 3.42445C14.3559 3.42447 14.3559 3.42448 14.3559 3.42449C14.3559 3.4245 14.3559 3.42451 14.3559 3.42452C14.3559 3.42453 14.3559 3.42455 14.3559 3.42456C14.3559 3.42457 14.3559 3.42458 14.3559 3.42459C14.3559 3.4246 14.3559 3.42462 14.3559 3.42463C14.3559 3.42464 14.3559 3.42465 14.3559 3.42466C14.3559 3.42467 14.3559 3.42469 14.3559 3.4247C14.3559 3.42471 14.3559 3.42472 14.3559 3.42473C14.3559 3.42474 14.3559 3.42476 14.3559 3.42477C14.3559 3.42478 14.3559 3.42479 14.3559 3.4248C14.3559 3.42482 14.3559 3.42483 14.3559 3.42484C14.3559 3.42485 14.3559 3.42486 14.3559 3.42488C14.3559 3.42489 14.3559 3.4249 14.3559 3.42491C14.3559 3.42493 14.3559 3.42494 14.3559 3.42495C14.3559 3.42496 14.3559 3.42497 14.3559 3.42499C14.3559 3.425 14.3559 3.42501 14.3559 3.42502C14.3559 3.42504 14.3559 3.42505 14.3559 3.42506C14.3559 3.42507 14.3559 3.42509 14.3559 3.4251C14.3559 3.42511 14.3559 3.42512 14.3559 3.42514C14.3559 3.42515 14.3559 3.42516 14.3559 3.42517C14.3559 3.42519 14.3559 3.4252 14.3559 3.42521C14.3559 3.42522 14.3559 3.42524 14.3559 3.42525C14.3559 3.42526 14.3559 3.42527 14.3559 3.42529C14.3559 3.4253 14.3559 3.42531 14.3559 3.42533C14.3559 3.42534 14.3559 3.42535 14.3559 3.42536C14.3559 3.42538 14.3559 3.42539 14.3559 3.4254C14.3559 3.42542 14.3559 3.42543 14.3559 3.42544C14.3559 3.42545 14.3559 3.42547 14.3559 3.42548C14.3559 3.42549 14.3559 3.42551 14.3559 3.42552C14.3559 3.42553 14.3559 3.42555 14.3559 3.42556C14.3559 3.42557 14.3559 3.42559 14.3559 3.4256C14.3559 3.42561 14.3559 3.42563 14.3559 3.42564C14.3559 3.42565 14.3559 3.42567 14.3559 3.42568C14.3559 3.42569 14.3559 3.42571 14.3559 3.42572C14.3559 3.42573 14.3559 3.42575 14.3559 3.42576C14.3559 3.42577 14.3559 3.42579 14.3559 3.4258C14.3559 3.42581 14.3559 3.42583 14.3559 3.42584C14.3559 3.42586 14.3559 3.42587 14.3559 3.42588C14.3559 3.4259 14.3559 3.42591 14.3559 3.42592C14.3559 3.42594 14.3559 3.42595 14.3559 3.42597C14.3559 3.42598 14.3559 3.42599 14.3559 3.42601C14.3559 3.42602 14.3559 3.42603 14.3559 3.42605C14.3559 3.42606 14.3559 3.42608 14.3559 3.42609C14.3559 3.4261 14.3559 3.42612 14.3559 3.42613C14.3559 3.42615 14.3559 3.42616 14.3559 3.42618C14.3559 3.42619 14.3559 3.4262 14.3559 3.42622C14.3559 3.42623 14.3559 3.42625 14.3559 3.42626C14.3559 3.42627 14.3559 3.42629 14.3559 3.4263C14.3559 3.42632 14.3559 3.42633 14.3559 3.42635C14.3559 3.42636 14.3559 3.42638 14.3559 3.42639C14.3559 3.4264 14.3559 3.42642 14.3559 3.42643C14.3559 3.42645 14.3559 3.42646 14.3559 3.42648C14.3559 3.42649 14.3559 3.42651 14.3559 3.42652C14.3559 3.42654 14.3559 3.42655 14.3559 3.42657C14.3559 3.42658 14.3559 3.4266 14.3559 3.42661C14.3559 3.42662 14.3559 3.42664 14.3559 3.42665C14.3559 3.42667 14.3559 3.42668 14.3559 3.4267C14.3559 3.42671 14.3559 3.42673 14.3559 3.42674C14.3559 3.42676 14.3559 3.42677 14.3559 3.42679C14.3559 3.4268 14.3559 3.42682 14.3559 3.42683C14.3559 3.42685 14.3559 3.42687 14.3559 3.42688C14.3559 3.4269 14.3559 3.42691 14.3559 3.42693C14.3559 3.42694 14.3559 3.42696 14.3559 3.42697C14.3559 3.42699 14.3559 3.427 14.3559 3.42702C14.3559 3.42703 14.3559 3.42705 14.3559 3.42706C14.3559 3.42708 14.3559 3.4271 14.3559 3.42711C14.3559 3.42713 14.3559 3.42714 14.3559 3.42716C14.3559 3.42717 14.3559 3.42719 14.3559 3.4272C14.3559 3.42722 14.3559 3.42724 14.3559 3.42725C14.3559 3.42727 14.3559 3.42728 14.3559 3.4273C14.3559 3.42732 14.3559 3.42733 14.3559 3.42735C14.3559 3.42736 14.3559 3.42738 14.3559 3.42739C14.3559 3.42741 14.3559 3.42743 14.3559 3.42744C14.3559 3.42746 14.3559 3.42748 14.3559 3.42749C14.3559 3.42751 14.3559 3.42752 14.3559 3.42754C14.3559 3.42756 14.3559 3.42757 14.3559 3.42759C14.3559 3.4276 14.3559 3.42762 14.3559 3.42764C14.3559 3.42765 14.3559 3.42767 14.3559 3.42769C14.3559 3.4277 14.3559 3.42772 14.3559 3.42774C14.3559 3.42775 14.3559 3.42777 14.3559 3.42778C14.3559 3.4278 14.3559 3.42782 14.3559 3.42783C14.3559 3.42785 14.3559 3.42787 14.3559 3.42788C14.3559 3.4279 14.3559 3.42792 14.3559 3.42793C14.3559 3.42795 14.3559 3.42797 14.3559 3.42798C14.3559 3.428 14.3559 3.42802 14.3559 3.42804C14.3559 3.42805 14.3559 3.42807 14.3559 3.42809C14.3559 3.4281 14.3559 3.42812 14.3559 3.42814C14.3559 3.42815 14.3559 3.42817 14.3559 3.42819C14.3559 3.42821 14.3559 3.42822 14.3559 3.42824C14.3559 3.42826 14.3559 3.42827 14.3559 3.42829C14.3559 3.42831 14.3559 3.42833 14.3559 3.42834C14.3559 3.42836 14.3559 3.42838 14.3559 3.4284C14.3559 3.42841 14.3559 3.42843 14.3559 3.42845C14.3559 3.42846 14.3559 3.42848 14.3559 3.4285C14.3559 3.42852 14.3559 3.42854 14.3559 3.42855C14.3559 3.42857 14.3559 3.42859 14.3559 3.42861C14.3559 3.42862 14.3559 3.42864 14.3559 3.42866C14.3559 3.42868 14.3559 3.42869 14.3559 3.42871C14.3559 3.42873 14.3559 3.42875 14.3559 3.42877C14.3559 3.42878 14.3559 3.4288 14.3559 3.42882C14.3559 3.42884 14.3559 3.42886 14.3559 3.42887C14.3559 3.42889 14.3559 3.42891 14.3559 3.42893C14.3559 3.42895 14.3559 3.42896 14.3559 3.42898C14.3559 3.429 14.3559 3.42902 14.3559 3.42904C14.3559 3.42905 14.3559 3.42907 14.3559 3.42909C14.3559 3.42911 14.3559 3.42913 14.3559 3.42915C14.3559 3.42917 14.3559 3.42918 14.3559 3.4292C14.3559 3.42922 14.3559 3.42924 14.3559 3.42926C14.3559 3.42928 14.3559 3.42929 14.3559 3.42931C14.3559 3.42933 14.3559 3.42935 14.3559 3.42937C14.3559 3.42939 14.3559 3.42941 14.3559 3.42943C14.3559 3.42944 14.3559 3.42946 14.3559 3.42948C14.3559 3.4295 14.3559 3.42952 14.3559 3.42954C14.3559 3.42956 14.3559 3.42958 14.3559 3.4296C14.3559 3.42961 14.3559 3.42963 14.3559 3.42965C14.3559 3.42967 14.3559 3.42969 14.3559 3.42971C14.3559 3.42973 14.3559 3.42975 14.3559 3.42977C14.3559 3.42979 14.3559 3.42981 14.3559 3.42983C14.3559 3.42984 14.3559 3.42986 14.3559 3.42988C14.3559 3.4299 14.3559 3.42992 14.3559 3.42994C14.3559 3.42996 14.3559 3.42998 14.3559 3.43H18.9245C18.9245 3.42998 18.9245 3.42996 18.9245 3.42994C18.9245 3.42992 18.9245 3.4299 18.9245 3.42988C18.9245 3.42986 18.9245 3.42984 18.9245 3.42983C18.9245 3.42981 18.9245 3.42979 18.9245 3.42977C18.9245 3.42975 18.9245 3.42973 18.9245 3.42971C18.9245 3.42969 18.9245 3.42967 18.9245 3.42965C18.9245 3.42963 18.9245 3.42961 18.9245 3.4296C18.9245 3.42958 18.9245 3.42956 18.9245 3.42954C18.9245 3.42952 18.9245 3.4295 18.9245 3.42948C18.9245 3.42946 18.9245 3.42944 18.9245 3.42943C18.9245 3.42941 18.9245 3.42939 18.9245 3.42937C18.9245 3.42935 18.9245 3.42933 18.9245 3.42931C18.9245 3.42929 18.9245 3.42928 18.9245 3.42926C18.9245 3.42924 18.9245 3.42922 18.9245 3.4292C18.9245 3.42918 18.9245 3.42917 18.9245 3.42915C18.9245 3.42913 18.9245 3.42911 18.9245 3.42909C18.9245 3.42907 18.9245 3.42905 18.9245 3.42904C18.9245 3.42902 18.9245 3.429 18.9245 3.42898C18.9245 3.42896 18.9245 3.42895 18.9245 3.42893C18.9245 3.42891 18.9245 3.42889 18.9245 3.42887C18.9245 3.42886 18.9245 3.42884 18.9245 3.42882C18.9245 3.4288 18.9245 3.42878 18.9245 3.42877C18.9245 3.42875 18.9245 3.42873 18.9245 3.42871C18.9245 3.42869 18.9245 3.42868 18.9245 3.42866C18.9245 3.42864 18.9245 3.42862 18.9245 3.42861C18.9245 3.42859 18.9245 3.42857 18.9245 3.42855C18.9245 3.42854 18.9245 3.42852 18.9245 3.4285C18.9245 3.42848 18.9245 3.42846 18.9245 3.42845C18.9245 3.42843 18.9245 3.42841 18.9245 3.4284C18.9245 3.42838 18.9245 3.42836 18.9245 3.42834C18.9245 3.42833 18.9245 3.42831 18.9245 3.42829C18.9245 3.42827 18.9245 3.42826 18.9245 3.42824C18.9245 3.42822 18.9245 3.42821 18.9245 3.42819C18.9245 3.42817 18.9245 3.42815 18.9245 3.42814C18.9245 3.42812 18.9245 3.4281 18.9245 3.42809C18.9245 3.42807 18.9245 3.42805 18.9245 3.42804C18.9245 3.42802 18.9245 3.428 18.9245 3.42798C18.9245 3.42797 18.9245 3.42795 18.9245 3.42793C18.9245 3.42792 18.9245 3.4279 18.9245 3.42788C18.9245 3.42787 18.9245 3.42785 18.9245 3.42783C18.9245 3.42782 18.9245 3.4278 18.9245 3.42778C18.9245 3.42777 18.9245 3.42775 18.9245 3.42774C18.9245 3.42772 18.9245 3.4277 18.9245 3.42769C18.9245 3.42767 18.9245 3.42765 18.9245 3.42764C18.9245 3.42762 18.9245 3.4276 18.9245 3.42759C18.9245 3.42757 18.9245 3.42756 18.9245 3.42754C18.9245 3.42752 18.9245 3.42751 18.9245 3.42749C18.9245 3.42748 18.9245 3.42746 18.9245 3.42744C18.9245 3.42743 18.9245 3.42741 18.9245 3.42739C18.9245 3.42738 18.9245 3.42736 18.9245 3.42735C18.9245 3.42733 18.9245 3.42732 18.9245 3.4273C18.9245 3.42728 18.9245 3.42727 18.9245 3.42725C18.9245 3.42724 18.9245 3.42722 18.9245 3.4272C18.9245 3.42719 18.9245 3.42717 18.9245 3.42716C18.9245 3.42714 18.9245 3.42713 18.9245 3.42711C18.9245 3.4271 18.9245 3.42708 18.9245 3.42706C18.9245 3.42705 18.9245 3.42703 18.9245 3.42702C18.9245 3.427 18.9245 3.42699 18.9245 3.42697C18.9245 3.42696 18.9245 3.42694 18.9245 3.42693C18.9245 3.42691 18.9245 3.4269 18.9245 3.42688C18.9245 3.42687 18.9245 3.42685 18.9245 3.42683C18.9245 3.42682 18.9245 3.4268 18.9245 3.42679C18.9245 3.42677 18.9245 3.42676 18.9245 3.42674C18.9245 3.42673 18.9245 3.42671 18.9245 3.4267C18.9245 3.42668 18.9245 3.42667 18.9245 3.42665C18.9245 3.42664 18.9245 3.42662 18.9245 3.42661C18.9245 3.4266 18.9245 3.42658 18.9245 3.42657C18.9245 3.42655 18.9245 3.42654 18.9245 3.42652C18.9245 3.42651 18.9245 3.42649 18.9245 3.42648C18.9245 3.42646 18.9245 3.42645 18.9245 3.42643C18.9245 3.42642 18.9245 3.4264 18.9245 3.42639C18.9245 3.42638 18.9245 3.42636 18.9245 3.42635C18.9245 3.42633 18.9245 3.42632 18.9245 3.4263C18.9245 3.42629 18.9245 3.42627 18.9245 3.42626C18.9245 3.42625 18.9245 3.42623 18.9245 3.42622C18.9245 3.4262 18.9245 3.42619 18.9245 3.42618C18.9245 3.42616 18.9245 3.42615 18.9245 3.42613C18.9245 3.42612 18.9245 3.4261 18.9245 3.42609C18.9245 3.42608 18.9245 3.42606 18.9245 3.42605C18.9245 3.42603 18.9245 3.42602 18.9245 3.42601C18.9245 3.42599 18.9245 3.42598 18.9245 3.42597C18.9245 3.42595 18.9245 3.42594 18.9245 3.42592C18.9245 3.42591 18.9245 3.4259 18.9245 3.42588C18.9245 3.42587 18.9245 3.42586 18.9245 3.42584C18.9245 3.42583 18.9245 3.42581 18.9245 3.4258C18.9245 3.42579 18.9245 3.42577 18.9245 3.42576C18.9245 3.42575 18.9245 3.42573 18.9245 3.42572C18.9245 3.42571 18.9245 3.42569 18.9245 3.42568C18.9245 3.42567 18.9245 3.42565 18.9245 3.42564C18.9245 3.42563 18.9245 3.42561 18.9245 3.4256C18.9245 3.42559 18.9245 3.42557 18.9245 3.42556C18.9245 3.42555 18.9245 3.42553 18.9245 3.42552C18.9245 3.42551 18.9245 3.42549 18.9245 3.42548C18.9245 3.42547 18.9245 3.42545 18.9245 3.42544C18.9245 3.42543 18.9245 3.42542 18.9245 3.4254C18.9245 3.42539 18.9245 3.42538 18.9245 3.42536C18.9245 3.42535 18.9245 3.42534 18.9245 3.42533C18.9245 3.42531 18.9245 3.4253 18.9245 3.42529C18.9245 3.42527 18.9245 3.42526 18.9245 3.42525C18.9245 3.42524 18.9245 3.42522 18.9245 3.42521C18.9245 3.4252 18.9245 3.42519 18.9245 3.42517C18.9245 3.42516 18.9245 3.42515 18.9245 3.42514C18.9245 3.42512 18.9245 3.42511 18.9245 3.4251C18.9245 3.42509 18.9245 3.42507 18.9245 3.42506C18.9245 3.42505 18.9245 3.42504 18.9245 3.42502C18.9245 3.42501 18.9245 3.425 18.9245 3.42499C18.9245 3.42497 18.9245 3.42496 18.9245 3.42495C18.9245 3.42494 18.9245 3.42493 18.9245 3.42491C18.9245 3.4249 18.9245 3.42489 18.9245 3.42488C18.9245 3.42486 18.9245 3.42485 18.9245 3.42484C18.9245 3.42483 18.9245 3.42482 18.9245 3.4248C18.9245 3.42479 18.9245 3.42478 18.9245 3.42477C18.9245 3.42476 18.9245 3.42474 18.9245 3.42473C18.9245 3.42472 18.9245 3.42471 18.9245 3.4247C18.9245 3.42469 18.9245 3.42467 18.9245 3.42466C18.9245 3.42465 18.9245 3.42464 18.9245 3.42463C18.9245 3.42462 18.9245 3.4246 18.9245 3.42459C18.9245 3.42458 18.9245 3.42457 18.9245 3.42456C18.9245 3.42455 18.9245 3.42453 18.9245 3.42452C18.9245 3.42451 18.9245 3.4245 18.9245 3.42449C18.9245 3.42448 18.9245 3.42447 18.9245 3.42445C18.9245 3.42444 18.9245 3.42443 18.9245 3.42442C18.9245 3.42441 18.9245 3.4244 18.9245 3.42439C18.9245 3.42437 18.9245 3.42436 18.9245 3.42435C18.9245 3.42434 18.9245 3.42433 18.9245 3.42432C18.9245 3.42431 18.9245 3.4243 18.9245 3.42429C18.9245 3.42427 18.9245 3.42426 18.9245 3.42425C18.9245 3.42424 18.9245 3.42423 18.9245 3.42422C18.9245 3.42421 18.9245 3.4242 18.9245 3.42419C18.9245 3.42418 18.9245 3.42416 18.9245 3.42415C18.9245 3.42414 18.9245 3.42413 18.9245 3.42412C18.9245 3.42411 18.9245 3.4241 18.9245 3.42409C18.9245 3.42408 18.9245 3.42407 18.9245 3.42406C18.9245 3.42405 18.9245 3.42403 18.9245 3.42402C18.9245 3.42401 18.9245 3.424 18.9245 3.42399C18.9245 3.42398 18.9245 3.42397 18.9245 3.42396C18.9245 3.42395 18.9245 3.42394 18.9245 3.42393C18.9245 3.42392 18.9245 3.42391 18.9245 3.4239C18.9245 3.42389 18.9245 3.42388 18.9245 3.42387C18.9245 3.42386 18.9245 3.42385 18.9245 3.42384C18.9245 3.42383 18.9245 3.42381 18.9245 3.4238C18.9245 3.42379 18.9245 3.42378 18.9245 3.42377C18.9245 3.42376 18.9245 3.42375 18.9245 3.42374C18.9245 3.42373 18.9245 3.42372 18.9245 3.42371C18.9245 3.4237 18.9245 3.42369 18.9245 3.42368C18.9245 3.42367 18.9245 3.42366 18.9245 3.42365C18.9245 3.42364 18.9245 3.42363 18.9245 3.42362C18.9245 3.42361 18.9245 3.4236 18.9245 3.42359C18.9245 3.42358 18.9245 3.42357 18.9245 3.42356C18.9245 3.42355 18.9245 3.42354 18.9245 3.42353C18.9245 3.42352 18.9245 3.42351 18.9245 3.42351C18.9245 3.4235 18.9245 3.42349 18.9245 3.42348C18.9245 3.42347 18.9245 3.42346 18.9245 3.42345C18.9245 3.42344 18.9245 3.42343 18.9245 3.42342C18.9245 3.42341 18.9245 3.4234 18.9245 3.42339C18.9245 3.42338 18.9245 3.42337 18.9245 3.42336C18.9245 3.42335 18.9245 3.42334 18.9245 3.42333C18.9245 3.42332 18.9245 3.42331 18.9245 3.42331C18.9245 3.4233 18.9245 3.42329 18.9245 3.42328C18.9245 3.42327 18.9245 3.42326 18.9245 3.42325C18.9245 3.42324 18.9245 3.42323 18.9245 3.42322C18.9245 3.42321 18.9245 3.4232 18.9245 3.42319C18.9245 3.42319 18.9245 3.42318 18.9245 3.42317C18.9245 3.42316 18.9245 3.42315 18.9245 3.42314C18.9245 3.42313 18.9245 3.42312 18.9245 3.42311C18.9245 3.4231 18.9245 3.4231 18.9245 3.42309C18.9245 3.42308 18.9245 3.42307 18.9245 3.42306C18.9245 3.42305 18.9245 3.42304 18.9245 3.42303C18.9245 3.42302 18.9245 3.42302 18.9245 3.42301C18.9245 3.423 18.9245 3.42299 18.9245 3.42298C18.9245 3.42297 18.9245 3.42296 18.9245 3.42295C18.9245 3.42295 18.9245 3.42294 18.9245 3.42293C18.9245 3.42292 18.9245 3.42291 18.9245 3.4229C18.9245 3.42289 18.9245 3.42289 18.9245 3.42288C18.9245 3.42287 18.9245 3.42286 18.9245 3.42285C18.9245 3.42284 18.9245 3.42283 18.9245 3.42283C18.9245 3.42282 18.9245 3.42281 18.9245 3.4228C18.9245 3.42279 18.9245 3.42278 18.9245 3.42278C18.9245 3.42277 18.9245 3.42276 18.9245 3.42275C18.9245 3.42274 18.9245 3.42273 18.9245 3.42273C18.9245 3.42272 18.9245 3.42271 18.9245 3.4227C18.9245 3.42269 18.9245 3.42269 18.9245 3.42268C18.9245 3.42267 18.9245 3.42266 18.9245 3.42265C18.9245 3.42265 18.9245 3.42264 18.9245 3.42263C18.9245 3.42262 18.9245 3.42261 18.9245 3.42261C18.9245 3.4226 18.9245 3.42259 18.9245 3.42258C18.9245 3.42257 18.9245 3.42257 18.9245 3.42256C18.9245 3.42255 18.9245 3.42254 18.9245 3.42253C18.9245 3.42253 18.9245 3.42252 18.9245 3.42251C18.9245 3.4225 18.9245 3.4225 18.9245 3.42249C18.9245 3.42248 18.9245 3.42247 18.9245 3.42246C18.9245 3.42246 18.9245 3.42245 18.9245 3.42244C18.9245 3.42243 18.9245 3.42243 18.9245 3.42242C18.9245 3.42241 18.9245 3.4224 18.9245 3.4224C18.9245 3.42239 18.9245 3.42238 18.9245 3.42237C18.9245 3.42237 18.9245 3.42236 18.9245 3.42235C18.9245 3.42234 18.9245 3.42234 18.9245 3.42233C18.9245 3.42232 18.9245 3.42231 18.9245 3.42231C18.9245 3.4223 18.9245 3.42229 18.9245 3.42228C18.9245 3.42228 18.9245 3.42227 18.9245 3.42226C18.9245 3.42226 18.9245 3.42225 18.9245 3.42224C18.9245 3.42223 18.9245 3.42223 18.9245 3.42222C18.9245 3.42221 18.9245 3.42221 18.9245 3.4222C18.9245 3.42219 18.9245 3.42218 18.9245 3.42218C18.9245 3.42217 18.9245 3.42216 18.9245 3.42216C18.9245 3.42215 18.9245 3.42214 18.9245 3.42213C18.9245 3.42213 18.9245 3.42212 18.9245 3.42211C18.9245 3.42211 18.9245 3.4221 18.9245 3.42209C18.9245 3.42209 18.9245 3.42208 18.9245 3.42207C18.9245 3.42207 18.9245 3.42206 18.9245 3.42205C18.9245 3.42205 18.9245 3.42204 18.9245 3.42203C18.9245 3.42203 18.9245 3.42202 18.9245 3.42201C18.9245 3.42201 18.9245 3.422 18.9245 3.42199C18.9245 3.42199 18.9245 3.42198 18.9245 3.42197C18.9245 3.42197 18.9245 3.42196 18.9245 3.42195C18.9245 3.42195 18.9245 3.42194 18.9245 3.42193C18.9245 3.42193 18.9245 3.42192 18.9245 3.42191C18.9245 3.42191 18.9245 3.4219 18.9245 3.42189C18.9245 3.42189 18.9245 3.42188 18.9245 3.42187C18.9245 3.42187 18.9245 3.42186 18.9245 3.42186C18.9245 3.42185 18.9245 3.42184 18.9245 3.42184C18.9245 3.42183 18.9245 3.42182 18.9245 3.42182C18.9245 3.42181 18.9245 3.4218 18.9245 3.4218C18.9245 3.42179 18.9245 3.42179 18.9245 3.42178C18.9245 3.42177 18.9245 3.42177 18.9245 3.42176C18.9245 3.42176 18.9245 3.42175 18.9245 3.42174C18.9245 3.42174 18.9245 3.42173 18.9245 3.42172C18.9245 3.42172 18.9245 3.42171 18.9245 3.42171C18.9245 3.4217 18.9245 3.42169 18.9245 3.42169C18.9245 3.42168 18.9245 3.42168 18.9245 3.42167C18.9245 3.42166 18.9245 3.42166 18.9245 3.42165C18.9245 3.42165 18.9245 3.42164 18.9245 3.42164C18.9245 3.42163 18.9245 3.42162 18.9245 3.42162C18.9245 3.42161 18.9245 3.42161 18.9245 3.4216C18.9245 3.4216 18.9245 3.42159 18.9245 3.42158C18.9245 3.42158 18.9245 3.42157 18.9245 3.42157C18.9245 3.42156 18.9245 3.42156 18.9245 3.42155C18.9245 3.42154 18.9245 3.42154 18.9245 3.42153C18.9245 3.42153 18.9245 3.42152 18.9245 3.42152C18.9245 3.42151 18.9245 3.4215 18.9245 3.4215C18.9245 3.42149 18.9245 3.42149 18.9245 3.42148C18.9245 3.42148 18.9245 3.42147 18.9245 3.42147C18.9245 3.42146 18.9245 3.42146 18.9245 3.42145C18.9245 3.42144 18.9245 3.42144 18.9245 3.42143C18.9245 3.42143 18.9245 3.42142 18.9245 3.42142C18.9245 3.42141 18.9245 3.42141 18.9245 3.4214C18.9245 3.4214 18.9245 3.42139 18.9245 3.42139C18.9245 3.42138 18.9245 3.42138 18.9245 3.42137C18.9245 3.42137 18.9245 3.42136 18.9245 3.42136C18.9245 3.42135 18.9245 3.42135 18.9245 3.42134C18.9245 3.42133 18.9245 3.42133 18.9245 3.42132C18.9245 3.42132 18.9245 3.42131 18.9245 3.42131C18.9245 3.4213 18.9245 3.4213 18.9245 3.42129C18.9245 3.42129 18.9245 3.42128 18.9245 3.42128C18.9245 3.42127 18.9245 3.42127 18.9245 3.42126C18.9245 3.42126 18.9245 3.42125 18.9245 3.42125C18.9245 3.42125 18.9245 3.42124 18.9245 3.42124C18.9245 3.42123 18.9245 3.42123 18.9245 3.42122C18.9245 3.42122 18.9245 3.42121 18.9245 3.42121C18.9245 3.4212 18.9245 3.4212 18.9245 3.42119C18.9245 3.42119 18.9245 3.42118 18.9245 3.42118C18.9245 3.42117 18.9245 3.42117 18.9245 3.42116C18.9245 3.42116 18.9245 3.42115 18.9245 3.42115C18.9245 3.42115 18.9245 3.42114 18.9245 3.42114C18.9245 3.42113 18.9245 3.42113 18.9245 3.42112C18.9245 3.42112 18.9245 3.42111 18.9245 3.42111C18.9245 3.4211 18.9245 3.4211 18.9245 3.4211C18.9245 3.42109 18.9245 3.42109 18.9245 3.42108C18.9245 3.42108 18.9245 3.42107 18.9245 3.42107C18.9245 3.42106 18.9245 3.42106 18.9245 3.42106C18.9245 3.42105 18.9245 3.42105 18.9245 3.42104C18.9245 3.42104 18.9245 3.42103 18.9245 3.42103C18.9245 3.42103 18.9245 3.42102 18.9245 3.42102C18.9245 3.42101 18.9245 3.42101 18.9245 3.421C18.9245 3.421 18.9245 3.421 18.9245 3.42099C18.9245 3.42099 18.9245 3.42098 18.9245 3.42098C18.9245 3.42098 18.9245 3.42097 18.9245 3.42097C18.9245 3.42096 18.9245 3.42096 18.9245 3.42095C18.9245 3.42095 18.9245 3.42095 18.9245 3.42094C18.9245 3.42094 18.9245 3.42093 18.9245 3.42093C18.9245 3.42093 18.9245 3.42092 18.9245 3.42092C18.9245 3.42091 18.9245 3.42091 18.9245 3.42091C18.9245 3.4209 18.9245 3.4209 18.9245 3.42089C18.9245 3.42089 18.9245 3.42089 18.9245 3.42088C18.9245 3.42088 18.9245 3.42088 18.9245 3.42087C18.9245 3.42087 18.9245 3.42086 18.9245 3.42086C18.9245 3.42086 18.9245 3.42085 18.9245 3.42085C18.9245 3.42084 18.9245 3.42084 18.9245 3.42084C18.9245 3.42083 18.9245 3.42083 18.9245 3.42083C18.9245 3.42082 18.9245 3.42082 18.9245 3.42082C18.9245 3.42081 18.9245 3.42081 18.9245 3.4208C18.9245 3.4208 18.9245 3.4208 18.9245 3.42079C18.9245 3.42079 18.9245 3.42079 18.9245 3.42078C18.9245 3.42078 18.9245 3.42078 18.9245 3.42077C18.9245 3.42077 18.9245 3.42076 18.9245 3.42076C18.9245 3.42076 18.9245 3.42075 18.9245 3.42075C18.9245 3.42075 18.9245 3.42074 18.9245 3.42074C18.9245 3.42074 18.9245 3.42073 18.9245 3.42073C18.9245 3.42073 18.9245 3.42072 18.9245 3.42072C18.9245 3.42072 18.9245 3.42071 18.9245 3.42071C18.9245 3.42071 18.9245 3.4207 18.9245 3.4207C18.9245 3.4207 18.9245 3.42069 18.9245 3.42069C18.9245 3.42069 18.9245 3.42068 18.9245 3.42068C18.9245 3.42068 18.9245 3.42067 18.9245 3.42067C18.9245 3.42067 18.9245 3.42066 18.9245 3.42066C18.9245 3.42066 18.9245 3.42065 18.9245 3.42065C18.9245 3.42065 18.9245 3.42065 18.9245 3.42064C18.9245 3.42064 18.9245 3.42064 18.9245 3.42063C18.9245 3.42063 18.9245 3.42063 18.9245 3.42062C18.9245 3.42062 18.9245 3.42062 18.9245 3.42061C18.9245 3.42061 18.9245 3.42061 18.9245 3.42061C18.9245 3.4206 18.9245 3.4206 18.9245 3.4206C18.9245 3.42059 18.9245 3.42059 18.9245 3.42059C18.9245 3.42058 18.9245 3.42058 18.9245 3.42058C18.9245 3.42058 18.9245 3.42057 18.9245 3.42057C18.9245 3.42057 18.9245 3.42056 18.9245 3.42056C18.9245 3.42056 18.9245 3.42056 18.9245 3.42055C18.9245 3.42055 18.9245 3.42055 18.9245 3.42054C18.9245 3.42054 18.9245 3.42054 18.9245 3.42054C18.9245 3.42053 18.9245 3.42053 18.9245 3.42053C18.9245 3.42052 18.9245 3.42052 18.9245 3.42052C18.9245 3.42052 18.9245 3.42051 18.9245 3.42051C18.9245 3.42051 18.9245 3.42051 18.9245 3.4205C18.9245 3.4205 18.9245 3.4205 18.9245 3.4205C18.9245 3.42049 18.9245 3.42049 18.9245 3.42049C18.9245 3.42048 18.9245 3.42048 18.9245 3.42048C18.9245 3.42048 18.9245 3.42047 18.9245 3.42047C18.9245 3.42047 18.9245 3.42047 18.9245 3.42046C18.9245 3.42046 18.9245 3.42046 18.9245 3.42046C18.9245 3.42045 18.9245 3.42045 18.9245 3.42045C18.9245 3.42045 18.9245 3.42044 18.9245 3.42044C18.9245 3.42044 18.9245 3.42044 18.9245 3.42043C18.9245 3.42043 18.9245 3.42043 18.9245 3.42043C18.9245 3.42043 18.9245 3.42042 18.9245 3.42042C18.9245 3.42042 18.9245 3.42042 18.9245 3.42041C18.9245 3.42041 18.9245 3.42041 18.9245 3.42041C18.9245 3.4204 18.9245 3.4204 18.9245 3.4204C18.9245 3.4204 18.9245 3.42039 18.9245 3.42039C18.9245 3.42039 18.9245 3.42039 18.9245 3.42039C18.9245 3.42038 18.9245 3.42038 18.9245 3.42038C18.9245 3.42038 18.9245 3.42037 18.9245 3.42037C18.9245 3.42037 18.9245 3.42037 18.9245 3.42037C18.9245 3.42036 18.9245 3.42036 18.9245 3.42036C18.9245 3.42036 18.9245 3.42036 18.9245 3.42035C18.9245 3.42035 18.9245 3.42035 18.9245 3.42035C18.9245 3.42035 18.9245 3.42034 18.9245 3.42034C18.9245 3.42034 18.9245 3.42034 18.9245 3.42033C18.9245 3.42033 18.9245 3.42033 18.9245 3.42033C18.9245 3.42033 18.9245 3.42032 18.9245 3.42032C18.9245 3.42032 18.9245 3.42032 18.9245 3.42032C18.9245 3.42031 18.9245 3.42031 18.9245 3.42031C18.9245 3.42031 18.9245 3.42031 18.9245 3.42031C18.9245 3.4203 18.9245 3.4203 18.9245 3.4203C18.9245 3.4203 18.9245 3.4203 18.9245 3.42029C18.9245 3.42029 18.9245 3.42029 18.9245 3.42029C18.9245 3.42029 18.9245 3.42028 18.9245 3.42028C18.9245 3.42028 18.9245 3.42028 18.9245 3.42028C18.9245 3.42028 18.9245 3.42027 18.9245 3.42027C18.9245 3.42027 18.9245 3.42027 18.9245 3.42027C18.9245 3.42027 18.9245 3.42026 18.9245 3.42026C18.9245 3.42026 18.9245 3.42026 18.9245 3.42026C18.9245 3.42025 18.9245 3.42025 18.9245 3.42025C18.9245 3.42025 18.9245 3.42025 18.9245 3.42025C18.9245 3.42024 18.9245 3.42024 18.9245 3.42024C18.9245 3.42024 18.9245 3.42024 18.9245 3.42024C18.9245 3.42024 18.9245 3.42023 18.9245 3.42023C18.9245 3.42023 18.9245 3.42023 18.9245 3.42023C18.9245 3.42023 18.9245 3.42022 18.9245 3.42022C18.9245 3.42022 18.9245 3.42022 18.9245 3.42022C18.9245 3.42022 18.9245 3.42021 18.9245 3.42021C18.9245 3.42021 18.9245 3.42021 18.9245 3.42021C18.9245 3.42021 18.9245 3.42021 18.9245 3.4202C18.9245 3.4202 18.9245 3.4202 18.9245 3.4202C18.9245 3.4202 18.9245 3.4202 18.9245 3.4202C18.9245 3.42019 18.9245 3.42019 18.9245 3.42019C18.9245 3.42019 18.9245 3.42019 18.9245 3.42019C18.9245 3.42019 18.9245 3.42018 18.9245 3.42018C18.9245 3.42018 18.9245 3.42018 18.9245 3.42018C18.9245 3.42018 18.9245 3.42018 18.9245 3.42018C18.9245 3.42017 18.9245 3.42017 18.9245 3.42017C18.9245 3.42017 18.9245 3.42017 18.9245 3.42017C18.9245 3.42017 18.9245 3.42017 18.9245 3.42016C18.9245 3.42016 18.9245 3.42016 18.9245 3.42016C18.9245 3.42016 18.9245 3.42016 18.9245 3.42016C18.9245 3.42016 18.9245 3.42015 18.9245 3.42015C18.9245 3.42015 18.9245 3.42015 18.9245 3.42015C18.9245 3.42015 18.9245 3.42015 18.9245 3.42015C18.9245 3.42014 18.9245 3.42014 18.9245 3.42014C18.9245 3.42014 18.9245 3.42014 18.9245 3.42014C18.9245 3.42014 18.9245 3.42014 18.9245 3.42014C18.9245 3.42013 18.9245 3.42013 18.9245 3.42013C18.9245 3.42013 18.9245 3.42013 18.9245 3.42013C18.9245 3.42013 18.9245 3.42013 18.9245 3.42013C18.9245 3.42012 18.9245 3.42012 18.9245 3.42012C18.9245 3.42012 18.9245 3.42012 18.9245 3.42012C18.9245 3.42012 18.9245 3.42012 18.9245 3.42012C18.9245 3.42012 18.9245 3.42011 18.9245 3.42011C18.9245 3.42011 18.9245 3.42011 18.9245 3.42011C18.9245 3.42011 18.9245 3.42011 18.9245 3.42011C18.9245 3.42011 18.9245 3.42011 18.9245 3.4201C18.9245 3.4201 18.9245 3.4201 18.9245 3.4201C18.9245 3.4201 18.9245 3.4201 18.9245 3.4201C18.9245 3.4201 18.9245 3.4201 18.9245 3.4201C18.9245 3.4201 18.9245 3.42009 18.9245 3.42009C18.9245 3.42009 18.9245 3.42009 18.9245 3.42009C18.9245 3.42009 18.9245 3.42009 18.9245 3.42009C18.9245 3.42009 18.9245 3.42009 18.9245 3.42009C18.9245 3.42009 18.9245 3.42008 18.9245 3.42008C18.9245 3.42008 18.9245 3.42008 18.9245 3.42008C18.9245 3.42008 18.9245 3.42008 18.9245 3.42008C18.9245 3.42008 18.9245 3.42008 18.9245 3.42008C18.9245 3.42008 18.9245 3.42008 18.9245 3.42007C18.9245 3.42007 18.9245 3.42007 18.9245 3.42007C18.9245 3.42007 18.9245 3.42007 18.9245 3.42007C18.9245 3.42007 18.9245 3.42007 18.9245 3.42007C18.9245 3.42007 18.9245 3.42007 18.9245 3.42007C18.9245 3.42007 18.9245 3.42006 18.9245 3.42006C18.9245 3.42006 18.9245 3.42006 18.9245 3.42006C18.9245 3.42006 18.9245 3.42006 18.9245 3.42006C18.9245 3.42006 18.9245 3.42006 18.9245 3.42006C18.9245 3.42006 18.9245 3.42006 18.9245 3.42006C18.9245 3.42006 18.9245 3.42005 18.9245 3.42005C18.9245 3.42005 18.9245 3.42005 18.9245 3.42005C18.9245 3.42005 18.9245 3.42005 18.9245 3.42005C18.9245 3.42005 18.9245 3.42005 18.9245 3.42005C18.9245 3.42005 18.9245 3.42005 18.9245 3.42005C18.9245 3.42005 18.9245 3.42005 18.9245 3.42005C18.9245 3.42005 18.9245 3.42004 18.9245 3.42004C18.9245 3.42004 18.9245 3.42004 18.9245 3.42004C18.9245 3.42004 18.9245 3.42004 18.9245 3.42004C18.9245 3.42004 18.9245 3.42004 18.9245 3.42004C18.9245 3.42004 18.9245 3.42004 18.9245 3.42004C18.9245 3.42004 18.9245 3.42004 18.9245 3.42004C18.9245 3.42004 18.9245 3.42004 18.9245 3.42004C18.9245 3.42003 18.9245 3.42003 18.9245 3.42003C18.9245 3.42003 18.9245 3.42003 18.9245 3.42003C18.9245 3.42003 18.9245 3.42003 18.9245 3.42003C18.9245 3.42003 18.9245 3.42003 18.9245 3.42003C18.9245 3.42003 18.9245 3.42003 18.9245 3.42003C18.9245 3.42003 18.9245 3.42003 18.9245 3.42003C18.9245 3.42003 18.9245 3.42003 18.9245 3.42003C18.9245 3.42003 18.9245 3.42003 18.9245 3.42003C18.9245 3.42003 18.9245 3.42002 18.9245 3.42002C18.9245 3.42002 18.9245 3.42002 18.9245 3.42002C18.9245 3.42002 18.9245 3.42002 18.9245 3.42002C18.9245 3.42002 18.9245 3.42002 18.9245 3.42002C18.9245 3.42002 18.9245 3.42002 18.9245 3.42002C18.9245 3.42002 18.9245 3.42002 18.9245 3.42002C18.9245 3.42002 18.9245 3.42002 18.9245 3.42002C18.9245 3.42002 18.9245 3.42002 18.9245 3.42002C18.9245 3.42002 18.9245 3.42002 18.9245 3.42002C18.9245 3.42002 18.9245 3.42002 18.9245 3.42002C18.9245 3.42002 18.9245 3.42002 18.9245 3.42002C18.9245 3.42002 18.9245 3.42001 18.9245 3.42001C18.9245 3.42001 18.9245 3.42001 18.9245 3.42001C18.9245 3.42001 18.9245 3.42001 18.9245 3.42001C18.9245 3.42001 18.9245 3.42001 18.9245 3.42001C18.9245 3.42001 18.9245 3.42001 18.9245 3.42001C18.9245 3.42001 18.9245 3.42001 18.9245 3.42001C18.9245 3.42001 18.9245 3.42001 18.9245 3.42001C18.9245 3.42001 18.9245 3.42001 18.9245 3.42001C18.9245 3.42001 18.9245 3.42001 18.9245 3.42001C18.9245 3.42001 18.9245 3.42001 18.9245 3.42001C18.9245 3.42001 18.9245 3.42001 18.9245 3.42001C18.9245 3.42001 18.9245 3.42001 18.9245 3.42001C18.9245 3.42001 18.9245 3.42001 18.9245 3.42001C18.9245 3.42001 18.9245 3.42001 18.9245 3.42001C18.9245 3.42001 18.9245 3.42001 18.9245 3.42001C18.9245 3.42001 18.9245 3.42001 18.9245 3.42001C18.9245 3.42001 18.9245 3.42001 18.9245 3.42001C18.9245 3.42001 18.9245 3.42001 18.9245 3.42001C18.9245 3.42001 18.9245 3.42 18.9245 3.42C18.9245 3.42 18.9245 3.42 18.9245 3.42C18.9245 3.42 18.9245 3.42 18.9245 3.42C18.9245 3.42 18.9245 3.42 18.9245 3.42C18.9245 3.42 18.9245 3.42 18.9245 3.42C18.9245 3.42 18.9245 3.42 18.9245 3.42C18.9245 3.42 18.9245 3.42 18.9245 3.42C18.9245 3.42 18.9245 3.42 18.9245 3.42C18.9245 3.42 18.9245 3.42 18.9245 3.42C18.9245 3.42 18.9245 3.42 18.9245 3.42C18.9245 3.42 18.9245 3.42 18.9245 3.42C18.9245 3.42 18.9245 3.42 18.9245 3.42C18.9245 3.42 18.9245 3.42 18.9245 3.42C18.9245 3.42 18.9245 3.42 18.9245 3.42C18.9245 3.42 18.9245 3.42 18.9245 3.42C18.9245 3.42 18.9245 3.42 18.9245 3.42C18.9245 3.42 18.9245 3.42 18.9245 3.42C18.9245 3.42 18.9245 3.42 18.9245 3.42C18.9245 3.42 18.9245 3.42 18.9245 3.42C18.9245 3.42 18.9245 3.42 18.9245 3.42C18.9245 3.42 18.9245 3.42 18.9245 3.42C18.9245 3.42 18.9245 3.42 18.9245 3.42C18.9245 3.42 18.9245 3.42 18.9245 3.42C18.9245 3.42 18.9245 3.42 18.9245 3.42C18.9245 3.42 18.9245 3.42 18.9245 3.42C18.9245 3.42 18.9245 3.42 18.9245 3.42C18.9245 3.42 18.9245 3.42 18.9245 3.42C18.9245 3.42 18.9245 3.42 18.9245 3.42C18.9245 3.42 18.9245 3.42 18.9245 3.42C18.9245 3.42 18.9245 3.42 18.9245 3.42C18.9245 3.42 18.9245 3.42 18.9245 3.42C18.9245 3.42 18.9245 3.42 18.9245 3.42C18.9245 3.42 18.9245 3.42 18.9245 3.42C18.9245 3.42 18.9245 3.42 18.9245 3.42C18.9245 3.42 18.9245 3.42 18.9245 3.42C18.9245 3.42 18.9245 3.42 18.9245 3.42C18.9245 3.42 18.9245 3.42 18.9245 3.42C18.9245 3.42 18.9245 3.42 18.9245 3.42C18.9245 3.42 18.9245 3.42 18.9245 3.42C18.9245 3.42 18.9245 3.42 18.9245 3.42C16.6402 3.42 14.3559 3.42 16.6402 3.42ZM14.397 2.99861C14.3144 3.42787 14.2859 3.8357 14.2859 4.22H18.8545C18.8545 4.0643 18.866 3.95213 18.8834 3.86139L14.397 2.99861ZM14.2859 4.22V8.49H18.8545V4.22H14.2859ZM14.2859 8.49C14.2859 12.0816 17.1986 14.9943 20.7902 14.9943V10.4257C19.7218 10.4257 18.8545 9.5584 18.8545 8.49H14.2859ZM20.7902 14.9943C24.3818 14.9943 27.2945 12.0816 27.2945 8.49H22.7259C22.7259 9.55841 21.8586 10.4257 20.7902 10.4257V14.9943ZM27.2945 8.49V4.22H22.7259V8.49H27.2945ZM27.2945 4.22C27.2945 0.628406 24.3818 -2.28432 20.7902 -2.28432V2.28432C21.8586 2.28432 22.7259 3.15159 22.7259 4.22H27.2945ZM20.7902 -2.28432H20.7802V2.28432H20.7902V-2.28432ZM17.9702 6.55432H18.6302V1.98568H17.9702V6.55432ZM18.6302 6.55432C17.7374 6.55432 17.0459 5.83033 17.0459 4.97H21.6145C21.6145 3.34967 20.3029 1.98568 18.6302 1.98568V6.55432ZM17.0459 4.97C17.0459 6.59033 18.3574 7.95432 20.0302 7.95432V3.38568C20.9229 3.38568 21.6145 4.10967 21.6145 4.97H17.0459ZM20.0302 7.95432C19.1374 7.95432 18.4459 7.23032 18.4459 6.37H23.0145C23.0145 4.74968 21.703 3.38568 20.0302 3.38568V7.95432ZM18.4459 6.37C18.4459 5.48841 19.1486 4.78568 20.0302 4.78568V9.35432C21.6718 9.35432 23.0145 8.01159 23.0145 6.37H18.4459ZM20.0302 4.78568H17.9702V9.35432H20.0302V4.78568ZM20.2545 7.07V4.26H15.6859V7.07H20.2545ZM15.6859 4.26V4.27H20.2545V4.26H15.6859ZM21.3059 8.49C21.3059 8.77841 21.0686 9.01568 20.7802 9.01568V13.5843C23.5918 13.5843 25.8745 11.3016 25.8745 8.49H21.3059ZM20.7802 9.01568C20.4918 9.01568 20.2545 8.7784 20.2545 8.49H15.6859C15.6859 11.3016 17.9686 13.5843 20.7802 13.5843V9.01568ZM17.9702 10.7743H20.0302V6.20568H17.9702V10.7743ZM20.0302 10.7743C22.4518 10.7743 24.4245 8.80159 24.4245 6.38H19.8559C19.8559 6.32418 19.8807 6.27896 19.9049 6.25474C19.9291 6.23053 19.9744 6.20568 20.0302 6.20568V10.7743ZM24.4245 6.38C24.4245 4.40142 23.1134 2.71498 21.2943 2.17133L19.9861 6.54867C19.9414 6.53531 19.9105 6.51046 19.8913 6.48493C19.8698 6.45639 19.8559 6.41742 19.8559 6.38H24.4245ZM22.8289 3.70591C22.2852 1.88677 20.5988 0.575681 18.6202 0.575681V5.14432C18.5828 5.14432 18.5438 5.13036 18.5153 5.10888C18.4897 5.08967 18.4649 5.05881 18.4515 5.01409L22.8289 3.70591ZM18.6202 0.575681H18.3202V5.14432H18.6202V0.575681ZM20.3203 3.9635C20.4113 3.79848 20.5787 3.69432 20.7802 3.69432V-0.874318C18.8617 -0.874318 17.189 0.181523 16.3201 1.7565L20.3203 3.9635ZM20.7802 3.69432C21.0686 3.69432 21.3059 3.93159 21.3059 4.22H25.8745C25.8745 1.40841 23.5918 -0.874318 20.7802 -0.874318V3.69432ZM21.3059 4.22V8.49H25.8745V4.22H21.3059Z" fill="#101010" mask="url(#path-1-inside-1_4904_49442)"/>
<mask id="path-3-inside-2_4904_49442" fill="white">
<path d="M7.60963 21.89L7.83963 21.51L9.06963 19.53H14.7396C15.8196 19.53 16.6996 18.65 16.6996 17.58V15.35C16.6996 14.53 16.3696 13.75 15.7996 13.18C15.2196 12.61 14.4396 12.28 13.6296 12.28H8.97963C8.84963 12.28 8.73963 12.19 8.69963 12.06L8.22963 9.49H14.1896C14.6496 9.49 15.0296 9.12 15.0296 8.65C15.0296 8.18 14.6496 7.81 14.1896 7.81H7.93963L6.97963 2.52C6.70963 1.06 5.43963 0 3.95963 0H2.69963C2.12963 0 1.57963 0.26 1.19963 0.7C0.829634 1.15 0.679634 1.73 0.779634 2.31L3.54963 17.03C3.81963 18.48 5.08963 19.53 6.55963 19.53H7.10963C6.80963 19.99 6.48963 20.52 6.17963 21.01C5.83963 21.56 5.78963 22.23 6.04963 22.82C6.06963 22.87 6.09963 22.93 6.12963 22.98C6.15963 23.04 6.19963 23.1 6.23963 23.16C6.59963 23.68 7.19963 24 7.83963 24H15.3096C15.6896 24 16.0096 23.74 16.1196 23.39L16.1296 23.37C16.1396 23.3 16.1496 23.23 16.1496 23.17C16.1496 22.7 15.7696 22.32 15.3096 22.32H7.83963C7.73963 22.32 7.64963 22.27 7.59963 22.18C7.57963 22.14 7.55963 22.09 7.55963 22.05C7.55963 22 7.57963 21.95 7.59963 21.91H7.60963V21.89ZM6.55963 17.85C5.89963 17.85 5.31963 17.37 5.18963 16.71L2.42963 2C2.40963 1.92 2.42963 1.84 2.47963 1.78C2.53963 1.71 2.60963 1.68 2.68963 1.68H3.95963C4.62963 1.68 5.19963 2.16 5.32963 2.82C5.81963 5.48 6.69963 10.33 7.05963 12.35C7.22963 13.28 8.03963 13.95 8.97963 13.95H13.6296C13.9996 13.95 14.3496 14.09 14.6196 14.36C14.8796 14.63 15.0296 14.97 15.0296 15.35V17.58C15.0296 17.73 14.9096 17.86 14.7396 17.86H6.55963V17.85Z"/>
</mask>
<path d="M7.60963 21.89L7.83963 21.51L9.06963 19.53H14.7396C15.8196 19.53 16.6996 18.65 16.6996 17.58V15.35C16.6996 14.53 16.3696 13.75 15.7996 13.18C15.2196 12.61 14.4396 12.28 13.6296 12.28H8.97963C8.84963 12.28 8.73963 12.19 8.69963 12.06L8.22963 9.49H14.1896C14.6496 9.49 15.0296 9.12 15.0296 8.65C15.0296 8.18 14.6496 7.81 14.1896 7.81H7.93963L6.97963 2.52C6.70963 1.06 5.43963 0 3.95963 0H2.69963C2.12963 0 1.57963 0.26 1.19963 0.7C0.829634 1.15 0.679634 1.73 0.779634 2.31L3.54963 17.03C3.81963 18.48 5.08963 19.53 6.55963 19.53H7.10963C6.80963 19.99 6.48963 20.52 6.17963 21.01C5.83963 21.56 5.78963 22.23 6.04963 22.82C6.06963 22.87 6.09963 22.93 6.12963 22.98C6.15963 23.04 6.19963 23.1 6.23963 23.16C6.59963 23.68 7.19963 24 7.83963 24H15.3096C15.6896 24 16.0096 23.74 16.1196 23.39L16.1296 23.37C16.1396 23.3 16.1496 23.23 16.1496 23.17C16.1496 22.7 15.7696 22.32 15.3096 22.32H7.83963C7.73963 22.32 7.64963 22.27 7.59963 22.18C7.57963 22.14 7.55963 22.09 7.55963 22.05C7.55963 22 7.57963 21.95 7.59963 21.91H7.60963V21.89ZM6.55963 17.85C5.89963 17.85 5.31963 17.37 5.18963 16.71L2.42963 2C2.40963 1.92 2.42963 1.84 2.47963 1.78C2.53963 1.71 2.60963 1.68 2.68963 1.68H3.95963C4.62963 1.68 5.19963 2.16 5.32963 2.82C5.81963 5.48 6.69963 10.33 7.05963 12.35C7.22963 13.28 8.03963 13.95 8.97963 13.95H13.6296C13.9996 13.95 14.3496 14.09 14.6196 14.36C14.8796 14.63 15.0296 14.97 15.0296 15.35V17.58C15.0296 17.73 14.9096 17.86 14.7396 17.86H6.55963V17.85Z" fill="#101010"/>
<path d="M7.60963 21.89L5.6554 20.7072L5.32532 21.2525V21.89H7.60963ZM7.83963 21.51L5.89924 20.3046L5.89226 20.3158L5.8854 20.3272L7.83963 21.51ZM9.06963 19.53V17.2457H7.79948L7.12924 18.3246L9.06963 19.53ZM15.7996 13.18L17.4149 11.5647L17.4079 11.5577L17.4008 11.5508L15.7996 13.18ZM8.69963 12.06L6.45258 12.4709L6.47678 12.6032L6.51633 12.7318L8.69963 12.06ZM8.22963 9.49V7.20568H5.48968L5.98258 9.90094L8.22963 9.49ZM7.93963 7.81L5.69203 8.21788L6.03255 10.0943H7.93963V7.81ZM6.97963 2.52L9.22725 2.11211L9.22587 2.1046L6.97963 2.52ZM2.69963 0V2.28432V0ZM1.19963 0.7L-0.529191 -0.793076L-0.547267 -0.772145L-0.564832 -0.750783L1.19963 0.7ZM0.779634 2.31L-1.47147 2.69812L-1.46851 2.71531L-1.46528 2.73245L0.779634 2.31ZM3.54963 17.03L5.79536 16.6118L5.79455 16.6076L3.54963 17.03ZM7.10963 19.53L9.023 20.7779L11.3266 17.2457H7.10963V19.53ZM6.17963 21.01L4.2492 19.7887L4.24285 19.7987L4.23661 19.8089L6.17963 21.01ZM6.04963 22.82L8.17057 21.9716L8.15591 21.935L8.13998 21.8988L6.04963 22.82ZM6.12963 22.98L8.17279 21.9584L8.13356 21.88L8.08842 21.8047L6.12963 22.98ZM6.23963 23.16L4.33897 24.4271L4.35008 24.4438L4.36149 24.4603L6.23963 23.16ZM16.1196 23.39L14.0765 22.3683L13.995 22.5313L13.9404 22.7051L16.1196 23.39ZM16.1296 23.37L18.1728 24.3917L18.3386 24.0601L18.391 23.6931L16.1296 23.37ZM7.59963 22.18L5.55648 23.2016L5.57868 23.246L5.60278 23.2894L7.59963 22.18ZM7.59963 21.91V19.6257H6.18785L5.55648 20.8884L7.59963 21.91ZM7.60963 21.91V24.1943H9.89395V21.91H7.60963ZM6.55963 17.85H8.84395V15.5657H6.55963V17.85ZM5.18963 16.71L2.94449 17.1312L2.94639 17.1414L2.94838 17.1515L5.18963 16.71ZM2.42963 2L4.67478 1.57875L4.66224 1.51193L4.64575 1.44597L2.42963 2ZM2.47963 1.78L0.74525 0.293385L0.734927 0.305429L0.724772 0.317615L2.47963 1.78ZM5.32963 2.82L7.57615 2.40617L7.57361 2.39234L7.57089 2.37854L5.32963 2.82ZM7.05963 12.35L4.81073 12.7508L4.81255 12.7608L7.05963 12.35ZM14.6196 14.36L16.2651 12.7755L16.2501 12.76L16.2349 12.7447L14.6196 14.36ZM6.55963 17.86H4.27532V20.1443H6.55963V17.86ZM9.56387 23.0728L9.79387 22.6928L5.8854 20.3272L5.6554 20.7072L9.56387 23.0728ZM9.78003 22.7154L11.01 20.7354L7.12924 18.3246L5.89924 20.3046L9.78003 22.7154ZM9.06963 21.8143H14.7396V17.2457H9.06963V21.8143ZM14.7396 21.8143C17.0736 21.8143 18.984 19.9192 18.984 17.58H14.4153C14.4153 17.3808 14.5656 17.2457 14.7396 17.2457V21.8143ZM18.984 17.58V15.35H14.4153V17.58H18.984ZM18.984 15.35C18.984 13.9165 18.4078 12.5577 17.4149 11.5647L14.1844 14.7953C14.3314 14.9423 14.4153 15.1435 14.4153 15.35H18.984ZM17.4008 11.5508C16.4094 10.5765 15.0604 9.99568 13.6296 9.99568V14.5643C13.8189 14.5643 14.0299 14.6435 14.1985 14.8092L17.4008 11.5508ZM13.6296 9.99568H8.97963V14.5643H13.6296V9.99568ZM8.97963 9.99568C9.98347 9.99568 10.6684 10.6911 10.8829 11.3882L6.51633 12.7318C6.81083 13.6889 7.7158 14.5643 8.97963 14.5643V9.99568ZM10.9467 11.6491L10.4767 9.07906L5.98258 9.90094L6.45258 12.4709L10.9467 11.6491ZM8.22963 11.7743H14.1896V7.20568H8.22963V11.7743ZM14.1896 11.7743C15.8935 11.7743 17.314 10.3993 17.314 8.65H12.7453C12.7453 7.84072 13.4058 7.20568 14.1896 7.20568V11.7743ZM17.314 8.65C17.314 6.90071 15.8935 5.52568 14.1896 5.52568V10.0943C13.4058 10.0943 12.7453 9.45928 12.7453 8.65H17.314ZM14.1896 5.52568H7.93963V10.0943H14.1896V5.52568ZM10.1872 7.40212L9.22724 2.11212L4.73203 2.92788L5.69203 8.21788L10.1872 7.40212ZM9.22587 2.1046C8.75663 -0.432726 6.5468 -2.28432 3.95963 -2.28432V2.28432C4.33247 2.28432 4.66263 2.55273 4.7334 2.9354L9.22587 2.1046ZM3.95963 -2.28432H2.69963V2.28432H3.95963V-2.28432ZM2.69963 -2.28432C1.43676 -2.28432 0.265407 -1.71314 -0.529191 -0.793076L2.92846 2.19308C2.89386 2.23314 2.82251 2.28432 2.69963 2.28432L2.69963 -2.28432ZM-0.564832 -0.750783C-1.36533 0.222792 -1.68199 1.47708 -1.47147 2.69812L3.03074 1.92188C3.03516 1.94755 3.03589 1.98615 3.02405 2.03163C3.01212 2.07749 2.9903 2.11892 2.9641 2.15078L-0.564832 -0.750783ZM-1.46528 2.73245L1.30472 17.4524L5.79455 16.6076L3.02455 1.88755L-1.46528 2.73245ZM1.30392 17.4482C1.776 19.9835 3.99293 21.8143 6.55963 21.8143V17.2457C6.18634 17.2457 5.86326 16.9765 5.79535 16.6118L1.30392 17.4482ZM6.55963 21.8143H7.10963V17.2457H6.55963V21.8143ZM5.19627 18.2822C4.89195 18.7488 4.51577 19.3674 4.2492 19.7887L8.11006 22.2313C8.46349 21.6726 8.72732 21.2312 9.023 20.7779L5.19627 18.2822ZM4.23661 19.8089C3.50668 20.9896 3.39151 22.4528 3.95929 23.7412L8.13998 21.8988C8.16158 21.9478 8.17226 22.0061 8.16796 22.0654C8.16369 22.1242 8.14544 22.1743 8.12266 22.2111L4.23661 19.8089ZM3.9287 23.6684C3.99749 23.8403 4.08327 24.0093 4.17085 24.1553L8.08842 21.8047C8.10637 21.8346 8.11926 21.8589 8.12904 21.8784C8.13838 21.8971 8.15308 21.9279 8.17057 21.9716L3.9287 23.6684ZM4.08648 24.0016C4.19178 24.2122 4.31649 24.3934 4.33897 24.4271L8.1403 21.8929C8.12952 21.8767 8.12413 21.8686 8.11959 21.8617C8.11551 21.8555 8.11558 21.8555 8.11799 21.8593C8.12044 21.8633 8.12696 21.8738 8.13593 21.8894C8.1449 21.9051 8.15782 21.9285 8.17279 21.9584L4.08648 24.0016ZM4.36149 24.4603C5.14305 25.5892 6.44113 26.2843 7.83963 26.2843V21.7157C7.95814 21.7157 8.05621 21.7708 8.11778 21.8597L4.36149 24.4603ZM7.83963 26.2843H15.3096V21.7157H7.83963V26.2843ZM15.3096 26.2843C16.7728 26.2843 17.9161 25.2926 18.2989 24.0749L13.9404 22.7051C14.1031 22.1874 14.6064 21.7157 15.3096 21.7157V26.2843ZM18.1628 24.4117L18.1728 24.3917L14.0865 22.3483L14.0765 22.3683L18.1628 24.4117ZM18.391 23.6931C18.3944 23.6696 18.434 23.4254 18.434 23.17H13.8653C13.8653 23.1228 13.8672 23.0856 13.8689 23.0618C13.8705 23.0378 13.8723 23.0209 13.873 23.014C13.8738 23.0071 13.8741 23.0052 13.8732 23.0118C13.8722 23.0191 13.871 23.028 13.8683 23.0469L18.391 23.6931ZM18.434 23.17C18.434 21.456 17.0488 20.0357 15.3096 20.0357V24.6043C14.4905 24.6043 13.8653 23.944 13.8653 23.17H18.434ZM15.3096 20.0357H7.83963V24.6043H15.3096V20.0357ZM7.83963 20.0357C8.53556 20.0357 9.22752 20.4065 9.59649 21.0706L5.60278 23.2894C6.07175 24.1335 6.9437 24.6043 7.83963 24.6043V20.0357ZM9.64279 21.1584C9.66306 21.199 9.70179 21.2803 9.73923 21.3926C9.76974 21.4842 9.84395 21.7245 9.84395 22.05H5.27532C5.27532 22.6721 5.52752 23.1437 5.55648 23.2016L9.64279 21.1584ZM9.84395 22.05C9.84395 22.3225 9.79084 22.5361 9.75042 22.6641C9.70922 22.7946 9.66407 22.889 9.64279 22.9316L5.55648 20.8884C5.49768 21.006 5.27532 21.4502 5.27532 22.05H9.84395ZM7.59963 24.1943H7.60963V19.6257H7.59963V24.1943ZM9.89395 21.91V21.89H5.32532V21.91H9.89395ZM6.55963 15.5657C7.01094 15.5657 7.35384 15.8774 7.43089 16.2685L2.94838 17.1515C3.28543 18.8626 4.78832 20.1343 6.55963 20.1343V15.5657ZM7.43478 16.2887L4.67478 1.57875L0.184493 2.42125L2.94449 17.1312L7.43478 16.2887ZM4.64575 1.44597C4.80615 2.08757 4.64163 2.75382 4.2345 3.24239L0.724772 0.317615C0.217637 0.926176 0.0131209 1.75243 0.21352 2.55403L4.64575 1.44597ZM4.21402 3.26661C4.05914 3.4473 3.83687 3.63739 3.53909 3.77565C3.23984 3.91458 2.94367 3.96432 2.68963 3.96432V-0.604318C1.93081 -0.604318 1.23138 -0.273763 0.74525 0.293385L4.21402 3.26661ZM2.68963 3.96432H3.95963V-0.604318H2.68963V3.96432ZM3.95963 3.96432C3.50844 3.96432 3.16349 3.64277 3.08838 3.26146L7.57089 2.37854C7.23578 0.677232 5.75083 -0.604318 3.95963 -0.604318V3.96432ZM3.08311 3.23383C3.57248 5.89037 4.45167 10.7359 4.81075 12.7508L9.30852 11.9492C8.9476 9.92406 8.06679 5.06963 7.57615 2.40617L3.08311 3.23383ZM4.81255 12.7608C5.18187 14.7812 6.94179 16.2343 8.97963 16.2343V11.6657C9.13747 11.6657 9.2774 11.7788 9.30672 11.9392L4.81255 12.7608ZM8.97963 16.2343H13.6296V11.6657H8.97963V16.2343ZM13.6296 16.2343C13.4044 16.2343 13.1702 16.1411 13.0044 15.9753L16.2349 12.7447C15.529 12.0389 14.5948 11.6657 13.6296 11.6657V16.2343ZM12.9742 15.9445C12.9233 15.8917 12.8635 15.811 12.8168 15.7002C12.7693 15.5872 12.7453 15.466 12.7453 15.35H17.314C17.314 14.3299 16.8996 13.4344 16.2651 12.7755L12.9742 15.9445ZM12.7453 15.35V17.58H17.314V15.35H12.7453ZM12.7453 17.58C12.7453 16.4684 13.648 15.5757 14.7396 15.5757V20.1443C16.1712 20.1443 17.314 18.9916 17.314 17.58H12.7453ZM14.7396 15.5757H6.55963V20.1443H14.7396V15.5757ZM8.84395 17.86V17.85H4.27532V17.86H8.84395Z" fill="#101010" mask="url(#path-3-inside-2_4904_49442)"/>
</g>
<defs>
<clipPath id="clip0_4904_49442">
<rect width="24.25" height="24" fill="white" transform="translate(0.75)"/>
</clipPath>
</defs>
</svg>
