<svg fill="none" height="89" viewBox="0 0 89 89" width="89" xmlns="http://www.w3.org/2000/svg">
    <path
        d="M62.8637 70.1612L70.0385 62.9864C70.429 62.5959 70.429 61.9627 70.0385 61.5722L27.6313 19.165C27.2407 18.7744 26.6076 18.7744 26.2171 19.165L19.0422 26.3398C18.6517 26.7303 18.6517 27.3635 19.0422 27.754L61.4495 70.1612C61.84 70.5518 62.4731 70.5518 62.8637 70.1612Z"
        fill="black" />
    <path
        d="M27.6327 70.1722L70.04 27.765C70.4305 27.3744 70.4305 26.7413 70.04 26.3508L62.8651 19.1759C62.4746 18.7854 61.8414 18.7854 61.4509 19.1759L19.0437 61.5832C18.6532 61.9737 18.6532 62.6068 19.0437 62.9974L26.2185 70.1722C26.6091 70.5627 27.2422 70.5627 27.6327 70.1722Z"
        fill="black" />
</svg>
