<svg width="56" height="58" viewBox="0 0 56 58" fill="none" xmlns="http://www.w3.org/2000/svg">
<path d="M33.8053 34.4275V25.587C33.8053 23.7011 32.9802 21.8151 31.5657 20.5774C30.1512 19.2808 28.2653 18.6915 26.3204 18.8683C23.4325 19.163 21.075 21.3436 20.3678 24.2904C20.0731 25.5281 20.8393 26.7657 22.1359 27.0604C23.3735 27.3551 24.6112 26.5889 24.9059 25.2923C25.0827 24.4672 25.731 23.5832 26.7918 23.4653C27.3812 23.4064 27.9706 23.5832 28.4421 23.9957C28.9136 24.4083 29.1493 24.9977 29.1493 25.587V34.4275C29.1493 37.9636 27.9116 41.3819 25.6131 44.093L18.364 52.6388C17.5389 53.6407 17.6567 55.1141 18.6586 55.9392C19.0712 56.2928 19.6606 56.4696 20.191 56.4696C20.8393 56.4696 21.4876 56.1749 21.9591 55.6445L29.2082 47.0988C32.1551 43.5626 33.8053 39.0834 33.8053 34.4275Z" fill="white" stroke="#E53E51" stroke-width="0.583333"/>
<path d="M24.906 32.7772C24.906 31.4806 23.8451 30.4787 22.6074 30.4787C21.3698 30.4787 20.3089 31.5395 20.3089 32.7772C20.3089 35.2525 19.4249 37.6689 17.8336 39.5548L10.3487 48.3953C9.52359 49.3972 9.64147 50.8706 10.6434 51.6957C11.0559 52.0493 11.6453 52.2261 12.1757 52.2261C12.824 52.2261 13.4723 51.9315 13.9438 51.401L21.4287 42.5606C23.6094 39.8495 24.906 36.3723 24.906 32.7772Z" fill="white" stroke="#E53E51" stroke-width="0.583333"/>
<path d="M40.465 32.1289C39.1684 32.1289 38.1665 33.1897 38.1665 34.4274C38.1665 40.0853 36.1627 45.5664 32.5086 49.9277L29.6797 53.1691C28.8546 54.1711 28.9725 55.6445 29.9744 56.4696C30.3869 56.8232 30.9174 57 31.5067 57C32.155 57 32.8033 56.7053 33.2748 56.1749L36.0448 52.9334C40.4061 47.747 42.8225 41.2051 42.8225 34.4274C42.7636 33.1308 41.7616 32.1289 40.465 32.1289Z" fill="white" stroke="#E53E51" stroke-width="0.583333"/>
<path d="M25.4953 9.90991C24.1987 10.0278 23.2557 11.1476 23.3736 12.4442C23.4915 13.7408 24.6113 14.6837 25.9079 14.5659C29.0315 14.2712 32.1551 15.2731 34.4536 17.3948C36.7521 19.5165 38.1077 22.5223 38.1077 25.6459C38.1077 26.9425 39.1685 27.9444 40.4062 27.9444C41.6438 27.9444 42.7047 26.8836 42.7047 25.6459C42.7047 21.2257 40.8187 16.9233 37.5183 13.9765C34.3357 10.9708 29.9155 9.49735 25.4953 9.90991Z" fill="white" stroke="#E53E51" stroke-width="0.583333"/>
<path d="M15.9477 32.7772V25.8816C15.9477 22.5222 17.3621 19.3397 19.8375 17.218C20.7804 16.3929 20.8983 14.9195 20.0732 13.9175C19.2481 12.9746 17.7747 12.8567 16.7728 13.6818C13.2955 16.7465 11.2328 21.1667 11.2328 25.8816V32.895C11.2328 33.0718 11.1738 33.4255 11.056 33.6023C10.5845 34.1916 6.93042 38.494 4.74977 41.0282C3.92467 41.9712 4.04254 43.4446 4.98552 44.3287C5.39807 44.6823 5.98744 44.918 6.51786 44.918C7.16616 44.918 7.81446 44.6233 8.28595 44.0929C9.22893 42.9731 14.1206 37.3152 14.8279 36.3723C15.8298 35.0167 15.9477 33.9559 15.9477 32.7772Z" fill="white" stroke="#E53E51" stroke-width="0.583333"/>
<path d="M43.5887 7.31678C40.8777 4.84146 37.5772 2.9555 33.9232 1.89465C32.6855 1.54103 31.3889 2.24826 31.0353 3.48593C30.6817 4.72359 31.3889 6.02019 32.6266 6.3738C35.5734 7.25785 38.2845 8.73126 40.4651 10.7351C44.6496 14.507 47.066 19.9291 47.066 25.587V34.4275C47.066 35.6651 47.007 36.726 46.8892 37.7279C46.7713 39.0245 47.6553 40.2032 48.9519 40.3211C49.0698 40.3211 49.1287 40.3211 49.2466 40.3211C50.4253 40.3211 51.4273 39.4371 51.5451 38.2583C51.663 37.0796 51.7809 35.783 51.7809 34.3685V25.5281C51.7219 18.6325 48.7751 11.9728 43.5887 7.31678Z" fill="white" stroke="#E53E51" stroke-width="0.583333"/>
<path d="M6.98928 30.8912V25.8227C6.98928 15.332 14.7689 6.66841 25.0238 5.60755C26.3204 5.48968 27.2634 4.31096 27.0866 3.07329C26.9687 1.7767 25.79 0.892651 24.5523 1.01052C11.881 2.30712 2.33331 12.9746 2.33331 25.8816V30.9502C2.33331 32.2468 3.39417 33.2487 4.63183 33.2487C5.86949 33.2487 6.98928 32.1878 6.98928 30.8912Z" fill="white" stroke="#E53E51" stroke-width="0.583333"/>
</svg>
