<svg fill="none" height="24" viewBox="0 0 24 24" width="24" xmlns="http://www.w3.org/2000/svg">
    <path
        d="M13.0847 8.87412L13.0903 8.87925L13.096 8.88424C13.5543 9.28519 13.8318 9.91078 13.8318 10.5373V14.3261C13.8318 16.1652 13.1802 17.9357 12.0155 19.3343L8.91658 22.9876C8.83217 23.0801 8.73123 23.1165 8.65331 23.1165C8.55093 23.1165 8.4595 23.0779 8.42367 23.0471L8.42376 23.0471L8.41377 23.0388C8.27474 22.9243 8.24588 22.7101 8.37457 22.5509L11.4775 18.893L11.4776 18.8929C12.5643 17.6112 13.1488 15.9954 13.1488 14.3261V10.5373C13.1488 10.113 12.9788 9.67396 12.6216 9.36147C12.2803 9.06277 11.8467 8.93206 11.417 8.97503L11.4169 8.97499L11.4098 8.97579C10.5925 9.0666 10.1502 9.73281 10.0335 10.2682C9.98521 10.4747 9.80489 10.5699 9.63884 10.5304L9.63885 10.5304L9.63228 10.5289C9.42414 10.4816 9.32795 10.3007 9.36739 10.1341C9.61106 9.12001 10.4083 8.4081 11.3432 8.31109C12.0048 8.2519 12.6252 8.4529 13.0847 8.87412Z"
        fill="#FFA125" stroke="#FFA125" stroke-width="1.3125" />
    <path
        d="M10.674 13.6187C10.674 13.0631 10.2193 12.6337 9.6889 12.6337C9.15847 12.6337 8.70382 13.0883 8.70382 13.6187C8.70382 14.6796 8.32494 15.7152 7.64297 16.5235L4.43515 20.3122C4.08153 20.7416 4.13205 21.3731 4.56144 21.7267C4.73825 21.8782 4.99083 21.954 5.21816 21.954C5.496 21.954 5.77384 21.8277 5.97591 21.6004L9.18373 17.8116C10.1183 16.6498 10.674 15.1595 10.674 13.6187Z"
        fill="#FFA125" />
    <path
        d="M17.3422 13.3409C16.7865 13.3409 16.3571 13.7956 16.3571 14.326C16.3571 16.7508 15.4983 19.0999 13.9323 20.969L12.7199 22.3582C12.3663 22.7876 12.4168 23.419 12.8462 23.7727C13.023 23.9242 13.2503 24 13.5029 24C13.7808 24 14.0586 23.8737 14.2607 23.6464L15.4478 22.2572C17.3169 20.0344 18.3525 17.2307 18.3525 14.326C18.3273 13.7703 17.8979 13.3409 17.3422 13.3409Z"
        fill="#FFA125" />
    <path
        d="M10.9265 3.81852C10.3709 3.86903 9.96672 4.34894 10.0172 4.90463C10.0677 5.46031 10.5477 5.86445 11.1033 5.81393C12.442 5.68764 13.7807 6.11703 14.7658 7.02633C15.7509 7.93564 16.3318 9.22382 16.3318 10.5625C16.3318 11.1182 16.7865 11.5476 17.3169 11.5476C17.8473 11.5476 18.302 11.0929 18.302 10.5625C18.302 8.66813 17.4937 6.82427 16.0793 5.56135C14.7153 4.27317 12.8209 3.64171 10.9265 3.81852Z"
        fill="#FFA125" />
    <path
        d="M6.83471 13.6187V10.6635C6.83471 9.22379 7.44091 7.85983 8.50176 6.95053C8.9059 6.59691 8.95641 5.96545 8.6028 5.53606C8.24918 5.13192 7.61772 5.08141 7.18832 5.43502C5.69808 6.74846 4.81403 8.64284 4.81403 10.6635V13.6693C4.81403 13.745 4.78878 13.8966 4.73826 13.9724C4.53619 14.225 2.97017 16.0688 2.03561 17.1549C1.68199 17.5591 1.73251 18.1905 2.13664 18.5694C2.31345 18.7209 2.56604 18.822 2.79336 18.822C3.0712 18.822 3.34905 18.6957 3.55111 18.4684C3.95525 17.9885 6.0517 15.5636 6.3548 15.1595C6.78419 14.5786 6.83471 14.1239 6.83471 13.6187Z"
        fill="#FFA125" />
    <path
        d="M18.6809 2.70715C17.519 1.64629 16.1045 0.838024 14.5385 0.383372C14.0081 0.231822 13.4524 0.534923 13.3009 1.06535C13.1493 1.59578 13.4524 2.15146 13.9828 2.30301C15.2458 2.68189 16.4076 3.31335 17.3422 4.17213C19.1355 5.78867 20.1711 8.11245 20.1711 10.5373V14.326C20.1711 14.8564 20.1459 15.3111 20.0954 15.7405C20.0448 16.2962 20.4237 16.8013 20.9794 16.8519C21.0299 16.8519 21.0552 16.8519 21.1057 16.8519C21.6109 16.8519 22.0403 16.473 22.0908 15.9678C22.1413 15.4626 22.1918 14.907 22.1918 14.3008V10.512C22.1666 7.55676 20.9036 4.70256 18.6809 2.70715Z"
        fill="#FFA125" />
    <path
        d="M2.99541 12.8105V10.6383C2.99541 6.1423 6.32952 2.42932 10.7245 1.97467C11.2802 1.92415 11.6843 1.41898 11.6085 0.888555C11.558 0.33287 11.0528 -0.0460067 10.5224 0.00451016C5.09186 0.560195 1 5.13197 1 10.6636V12.8358C1 13.3915 1.45465 13.8209 1.98508 13.8209C2.5155 13.8209 2.99541 13.3662 2.99541 12.8105Z"
        fill="#FFA125" />
</svg>
