<svg width="24" height="24" viewBox="0 0 24 24" fill="none" xmlns="http://www.w3.org/2000/svg">
<path d="M15.9286 22.9692C15.85 22.9692 15.85 22.9692 15.7714 22.9692L12 22.1846L8.22857 22.9692C7.99286 23.0477 7.75714 22.9692 7.6 22.8123C7.36429 22.6554 7.28571 22.42 7.28571 22.1846V19.8308C7.28571 19.5954 7.36429 19.4385 7.52143 19.2815L8.85714 17.9477V15.28L1.94286 16.6923C1.70714 16.7708 1.47143 16.6923 1.31429 16.5354C1.07857 16.3785 1 16.1431 1 15.9077V13.5538C1 13.24 1.15714 13.0046 1.47143 12.8477L8.85714 9.16V4.13846C8.85714 3.27538 9.17143 2.49077 9.8 1.94154C10.35 1.31385 11.1357 1 12 1C12.8643 1 13.65 1.31385 14.2 1.94154C14.8286 2.49077 15.1429 3.27538 15.1429 4.13846V9.16L22.5286 12.8477C22.7643 13.0046 23 13.24 23 13.5538V15.9077C23 16.1431 22.9214 16.3785 22.6857 16.5354C22.5286 16.6923 22.2929 16.6923 22.0571 16.6923L15.1429 15.28V17.9477L16.4786 19.2815C16.6357 19.4385 16.7143 19.5954 16.7143 19.8308V22.1846C16.7143 22.42 16.6357 22.6554 16.4 22.8123C16.3214 22.8908 16.0857 22.9692 15.9286 22.9692ZM12 20.6154C12.0786 20.6154 12.0786 20.6154 12.1571 20.6154L15.1429 21.2431V20.1446L13.8071 18.8108C13.65 18.6538 13.5714 18.4969 13.5714 18.2615V14.3385C13.5714 14.1031 13.65 13.8677 13.8857 13.7108C14.0429 13.5538 14.2786 13.4754 14.5143 13.5538L21.4286 14.9661V14.0246L14.0429 10.3369C13.7286 10.18 13.5714 9.94461 13.5714 9.63077V4.13846C13.5714 3.74615 13.4143 3.35385 13.1 3.04C12.4714 2.41231 11.45 2.41231 10.9 3.04C10.5857 3.35385 10.4286 3.74615 10.4286 4.13846V9.63077C10.4286 9.94461 10.2714 10.18 9.95714 10.3369L2.57143 14.0246V14.9661L9.48571 13.5538C9.72143 13.4754 9.95714 13.5538 10.1143 13.7108C10.2714 13.8677 10.4286 14.1031 10.4286 14.3385V18.2615C10.4286 18.4969 10.35 18.6538 10.1929 18.8108L8.85714 20.1446V21.2431L11.8429 20.6154C11.9214 20.6154 11.9214 20.6154 12 20.6154Z" fill="black"/>
</svg>
