<svg width="24" height="24" viewBox="0 0 24 24" fill="none" xmlns="http://www.w3.org/2000/svg">
<path d="M19.9998 12V22H3.99976V12" stroke="#3CB4E5" stroke-width="1.5" stroke-linecap="round" stroke-linejoin="round"/>
<path d="M22 6.99997H2V12H22V6.99997Z" stroke="#3CB4E5" stroke-width="1.5" stroke-linecap="round" stroke-linejoin="round"/>
<path d="M12.0005 22V6.99997" stroke="#3CB4E5" stroke-width="1.5" stroke-linecap="round" stroke-linejoin="round"/>
<path d="M12.0005 7.00003H16.5005C17.1635 7.00003 17.7994 6.73664 18.2683 6.2678C18.7371 5.79896 19.0005 5.16307 19.0005 4.50003C19.0005 3.83699 18.7371 3.2011 18.2683 2.73226C17.7994 2.26342 17.1635 2.00003 16.5005 2.00003C13.0005 2.00003 12.0005 7.00003 12.0005 7.00003Z" stroke="#3CB4E5" stroke-width="1.5" stroke-linecap="round" stroke-linejoin="round"/>
<path d="M12.0002 7.00003H7.50024C6.8372 7.00003 6.20132 6.73664 5.73248 6.2678C5.26364 5.79896 5.00024 5.16307 5.00024 4.50003C5.00024 3.83699 5.26364 3.2011 5.73248 2.73226C6.20132 2.26342 6.8372 2.00003 7.50024 2.00003C11.0002 2.00003 12.0002 7.00003 12.0002 7.00003Z" stroke="#3CB4E5" stroke-width="1.5" stroke-linecap="round" stroke-linejoin="round"/>
</svg>
