<svg fill="none" height="24" viewBox="0 0 24 24" width="24" xmlns="http://www.w3.org/2000/svg">
<path d="M13.1332 12.0004L13.9828 11.5099L19.1504 8.52627C19.2805 8.45111 19.3754 8.32737 19.4143 8.18225C19.4531 8.03714 19.4328 7.88253 19.3577 7.75243C19.2826 7.62232 19.1589 7.52737 19.0138 7.48843C18.8687 7.44951 18.7141 7.46977 18.584 7.54476C18.584 7.54478 18.5839 7.5448 18.5839 7.54482L13.4161 10.5286L12.5664 11.0191V10.038V4.07037C12.5664 3.92014 12.5067 3.77607 12.4005 3.66984C12.2943 3.56361 12.1502 3.50393 12 3.50393C11.8498 3.50393 11.7057 3.56361 11.5995 3.66984L11.2094 3.27976L11.5995 3.66984C11.4932 3.77607 11.4336 3.92014 11.4336 4.07037V10.038V11.0192L10.5839 10.5286L5.41606 7.54478C5.41602 7.54476 5.41598 7.54474 5.41594 7.54471C5.28582 7.46974 5.13126 7.44948 4.98621 7.4884C4.84112 7.52733 4.71742 7.62229 4.64232 7.75239C4.56722 7.8825 4.54686 8.0371 4.58572 8.18222C4.62456 8.32726 4.71938 8.45095 4.84934 8.52613C4.84936 8.52614 4.84938 8.52615 4.8494 8.52616C4.84945 8.52619 4.84949 8.52621 4.84954 8.52624L10.0171 11.5099L10.8667 12.0004L10.0171 12.491L4.84954 15.4746C4.84947 15.4746 4.84941 15.4747 4.84934 15.4747C4.71937 15.5499 4.62456 15.6736 4.58572 15.8186C4.54686 15.9637 4.56722 16.1183 4.64232 16.2484C4.71742 16.3785 4.84112 16.4735 4.98621 16.5124C5.13119 16.5513 5.28568 16.5311 5.41576 16.4562L13.1332 12.0004ZM13.1332 12.0004L13.9828 12.491L19.0891 15.4392L19.1504 15.4746C19.2805 15.5498 19.3754 15.6735 19.4143 15.8187C19.4531 15.9638 19.4328 16.1184 19.3577 16.2485C19.2826 16.3786 19.1589 16.4735 19.0138 16.5125C18.8687 16.5514 18.7141 16.5311 18.5839 16.4561L13.4161 13.4723L12.5664 12.9817V13.9628V19.9305C12.5664 20.0807 12.5067 20.2248 12.4005 20.331C12.2943 20.4373 12.1502 20.4969 12 20.4969C11.8498 20.4969 11.7057 20.4373 11.5995 20.331C11.4932 20.2248 11.4336 20.0807 11.4336 19.9305V13.9628V12.9817L10.5839 13.4723L5.41606 16.4561L13.1332 12.0004Z" fill="black" stroke="black" stroke-width="1.13287"/>
</svg>
