<svg fill="none" height="24" viewBox="0 0 24 24" width="24" xmlns="http://www.w3.org/2000/svg">
<path d="M13.1332 11.9999L13.9828 11.5094L19.1504 8.52579C19.2805 8.45062 19.3754 8.32688 19.4143 8.18176C19.4531 8.03665 19.4328 7.88205 19.3577 7.75194C19.2826 7.62183 19.1589 7.52688 19.0138 7.48795C18.8687 7.44902 18.7141 7.46928 18.584 7.54427C18.584 7.54429 18.5839 7.54431 18.5839 7.54433L13.4161 10.5281L12.5664 11.0187V10.0375V4.06988C12.5664 3.91965 12.5067 3.77558 12.4005 3.66935C12.2943 3.56312 12.1502 3.50345 12 3.50345C11.8498 3.50345 11.7057 3.56312 11.5995 3.66935L11.2094 3.27927L11.5995 3.66935C11.4932 3.77558 11.4336 3.91965 11.4336 4.06988V10.0375V11.0187L10.5839 10.5281L5.41606 7.54429C5.41602 7.54427 5.41598 7.54425 5.41594 7.54422C5.28582 7.46925 5.13126 7.44899 4.98621 7.48791C4.84112 7.52684 4.71742 7.6218 4.64232 7.75191C4.56722 7.88201 4.54686 8.03662 4.58572 8.18173C4.62456 8.32677 4.71938 8.45046 4.84934 8.52564C4.84936 8.52565 4.84938 8.52566 4.8494 8.52567C4.84945 8.5257 4.84949 8.52573 4.84954 8.52575L10.0171 11.5094L10.8667 11.9999L10.0171 12.4905L4.84954 15.4741C4.84947 15.4741 4.84941 15.4742 4.84934 15.4742C4.71937 15.5494 4.62456 15.6731 4.58572 15.8181C4.54686 15.9632 4.56722 16.1178 4.64232 16.248C4.71742 16.3781 4.84112 16.473 4.98621 16.5119C5.13119 16.5508 5.28568 16.5306 5.41576 16.4557L13.1332 11.9999ZM13.1332 11.9999L13.9828 12.4905L19.0891 15.4387L19.1504 15.4741C19.2805 15.5493 19.3754 15.673 19.4143 15.8182C19.4531 15.9633 19.4328 16.1179 19.3577 16.248C19.2826 16.3781 19.1589 16.473 19.0138 16.512C18.8687 16.5509 18.7141 16.5306 18.5839 16.4556L13.4161 13.4718L12.5664 12.9812V13.9623V19.93C12.5664 20.0802 12.5067 20.2243 12.4005 20.3305C12.2943 20.4368 12.1502 20.4964 12 20.4964C11.8498 20.4964 11.7057 20.4368 11.5995 20.3305C11.4932 20.2243 11.4336 20.0802 11.4336 19.93V13.9623V12.9812L10.5839 13.4718L5.41606 16.4556L13.1332 11.9999Z" fill="black" stroke="black" stroke-width="1.13287"/>
</svg>
