<svg width="98" height="42" viewBox="0 0 98 42" fill="none" xmlns="http://www.w3.org/2000/svg">
<g clip-path="url(#clip0_5672_134975)">
<path d="M0 19.08C0 6.44002 7.3 2.21538e-05 19.63 2.21538e-05C22.7671 -0.0835694 25.8841 0.524132 28.76 1.78002L26.34 6.94002C23.9294 6.20148 21.4212 5.83065 18.9 5.84002C11.46 5.84002 7.3 10.45 7.3 17.84C7.3 24.05 11.41 27.15 17.3 27.15C18.17 27.15 18.99 27.06 19.77 27.02L20.77 16.65H27.85L26.39 31.27C23.0233 32.5511 19.4415 33.1724 15.84 33.1C6.76 33.1 0 28.94 0 19.08Z" fill="#704165"/>
<path d="M30.77 23.56C30.77 14.2 35.77 7.17004 44.47 7.17004C50.77 7.17004 53.82 11.41 53.82 16.66C53.82 23 51 33.19 40.17 33.19C34.1 33.19 30.77 29.26 30.77 23.56ZM46.84 16.71C46.84 13.38 45.33 12.65 43.28 12.65C40.63 12.65 37.85 16.57 37.85 23.33C37.85 25.93 38.99 27.53 41.22 27.53C43.74 27.53 46.84 23.97 46.84 16.71Z" fill="#704165"/>
<path d="M69.3001 20.45C68.5268 20.5415 67.7488 20.5882 66.9701 20.59C66.2001 20.59 65.4601 20.54 64.6901 20.54L63.4101 32.64H56.3301L59.7101 0.369995H71.8101C77.6501 0.369995 82.8101 2.83 82.8101 9.09C82.8852 11.1492 82.3312 13.1825 81.2218 14.919C80.1123 16.6555 78.5002 18.0127 76.6001 18.81L84.6801 31.14L78.2001 34.42L69.3001 20.45ZM68.1601 15.52C72.4501 15.52 75.5501 14.29 75.5501 9.59C75.5501 6.39 73.0901 5.94 70.2601 5.94H66.2601L65.2601 15.52H68.1601Z" fill="#704165"/>
<path d="M80 36.52C85.75 33.52 87.16 31.32 87.76 25.75L90.44 0.369995H97.51L94.86 25.66C94.18 32.28 92.49 38.21 82.08 41.59L80 36.52Z" fill="#704165"/>
</g>
<defs>
<clipPath id="clip0_5672_134975">
<rect width="97.51" height="41.59" fill="white"/>
</clipPath>
</defs>
</svg>
