<svg width="220" height="72" viewBox="0 0 220 72" fill="none" xmlns="http://www.w3.org/2000/svg">
<g clip-path="url(#clip0_15534_7898)">
<path d="M61.4263 36.5624V59.4747C61.4263 61.4534 61.038 62.9698 60.2798 64.0239C59.5031 65.078 58.2456 66.0581 56.5073 66.9272C54.5286 68.0923 51.6992 69.0909 48.0192 69.8861C44.3207 70.6812 40.6222 71.0881 36.9051 71.0881C29.9704 71.0881 23.7014 69.8676 18.1167 67.4081C12.5319 64.967 8.1307 61.1576 4.91299 56.0166C1.69528 50.8572 0.0864258 44.2369 0.0864258 36.1186C0.0864258 28.0004 1.73227 21.8978 5.02394 16.6644C8.31562 11.4495 12.7169 7.49211 18.2276 4.82917C23.7014 2.16624 29.8595 0.834778 36.6462 0.834778C41.103 0.834778 44.9864 1.31558 48.3151 2.25871C51.6437 3.20183 54.1957 4.53329 55.9895 6.19762C57.7833 7.88045 58.6709 9.7482 58.6709 11.7824C58.6709 13.3912 58.2456 14.8152 57.4134 16.0542C56.5812 17.2932 55.6011 18.2548 54.5101 18.902C52.6053 17.737 50.2938 16.6274 47.5569 15.5549C44.82 14.5008 41.5468 13.9645 37.7558 13.9645C33.7429 13.9645 30.1184 14.8337 26.9007 16.5905C23.683 18.3472 21.1865 20.8622 19.3927 24.1539C17.5989 27.4456 16.7113 31.3845 16.7113 35.9892C16.7113 40.9637 17.5804 45.069 19.3372 48.3237C21.094 51.5784 23.5165 53.9824 26.6233 55.5543C29.73 57.1262 33.2621 57.9029 37.201 57.9029C39.1058 57.9029 40.8256 57.7179 42.3605 57.3481C43.8953 56.9782 45.0604 56.6269 45.874 56.257V42.8869H32.7258C32.356 42.2212 32.0046 41.352 31.6902 40.2609C31.3574 39.1699 31.1909 37.9679 31.1909 36.6364C31.1909 34.4358 31.7087 32.8454 32.7258 31.8098C33.7429 30.7927 35.0929 30.275 36.7757 30.275H55.1943C57.173 30.275 58.7079 30.8297 59.799 31.9208C60.89 33.0119 61.4448 34.5467 61.4448 36.5254L61.4263 36.5624Z" fill="white"/>
<path d="M122.562 42.9054C122.562 48.675 121.434 53.6496 119.159 57.8104C116.885 61.9712 113.704 65.1889 109.562 67.445C105.438 69.7011 100.556 70.8476 94.9341 70.8476C89.3124 70.8476 84.5413 69.7381 80.4174 67.5005C76.2936 65.2814 73.0759 62.0637 70.7828 57.8659C68.4897 53.668 67.3247 48.675 67.3247 42.9054C67.3247 37.1357 68.4897 32.2906 70.8383 28.1668C73.1684 24.0429 76.4046 20.8437 80.5284 18.5691C84.6522 16.313 89.4973 15.1665 95.0451 15.1665C100.593 15.1665 105.327 16.2946 109.451 18.5691C113.575 20.8437 116.792 24.0429 119.085 28.2223C121.379 32.3831 122.544 37.2836 122.544 42.9054H122.562ZM94.9526 27.5565C91.439 27.5565 88.6651 28.9065 86.631 31.6064C84.5783 34.3063 83.5612 38.0788 83.5612 42.8869C83.5612 47.6949 84.5598 51.7818 86.5755 54.4447C88.5912 57.1077 91.3835 58.4391 94.9526 58.4391C98.5217 58.4391 101.444 57.0892 103.441 54.3893C105.456 51.6893 106.455 47.8429 106.455 42.8869C106.455 37.9309 105.438 34.3988 103.385 31.6619C101.333 28.925 98.5217 27.5565 94.9526 27.5565Z" fill="white"/>
<path d="M154.462 45.8642H129.479V7.84343C129.479 6.38252 129.886 5.27296 130.681 4.49627C131.476 3.71959 132.549 3.09084 133.862 2.57305C136.266 1.77787 139.077 1.1861 142.294 0.816252C145.512 0.4464 148.878 0.261475 152.373 0.261475C162.155 0.261475 169.534 2.33264 174.508 6.45649C179.483 10.5803 181.961 16.1466 181.961 23.1738C181.961 27.5565 180.777 31.4584 178.392 34.8981C176.025 38.3377 172.789 41.0191 168.702 42.9608C164.615 44.9025 159.862 45.8642 154.462 45.8642ZM129.479 39.8356H145.697V68.3326C144.957 68.4806 143.903 68.6655 142.516 68.8874C141.129 69.1093 139.668 69.2203 138.134 69.2203C134.99 69.2203 132.771 68.647 131.458 67.519C130.145 66.3909 129.479 64.3937 129.479 61.5459V39.8541V39.8356ZM145.475 33.3632H153.039C156.756 33.3632 159.77 32.531 162.081 30.8482C164.375 29.1654 165.54 26.6504 165.54 23.2847C165.54 19.9191 164.448 17.6075 162.248 15.8877C160.047 14.1679 156.7 13.3172 152.169 13.3172C150.93 13.3172 149.765 13.3727 148.656 13.4837C147.565 13.5946 146.492 13.7611 145.475 13.983V33.3817V33.3632ZM151.615 42.0177L165.965 38.5041C167.648 40.8527 169.404 43.1642 171.217 45.4573C173.048 47.7504 174.804 49.988 176.469 52.1331C178.151 54.2968 179.668 56.2755 181.018 58.1062C182.368 59.937 183.403 61.4349 184.143 62.5999C183.551 64.7266 182.423 66.3724 180.74 67.5929C179.058 68.795 177.227 69.4052 175.267 69.4052C172.641 69.4052 170.625 68.8134 169.238 67.6484C167.851 66.4834 166.538 64.9485 165.299 63.0438L151.596 41.9992L151.615 42.0177Z" fill="black"/>
<path d="M203.875 36.6549H219.982V49.6922C219.982 54.0749 219.168 57.7734 217.522 60.7507C215.877 63.7465 213.51 66.0211 210.403 67.593C207.296 69.1648 203.598 69.9415 199.289 69.9415C195.35 69.9415 192.114 69.2758 189.599 67.9628C187.084 66.6498 185.826 64.4492 185.826 61.3795C185.826 60.0665 186.048 58.92 186.492 57.9214C186.936 56.9412 187.398 56.1461 187.916 55.5728C189.155 55.9426 190.357 56.2385 191.54 56.442C192.705 56.6639 193.944 56.7748 195.257 56.7748C198.253 56.7748 200.435 56.0351 201.841 54.5372C203.228 53.0393 203.93 50.8017 203.93 47.8059V36.6364L203.875 36.6549ZM219.982 43.4417H203.875V1.92584C204.596 1.7779 205.687 1.57449 207.111 1.31559C208.535 1.05669 209.94 0.927246 211.327 0.927246C214.397 0.927246 216.598 1.46353 217.966 2.51761C219.316 3.57168 220 5.60587 220 8.60166V43.4602L219.982 43.4417Z" fill="black"/>
</g>
<defs>
<clipPath id="clip0_15534_7898">
<rect width="219.951" height="70.7896" fill="white" transform="translate(0.0493164 0.280029)"/>
</clipPath>
</defs>
</svg>
