<svg fill="none" height="20" viewBox="0 0 21 20" width="21" xmlns="http://www.w3.org/2000/svg">
    <path
        d="M10.5302 3.62538C12.625 3.62538 14.5198 4.70025 15.6057 6.18132L18.1796 3.58903C16.6402 1.58728 13.6774 0 10.5302 0C5.01968 0 0.5 4.45926 0.5 9.96979C0.5 15.4803 5.01968 19.9396 10.5302 19.9396C15.0983 19.9396 18.941 16.8762 20.1193 12.6888C20.373 11.8186 20.5 10.9122 20.5 9.96979V9.06344H11.4366V12.6881H16.2402C15.2432 14.8272 13.0498 16.3142 10.5302 16.3142C7.03182 16.3142 4.12538 13.4682 4.12538 9.96979C4.12538 6.47139 7.03182 3.62538 10.5302 3.62538Z"
        fill="white" />
</svg>
