<svg width="37" height="15" viewBox="0 0 37 15" fill="none" xmlns="http://www.w3.org/2000/svg">
<path d="M5.39412 13.0428L2.71455 10.3633C2.46479 10.1155 2.26952 9.81836 2.14125 9.49078C2.01299 9.16321 1.95455 8.81245 1.96969 8.46098C1.98482 8.10951 2.07319 7.76508 2.22915 7.44974C2.3851 7.1344 2.60519 6.85511 2.87533 6.62976C5.92246 4.17992 9.50176 2.47898 13.3256 1.66363C16.8551 0.876881 20.5144 0.876881 24.0439 1.66363C27.8835 2.48427 31.4759 4.19783 34.5299 6.66548C34.7992 6.89016 35.0188 7.16845 35.1747 7.48264C35.3305 7.79683 35.4193 8.14003 35.4352 8.49039C35.4512 8.84076 35.394 9.19061 35.2674 9.51767C35.1407 9.84473 34.9474 10.1418 34.6996 10.3901L32.02 13.0696C31.5908 13.5074 31.0171 13.7741 30.4058 13.8201C29.7945 13.8661 29.1873 13.6883 28.6974 13.3197C27.7268 12.5753 26.675 11.9431 25.5623 11.4351C25.1224 11.2356 24.749 10.9142 24.4862 10.5089C24.2234 10.1036 24.0823 9.63154 24.0796 9.14854L24.0796 6.87985C20.572 5.91522 16.869 5.91522 13.3613 6.87985L13.3613 9.14854C13.3586 9.63154 13.2175 10.1036 12.9548 10.5089C12.692 10.9142 12.3185 11.2356 11.8787 11.4351C10.7659 11.9431 9.71418 12.5753 8.74357 13.3197C8.24848 13.6924 7.63369 13.8701 7.01612 13.8191C6.39855 13.768 5.82129 13.4918 5.39412 13.0428Z" stroke="white" stroke-width="2" stroke-linecap="round" stroke-linejoin="round"/>
</svg>
