<svg fill="none" height="34" viewBox="0 0 32 34" width="32" xmlns="http://www.w3.org/2000/svg">
    <path
        d="M27.552 14.2278H27.4727V12.2872C27.4727 6.05345 22.4194 1 16.1856 1C9.95175 1 4.89838 6.05345 4.89838 12.2872V14.2278H4.42316C2.68056 14.2278 1.33404 15.7723 1.33404 17.5546V22.5051C1.29015 24.2324 2.65494 25.6683 4.3823 25.7122C4.39594 25.7126 4.40951 25.7128 4.42316 25.713H7.35385C7.76895 25.6935 8.08968 25.3411 8.07013 24.926C8.06944 24.911 8.06831 24.8961 8.06671 24.8812V15.1782C8.06671 14.703 7.7895 14.2277 7.35385 14.2277H6.48255V12.2871C6.48255 6.92831 10.8268 2.58409 16.1856 2.58409C21.5443 2.58409 25.8886 6.92831 25.8886 12.2871V14.2277H25.0173C24.5816 14.2277 24.3044 14.7029 24.3044 15.1782V24.8812C24.2602 25.2944 24.5593 25.6653 24.9725 25.7095C24.9874 25.7111 25.0023 25.7122 25.0173 25.7129H25.9281L25.8489 25.8317C24.6605 27.4111 22.7957 28.3361 20.8192 28.3267C20.3865 26.205 18.3157 24.8358 16.194 25.2685C14.3796 25.6385 13.0714 27.2275 13.0568 29.0792C13.0785 31.251 14.8453 33.0002 17.0172 33C18.0924 32.9826 19.1172 32.5414 19.8687 31.7723C20.3757 31.253 20.708 30.5884 20.8192 29.8712C23.2944 29.8806 25.6286 28.7208 27.1162 26.7425L27.8687 25.6336C29.5717 25.5148 30.641 24.4455 30.641 22.9009V17.9504C30.6411 16.2476 29.3738 14.2278 27.552 14.2278ZM6.48255 24.1288H4.42316C3.57035 24.108 2.89584 23.3999 2.91661 22.5471C2.91699 22.5331 2.91752 22.5191 2.91821 22.505V17.5545C2.91821 16.6436 3.55186 15.8119 4.42316 15.8119H6.48255V24.1288V24.1288ZM18.7202 30.6635C18.2813 31.1394 17.6647 31.4119 17.0173 31.416C15.7288 31.3955 14.6831 30.3673 14.641 29.0793C14.6405 27.7888 15.6862 26.7422 16.9767 26.7417C18.2672 26.7412 19.3138 27.7869 19.3143 29.0774C19.3143 29.078 19.3143 29.0787 19.3143 29.0793C19.3473 29.6673 19.1317 30.2421 18.7202 30.6635ZM29.0569 22.9011C29.0569 23.9704 28.0272 24.1288 27.552 24.1288H25.8886V15.8119H27.552C28.4233 15.8119 29.0569 17.0397 29.0569 17.9506V22.9011Z"
        fill="#090909" stroke="#090909" stroke-width="0.8" />
</svg>
