<svg fill="none" height="34" viewBox="0 0 31 34" width="31" xmlns="http://www.w3.org/2000/svg">
    <path
        d="M27.3694 14.1201H27.2897V12.1683C27.2897 5.89885 22.2073 0.816406 15.9378 0.816406C9.66819 0.816406 4.58583 5.89885 4.58583 12.1683V14.1201H4.10788C2.35528 14.1201 1.00104 15.6735 1.00104 17.4659V22.4448C0.956893 24.1821 2.32951 25.6262 4.06679 25.6704C4.08051 25.6708 4.09416 25.671 4.10788 25.6712H7.05538C7.47287 25.6516 7.79544 25.2971 7.77577 24.8796C7.77508 24.8646 7.77394 24.8496 7.77234 24.8347V15.076C7.77234 14.598 7.49353 14.12 7.05538 14.12H6.17908V12.1683C6.17908 6.77873 10.5482 2.40959 15.9378 2.40959C21.3273 2.40959 25.6964 6.77873 25.6964 12.1683V14.12H24.8201C24.382 14.12 24.1032 14.5979 24.1032 15.076V24.8347C24.0587 25.2502 24.3596 25.6232 24.7752 25.6676C24.7901 25.6693 24.8051 25.6704 24.8201 25.6711H25.7362L25.6566 25.7905C24.4614 27.379 22.5859 28.3094 20.598 28.2999C20.1628 26.166 18.0801 24.7889 15.9462 25.2242C14.1214 25.5963 12.8058 27.1944 12.791 29.0567C12.8128 31.241 14.5898 33.0002 16.7742 33C17.8555 32.9825 18.8862 32.5388 19.642 31.7652C20.152 31.243 20.4861 30.5746 20.598 29.8533C23.0874 29.8627 25.435 28.6963 26.9311 26.7066L27.688 25.5913C29.4007 25.4719 30.4761 24.3964 30.4761 22.843V17.8641C30.4762 16.1515 29.2016 14.1201 27.3694 14.1201ZM6.17908 24.0779H4.10788C3.25018 24.057 2.5718 23.3449 2.59269 22.4872C2.59307 22.4731 2.59361 22.4589 2.59429 22.4448V17.4659C2.59429 16.5498 3.23158 15.7133 4.10788 15.7133H6.17908V24.0779ZM18.487 30.6501C18.0456 31.1287 17.4254 31.4028 16.7743 31.4069C15.4783 31.3863 14.4267 30.3522 14.3844 29.0568C14.3838 27.7589 15.4356 26.7063 16.7335 26.7058C18.0314 26.7053 19.0839 27.757 19.0845 29.0549C19.0845 29.0555 19.0845 29.0562 19.0845 29.0568C19.1176 29.6482 18.9008 30.2263 18.487 30.6501ZM28.883 22.8431C28.883 23.9186 27.8473 24.0779 27.3694 24.0779H25.6964V15.7133H27.3694C28.2457 15.7133 28.883 16.9481 28.883 17.8642V22.8431Z"
        fill="#090909" stroke="#090909" stroke-width="0.5" />
</svg>
