<svg fill="none" height="58" viewBox="0 0 58 58" width="58" xmlns="http://www.w3.org/2000/svg">
    <rect fill="white" height="58" width="58" />
    <path
        d="M40.3694 26.1201H40.2897V24.1683C40.2897 17.8988 35.2073 12.8164 28.9378 12.8164C22.6682 12.8164 17.5858 17.8988 17.5858 24.1683V26.1201H17.1079C15.3553 26.1201 14.001 27.6735 14.001 29.4659V34.4448C13.9569 36.1821 15.3295 37.6262 17.0668 37.6704C17.0805 37.6708 17.0942 37.671 17.1079 37.6712H20.0554C20.4729 37.6516 20.7954 37.2971 20.7758 36.8796C20.7751 36.8646 20.7739 36.8496 20.7723 36.8347V27.076C20.7723 26.598 20.4935 26.12 20.0554 26.12H19.1791V24.1683C19.1791 18.7787 23.5482 14.4096 28.9378 14.4096C34.3273 14.4096 38.6964 18.7787 38.6964 24.1683V26.12H37.8201C37.382 26.12 37.1032 26.5979 37.1032 27.076V36.8347C37.0587 37.2502 37.3596 37.6232 37.7752 37.6676C37.7901 37.6693 37.8051 37.6704 37.8201 37.6711H38.7362L38.6566 37.7905C37.4614 39.379 35.5859 40.3094 33.598 40.2999C33.1628 38.166 31.0801 36.7889 28.9462 37.2242C27.1214 37.5963 25.8058 39.1944 25.791 41.0567C25.8128 43.241 27.5898 45.0002 29.7742 45C30.8555 44.9825 31.8862 44.5388 32.642 43.7652C33.152 43.243 33.4861 42.5746 33.598 41.8533C36.0874 41.8627 38.435 40.6963 39.9311 38.7066L40.688 37.5913C42.4007 37.4719 43.4761 36.3964 43.4761 34.843V29.8641C43.4762 28.1515 42.2016 26.1201 40.3694 26.1201ZM19.1791 36.0779H17.1079C16.2502 36.057 15.5718 35.3449 15.5927 34.4872C15.5931 34.4731 15.5936 34.4589 15.5943 34.4448V29.4659C15.5943 28.5498 16.2316 27.7133 17.1079 27.7133H19.1791V36.0779ZM31.487 42.6501C31.0456 43.1287 30.4254 43.4028 29.7743 43.4069C28.4783 43.3863 27.4267 42.3522 27.3844 41.0568C27.3838 39.7589 28.4356 38.7063 29.7335 38.7058C31.0314 38.7053 32.0839 39.757 32.0845 41.0549C32.0845 41.0555 32.0845 41.0562 32.0845 41.0568C32.1176 41.6482 31.9008 42.2263 31.487 42.6501ZM41.883 34.8431C41.883 35.9186 40.8473 36.0779 40.3694 36.0779H38.6964V27.7133H40.3694C41.2457 27.7133 41.883 28.9481 41.883 29.8642V34.8431Z"
        fill="#090909" stroke="#090909" stroke-width="0.5" />
</svg>
