<svg width="32" height="32" viewBox="0 0 32 32" fill="none" xmlns="http://www.w3.org/2000/svg">
<path d="M3.24903 29.9242H12.3444C12.9983 29.9242 13.5333 29.3892 13.5333 28.7353V23.0879C13.5333 21.6612 14.6628 20.5317 16.0895 20.5317C17.5162 20.5317 18.6457 21.6612 18.6457 23.0879V28.7353C18.6457 29.3892 19.1807 29.9242 19.8346 29.9242H28.8111C29.465 29.9242 30 29.3892 30 28.7353V13.517C30 12.4469 29.465 11.4364 28.6327 10.8419L16.684 2.22213C16.2678 1.9249 15.7328 1.9249 15.3167 2.22213L3.36792 10.8419C2.53567 11.4364 2.00065 12.4469 2.00065 13.517V28.7948C2.0601 29.3892 2.59512 29.9242 3.24903 29.9242V29.9242ZM11.1554 27.6058H4.37851V13.517C4.37851 13.2198 4.55685 12.9225 4.79464 12.7442L16.03 4.6L27.2655 12.6847C27.5032 12.8631 27.6816 13.1603 27.6816 13.4575V27.5464H20.9047V23.0879C20.9047 20.4128 18.7051 18.2133 16.03 18.2133C13.355 18.2133 11.1554 20.4128 11.1554 23.0879V27.6058Z" fill="#090909"/>
</svg>
