<svg fill="none" height="27" viewBox="0 0 28 27" width="28" xmlns="http://www.w3.org/2000/svg">
    <path
        d="M2.13518 27H10.9292C11.5615 27 12.0788 26.4827 12.0788 25.8505V20.3901C12.0788 19.0106 13.1708 17.9186 14.5503 17.9186C15.9297 17.9186 17.0218 19.0106 17.0218 20.3901V25.8505C17.0218 26.4827 17.5391 27 18.1714 27H26.8505C27.4827 27 28 26.4827 28 25.8505V11.1362C28 10.1017 27.4827 9.12453 26.678 8.54976L15.1251 0.21554C14.7227 -0.0718467 14.2054 -0.0718467 13.8031 0.21554L2.25013 8.54976C1.44545 9.12453 0.928152 10.1017 0.928152 11.1362V25.9079C0.98563 26.4827 1.50293 27 2.13518 27ZM9.77967 24.7584H3.22725V11.1362C3.22725 10.8489 3.39968 10.5615 3.62959 10.389L14.4928 2.51464L25.356 10.3316C25.5859 10.504 25.7584 10.7914 25.7584 11.0788V24.7009H19.206V20.3901C19.206 17.8036 17.0793 15.677 14.4928 15.677C11.9063 15.677 9.77967 17.8036 9.77967 20.3901V24.7584Z"
        fill="#090909" />
</svg>
