<svg fill="none" height="58" viewBox="0 0 58 58" width="58" xmlns="http://www.w3.org/2000/svg">
    <rect fill="white" height="58" width="58" />
    <path
        d="M16.1352 42H24.9292C25.5615 42 26.0788 41.4827 26.0788 40.8505V35.3901C26.0788 34.0106 27.1708 32.9186 28.5503 32.9186C29.9297 32.9186 31.0218 34.0106 31.0218 35.3901V40.8505C31.0218 41.4827 31.5391 42 32.1714 42H40.8505C41.4827 42 42 41.4827 42 40.8505V26.1362C42 25.1017 41.4827 24.1245 40.678 23.5498L29.1251 15.2155C28.7227 14.9282 28.2054 14.9282 27.8031 15.2155L16.2501 23.5498C15.4454 24.1245 14.9282 25.1017 14.9282 26.1362V40.9079C14.9856 41.4827 15.5029 42 16.1352 42ZM23.7797 39.7584H17.2272V26.1362C17.2272 25.8489 17.3997 25.5615 17.6296 25.389L28.4928 17.5146L39.356 25.3316C39.5859 25.504 39.7584 25.7914 39.7584 26.0788V39.7009H33.206V35.3901C33.206 32.8036 31.0793 30.677 28.4928 30.677C25.9063 30.677 23.7797 32.8036 23.7797 35.3901V39.7584Z"
        fill="#090909" />
</svg>
