<svg fill="none" height="32" viewBox="0 0 32 32" width="32" xmlns="http://www.w3.org/2000/svg">
    <path
        d="M2.64151 30.5888H12.1702C12.8552 30.5888 13.4158 30.0283 13.4158 29.3432V23.4268C13.4158 21.9321 14.5991 20.7488 16.0937 20.7488C17.5884 20.7488 18.7717 21.9321 18.7717 23.4268V29.3432C18.7717 30.0283 19.3322 30.5888 20.0173 30.5888H29.4214C30.1065 30.5888 30.667 30.0283 30.667 29.3432V13.3999C30.667 12.2788 30.1065 11.2201 29.2346 10.5973L16.7165 1.56688C16.2806 1.25549 15.7201 1.25549 15.2841 1.56688L2.76607 10.5973C1.89417 11.2201 1.33366 12.2788 1.33366 13.3999V29.4055C1.39594 30.0283 1.95645 30.5888 2.64151 30.5888V30.5888ZM10.9246 28.1599H3.82481V13.3999C3.82481 13.0885 4.01165 12.7771 4.26076 12.5902L16.0315 4.05804L27.8022 12.528C28.0513 12.7148 28.2381 13.0262 28.2381 13.3376V28.0977H21.1383V23.4268C21.1383 20.6242 18.834 18.3199 16.0315 18.3199C13.2289 18.3199 10.9246 20.6242 10.9246 23.4268V28.1599Z"
        fill="#090909" />
</svg>
