<svg fill="none" height="24" viewBox="0 0 24 24" width="24" xmlns="http://www.w3.org/2000/svg">
<path d="M12.2587 21.2332L12.2406 21.2466L12.2234 21.2613C12.1612 21.3146 12.0819 21.3438 12 21.3438C11.9187 21.3438 11.8401 21.315 11.7781 21.2626C11.6263 21.1311 9.8302 19.5745 8.07338 17.3956C6.28341 15.1755 4.65625 12.4561 4.65625 10C4.65625 8.05232 5.42996 6.18441 6.80718 4.80718C8.1844 3.42996 10.0523 2.65625 12 2.65625C13.9477 2.65625 15.8156 3.42996 17.1928 4.80718C18.57 6.18441 19.3437 8.05232 19.3437 10C19.3437 12.4574 17.7275 15.1776 15.9447 17.3965C15.0677 18.4879 14.1783 19.4243 13.4863 20.104C13.1406 20.4434 12.8455 20.7176 12.6275 20.9135C12.5185 21.0116 12.4295 21.0894 12.3637 21.1456C12.3308 21.1738 12.3045 21.1958 12.2851 21.2118C12.2634 21.2297 12.2561 21.2351 12.2587 21.2332ZM11.5508 20.1284L11.9989 20.5491L12.448 20.1295C13.5355 19.1136 15.0682 17.5026 16.3347 15.7099C17.5822 13.9442 18.6562 11.8857 18.6562 10C18.6562 8.23465 17.955 6.54161 16.7067 5.29332C15.4584 4.04503 13.7653 3.34375 12 3.34375C10.2347 3.34375 8.54161 4.04503 7.29332 5.29332C6.04503 6.54161 5.34375 8.23465 5.34375 10C5.34375 11.8859 6.41794 13.942 7.6654 15.7064C8.93193 17.4977 10.4644 19.1083 11.5508 20.1284ZM10.1423 7.21977C10.6922 6.85236 11.3387 6.65625 12 6.65625C12.8868 6.65625 13.7373 7.00854 14.3644 7.63561C14.9915 8.26269 15.3437 9.11318 15.3437 10C15.3437 10.6613 15.1476 11.3078 14.7802 11.8577C14.4128 12.4076 13.8906 12.8361 13.2796 13.0892C12.6686 13.3423 11.9963 13.4085 11.3477 13.2795C10.699 13.1505 10.1032 12.832 9.63561 12.3644C9.16798 11.8968 8.84952 11.301 8.7205 10.6523C8.59148 10.0037 8.6577 9.33139 8.91078 8.7204C9.16386 8.10941 9.59243 7.58719 10.1423 7.21977ZM10.5243 12.2086C10.9611 12.5005 11.4746 12.6563 12 12.6563C12.7045 12.6563 13.3801 12.3764 13.8783 11.8783C14.3764 11.3801 14.6562 10.7045 14.6562 10C14.6562 9.47464 14.5005 8.96109 14.2086 8.52427C13.9167 8.08745 13.5019 7.74699 13.0165 7.54595C12.5311 7.3449 11.9971 7.2923 11.4818 7.39479C10.9665 7.49728 10.4932 7.75027 10.1217 8.12175C9.75027 8.49323 9.49728 8.96653 9.39479 9.48179C9.2923 9.99705 9.3449 10.5311 9.54594 11.0165C9.74699 11.5019 10.0874 11.9167 10.5243 12.2086Z" fill="black" stroke="#FFA125" stroke-width="1.3125"/>
</svg>
