<svg width="112" height="112" viewBox="0 0 112 112" fill="none" xmlns="http://www.w3.org/2000/svg">
<circle cx="56" cy="56" r="48" fill="white"/>
<g clip-path="url(#clip0_6544_144022)">
<path d="M14.9131 38.7584C14.9131 38.7584 35.4834 38.281 47.2301 49.2934C47.2301 49.2934 60.1114 59.9819 56.8 80.9842L31.101 67.5102L14.9131 38.7584Z" fill="url(#paint0_linear_6544_144022)"/>
<path d="M77.2007 53.9645C78.5342 53.9724 78.7777 54.3726 78.7777 54.6869C78.7777 55.3536 78.0616 55.7141 77.7107 55.8947C77.9224 56.1771 79.5407 58.1543 79.6202 58.2482L80.1613 57.7708C79.9576 57.5743 78.6941 56.1938 78.5143 55.9504C79.1023 55.6051 79.5263 55.1348 79.5263 54.5851C79.5263 54.005 78.9766 53.62 78.0353 53.5102C77.5192 53.461 77.0006 53.4427 76.4823 53.4553C76.5053 53.581 76.5212 54.9622 76.5212 55.1659V55.7053C76.5212 55.8469 76.5292 57.9649 76.5053 58.1217H77.2429C77.227 58.0198 77.2039 56.3331 77.2039 56.0824L77.2007 53.9645ZM74.8544 57.5973C74.1876 57.6363 73.2305 57.6204 73.0578 57.6204V56.0355C73.1374 56.0355 73.4501 56.0435 73.7739 56.0435C74.0977 56.0435 74.4415 56.0594 74.5584 56.0594L74.5353 55.4865C74.1041 55.5263 73.1939 55.5573 73.0602 55.5573V53.9255C73.178 53.9255 74.4645 53.8945 74.7708 53.8945L74.739 53.3296C74.3866 53.3526 72.5272 53.4545 72.3521 53.4545C72.3601 53.5802 72.3752 55.189 72.3752 55.2987V56.1827C72.3752 56.3418 72.3752 57.7676 72.3521 58.1201C72.4929 58.1201 74.6427 58.1909 74.8783 58.1909L74.8544 57.5973ZM70.7123 57.5973C70.0448 57.6363 69.0876 57.6204 68.9158 57.6204V56.0355C68.9953 56.0355 69.308 56.0435 69.6319 56.0435C69.9557 56.0435 70.2986 56.0594 70.4163 56.0594L70.3925 55.4865C69.9612 55.5263 69.051 55.5573 68.9182 55.5573V53.9255C69.0351 53.9255 70.3217 53.8945 70.628 53.8945L70.597 53.3296C70.2437 53.3526 68.3843 53.4545 68.2101 53.4545C68.218 53.5802 68.2339 55.189 68.2339 55.2987V56.1827C68.2339 56.3418 68.2339 57.7676 68.2101 58.1201C68.3517 58.1201 70.5007 58.1909 70.7362 58.1909L70.7123 57.5973ZM65.4166 58.1225C65.4007 57.9896 65.3299 56.4047 65.3299 55.0473V54.013C65.9027 54.013 67.2203 54.044 67.2394 54.0751V53.4386C67.0118 53.4935 65.4588 53.5181 65.3251 53.5181H64.6981C64.6186 53.5181 62.9326 53.495 62.7289 53.4386V54.0751C62.8308 54.044 63.8428 54.013 64.6504 54.013V54.9463C64.6504 56.0053 64.6424 57.9506 64.6035 58.1232L65.4166 58.1225ZM59.3594 56.1692C59.4223 56.0594 60.1988 54.4824 60.3007 54.3257C60.3715 54.4355 61.195 55.9416 61.2737 56.0904L59.3594 56.1692ZM58.3394 58.2641C58.4492 58.0365 58.9982 56.8749 59.0929 56.6633L61.5172 56.5694C61.5872 56.6871 62.3248 58.0015 62.4505 58.2561L63.087 57.8718C62.6239 57.1733 60.9292 54.1689 60.3253 53.2198H60.3094C60.1503 53.4783 58.1127 57.252 57.7363 57.9188L58.3394 58.2641ZM57.3345 53.4234C57.2168 53.7998 56.1109 56.5924 55.9931 56.9242C55.6247 56.2877 54.8084 55.0099 54.3692 54.2565H54.3533C53.8513 55.1508 52.949 56.7046 52.7533 57.0651C52.6355 56.7118 51.7412 54.1387 51.5137 53.3701L50.839 53.6367C51.1135 54.3981 52.369 57.8265 52.5894 58.3595H52.6204C52.9188 57.8655 54.0486 55.9273 54.331 55.4253C54.5188 55.7546 55.7353 57.661 56.0019 58.1304H56.0329C56.2294 57.7461 57.9321 53.8626 57.9941 53.69L57.3345 53.4234ZM47.23 56.1692C47.2929 56.0594 48.0694 54.4824 48.1712 54.3257C48.2421 54.4355 49.0655 55.9416 49.1443 56.0904L47.23 56.1692ZM46.21 58.2641C46.3198 58.0365 46.8688 56.8749 46.9635 56.6633L49.387 56.5694C49.4578 56.6871 50.1953 58.0015 50.321 58.2561L50.9576 57.8718C50.4953 57.1733 48.8006 54.1689 48.1967 53.2198H48.1808C48.0217 53.4783 45.984 57.252 45.6077 57.9188L46.21 58.2641ZM43.3696 58.1225C43.3386 58.0127 43.3457 56.5312 43.3457 56.4047V55.6592L44.9935 55.691L44.9704 55.0863C44.6012 55.1102 43.4874 55.1571 43.3457 55.1571V53.1593L45.1192 53.1195L45.0874 52.5156C44.7739 52.5475 42.8047 52.6334 42.609 52.6334C42.6241 52.7822 42.64 54.6734 42.64 54.7991V55.8422C42.64 56.0307 42.64 57.7095 42.5771 58.1248L43.3696 58.1225Z" fill="black"/>
<path d="M53.8786 58.1476C53.8786 58.1476 49.6713 68.377 38.7226 63.1155C37.0751 62.335 35.7032 61.073 34.7882 59.4962C33.1596 56.6502 32.6185 53.147 32.6535 51.8462H54.8915C54.8915 51.8462 55.5622 40.296 41.567 40.588C37.0144 40.5824 26.5184 43.9901 27.6212 57.4092C28.7239 70.8284 43.4853 69.2912 43.4853 69.2912C43.4853 69.2912 52.3168 68.6682 54.8962 58.7475L53.8786 58.1476ZM32.5557 50.025C32.5994 49.1697 33.1293 43.963 39.5572 42.8197C40.0151 42.7389 40.4822 42.7247 40.944 42.7775C48.2694 43.6193 47.4571 50.025 47.4571 50.025H32.562C32.562 50.1045 32.562 50.1451 32.562 50.1451L32.5557 50.025Z" fill="black"/>
<path d="M14.9131 38.7583C14.9131 38.7583 21.119 51.1025 56.8 80.9841C56.8 80.9841 15.7039 83.1164 14.9131 38.7583Z" fill="url(#paint1_linear_6544_144022)"/>
<path d="M90.7973 57.5119C90.7973 57.6217 90.7464 57.6559 90.6111 57.6559H90.3661C90.2865 57.6559 90.2817 57.6726 90.2817 57.7402V57.8755C90.2817 57.9343 90.2985 57.9598 90.3406 57.9598C90.3828 57.9598 90.6788 57.9343 91.1363 57.9343C91.6136 57.9343 91.8292 57.9598 91.8881 57.9598C91.9303 57.9598 91.947 57.9343 91.947 57.8667V57.7323C91.947 57.6726 91.9303 57.6527 91.8547 57.6527H91.5675C91.4402 57.6527 91.398 57.5684 91.398 57.4586V56.0002C91.398 55.6199 91.3901 55.3923 91.5166 55.1472C91.5964 55.0219 91.7045 54.9169 91.8321 54.8406C91.9598 54.7644 92.1035 54.719 92.2517 54.7081C92.4737 54.6971 92.6932 54.7595 92.8763 54.8855C93.0704 55.0374 93.1214 55.2833 93.1214 55.561V56.8109C93.1214 56.9971 93.1214 57.301 93.1047 57.4952C93.1057 57.5172 93.102 57.5393 93.0937 57.5598C93.0854 57.5803 93.0727 57.5987 93.0566 57.6138C93.0405 57.629 93.0213 57.6404 93.0003 57.6474C92.9794 57.6544 92.9571 57.6567 92.9352 57.6543H92.7259C92.6328 57.6543 92.6161 57.671 92.6161 57.7338V57.8771C92.6161 57.9359 92.6328 57.9614 92.6838 57.9614C92.7347 57.9614 93.0442 57.9328 93.4659 57.9328C93.8716 57.9328 94.1079 57.9582 94.1668 57.9582C94.2098 57.9582 94.2265 57.9328 94.2265 57.8739V57.7307C94.2265 57.671 94.2098 57.6511 94.1334 57.6511H93.9051C93.804 57.6511 93.7276 57.6089 93.7276 57.4824V55.6031C93.7276 54.9531 93.5168 54.7669 93.3227 54.564C93.1285 54.3612 92.858 54.311 92.562 54.311C92.0552 54.311 91.5739 54.6293 91.3208 54.9611H91.2787C91.1012 54.5633 90.7631 54.311 90.3239 54.311C90.0825 54.3201 89.8461 54.3823 89.6315 54.4933C89.417 54.6043 89.2296 54.7613 89.0827 54.9531H89.0573L89.0231 54.463C89.0231 54.4041 88.9976 54.3445 88.9435 54.3445C88.8876 54.3507 88.8335 54.368 88.7844 54.3954L88.0412 54.7757C88.0284 54.7826 88.0172 54.7923 88.0084 54.804C87.9996 54.8156 87.9935 54.829 87.9903 54.8433V54.9094C87.9903 54.9348 88.007 54.9515 88.0492 54.977L88.2266 55.0693C88.4295 55.1791 88.4653 55.3318 88.4653 55.5005V57.0043C88.4653 57.1475 88.4653 57.2994 88.4566 57.4434C88.4478 57.6026 88.4056 57.6543 88.3301 57.6543H88.0428C87.9585 57.6543 87.941 57.663 87.941 57.7338V57.8858C87.941 57.9447 87.9585 57.9654 88.0086 57.9654C88.0763 57.9654 88.3468 57.9399 88.7947 57.9399C89.2586 57.9399 89.4869 57.9654 89.5633 57.9654C89.6222 57.9654 89.6309 57.932 89.6309 57.8723V57.7378C89.6309 57.6782 89.6222 57.6583 89.5458 57.6583H89.2419C89.1241 57.6583 89.0732 57.5739 89.0732 57.4387V55.7678C89.0732 55.5291 89.0899 55.37 89.1917 55.2021C89.2744 55.0586 89.3922 54.9383 89.534 54.8526C89.6757 54.7669 89.8369 54.7186 90.0025 54.712C90.1879 54.712 90.4329 54.763 90.5427 54.864C90.678 54.9905 90.7965 55.1512 90.7965 55.7766L90.7973 57.5119ZM85.8302 57.7824C85.6644 57.79 85.4995 57.7533 85.3525 57.6762C85.2056 57.599 85.0818 57.484 84.994 57.3432C84.7235 56.9549 84.6757 56.6335 84.6757 56.1609C84.6757 55.5188 84.7935 55.1727 85.1229 54.8346C85.2042 54.7437 85.3049 54.6723 85.4176 54.6254C85.5302 54.5786 85.6519 54.5577 85.7737 54.564C86.2041 54.564 86.8876 55.156 86.8876 56.0933C86.886 56.9971 86.4723 57.7824 85.8302 57.7824ZM85.7291 58.0362C86.7674 58.0362 87.5957 57.0981 87.5957 56.1776C87.5993 55.9211 87.5501 55.6665 87.4513 55.4297C87.3525 55.193 87.2061 54.979 87.0212 54.8011C86.7012 54.4973 86.28 54.3228 85.8389 54.311C85.4266 54.3149 85.0276 54.4579 84.7067 54.7168C84.2087 55.1051 83.9803 55.6453 83.9803 56.0765C83.9803 56.6757 84.0599 56.9883 84.445 57.453C84.605 57.6363 84.8024 57.7831 85.0239 57.8837C85.2454 57.9843 85.4859 58.0363 85.7291 58.0362ZM82.3501 54.5816C82.553 54.5816 82.7304 54.607 82.9158 54.9531C83.0431 55.1807 83.1863 55.2905 83.3804 55.2905C83.4209 55.294 83.4616 55.2889 83.5 55.2755C83.5383 55.2621 83.5734 55.2408 83.6029 55.2129C83.6324 55.1851 83.6557 55.1513 83.6713 55.1138C83.6868 55.0762 83.6943 55.0359 83.6931 54.9953C83.6931 54.8179 83.4226 54.311 82.5442 54.311C81.4303 54.311 80.7373 55.308 80.7373 56.3001C80.7232 56.716 80.8578 57.1233 81.1169 57.449C81.5059 57.9383 81.9785 58.0402 82.4265 58.0402C82.941 58.0269 83.4296 57.8114 83.7862 57.4403C83.8284 57.3893 83.8196 57.3607 83.7862 57.3305L83.7019 57.2461C83.6978 57.2411 83.6926 57.2371 83.6867 57.2343C83.6809 57.2316 83.6745 57.2301 83.668 57.2301C83.6616 57.2301 83.6552 57.2316 83.6493 57.2343C83.6435 57.2371 83.6383 57.2411 83.6342 57.2461C83.347 57.5158 83.1274 57.6089 82.7049 57.6089C82.528 57.6176 82.3517 57.5829 82.1913 57.5078C82.0309 57.4328 81.8912 57.3198 81.7844 57.1785C81.5193 56.8012 81.3695 56.3551 81.3532 55.8943C81.3532 55.0207 81.8687 54.5816 82.3501 54.5816Z" fill="#AFCF6A"/>
</g>
<circle cx="56" cy="56" r="54" stroke="#E53E51" stroke-width="4"/>
<defs>
<linearGradient id="paint0_linear_6544_144022" x1="20.4746" y1="59.8713" x2="59.6499" y2="59.8713" gradientUnits="userSpaceOnUse">
<stop stop-color="#5AA44B"/>
<stop offset="0.2" stop-color="#5AA44B"/>
<stop offset="0.35" stop-color="#71B561"/>
<stop offset="0.72" stop-color="#A9DC94"/>
<stop offset="0.9" stop-color="#BEEBA8"/>
<stop offset="1" stop-color="#BEEBA8"/>
</linearGradient>
<linearGradient id="paint1_linear_6544_144022" x1="15.7058" y1="48.4978" x2="47.9224" y2="82.1527" gradientUnits="userSpaceOnUse">
<stop stop-color="#FEFEFC"/>
<stop offset="0.14" stop-color="#FAFCF8"/>
<stop offset="0.27" stop-color="#EFF7EB"/>
<stop offset="0.41" stop-color="#DDEED6"/>
<stop offset="0.56" stop-color="#C4E2B9"/>
<stop offset="0.7" stop-color="#A3D293"/>
<stop offset="0.85" stop-color="#7CBF65"/>
<stop offset="0.95" stop-color="#5CB041"/>
<stop offset="1" stop-color="#5CB041"/>
</linearGradient>
<clipPath id="clip0_6544_144022">
<rect width="79.3135" height="42.2417" fill="white" transform="translate(14.9131 38.7583)"/>
</clipPath>
</defs>
</svg>
