<svg fill="none" height="24" viewBox="0 0 24 24" width="24" xmlns="http://www.w3.org/2000/svg">
    <path
        d="M24.0001 7.1446V21.6049C24.0001 22.9287 22.9273 24 21.6017 24C20.3006 24 19.2401 22.9613 19.2033 21.6701V7.18126C19.2033 5.86151 18.1306 4.79022 16.8091 4.79022C15.4875 4.79022 14.4148 5.86151 14.4148 7.18126V16.835C14.4148 20.7821 11.2129 23.9796 7.25637 23.9796H7.19111C3.2387 23.9796 0.0327148 20.7821 0.0327148 16.835V9.62933C0.0327148 8.3055 1.10545 7.23422 2.43108 7.23422C3.73224 7.23422 4.79274 8.27291 4.82945 9.56415V16.7984C4.82945 18.1181 5.90219 19.1894 7.22374 19.1894C8.54529 19.1894 9.61803 18.1181 9.61803 16.7984V7.1446C9.61803 3.19756 12.8199 0 16.7764 0H16.8417C20.7982 0 24.0001 3.19756 24.0001 7.1446Z"
        fill="white" />
    <path
        d="M2.39837 4.85541C3.72295 4.85541 4.79674 3.78308 4.79674 2.4603C4.79674 1.13751 3.72295 0.0651855 2.39837 0.0651855C1.07379 0.0651855 0 1.13751 0 2.4603C0 3.78308 1.07379 4.85541 2.39837 4.85541Z"
        fill="#E53E51" />
</svg>
