<svg width="112" height="112" viewBox="0 0 112 112" fill="none" xmlns="http://www.w3.org/2000/svg">
<circle cx="56" cy="56" r="48" fill="white"/>
<g clip-path="url(#clip0_6544_142564)">
<path d="M14.9131 38.7584C14.9131 38.7584 35.4834 38.281 47.2301 49.2934C47.2301 49.2934 60.1114 59.9819 56.8 80.9842L31.101 67.5102L14.9131 38.7584Z" fill="url(#paint0_linear_6544_142564)"/>
<path d="M77.2007 53.9642C78.5342 53.9722 78.7777 54.3724 78.7777 54.6867C78.7777 55.3534 78.0616 55.7138 77.7107 55.8944C77.9224 56.1769 79.5407 58.154 79.6202 58.2479L80.1613 57.7705C79.9576 57.574 78.6941 56.1936 78.5143 55.9501C79.1023 55.6048 79.5263 55.1346 79.5263 54.5848C79.5263 54.0048 78.9766 53.6197 78.0353 53.5099C77.5192 53.4607 77.0006 53.4424 76.4823 53.455C76.5053 53.5807 76.5212 54.962 76.5212 55.1656V55.7051C76.5212 55.8467 76.5292 57.9647 76.5053 58.1214H77.2429C77.227 58.0196 77.2039 56.3328 77.2039 56.0822L77.2007 53.9642ZM74.8544 57.5971C74.1876 57.6361 73.2305 57.6202 73.0578 57.6202V56.0353C73.1374 56.0353 73.4501 56.0432 73.7739 56.0432C74.0977 56.0432 74.4415 56.0591 74.5584 56.0591L74.5353 55.4863C74.1041 55.5261 73.1939 55.5571 73.0602 55.5571V53.9252C73.178 53.9252 74.4645 53.8942 74.7708 53.8942L74.739 53.3293C74.3866 53.3524 72.5272 53.4542 72.3521 53.4542C72.3601 53.5799 72.3752 55.1887 72.3752 55.2985V56.1825C72.3752 56.3416 72.3752 57.7674 72.3521 58.1198C72.4929 58.1198 74.6427 58.1906 74.8783 58.1906L74.8544 57.5971ZM70.7123 57.5971C70.0448 57.6361 69.0876 57.6202 68.9158 57.6202V56.0353C68.9953 56.0353 69.308 56.0432 69.6319 56.0432C69.9557 56.0432 70.2986 56.0591 70.4163 56.0591L70.3925 55.4863C69.9612 55.5261 69.051 55.5571 68.9182 55.5571V53.9252C69.0351 53.9252 70.3217 53.8942 70.628 53.8942L70.597 53.3293C70.2437 53.3524 68.3843 53.4542 68.2101 53.4542C68.218 53.5799 68.2339 55.1887 68.2339 55.2985V56.1825C68.2339 56.3416 68.2339 57.7674 68.2101 58.1198C68.3517 58.1198 70.5007 58.1906 70.7362 58.1906L70.7123 57.5971ZM65.4166 58.1222C65.4007 57.9893 65.3299 56.4044 65.3299 55.0471V54.0128C65.9027 54.0128 67.2203 54.0438 67.2394 54.0748V53.4383C67.0118 53.4932 65.4588 53.5179 65.3251 53.5179H64.6981C64.6186 53.5179 62.9326 53.4948 62.7289 53.4383V54.0748C62.8308 54.0438 63.8428 54.0128 64.6504 54.0128V54.946C64.6504 56.005 64.6424 57.9503 64.6035 58.123L65.4166 58.1222ZM59.3594 56.1689C59.4223 56.0591 60.1988 54.4822 60.3007 54.3254C60.3715 54.4352 61.195 55.9414 61.2737 56.0902L59.3594 56.1689ZM58.3394 58.2638C58.4492 58.0363 58.9982 56.8747 59.0929 56.663L61.5172 56.5691C61.5872 56.6869 62.3248 58.0013 62.4505 58.2559L63.087 57.8716C62.6239 57.173 60.9292 54.1687 60.3253 53.2195H60.3094C60.1503 53.4781 58.1127 57.2518 57.7363 57.9185L58.3394 58.2638ZM57.3345 53.4232C57.2168 53.7995 56.1109 56.5922 55.9931 56.924C55.6247 56.2875 54.8084 55.0097 54.3692 54.2562H54.3533C53.8513 55.1505 52.949 56.7044 52.7533 57.0648C52.6355 56.7115 51.7412 54.1385 51.5137 53.3699L50.839 53.6364C51.1135 54.3978 52.369 57.8262 52.5894 58.3593H52.6204C52.9188 57.8652 54.0486 55.9271 54.331 55.425C54.5188 55.7544 55.7353 57.6607 56.0019 58.1302H56.0329C56.2294 57.7459 57.9321 53.8624 57.9941 53.6897L57.3345 53.4232ZM47.23 56.1689C47.2929 56.0591 48.0694 54.4822 48.1712 54.3254C48.2421 54.4352 49.0655 55.9414 49.1443 56.0902L47.23 56.1689ZM46.21 58.2638C46.3198 58.0363 46.8688 56.8747 46.9635 56.663L49.387 56.5691C49.4578 56.6869 50.1953 58.0013 50.321 58.2559L50.9576 57.8716C50.4953 57.173 48.8006 54.1687 48.1967 53.2195H48.1808C48.0217 53.4781 45.984 57.2518 45.6077 57.9185L46.21 58.2638ZM43.3696 58.1222C43.3386 58.0124 43.3457 56.5309 43.3457 56.4044V55.6589L44.9935 55.6908L44.9704 55.0861C44.6012 55.1099 43.4874 55.1569 43.3457 55.1569V53.159L45.1192 53.1193L45.0874 52.5154C44.7739 52.5472 42.8047 52.6331 42.609 52.6331C42.6241 52.7819 42.64 54.6731 42.64 54.7988V55.8419C42.64 56.0305 42.64 57.7093 42.5771 58.1246L43.3696 58.1222Z" fill="black"/>
<path d="M53.8786 58.1478C53.8786 58.1478 49.6713 68.3773 38.7226 63.1158C37.0751 62.3353 35.7032 61.0732 34.7882 59.4964C33.1596 56.6504 32.6185 53.1473 32.6535 51.8464H54.8915C54.8915 51.8464 55.5622 40.2962 41.567 40.5882C37.0144 40.5826 26.5184 43.9903 27.6212 57.4095C28.7239 70.8286 43.4853 69.2915 43.4853 69.2915C43.4853 69.2915 52.3168 68.6685 54.8962 58.7477L53.8786 58.1478ZM32.5557 50.0252C32.5994 49.1699 33.1293 43.9633 39.5572 42.82C40.0151 42.7391 40.4822 42.7249 40.944 42.7778C48.2694 43.6196 47.4571 50.0252 47.4571 50.0252H32.562C32.562 50.1048 32.562 50.1454 32.562 50.1454L32.5557 50.0252Z" fill="black"/>
<path d="M14.9131 38.7583C14.9131 38.7583 21.119 51.1025 56.8 80.9841C56.8 80.9841 15.7039 83.1164 14.9131 38.7583Z" fill="url(#paint1_linear_6544_142564)"/>
<path d="M90.7973 57.5121C90.7973 57.6219 90.7464 57.6561 90.6111 57.6561H90.3661C90.2865 57.6561 90.2817 57.6728 90.2817 57.7405V57.8757C90.2817 57.9346 90.2985 57.9601 90.3406 57.9601C90.3828 57.9601 90.6788 57.9346 91.1363 57.9346C91.6136 57.9346 91.8292 57.9601 91.8881 57.9601C91.9303 57.9601 91.947 57.9346 91.947 57.867V57.7325C91.947 57.6728 91.9303 57.6529 91.8547 57.6529H91.5675C91.4402 57.6529 91.398 57.5686 91.398 57.4588V56.0004C91.398 55.6201 91.3901 55.3925 91.5166 55.1475C91.5964 55.0221 91.7045 54.9171 91.8321 54.8408C91.9598 54.7646 92.1035 54.7192 92.2517 54.7083C92.4737 54.6974 92.6932 54.7597 92.8763 54.8857C93.0704 55.0377 93.1214 55.2835 93.1214 55.5612V56.8112C93.1214 56.9973 93.1214 57.3013 93.1047 57.4954C93.1057 57.5175 93.102 57.5395 93.0937 57.56C93.0854 57.5805 93.0727 57.5989 93.0566 57.6141C93.0405 57.6292 93.0213 57.6406 93.0003 57.6476C92.9794 57.6546 92.9571 57.657 92.9352 57.6545H92.7259C92.6328 57.6545 92.6161 57.6712 92.6161 57.7341V57.8773C92.6161 57.9362 92.6328 57.9616 92.6838 57.9616C92.7347 57.9616 93.0442 57.933 93.4659 57.933C93.8716 57.933 94.1079 57.9585 94.1668 57.9585C94.2098 57.9585 94.2265 57.933 94.2265 57.8741V57.7309C94.2265 57.6712 94.2098 57.6513 94.1334 57.6513H93.9051C93.804 57.6513 93.7276 57.6092 93.7276 57.4827V55.6034C93.7276 54.9534 93.5168 54.7672 93.3227 54.5643C93.1285 54.3614 92.858 54.3113 92.562 54.3113C92.0552 54.3113 91.5739 54.6295 91.3208 54.9613H91.2787C91.1012 54.5635 90.7631 54.3113 90.3239 54.3113C90.0825 54.3203 89.8461 54.3826 89.6315 54.4936C89.417 54.6046 89.2296 54.7616 89.0827 54.9534H89.0573L89.0231 54.4632C89.0231 54.4044 88.9976 54.3447 88.9435 54.3447C88.8876 54.351 88.8335 54.3683 88.7844 54.3956L88.0412 54.7759C88.0284 54.7829 88.0172 54.7925 88.0084 54.8042C87.9996 54.8159 87.9935 54.8293 87.9903 54.8436V54.9096C87.9903 54.9351 88.007 54.9518 88.0492 54.9772L88.2266 55.0695C88.4295 55.1793 88.4653 55.3321 88.4653 55.5008V57.0045C88.4653 57.1477 88.4653 57.2997 88.4566 57.4437C88.4478 57.6028 88.4056 57.6545 88.3301 57.6545H88.0428C87.9585 57.6545 87.941 57.6633 87.941 57.7341V57.8861C87.941 57.9449 87.9585 57.9656 88.0086 57.9656C88.0763 57.9656 88.3468 57.9402 88.7947 57.9402C89.2586 57.9402 89.4869 57.9656 89.5633 57.9656C89.6222 57.9656 89.6309 57.9322 89.6309 57.8725V57.7381C89.6309 57.6784 89.6222 57.6585 89.5458 57.6585H89.2419C89.1241 57.6585 89.0732 57.5742 89.0732 57.4389V55.7681C89.0732 55.5294 89.0899 55.3703 89.1917 55.2024C89.2744 55.0588 89.3922 54.9386 89.534 54.8529C89.6757 54.7672 89.8369 54.7188 90.0025 54.7123C90.1879 54.7123 90.4329 54.7632 90.5427 54.8642C90.678 54.9907 90.7965 55.1515 90.7965 55.7768L90.7973 57.5121ZM85.8302 57.7826C85.6644 57.7903 85.4995 57.7536 85.3525 57.6764C85.2056 57.5992 85.0818 57.4843 84.994 57.3434C84.7235 56.9552 84.6757 56.6337 84.6757 56.1611C84.6757 55.5191 84.7935 55.1729 85.1229 54.8348C85.2042 54.744 85.3049 54.6725 85.4176 54.6257C85.5302 54.5789 85.6519 54.5579 85.7737 54.5643C86.2041 54.5643 86.8876 55.1562 86.8876 56.0935C86.886 56.9973 86.4723 57.7826 85.8302 57.7826ZM85.7291 58.0364C86.7674 58.0364 87.5957 57.0984 87.5957 56.1778C87.5993 55.9213 87.5501 55.6668 87.4513 55.43C87.3525 55.1932 87.2061 54.9793 87.0212 54.8014C86.7012 54.4976 86.28 54.323 85.8389 54.3113C85.4266 54.3151 85.0276 54.4581 84.7067 54.7171C84.2087 55.1053 83.9803 55.6456 83.9803 56.0768C83.9803 56.6759 84.0599 56.9886 84.445 57.4532C84.605 57.6365 84.8024 57.7834 85.0239 57.884C85.2454 57.9846 85.4859 58.0366 85.7291 58.0364ZM82.3501 54.5818C82.553 54.5818 82.7304 54.6073 82.9158 54.9534C83.0431 55.1809 83.1863 55.2907 83.3804 55.2907C83.4209 55.2942 83.4616 55.2891 83.5 55.2757C83.5383 55.2624 83.5734 55.2411 83.6029 55.2132C83.6324 55.1853 83.6557 55.1515 83.6713 55.114C83.6868 55.0765 83.6943 55.0361 83.6931 54.9955C83.6931 54.8181 83.4226 54.3113 82.5442 54.3113C81.4303 54.3113 80.7373 55.3082 80.7373 56.3004C80.7232 56.7163 80.8578 57.1236 81.1169 57.4493C81.5059 57.9386 81.9785 58.0404 82.4265 58.0404C82.941 58.0272 83.4296 57.8116 83.7862 57.4405C83.8284 57.3896 83.8196 57.3609 83.7862 57.3307L83.7019 57.2464C83.6978 57.2414 83.6926 57.2373 83.6867 57.2346C83.6809 57.2318 83.6745 57.2304 83.668 57.2304C83.6616 57.2304 83.6552 57.2318 83.6493 57.2346C83.6435 57.2373 83.6383 57.2414 83.6342 57.2464C83.347 57.5161 83.1274 57.6092 82.7049 57.6092C82.528 57.6178 82.3517 57.5831 82.1913 57.5081C82.0309 57.4331 81.8912 57.32 81.7844 57.1787C81.5193 56.8015 81.3695 56.3554 81.3532 55.8946C81.3532 55.021 81.8687 54.5818 82.3501 54.5818Z" fill="#AFCF6A"/>
</g>
<circle cx="56" cy="56" r="54" stroke="#FFE816" stroke-width="4"/>
<defs>
<linearGradient id="paint0_linear_6544_142564" x1="20.4746" y1="59.8713" x2="59.6499" y2="59.8713" gradientUnits="userSpaceOnUse">
<stop stop-color="#5AA44B"/>
<stop offset="0.2" stop-color="#5AA44B"/>
<stop offset="0.35" stop-color="#71B561"/>
<stop offset="0.72" stop-color="#A9DC94"/>
<stop offset="0.9" stop-color="#BEEBA8"/>
<stop offset="1" stop-color="#BEEBA8"/>
</linearGradient>
<linearGradient id="paint1_linear_6544_142564" x1="15.7058" y1="48.4978" x2="47.9224" y2="82.1527" gradientUnits="userSpaceOnUse">
<stop stop-color="#FEFEFC"/>
<stop offset="0.14" stop-color="#FAFCF8"/>
<stop offset="0.27" stop-color="#EFF7EB"/>
<stop offset="0.41" stop-color="#DDEED6"/>
<stop offset="0.56" stop-color="#C4E2B9"/>
<stop offset="0.7" stop-color="#A3D293"/>
<stop offset="0.85" stop-color="#7CBF65"/>
<stop offset="0.95" stop-color="#5CB041"/>
<stop offset="1" stop-color="#5CB041"/>
</linearGradient>
<clipPath id="clip0_6544_142564">
<rect width="79.3135" height="42.2417" fill="white" transform="translate(14.9131 38.7583)"/>
</clipPath>
</defs>
</svg>
