<svg viewBox="0 0 25.38 25.38" xmlns="http://www.w3.org/2000/svg">
    <defs>
        <style>.cls-1{fill:#fff;}</style>
    </defs>
    <g data-name="Layer 2" id="Layer_2">
        <g data-name="Layer 1" id="Layer_1-2">
            <path class="cls-1"
                d="M12.69,19.72a.75.75,0,0,0,.75-.75V17.54h.61A2.66,2.66,0,0,0,15.93,13a2.65,2.65,0,0,0-1.88-.78h-.61V9.91h2a.75.75,0,0,0,0-1.5h-2V7a.75.75,0,0,0-1.5,0V8.41h-.61A2.66,2.66,0,0,0,9.45,13a2.64,2.64,0,0,0,1.88.77h.61V16H9.42a.75.75,0,0,0,0,1.5h2.52V19A.75.75,0,0,0,12.69,19.72Zm.75-6h.61a1.19,1.19,0,0,1,.82.34,1.16,1.16,0,0,1-.82,2h-.61Zm-2.11-1.5a1.15,1.15,0,0,1-.82-.34,1.13,1.13,0,0,1-.34-.81,1.16,1.16,0,0,1,1.16-1.16h.61v2.31Z" />
            <path class="cls-1"
                d="M22,21a.76.76,0,0,0-1.41,0,.73.73,0,0,0,0,.58l.59,1.26-4.64-2.48,4.62-2.47-.57,1.25a.71.71,0,0,0,0,.57.74.74,0,0,0,.41.42.76.76,0,0,0,1-.38l1.5-3.27a.75.75,0,0,0-.19-.87.79.79,0,0,0-.88-.11l-7.84,4.2h0a.74.74,0,0,0-.4.66.75.75,0,0,0,.4.66l7.84,4.19a.81.81,0,0,0,.37.09.74.74,0,0,0,.51-.19.75.75,0,0,0,.19-.86Z" />
            <path class="cls-1"
                d="M12.69,0a12.69,12.69,0,0,0,0,25.38,12.45,12.45,0,0,0,2.66-.28.84.84,0,0,0,.55-.38A.87.87,0,0,0,15,23.39a10.94,10.94,0,1,1,8.65-10.7c0,.37,0,.73-.05,1.1a.83.83,0,0,0,.19.64.89.89,0,0,0,1.23.12.92.92,0,0,0,.32-.59c0-.41.06-.84.06-1.27A12.7,12.7,0,0,0,12.69,0Z" />
        </g>
    </g>
</svg>