<svg fill="none" height="72" viewBox="0 0 72 72" width="72" xmlns="http://www.w3.org/2000/svg">
    <circle cx="36" cy="36" fill="#3CB4E5" r="35" stroke="#3CB4E5" stroke-width="2" />
    <path
        d="M49.3114 37.2913L26.9595 49.5266C26.4616 49.7967 25.8472 49.7225 25.4288 49.3359C25.0104 48.9492 24.8832 48.3401 25.1163 47.821L29.3695 38.2606C29.6661 37.5932 30.45 37.2913 31.1174 37.5879C31.7848 37.8845 32.0867 38.6684 31.7901 39.3358L29.1259 45.321L45.9163 36.1313L29.0305 26.8886L31.7901 32.9374C32.0761 33.6101 31.7583 34.3887 31.0856 34.6747C30.4129 34.9607 29.6343 34.6429 29.3483 33.9703L25.1057 24.4151C24.8832 23.896 25.0209 23.2922 25.4341 22.9161C25.683 22.6884 26.0008 22.5719 26.3239 22.5719C26.5411 22.5719 26.7583 22.6248 26.9595 22.7361L49.3114 34.9713C49.7352 35.2044 50 35.6493 50 36.1313C50 36.6133 49.7352 37.0582 49.3114 37.2913Z"
        fill="white" stroke="white" stroke-width="0.430486" />
</svg>
