<svg width="31" height="31" viewBox="0 0 31 31" fill="none" xmlns="http://www.w3.org/2000/svg">
<g clip-path="url(#clip0_1929_96167)">
<path d="M10.5801 29.5273H20.6853" stroke="#3CB4E5" stroke-width="2" stroke-linecap="round" stroke-linejoin="round"/>
<path d="M1.73828 1.73828L29.5278 29.5278" stroke="#3CB4E5" stroke-width="2" stroke-linecap="round" stroke-linejoin="round"/>
<path d="M19.4188 12.271V5.52571C19.4197 4.58596 19.0715 3.67938 18.4416 2.98197C17.8117 2.28455 16.9452 1.84606 16.0102 1.75162C15.0752 1.65717 14.1384 1.91351 13.3818 2.47088C12.6252 3.02824 12.1026 3.84686 11.9156 4.76782M11.8398 11.8415V15.631C11.8405 16.38 12.0631 17.112 12.4795 17.7346C12.896 18.3571 13.4876 18.8423 14.1796 19.1288C14.8716 19.4154 15.633 19.4904 16.3677 19.3445C17.1023 19.1985 17.7773 18.8382 18.3072 18.3089L11.8398 11.8415Z" stroke="#3CB4E5" stroke-width="2" stroke-linecap="round" stroke-linejoin="round"/>
<path d="M21.9472 21.8864C20.7141 23.145 19.133 24.0065 17.4069 24.3604C15.6808 24.7143 13.8883 24.5443 12.2594 23.8724C10.6305 23.2005 9.23952 22.0572 8.26488 20.5893C7.29024 19.1214 6.77641 17.3957 6.7893 15.6337V13.1074M24.4735 13.1074V15.6337C24.4731 16.1547 24.4266 16.6746 24.3346 17.1874" stroke="#3CB4E5" stroke-width="2" stroke-linecap="round" stroke-linejoin="round"/>
<path d="M15.6309 24.4766V29.5292" stroke="#3CB4E5" stroke-width="2" stroke-linecap="round" stroke-linejoin="round"/>
</g>
<defs>
<clipPath id="clip0_1929_96167">
<rect width="30.3158" height="30.3158" fill="white" transform="translate(0.472656 0.474609)"/>
</clipPath>
</defs>
</svg>
