<svg width="41" height="40" viewBox="0 0 41 40" fill="none" xmlns="http://www.w3.org/2000/svg">
<path d="M13.8333 35H7.16663C6.7246 35 6.30067 34.8244 5.98811 34.5119C5.67555 34.1993 5.49996 33.7754 5.49996 33.3334V26.6667C5.49996 26.2247 5.32436 25.8007 5.0118 25.4882C4.69924 25.1756 4.27532 25 3.83329 25C3.39127 25 2.96734 25.1756 2.65478 25.4882C2.34222 25.8007 2.16663 26.2247 2.16663 26.6667V33.3334C2.16663 34.6594 2.69341 35.9312 3.63109 36.8689C4.56877 37.8066 5.84054 38.3334 7.16663 38.3334H13.8333C14.2753 38.3334 14.6992 38.1578 15.0118 37.8452C15.3244 37.5326 15.5 37.1087 15.5 36.6667C15.5 36.2247 15.3244 35.8007 15.0118 35.4882C14.6992 35.1756 14.2753 35 13.8333 35ZM37.1666 25C36.7246 25 36.3007 25.1756 35.9881 25.4882C35.6755 25.8007 35.5 26.2247 35.5 26.6667V33.3334C35.5 33.7754 35.3244 34.1993 35.0118 34.5119C34.6992 34.8244 34.2753 35 33.8333 35H27.1666C26.7246 35 26.3007 35.1756 25.9881 35.4882C25.6756 35.8007 25.5 36.2247 25.5 36.6667C25.5 37.1087 25.6756 37.5326 25.9881 37.8452C26.3007 38.1578 26.7246 38.3334 27.1666 38.3334H33.8333C35.1594 38.3334 36.4311 37.8066 37.3688 36.8689C38.3065 35.9312 38.8333 34.6594 38.8333 33.3334V26.6667C38.8333 26.2247 38.6577 25.8007 38.3451 25.4882C38.0326 25.1756 37.6087 25 37.1666 25ZM33.8333 1.66669H27.1666C26.7246 1.66669 26.3007 1.84228 25.9881 2.15484C25.6756 2.4674 25.5 2.89133 25.5 3.33335C25.5 3.77538 25.6756 4.1993 25.9881 4.51186C26.3007 4.82443 26.7246 5.00002 27.1666 5.00002H33.8333C34.2753 5.00002 34.6992 5.17561 35.0118 5.48818C35.3244 5.80074 35.5 6.22466 35.5 6.66669V13.3334C35.5 13.7754 35.6755 14.1993 35.9881 14.5119C36.3007 14.8244 36.7246 15 37.1666 15C37.6087 15 38.0326 14.8244 38.3451 14.5119C38.6577 14.1993 38.8333 13.7754 38.8333 13.3334V6.66669C38.8333 5.3406 38.3065 4.06883 37.3688 3.13115C36.4311 2.19347 35.1594 1.66669 33.8333 1.66669ZM3.83329 15C4.27532 15 4.69924 14.8244 5.0118 14.5119C5.32436 14.1993 5.49996 13.7754 5.49996 13.3334V6.66669C5.49996 6.22466 5.67555 5.80074 5.98811 5.48818C6.30067 5.17561 6.7246 5.00002 7.16663 5.00002H13.8333C14.2753 5.00002 14.6992 4.82443 15.0118 4.51186C15.3244 4.1993 15.5 3.77538 15.5 3.33335C15.5 2.89133 15.3244 2.4674 15.0118 2.15484C14.6992 1.84228 14.2753 1.66669 13.8333 1.66669H7.16663C5.84054 1.66669 4.56877 2.19347 3.63109 3.13115C2.69341 4.06883 2.16663 5.3406 2.16663 6.66669V13.3334C2.16663 13.7754 2.34222 14.1993 2.65478 14.5119C2.96734 14.8244 3.39127 15 3.83329 15ZM17.1666 8.33335H10.5C10.0579 8.33335 9.63401 8.50895 9.32145 8.82151C9.00889 9.13407 8.83329 9.55799 8.83329 10V16.6667C8.83329 17.1087 9.00889 17.5326 9.32145 17.8452C9.63401 18.1578 10.0579 18.3334 10.5 18.3334H17.1666C17.6087 18.3334 18.0326 18.1578 18.3451 17.8452C18.6577 17.5326 18.8333 17.1087 18.8333 16.6667V10C18.8333 9.55799 18.6577 9.13407 18.3451 8.82151C18.0326 8.50895 17.6087 8.33335 17.1666 8.33335ZM15.5 15H12.1666V11.6667H15.5V15ZM23.8333 18.3334H30.5C30.942 18.3334 31.3659 18.1578 31.6785 17.8452C31.991 17.5326 32.1666 17.1087 32.1666 16.6667V10C32.1666 9.55799 31.991 9.13407 31.6785 8.82151C31.3659 8.50895 30.942 8.33335 30.5 8.33335H23.8333C23.3913 8.33335 22.9673 8.50895 22.6548 8.82151C22.3422 9.13407 22.1666 9.55799 22.1666 10V16.6667C22.1666 17.1087 22.3422 17.5326 22.6548 17.8452C22.9673 18.1578 23.3913 18.3334 23.8333 18.3334ZM25.5 11.6667H28.8333V15H25.5V11.6667ZM17.1666 21.6667H10.5C10.0579 21.6667 9.63401 21.8423 9.32145 22.1548C9.00889 22.4674 8.83329 22.8913 8.83329 23.3334V30C8.83329 30.442 9.00889 30.866 9.32145 31.1785C9.63401 31.4911 10.0579 31.6667 10.5 31.6667H17.1666C17.6087 31.6667 18.0326 31.4911 18.3451 31.1785C18.6577 30.866 18.8333 30.442 18.8333 30V23.3334C18.8333 22.8913 18.6577 22.4674 18.3451 22.1548C18.0326 21.8423 17.6087 21.6667 17.1666 21.6667ZM15.5 28.3334H12.1666V25H15.5V28.3334ZM23.8333 26.6667C24.2753 26.6667 24.6992 26.4911 25.0118 26.1785C25.3244 25.866 25.5 25.442 25.5 25C25.942 25 26.3659 24.8244 26.6785 24.5119C26.991 24.1993 27.1666 23.7754 27.1666 23.3334C27.1666 22.8913 26.991 22.4674 26.6785 22.1548C26.3659 21.8423 25.942 21.6667 25.5 21.6667H23.8333C23.3913 21.6667 22.9673 21.8423 22.6548 22.1548C22.3422 22.4674 22.1666 22.8913 22.1666 23.3334V25C22.1666 25.442 22.3422 25.866 22.6548 26.1785C22.9673 26.4911 23.3913 26.6667 23.8333 26.6667ZM30.5 21.6667C30.0579 21.6667 29.634 21.8423 29.3214 22.1548C29.0089 22.4674 28.8333 22.8913 28.8333 23.3334V28.3334C28.3913 28.3334 27.9673 28.5089 27.6548 28.8215C27.3422 29.1341 27.1666 29.558 27.1666 30C27.1666 30.442 27.3422 30.866 27.6548 31.1785C27.9673 31.4911 28.3913 31.6667 28.8333 31.6667H30.5C30.942 31.6667 31.3659 31.4911 31.6785 31.1785C31.991 30.866 32.1666 30.442 32.1666 30V23.3334C32.1666 22.8913 31.991 22.4674 31.6785 22.1548C31.3659 21.8423 30.942 21.6667 30.5 21.6667ZM23.8333 28.3334C23.5037 28.3334 23.1814 28.4311 22.9073 28.6142C22.6333 28.7974 22.4196 29.0577 22.2935 29.3622C22.1673 29.6668 22.1343 30.0019 22.1986 30.3252C22.263 30.6485 22.4217 30.9454 22.6548 31.1785C22.8879 31.4116 23.1848 31.5704 23.5081 31.6347C23.8314 31.699 24.1666 31.666 24.4711 31.5398C24.7756 31.4137 25.0359 31.2001 25.2191 30.926C25.4022 30.6519 25.5 30.3297 25.5 30C25.5 29.558 25.3244 29.1341 25.0118 28.8215C24.6992 28.5089 24.2753 28.3334 23.8333 28.3334Z" fill="black"/>
</svg>
