<svg fill="none" height="33" viewBox="0 0 32 33" width="32" xmlns="http://www.w3.org/2000/svg">
    <path
        d="M14.1721 0.101995C6.84435 0.919355 0.920716 6.84121 0.102465 14.169C-0.973993 23.8072 6.57457 32.0004 16 32.0004C16.5476 32.0004 17.0845 31.9737 17.6045 31.9212C18.1245 31.8686 18.4957 31.3959 18.4076 30.8812C18.3301 30.4271 17.9188 30.0986 17.4602 30.1458C16.9883 30.1947 16.5004 30.2197 16 30.2197C7.93328 30.2197 1.41487 23.468 1.79684 15.3202C2.13607 8.08684 8.0882 2.1356 15.3225 1.79726C23.4694 1.41618 30.2193 7.93459 30.2193 16.0005C30.2193 16.4991 30.1943 16.987 30.1454 17.4598C30.0973 17.9183 30.4267 18.3306 30.8808 18.408C31.3954 18.4962 31.8673 18.124 31.9199 17.6049C31.9733 17.0831 32 16.5463 32 16.0005C32 6.57588 23.8095 -0.971792 14.1721 0.101995Z"
        fill="black" />
    <path
        d="M19.9212 19.0314C19.9212 16.8687 18.1619 15.1085 15.9991 15.1085C14.8185 15.1085 13.8578 14.1477 13.8578 12.9671C13.8578 11.7865 14.8185 10.8258 15.9991 10.8258C17.1798 10.8258 18.1405 11.7865 18.1405 12.9671C18.1405 13.4586 18.5394 13.8575 19.0309 13.8575C19.5223 13.8575 19.9212 13.4586 19.9212 12.9671C19.9212 11.1864 18.7219 9.69678 17.0934 9.21954V7.45482C17.0934 6.96334 16.6945 6.56445 16.203 6.56445C15.7116 6.56445 15.3127 6.96334 15.3127 7.45482V9.11448C13.4767 9.44124 12.0762 11.0395 12.0762 12.9671C12.0762 15.1298 13.8355 16.8892 15.9983 16.8892C17.1789 16.8892 18.1396 17.8508 18.1396 19.0314C18.1396 20.2121 17.1798 21.1737 15.9991 21.1737C14.8185 21.1737 13.8578 20.2129 13.8578 19.0323C13.8578 18.5399 13.4589 18.1419 12.9674 18.1419C12.4759 18.1419 12.0771 18.5399 12.0771 19.0323C12.0771 20.96 13.4776 22.5591 15.3136 22.885V24.5464C15.3136 25.0388 15.7124 25.4368 16.2039 25.4368C16.6954 25.4368 17.0943 25.0388 17.0943 24.5464V22.7799C18.7219 22.3018 19.9212 20.8122 19.9212 19.0314Z"
        fill="black" />
    <path
        d="M20.097 25.8853L30.5558 20.1603C30.7887 20.0339 31.0762 20.0686 31.272 20.2495C31.4678 20.4304 31.5273 20.7154 31.4182 20.9583L29.4281 25.4318C29.2893 25.7441 28.9225 25.8853 28.6102 25.7465C28.298 25.6077 28.1567 25.2409 28.2955 24.9287L29.5421 22.1281L21.6856 26.4281L29.5867 30.7529L28.2955 27.9226C28.1617 27.6078 28.3104 27.2435 28.6251 27.1096C28.9399 26.9758 29.3042 27.1245 29.438 27.4393L31.4232 31.9103C31.5273 32.1532 31.4629 32.4357 31.2695 32.6117C31.1531 32.7182 31.0044 32.7727 30.8532 32.7727C30.7516 32.7727 30.6499 32.748 30.5558 32.6959L20.097 26.9709C19.8987 26.8618 19.7748 26.6536 19.7748 26.4281C19.7748 26.2026 19.8987 25.9944 20.097 25.8853Z"
        fill="black" stroke="white" stroke-width="0.20143" />
</svg>
