<svg fill="none" height="64" viewBox="0 0 65 64" width="65" xmlns="http://www.w3.org/2000/svg">
    <circle cx="32.8105" cy="32" r="31.25" stroke="white" stroke-width="1.5" />
    <path
        d="M30.4288 19.9753L30.4288 19.9753C37.7141 19.1827 43.9105 24.7543 43.9105 31.7175C43.9105 32.1206 43.8903 32.5172 43.8499 32.903M30.4288 19.9753L43.7504 32.8925M30.4288 19.9753C24.8881 20.5787 20.4072 24.9506 19.788 30.3649M30.4288 19.9753L19.788 30.3649M43.8499 32.903L43.7504 32.8925M43.8499 32.903C43.8499 32.9029 43.8499 32.9029 43.8499 32.9028L43.7504 32.8925M43.8499 32.903C43.8045 33.3406 43.3973 33.6533 42.9547 33.5793M43.7504 32.8925C43.711 33.2727 43.3571 33.5452 42.9711 33.4807M42.9547 33.5793L42.9711 33.4807M42.9547 33.5793C42.5667 33.5147 42.2779 33.1688 42.3201 32.7756M42.9547 33.5793C42.9547 33.5793 42.9547 33.5793 42.9547 33.5793L42.9711 33.4807M42.9711 33.4807L42.3201 32.7756M42.3201 32.7756L42.4196 32.7862L42.3201 32.7757C42.3201 32.7756 42.3201 32.7756 42.3201 32.7756ZM19.788 30.3649C18.9735 37.4859 24.6851 43.5347 31.8106 43.5347M19.788 30.3649L31.8106 43.5347M31.8106 43.5347C32.2244 43.5347 32.6304 43.515 33.0237 43.4762M31.8106 43.5347L33.0237 43.4762M33.0237 43.4762C33.4672 43.4325 33.7917 43.0363 33.7147 42.5978L33.0237 43.4762Z"
        fill="white" stroke="white" stroke-width="0.2" />
    <path d="M31.8105 26V38" stroke="white" stroke-linecap="round" stroke-linejoin="round"
        stroke-width="1.5" />
    <path
        d="M34.5381 28.1816H30.4472C29.9409 28.1816 29.4553 28.3828 29.0972 28.7408C28.7392 29.0988 28.5381 29.5844 28.5381 30.0907C28.5381 30.5971 28.7392 31.0826 29.0972 31.4407C29.4553 31.7987 29.9409 31.9998 30.4472 31.9998H33.1744C33.6808 31.9998 34.1664 32.201 34.5244 32.559C34.8824 32.917 35.0835 33.4026 35.0835 33.9089C35.0835 34.4152 34.8824 34.9008 34.5244 35.2588C34.1664 35.6169 33.6808 35.818 33.1744 35.818H28.5381"
        stroke="white" stroke-linecap="round" stroke-linejoin="round" stroke-width="1.5" />
    <path
        d="M45.2433 38.8236L45.2431 38.8235L37.399 34.6309L37.399 34.6309L37.3985 34.6306C37.1688 34.5089 36.8849 34.5418 36.6906 34.7171C36.4963 34.8925 36.4354 35.1712 36.545 35.41C36.5451 35.4101 36.5451 35.4102 36.5452 35.4102L38.0375 38.6858C38.0375 38.6858 38.0375 38.6858 38.0375 38.6858C38.1764 38.9908 38.5399 39.1251 38.8472 38.9917C39.1561 38.8577 39.2999 38.5002 39.16 38.193L39.16 38.193L38.409 36.5456L43.6627 39.3532L38.3817 42.1758L39.1594 40.5112L39.1594 40.5112L39.161 40.5076C39.2961 40.1973 39.1444 39.8428 38.8338 39.7138C38.524 39.5852 38.1637 39.7265 38.0296 40.0327L36.5412 43.3059L36.5412 43.3059L36.5404 43.3077C36.4354 43.5468 36.5011 43.8227 36.693 43.9935C36.8091 44.0972 36.9567 44.1496 37.1052 44.1496C37.2055 44.1496 37.3062 44.1257 37.3993 44.0754C37.3994 44.0754 37.3995 44.0754 37.3995 44.0753L45.2431 39.883L45.2433 39.8829C45.4391 39.7777 45.564 39.5754 45.564 39.3532C45.564 39.1311 45.4391 38.9288 45.2433 38.8236Z"
        fill="white" stroke="white" stroke-width="0.3" />
</svg>
