<svg fill="none" height="50" viewBox="0 0 50 50" width="50" xmlns="http://www.w3.org/2000/svg">
    <circle cx="25" cy="25" fill="#F5F5F5" r="25" />
    <path
        d="M31.6568 36.25H19.0142C18.2813 36.25 17.5784 35.9589 17.0602 35.4406C16.5419 34.9224 16.2508 34.2195 16.2508 33.4866C16.2219 31.2451 16.9887 29.0659 18.415 27.3365C19.8412 25.607 21.8345 24.4392 24.0405 24.0408C25.4817 23.8093 26.9573 23.9225 28.3464 24.371C29.7355 24.8195 30.9986 25.5907 32.0323 26.6213C32.1768 26.7657 32.3116 26.9101 32.4367 27.0642C32.5415 27.1637 32.6241 27.2841 32.6793 27.4176C32.7345 27.5511 32.761 27.6947 32.7571 27.8391C32.7532 27.9835 32.7189 28.1254 32.6566 28.2557C32.5943 28.386 32.5052 28.5018 32.3953 28.5955C32.2853 28.6891 32.1569 28.7586 32.0183 28.7995C31.8797 28.8403 31.7341 28.8515 31.591 28.8324C31.4478 28.8133 31.3102 28.7643 31.1872 28.6886C31.0642 28.6129 30.9584 28.5122 30.8769 28.393L30.588 28.0752C29.7824 27.2715 28.7978 26.6701 27.715 26.3203C26.6321 25.9705 25.4818 25.8822 24.3582 26.0628C22.6362 26.3837 21.0837 27.3047 19.9766 28.6621C18.8694 30.0196 18.2794 31.7256 18.3113 33.4769C18.3113 33.6659 18.3864 33.8472 18.52 33.9808C18.6537 34.1144 18.8349 34.1895 19.0239 34.1895H31.6568C31.7998 34.1756 31.9442 34.1918 32.0805 34.237C32.2169 34.2822 32.3423 34.3555 32.4487 34.4521C32.5551 34.5486 32.6402 34.6664 32.6983 34.7978C32.7565 34.9292 32.7866 35.0712 32.7866 35.2149C32.7866 35.3586 32.7565 35.5007 32.6983 35.6321C32.6402 35.7635 32.5551 35.8812 32.4487 35.9778C32.3423 36.0744 32.2169 36.1476 32.0805 36.1929C31.9442 36.2381 31.7998 36.2543 31.6568 36.2404V36.25Z"
        fill="#3CB4E5" />
    <path
        d="M25.4944 23.1241C24.2756 23.1241 23.0842 22.7627 22.0708 22.0856C21.0574 21.4084 20.2675 20.446 19.8011 19.32C19.3347 18.1939 19.2127 16.9549 19.4504 15.7595C19.6882 14.5641 20.2751 13.4661 21.137 12.6042C21.9988 11.7424 23.0968 11.1555 24.2922 10.9177C25.4876 10.68 26.7267 10.802 27.8527 11.2684C28.9787 11.7348 29.9412 12.5247 30.6183 13.5381C31.2954 14.5515 31.6568 15.7429 31.6568 16.9617C31.6543 18.5953 31.0042 20.1613 29.8491 21.3164C28.694 22.4715 27.128 23.1216 25.4944 23.1241ZM25.4944 12.8502C24.6813 12.8502 23.8864 13.0914 23.2102 13.5432C22.5341 13.9949 22.0071 14.6371 21.6959 15.3883C21.3847 16.1396 21.3033 16.9663 21.462 17.7638C21.6206 18.5614 22.0122 19.294 22.5872 19.869C23.1622 20.444 23.8948 20.8356 24.6923 20.9942C25.4899 21.1528 26.3166 21.0714 27.0678 20.7602C27.8191 20.449 28.4612 19.9221 28.913 19.2459C29.3648 18.5698 29.6059 17.7749 29.6059 16.9617C29.6059 15.8713 29.1728 14.8255 28.4017 14.0545C27.6306 13.2834 26.5849 12.8502 25.4944 12.8502Z"
        fill="#3CB4E5" />
    <path
        d="M38.9899 28.3979L38.9417 28.3932H38.8933H38.3873V27.9436C38.4121 27.6136 38.3713 27.2817 38.267 26.9673C38.157 26.6355 37.9789 26.3305 37.744 26.0717L37.0035 26.7438L37.744 26.0717C37.5091 25.8129 37.2227 25.6061 36.9031 25.4646C36.5835 25.3231 36.2379 25.25 35.8884 25.25C35.5389 25.25 35.1933 25.3231 34.8738 25.4646C34.5542 25.6061 34.2678 25.8129 34.0329 26.0717C33.798 26.3305 33.6198 26.6355 33.5098 26.9673C33.4056 27.2817 33.3647 27.6136 33.3895 27.9436V28.3932H32.8976H32.8493L32.8011 28.3979C32.1813 28.458 31.606 28.7468 31.1875 29.2079C30.769 29.669 30.5371 30.2694 30.5371 30.8922C30.5371 31.5149 30.769 32.1153 31.1875 32.5764C31.606 33.0375 32.1813 33.3263 32.8011 33.3864L32.8493 33.3911H32.8976H33.3895V33.8548C33.3647 34.1848 33.4056 34.5166 33.5098 34.8311C33.6198 35.1628 33.798 35.4679 34.0329 35.7267L34.7733 35.0546L34.0329 35.7267C34.2678 35.9855 34.5542 36.1923 34.8738 36.3338C35.1933 36.4753 35.5389 36.5484 35.8884 36.5484C36.2379 36.5484 36.5835 36.4753 36.9031 36.3338C37.2227 36.1923 37.5091 35.9855 37.744 35.7267L37.0035 35.0546L37.744 35.7267C37.9789 35.4679 38.157 35.1628 38.267 34.8311L37.3179 34.5164L38.267 34.8311C38.3713 34.5166 38.4121 34.1848 38.3873 33.8548V33.3911H38.8933H38.9417L38.9899 33.3864C39.6097 33.3263 40.1849 33.0375 40.6034 32.5764C41.022 32.1153 41.2538 31.5149 41.2538 30.8922C41.2538 30.2694 41.022 29.669 40.6034 29.2079C40.1849 28.7468 39.6097 28.458 38.9899 28.3979Z"
        fill="#3CB4E5" stroke="#F5F5F5" stroke-width="2" />
</svg>
