<svg fill="none" height="22" viewBox="0 0 22 22" width="22" xmlns="http://www.w3.org/2000/svg">
    <path
        d="M10.0814 10.908V15.583C10.0814 15.8262 10.178 16.0593 10.3499 16.2312C10.5218 16.4031 10.7549 16.4997 10.998 16.4997C11.2412 16.4997 11.4743 16.4031 11.6462 16.2312C11.8181 16.0593 11.9147 15.8262 11.9147 15.583V10.908C13.0276 10.6809 14.0165 10.0486 14.6896 9.13376C15.3628 8.21892 15.6723 7.08672 15.5582 5.95665C15.444 4.82658 14.9143 3.77916 14.0718 3.01744C13.2292 2.25572 12.1339 1.83398 10.998 1.83398C9.86223 1.83398 8.76687 2.25572 7.92432 3.01744C7.08178 3.77916 6.55208 4.82658 6.43792 5.95665C6.32376 7.08672 6.63327 8.21892 7.30645 9.13376C7.97963 10.0486 8.96851 10.6809 10.0814 10.908ZM10.998 3.66638C11.5419 3.66638 12.0736 3.82767 12.5259 4.12984C12.9781 4.43201 13.3306 4.86151 13.5387 5.364C13.7469 5.8665 13.8013 6.41943 13.6952 6.95288C13.5891 7.48633 13.3272 7.97633 12.9426 8.36093C12.558 8.74552 12.068 9.00743 11.5345 9.11354C11.0011 9.21965 10.4482 9.16519 9.94567 8.95705C9.44317 8.74891 9.01368 8.39644 8.71151 7.9442C8.40933 7.49197 8.24805 6.96028 8.24805 6.41638C8.24805 5.68704 8.53778 4.98756 9.0535 4.47184C9.56923 3.95611 10.2687 3.66638 10.998 3.66638ZM14.8572 13.218C14.7368 13.1928 14.6127 13.1914 14.4918 13.2142C14.3709 13.2369 14.2556 13.2832 14.1526 13.3504C14.0497 13.4177 13.9609 13.5045 13.8915 13.6061C13.8221 13.7076 13.7733 13.8218 13.748 13.9422C13.7228 14.0626 13.7214 14.1868 13.7442 14.3077C13.7669 14.4285 13.8132 14.5438 13.8804 14.6468C13.9477 14.7498 14.0345 14.8385 14.1361 14.9079C14.2376 14.9774 14.3518 15.0261 14.4722 15.0514C16.553 15.4639 17.4147 16.2064 17.4147 16.4997C17.4147 17.0314 15.1689 18.333 10.998 18.333C6.82721 18.333 4.58138 17.0314 4.58138 16.4997C4.58138 16.2064 5.44305 15.4639 7.52388 15.0147C7.64426 14.9894 7.75848 14.9407 7.86002 14.8713C7.96156 14.8019 8.04843 14.7131 8.11568 14.6101C8.18292 14.5071 8.22922 14.3919 8.25194 14.271C8.27465 14.1501 8.27333 14.0259 8.24805 13.9055C8.22277 13.7852 8.17403 13.6709 8.1046 13.5694C8.03518 13.4679 7.94644 13.381 7.84344 13.3137C7.74045 13.2465 7.62522 13.2002 7.50433 13.1775C7.38344 13.1548 7.25926 13.1561 7.13888 13.1814C4.35221 13.823 2.74805 15.0239 2.74805 16.4997C2.74805 18.9105 6.90055 20.1664 10.998 20.1664C15.0955 20.1664 19.248 18.9105 19.248 16.4997C19.248 15.0239 17.6439 13.823 14.8572 13.218Z"
        fill="white" />
</svg>
