<svg width="41" height="38" viewBox="0 0 41 38" fill="none" xmlns="http://www.w3.org/2000/svg">
<path d="M40.2062 24.3493C33.8295 5.78734 34.2682 7.0591 34.2409 6.99589C33.5772 5.45968 32.2887 4.26543 30.7057 3.71924C30.4791 3.64103 17.6439 0.638608 17.273 0.510167C16.1353 0.116171 14.5548 0.337037 13.4453 1.35753L2.44583 11.4788C1.20924 12.6162 0.5 14.2353 0.5 15.9211V33.8443C0.5 35.9564 2.20919 37.6749 4.3101 37.6749H27.8424C29.9433 37.6749 31.6525 35.9564 31.6525 33.8443V32.1119L38.2117 29.3048C40.1187 28.4795 41.0058 26.2647 40.2062 24.3493ZM27.8424 35.331H4.3101C3.50157 35.331 2.84381 34.6641 2.84381 33.8443V15.9211C2.84381 14.8892 3.27711 13.8987 4.03267 13.2037C13.4564 4.53254 7.63152 9.94113 15.0696 3.08164C15.4575 2.72413 15.9931 2.58054 16.5243 2.7407C16.999 2.8825 16.1613 2.20014 28.12 13.2039C28.8754 13.8987 29.3087 14.8892 29.3087 15.9211V33.8443C29.3086 34.6641 28.6508 35.331 27.8424 35.331ZM37.2851 27.1518L31.6524 29.5624V15.9211C31.6524 14.2353 30.9432 12.6162 29.7067 11.479L21.5153 3.94151L29.9923 5.95297C30.9176 6.2879 31.6719 6.98902 32.0725 7.88717C38.437 26.4137 38.0077 25.1702 38.0356 25.2344C38.3556 25.9741 38.017 26.8351 37.2851 27.1518Z" fill="black" stroke="black" stroke-width="0.5"/>
</svg>
