<svg fill="none" height="24" viewBox="0 0 23 24" width="23" xmlns="http://www.w3.org/2000/svg">
<path d="M22.7753 15.2094C19.2341 4.07229 19.4777 4.83534 19.4625 4.79742C19.0939 3.87569 18.3784 3.15914 17.4993 2.83142C17.3734 2.7845 10.2455 0.983046 10.0395 0.905981C9.40778 0.669584 8.53006 0.802103 7.91388 1.4144L1.80545 7.48718C1.11872 8.1696 0.724854 9.14107 0.724854 10.1526V20.9064C0.724854 22.1737 1.67403 23.2048 2.84076 23.2048H15.9092C17.0759 23.2048 18.0251 22.1737 18.0251 20.9064V19.867L21.6676 18.1827C22.7267 17.6876 23.2193 16.3587 22.7753 15.2094ZM15.9092 21.7985H2.84076C2.39174 21.7985 2.02647 21.3983 2.02647 20.9064V10.1526C2.02647 9.53337 2.26709 8.93908 2.68669 8.52211C7.92004 3.31941 4.68527 6.56456 8.81594 2.44887C9.03136 2.23436 9.32878 2.1482 9.62376 2.2443C9.88743 2.32938 9.42219 1.91996 16.0633 8.5222C16.4828 8.93912 16.7235 9.53337 16.7235 10.1526V20.9064C16.7234 21.3983 16.3581 21.7985 15.9092 21.7985ZM21.1531 16.891L18.025 18.3373V10.1526C18.025 9.14107 17.6312 8.1696 16.9445 7.48727L12.3955 2.96479L17.1031 4.17166C17.617 4.37262 18.0358 4.79329 18.2583 5.33218C21.7928 16.4481 21.5544 15.702 21.5699 15.7405C21.7476 16.1843 21.5596 16.7009 21.1531 16.891Z" fill="black"/>
<path d="M11.2227 9.4833C10.8913 9.33301 10.5098 9.50158 10.3707 9.85962L7.20248 18.018C7.02173 18.4834 7.34101 18.9934 7.8023 18.9934C8.05659 18.9934 8.29817 18.8313 8.40274 18.5621L11.571 10.4038C11.71 10.0456 11.5541 9.63354 11.2227 9.4833Z" fill="black"/>
<path d="M8.17247 11.5095C8.17247 10.1524 7.25253 9.04834 6.12174 9.04834C4.99094 9.04834 4.07104 10.1524 4.07104 11.5095C4.07104 12.8666 4.99098 13.9706 6.12178 13.9706C7.25258 13.9706 8.17247 12.8666 8.17247 11.5095ZM6.12178 12.5643C5.71572 12.5643 5.37266 12.0813 5.37266 11.5095C5.37266 10.9377 5.71568 10.4546 6.12178 10.4546C6.52788 10.4546 6.8709 10.9377 6.8709 11.5095C6.87086 12.0813 6.52784 12.5643 6.12178 12.5643Z" fill="black"/>
<path d="M12.6887 14.6263C11.5579 14.6263 10.6379 15.7304 10.6379 17.0875C10.6379 18.4446 11.5579 19.5486 12.6887 19.5486C13.8195 19.5486 14.7394 18.4446 14.7394 17.0875C14.7394 15.7304 13.8194 14.6263 12.6887 14.6263ZM12.6887 18.1423C12.2826 18.1423 11.9396 17.6593 11.9396 17.0875C11.9396 16.5157 12.2826 16.0326 12.6887 16.0326C13.0948 16.0326 13.4378 16.5157 13.4378 17.0875C13.4378 17.6593 13.0947 18.1423 12.6887 18.1423Z" fill="black"/>
</svg>
