<svg fill="none" height="96" viewBox="0 0 96 96" width="96" xmlns="http://www.w3.org/2000/svg">
    <circle cx="48" cy="48" fill="white" r="48" />
    <path
        d="M62.667 59.9995V57.3329C62.6661 56.1512 62.2728 55.0032 61.5488 54.0693C60.8248 53.1353 59.8112 52.4683 58.667 52.1729"
        stroke="#101010" stroke-linecap="round" stroke-linejoin="round" stroke-width="2" />
    <path
        d="M54.6663 60V57.3333C54.6663 55.9188 54.1044 54.5623 53.1042 53.5621C52.104 52.5619 50.7475 52 49.333 52H38.6663C37.2519 52 35.8953 52.5619 34.8951 53.5621C33.8949 54.5623 33.333 55.9188 33.333 57.3333V60"
        stroke="#101010" stroke-linecap="round" stroke-linejoin="round" stroke-width="2" />
    <path
        d="M53.333 36.1729C54.4802 36.4666 55.4971 37.1338 56.2232 38.0693C56.9493 39.0047 57.3435 40.1553 57.3435 41.3395C57.3435 42.5237 56.9493 43.6743 56.2232 44.6098C55.4971 45.5452 54.4802 46.2124 53.333 46.5062"
        stroke="black" stroke-linecap="round" stroke-linejoin="round" stroke-width="2" />
    <path
        d="M44.0003 46.6667C46.9458 46.6667 49.3337 44.2789 49.3337 41.3333C49.3337 38.3878 46.9458 36 44.0003 36C41.0548 36 38.667 38.3878 38.667 41.3333C38.667 44.2789 41.0548 46.6667 44.0003 46.6667Z"
        stroke="black" stroke-linecap="round" stroke-linejoin="round" stroke-width="2" />
</svg>
