<svg fill="none" height="42" viewBox="0 0 49 42" width="49" xmlns="http://www.w3.org/2000/svg">
<path d="M5.66141 27.1085L1.9491 23.3962C1.60307 23.053 1.33254 22.6413 1.15484 22.1875C0.977139 21.7336 0.89618 21.2477 0.917148 20.7608C0.938117 20.2738 1.06055 19.7966 1.27661 19.3598C1.49267 18.9229 1.79759 18.536 2.17184 18.2238C6.39339 14.8297 11.3522 12.4732 16.6498 11.3436C21.5396 10.2536 26.6093 10.2536 31.4991 11.3436C36.8186 12.4805 41.7955 14.8545 46.0266 18.2732C46.3997 18.5845 46.7039 18.9701 46.9199 19.4054C47.1358 19.8406 47.2588 20.3161 47.2809 20.8015C47.303 21.2869 47.2238 21.7716 47.0483 22.2247C46.8729 22.6778 46.605 23.0895 46.2617 23.4334L42.5494 27.1457C41.9548 27.7521 41.1599 28.1217 40.313 28.1854C39.4661 28.2491 38.6248 28.0028 37.9461 27.4922C36.6014 26.4608 35.1444 25.5849 33.6027 24.8812C32.9933 24.6047 32.476 24.1594 32.1119 23.598C31.7478 23.0365 31.5523 22.3825 31.5486 21.7133L31.5486 18.5702C26.689 17.2338 21.5589 17.2338 16.6993 18.5702L16.6993 21.7133C16.6956 22.3825 16.5001 23.0365 16.136 23.598C15.772 24.1594 15.2546 24.6047 14.6452 24.8812C13.1036 25.5849 11.6465 26.4608 10.3018 27.4922C9.61589 28.0085 8.76415 28.2547 7.90856 28.1839C7.05297 28.1132 6.25322 27.7305 5.66141 27.1085Z" stroke="white" stroke-linecap="round" stroke-linejoin="round" stroke-width="1.5"/>
</svg>
