<svg width="31" height="25" viewBox="0 0 31 25" fill="none" xmlns="http://www.w3.org/2000/svg">
<path d="M23.8027 21.9139V19.9139C23.8021 19.0277 23.5071 18.1667 22.9641 17.4663C22.4211 16.7658 21.6609 16.2655 20.8027 16.0439" stroke="#3CB4E5" stroke-width="2" stroke-linecap="round" stroke-linejoin="round"/>
<path d="M17.8027 21.915V19.915C17.8027 18.8542 17.3813 17.8368 16.6312 17.0866C15.881 16.3365 14.8636 15.915 13.8027 15.915H5.80273C4.74187 15.915 3.72445 16.3365 2.97431 17.0866C2.22416 17.8368 1.80273 18.8542 1.80273 19.915V21.915" stroke="#3CB4E5" stroke-width="2" stroke-linecap="round" stroke-linejoin="round"/>
<path d="M16.8027 4.04492C17.6631 4.26522 18.4258 4.76562 18.9704 5.46723C19.515 6.16884 19.8106 7.03175 19.8106 7.91992C19.8106 8.80809 19.515 9.671 18.9704 10.3726C18.4258 11.0742 17.6631 11.5746 16.8027 11.7949" stroke="#3CB4E5" stroke-width="2" stroke-linecap="round" stroke-linejoin="round"/>
<path d="M9.80273 11.915C12.0119 11.915 13.8027 10.1242 13.8027 7.91504C13.8027 5.7059 12.0119 3.91504 9.80273 3.91504C7.5936 3.91504 5.80273 5.7059 5.80273 7.91504C5.80273 10.1242 7.5936 11.915 9.80273 11.915Z" stroke="#3CB4E5" stroke-width="2" stroke-linecap="round" stroke-linejoin="round"/>
<path d="M26.8027 8.91504V14.915" stroke="#3CB4E5" stroke-width="2" stroke-linecap="round" stroke-linejoin="round"/>
<path d="M29.8027 11.915H23.8027" stroke="#3CB4E5" stroke-width="2" stroke-linecap="round" stroke-linejoin="round"/>
</svg>
