<svg width="41" height="40" viewBox="0 0 41 40" fill="none" xmlns="http://www.w3.org/2000/svg">
<path d="M20.2781 30.7346C20.5881 30.7346 20.8854 30.6115 21.1046 30.3923C21.3238 30.173 21.447 29.8757 21.447 29.5657V27.337H22.3977C23.2173 27.3364 24.0183 27.093 24.6995 26.6374C25.3808 26.1818 25.9117 25.5345 26.2253 24.7773C26.5388 24.0201 26.6209 23.187 26.4612 22.3831C26.3015 21.5793 25.9071 20.8408 25.3278 20.2611C24.9437 19.8753 24.487 19.5693 23.9842 19.3607C23.4813 19.1521 22.9421 19.0449 22.3977 19.0454H21.447V15.4451H24.5641C24.8742 15.4451 25.1715 15.3219 25.3907 15.1027C25.6099 14.8835 25.7331 14.5862 25.7331 14.2762C25.7331 13.9661 25.6099 13.6688 25.3907 13.4496C25.1715 13.2304 24.8742 13.1072 24.5641 13.1072H21.447V10.9096C21.447 10.5996 21.3238 10.3023 21.1046 10.0831C20.8854 9.86388 20.5881 9.74072 20.2781 9.74072C19.9681 9.74072 19.6707 9.86388 19.4515 10.0831C19.2323 10.3023 19.1091 10.5996 19.1091 10.9096V13.1072H18.1584C17.3225 13.0915 16.5014 13.3289 15.8029 13.7882C15.1043 14.2475 14.5609 14.9073 14.244 15.6809C13.9271 16.4546 13.8516 17.306 14.0272 18.1233C14.2029 18.9407 14.6216 19.6859 15.2283 20.2611C15.6133 20.6447 16.0704 20.9483 16.5733 21.1542C17.0762 21.3602 17.615 21.4645 18.1584 21.4612H19.1091V24.9368H15.1816C14.8715 24.9368 14.5742 25.0599 14.355 25.2791C14.1358 25.4983 14.0126 25.7957 14.0126 26.1057C14.0126 26.4157 14.1358 26.713 14.355 26.9322C14.5742 27.1515 14.8715 27.2746 15.1816 27.2746H19.1091V29.6125C19.1212 29.9143 19.2497 30.1998 19.4676 30.409C19.6855 30.6182 19.976 30.7349 20.2781 30.7346ZM21.447 21.3832H22.3977C22.8761 21.3884 23.334 21.5783 23.6758 21.9131C23.9394 22.1641 24.1212 22.4889 24.1972 22.8449C24.2733 23.2009 24.2401 23.5716 24.102 23.9085C23.9639 24.2453 23.7273 24.5326 23.4232 24.7328C23.1191 24.9329 22.7617 25.0366 22.3977 25.0303H21.447V21.3832ZM18.1584 19.0454C17.9209 19.0461 17.6856 18.9997 17.4662 18.9087C17.2468 18.8177 17.0477 18.6841 16.8804 18.5155C16.7123 18.3511 16.5788 18.1547 16.4877 17.9378C16.3967 17.721 16.3501 17.4882 16.3505 17.253C16.3505 16.7735 16.541 16.3137 16.88 15.9746C17.2191 15.6356 17.6789 15.4451 18.1584 15.4451H19.1091V19.0454H18.1584Z" fill="black"/>
<path d="M20.2782 6.14148e-06C15.0327 6.14148e-06 10.002 2.08378 6.29291 5.79292C2.58377 9.50205 0.5 14.5327 0.5 19.7782C0.5 25.0237 2.58377 30.0544 6.29291 33.7636C10.002 37.4727 15.0327 39.5565 20.2782 39.5565C21.6718 39.5603 23.0618 39.414 24.424 39.1201C24.5998 39.0853 24.7666 39.0148 24.9141 38.9129C25.0615 38.811 25.1865 38.6799 25.2812 38.5278C25.428 38.3041 25.5054 38.0419 25.5035 37.7743C25.5016 37.5067 25.4205 37.2456 25.2706 37.024C25.1206 36.8024 24.9084 36.6301 24.6607 36.5288C24.4129 36.4275 24.1408 36.4018 23.8785 36.4549C20.4312 37.1929 16.8399 36.8441 13.5989 35.4566C10.358 34.0692 7.62684 31.7112 5.78139 28.7074C3.93595 25.7036 3.06697 22.2016 3.29408 18.6835C3.5212 15.1654 4.83324 11.8041 7.04959 9.06254C9.26594 6.32092 12.2776 4.33372 15.67 3.37448C19.0625 2.41524 22.6688 2.53114 25.9927 3.70621C29.3165 4.88129 32.1944 7.05776 34.2301 9.93602C36.2659 12.8143 37.3594 16.2528 37.3601 19.7782C37.3601 20.3549 37.3601 20.916 37.2822 21.4927C37.2598 21.6704 37.2746 21.8508 37.3256 22.0225C37.3765 22.1942 37.4626 22.3534 37.5783 22.4901C37.8115 22.7635 38.1415 22.9358 38.4991 22.9706C38.8567 23.0055 39.2138 22.9003 39.4954 22.6772C39.7715 22.4444 39.9496 22.116 39.9941 21.7576C39.9941 21.1186 40.0876 20.4484 40.0876 19.7782C40.0856 17.1789 39.5716 14.6054 38.5749 12.2047C37.5783 9.80394 36.1186 7.62304 34.2791 5.78646C32.4397 3.94988 30.2565 2.4936 27.8542 1.50075C25.4519 0.507914 22.8776 -0.00204141 20.2782 6.14148e-06Z" fill="black"/>
<path fill-rule="evenodd" clip-rule="evenodd" d="M39.6583 27.5082C40.1139 27.9638 40.1139 28.7025 39.6583 29.1581L31.325 37.4915C30.8694 37.9471 30.1307 37.9471 29.6751 37.4915C29.2194 37.0358 29.2194 36.2972 29.6751 35.8415L38.0084 27.5082C38.464 27.0526 39.2027 27.0526 39.6583 27.5082Z" fill="black"/>
<path fill-rule="evenodd" clip-rule="evenodd" d="M29.6751 27.5082C30.1307 27.0526 30.8694 27.0526 31.325 27.5082L39.6583 35.8415C40.1139 36.2972 40.1139 37.0358 39.6583 37.4915C39.2027 37.9471 38.464 37.9471 38.0084 37.4915L29.6751 29.1581C29.2194 28.7025 29.2194 27.9638 29.6751 27.5082Z" fill="black"/>
</svg>
