<svg fill="none" height="279" viewBox="0 0 181 279" width="181" xmlns="http://www.w3.org/2000/svg">
<g clip-path="url(#clip0_629_91133)">
<path d="M188.187 -9H-7.43314V287.981H188.187V-9Z" fill="#FFE816"/>
<path d="M66.9025 185.832C86.0407 185.832 101.555 170.315 101.555 151.174C101.555 132.033 86.0407 116.516 66.9025 116.516C47.7644 116.516 32.2498 132.033 32.2498 151.174C32.2498 170.315 47.7644 185.832 66.9025 185.832Z" fill="#E53E51"/>
<path d="M247.468 201.653V215.684C244.45 215.609 241.6 214.901 239.029 213.69C231.949 210.336 227.068 203.143 227.068 194.777V166.547C227.068 162.69 223.938 159.559 220.063 159.559C216.206 159.559 213.077 162.69 213.077 166.547V178.901C213.077 178.976 213.077 195.578 213.077 195.578C212.909 201.485 210.245 206.777 206.127 210.448C202.457 213.708 197.632 215.702 192.341 215.702H191.987C188.782 215.702 185.764 214.976 183.044 213.708C176.021 210.373 171.139 203.255 171.083 194.982V166.566C171.083 162.708 167.954 159.578 164.097 159.578C160.241 159.578 157.111 162.708 157.111 166.566V178.92C157.111 178.994 157.111 195.597 157.111 195.597C156.924 201.503 154.279 206.795 150.161 210.466C146.491 213.727 141.666 215.721 136.375 215.721H136.021C132.816 215.721 129.798 214.994 127.078 213.727C119.999 210.373 115.117 203.18 115.117 194.814V166.584C115.117 162.727 111.988 159.597 108.112 159.597C104.256 159.597 101.126 162.727 101.126 166.584V178.938C101.126 179.013 101.126 195.615 101.126 195.615C100.958 201.522 98.2942 206.814 94.1768 210.485C90.5066 213.746 85.6813 215.74 80.3903 215.74H80.0363C68.4854 215.74 59.1329 206.385 59.1329 194.833V152.572C59.1329 148.696 62.2628 145.566 66.1379 145.566C69.9386 145.566 73.0312 148.603 73.143 152.385V194.702C73.143 198.559 76.2729 201.69 80.1294 201.69C83.9859 201.69 87.1159 198.559 87.1159 194.702L87.1345 165.671C87.3208 159.764 89.9663 154.472 94.0837 150.802C97.7539 147.541 102.579 145.547 107.87 145.547H108.224C111.447 145.547 114.484 146.274 117.223 147.578C124.265 150.932 129.146 158.125 129.146 166.454V194.684C129.146 198.541 132.276 201.671 136.151 201.671C140.008 201.671 143.138 198.541 143.138 194.684L143.156 165.653C143.324 159.746 145.988 154.454 150.106 150.783C153.776 147.522 158.601 145.528 163.892 145.528H164.246C167.469 145.528 170.506 146.255 173.245 147.559C180.157 150.913 185 158.013 185.075 166.267V194.684C185.075 198.541 188.205 201.671 192.061 201.671C195.918 201.671 199.048 198.541 199.048 194.684L199.066 165.653C199.234 159.746 201.898 154.454 206.016 150.783C209.686 147.522 214.511 145.528 219.802 145.528H220.156C223.379 145.528 226.416 146.255 229.155 147.559C236.197 150.913 241.078 158.106 241.078 166.435V194.665C241.078 198.354 243.891 201.354 247.468 201.653Z" fill="white"/>
<path d="M66.0639 159.485C69.9327 159.485 73.069 156.348 73.069 152.478C73.069 148.609 69.9327 145.472 66.0639 145.472C62.1951 145.472 59.0588 148.609 59.0588 152.478C59.0588 156.348 62.1951 159.485 66.0639 159.485Z" fill="#FFE816"/>
<path d="M144.07 264.839H145.43C145.933 264.839 146.306 264.951 146.567 265.193C146.828 265.435 146.939 265.77 146.939 266.18C146.939 266.627 146.79 266.963 146.511 267.205C146.231 267.447 145.803 267.559 145.244 267.559H144.666V269.124C144.666 269.31 144.573 269.403 144.368 269.403H144.052V264.839H144.07ZM145.3 267.037C145.654 267.037 145.915 266.963 146.082 266.814C146.25 266.665 146.325 266.46 146.325 266.18C146.325 265.901 146.25 265.696 146.101 265.547C145.952 265.416 145.71 265.342 145.393 265.342H144.704V267.037H145.3Z" fill="black"/>
<path d="M147.553 264.839H148.131V269.143C148.131 269.217 148.112 269.292 148.056 269.347C148 269.403 147.945 269.422 147.851 269.422H147.553V264.839Z" fill="black"/>
<path d="M151.205 269.478C151.112 269.422 151.038 269.366 151.001 269.31C150.945 269.254 150.907 269.142 150.87 269.012C150.777 269.142 150.665 269.254 150.498 269.347C150.348 269.44 150.181 269.478 149.995 269.478C149.678 269.478 149.436 269.384 149.249 269.198C149.063 269.012 148.97 268.77 148.97 268.434C148.97 268.136 149.082 267.894 149.287 267.726C149.491 267.559 149.79 267.484 150.162 267.484C150.386 267.484 150.609 267.503 150.814 267.54V267.205C150.814 267.018 150.758 266.869 150.665 266.758C150.572 266.664 150.404 266.609 150.181 266.609C150.013 266.609 149.845 266.627 149.715 266.664C149.585 266.702 149.436 266.758 149.305 266.851L149.156 266.478C149.417 266.217 149.79 266.087 150.237 266.087C150.628 266.087 150.926 266.18 151.131 266.385C151.336 266.59 151.429 266.851 151.429 267.186V268.639C151.429 268.77 151.448 268.881 151.466 268.956C151.485 269.049 151.541 269.124 151.615 269.198L151.205 269.478ZM150.199 267.931C149.976 267.931 149.827 267.969 149.715 268.062C149.622 268.136 149.566 268.267 149.566 268.434C149.566 268.583 149.603 268.714 149.696 268.807C149.79 268.9 149.92 268.956 150.088 268.956C150.218 268.956 150.348 268.919 150.479 268.844C150.609 268.77 150.721 268.658 150.814 268.546V268.006C150.609 267.95 150.404 267.931 150.199 267.931Z" fill="black"/>
<path d="M153.59 268.937C153.683 268.937 153.777 268.937 153.833 268.918C153.888 268.9 153.982 268.863 154.056 268.825L154.224 269.217C154.056 269.403 153.833 269.477 153.516 269.477C153.218 269.477 152.994 269.403 152.826 269.235C152.659 269.068 152.584 268.825 152.584 268.509V266.683H152.063V266.273L152.584 266.18V265.192H153.18V266.18H154.019V266.683H153.18V268.453C153.199 268.769 153.33 268.937 153.59 268.937Z" fill="black"/>
<path d="M155.603 265.323C155.528 265.398 155.435 265.435 155.323 265.435C155.211 265.435 155.118 265.398 155.044 265.323C154.988 265.249 154.95 265.155 154.95 265.062C154.95 264.951 154.988 264.857 155.044 264.783C155.1 264.708 155.193 264.69 155.323 264.69C155.454 264.69 155.547 264.727 155.603 264.783C155.658 264.857 155.696 264.932 155.696 265.062C155.696 265.155 155.677 265.249 155.603 265.323ZM155.603 266.18V269.142C155.603 269.217 155.584 269.291 155.528 269.347C155.472 269.403 155.416 269.422 155.323 269.422H155.006V266.18H155.603Z" fill="black"/>
<path d="M157.148 266.18L157.241 266.59C157.428 266.441 157.614 266.329 157.819 266.236C158.005 266.161 158.191 266.105 158.378 266.105C158.657 266.105 158.881 266.199 159.03 266.366C159.179 266.534 159.272 266.795 159.272 267.112V269.142C159.272 269.217 159.253 269.291 159.197 269.347C159.142 269.403 159.086 269.422 158.992 269.422H158.694V267.167C158.694 267 158.657 266.869 158.583 266.776C158.508 266.683 158.415 266.646 158.285 266.646C158.042 266.646 157.707 266.776 157.316 267.018V269.124C157.316 269.198 157.297 269.273 157.241 269.329C157.185 269.384 157.129 269.403 157.036 269.403H156.682V266.161H157.148V266.18Z" fill="black"/>
<path d="M162.441 269.478C162.366 269.441 162.292 269.385 162.236 269.31C162.18 269.236 162.124 269.142 162.087 269.012C161.9 269.161 161.714 269.292 161.528 269.366C161.342 269.441 161.193 269.478 161.025 269.478C160.745 269.478 160.522 269.385 160.354 269.217C160.187 269.049 160.112 268.789 160.112 268.472V266.162H160.69V268.416C160.69 268.584 160.727 268.714 160.801 268.807C160.876 268.9 160.969 268.938 161.099 268.938C161.248 268.938 161.397 268.9 161.547 268.844C161.696 268.789 161.863 268.695 162.031 268.565V266.162H162.627V268.639C162.627 268.751 162.646 268.844 162.664 268.938C162.702 269.031 162.739 269.124 162.795 269.236L162.441 269.478Z" fill="black"/>
<path d="M164.042 266.18L164.135 266.59C164.247 266.478 164.396 266.385 164.582 266.273C164.769 266.161 164.955 266.124 165.123 266.124C165.495 266.124 165.756 266.273 165.886 266.571C166.24 266.273 166.613 266.124 166.967 266.124C167.246 266.124 167.47 266.217 167.619 266.385C167.787 266.553 167.861 266.832 167.861 267.205V269.161C167.861 269.235 167.843 269.31 167.787 269.366C167.731 269.422 167.656 269.44 167.563 269.44H167.265V267.111C167.265 266.981 167.228 266.869 167.172 266.795C167.116 266.72 167.023 266.683 166.911 266.683C166.65 266.683 166.371 266.795 166.017 267V269.161C166.017 269.235 165.998 269.31 165.942 269.366C165.886 269.422 165.83 269.44 165.737 269.44H165.439V267.111C165.439 266.981 165.402 266.869 165.346 266.795C165.272 266.72 165.197 266.683 165.085 266.683C164.955 266.683 164.806 266.72 164.675 266.776C164.526 266.832 164.377 266.925 164.191 267.056V269.161C164.191 269.235 164.172 269.31 164.116 269.366C164.061 269.422 164.005 269.44 163.912 269.44H163.595V266.199H164.042V266.18Z" fill="black"/>
<path d="M141.611 248.59L135.984 262.006H132.314L129.557 251.31C129.389 250.658 129.24 250.416 128.737 250.137C127.899 249.689 126.52 249.261 125.309 249L125.384 248.609H131.29C132.035 248.609 132.724 249.112 132.892 249.969L134.345 257.739L137.959 248.609H141.611V248.59ZM155.975 257.609C155.994 254.068 151.075 253.882 151.112 252.298C151.131 251.814 151.578 251.31 152.584 251.18C153.087 251.124 154.447 251.068 156.012 251.776L156.627 248.925C155.789 248.627 154.708 248.329 153.385 248.329C149.957 248.329 147.535 250.155 147.517 252.764C147.498 254.702 149.231 255.764 150.553 256.416C151.895 257.068 152.361 257.497 152.361 258.074C152.361 258.969 151.28 259.379 150.293 259.379C148.541 259.416 147.535 258.913 146.734 258.54L146.101 261.484C146.921 261.857 148.411 262.174 149.957 262.193C153.59 262.211 155.975 260.404 155.975 257.609ZM165.029 261.988H168.234L165.439 248.571H162.477C161.806 248.571 161.247 248.963 161.005 249.559L155.807 261.988H159.44L160.167 259.994H164.619L165.029 261.988ZM161.154 257.236L162.98 252.205L164.023 257.236H161.154ZM146.567 248.59L143.697 262.006H140.232L143.101 248.59H146.567Z" fill="black"/>
<path d="M128.345 37.8068C128.588 38.1422 128.793 38.5149 128.923 38.9248C129.053 39.3348 129.128 39.7633 129.128 40.2105C129.128 40.6578 129.053 41.0863 128.923 41.4963C128.793 41.9062 128.588 42.2789 128.345 42.6143C128.01 43.0615 128.103 43.7136 128.55 44.0491C128.997 44.3845 129.65 44.2913 129.985 43.8441C130.358 43.341 130.656 42.782 130.861 42.1671C131.065 41.5522 131.177 40.9 131.177 40.2292C131.177 39.5584 131.065 38.9062 130.861 38.2913C130.656 37.6764 130.358 37.1174 129.985 36.6143C129.65 36.1671 128.997 36.0553 128.55 36.4093C128.103 36.7074 128.01 37.3596 128.345 37.8068Z" fill="black"/>
<path d="M131.866 35.8875C132.63 37.136 133.077 38.608 133.077 40.1919C133.077 41.7757 132.63 43.2478 131.866 44.4962C131.568 44.9807 131.717 45.6142 132.202 45.9123C132.686 46.2105 133.32 46.0614 133.618 45.5769C134.586 44.0117 135.145 42.167 135.145 40.1919C135.145 38.2167 134.586 36.372 133.618 34.8068C133.32 34.3223 132.686 34.1732 132.202 34.4714C131.717 34.7881 131.568 35.4217 131.866 35.8875Z" fill="black"/>
<path d="M135.592 33.95C136.673 35.7947 137.288 37.9189 137.288 40.2108C137.288 42.5028 136.673 44.627 135.592 46.4717C135.313 46.9562 135.481 47.5897 135.965 47.8692C136.449 48.1487 137.083 47.9997 137.362 47.4966C138.611 45.3537 139.337 42.8568 139.337 40.1922C139.337 37.5276 138.629 35.0307 137.362 32.8879C137.083 32.4034 136.449 32.2357 135.965 32.5152C135.481 32.832 135.313 33.4469 135.592 33.95Z" fill="black"/>
<path d="M139.318 31.9937C140.697 34.4161 141.479 37.2111 141.479 40.2111C141.479 43.2111 140.697 46.0062 139.318 48.4285C139.039 48.913 139.206 49.5465 139.709 49.8261C140.212 50.1056 140.827 49.9379 141.107 49.4347C142.653 46.7142 143.547 43.5465 143.547 40.1925C143.547 36.8385 142.653 33.6708 141.107 30.9503C140.827 30.4472 140.194 30.2795 139.709 30.559C139.206 30.8571 139.039 31.4906 139.318 31.9937Z" fill="black"/>
<path d="M111.802 23.8511C112.752 23.8511 113.516 24.615 113.516 25.5654V54.261C113.516 55.2113 112.752 55.9753 111.802 55.9753H89.8551C88.905 55.9753 88.1411 55.2113 88.1411 54.261V25.5654C88.1411 24.615 88.905 23.8511 89.8551 23.8511H111.802Z" fill="url(#paint0_linear_629_91133)"/>
<path d="M104.257 43.342H97.4013V36.4849H103.922H104.257V43.342ZM103.922 36.8389H103.587H103.922ZM103.587 42.6712V37.1557H98.072V42.6712H103.587Z" fill="#92855F"/>
<path d="M97.7358 40.2483H88.1411V39.5776H97.7358V40.2483Z" fill="#92855F"/>
<path d="M113.516 40.2483H103.922V39.5776H113.516V40.2483Z" fill="#92855F"/>
<path d="M97.4939 37.0623L93.2834 32.8511V23.8511H93.9541V32.5716L97.9783 36.5964L97.4939 37.0623Z" fill="#92855F"/>
<path d="M108.373 32.8324L104.163 37.0623L103.678 36.5964L107.721 32.5716V23.8511H108.373V32.8324Z" fill="#92855F"/>
<path d="M93.9541 47.2735V55.9753H93.2834V46.994L97.5125 42.7828V42.7642L97.9783 43.2486L93.9541 47.2735Z" fill="#92855F"/>
<path d="M108.373 55.9753H107.721L107.703 47.2735L103.678 43.2486L104.163 42.7642L108.373 46.994V55.9753Z" fill="#92855F"/>
<path d="M101.163 36.8387H100.492V23.8511H101.163V36.8387Z" fill="#92855F"/>
<path d="M101.163 55.9753H100.492V43.0063H101.163V55.9753Z" fill="#92855F"/>
<path d="M53.9362 39.5582V47.7383C53.9362 48.4837 53.3214 49.0986 52.5762 49.0986C51.8309 49.0986 51.2348 48.5023 51.2161 47.7756V39.5768C51.2161 38.8315 50.6013 38.2166 49.8561 38.2166C49.1109 38.2166 48.4961 38.8315 48.4961 39.5768V41.9619C48.4961 41.9806 48.4961 45.1855 48.4961 45.1855C48.4588 46.3222 47.9558 47.347 47.1547 48.0551C46.4467 48.6886 45.5152 49.0613 44.4905 49.0613H44.416C42.1803 49.0613 40.3732 47.2539 40.3732 45.0178V40.9185C40.3732 40.1731 40.988 39.5582 41.7332 39.5582C42.4784 39.5582 43.0746 40.1545 43.0932 40.8812V44.9992C43.0932 45.7445 43.708 46.3594 44.4533 46.3594C45.1985 46.3594 45.8133 45.7445 45.8133 44.9992V39.3719C45.8505 38.2352 46.3536 37.2104 47.1547 36.5023C47.8626 35.8688 48.7942 35.4961 49.8188 35.4961H49.8934C52.129 35.5147 53.9362 37.3222 53.9362 39.5582Z" fill="black"/>
<path d="M36.3304 49.0995C35.5852 49.0995 34.9704 48.4846 34.9704 47.7392V31.4535C34.9704 30.7082 35.5852 30.0933 36.3304 30.0933C37.0756 30.0933 37.6904 30.7082 37.6904 31.4535V47.7392C37.6718 48.4846 37.0756 49.0995 36.3304 49.0995Z" fill="black"/>
<path d="M26.8469 35.5156V31.4535C26.8469 30.7082 26.232 30.0933 25.4868 30.0933C24.7416 30.0933 24.1268 30.7082 24.1268 31.4535V45.0933C24.1268 47.3107 25.934 49.1181 28.151 49.1181H28.2441C30.4612 49.1181 32.2683 47.3107 32.2683 45.0933V39.5777C32.2683 37.3417 30.4612 35.5343 28.2255 35.5343H26.8469V35.5156ZM28.1882 46.379C27.443 46.379 26.8282 45.7641 26.8282 45.0187V39.5777C26.8282 38.8324 27.443 38.2175 28.1882 38.2175C28.9335 38.2175 29.5483 38.8324 29.5483 39.5777V45.0187C29.5483 45.7827 28.9335 46.379 28.1882 46.379Z" fill="black"/>
<path d="M64.8161 39.5963V36.8944C64.8161 36.1491 64.2013 35.5342 63.4561 35.5342C62.7108 35.5342 62.096 36.1491 62.096 36.8944V39.5963C62.096 40.3416 61.4812 40.9565 60.736 40.9565C59.9908 40.9565 59.376 40.3416 59.376 39.5963V31.4721C59.376 30.7267 58.7612 30.1118 58.016 30.1118C57.2707 30.1118 56.6559 30.7267 56.6559 31.4721V47.7391C56.6559 48.4845 57.2707 49.0994 58.016 49.0994C58.7612 49.0994 59.376 48.4845 59.376 47.7391V45.0186C59.376 44.2733 59.9908 43.6584 60.736 43.6584C61.4812 43.6584 62.096 44.2733 62.096 45.0186V47.7391C62.096 48.4845 62.7108 49.0994 63.4561 49.0994C64.2013 49.0994 64.8161 48.4845 64.8161 47.7391V45.0186C64.8161 43.9752 64.4248 43.0249 63.7728 42.2981C64.4062 41.5901 64.8161 40.6398 64.8161 39.5963Z" fill="black"/>
<path d="M41.7504 38.2347C41.0052 38.2347 40.3904 37.6199 40.3904 36.8747C40.3904 36.1295 41.0052 35.5146 41.7504 35.5146C42.4956 35.5146 43.1104 36.1295 43.1104 36.8747C43.0918 37.6199 42.4956 38.2347 41.7504 38.2347Z" fill="#E53E51"/>
</g>
<defs>
<linearGradient gradientUnits="userSpaceOnUse" id="paint0_linear_629_91133" x1="91.7222" x2="104.055" y1="20.9817" y2="46.6167">
<stop stop-color="#FFCE44"/>
<stop offset="0.094634" stop-color="#FFCF48"/>
<stop offset="0.1977" stop-color="#FFD256"/>
<stop offset="0.3047" stop-color="#FFD76B"/>
<stop offset="0.4138" stop-color="#FFDF8A"/>
<stop offset="0.478" stop-color="#FFE49F"/>
<stop offset="0.5528" stop-color="#FFDE88"/>
<stop offset="0.6688" stop-color="#FFD76A"/>
<stop offset="0.7834" stop-color="#FFD255"/>
<stop offset="0.895" stop-color="#FFCF48"/>
<stop offset="1" stop-color="#FFCE44"/>
</linearGradient>
<clipPath id="clip0_629_91133">
<rect fill="white" height="279" rx="12" width="180.529"/>
</clipPath>
</defs>
</svg>
