<svg width="56" height="56" viewBox="0 0 56 56" fill="none" xmlns="http://www.w3.org/2000/svg">
<rect width="56" height="56" rx="28" fill="#FFE816"/>
<mask id="path-2-inside-1_6527_68780" fill="white">
<path d="M24 37H20C19.7348 37 19.4804 36.8946 19.2929 36.7071C19.1054 36.5195 19 36.2652 19 36V32C19 31.7348 18.8946 31.4804 18.7071 31.2929C18.5196 31.1053 18.2652 31 18 31C17.7348 31 17.4804 31.1053 17.2929 31.2929C17.1054 31.4804 17 31.7348 17 32V36C17 36.7956 17.3161 37.5587 17.8787 38.1213C18.4413 38.6839 19.2044 39 20 39H24C24.2652 39 24.5196 38.8946 24.7071 38.7071C24.8946 38.5195 25 38.2652 25 38C25 37.7348 24.8946 37.4804 24.7071 37.2929C24.5196 37.1053 24.2652 37 24 37ZM38 31C37.7348 31 37.4804 31.1053 37.2929 31.2929C37.1054 31.4804 37 31.7348 37 32V36C37 36.2652 36.8946 36.5195 36.7071 36.7071C36.5196 36.8946 36.2652 37 36 37H32C31.7348 37 31.4804 37.1053 31.2929 37.2929C31.1054 37.4804 31 37.7348 31 38C31 38.2652 31.1054 38.5195 31.2929 38.7071C31.4804 38.8946 31.7348 39 32 39H36C36.7957 39 37.5587 38.6839 38.1213 38.1213C38.6839 37.5587 39 36.7956 39 36V32C39 31.7348 38.8946 31.4804 38.7071 31.2929C38.5196 31.1053 38.2652 31 38 31ZM36 17H32C31.7348 17 31.4804 17.1053 31.2929 17.2929C31.1054 17.4804 31 17.7348 31 18C31 18.2652 31.1054 18.5195 31.2929 18.7071C31.4804 18.8946 31.7348 19 32 19H36C36.2652 19 36.5196 19.1053 36.7071 19.2929C36.8946 19.4804 37 19.7348 37 20V24C37 24.2652 37.1054 24.5195 37.2929 24.7071C37.4804 24.8946 37.7348 25 38 25C38.2652 25 38.5196 24.8946 38.7071 24.7071C38.8946 24.5195 39 24.2652 39 24V20C39 19.2043 38.6839 18.4413 38.1213 17.8786C37.5587 17.316 36.7957 17 36 17ZM18 25C18.2652 25 18.5196 24.8946 18.7071 24.7071C18.8946 24.5195 19 24.2652 19 24V20C19 19.7348 19.1054 19.4804 19.2929 19.2929C19.4804 19.1053 19.7348 19 20 19H24C24.2652 19 24.5196 18.8946 24.7071 18.7071C24.8946 18.5195 25 18.2652 25 18C25 17.7348 24.8946 17.4804 24.7071 17.2929C24.5196 17.1053 24.2652 17 24 17H20C19.2044 17 18.4413 17.316 17.8787 17.8786C17.3161 18.4413 17 19.2043 17 20V24C17 24.2652 17.1054 24.5195 17.2929 24.7071C17.4804 24.8946 17.7348 25 18 25ZM26 21H22C21.7348 21 21.4804 21.1053 21.2929 21.2929C21.1054 21.4804 21 21.7348 21 22V26C21 26.2652 21.1054 26.5195 21.2929 26.7071C21.4804 26.8946 21.7348 27 22 27H26C26.2652 27 26.5196 26.8946 26.7071 26.7071C26.8946 26.5195 27 26.2652 27 26V22C27 21.7348 26.8946 21.4804 26.7071 21.2929C26.5196 21.1053 26.2652 21 26 21ZM25 25H23V23H25V25ZM30 27H34C34.2652 27 34.5196 26.8946 34.7071 26.7071C34.8946 26.5195 35 26.2652 35 26V22C35 21.7348 34.8946 21.4804 34.7071 21.2929C34.5196 21.1053 34.2652 21 34 21H30C29.7348 21 29.4804 21.1053 29.2929 21.2929C29.1054 21.4804 29 21.7348 29 22V26C29 26.2652 29.1054 26.5195 29.2929 26.7071C29.4804 26.8946 29.7348 27 30 27ZM31 23H33V25H31V23ZM26 29H22C21.7348 29 21.4804 29.1053 21.2929 29.2929C21.1054 29.4804 21 29.7348 21 30V34C21 34.2652 21.1054 34.5195 21.2929 34.7071C21.4804 34.8946 21.7348 35 22 35H26C26.2652 35 26.5196 34.8946 26.7071 34.7071C26.8946 34.5195 27 34.2652 27 34V30C27 29.7348 26.8946 29.4804 26.7071 29.2929C26.5196 29.1053 26.2652 29 26 29ZM25 33H23V31H25V33ZM30 32C30.2652 32 30.5196 31.8946 30.7071 31.7071C30.8946 31.5195 31 31.2652 31 31C31.2652 31 31.5196 30.8946 31.7071 30.7071C31.8946 30.5195 32 30.2652 32 30C32 29.7348 31.8946 29.4804 31.7071 29.2929C31.5196 29.1053 31.2652 29 31 29H30C29.7348 29 29.4804 29.1053 29.2929 29.2929C29.1054 29.4804 29 29.7348 29 30V31C29 31.2652 29.1054 31.5195 29.2929 31.7071C29.4804 31.8946 29.7348 32 30 32ZM34 29C33.7348 29 33.4804 29.1053 33.2929 29.2929C33.1054 29.4804 33 29.7348 33 30V33C32.7348 33 32.4804 33.1053 32.2929 33.2929C32.1054 33.4804 32 33.7348 32 34C32 34.2652 32.1054 34.5195 32.2929 34.7071C32.4804 34.8946 32.7348 35 33 35H34C34.2652 35 34.5196 34.8946 34.7071 34.7071C34.8946 34.5195 35 34.2652 35 34V30C35 29.7348 34.8946 29.4804 34.7071 29.2929C34.5196 29.1053 34.2652 29 34 29ZM30 33C29.8022 33 29.6089 33.0586 29.4444 33.1685C29.28 33.2784 29.1518 33.4346 29.0761 33.6173C29.0004 33.8 28.9806 34.0011 29.0192 34.1951C29.0578 34.389 29.153 34.5672 29.2929 34.7071C29.4327 34.8469 29.6109 34.9422 29.8049 34.9808C29.9989 35.0193 30.2 34.9995 30.3827 34.9239C30.5654 34.8482 30.7216 34.72 30.8315 34.5555C30.9414 34.3911 31 34.1978 31 34C31 33.7348 30.8946 33.4804 30.7071 33.2929C30.5196 33.1053 30.2652 33 30 33Z"/>
</mask>
<path d="M24 37H20C19.7348 37 19.4804 36.8946 19.2929 36.7071C19.1054 36.5195 19 36.2652 19 36V32C19 31.7348 18.8946 31.4804 18.7071 31.2929C18.5196 31.1053 18.2652 31 18 31C17.7348 31 17.4804 31.1053 17.2929 31.2929C17.1054 31.4804 17 31.7348 17 32V36C17 36.7956 17.3161 37.5587 17.8787 38.1213C18.4413 38.6839 19.2044 39 20 39H24C24.2652 39 24.5196 38.8946 24.7071 38.7071C24.8946 38.5195 25 38.2652 25 38C25 37.7348 24.8946 37.4804 24.7071 37.2929C24.5196 37.1053 24.2652 37 24 37ZM38 31C37.7348 31 37.4804 31.1053 37.2929 31.2929C37.1054 31.4804 37 31.7348 37 32V36C37 36.2652 36.8946 36.5195 36.7071 36.7071C36.5196 36.8946 36.2652 37 36 37H32C31.7348 37 31.4804 37.1053 31.2929 37.2929C31.1054 37.4804 31 37.7348 31 38C31 38.2652 31.1054 38.5195 31.2929 38.7071C31.4804 38.8946 31.7348 39 32 39H36C36.7957 39 37.5587 38.6839 38.1213 38.1213C38.6839 37.5587 39 36.7956 39 36V32C39 31.7348 38.8946 31.4804 38.7071 31.2929C38.5196 31.1053 38.2652 31 38 31ZM36 17H32C31.7348 17 31.4804 17.1053 31.2929 17.2929C31.1054 17.4804 31 17.7348 31 18C31 18.2652 31.1054 18.5195 31.2929 18.7071C31.4804 18.8946 31.7348 19 32 19H36C36.2652 19 36.5196 19.1053 36.7071 19.2929C36.8946 19.4804 37 19.7348 37 20V24C37 24.2652 37.1054 24.5195 37.2929 24.7071C37.4804 24.8946 37.7348 25 38 25C38.2652 25 38.5196 24.8946 38.7071 24.7071C38.8946 24.5195 39 24.2652 39 24V20C39 19.2043 38.6839 18.4413 38.1213 17.8786C37.5587 17.316 36.7957 17 36 17ZM18 25C18.2652 25 18.5196 24.8946 18.7071 24.7071C18.8946 24.5195 19 24.2652 19 24V20C19 19.7348 19.1054 19.4804 19.2929 19.2929C19.4804 19.1053 19.7348 19 20 19H24C24.2652 19 24.5196 18.8946 24.7071 18.7071C24.8946 18.5195 25 18.2652 25 18C25 17.7348 24.8946 17.4804 24.7071 17.2929C24.5196 17.1053 24.2652 17 24 17H20C19.2044 17 18.4413 17.316 17.8787 17.8786C17.3161 18.4413 17 19.2043 17 20V24C17 24.2652 17.1054 24.5195 17.2929 24.7071C17.4804 24.8946 17.7348 25 18 25ZM26 21H22C21.7348 21 21.4804 21.1053 21.2929 21.2929C21.1054 21.4804 21 21.7348 21 22V26C21 26.2652 21.1054 26.5195 21.2929 26.7071C21.4804 26.8946 21.7348 27 22 27H26C26.2652 27 26.5196 26.8946 26.7071 26.7071C26.8946 26.5195 27 26.2652 27 26V22C27 21.7348 26.8946 21.4804 26.7071 21.2929C26.5196 21.1053 26.2652 21 26 21ZM25 25H23V23H25V25ZM30 27H34C34.2652 27 34.5196 26.8946 34.7071 26.7071C34.8946 26.5195 35 26.2652 35 26V22C35 21.7348 34.8946 21.4804 34.7071 21.2929C34.5196 21.1053 34.2652 21 34 21H30C29.7348 21 29.4804 21.1053 29.2929 21.2929C29.1054 21.4804 29 21.7348 29 22V26C29 26.2652 29.1054 26.5195 29.2929 26.7071C29.4804 26.8946 29.7348 27 30 27ZM31 23H33V25H31V23ZM26 29H22C21.7348 29 21.4804 29.1053 21.2929 29.2929C21.1054 29.4804 21 29.7348 21 30V34C21 34.2652 21.1054 34.5195 21.2929 34.7071C21.4804 34.8946 21.7348 35 22 35H26C26.2652 35 26.5196 34.8946 26.7071 34.7071C26.8946 34.5195 27 34.2652 27 34V30C27 29.7348 26.8946 29.4804 26.7071 29.2929C26.5196 29.1053 26.2652 29 26 29ZM25 33H23V31H25V33ZM30 32C30.2652 32 30.5196 31.8946 30.7071 31.7071C30.8946 31.5195 31 31.2652 31 31C31.2652 31 31.5196 30.8946 31.7071 30.7071C31.8946 30.5195 32 30.2652 32 30C32 29.7348 31.8946 29.4804 31.7071 29.2929C31.5196 29.1053 31.2652 29 31 29H30C29.7348 29 29.4804 29.1053 29.2929 29.2929C29.1054 29.4804 29 29.7348 29 30V31C29 31.2652 29.1054 31.5195 29.2929 31.7071C29.4804 31.8946 29.7348 32 30 32ZM34 29C33.7348 29 33.4804 29.1053 33.2929 29.2929C33.1054 29.4804 33 29.7348 33 30V33C32.7348 33 32.4804 33.1053 32.2929 33.2929C32.1054 33.4804 32 33.7348 32 34C32 34.2652 32.1054 34.5195 32.2929 34.7071C32.4804 34.8946 32.7348 35 33 35H34C34.2652 35 34.5196 34.8946 34.7071 34.7071C34.8946 34.5195 35 34.2652 35 34V30C35 29.7348 34.8946 29.4804 34.7071 29.2929C34.5196 29.1053 34.2652 29 34 29ZM30 33C29.8022 33 29.6089 33.0586 29.4444 33.1685C29.28 33.2784 29.1518 33.4346 29.0761 33.6173C29.0004 33.8 28.9806 34.0011 29.0192 34.1951C29.0578 34.389 29.153 34.5672 29.2929 34.7071C29.4327 34.8469 29.6109 34.9422 29.8049 34.9808C29.9989 35.0193 30.2 34.9995 30.3827 34.9239C30.5654 34.8482 30.7216 34.72 30.8315 34.5555C30.9414 34.3911 31 34.1978 31 34C31 33.7348 30.8946 33.4804 30.7071 33.2929C30.5196 33.1053 30.2652 33 30 33Z" fill="black" stroke="#101010" stroke-width="3.5" mask="url(#path-2-inside-1_6527_68780)"/>
</svg>
