<svg fill="none" height="26" viewBox="0 0 26 26" width="26" xmlns="http://www.w3.org/2000/svg">
<path d="M11.6183 0.975281L11.6183 0.97528C18.9035 0.182691 25.1 5.75427 25.1 12.7175C25.1 13.1206 25.0798 13.5172 25.0394 13.903M11.6183 0.975281L24.9399 13.8925M11.6183 0.975281C6.07758 1.57874 1.59667 5.95063 0.977496 11.3649M11.6183 0.975281L0.977496 11.3649M25.0394 13.903L24.9399 13.8925M25.0394 13.903C25.0394 13.9029 25.0394 13.9029 25.0394 13.9028L24.9399 13.8925M25.0394 13.903C24.9939 14.3406 24.5867 14.6533 24.1442 14.5793M24.9399 13.8925C24.9005 14.2727 24.5466 14.5452 24.1606 14.4807M24.1442 14.5793L24.1606 14.4807M24.1442 14.5793C23.7562 14.5147 23.4674 14.1688 23.5096 13.7756M24.1442 14.5793C24.1442 14.5793 24.1441 14.5793 24.1441 14.5793L24.1606 14.4807M24.1606 14.4807L23.5096 13.7756M23.5096 13.7756L23.609 13.7862L23.5096 13.7757C23.5096 13.7756 23.5096 13.7756 23.5096 13.7756ZM0.977496 11.3649C0.162987 18.4859 5.87457 24.5347 13 24.5347M0.977496 11.3649L13 24.5347M13 24.5347C13.4139 24.5347 13.8198 24.515 14.2132 24.4762M13 24.5347L14.2132 24.4762M14.2132 24.4762C14.6567 24.4325 14.9811 24.0363 14.9042 23.5978L14.2132 24.4762Z" fill="white" stroke="white" stroke-width="0.2"/>
<path d="M13 7V19" stroke="white" stroke-linecap="round" stroke-linejoin="round" stroke-width="1.5"/>
<path d="M15.7266 9.18164H11.6357C11.1293 9.18164 10.6437 9.38278 10.2857 9.7408C9.9277 10.0988 9.72656 10.5844 9.72656 11.0907C9.72656 11.5971 9.9277 12.0826 10.2857 12.4407C10.6437 12.7987 11.1293 12.9998 11.6357 12.9998H14.3629C14.8692 12.9998 15.3548 13.201 15.7129 13.559C16.0709 13.917 16.272 14.4026 16.272 14.9089C16.272 15.4152 16.0709 15.9008 15.7129 16.2588C15.3548 16.6169 14.8692 16.818 14.3629 16.818H9.72656" stroke="white" stroke-linecap="round" stroke-linejoin="round" stroke-width="1.5"/>
<path d="M15.0008 19.8236L15.0011 19.8235L22.8451 15.6309L22.8451 15.6309L22.8456 15.6306C23.0753 15.5089 23.3593 15.5418 23.5535 15.7171C23.7479 15.8925 23.8088 16.1712 23.6991 16.41C23.6991 16.4101 23.699 16.4102 23.699 16.4102L22.2066 19.6858C22.2066 19.6858 22.2066 19.6858 22.2066 19.6858C22.0677 19.9908 21.7043 20.1251 21.397 19.9917C21.088 19.8577 20.9443 19.5002 21.0841 19.193L21.0841 19.193L21.8351 17.5456L16.5815 20.3532L21.8625 23.1758L21.0847 21.5112L21.0847 21.5112L21.0831 21.5076C20.948 21.1973 21.0998 20.8428 21.4103 20.7138C21.7201 20.5852 22.0805 20.7265 22.2145 21.0327L23.703 24.3059L23.703 24.3059L23.7038 24.3077C23.8087 24.5468 23.743 24.8227 23.5511 24.9935C23.435 25.0972 23.2874 25.1496 23.1389 25.1496C23.0387 25.1496 22.9379 25.1257 22.8448 25.0754C22.8448 25.0754 22.8447 25.0754 22.8446 25.0753L15.0011 20.883L15.0008 20.8829C14.805 20.7777 14.6801 20.5754 14.6801 20.3532C14.6801 20.1311 14.805 19.9288 15.0008 19.8236Z" fill="white" stroke="white" stroke-width="0.3"/>
</svg>
