<svg width="25" height="24" viewBox="0 0 25 24" fill="none" xmlns="http://www.w3.org/2000/svg">
<path d="M12.4907 18.633C12.6786 18.633 12.8589 18.5584 12.9918 18.4255C13.1247 18.2926 13.1994 18.1123 13.1994 17.9244V16.5732H13.7757C14.2726 16.5729 14.7582 16.4253 15.1712 16.1491C15.5842 15.8729 15.9061 15.4805 16.0962 15.0214C16.2863 14.5624 16.3361 14.0573 16.2392 13.57C16.1424 13.0826 15.9033 12.6349 15.5521 12.2834C15.3192 12.0496 15.0424 11.8641 14.7375 11.7376C14.4326 11.6111 14.1058 11.5461 13.7757 11.5464H13.1994V9.36375H15.0891C15.2771 9.36375 15.4573 9.28909 15.5902 9.15619C15.7231 9.02329 15.7978 8.84304 15.7978 8.65509C15.7978 8.46714 15.7231 8.28689 15.5902 8.15399C15.4573 8.02109 15.2771 7.94643 15.0891 7.94643H13.1994V6.61415C13.1994 6.4262 13.1247 6.24595 12.9918 6.11305C12.8589 5.98015 12.6786 5.90549 12.4907 5.90549C12.3027 5.90549 12.1225 5.98015 11.9896 6.11305C11.8567 6.24595 11.782 6.4262 11.782 6.61415V7.94643H11.2057C10.6989 7.9369 10.2011 8.08081 9.77759 8.35926C9.35409 8.63772 9.02466 9.03771 8.83255 9.50674C8.64045 9.97577 8.59463 10.4919 8.70112 10.9875C8.80761 11.483 9.06144 11.9347 9.42928 12.2834C9.66265 12.516 9.93978 12.7001 10.2447 12.8249C10.5496 12.9498 10.8762 13.0131 11.2057 13.011H11.782V15.1181H9.40093C9.21298 15.1181 9.03273 15.1927 8.89983 15.3256C8.76693 15.4585 8.69227 15.6388 8.69227 15.8267C8.69227 16.0147 8.76693 16.1949 8.89983 16.3278C9.03273 16.4607 9.21298 16.5354 9.40093 16.5354H11.782V17.9527C11.7894 18.1357 11.8672 18.3088 11.9994 18.4356C12.1315 18.5624 12.3076 18.6332 12.4907 18.633ZM13.1994 12.9638H13.7757C14.0658 12.9669 14.3434 13.082 14.5505 13.285C14.7104 13.4372 14.8206 13.6341 14.8667 13.8499C14.9128 14.0657 14.8927 14.2905 14.8089 14.4947C14.7252 14.6989 14.5818 14.8731 14.3974 14.9944C14.2131 15.1158 13.9964 15.1786 13.7757 15.1748H13.1994V12.9638ZM11.2057 11.5464C11.0617 11.5469 10.919 11.5187 10.786 11.4636C10.653 11.4084 10.5323 11.3274 10.4309 11.2252C10.3289 11.1255 10.248 11.0064 10.1928 10.875C10.1376 10.7435 10.1093 10.6024 10.1096 10.4598C10.1096 10.1691 10.2251 9.89034 10.4306 9.68478C10.6362 9.47923 10.915 9.36375 11.2057 9.36375H11.782V11.5464H11.2057Z" fill="white"/>
<path d="M21.7894 19.8425C21.7359 19.7097 21.6439 19.5958 21.5252 19.5157C21.4065 19.4355 21.2665 19.3926 21.1233 19.3926C20.9801 19.3926 20.8401 19.4355 20.7214 19.5157C20.6027 19.5958 20.5107 19.7097 20.4572 19.8425C20.4197 19.929 20.4004 20.0223 20.4004 20.1166C20.4004 20.2108 20.4197 20.3041 20.4572 20.3906L21.0146 21.5811L16.6304 19.2378L20.9957 16.904L20.4572 18.0851C20.42 18.17 20.4007 18.2617 20.4007 18.3544C20.4007 18.447 20.42 18.5387 20.4572 18.6236C20.4913 18.7127 20.5432 18.7939 20.6098 18.8621C20.6765 18.9304 20.7563 18.9843 20.8446 19.0205C21.0176 19.0973 21.2139 19.1026 21.3909 19.0354C21.5678 18.9681 21.7111 18.8337 21.7894 18.6614L23.2068 15.5717C23.2686 15.4334 23.2845 15.2791 23.2522 15.1311C23.2199 14.9832 23.1411 14.8495 23.0272 14.7496C22.915 14.6511 22.7757 14.5885 22.6275 14.57C22.4792 14.5514 22.3288 14.5778 22.1957 14.6457L14.7879 18.6142C14.6736 18.6733 14.5778 18.7628 14.5112 18.8728C14.4445 18.9829 14.4094 19.1092 14.4099 19.2378C14.4105 19.3663 14.446 19.4921 14.5125 19.602C14.5791 19.7118 14.6743 19.8015 14.7879 19.8614L22.1957 23.8205C22.3039 23.8762 22.4237 23.9054 22.5454 23.9055C22.723 23.9091 22.8952 23.8449 23.0272 23.726C23.139 23.6268 23.2166 23.4948 23.2488 23.3488C23.2811 23.2029 23.2664 23.0505 23.2068 22.9134L21.7894 19.8425Z" fill="white"/>
<path d="M12.4906 3.72327e-06C9.31046 3.72327e-06 6.26062 1.26329 4.01195 3.51195C1.76329 5.76062 0.5 8.81046 0.5 11.9906C0.5 15.1706 1.76329 18.2205 4.01195 20.4692C6.26062 22.7178 9.31046 23.9811 12.4906 23.9811C13.3354 23.9834 14.1781 23.8947 15.0039 23.7165C15.1105 23.6954 15.2116 23.6527 15.301 23.5909C15.3904 23.5292 15.4662 23.4497 15.5236 23.3575C15.6126 23.2218 15.6595 23.0629 15.6584 22.9007C15.6572 22.7384 15.6081 22.5802 15.5171 22.4458C15.4262 22.3114 15.2976 22.207 15.1474 22.1456C14.9972 22.0842 14.8322 22.0686 14.6732 22.1008C12.5833 22.5482 10.406 22.3367 8.44124 21.4956C6.47642 20.6544 4.82065 19.2249 3.70185 17.4039C2.58304 15.5828 2.05623 13.4597 2.19391 11.3269C2.3316 9.194 3.12703 7.15626 4.47069 5.49416C5.81435 3.83206 7.64019 2.62732 9.69684 2.04578C11.7535 1.46424 13.9398 1.5345 15.9549 2.24689C17.97 2.95928 19.7147 4.27877 20.9489 6.02371C22.183 7.76866 22.846 9.85326 22.8465 11.9906C22.8465 12.3402 22.8465 12.6803 22.7992 13.0299C22.7856 13.1377 22.7946 13.247 22.8255 13.3511C22.8564 13.4552 22.9086 13.5518 22.9787 13.6346C23.1201 13.8004 23.3202 13.9048 23.537 13.926C23.7537 13.9471 23.9703 13.8833 24.1409 13.748C24.3083 13.6069 24.4163 13.4078 24.4433 13.1906C24.4433 12.8032 24.5 12.3969 24.5 11.9906C24.4988 10.4147 24.1871 8.8545 23.5829 7.39907C22.9787 5.94364 22.0938 4.62147 20.9786 3.50804C19.8634 2.39461 18.5399 1.51174 17.0835 0.909832C15.6271 0.307923 14.0664 -0.0012376 12.4906 3.72327e-06Z" fill="white"/>
</svg>
