<svg width="121" height="63" viewBox="0 0 121 63" fill="none" xmlns="http://www.w3.org/2000/svg">
<g clip-path="url(#clip0_5672_134982)">
<path d="M48.0293 31.6553C48.6932 31.5548 49.3245 31.301 49.8731 30.914C50.0686 30.756 50.2234 30.5535 50.3245 30.3235C50.4256 30.0934 50.4701 29.8425 50.4543 29.5917C50.2539 28.9906 49.7628 29.9323 49.3119 29.7019C49.1015 29.5416 49.6626 28.9906 50.0234 29.1108C50.1183 28.9882 50.1804 28.8434 50.2038 28.6901C50.1561 28.6424 50.0947 28.6109 50.0281 28.6001C49.9615 28.5893 49.8933 28.5998 49.833 28.63C49.5777 28.7398 49.3612 28.9235 49.2112 29.1573C49.0612 29.3912 48.9846 29.6646 48.9913 29.9423C49.0814 30.6736 49.7829 29.792 50.1537 30.0024C49.7228 30.8138 48.6305 31.1143 48.0293 31.6553ZM84.2541 34.5904C84.1283 34.7369 84.0268 34.9026 83.9535 35.0813C83.8871 35.2222 83.865 35.38 83.89 35.5338C83.9151 35.6875 83.9861 35.8301 84.0938 35.9428C84.2892 36.0108 84.5036 35.9996 84.6908 35.9116C84.8782 35.8236 85.0235 35.6658 85.0958 35.4719C85.1775 35.5158 85.2687 35.5387 85.3614 35.5387C85.4541 35.5387 85.5453 35.5158 85.6269 35.4719C86.0478 35.2916 86.0278 34.6104 86.0278 34.1697C85.8374 34.34 86.0278 34.6806 85.7272 34.8408C85.4265 35.0011 85.2762 34.7206 85.2762 34.5403C85.146 34.7407 85.0558 35.1213 84.7752 35.2516C84.6914 35.3051 84.594 35.3335 84.4946 35.3335C84.3952 35.3335 84.2978 35.3051 84.214 35.2516C83.9936 35.0312 84.3042 34.7607 84.214 34.5403M91.449 29.1509C87.2403 30.4432 82.7209 31.8356 78.3219 32.8173L77.8709 33.9092C82.2901 32.6871 86.8294 31.475 91.0882 29.9022L91.449 29.1509ZM108.685 3.00525C108.43 3.00067 108.178 3.04841 107.943 3.14549C108.293 3.26457 108.613 3.45907 108.88 3.71526C109.146 3.97145 109.353 4.28307 109.486 4.62808C109.615 4.27635 109.821 3.95748 110.088 3.69426C110.354 3.43105 110.676 3.22998 111.029 3.10542C110.795 3.00693 110.542 2.95913 110.288 2.96518C110.242 2.85272 110.166 2.75545 110.067 2.68469C110.192 2.55718 110.33 2.44303 110.478 2.34409L109.476 0L108.474 2.34409C108.623 2.44303 108.76 2.55718 108.885 2.68469C108.785 2.75668 108.706 2.85333 108.655 2.96518M32.9381 59.2034C31.4857 56.7205 30.2519 54.1162 29.2505 51.4198H27.1261H27.076C27.3071 51.5405 27.4904 51.736 27.596 51.9744C27.7015 52.2128 27.7231 52.4799 27.6572 52.7321C27.3566 54.2848 26.6551 55.9978 24.7512 59.8445C24.695 59.938 24.6448 60.0351 24.6009 60.135C24.6009 60.135 24.6009 60.135 24.7512 60.135H26.4948H26.5549C26.5549 60.135 25.8134 59.9747 25.9336 59.4137C26.262 58.5298 26.6366 57.6638 27.0559 56.8192H29.9118C30.4208 57.8837 30.9861 58.9203 31.6053 59.9246C31.6554 60.0048 31.7256 60.145 31.7857 60.1751C31.918 60.2021 32.0543 60.2021 32.1865 60.1751H33.9001H33.9502C33.9502 60.0248 33.4692 60.0048 32.9481 59.1733M27.3465 56.1681C27.7824 55.1686 28.118 54.1284 28.3486 53.0627C28.8396 53.9943 29.6313 56.1681 29.6313 56.1681H27.3465ZM26.0539 43.7664C26.8423 43.4585 27.6574 43.2237 28.4889 43.0652C29.1402 42.6645 29.2204 41.9132 29.491 41.2721C28.7012 41.5762 27.8908 41.824 27.066 42.0134C26.2743 42.2337 26.3144 43.1954 26.0639 43.7664M33.5293 31.7454C33.0831 31.3958 32.5908 31.1093 32.0663 30.8939C31.7424 31.3205 31.5073 31.8076 31.3749 32.3264C31.8274 32.6592 32.3067 32.954 32.8078 33.208C33.1093 32.7659 33.3392 32.2791 33.4892 31.7655M12.7864 33.6087C16.6945 32.8173 20.5525 31.8656 24.3303 30.7838C24.7412 30.6335 25.7733 30.4832 25.7031 29.8521C21.6949 30.934 17.4962 31.9057 13.2674 32.7873L13.0269 33.1379C12.9368 33.2481 12.6261 33.5786 12.7864 33.6087ZM38.4795 39.6893V38.9781C38.6098 37.5355 36.8462 36.9746 36.4754 35.6823C36.5385 35.3037 36.717 34.9539 36.9865 34.6806C37.2644 34.4 37.6157 34.2032 38.0003 34.1129C38.3848 34.0225 38.7871 34.0422 39.1609 34.1697C39.5887 34.3567 39.9533 34.6632 40.2111 35.0524C40.4688 35.4415 40.6087 35.8968 40.6139 36.3635C39.8524 39.8195 36.0245 41.4824 33.3089 42.8949H33.5594C35.0555 42.7274 36.5279 42.3914 37.9484 41.8932C39.3614 41.3823 40.3233 39.7594 40.7943 38.4271C41.3655 36.7742 41.6561 34.36 40.4135 32.9275C40.0683 32.5772 39.6254 32.3391 39.1427 32.2444C38.66 32.1497 38.16 32.2027 37.7079 32.3966C37.2587 32.6293 36.8743 32.9699 36.5892 33.3877C36.3042 33.8056 36.1273 34.2877 36.0746 34.7907C36.0073 35.749 36.1965 36.7078 36.6227 37.5687C37.0489 38.4296 37.6967 39.1616 38.4996 39.6893M39.8524 42.9049C41.342 42.8771 42.8213 42.6514 44.2515 42.2337C45.7045 41.4524 46.2556 40.1201 46.5362 38.5373C46.8067 37.205 46.426 36.3635 47.3278 35.7524C47.6886 35.5421 47.5382 34.8308 47.6284 34.2899C47.6052 34.2509 47.5732 34.2179 47.5349 34.1936C47.4966 34.1692 47.4531 34.1542 47.408 34.1496C46.3458 34.5103 46.4059 35.6122 46.2756 36.5438C45.7345 39.7594 42.9187 41.823 40.3133 42.7046L39.8524 42.9049ZM18.378 35.4118C18.5083 36.103 19.4703 35.6623 19.7909 35.1013C19.8188 35.1513 19.8576 35.1944 19.9044 35.2274C19.9513 35.2603 20.005 35.2823 20.0615 35.2916C20.2018 35.2916 20.4322 35.2916 20.5826 34.8909C20.6489 34.7428 20.6832 34.5824 20.6832 34.4201C20.6832 34.2578 20.6489 34.0974 20.5826 33.9493L20.5325 34.3199C20.5122 34.4146 20.4607 34.4997 20.3861 34.5615C20.3116 34.6233 20.2184 34.6582 20.1216 34.6605C19.9112 34.6605 19.9613 34.4201 19.9312 34.3099C19.6807 34.39 19.7609 34.7807 19.3099 35.0111C19.1496 35.1013 18.859 35.1914 18.7388 35.0111C18.6185 34.8308 18.8189 34.5904 18.839 34.39C18.6859 34.5162 18.5665 34.6783 18.4913 34.8618C18.4161 35.0454 18.3875 35.2446 18.4081 35.4419M3.06637 42.6244C3.29562 42.5635 3.50662 42.4478 3.68119 42.2873C3.85576 42.1267 3.98866 41.9261 4.06844 41.7028C4.91018 39.9397 5.37113 37.7559 6.85419 37.4153C7.08467 37.6057 7.02455 37.9663 7.09469 38.2768C7.56566 40.661 9.93055 41.7729 11.8445 42.1736C15.0258 42.815 18.3128 42.7052 21.4442 41.8531C24.5755 41.0009 27.4647 39.4299 29.8818 37.2651L29.9619 37.205C29.6713 38.8278 30.6734 39.4489 31.435 39.3187C32.4972 39.1283 32.9281 37.9162 33.2788 37.1348C33.4695 36.7263 33.6302 36.3045 33.7598 35.8726C33.854 35.587 33.931 35.296 33.9903 35.0011L33.7397 35.1514C33.0283 35.6923 32.898 36.654 32.2467 37.2651C32.1142 37.3885 31.9541 37.4784 31.7798 37.5272C31.6054 37.576 31.4219 37.5823 31.2446 37.5456C31.0484 37.4657 30.8826 37.3257 30.771 37.1457C30.6593 36.9657 30.6077 36.755 30.6233 36.5438C30.6233 36.1531 30.7135 35.7424 30.7135 35.5421V35.4118V35.3117C26.7557 38.7681 21.7351 40.7687 16.4841 40.9816C13.1973 40.9816 9.82032 40.6009 7.87631 37.8361C7.56214 37.2038 7.34268 36.5287 7.22496 35.8326C6.7139 35.6422 6.14272 36.1131 5.792 36.4336C4.37908 37.6457 4.32898 39.5591 3.00624 40.8113C2.3549 41.1619 1.2426 40.4707 1.25262 39.3788C1.34051 38.6265 1.59022 37.9021 1.9846 37.2554C2.37898 36.6087 2.90868 36.055 3.53734 35.6322C5.48696 34.2399 6.86211 32.185 7.40533 29.8521C6.45754 30.2019 5.4774 30.4569 4.47929 30.6135C3.94819 30.8639 3.858 31.6152 3.67763 32.3866C4.45924 32.1361 5.42123 32.0159 6.29303 31.7655C5.49138 33.7489 3.42711 34.4702 2.00417 35.9828C1.3365 36.7152 0.894373 37.6245 0.730848 38.6018C0.567323 39.5791 0.689343 40.5828 1.08227 41.4924C1.22877 41.8874 1.5104 42.2177 1.87723 42.4249C2.24406 42.6321 2.67242 42.7028 3.08641 42.6244M95.9182 41.9833C95.1277 42.2875 94.3132 42.5254 93.4832 42.6945C92.7416 42.945 92.7216 43.9267 92.4811 44.5278C93.2403 44.2422 94.021 44.0178 94.8159 43.8566C95.5575 43.546 95.6276 42.6244 95.9182 41.9833ZM97.4013 59.4438C97.3512 59.0331 97.291 57.1398 97.261 56.148V51.7103C97.261 51.7103 97.261 51.4799 97.261 51.4398C97.1282 51.4188 96.9929 51.4188 96.8602 51.4398H95.1566C95.1566 51.4398 95.6978 51.6101 95.7579 52.1611C95.818 52.712 95.8681 54.4751 95.8982 55.4568V59.1934V59.9046C95.8982 59.9647 95.8982 60.125 95.9583 60.155C96.0184 60.1851 96.2289 60.155 96.3491 60.155H98.0526C98.0526 60.155 97.5115 59.9847 97.4514 59.4338M102.522 16.8695C102.522 17.2 102.522 17.5106 102.522 17.5106H116.481C116.481 17.5106 116.481 17.2201 116.481 16.9095L116.551 16.3185H102.382C102.382 16.3185 102.382 16.589 102.452 16.8695M108.845 42.6144H108.955C110.643 42.8026 112.351 42.6285 113.965 42.1035C114.542 41.7404 115.039 41.2635 115.425 40.702C115.811 40.1405 116.078 39.5061 116.21 38.8378C116.735 37.1209 116.755 35.2895 116.268 33.5614C115.782 31.8334 114.808 30.2816 113.464 29.0908C112.713 31.3748 113.645 33.7089 113.845 35.9327C113.976 36.6941 113.845 37.5556 114.036 38.2969C114.847 35.9828 114.226 33.7289 113.815 31.5952V31.4549C115.168 33.1779 116.18 34.8108 116.05 36.9044C115.689 40.6109 111.601 41.5425 108.895 42.6244M46.456 51.4198H44.7525H44.6924C44.6924 51.4198 45.2335 51.5901 45.3036 52.141C45.3738 52.692 45.3738 54.4551 45.4038 55.4368V58.9229C45.3873 59.3483 45.3132 59.7696 45.1834 60.1751C44.9384 60.6581 44.5743 61.0707 44.1254 61.374C43.6766 61.6772 43.1578 61.861 42.6181 61.9081C41.1751 61.9081 39.3714 61.257 40.143 58.7526C39.8925 58.6725 39.8023 59.0331 39.4215 59.1733C38.2466 59.5142 36.999 59.5142 35.824 59.1733C35.824 58.0413 35.824 57.0496 35.824 55.9076V51.7103C35.824 51.7103 35.824 51.4799 35.824 51.4398C35.6912 51.419 35.556 51.419 35.4232 51.4398H33.7197H33.6596C33.6596 51.4398 34.2007 51.6101 34.2708 52.1611C34.2708 52.3614 34.2708 52.9525 34.351 53.6036C34.351 55.7774 34.4312 58.1115 34.2909 60.1951H39.4916C39.4173 60.9075 39.5568 61.6259 39.8925 62.2587C40.6139 63.1302 41.8164 63.1002 42.9588 62.7696C44.6523 62.2587 46.7967 60.8262 46.9671 59.0531C46.9671 58.0514 46.9671 57.1097 46.9671 56.128V51.6903C46.9671 51.6903 46.9671 51.4599 46.9671 51.4198C46.8343 51.399 46.699 51.399 46.5662 51.4198M120.539 8.8755C120.677 8.82344 120.794 8.72759 120.871 8.6027C120.949 8.4778 120.984 8.33079 120.97 8.18429C120.938 8.01617 120.842 7.86728 120.701 7.76981C120.56 7.67233 120.387 7.6341 120.218 7.66338C120.334 7.55633 120.407 7.41109 120.423 7.25454C120.44 7.09799 120.399 6.94074 120.309 6.81189C120.209 6.70019 120.075 6.6255 119.927 6.60003C119.78 6.57456 119.628 6.5998 119.497 6.67165C119.597 6.55342 119.645 6.40046 119.632 6.24641C119.619 6.09236 119.545 5.94985 119.427 5.85022C119.309 5.75059 119.156 5.702 119.001 5.71515C118.847 5.7283 118.705 5.80211 118.605 5.92034C118.613 5.79407 118.583 5.66829 118.519 5.55932C118.454 5.45036 118.359 5.36324 118.244 5.30927C118.114 5.2654 117.973 5.26201 117.841 5.29956C117.709 5.33711 117.591 5.41384 117.503 5.51964C117.202 4.66815 116.601 5.0989 116.451 5.15901C116.3 5.21911 116.3 5.15901 116.3 5.15901C116.3 4.15726 115.398 4.51789 115.398 4.51789C115.469 4.38477 115.49 4.23081 115.457 4.08384C115.423 3.93686 115.339 3.80656 115.218 3.71649C115.089 3.64225 114.939 3.61373 114.791 3.63555C114.644 3.65736 114.508 3.72824 114.406 3.8367C114.406 3.15551 113.855 3.35586 113.695 3.41596C113.538 3.42853 113.381 3.42853 113.224 3.41596C112.757 3.33614 112.283 3.3126 111.811 3.34584C110.548 3.34584 109.486 5.40945 109.486 5.40945C109.486 5.40945 108.414 3.32581 107.161 3.34584C106.689 3.3127 106.215 3.33624 105.749 3.41596C105.588 3.42827 105.428 3.42827 105.268 3.41596C105.107 3.35586 104.606 3.15551 104.566 3.8367C104.462 3.72894 104.324 3.65874 104.176 3.637C104.027 3.61526 103.875 3.64321 103.744 3.71649C103.627 3.8092 103.546 3.94008 103.514 4.08644C103.483 4.2328 103.504 4.38543 103.574 4.51789C103.574 4.51789 102.702 4.13722 102.672 5.15901C102.672 5.15901 102.672 5.23915 102.512 5.15901C102.352 5.07887 101.77 4.66815 101.51 5.51964C101.425 5.41552 101.311 5.33963 101.182 5.30205C101.053 5.26447 100.916 5.26699 100.788 5.30927C100.673 5.36283 100.576 5.44954 100.51 5.55837C100.444 5.66719 100.412 5.7932 100.418 5.92034C100.312 5.82117 100.174 5.76396 100.03 5.75952C99.8855 5.75508 99.7444 5.80371 99.6333 5.89623C99.5223 5.98875 99.449 6.11873 99.4273 6.26161C99.4056 6.40449 99.437 6.55037 99.5156 6.67165C99.3859 6.60056 99.2359 6.57571 99.0902 6.6012C98.9445 6.62669 98.8118 6.701 98.714 6.81189C98.6214 6.93998 98.5794 7.09774 98.596 7.25489C98.6127 7.41205 98.6868 7.55752 98.8042 7.66338C98.8042 7.66338 98.1428 7.57322 98.0526 8.18429C98.0373 8.3284 98.069 8.47361 98.1431 8.5982C98.2171 8.72279 98.3295 8.82007 98.4635 8.8755C98.4635 8.8755 97.9224 9.12593 98.0226 9.5667C98.0456 9.70849 98.1172 9.83788 98.225 9.93286C98.3328 10.0278 98.4702 10.0825 98.6138 10.0876C98.6138 10.0876 98.1428 10.3982 98.3332 10.8289C98.3958 10.9801 98.513 11.1021 98.6616 11.1708C98.8101 11.2395 98.9791 11.2498 99.1349 11.1996C99.1349 11.1996 98.9044 11.7205 99.2551 11.9609C99.3623 12.0406 99.4923 12.0836 99.6259 12.0836C99.7594 12.0836 99.8895 12.0406 99.9966 11.9609C99.9966 11.9609 100.207 11.8807 100.297 12.031C100.297 12.031 100.448 12.2714 100.127 12.6321C100.127 12.6321 101.881 12.4818 102.362 15.3167H116.641C117.112 12.4818 118.896 12.6321 118.896 12.6321C118.565 12.2714 118.725 12.031 118.725 12.031C118.806 11.8807 119.026 11.9609 119.026 11.9609C119.134 12.0391 119.264 12.0812 119.397 12.0812C119.53 12.0812 119.66 12.0391 119.767 11.9609C120.108 11.7205 119.888 11.1996 119.888 11.1996C120.044 11.2498 120.212 11.2395 120.361 11.1708C120.51 11.1021 120.627 10.9801 120.689 10.8289C120.86 10.3982 120.399 10.0876 120.399 10.0876C120.97 9.99746 120.99 9.5667 120.99 9.5667C121.09 9.12593 120.539 8.8755 120.539 8.8755ZM102.051 13.0828C101.881 12.9626 101.941 12.8324 101.941 12.8324C102.155 12.645 102.315 12.4026 102.402 12.1312C102.004 11.9494 101.564 11.8768 101.129 11.9208C101.235 11.5475 101.427 11.2044 101.69 10.9191C101.327 10.7482 101.018 10.4798 100.799 10.1436C100.579 9.8075 100.458 9.41699 100.448 9.01574C100.428 8.71398 100.471 8.41146 100.575 8.12734C100.679 7.84323 100.84 7.58371 101.049 7.36523C101.258 7.14675 101.511 6.97407 101.79 6.85813C102.069 6.74219 102.37 6.68551 102.672 6.69168C102.567 7.04809 102.567 7.42718 102.672 7.78359C102.874 8.16882 103.042 8.57107 103.173 8.98569C103.328 9.52293 103.356 10.0889 103.253 10.6386C103.779 10.7606 104.254 11.0402 104.616 11.44C104.473 11.5183 104.349 11.6286 104.255 11.7624C104.162 11.8962 104.1 12.0498 104.075 12.2113C104.394 12.3335 104.74 12.3681 105.077 12.3115C105.057 12.478 104.98 12.6325 104.86 12.7492C104.74 12.8659 104.583 12.9377 104.416 12.9526C104.164 12.9628 103.912 12.9169 103.68 12.8181C103.448 12.7194 103.241 12.5703 103.073 12.3816C103.081 12.5137 103.055 12.6455 102.997 12.7645C102.939 12.8835 102.852 12.9856 102.743 13.061C102.634 13.1365 102.508 13.1827 102.376 13.1953C102.245 13.2079 102.112 13.1864 101.991 13.1329M104.215 14.896L103.003 14.4452L104.245 13.8842L105.518 14.315L104.215 14.896ZM106.901 14.7157C106.778 14.7157 106.659 14.6675 106.571 14.5814C106.483 14.4952 106.433 14.378 106.43 14.2549C106.433 14.1318 106.483 14.0146 106.571 13.9284C106.659 13.8423 106.778 13.7941 106.901 13.7941C107.023 13.7941 107.14 13.8426 107.227 13.9291C107.313 14.0155 107.362 14.1327 107.362 14.2549C107.363 14.3158 107.352 14.3763 107.33 14.4328C107.307 14.4894 107.273 14.5407 107.23 14.5838C107.187 14.6268 107.135 14.6607 107.079 14.6834C107.022 14.7061 106.962 14.7171 106.901 14.7157ZM107.422 11.9709C107.341 12.1792 107.205 12.3618 107.028 12.4993C106.852 12.6369 106.642 12.7242 106.42 12.7523C106.242 12.7586 106.067 12.7048 105.923 12.5993C105.779 12.4939 105.676 12.343 105.628 12.1713C105.93 12.0919 106.193 11.9071 106.37 11.6503C106.37 11.6503 106.159 11.2296 105.368 11.2296C105.368 11.2296 105.368 10.8289 106.29 9.94737C106.29 9.94737 105.668 9.68691 105.067 8.35459C104.858 7.94522 104.749 7.49203 104.749 7.03228C104.749 6.57253 104.858 6.11934 105.067 5.70997C105.329 5.32991 105.671 5.0119 106.069 4.77834C106.313 4.63477 106.581 4.53953 106.861 4.49785C106.984 4.50004 107.105 4.53219 107.214 4.59152C107.322 4.65085 107.414 4.73559 107.482 4.83845C107.902 5.32348 108.185 5.91111 108.304 6.54142C108.397 7.08387 108.42 7.63591 108.374 8.18429C108.359 8.70529 108.156 9.20329 107.803 9.58674C108.349 9.78886 108.83 10.135 109.196 10.5885C109.196 10.5885 108.454 10.8289 108.304 11.2697C108.539 11.4861 108.838 11.6198 109.156 11.6503C109.135 11.8207 109.06 11.9797 108.94 12.1028C108.821 12.226 108.664 12.3063 108.494 12.3315C108.287 12.3507 108.078 12.3239 107.882 12.2528C107.686 12.1818 107.509 12.0685 107.362 11.9208M109.456 14.6656L108.214 14.1647L109.456 13.6639L110.729 14.1647L109.456 14.6656ZM112.072 14.6656C111.978 14.6676 111.885 14.6414 111.806 14.5904C111.727 14.5395 111.665 14.4661 111.628 14.3796C111.592 14.2932 111.581 14.1977 111.599 14.1055C111.617 14.0132 111.662 13.9284 111.729 13.862C111.795 13.7955 111.88 13.7505 111.972 13.7326C112.064 13.7148 112.16 13.725 112.246 13.7618C112.333 13.7987 112.406 13.8606 112.457 13.9395C112.508 14.0185 112.535 14.1109 112.533 14.2048C112.534 14.2657 112.523 14.3262 112.5 14.3828C112.478 14.4393 112.444 14.4906 112.401 14.5337C112.357 14.5768 112.306 14.6106 112.25 14.6333C112.193 14.656 112.132 14.667 112.072 14.6656ZM112.573 12.6621C112.35 12.6373 112.138 12.5511 111.961 12.4132C111.784 12.2752 111.649 12.0909 111.571 11.8807C111.422 12.0286 111.242 12.142 111.045 12.213C110.848 12.284 110.637 12.3108 110.428 12.2915C110.26 12.2632 110.105 12.1818 109.986 12.0593C109.867 11.9368 109.79 11.7794 109.767 11.6103C110.448 11.47 110.619 11.2296 110.619 11.2296C110.468 10.7888 109.727 10.5484 109.727 10.5484C110.092 10.0949 110.573 9.74879 111.12 9.54667C110.77 9.16083 110.568 8.66429 110.548 8.14422C110.502 7.59584 110.526 7.0438 110.619 6.50135C110.741 5.87237 111.024 5.28573 111.44 4.79838C111.508 4.69491 111.6 4.6097 111.708 4.55029C111.817 4.49088 111.938 4.45911 112.062 4.45778C112.341 4.49946 112.61 4.5947 112.853 4.73827C113.249 4.97485 113.591 5.29232 113.855 5.6699C114.062 6.0802 114.169 6.53302 114.169 6.99221C114.169 7.45139 114.062 7.90422 113.855 8.31452C113.254 9.64684 112.643 9.9073 112.643 9.9073C113.565 10.7888 113.565 11.1895 113.565 11.1895C112.793 11.1895 112.563 11.6103 112.563 11.6103C112.734 11.8677 112.995 12.053 113.294 12.1312C113.251 12.3031 113.149 12.4547 113.007 12.5606C112.864 12.6664 112.69 12.7199 112.512 12.7122M114.697 14.8559L113.394 14.2649L114.667 13.8442L115.889 14.3951L114.697 14.8559ZM117.182 10.8489C117.448 11.1341 117.643 11.4771 117.753 11.8507C117.318 11.8005 116.877 11.8734 116.481 12.0611C116.562 12.3324 116.719 12.5754 116.932 12.7623C116.932 12.7623 117.012 12.8925 116.821 13.0127C116.7 13.0667 116.566 13.0882 116.433 13.0752C116.301 13.0622 116.174 13.015 116.065 12.9384C115.956 12.8617 115.868 12.7581 115.811 12.6377C115.754 12.5174 115.729 12.3842 115.739 12.2514C115.575 12.4454 115.369 12.5994 115.136 12.7019C114.903 12.8043 114.65 12.8523 114.396 12.8424C114.396 12.8424 113.775 12.7623 113.745 12.1913C114.098 12.2573 114.463 12.2226 114.797 12.0911C114.769 11.9307 114.705 11.7788 114.61 11.6468C114.514 11.5149 114.39 11.4065 114.246 11.3298C114.613 10.9312 115.091 10.6521 115.619 10.5284C115.511 9.97909 115.538 9.41177 115.699 8.8755C115.852 8.46966 116.033 8.07472 116.24 7.69343C116.363 7.34673 116.363 6.96827 116.24 6.62156C116.744 6.61791 117.233 6.78503 117.629 7.09561C118.025 7.40618 118.304 7.84186 118.421 8.33145C118.537 8.82104 118.484 9.33559 118.27 9.79104C118.056 10.2465 117.694 10.6159 117.242 10.8389M114.938 51.4599C114.938 51.6201 115.499 51.6602 115.579 52.0509C115.812 54.1627 115.886 56.2891 115.799 58.412C113.462 56.3171 111.331 54.0024 109.436 51.4999C109.326 51.3897 108.995 51.4198 108.815 51.4198H107.502C107.502 51.4198 107.843 51.56 108.214 52.0108C108.409 52.2487 108.534 52.5368 108.574 52.8423C108.574 53.7639 108.574 54.415 108.574 55.4769C108.574 56.5387 108.404 59.7744 108.404 59.8846C108.404 59.9948 108.404 60.1049 108.464 60.135C108.524 60.1651 108.735 60.135 108.855 60.135H109.917C109.917 59.9747 109.366 59.9647 109.296 59.4137C109.296 59.1232 109.236 58.0914 109.196 57.1598C109.196 55.9577 109.196 55.0161 109.286 53.9442C111.29 56.2783 115.869 60.6259 116.18 60.8663C116.491 61.1067 116.391 60.8663 116.391 60.8663C116.601 57.861 116.501 54.395 116.681 51.3497H114.998M106.981 59.0932C105.528 56.6122 104.297 54.0075 103.303 51.3096H101.169C101.401 51.4301 101.585 51.6251 101.692 51.8632C101.8 52.1013 101.824 52.3685 101.76 52.6219C101.46 54.1746 100.758 55.8876 98.8443 59.7343C98.8443 59.7343 98.724 59.9747 98.6939 60.0248C98.6639 60.0749 98.6939 60.0248 98.8543 60.0248H100.598C100.598 59.8645 99.8563 59.8645 99.9766 59.3036C100.304 58.4095 100.679 57.5334 101.099 56.679H103.965C104.516 57.6807 104.967 58.8127 105.638 59.7844C105.693 59.8745 105.756 59.9584 105.829 60.0348C105.961 60.0618 106.097 60.0618 106.23 60.0348H107.933H107.993C107.993 60.0348 107.512 59.8645 106.991 59.0331M101.39 56.0278C101.825 55.0283 102.161 53.9881 102.392 52.9224C102.871 53.9352 103.3 54.9717 103.674 56.0278H101.39ZM60.6253 38.0064C60.7882 36.6 60.6557 35.1751 60.2364 33.8228C59.8172 32.4704 59.1202 31.2204 58.1903 30.1527C57.9769 33.0364 58.0743 35.9348 58.4809 38.7977C59.3927 36.7942 58.4809 34.7907 58.6011 32.7873C59.0956 33.5588 59.4896 34.3903 59.7735 35.2616C60.0295 36.0512 60.0716 36.8945 59.8955 37.7057C59.7195 38.5169 59.3317 39.267 58.7715 39.8796C58.4641 40.2651 58.0517 40.5535 57.5841 40.7099C57.1165 40.8663 56.6135 40.8841 56.136 40.7612C55.8775 40.6467 55.648 40.4755 55.4646 40.2603C55.6776 39.7205 55.8583 39.1686 56.0057 38.6074C56.5469 36.3334 56.146 34.38 54.663 31.9157C53.4013 34.5831 53.2252 37.636 54.172 40.4306C54.0127 40.6178 53.8165 40.77 53.5956 40.8778C53.3747 40.9856 53.1339 41.0466 52.8883 41.0569C52.6428 41.0673 52.3977 41.0267 52.1685 40.9379C51.9393 40.8491 51.731 40.7139 51.5566 40.5408C52.206 39.1917 52.5051 37.7008 52.4263 36.2056C52.3475 34.7105 51.8933 33.2593 51.1056 31.9859C49.8396 34.6342 49.5692 37.6495 50.3441 40.4807C48.9946 41.5779 47.4793 42.4536 45.8548 43.0752C47.8589 42.965 49.4923 42.8248 50.8651 41.7529C51.0853 42.0442 51.3658 42.2846 51.6875 42.4575C52.0092 42.6304 52.3645 42.7318 52.729 42.7547C53.5481 42.6941 54.3173 42.3381 54.8934 41.7529C55.3018 42.1782 55.8375 42.459 56.4196 42.553C57.0017 42.6469 57.5986 42.549 58.1201 42.2738C58.8386 41.8001 59.4406 41.1703 59.8814 40.4313C60.3221 39.6924 60.5901 38.8634 60.6654 38.0064M51.0355 39.5791C50.6585 38.7785 50.4631 37.9045 50.4631 37.0196C50.4631 36.1348 50.6585 35.2608 51.0355 34.4602C51.8071 35.8927 52.3682 38.1767 51.0355 39.5791ZM54.683 34.4902C55.2346 35.1978 55.5554 36.0577 55.6019 36.9536C55.6485 37.8494 55.4187 38.738 54.9436 39.499C53.9916 38.2768 54.212 36.073 54.683 34.4902ZM92.0703 51.4599C92.0703 51.6201 92.6414 51.6602 92.7116 52.0509C92.95 54.1623 93.0237 56.2891 92.932 58.412C90.5944 56.3171 88.4635 54.0024 86.5689 51.4999C86.4587 51.3897 86.138 51.4198 85.9476 51.4198H84.6449C84.6449 51.4198 84.6449 51.4198 84.5848 51.4198C84.5247 51.4198 84.9255 51.56 85.3063 52.0108C85.4995 52.2492 85.6211 52.5375 85.657 52.8423C85.657 53.7639 85.657 54.415 85.657 55.4769C85.657 56.5387 85.4867 59.7744 85.4867 59.8846C85.4867 59.9948 85.4867 60.1049 85.4867 60.135C85.4867 60.1651 85.7672 60.135 85.8875 60.135H86.9497C86.9497 59.9747 86.4086 59.9647 86.3384 59.4137C86.3384 59.1232 86.2683 58.0914 86.2382 57.1598C86.2082 56.0873 86.2349 55.0139 86.3184 53.9442C88.3225 56.2783 92.902 60.6259 93.2126 60.8663C93.5233 61.1067 93.4231 60.8663 93.4231 60.8663C93.6435 57.861 93.5333 54.395 93.7137 51.3497H92.1304H92.0703M55.1139 51.55C53.1098 51.1794 50.7248 51.4699 49.3821 52.8122C48.0393 54.1546 47.7186 58.2517 50.1937 59.6141C51.0211 60.0156 51.9317 60.2159 52.8512 60.1985C53.7708 60.181 54.6731 59.9465 55.4847 59.5139C57.6792 58.2417 57.8896 55.5069 57.2283 53.3732C57.073 52.9069 56.7946 52.4913 56.4224 52.1704C56.0502 51.8494 55.598 51.6351 55.1139 51.55ZM55.7853 58.2517C55.6955 58.3696 55.5831 58.4684 55.4546 58.5422C54.6351 58.9185 53.7228 59.0451 52.8317 58.9061C51.9406 58.7672 51.1102 58.3688 50.4443 57.7609C50.0173 57.0058 49.8221 56.1417 49.8831 55.2765C49.8285 54.5231 49.9773 53.7689 50.314 53.0927C51.1858 51.7303 54.7031 52.3314 55.665 53.5836C56.0136 54.3042 56.2029 55.0914 56.2202 55.8917C56.2375 56.692 56.0823 57.4866 55.7653 58.2217M75.7065 53.854C74.8647 50.979 71.117 51.3897 68.0607 51.3897H66.9784C66.3772 51.3897 67.0987 51.5099 67.2289 51.9908C67.3091 55.4568 67.2289 58.3018 67.2289 58.3018C67.2289 58.6023 67.2289 58.9029 67.2289 59.2134C67.2338 59.333 67.2066 59.4517 67.1501 59.5572C67.0936 59.6628 67.0099 59.7513 66.9077 59.8136C66.8055 59.876 66.6885 59.9098 66.5688 59.9117C66.4491 59.9136 66.331 59.8835 66.2269 59.8245C64.834 58.7326 64.4332 56.8192 63.2207 56.0579C63.8817 55.7108 64.449 55.209 64.8741 54.5953C65.0692 54.2045 65.1466 53.7655 65.0968 53.3315C65.047 52.8976 64.8721 52.4875 64.5935 52.1511C63.8296 51.5537 62.8615 51.2803 61.8979 51.3897H58.6813C58.0199 51.3897 58.9418 51.53 58.9418 52.121C59.0621 54.8858 58.9418 60.135 58.9418 60.135H61.1263C61.1263 59.9146 60.5752 59.8946 60.495 59.564C60.495 59.564 60.495 56.6289 60.495 56.4486C60.495 56.2682 60.6554 56.2482 60.6554 56.2482C61.2566 56.2482 61.7276 56.138 62.0583 56.5788C62.3889 57.0196 63.7317 59.9948 65.5254 60.5157C65.7545 60.5736 65.9909 60.5973 66.2269 60.5858C66.852 60.599 67.4677 60.4321 68.0005 60.1049C70.175 60.2151 72.5499 60.5557 74.3336 59.1934C76.1173 57.831 76.1574 55.7874 75.7065 53.8741M60.6754 55.4368C60.6442 55.4356 60.6136 55.428 60.5854 55.4146C60.5573 55.4012 60.5321 55.3822 60.5115 55.3588C60.4909 55.3354 60.4753 55.308 60.4655 55.2784C60.4558 55.2487 60.4522 55.2174 60.4549 55.1864V52.4316C61.457 52.101 62.9802 52.0809 63.4612 52.8323C63.6597 53.187 63.7572 53.5893 63.743 53.9955C63.7289 54.4017 63.6037 54.7962 63.381 55.1363C62.7898 55.6371 60.8858 55.4769 60.6954 55.4468M73.7224 58.6123C72.6501 59.544 70.2051 59.1232 68.712 58.973V52.5217C69.3605 52.3238 70.0436 52.2657 70.7161 52.3514C71.8485 52.3514 73.3816 52.7421 73.9729 53.7338C74.5641 54.7256 74.8647 57.6006 73.6923 58.6123M83.9535 59.2034C82.5011 56.7205 81.2673 54.1162 80.2659 51.4198H78.2116H78.1515C78.3844 51.5389 78.5699 51.7338 78.6773 51.9723C78.7848 52.2108 78.8078 52.4787 78.7427 52.7321C78.4421 54.2848 77.7407 55.9978 75.8367 59.8445C75.7805 59.938 75.7303 60.0351 75.6864 60.135C75.6864 60.135 75.6864 60.135 75.8367 60.135H77.5803C77.5803 60.135 76.8488 59.9747 76.9691 59.4137C77.0893 58.8528 77.7006 57.6707 78.0814 56.7892H80.9473C81.4984 57.7909 81.9493 58.9229 82.6308 59.8946C82.685 59.9847 82.7489 60.0686 82.8212 60.145C82.9534 60.172 83.0897 60.172 83.222 60.145H84.9255H84.9856C84.9856 60.145 84.5046 59.9747 83.9836 59.1433M78.372 56.138C78.8133 55.1406 79.1492 54.0998 79.374 53.0326C79.8751 53.9642 80.6667 56.138 80.6667 56.138H78.372ZM22.3562 59.6141V57.0396C23.8377 55.408 24.9789 53.4975 25.7132 51.4198H24.1499C23.4886 51.4198 24.4004 51.56 24.4004 52.1511C24.2902 53.4133 23.0577 54.956 21.9754 56.2282L19.1296 51.4198H17.0352H16.9851C16.9851 51.4198 17.396 51.52 17.7868 52.0709C18.869 53.6737 19.9212 55.3667 20.8531 57.0797C20.8531 57.9812 20.8531 60.1751 20.8531 60.1751H22.9975C22.9975 59.8745 22.4364 59.9246 22.3763 59.574M15.011 51.56C13.0069 51.1894 10.632 51.4799 9.2792 52.8222C8.64752 53.7081 8.30386 54.7668 8.2949 55.8546C8.28593 56.9425 8.6121 58.0067 9.2291 58.9029L9.34935 59.0531C9.40947 59.1232 9.45958 59.2134 9.42951 59.2835C9.359 59.4325 9.2593 59.5658 9.13631 59.6756C9.01333 59.7854 8.86956 59.8694 8.71352 59.9226C8.55748 59.9759 8.39234 59.9973 8.22788 59.9856C8.06342 59.9739 7.90298 59.9293 7.75606 59.8545C6.36318 58.7626 5.95233 56.8493 4.74985 56.0879C5.40981 55.7432 5.97433 55.2408 6.39324 54.6254C6.59231 54.2362 6.67278 53.7972 6.62469 53.3627C6.5766 52.9282 6.40205 52.5174 6.12268 52.1811C5.35474 51.5841 4.38378 51.3109 3.41709 51.4198H0.230508C-0.410817 51.4198 0.491046 51.56 0.491046 52.1511C0.611294 54.9159 0.491046 60.1651 0.491046 60.1651H2.67556C2.67556 59.9447 2.13444 59.9246 2.04426 59.5941C2.04426 59.5941 2.04426 56.6589 2.04426 56.4786C2.03994 56.4547 2.0408 56.4301 2.04677 56.4066C2.05275 56.383 2.06369 56.361 2.07888 56.342C2.09407 56.323 2.11315 56.3075 2.13483 56.2965C2.15651 56.2855 2.1803 56.2793 2.20459 56.2783C2.79581 56.2783 3.26678 56.1681 3.59746 56.6088C3.92815 57.0496 5.24086 60.1049 7.01452 60.5958C7.54668 60.6832 8.09151 60.6531 8.61082 60.5078C9.13013 60.3624 9.61135 60.1053 10.0207 59.7543L10.1209 59.6642C10.9384 60.0439 11.8331 60.2281 12.7341 60.202C13.6351 60.1759 14.5176 59.9403 15.3117 59.5139C17.5162 58.2417 17.7267 55.5069 17.0653 53.3732C16.9158 52.9177 16.6492 52.5096 16.2922 52.1896C15.9351 51.8696 15.5002 51.649 15.0311 51.55M2.25469 55.4468C2.22141 55.4482 2.1882 55.4427 2.15717 55.4306C2.12613 55.4186 2.09795 55.4002 2.07439 55.3766C2.05084 55.3531 2.03244 55.3249 2.02035 55.2939C2.00826 55.2628 2.00275 55.2296 2.00417 55.1964V52.4316C3.00624 52.101 4.53941 52.0809 5.01038 52.8323C5.19567 53.1834 5.28661 53.5767 5.27431 53.9735C5.26202 54.3703 5.14691 54.7572 4.94024 55.0962C4.34902 55.5971 2.44508 55.4368 2.25469 55.4067M15.7225 58.2116C15.6352 58.3318 15.5222 58.431 15.3918 58.5022C14.5723 58.8784 13.66 59.005 12.7689 58.866C11.8778 58.7271 11.0474 58.3287 10.3815 57.7208C9.9589 56.964 9.76404 56.1013 9.82032 55.2364C9.78378 54.495 9.93909 53.7566 10.2713 53.0927C11.1431 51.7303 14.6603 52.3314 15.6223 53.5836C15.9708 54.3042 16.1602 55.0914 16.1775 55.8917C16.1947 56.692 16.0396 57.4866 15.7225 58.2217M100.297 38.2568C100.416 38.6104 100.61 38.9341 100.866 39.2056C101.122 39.4771 101.434 39.6899 101.78 39.8295C102.442 40.0399 103.604 39.539 104.296 36.9645C104.556 37.4893 104.894 37.9721 105.298 38.397C107.442 40.4907 109.095 37.205 111.049 36.8544C111.275 36.3483 111.404 35.8048 111.43 35.2516C110.759 35.2516 110.128 35.8025 109.336 35.5821C109.105 35.492 108.835 35.3918 108.815 35.0512C109.136 31.8256 108.564 28.5098 106.33 26.2859C105.328 29.0507 106.731 31.9057 106.861 34.6806C107.482 32.7271 107.001 30.6736 106.65 28.8303C108.052 30.9634 108.613 33.5405 108.224 36.063C108.217 36.3086 108.143 36.5476 108.008 36.7532C107.873 36.9588 107.684 37.1228 107.461 37.2268C107.239 37.3308 106.991 37.3708 106.747 37.3422C106.503 37.3135 106.272 37.2174 106.079 37.0647C103.774 35.2516 104.075 31.6052 103.003 29.4614C102.462 30.5233 102.873 31.6753 103.113 32.7071C103.424 33.9893 104.396 36.5037 103.013 37.7159C102.842 37.8644 102.637 37.9679 102.416 38.0167C102.195 38.0656 101.966 38.0583 101.749 37.9955C101.531 37.9327 101.333 37.8164 101.172 37.6573C101.012 37.4982 100.893 37.3014 100.828 37.0848C100.115 34.9911 99.6218 32.8291 99.3553 30.6335L99.205 30.4932C99.0373 31.0101 98.966 31.5534 98.9946 32.096C99.2548 33.9145 99.6161 35.7171 100.077 37.4955C99.4355 39.0382 98.4935 39.2585 98.0125 39.1584C96.9503 38.6976 97.261 37.4454 97.2409 36.5438C95.053 37.8994 92.7371 39.0368 90.3267 39.9397C85.5668 41.3823 79.6746 42.4742 74.9248 40.2202C74.0359 39.8435 73.2717 39.2232 72.7203 38.4309C72.1688 37.6386 71.8527 36.7066 71.8084 35.7424C71.7845 35.6409 71.7219 35.5527 71.6339 35.4966C71.546 35.4405 71.4396 35.4209 71.3374 35.4419C69.3934 36.1531 68.9926 38.2768 68.3312 39.9197C67.6698 41.5626 65.9964 40.4907 65.8561 39.7995C65.6457 37.1949 68.1709 35.5621 69.6439 33.8691C70.6872 32.6517 71.2969 31.1226 71.3775 29.5215C70.4605 29.9648 69.4955 30.3009 68.5016 30.5233C67.9504 30.8038 68.0105 31.7855 67.8402 32.3665L70.4155 31.5651H70.4957C69.5738 34.0294 66.3271 34.8509 65.5855 37.5756C65.2148 38.948 65.1847 41.1118 66.2469 42.1436C66.4961 42.3771 66.8081 42.5327 67.1445 42.5915C67.4809 42.6502 67.8272 42.6094 68.1408 42.4742C69.4135 41.232 69.1429 39.4689 70.145 38.1266C70.4756 37.7159 70.9266 37.1248 71.3374 37.3252L71.5679 38.5673C72.1892 41.0216 74.8447 42.394 77.0993 42.8849C82.7726 43.6802 88.5529 42.6967 93.6435 40.07C94.6456 39.5791 95.5474 38.918 96.5495 38.4471C96.6297 39.7895 97.1107 40.7612 97.9324 40.9215C98.5436 41.0417 99.4756 40.4406 100.297 38.2869M100.969 30.6034C101.369 28.7201 101.319 26.5964 101.55 24.7332H101.349L101.209 25.5646C100.768 28.9806 97.4113 30.0224 94.9262 31.7755C95.9681 31.5222 96.9951 31.2112 98.0025 30.8439C99.1906 30.3048 100.187 29.4174 100.858 28.2994C100.939 28.9205 100.568 29.7419 100.969 30.5533" fill="white"/>
</g>
<defs>
<clipPath id="clip0_5672_134982">
<rect width="121" height="63" fill="white"/>
</clipPath>
</defs>
</svg>
