<svg width="116" height="119" viewBox="0 0 116 119" fill="none" xmlns="http://www.w3.org/2000/svg">
<path d="M23.48 51.3878C21.2863 60.8808 22.8088 70.6935 27.7855 79.0083C32.7622 87.3231 40.5873 93.1468 49.8204 95.4022C59.0534 97.6576 68.5975 96.0923 76.6846 90.9755C84.7717 85.8587 90.4359 77.8133 92.6295 68.3203C94.8232 58.8273 93.3008 49.0145 88.3241 40.6998C83.3474 32.385 75.5222 26.5613 66.2892 24.3059C57.0562 22.0505 47.5121 23.6158 39.425 28.7326C31.3379 33.8493 25.6737 41.8948 23.48 51.3878ZM87.4237 41.2889C97.377 57.9353 92.3185 79.8162 76.1116 90.0666C59.9047 100.317 38.6392 95.0993 28.6695 78.436C18.7161 61.7897 23.7747 39.9087 39.9816 29.6583C56.1722 19.4247 77.454 24.6257 87.4237 41.2889Z" fill="#FFE816"/>
<path d="M50.4425 8.6189C43.7633 9.66246 37.4443 12.0525 31.649 15.7218C25.8538 19.3911 20.9263 24.1039 17.0137 29.7593C13.2321 35.2127 10.5473 41.3057 9.02483 47.8532C7.50236 54.4006 7.24044 61.0828 8.22268 67.6975C9.23766 74.5648 11.5623 81.0618 15.1311 87.0201C18.6999 92.9785 23.2837 98.0448 28.7842 102.068C34.0883 105.956 40.0144 108.716 46.3826 110.281C52.7508 111.847 59.2499 112.116 65.6836 111.106C72.3628 110.062 78.6819 107.672 84.4771 104.003C90.2723 100.334 95.1999 95.621 99.1124 89.9656C102.894 84.5122 105.579 78.4192 107.101 71.8718C108.624 65.3243 108.886 58.6422 107.903 52.0274C106.888 45.1601 104.564 38.6632 100.995 32.7048C97.4263 26.7464 92.8425 21.6802 87.3419 17.6574C82.0379 13.7693 76.1117 11.009 69.7435 9.44365C63.3753 7.87832 56.8762 7.60901 50.4425 8.6189ZM100.406 33.0919C114.763 57.0937 107.461 88.6528 84.1006 103.414C60.7397 118.175 30.0611 110.668 15.7041 86.6498C1.34701 62.6313 8.64831 31.089 32.0092 16.3277C55.3701 1.5665 86.0487 9.07335 100.406 33.0919Z" fill="#FFE816"/>
<path d="M84.9355 29.7931L85.9505 27.6891L88.226 27.706L86.6053 26.0733L87.3256 23.8515L85.2956 24.9288L83.4621 23.5317L83.855 25.8545L81.9888 27.2178L84.2479 27.5545L84.9355 29.7931Z" fill="#FFE816"/>
<path d="M90.6162 36.3742L92.6625 37.4177L92.6462 39.7741L94.2341 38.091L96.4114 38.8316L95.3473 36.7613L96.7061 34.8762L94.4469 35.2633L93.1209 33.3613L92.7935 35.6841L90.6162 36.3742Z" fill="#FFE816"/>
<path d="M99.3579 45.7661L98.3593 47.8701L96.0674 47.8364L97.7044 49.4859L96.9841 51.7076L98.9977 50.6136L100.831 52.0106L100.455 49.7047L102.305 48.3413L100.045 48.0047L99.3579 45.7661Z" fill="#FFE816"/>
<path d="M31.3706 89.7974L30.372 91.9013L28.0801 91.8845L29.7171 93.5171L28.9968 95.7557L31.0104 94.6617L32.8439 96.0587L32.4674 93.7359L34.3173 92.3726L32.0581 92.036L31.3706 89.7974Z" fill="#FFE816"/>
<path d="M25.6902 83.2164L23.6439 82.1728L23.6766 79.8164L22.0723 81.4996L19.9114 80.759L20.9755 82.8292L19.6167 84.7144L21.8595 84.3273L23.1855 86.2292L23.5129 83.9065L25.6902 83.2164Z" fill="#FFE816"/>
<path d="M16.9482 73.8243L17.9632 71.7204L20.2387 71.7541L18.618 70.1046L19.3383 67.8828L17.3247 68.9769L15.4748 67.5798L15.8677 69.8858L14.0015 71.2491L16.2606 71.5857L16.9482 73.8243Z" fill="#FFE816"/>
<path d="M106.414 27.5208C104.875 27.3693 103.385 26.595 102.37 25.2317C101.339 23.8515 100.979 22.1347 101.273 20.5525C100.504 19.6436 99.7018 18.7684 98.8669 17.9268C97.2953 18.1456 95.6582 17.708 94.3649 16.5634C93.0553 15.4189 92.3677 13.7862 92.335 12.1367C91.4183 11.4298 90.4688 10.7734 89.5193 10.1338C88.0132 10.7061 86.2942 10.6387 84.7718 9.79716C83.2329 8.93875 82.2343 7.47441 81.8905 5.85858C80.8592 5.3873 79.8278 4.93285 78.7637 4.52889C77.405 5.42096 75.6861 5.74076 74.0326 5.21899C72.3465 4.71404 71.0695 3.48534 70.3984 1.95367C69.3015 1.71803 68.2211 1.49922 67.1079 1.31407C65.9619 2.49228 64.3412 3.16554 62.5896 3.03089C60.8215 2.89624 59.3154 1.95367 58.3496 0.573486C57.2527 0.573486 56.1559 0.590318 55.0427 0.657644C54.1587 2.07149 52.7017 3.09821 50.95 3.33386C49.182 3.5695 47.5122 2.96356 46.3008 1.83585C45.2367 2.07149 44.1726 2.32396 43.1085 2.62693C42.5355 4.2091 41.3077 5.52195 39.6379 6.14472C37.9681 6.75065 36.2165 6.53184 34.7922 5.67344C33.7936 6.12789 32.795 6.616 31.8128 7.13778C31.5672 8.8041 30.6341 10.3358 29.128 11.2952C27.6219 12.2546 25.8702 12.406 24.315 11.8843C23.4146 12.5575 22.5306 13.2476 21.6794 13.9714C21.7612 15.6377 21.1719 17.3377 19.895 18.5832C18.6181 19.8287 16.9482 20.3505 15.3276 20.1822C14.5745 21.0406 13.8542 21.9159 13.1666 22.8079C13.5759 24.4238 13.3467 26.1911 12.3481 27.6722C11.3659 29.1534 9.85977 30.0118 8.25545 30.2138C7.68247 31.2237 7.14223 32.2672 6.63474 33.3108C7.33868 34.792 7.45329 36.5593 6.79846 38.1919C6.14364 39.8246 4.86672 40.986 3.37699 41.5246C3.01684 42.6691 2.68943 43.8137 2.39476 44.975C3.36062 46.2542 3.80263 47.9374 3.49159 49.6542C3.18054 51.3542 2.19831 52.768 0.872288 53.6096C0.741323 54.8215 0.659463 56.0502 0.610352 57.262C1.78904 58.3056 2.54208 59.8373 2.5912 61.5709C2.64031 63.2877 1.96912 64.8531 0.872288 65.9639C1.00325 67.2095 1.16695 68.4382 1.3634 69.6837C2.68942 70.458 3.72077 71.7876 4.11367 73.4371C4.50656 75.0698 4.17915 76.7193 3.36062 78.0321C3.73714 79.244 4.16278 80.4559 4.63753 81.6509C6.06177 82.139 7.30594 83.1994 7.99351 84.7142C8.68108 86.1954 8.71382 87.8449 8.2227 89.2756C8.501 89.7805 8.79567 90.3023 9.10671 90.8073C9.48324 91.43 9.85976 92.0528 10.2527 92.6587C11.7096 92.8607 13.1011 93.6181 14.067 94.9142C15.0329 96.2102 15.393 97.7755 15.213 99.2735C16.097 100.283 16.9974 101.26 17.9305 102.202C19.3875 102.101 20.8772 102.556 22.0722 103.599C23.2673 104.643 23.9385 106.073 24.0695 107.538C25.1499 108.363 26.2631 109.137 27.3927 109.861C28.7678 109.473 30.2903 109.608 31.6491 110.365C32.9915 111.123 33.941 112.335 34.383 113.732C35.6271 114.304 36.904 114.843 38.181 115.331C39.4415 114.674 40.9312 114.506 42.3882 114.944C43.8452 115.381 44.9911 116.358 45.7114 117.603C47.0702 117.906 48.4453 118.175 49.8205 118.377C50.9173 117.485 52.3252 117.014 53.8313 117.132C55.3374 117.25 56.6634 117.957 57.6129 119C59.0044 119 60.4123 118.983 61.8038 118.882C62.7042 117.788 63.9811 117.014 65.4544 116.812C66.9441 116.61 68.3848 117.014 69.5307 117.839C70.9058 117.553 72.2646 117.216 73.607 116.829C74.2618 115.566 75.3586 114.54 76.7665 114.018C78.1744 113.496 79.6641 113.58 80.941 114.153C82.2179 113.58 83.4949 112.958 84.739 112.284C85.1156 110.921 85.9832 109.675 87.2601 108.867C88.537 108.06 90.0104 107.824 91.3855 108.093C92.5314 107.252 93.6446 106.393 94.7087 105.484C94.807 104.054 95.3963 102.64 96.4768 101.579C97.59 100.502 98.9978 99.9636 100.406 99.9468C101.339 98.9032 102.239 97.8428 103.09 96.732C102.878 95.3013 103.172 93.7696 104.024 92.4736C104.891 91.1607 106.185 90.336 107.592 90.033C108.28 88.838 108.935 87.6093 109.541 86.3806C109.017 85.0172 109 83.4351 109.59 81.9707C110.179 80.4895 111.292 79.3787 112.618 78.7896C113.044 77.4935 113.42 76.1807 113.764 74.8678C112.962 73.6223 112.602 72.0906 112.88 70.5084C113.175 68.9095 114.059 67.5629 115.27 66.7045C115.418 65.3748 115.532 64.062 115.598 62.7155C114.534 61.6719 113.846 60.2076 113.797 58.5749C113.748 56.9086 114.386 55.3937 115.418 54.2829C115.303 53.0037 115.139 51.7076 114.943 50.4284C113.65 49.6374 112.651 48.3413 112.274 46.7255C111.882 45.076 112.209 43.4265 113.044 42.1137C112.684 40.9186 112.274 39.7236 111.832 38.5286C110.375 38.0405 109.115 36.9801 108.395 35.4484C107.674 33.8999 107.658 32.1831 108.231 30.7019C107.871 30.0623 107.511 29.4227 107.134 28.7831C106.888 28.3623 106.627 27.9415 106.365 27.5376L106.414 27.5208ZM84.9355 104.862C60.8706 120.077 29.3736 112.352 14.5909 87.6261C-0.208178 62.8838 7.30595 30.4999 31.3544 15.3011C55.4192 0.0853723 86.9163 7.81104 101.699 32.5365C116.482 57.262 108.984 89.6627 84.9355 104.862Z" fill="#FFE816"/>
<path d="M29.095 78.2342C33.8589 86.1955 41.3566 91.7836 50.1968 93.938C59.0369 96.1093 68.1717 94.5945 75.915 89.7133C83.6583 84.8154 89.0934 77.1065 91.1888 68.0175C93.3006 58.9285 91.8273 49.5365 87.0798 41.5752C82.3159 33.6139 74.8182 28.0258 65.978 25.8714C57.1379 23.7001 48.0031 25.2149 40.2598 30.0961C32.5165 34.9772 27.0814 42.7029 24.986 51.7919C22.8742 60.8809 24.3475 70.2729 29.095 78.2342ZM40.4562 30.4327C56.2539 20.4348 77.0282 25.5347 86.7524 41.7772C96.4765 58.0196 91.5162 79.3788 75.7186 89.3767C59.9209 99.3746 39.1466 94.2747 29.4224 78.0323C19.6983 61.7898 24.6586 40.4306 40.4562 30.4327Z" fill="#FFE816"/>
<path d="M42.6664 58.7602C43.3376 59.0127 43.8779 59.5008 44.2871 60.1909C44.9092 61.2176 44.9747 62.278 44.4836 63.3721C43.9925 64.4661 42.9611 65.5097 41.3895 66.5027L34.9559 70.576L27.9165 58.8107L34.0228 54.9395C35.5452 53.9801 36.8712 53.5256 37.9844 53.5929C39.0976 53.6603 39.9325 54.1652 40.4892 55.091C40.8166 55.6464 40.9803 56.2187 40.9803 56.8246C40.9803 57.4305 40.7838 58.0365 40.4237 58.6256C41.2586 58.4573 41.9953 58.5077 42.6664 58.7602ZM33.3679 59.181L34.4156 60.9315L36.2164 59.7869C37.0513 59.2483 37.2969 58.6929 36.9531 58.1206C36.6093 57.5484 36.0036 57.5147 35.1687 58.0365L33.3679 59.181ZM40.129 62.1938C39.7525 61.5711 39.1468 61.5374 38.2955 62.076L35.9709 63.5404L37.0841 65.3918L39.4087 63.9275C40.26 63.3889 40.5055 62.8166 40.129 62.1938Z" fill="#FFE816"/>
<path d="M55.3044 53.576L57.0888 56.572L47.5775 62.5808L40.5381 50.8156L49.8366 44.9414L51.621 47.9374L46.1205 51.4215L46.939 52.8017L51.7847 49.7384L53.4873 52.5998L48.6416 55.6631L49.5583 57.2116L55.2717 53.5928L55.3044 53.576Z" fill="#FFE816"/>
<path d="M60.0522 54.6195C59.0209 54.973 58.1041 55.1413 57.302 55.1413L56.8109 51.472C57.5475 51.4552 58.317 51.3206 59.1027 51.1018C59.8885 50.8661 60.6088 50.5631 61.2309 50.1592C61.7712 49.8226 62.1149 49.5196 62.2786 49.2839C62.4424 49.0315 62.4587 48.7958 62.3278 48.5939C62.1804 48.3414 61.9185 48.2572 61.542 48.3246C61.1654 48.3919 60.5925 48.5602 59.8231 48.8632C58.8244 49.2335 57.9732 49.4859 57.2529 49.6374C56.5326 49.7889 55.8122 49.7552 55.0756 49.5364C54.3389 49.3176 53.7168 48.779 53.2093 47.9206C52.7673 47.18 52.5709 46.3889 52.6036 45.5137C52.6527 44.6553 52.9638 43.7969 53.5531 42.9385C54.1424 42.0801 55.0101 41.289 56.156 40.5652C56.9418 40.0771 57.7603 39.6731 58.628 39.3702C59.4956 39.0672 60.3142 38.8989 61.0836 38.8652L61.6402 42.4672C60.1668 42.6018 58.939 42.9721 57.9241 43.6117C56.9091 44.2513 56.5817 44.8068 56.8763 45.2949C57.0237 45.5305 57.2692 45.6147 57.6294 45.5474C57.9895 45.48 58.5461 45.2949 59.3156 45.0087C60.2814 44.6216 61.1327 44.3523 61.8694 44.2008C62.6061 44.0325 63.3264 44.0662 64.063 44.285C64.7997 44.5038 65.4218 45.0256 65.9293 45.884C66.3713 46.6246 66.5677 47.4156 66.5186 48.2741C66.4695 49.1325 66.1585 49.9909 65.5691 50.8493C64.9798 51.7077 64.1122 52.4988 62.9662 53.2225C62.0167 53.8285 61.0345 54.2997 60.0031 54.6532L60.0522 54.6195Z" fill="#FFE816"/>
<path d="M66.4532 38.6801L63.0972 40.8009L61.2637 37.7207L71.8227 31.0386L73.6562 34.1187L70.3003 36.2395L75.4898 44.9246L71.6263 47.3651L66.4368 38.6801H66.4532Z" fill="#FFE816"/>
<path d="M38.0337 77.7965L42.5029 74.9688C43.5179 74.3292 44.5165 73.9589 45.5151 73.8411C46.5137 73.7233 47.4304 73.8916 48.2817 74.3124C49.133 74.75 49.8369 75.4401 50.4099 76.3827C50.9829 77.3253 51.2612 78.2847 51.2448 79.2609C51.2448 80.2371 50.9665 81.146 50.4099 82.0212C49.8697 82.8797 49.0839 83.6371 48.0689 84.2767L43.5997 87.1044L38.0337 77.7965ZM46.4809 81.9203C47.1358 81.4995 47.545 80.9777 47.7087 80.3549C47.8724 79.7153 47.7415 79.0589 47.3158 78.352C46.8902 77.6451 46.3827 77.2243 45.7443 77.0896C45.1222 76.955 44.4837 77.0896 43.8289 77.5104L42.552 78.3183L45.1877 82.7282L46.4646 81.9203H46.4809Z" fill="#FFE816"/>
<path d="M60.3959 73.2184L61.8201 75.5916L54.2896 80.3549L48.7236 71.0471L56.0904 66.3848L57.5147 68.758L53.1601 71.5184L53.8149 72.6124L57.6456 70.1887L59.0044 72.4441L55.1737 74.8679L55.9104 76.0966L60.445 73.2352L60.3959 73.2184Z" fill="#FFE816"/>
<path d="M68.2045 69.3134L64.7667 71.4847L65.1268 73.4877L62.0164 75.4569L60.4121 63.6412L63.4079 61.7393L72.9356 68.556L69.7761 70.559L68.2045 69.3134ZM66.0109 67.5798L63.7353 65.7957L64.2592 68.6907L66.0109 67.5798Z" fill="#FFE816"/>
<path d="M67.8608 58.9285L70.9222 56.9929L75.0312 63.877L79.1238 61.285L80.5808 63.7255L73.4432 68.2364L67.8772 58.9285H67.8608Z" fill="#FFE816"/>
<path d="M82.5616 62.3957C81.743 62.665 81.0227 62.8165 80.3843 62.7997L79.9914 59.8878C80.5807 59.8878 81.1864 59.77 81.8085 59.5848C82.4306 59.3997 83.0036 59.1472 83.4947 58.8443C83.9203 58.5749 84.1986 58.3393 84.3296 58.1373C84.4606 57.9353 84.4769 57.7502 84.3787 57.5819C84.2641 57.3799 84.0513 57.3126 83.7566 57.3631C83.4619 57.4136 83.0036 57.5482 82.3979 57.7839C81.6121 58.07 80.9245 58.2888 80.3679 58.4066C79.7949 58.5244 79.222 58.5076 78.649 58.3225C78.076 58.1542 77.5685 57.7165 77.1756 57.0433C76.8318 56.4542 76.6681 55.8314 76.7009 55.1413C76.7336 54.4681 76.9792 53.778 77.4539 53.1047C77.9287 52.4314 78.6162 51.8087 79.5166 51.2364C80.1387 50.8493 80.7935 50.5295 81.4647 50.277C82.1523 50.0414 82.7908 49.9067 83.4128 49.873L83.8548 52.7344C82.6925 52.8354 81.7103 53.1384 80.9245 53.6433C80.1387 54.1483 79.8604 54.5859 80.0896 54.973C80.2042 55.1581 80.4006 55.2255 80.6953 55.175C80.99 55.1245 81.432 54.973 82.0213 54.7542C82.7908 54.4512 83.4619 54.2324 84.0349 54.1146C84.6079 53.9799 85.1972 54.0136 85.7702 54.1819C86.3595 54.3502 86.8507 54.771 87.2436 55.4443C87.5874 56.0334 87.751 56.6562 87.7183 57.3294C87.6856 58.0027 87.44 58.6759 86.9653 59.366C86.4905 60.0393 85.8193 60.6789 84.9026 61.2512C84.1495 61.7224 83.3637 62.1096 82.5616 62.3789V62.3957Z" fill="#FFE816"/>
<path d="M16.1131 54.1987L16.2604 52.2294L19.9438 52.5155C20.2712 53.0541 20.5168 53.6601 20.6641 54.3333C20.8115 55.0234 20.8606 55.6967 20.8115 56.3699C20.746 57.3462 20.4677 58.1877 20.0093 58.9283C19.5509 59.6689 18.9452 60.2244 18.2085 60.6115C17.4555 60.9986 16.637 61.1501 15.7366 61.0828C14.8362 61.0154 14.0504 60.7293 13.3628 60.2412C12.6753 59.7531 12.1678 59.0966 11.824 58.2719C11.4802 57.464 11.3493 56.5551 11.4147 55.5789C11.4802 54.7541 11.6603 54.0304 11.9877 53.3908C12.2987 52.7512 12.7408 52.2126 13.281 51.8086L14.4269 53.2898C13.6902 53.8957 13.2973 54.6868 13.2319 55.6293C13.1827 56.2185 13.2646 56.7571 13.4774 57.2452C13.6902 57.7333 14.0013 58.1204 14.4269 58.4065C14.8526 58.6927 15.3437 58.861 15.9167 58.9115C16.4733 58.962 16.9807 58.861 17.4555 58.6422C17.9139 58.4234 18.2904 58.0868 18.5687 57.6491C18.847 57.2115 19.0107 56.7066 19.0598 56.1175C19.1089 55.4947 19.0107 54.9224 18.7979 54.4006L16.1458 54.1987H16.1131Z" fill="#FFE816"/>
<path d="M20.6967 49.8729C19.7799 50.3274 18.6995 50.3442 17.4389 49.8898L12.626 48.1898L13.3135 46.1363L18.061 47.8195C19.5999 48.3581 20.5985 47.9878 21.0241 46.6749C21.2369 46.0353 21.2206 45.4799 20.9586 45.0086C20.6967 44.5373 20.1728 44.167 19.3707 43.8809L14.6232 42.1978L15.2944 40.178L20.1074 41.878C21.3679 42.3324 22.2192 43.0225 22.6612 43.9651C23.1032 44.9076 23.1196 46.0185 22.6939 47.2809C22.2683 48.5432 21.5971 49.4016 20.6803 49.8729H20.6967Z" fill="#FFE816"/>
<path d="M26.1976 35.7176L23.873 39.3532L25.0517 41.1542L23.873 43.0056L18.5034 34.3879L19.6494 32.6038L29.4881 34.2532L28.2767 36.1552L26.1976 35.7513V35.7176ZM24.4951 35.381L20.7953 34.6572L22.9071 37.872L24.4951 35.3978V35.381Z" fill="#FFE816"/>
<path d="M34.1698 29.9445L31.1576 29.2544L31.0757 29.3217L29.7333 30.6009L31.4523 32.5197L29.9134 33.9841L23.7417 27.1168L26.6393 24.3733C27.2286 23.8178 27.8344 23.4307 28.4564 23.2119C29.0785 22.9931 29.6679 22.9763 30.2408 23.1109C30.8138 23.2624 31.3213 23.5822 31.7797 24.104C32.2381 24.6089 32.5164 25.1644 32.6146 25.7703C32.7128 26.3594 32.6146 26.9653 32.3526 27.5881L35.8396 28.3792L34.1862 29.9613L34.1698 29.9445ZM29.0458 25.0465C28.6201 25.0634 28.1781 25.299 27.7034 25.7366L26.4429 26.9317L28.5874 29.3217L29.8479 28.1267C30.3063 27.6891 30.5682 27.2515 30.6174 26.8138C30.6665 26.3762 30.5355 25.9723 30.1917 25.5851C29.8479 25.198 29.455 25.0129 29.0294 25.0465H29.0458Z" fill="#FFE816"/>
<path d="M40.9964 23.1109L37.2803 25.1812L37.5095 27.3357L35.6105 28.396L34.8247 18.1793L36.6582 17.1526L44.5816 23.3634L42.6335 24.4575L40.9964 23.0941V23.1109ZM39.6541 22.0001L36.7237 19.5595L37.1166 23.4139L39.6541 22.0001Z" fill="#FFE816"/>
<path d="M50.9663 12.2041L53.1435 21.2931L51.4574 21.7139L45.7277 17.3209L47.0537 22.8416L45.0401 23.3466L42.8628 14.2575L44.549 13.8368L50.2623 18.2466L48.9363 12.7259L50.9499 12.2209L50.9663 12.2041Z" fill="#FFE816"/>
<path d="M56.6303 13.6179L53.7163 13.6515V11.8842L61.6233 11.8V13.5674L58.7257 13.601L58.7912 21.192H56.6794L56.6139 13.6179H56.6303Z" fill="#FFE816"/>
<path d="M69.6453 21.0406L69.3015 22.7406L62.3931 21.2931L64.2102 12.1367L70.9385 13.5506L70.5947 15.2505L65.9127 14.2743L65.5199 16.2604L69.6616 17.1357L69.3342 18.7852L65.1924 17.9099L64.7668 20.0307L69.6125 21.0406H69.6453Z" fill="#FFE816"/>
<path d="M77.5685 24.5583L76.8809 26.1405L70.4473 23.1781L74.1798 14.6445L80.4497 17.5396L79.7621 19.1217L75.4076 17.1019L74.6054 18.9534L78.4525 20.7375L77.7813 22.2692L73.9342 20.4851L73.0666 22.4544L77.5848 24.5415L77.5685 24.5583Z" fill="#FFE816"/>
<path d="M46.3827 101.815L48.1999 102.455L47.0048 106.04C46.4155 106.242 45.777 106.326 45.1058 106.309C44.4183 106.292 43.7798 106.158 43.1577 105.939C42.2574 105.619 41.5207 105.148 40.9477 104.508C40.3583 103.868 39.9818 103.128 39.8181 102.286C39.638 101.445 39.7035 100.586 39.9982 99.7111C40.2929 98.8358 40.7513 98.1121 41.3897 97.5735C42.0282 97.018 42.7648 96.6814 43.6161 96.5299C44.4674 96.3953 45.3514 96.4794 46.2518 96.7992C47.0048 97.0685 47.6433 97.4388 48.1671 97.9101C48.691 98.3814 49.0839 98.9537 49.3458 99.5933L47.6597 100.351C47.2668 99.4754 46.6283 98.8695 45.7607 98.5665C45.2041 98.3814 44.6802 98.3141 44.1727 98.3982C43.6652 98.4824 43.2232 98.7012 42.8467 99.0378C42.4702 99.3913 42.1755 99.8289 41.9954 100.384C41.8153 100.94 41.7662 101.462 41.8645 101.983C41.9627 102.488 42.1755 102.943 42.5193 103.33C42.8631 103.717 43.3051 104.003 43.8453 104.205C44.4183 104.407 44.9749 104.458 45.5151 104.373L46.3827 101.781V101.815Z" fill="#FFE816"/>
<path d="M51.0482 106.864C50.3934 106.057 50.1151 104.979 50.2297 103.616L50.6717 98.3982L52.7671 98.5833L52.3251 103.717C52.1778 105.383 52.7835 106.275 54.1259 106.41C54.7807 106.477 55.3046 106.309 55.6811 105.939C56.0576 105.568 56.2868 104.946 56.3687 104.087L56.8107 98.9536L58.8898 99.1388L58.4478 104.357C58.3332 105.72 57.8748 106.747 57.1054 107.42C56.3196 108.093 55.2882 108.362 53.9949 108.245C52.7017 108.127 51.7194 107.672 51.0646 106.864H51.0482Z" fill="#FFE816"/>
<path d="M66.9445 105.417L62.7699 106.074L62.2625 108.177L60.1343 108.514L62.7863 98.634L64.849 98.3142L70.235 106.932L68.0577 107.269L66.9608 105.417H66.9445ZM66.0441 103.902L64.096 100.586L63.1956 104.357L66.0441 103.919V103.902Z" fill="#FFE816"/>
<path d="M77.7652 103.885L75.1786 102.152L75.0804 102.185L73.3778 102.892L74.3273 105.299L72.3792 106.124L68.9414 97.4558L72.592 95.9241C73.3451 95.6043 74.0327 95.4697 74.6875 95.4865C75.3423 95.5202 75.8989 95.7053 76.39 96.0419C76.8812 96.3954 77.2413 96.8835 77.5033 97.5231C77.7652 98.1627 77.8306 98.7855 77.7161 99.3746C77.6015 99.9637 77.3068 100.502 76.8648 100.974L79.8606 102.96L77.7652 103.835V103.885ZM74.6384 97.4558C74.2291 97.3211 73.738 97.3885 73.1487 97.6241L71.5607 98.2974L72.7558 101.31L74.3437 100.637C74.933 100.384 75.3259 100.082 75.5224 99.6775C75.7188 99.2904 75.7352 98.8528 75.5224 98.3647C75.3259 97.8766 75.0313 97.5736 74.622 97.439L74.6384 97.4558Z" fill="#FFE816"/>
<path d="M86.065 96.3449L82.6272 98.8696L83.1019 100.974L81.3502 102.27L79.353 92.238L81.0392 90.9924L89.6338 96.1597L87.833 97.4894L86.0486 96.3449H86.065ZM84.5916 95.4023L81.3994 93.3488L82.2506 97.1191L84.5916 95.3855V95.4023Z" fill="#FFE816"/>
<path d="M89.7812 81.853L96.706 87.9124L95.5928 89.2589L88.4388 89.1242L92.6461 92.8103L91.3037 94.443L84.3789 88.3836L85.5085 87.0203L92.6461 87.1549L88.4388 83.4688L89.7812 81.8362V81.853Z" fill="#FFE816"/>
<path d="M92.8424 79.6818L91.5 82.3411L89.9775 81.5332L93.6446 74.3125L95.167 75.1204L93.8246 77.7798L100.373 81.2976L99.407 83.2164L92.8588 79.6986L92.8424 79.6818Z" fill="#FFE816"/>
<path d="M102.796 68.9601L104.417 69.4313L102.485 76.3996L93.7432 73.8412L95.6258 67.0413L97.2465 67.5125L95.9368 72.2422L97.8358 72.7976L98.9981 68.6234L100.57 69.0779L99.4074 73.2521L101.437 73.8412L102.796 68.9432V68.9601Z" fill="#FFE816"/>
<path d="M103.664 59.1977L105.35 59.3155L104.859 66.5362L95.7896 65.8798L96.2643 58.8274L97.9505 58.9452L97.6067 63.8432L99.5712 63.9778L99.8658 59.6521L101.503 59.77L101.208 64.0957L103.304 64.2471L103.647 59.164L103.664 59.1977Z" fill="#FFE816"/>
</svg>
