<svg width="110" height="77" viewBox="0 0 110 77" fill="none" xmlns="http://www.w3.org/2000/svg">
<rect x="26.5" y="0.5" width="56" height="56" rx="28" fill="#412098" stroke="#DDDDDD"/>
<path d="M55 39C60.5228 39 65 34.5228 65 29C65 23.4772 60.5228 19 55 19C49.4772 19 45 23.4772 45 29C45 34.5228 49.4772 39 55 39Z" stroke="#FFA125" stroke-width="1.5" stroke-linecap="round" stroke-linejoin="round"/>
<path d="M51 29L55 33L59 29" stroke="#FFA125" stroke-width="1.5" stroke-linecap="round" stroke-linejoin="round"/>
<path d="M55 25V33" stroke="#FFA125" stroke-width="1.5" stroke-linecap="round" stroke-linejoin="round"/>
<path d="M31.1608 75.06C30.6408 75.06 30.1408 74.9767 29.6608 74.81C29.1875 74.6433 28.8208 74.4233 28.5608 74.15L28.8508 73.58C29.1042 73.8333 29.4408 74.04 29.8608 74.2C30.2808 74.3533 30.7142 74.43 31.1608 74.43C31.7875 74.43 32.2575 74.3167 32.5708 74.09C32.8842 73.8567 33.0408 73.5567 33.0408 73.19C33.0408 72.91 32.9542 72.6867 32.7808 72.52C32.6142 72.3533 32.4075 72.2267 32.1608 72.14C31.9142 72.0467 31.5708 71.9467 31.1308 71.84C30.6042 71.7067 30.1842 71.58 29.8708 71.46C29.5575 71.3333 29.2875 71.1433 29.0608 70.89C28.8408 70.6367 28.7308 70.2933 28.7308 69.86C28.7308 69.5067 28.8242 69.1867 29.0108 68.9C29.1975 68.6067 29.4842 68.3733 29.8708 68.2C30.2575 68.0267 30.7375 67.94 31.3108 67.94C31.7108 67.94 32.1008 67.9967 32.4808 68.11C32.8675 68.2167 33.2008 68.3667 33.4808 68.56L33.2308 69.15C32.9375 68.9567 32.6242 68.8133 32.2908 68.72C31.9575 68.62 31.6308 68.57 31.3108 68.57C30.6975 68.57 30.2342 68.69 29.9208 68.93C29.6142 69.1633 29.4608 69.4667 29.4608 69.84C29.4608 70.12 29.5442 70.3467 29.7108 70.52C29.8842 70.6867 30.0975 70.8167 30.3508 70.91C30.6108 70.9967 30.9575 71.0933 31.3908 71.2C31.9042 71.3267 32.3175 71.4533 32.6308 71.58C32.9508 71.7 33.2208 71.8867 33.4408 72.14C33.6608 72.3867 33.7708 72.7233 33.7708 73.15C33.7708 73.5033 33.6742 73.8267 33.4808 74.12C33.2942 74.4067 33.0042 74.6367 32.6108 74.81C32.2175 74.9767 31.7342 75.06 31.1608 75.06ZM37.0732 69.7C37.7598 69.7 38.2865 69.8733 38.6532 70.22C39.0198 70.56 39.2032 71.0667 39.2032 71.74V75H38.5232V74.18C38.3632 74.4533 38.1265 74.6667 37.8132 74.82C37.5065 74.9733 37.1398 75.05 36.7132 75.05C36.1265 75.05 35.6598 74.91 35.3132 74.63C34.9665 74.35 34.7932 73.98 34.7932 73.52C34.7932 73.0733 34.9532 72.7133 35.2732 72.44C35.5998 72.1667 36.1165 72.03 36.8232 72.03H38.4932V71.71C38.4932 71.2567 38.3665 70.9133 38.1132 70.68C37.8598 70.44 37.4898 70.32 37.0032 70.32C36.6698 70.32 36.3498 70.3767 36.0432 70.49C35.7365 70.5967 35.4732 70.7467 35.2532 70.94L34.9332 70.41C35.1998 70.1833 35.5198 70.01 35.8932 69.89C36.2665 69.7633 36.6598 69.7 37.0732 69.7ZM36.8232 74.49C37.2232 74.49 37.5665 74.4 37.8532 74.22C38.1398 74.0333 38.3532 73.7667 38.4932 73.42V72.56H36.8432C35.9432 72.56 35.4932 72.8733 35.4932 73.5C35.4932 73.8067 35.6098 74.05 35.8432 74.23C36.0765 74.4033 36.4032 74.49 36.8232 74.49ZM45.4539 69.74L43.1139 75H42.3839L40.0539 69.74H40.7939L42.7639 74.22L44.7539 69.74H45.4539ZM50.8874 72.59H46.4874C46.5274 73.1367 46.7374 73.58 47.1174 73.92C47.4974 74.2533 47.9774 74.42 48.5574 74.42C48.884 74.42 49.184 74.3633 49.4574 74.25C49.7307 74.13 49.9674 73.9567 50.1674 73.73L50.5674 74.19C50.334 74.47 50.0407 74.6833 49.6874 74.83C49.3407 74.9767 48.9574 75.05 48.5374 75.05C47.9974 75.05 47.5174 74.9367 47.0974 74.71C46.684 74.4767 46.3607 74.1567 46.1274 73.75C45.894 73.3433 45.7774 72.8833 45.7774 72.37C45.7774 71.8567 45.8874 71.3967 46.1074 70.99C46.334 70.5833 46.6407 70.2667 47.0274 70.04C47.4207 69.8133 47.8607 69.7 48.3474 69.7C48.834 69.7 49.2707 69.8133 49.6574 70.04C50.044 70.2667 50.3474 70.5833 50.5674 70.99C50.7874 71.39 50.8974 71.85 50.8974 72.37L50.8874 72.59ZM48.3474 70.31C47.8407 70.31 47.414 70.4733 47.0674 70.8C46.7274 71.12 46.534 71.54 46.4874 72.06H50.2174C50.1707 71.54 49.974 71.12 49.6274 70.8C49.2874 70.4733 48.8607 70.31 48.3474 70.31ZM60.1197 75.11L59.1497 74.11C58.5564 74.7433 57.7764 75.06 56.8097 75.06C56.3564 75.06 55.9497 74.9867 55.5897 74.84C55.2364 74.6867 54.9597 74.4767 54.7597 74.21C54.5597 73.9367 54.4597 73.6267 54.4597 73.28C54.4597 72.86 54.5931 72.4833 54.8597 72.15C55.1264 71.8167 55.5797 71.4667 56.2197 71.1C55.8864 70.7533 55.6564 70.46 55.5297 70.22C55.4031 69.9733 55.3397 69.7133 55.3397 69.44C55.3397 68.9933 55.4997 68.6333 55.8197 68.36C56.1397 68.0867 56.5697 67.95 57.1097 67.95C57.6097 67.95 58.0064 68.0733 58.2997 68.32C58.5931 68.5667 58.7397 68.9067 58.7397 69.34C58.7397 69.6867 58.6231 70 58.3897 70.28C58.1564 70.5533 57.7531 70.8567 57.1797 71.19L59.0997 73.17C59.3131 72.79 59.4697 72.34 59.5697 71.82L60.1497 72C60.0231 72.6267 59.8164 73.1633 59.5297 73.61L60.5297 74.64L60.1197 75.11ZM57.1097 68.48C56.7631 68.48 56.4897 68.5667 56.2897 68.74C56.0964 68.9133 55.9997 69.1433 55.9997 69.43C55.9997 69.6367 56.0531 69.8333 56.1597 70.02C56.2664 70.2067 56.4764 70.46 56.7897 70.78C57.2964 70.4867 57.6464 70.2367 57.8397 70.03C58.0331 69.8233 58.1297 69.5967 58.1297 69.35C58.1297 69.0833 58.0397 68.8733 57.8597 68.72C57.6797 68.56 57.4297 68.48 57.1097 68.48ZM56.8497 74.47C57.6231 74.47 58.2497 74.2067 58.7297 73.68L56.6197 71.51C56.0664 71.8233 55.6831 72.1067 55.4697 72.36C55.2631 72.6133 55.1597 72.8967 55.1597 73.21C55.1597 73.59 55.3131 73.8967 55.6197 74.13C55.9331 74.3567 56.3431 74.47 56.8497 74.47ZM69.3664 74.36V75H64.4164V68H69.2164V68.64H65.1564V71.13H68.7764V71.76H65.1564V74.36H69.3664ZM74.1593 75L72.4893 72.8L70.8093 75H70.0093L72.0893 72.3L70.1093 69.74H70.9093L72.4893 71.8L74.0693 69.74H74.8493L72.8693 72.3L74.9693 75H74.1593ZM76.1511 69.74H76.8611V75H76.1511V69.74ZM76.5111 68.59C76.3645 68.59 76.2411 68.54 76.1411 68.44C76.0411 68.34 75.9911 68.22 75.9911 68.08C75.9911 67.9467 76.0411 67.83 76.1411 67.73C76.2411 67.63 76.3645 67.58 76.5111 67.58C76.6578 67.58 76.7811 67.63 76.8811 67.73C76.9811 67.8233 77.0311 67.9367 77.0311 68.07C77.0311 68.2167 76.9811 68.34 76.8811 68.44C76.7811 68.54 76.6578 68.59 76.5111 68.59ZM81.6067 74.68C81.4733 74.8 81.3067 74.8933 81.1067 74.96C80.9133 75.02 80.71 75.05 80.4967 75.05C80.0033 75.05 79.6233 74.9167 79.3567 74.65C79.09 74.3833 78.9567 74.0067 78.9567 73.52V70.34H78.0167V69.74H78.9567V68.59H79.6667V69.74H81.2667V70.34H79.6667V73.48C79.6667 73.7933 79.7433 74.0333 79.8967 74.2C80.0567 74.36 80.2833 74.44 80.5767 74.44C80.7233 74.44 80.8633 74.4167 80.9967 74.37C81.1367 74.3233 81.2567 74.2567 81.3567 74.17L81.6067 74.68Z" fill="white"/>
</svg>
