<svg fill="none" height="56" viewBox="0 0 56 56" width="56" xmlns="http://www.w3.org/2000/svg">
<circle cx="28" cy="28" fill="#FFE816" r="28"/>
<path d="M34.5882 25.5002H35.799L34.941 24.6459L32.6417 22.3566C32.6416 22.3565 32.6415 22.3564 32.6414 22.3563C32.5471 22.2618 32.4941 22.1337 32.4941 22.0002C32.4941 21.8665 32.5472 21.7383 32.6417 21.6437C32.7363 21.5492 32.8645 21.4961 32.9982 21.4961C33.0644 21.4961 33.1299 21.5091 33.1911 21.5345C33.2523 21.5598 33.3078 21.5969 33.3546 21.6437L37.3523 25.6414C37.3526 25.6417 37.3529 25.642 37.3532 25.6424C37.4221 25.7125 37.4687 25.8014 37.4873 25.898C37.506 25.995 37.4956 26.0953 37.4573 26.1864L37.4557 26.1902C37.4182 26.2815 37.3545 26.3597 37.2726 26.4148C37.191 26.4698 37.0951 26.4995 36.9967 26.5002H22.9982C22.8656 26.5002 22.7384 26.4475 22.6446 26.3537C22.5509 26.26 22.4982 26.1328 22.4982 26.0002C22.4982 25.8676 22.5509 25.7404 22.6446 25.6466C22.7384 25.5529 22.8656 25.5002 22.9982 25.5002H34.5882ZM18.5391 29.814L18.5391 29.814L18.5407 29.8102C18.5782 29.7189 18.6419 29.6407 18.7238 29.5855C18.8053 29.5306 18.9013 29.5009 18.9996 29.5002H32.9982C33.1308 29.5002 33.258 29.5529 33.3517 29.6466C33.4455 29.7404 33.4982 29.8676 33.4982 30.0002C33.4982 30.1328 33.4455 30.26 33.3517 30.3537C33.258 30.4475 33.1308 30.5002 32.9982 30.5002H21.4082H20.1974L21.0554 31.3545L23.3554 33.6445L23.3561 33.6452C23.403 33.6917 23.4401 33.747 23.4655 33.8079C23.4909 33.8688 23.504 33.9342 23.504 34.0002C23.504 34.0662 23.4909 34.1315 23.4655 34.1925C23.4401 34.2534 23.403 34.3087 23.3561 34.3552L23.3561 34.3552L23.3532 34.3581C23.3067 34.405 23.2514 34.4421 23.1905 34.4675C23.1295 34.4929 23.0642 34.506 22.9982 34.506C22.9322 34.506 22.8668 34.4929 22.8059 34.4675C22.745 34.4421 22.6897 34.405 22.6432 34.3581L22.6417 34.3566L18.6441 30.359C18.6438 30.3587 18.6434 30.3583 18.6431 30.358C18.5743 30.2879 18.5276 30.1989 18.509 30.1024C18.4903 30.0054 18.5008 29.9051 18.5391 29.814Z" fill="#131010" stroke="#101010"/>
</svg>
