<svg width="65" height="64" viewBox="0 0 65 64" fill="none" xmlns="http://www.w3.org/2000/svg">
<circle cx="32.5" cy="32" r="32" fill="#3CB4E5"/>
<path d="M32.4907 38.633C32.6786 38.633 32.8589 38.5584 32.9918 38.4255C33.1247 38.2926 33.1994 38.1123 33.1994 37.9244V36.5732H33.7757C34.2726 36.5729 34.7582 36.4253 35.1712 36.1491C35.5842 35.8729 35.9061 35.4805 36.0962 35.0214C36.2863 34.5624 36.3361 34.0573 36.2392 33.57C36.1424 33.0826 35.9033 32.6349 35.5521 32.2834C35.3192 32.0496 35.0424 31.8641 34.7375 31.7376C34.4326 31.6111 34.1058 31.5461 33.7757 31.5464H33.1994V29.3638H35.0891C35.2771 29.3638 35.4573 29.2891 35.5902 29.1562C35.7231 29.0233 35.7978 28.843 35.7978 28.6551C35.7978 28.4671 35.7231 28.2869 35.5902 28.154C35.4573 28.0211 35.2771 27.9464 35.0891 27.9464H33.1994V26.6141C33.1994 26.4262 33.1247 26.2459 32.9918 26.113C32.8589 25.9801 32.6786 25.9055 32.4907 25.9055C32.3027 25.9055 32.1225 25.9801 31.9896 26.113C31.8567 26.2459 31.782 26.4262 31.782 26.6141V27.9464H31.2057C30.6989 27.9369 30.2011 28.0808 29.7776 28.3593C29.3541 28.6377 29.0247 29.0377 28.8326 29.5067C28.6404 29.9758 28.5946 30.4919 28.7011 30.9875C28.8076 31.483 29.0614 31.9347 29.4293 32.2834C29.6626 32.516 29.9398 32.7001 30.2447 32.8249C30.5496 32.9498 30.8762 33.0131 31.2057 33.011H31.782V35.1181H29.4009C29.213 35.1181 29.0327 35.1927 28.8998 35.3256C28.7669 35.4585 28.6923 35.6388 28.6923 35.8267C28.6923 36.0147 28.7669 36.1949 28.8998 36.3278C29.0327 36.4607 29.213 36.5354 29.4009 36.5354H31.782V37.9527C31.7894 38.1357 31.8672 38.3088 31.9994 38.4356C32.1315 38.5624 32.3076 38.6332 32.4907 38.633ZM33.1994 32.9638H33.7757C34.0658 32.9669 34.3434 33.082 34.5505 33.285C34.7104 33.4372 34.8206 33.6341 34.8667 33.8499C34.9128 34.0657 34.8927 34.2905 34.8089 34.4947C34.7252 34.6989 34.5818 34.8731 34.3974 34.9944C34.2131 35.1158 33.9964 35.1786 33.7757 35.1748H33.1994V32.9638ZM31.2057 31.5464C31.0617 31.5469 30.919 31.5187 30.786 31.4636C30.653 31.4084 30.5323 31.3274 30.4309 31.2252C30.3289 31.1255 30.248 31.0064 30.1928 30.875C30.1376 30.7435 30.1093 30.6024 30.1096 30.4598C30.1096 30.1691 30.2251 29.8903 30.4306 29.6848C30.6362 29.4792 30.915 29.3638 31.2057 29.3638H31.782V31.5464H31.2057Z" fill="white"/>
<path d="M38.9903 39.8425C39.0438 39.7097 39.1359 39.5958 39.2546 39.5157C39.3733 39.4355 39.5132 39.3926 39.6565 39.3926C39.7997 39.3926 39.9397 39.4355 40.0584 39.5157C40.1771 39.5958 40.2691 39.7097 40.3226 39.8425C40.3601 39.929 40.3794 40.0223 40.3794 40.1166C40.3794 40.2108 40.3601 40.3041 40.3226 40.3906L39.7651 41.5811L44.1494 39.2378L39.784 36.904L40.3226 38.0851C40.3598 38.17 40.379 38.2617 40.379 38.3544C40.379 38.447 40.3598 38.5387 40.3226 38.6236C40.2885 38.7127 40.2366 38.7939 40.1699 38.8621C40.1033 38.9304 40.0234 38.9843 39.9352 39.0205C39.7622 39.0973 39.5659 39.1026 39.3889 39.0354C39.212 38.9681 39.0687 38.8337 38.9903 38.6614L37.573 35.5717C37.5112 35.4334 37.4953 35.2791 37.5276 35.1311C37.5599 34.9832 37.6387 34.8495 37.7525 34.7496C37.8648 34.6511 38.0041 34.5885 38.1523 34.57C38.3006 34.5514 38.451 34.5778 38.584 34.6457L45.9919 38.6142C46.1062 38.6733 46.2019 38.7628 46.2686 38.8728C46.3353 38.9829 46.3703 39.1092 46.3699 39.2378C46.3693 39.3663 46.3338 39.4921 46.2673 39.602C46.2007 39.7118 46.1055 39.8015 45.9919 39.8614L38.584 43.8205C38.4759 43.8762 38.3561 43.9054 38.2344 43.9055C38.0568 43.9091 37.8845 43.8449 37.7525 43.726C37.6407 43.6268 37.5632 43.4948 37.5309 43.3488C37.4987 43.2029 37.5134 43.0505 37.573 42.9134L38.9903 39.8425Z" fill="white"/>
<path d="M32.4906 20C29.3105 20 26.2606 21.2633 24.012 23.512C21.7633 25.7606 20.5 28.8105 20.5 31.9906C20.5 35.1706 21.7633 38.2205 24.012 40.4692C26.2606 42.7178 29.3105 43.9811 32.4906 43.9811C33.3354 43.9834 34.1781 43.8947 35.0039 43.7165C35.1105 43.6954 35.2116 43.6527 35.301 43.5909C35.3904 43.5292 35.4662 43.4497 35.5236 43.3575C35.6126 43.2218 35.6595 43.0629 35.6584 42.9007C35.6572 42.7384 35.6081 42.5802 35.5171 42.4458C35.4262 42.3114 35.2976 42.207 35.1474 42.1456C34.9972 42.0842 34.8322 42.0686 34.6732 42.1008C32.5833 42.5482 30.406 42.3367 28.4412 41.4956C26.4764 40.6544 24.8206 39.2249 23.7018 37.4039C22.583 35.5828 22.0562 33.4597 22.1939 31.3269C22.3316 29.194 23.127 27.1563 24.4707 25.4942C25.8144 23.8321 27.6402 22.6273 29.6968 22.0458C31.7535 21.4642 33.9398 21.5345 35.9549 22.2469C37.97 22.9593 39.7147 24.2788 40.9489 26.0237C42.183 27.7687 42.846 29.8533 42.8465 31.9906C42.8465 32.3402 42.8465 32.6803 42.7992 33.0299C42.7856 33.1377 42.7946 33.247 42.8255 33.3511C42.8564 33.4552 42.9086 33.5518 42.9787 33.6346C43.1201 33.8004 43.3202 33.9048 43.537 33.926C43.7537 33.9471 43.9703 33.8833 44.1409 33.748C44.3083 33.6069 44.4163 33.4078 44.4433 33.1906C44.4433 32.8032 44.5 32.3969 44.5 31.9906C44.4988 30.4147 44.1871 28.8545 43.5829 27.3991C42.9787 25.9436 42.0938 24.6215 40.9786 23.508C39.8634 22.3946 38.5399 21.5117 37.0835 20.9098C35.6271 20.3079 34.0664 19.9988 32.4906 20Z" fill="white"/>
</svg>
