<svg fill="none" height="56" viewBox="0 0 56 56" width="56" xmlns="http://www.w3.org/2000/svg">
<circle cx="28" cy="28" fill="#412098" r="28"/>
<path d="M34.5901 25.5002H35.801L34.9429 24.6459L32.6437 22.3566C32.6436 22.3565 32.6435 22.3564 32.6433 22.3563C32.549 22.2618 32.496 22.1337 32.496 22.0002C32.496 21.8665 32.5492 21.7383 32.6437 21.6437C32.7382 21.5492 32.8664 21.4961 33.0001 21.4961C33.0663 21.4961 33.1319 21.5091 33.193 21.5345C33.2542 21.5598 33.3098 21.5969 33.3566 21.6437L37.3542 25.6414C37.3546 25.6417 37.3549 25.642 37.3552 25.6424C37.424 25.7125 37.4707 25.8014 37.4893 25.898C37.508 25.995 37.4975 26.0953 37.4592 26.1864L37.4576 26.1902C37.4201 26.2815 37.3564 26.3597 37.2746 26.4148C37.193 26.4698 37.097 26.4995 36.9987 26.5002H23.0001C22.8675 26.5002 22.7404 26.4475 22.6466 26.3537C22.5528 26.26 22.5001 26.1328 22.5001 26.0002C22.5001 25.8676 22.5528 25.7404 22.6466 25.6466C22.7404 25.5529 22.8675 25.5002 23.0001 25.5002H34.5901ZM18.541 29.814L18.5411 29.814L18.5426 29.8102C18.5801 29.7189 18.6438 29.6407 18.7257 29.5855C18.8073 29.5306 18.9032 29.5009 19.0015 29.5002H33.0001C33.1327 29.5002 33.2599 29.5529 33.3537 29.6466C33.4475 29.7404 33.5001 29.8676 33.5001 30.0002C33.5001 30.1328 33.4475 30.26 33.3537 30.3537C33.2599 30.4475 33.1327 30.5002 33.0001 30.5002H21.4101H20.1993L21.0574 31.3545L23.3574 33.6445L23.358 33.6452C23.4049 33.6917 23.4421 33.747 23.4675 33.8079C23.4929 33.8688 23.5059 33.9342 23.5059 34.0002C23.5059 34.0662 23.4929 34.1315 23.4675 34.1925C23.4421 34.2534 23.4049 34.3087 23.358 34.3552L23.358 34.3552L23.3551 34.3581C23.3087 34.405 23.2534 34.4421 23.1924 34.4675C23.1315 34.4929 23.0661 34.506 23.0001 34.506C22.9341 34.506 22.8688 34.4929 22.8079 34.4675C22.7469 34.4421 22.6916 34.405 22.6451 34.3581L22.6437 34.3566L18.646 30.359C18.6457 30.3587 18.6454 30.3583 18.6451 30.358C18.5762 30.2879 18.5296 30.1989 18.511 30.1024C18.4923 30.0054 18.5028 29.9051 18.541 29.814Z" fill="black" stroke="#FFA125"/>
</svg>
