<svg fill="none" height="24" viewBox="0 0 24 24" width="24" xmlns="http://www.w3.org/2000/svg">
    <path
        d="M12 15C13.6569 15 15 13.6569 15 12C15 10.3431 13.6569 9 12 9C10.3431 9 9 10.3431 9 12C9 13.6569 10.3431 15 12 15Z"
        stroke="#E53E51" stroke-linecap="round" stroke-linejoin="round" stroke-width="1.5" />
    <path
        d="M19.4002 15.0002C19.2671 15.3019 19.2274 15.6364 19.2862 15.9608C19.3451 16.2852 19.4997 16.5846 19.7302 16.8202L19.7902 16.8802C19.9762 17.066 20.1237 17.2866 20.2244 17.5294C20.325 17.7722 20.3768 18.0324 20.3768 18.2952C20.3768 18.5581 20.325 18.8183 20.2244 19.0611C20.1237 19.3039 19.9762 19.5245 19.7902 19.7102C19.6045 19.8962 19.3839 20.0437 19.1411 20.1444C18.8983 20.245 18.6381 20.2968 18.3752 20.2968C18.1124 20.2968 17.8522 20.245 17.6094 20.1444C17.3666 20.0437 17.146 19.8962 16.9602 19.7102L16.9002 19.6502C16.6646 19.4197 16.3652 19.2651 16.0408 19.2062C15.7164 19.1474 15.3819 19.1871 15.0802 19.3202C14.7845 19.447 14.5322 19.6575 14.3546 19.9258C14.1769 20.1941 14.0815 20.5085 14.0802 20.8302V21.0002C14.0802 21.5307 13.8695 22.0394 13.4945 22.4145C13.1194 22.7895 12.6107 23.0002 12.0802 23.0002C11.5498 23.0002 11.0411 22.7895 10.666 22.4145C10.291 22.0394 10.0802 21.5307 10.0802 21.0002V20.9102C10.0725 20.5792 9.96536 20.2582 9.77275 19.9889C9.58015 19.7197 9.31098 19.5145 9.00024 19.4002C8.69863 19.2671 8.36405 19.2274 8.03966 19.2862C7.71526 19.3451 7.41592 19.4997 7.18024 19.7302L7.12024 19.7902C6.9345 19.9762 6.71392 20.1237 6.47112 20.2244C6.22833 20.325 5.96808 20.3768 5.70524 20.3768C5.44241 20.3768 5.18216 20.325 4.93936 20.2244C4.69657 20.1237 4.47599 19.9762 4.29024 19.7902C4.10429 19.6045 3.95677 19.3839 3.85612 19.1411C3.75548 18.8983 3.70367 18.6381 3.70367 18.3752C3.70367 18.1124 3.75548 17.8522 3.85612 17.6094C3.95677 17.3666 4.10429 17.146 4.29024 16.9602L4.35024 16.9002C4.58078 16.6646 4.73543 16.3652 4.79425 16.0408C4.85307 15.7164 4.81336 15.3819 4.68024 15.0802C4.55348 14.7845 4.343 14.5322 4.07471 14.3546C3.80642 14.1769 3.49203 14.0815 3.17024 14.0802H3.00024C2.46981 14.0802 1.9611 13.8695 1.58603 13.4945C1.21096 13.1194 1.00024 12.6107 1.00024 12.0802C1.00024 11.5498 1.21096 11.0411 1.58603 10.666C1.9611 10.291 2.46981 10.0802 3.00024 10.0802H3.09024C3.42124 10.0725 3.74225 9.96536 4.01154 9.77275C4.28084 9.58015 4.48596 9.31098 4.60024 9.00024C4.73336 8.69863 4.77307 8.36405 4.71425 8.03966C4.65543 7.71526 4.50078 7.41592 4.27024 7.18024L4.21024 7.12024C4.02429 6.9345 3.87677 6.71392 3.77612 6.47112C3.67548 6.22833 3.62367 5.96808 3.62367 5.70524C3.62367 5.44241 3.67548 5.18216 3.77612 4.93936C3.87677 4.69657 4.02429 4.47599 4.21024 4.29024C4.39599 4.10429 4.61657 3.95677 4.85936 3.85612C5.10216 3.75548 5.36241 3.70367 5.62524 3.70367C5.88808 3.70367 6.14833 3.75548 6.39112 3.85612C6.63392 3.95677 6.8545 4.10429 7.04024 4.29024L7.10024 4.35024C7.33592 4.58078 7.63526 4.73543 7.95966 4.79425C8.28405 4.85307 8.61863 4.81336 8.92024 4.68024H9.00024C9.29601 4.55348 9.54826 4.343 9.72594 4.07471C9.90361 3.80642 9.99896 3.49203 10.0002 3.17024V3.00024C10.0002 2.46981 10.211 1.9611 10.586 1.58603C10.9611 1.21096 11.4698 1.00024 12.0002 1.00024C12.5307 1.00024 13.0394 1.21096 13.4145 1.58603C13.7895 1.9611 14.0002 2.46981 14.0002 3.00024V3.09024C14.0015 3.41203 14.0969 3.72642 14.2746 3.99471C14.4522 4.263 14.7045 4.47348 15.0002 4.60024C15.3019 4.73336 15.6364 4.77307 15.9608 4.71425C16.2852 4.65543 16.5846 4.50078 16.8202 4.27024L16.8802 4.21024C17.066 4.02429 17.2866 3.87677 17.5294 3.77612C17.7722 3.67548 18.0324 3.62367 18.2952 3.62367C18.5581 3.62367 18.8183 3.67548 19.0611 3.77612C19.3039 3.87677 19.5245 4.02429 19.7102 4.21024C19.8962 4.39599 20.0437 4.61657 20.1444 4.85936C20.245 5.10216 20.2968 5.36241 20.2968 5.62524C20.2968 5.88808 20.245 6.14833 20.1444 6.39112C20.0437 6.63392 19.8962 6.8545 19.7102 7.04024L19.6502 7.10024C19.4197 7.33592 19.2651 7.63526 19.2062 7.95966C19.1474 8.28405 19.1871 8.61863 19.3202 8.92024V9.00024C19.447 9.29601 19.6575 9.54826 19.9258 9.72594C20.1941 9.90361 20.5085 9.99896 20.8302 10.0002H21.0002C21.5307 10.0002 22.0394 10.211 22.4145 10.586C22.7895 10.9611 23.0002 11.4698 23.0002 12.0002C23.0002 12.5307 22.7895 13.0394 22.4145 13.4145C22.0394 13.7895 21.5307 14.0002 21.0002 14.0002H20.9102C20.5885 14.0015 20.2741 14.0969 20.0058 14.2746C19.7375 14.4522 19.527 14.7045 19.4002 15.0002V15.0002Z"
        stroke="#E53E51" stroke-linecap="round" stroke-linejoin="round" stroke-width="1.5" />
</svg>
