<svg width="24" height="24" viewBox="0 0 24 24" fill="none" xmlns="http://www.w3.org/2000/svg">
<path d="M12 19.201C5.2716 19.201 0 16.0378 0 12.001C0 9.82181 1.56 7.80101 4.2684 6.46061C4.55343 6.32197 4.88175 6.30172 5.18165 6.4043C5.48156 6.50688 5.72871 6.72395 5.86912 7.00811C6.00954 7.29228 6.03183 7.62046 5.93112 7.921C5.83041 8.22154 5.61489 8.47003 5.3316 8.61221C3.4692 9.53381 2.4 10.7698 2.4 12.001C2.4 14.2714 6.3432 16.801 12 16.801C13.0297 16.8067 14.0576 16.7139 15.0696 16.5238C15.2261 16.4886 15.3881 16.4852 15.5459 16.5137C15.7037 16.5422 15.8543 16.602 15.9886 16.6897C16.1229 16.7773 16.2383 16.891 16.328 17.024C16.4176 17.1571 16.4796 17.3067 16.5104 17.4641C16.5413 17.6215 16.5402 17.7835 16.5073 17.9405C16.4745 18.0975 16.4104 18.2463 16.3191 18.3781C16.2277 18.51 16.1108 18.6222 15.9754 18.708C15.8399 18.7939 15.6886 18.8518 15.5304 18.8782C14.3667 19.0991 13.1844 19.2072 12 19.201Z" fill="#6FD5FF"/>
<path d="M13.2 21.6009C12.9627 21.6009 12.7308 21.5304 12.5335 21.3986C12.3362 21.2667 12.1824 21.0793 12.0916 20.8601C12.0008 20.6408 11.9771 20.3996 12.0233 20.1669C12.0696 19.9341 12.1839 19.7203 12.3516 19.5525L13.9032 18.0009L12.3516 16.4493C12.133 16.223 12.0121 15.9199 12.0148 15.6052C12.0176 15.2906 12.1438 14.9896 12.3663 14.7671C12.5887 14.5446 12.8897 14.4184 13.2044 14.4157C13.519 14.413 13.8221 14.5339 14.0484 14.7525L16.4484 17.1525C16.6734 17.3775 16.7998 17.6827 16.7998 18.0009C16.7998 18.3191 16.6734 18.6243 16.4484 18.8493L14.0484 21.2493C13.8234 21.4744 13.5183 21.6008 13.2 21.6009Z" fill="#6FD5FF"/>
<path d="M19.2 17.6652C18.9275 17.6674 18.6624 17.5769 18.4482 17.4084C18.2341 17.2399 18.0836 17.0036 18.0216 16.7383C17.9596 16.473 17.9898 16.1944 18.1071 15.9485C18.2244 15.7026 18.4219 15.5039 18.6672 15.3852C20.5308 14.4684 21.6 13.2324 21.6 12.0012C21.6 9.73079 17.6568 7.20118 12 7.20118C11.2532 7.19803 10.507 7.24614 9.76677 7.34518C9.45559 7.38126 9.14265 7.29423 8.89478 7.10268C8.64691 6.91112 8.48377 6.63024 8.44022 6.32002C8.39666 6.0098 8.47614 5.69485 8.66168 5.44245C8.84721 5.19004 9.12409 5.02019 9.43317 4.96918C10.2838 4.85376 11.1415 4.79762 12 4.80118C18.7284 4.80118 24 7.96439 24 12.0012C24 14.1804 22.44 16.2012 19.7316 17.5416C19.5662 17.6231 19.3843 17.6654 19.2 17.6652Z" fill="#6FD5FF"/>
<path d="M10.8 9.6011C10.4818 9.60103 10.1766 9.47456 9.95163 9.2495L7.55163 6.8495C7.32667 6.62446 7.20029 6.31929 7.20029 6.0011C7.20029 5.6829 7.32667 5.37773 7.55163 5.1527L9.95163 2.7527C10.0623 2.63809 10.1947 2.54667 10.3411 2.48378C10.4876 2.42089 10.645 2.38778 10.8043 2.3864C10.9637 2.38501 11.1217 2.41538 11.2692 2.47571C11.4167 2.53605 11.5506 2.62515 11.6633 2.73782C11.776 2.8505 11.8651 2.98448 11.9254 3.13195C11.9858 3.27943 12.0161 3.43744 12.0147 3.59678C12.0133 3.75612 11.9802 3.91358 11.9174 4.05998C11.8545 4.20639 11.763 4.3388 11.6484 4.4495L10.0968 6.0011L11.6484 7.5527C11.8162 7.72052 11.9304 7.93432 11.9767 8.16706C12.023 8.3998 11.9992 8.64104 11.9084 8.86028C11.8176 9.07952 11.6639 9.26692 11.4666 9.39878C11.2693 9.53064 11.0373 9.60105 10.8 9.6011Z" fill="#6FD5FF"/>
</svg>
