<svg fill="none" height="104" viewBox="0 0 104 104" width="104" xmlns="http://www.w3.org/2000/svg">
    <path clip-rule="evenodd"
        d="M65.6843 2.73667C65.6843 4.24202 64.4527 5.4736 62.9474 5.4736C61.4423 5.4736 60.2107 4.24202 60.2104 2.73693C60.2104 1.23158 61.442 0 62.9474 0C64.4527 0 65.6843 1.23158 65.6843 2.73667ZM13.6843 19.1577C13.6843 16.1472 16.1475 13.6841 19.1579 13.6841C22.1684 13.6841 24.6315 16.1475 24.6315 19.1579C24.6315 22.1684 22.1686 24.6315 19.1579 24.6315C16.1472 24.6315 13.6843 22.1681 13.6843 19.1577ZM0 41.0528C0 39.5475 1.23158 38.3159 2.73693 38.3159C4.24202 38.3159 5.4736 39.5475 5.47386 41.0528C5.47386 42.5582 4.24228 43.7898 2.73693 43.7898C1.23158 43.7898 0 42.5582 0 41.0528ZM0 62.9476C0 61.4425 1.23158 60.2109 2.73693 60.2109C4.24202 60.2109 5.4736 61.4425 5.47386 62.9476C5.47386 64.453 4.24228 65.6845 2.73693 65.6845C1.23158 65.6845 0 64.453 0 62.9476ZM41.0526 98.5264C39.5473 98.5264 38.3157 99.7579 38.3157 101.263C38.3157 102.769 39.5473 104 41.0526 104C42.558 104 43.7895 102.769 43.7895 101.263C43.7895 99.7579 42.558 98.5264 41.0526 98.5264ZM19.1579 35.5791C16.1475 35.5791 13.6843 38.0423 13.6843 41.0527C13.6843 44.0631 16.1475 46.5263 19.1579 46.5263C22.1684 46.5263 24.6315 44.0631 24.6315 41.0527C24.6315 38.0423 22.1684 35.5791 19.1579 35.5791ZM13.6843 62.9472C13.6843 59.9368 16.1475 57.4736 19.1579 57.4736C22.1684 57.4736 24.6315 59.9368 24.6315 62.9472C24.6315 65.9579 22.1684 68.4208 19.1579 68.4208C16.1475 68.4208 13.6843 65.9577 13.6843 62.9472ZM101.263 43.7898C102.769 43.7898 104 42.5582 104 41.0528C104 39.5475 102.769 38.3159 101.263 38.3159C99.7579 38.3159 98.5264 39.5475 98.5264 41.0528C98.5264 42.5582 99.7579 43.7898 101.263 43.7898ZM41.0527 24.6318C44.0631 24.6318 46.5263 22.1686 46.5263 19.1582C46.5263 16.1477 44.0631 13.6846 41.0527 13.6846C38.0423 13.6846 35.5791 16.1477 35.5791 19.1582C35.5791 22.1686 38.0423 24.6318 41.0527 24.6318ZM43.7895 2.73667C43.7895 4.24202 42.558 5.4736 41.0526 5.4736C39.5473 5.4736 38.3157 4.24202 38.3157 2.73693C38.3157 1.23158 39.5473 0 41.0526 0C42.558 0 43.7895 1.23158 43.7895 2.73667ZM62.9472 24.6318C65.9577 24.6318 68.4209 22.1686 68.4209 19.1582C68.4209 16.1477 65.9577 13.6846 62.9472 13.6846C59.9368 13.6846 57.4736 16.1477 57.4736 19.1582C57.4736 22.1686 59.9368 24.6318 62.9472 24.6318ZM13.6843 84.8418C13.6843 81.8313 16.1475 79.3682 19.1579 79.3682C22.1684 79.3682 24.6315 81.8313 24.6315 84.842C24.6315 87.8525 22.1684 90.3154 19.1579 90.3154C16.1475 90.3154 13.6843 87.8522 13.6843 84.8418ZM62.9473 32.8423C58.4041 32.8423 54.7368 36.5096 54.7368 41.0528C54.7368 45.5961 58.4041 49.2633 62.9473 49.2633C67.4906 49.2633 71.1579 45.5961 71.1579 41.0528C71.1579 36.5096 67.4906 32.8423 62.9473 32.8423ZM79.3687 62.9472C79.3687 59.9368 81.8318 57.4736 84.8423 57.4736C87.8527 57.4736 90.3159 59.9368 90.3159 62.9472C90.3159 65.9577 87.8527 68.4208 84.8423 68.4208C81.8318 68.4208 79.3687 65.9577 79.3687 62.9472ZM84.8423 79.3682C81.8318 79.3682 79.3687 81.8313 79.3687 84.8418C79.3687 87.8522 81.8318 90.3154 84.8423 90.3154C87.8527 90.3156 90.3159 87.8525 90.3159 84.842C90.3159 81.8313 87.8527 79.3682 84.8423 79.3682ZM79.3687 41.0527C79.3687 38.0423 81.8318 35.5791 84.8423 35.5791C87.8527 35.5791 90.3159 38.0423 90.3159 41.0527C90.3159 44.0631 87.8527 46.5263 84.8423 46.5263C81.8318 46.5263 79.3687 44.0631 79.3687 41.0527ZM101.263 60.2109C99.7579 60.2109 98.5264 61.4425 98.5264 62.9479C98.5264 64.453 99.7579 65.6845 101.263 65.6845C102.769 65.6845 104 64.453 104 62.9476C104 61.4425 102.768 60.2109 101.263 60.2109ZM79.3687 19.1577C79.3687 16.1472 81.8318 13.6841 84.8423 13.6841C87.8527 13.6841 90.3159 16.1475 90.3159 19.1579C90.3159 22.1684 87.8527 24.6315 84.8423 24.6315C81.8316 24.6315 79.3687 22.1681 79.3687 19.1577ZM41.0526 54.7368C36.5093 54.7368 32.842 58.4041 32.842 62.9473C32.842 67.4906 36.5093 71.1579 41.0526 71.1579C45.5958 71.1579 49.2631 67.4906 49.2631 62.9473C49.2631 58.4041 45.5958 54.7368 41.0526 54.7368ZM35.5791 84.8418C35.5791 81.8313 38.0423 79.3682 41.0527 79.3682C44.0631 79.3682 46.5263 81.8313 46.5263 84.8418C46.5263 87.8522 44.0631 90.3154 41.0527 90.3154C38.0423 90.3154 35.5791 87.8522 35.5791 84.8418ZM41.0526 32.8423C36.5093 32.8423 32.842 36.5096 32.842 41.0528C32.842 45.5961 36.5093 49.2633 41.0526 49.2633C45.5958 49.2633 49.2631 45.5961 49.2631 41.0528C49.2631 36.5096 45.5958 32.8423 41.0526 32.8423ZM57.4736 84.8418C57.4736 81.8313 59.9368 79.3682 62.9472 79.3682C65.9579 79.3682 68.4211 81.8313 68.4209 84.842C68.4209 87.8525 65.9577 90.3156 62.9472 90.3156C59.9368 90.3156 57.4736 87.8525 57.4736 84.8418ZM62.9474 98.5264C61.442 98.5264 60.2104 99.7579 60.2104 101.263C60.2104 102.769 61.442 104 62.9474 104C64.4527 104 65.6843 102.769 65.6843 101.263C65.6843 99.7579 64.4527 98.5264 62.9474 98.5264ZM54.7368 62.9473C54.7368 58.4041 58.4041 54.7368 62.9473 54.7368C67.4906 54.7368 71.1579 58.4041 71.1579 62.9473C71.1579 67.4906 67.4906 71.1579 62.9473 71.1579C58.4041 71.1579 54.7368 67.4906 54.7368 62.9473Z"
        fill="url(#paint0_linear)" fill-rule="evenodd" />
    <defs>
        <linearGradient gradientUnits="userSpaceOnUse" id="paint0_linear" x1="86.5" x2="59.2772"
            y1="63.5" y2="9.2418">
            <stop stop-color="#4639FF" />
            <stop offset="1" stop-color="#ED7863" />
        </linearGradient>
    </defs>
</svg>
