<svg fill="none" height="17" viewBox="0 0 18 17" width="18" xmlns="http://www.w3.org/2000/svg">
    <path
        d="M9.67254 2.00153C9.54619 1.74555 9.28547 1.5835 9.00001 1.5835C8.71455 1.5835 8.45383 1.74555 8.32748 2.00153L6.44181 5.82168L2.22487 6.43805C1.94245 6.47933 1.70794 6.67733 1.61991 6.94884C1.53188 7.22034 1.60558 7.51828 1.81004 7.71743L4.86079 10.6889L4.1408 14.8867C4.09254 15.1681 4.20823 15.4525 4.43921 15.6203C4.67019 15.7881 4.97641 15.8102 5.2291 15.6773L9.00001 13.6942L12.7709 15.6773C13.0236 15.8102 13.3298 15.7881 13.5608 15.6203C13.7918 15.4525 13.9075 15.1681 13.8592 14.8867L13.1392 10.6889L16.19 7.71743C16.3944 7.51828 16.4681 7.22034 16.3801 6.94884C16.2921 6.67733 16.0576 6.47933 15.7751 6.43805L11.5582 5.82168L9.67254 2.00153Z"
        fill="#FFE816" stroke="white" stroke-linecap="round" stroke-linejoin="round"
        stroke-width="1.5" />
</svg>
