<svg width="26" height="28" viewBox="0 0 26 28" fill="none" xmlns="http://www.w3.org/2000/svg">
<g id="Layer_1">
<path id="Vector" d="M13.4304 13.6899H17.4304C17.7004 13.6899 17.9504 13.5799 18.1404 13.3999C18.3304 13.2099 18.4304 12.9599 18.4304 12.6899C18.4304 12.4199 18.3204 12.1699 18.1404 11.9799C17.9504 11.7899 17.7004 11.6899 17.4304 11.6899H15.4304V10.6899C15.4304 10.4199 15.3204 10.1699 15.1404 9.97994C14.9504 9.78994 14.7004 9.68994 14.4304 9.68994C14.1604 9.68994 13.9104 9.79994 13.7204 9.97994C13.5304 10.1699 13.4304 10.4199 13.4304 10.6899V11.6899C12.6304 11.6899 11.8704 12.0099 11.3104 12.5699C10.7504 13.1299 10.4304 13.8999 10.4304 14.6899C10.4304 15.4799 10.7504 16.2499 11.3104 16.8099C11.8704 17.3699 12.6404 17.6899 13.4304 17.6899H15.4304C15.7004 17.6899 15.9504 17.7999 16.1404 17.9799C16.3304 18.1599 16.4304 18.4199 16.4304 18.6899C16.4304 18.9599 16.3204 19.2099 16.1404 19.3999C15.9604 19.5899 15.7004 19.6899 15.4304 19.6899H11.4304C11.1604 19.6899 10.9104 19.7999 10.7204 19.9799C10.5304 20.1699 10.4304 20.4199 10.4304 20.6899C10.4304 20.9599 10.5404 21.2099 10.7204 21.3999C10.9104 21.5899 11.1604 21.6899 11.4304 21.6899H13.4304V22.6899C13.4304 22.9599 13.5404 23.2099 13.7204 23.3999C13.9004 23.5899 14.1604 23.6899 14.4304 23.6899C14.7004 23.6899 14.9504 23.5799 15.1404 23.3999C15.3304 23.2199 15.4304 22.9599 15.4304 22.6899V21.6899C16.2304 21.6899 16.9904 21.3699 17.5504 20.8099C18.1104 20.2499 18.4304 19.4799 18.4304 18.6899C18.4304 17.8999 18.1104 17.1299 17.5504 16.5699C16.9904 16.0099 16.2204 15.6899 15.4304 15.6899H13.4304C13.1604 15.6899 12.9104 15.5799 12.7204 15.3999C12.5304 15.2199 12.4304 14.9599 12.4304 14.6899C12.4304 14.4199 12.5404 14.1699 12.7204 13.9799C12.9104 13.7899 13.1604 13.6899 13.4304 13.6899ZM14.4304 5.68994C12.2504 5.68994 10.1304 6.33994 8.32041 7.53994C6.51041 8.74994 5.10041 10.4699 4.27041 12.4799C3.44041 14.4899 3.22041 16.6999 3.64041 18.8399C4.06041 20.9699 5.11041 22.9299 6.65041 24.4699C8.19041 26.0099 10.1504 27.0599 12.2804 27.4799C14.4104 27.8999 16.6304 27.6899 18.6404 26.8499C20.6504 26.0199 22.3704 24.6099 23.5804 22.7999C24.7904 20.9899 25.4304 18.8599 25.4304 16.6899C25.4304 13.7699 24.2704 10.9699 22.2104 8.90994C20.1504 6.84994 17.3504 5.68994 14.4304 5.68994ZM14.4304 25.6899C12.6504 25.6899 10.9104 25.1599 9.43041 24.1699C7.95041 23.1799 6.80041 21.7799 6.12041 20.1299C5.44041 18.4899 5.26041 16.6799 5.61041 14.9299C5.96041 13.1799 6.81041 11.5799 8.07041 10.3199C9.33041 9.05994 10.9304 8.19994 12.6804 7.85994C14.4304 7.50994 16.2404 7.68994 17.8804 8.36994C19.5204 9.04994 20.9304 10.1999 21.9204 11.6799C22.9104 13.1599 23.4404 14.8999 23.4404 16.6799C23.4404 19.0699 22.4904 21.3599 20.8004 23.0399C19.1104 24.7299 16.8204 25.6799 14.4404 25.6799L14.4304 25.6899Z" fill="black"/>
<path id="Vector_2" d="M2.17 9.24C2.52 7.49 3.37 5.89 4.63 4.63C5.89 3.37 7.49 2.51 9.24 2.17C10.99 1.82 12.8 2 14.44 2.68C15.05 2.93 15.62 3.27 16.16 3.65C17.54 3.83 18.86 4.22 20.09 4.81C19.7 4.24 19.27 3.7 18.77 3.21C16.72 1.16 13.92 0 11 0C8.82 0 6.7 0.65 4.89 1.85C3.08 3.05 1.67 4.78 0.84 6.79C0 8.8 -0.21 11.01 0.21 13.15C0.42 14.21 0.79 15.23 1.29 16.17C1.34 14.81 1.61 13.46 2.09 12.16C1.96 11.19 1.98 10.21 2.17 9.25V9.24Z" fill="black"/>
<path id="Vector_3" d="M14.4304 5.68994C12.2504 5.68994 10.1304 6.33994 8.32041 7.53994C6.51041 8.74994 5.10041 10.4699 4.27041 12.4799C3.44041 14.4899 3.22041 16.6999 3.64041 18.8399C4.06041 20.9699 5.11041 22.9299 6.65041 24.4699C8.19041 26.0099 10.1504 27.0599 12.2804 27.4799C14.4104 27.8999 16.6304 27.6899 18.6404 26.8499C20.6504 26.0199 22.3704 24.6099 23.5804 22.7999C24.7904 20.9899 25.4304 18.8599 25.4304 16.6899C25.4304 13.7699 24.2704 10.9699 22.2104 8.90994C20.1504 6.84994 17.3504 5.68994 14.4304 5.68994ZM14.4304 25.6899C12.6504 25.6899 10.9104 25.1599 9.43041 24.1699C7.95041 23.1799 6.80041 21.7799 6.12041 20.1299C5.44041 18.4899 5.26041 16.6799 5.61041 14.9299C5.96041 13.1799 6.81041 11.5799 8.07041 10.3199C9.33041 9.05994 10.9304 8.19994 12.6804 7.85994C14.4304 7.50994 16.2404 7.68994 17.8804 8.36994C19.5204 9.04994 20.9304 10.1999 21.9204 11.6799C22.9104 13.1599 23.4404 14.8999 23.4404 16.6799C23.4404 19.0699 22.4904 21.3599 20.8004 23.0399C19.1104 24.7299 16.8204 25.6799 14.4404 25.6799L14.4304 25.6899Z" fill="black"/>
</g>
</svg>
