<svg width="41" height="40" viewBox="0 0 41 40" fill="none" xmlns="http://www.w3.org/2000/svg">
<path d="M27.1667 35V31.6667C27.1667 29.8986 26.4644 28.2029 25.2141 26.9526C23.9639 25.7024 22.2682 25 20.5001 25H8.83341C7.0653 25 5.36961 25.7024 4.11937 26.9526C2.86913 28.2029 2.16675 29.8986 2.16675 31.6667V35" stroke="black" stroke-width="2" stroke-linecap="round" stroke-linejoin="round"/>
<path d="M30.5 13.3333L38.8333 21.6667" stroke="black" stroke-width="2" stroke-linecap="round" stroke-linejoin="round"/>
<path d="M38.8333 13.3333L30.5 21.6667" stroke="black" stroke-width="2" stroke-linecap="round" stroke-linejoin="round"/>
<path d="M14.6667 18.3333C18.3486 18.3333 21.3333 15.3486 21.3333 11.6667C21.3333 7.98477 18.3486 5 14.6667 5C10.9848 5 8 7.98477 8 11.6667C8 15.3486 10.9848 18.3333 14.6667 18.3333Z" stroke="black" stroke-width="2" stroke-linecap="round" stroke-linejoin="round"/>
</svg>
