<svg fill="none" height="276" viewBox="0 0 216 276" width="216" xmlns="http://www.w3.org/2000/svg">
<path d="M144.912 247.6V270H140.752V260.4H129.168V270H125.008V247.6H129.168V256.848H140.752V247.6H144.912ZM166.594 261.552C166.594 261.829 166.573 262.224 166.53 262.736H153.122C153.357 263.995 153.965 264.997 154.946 265.744C155.949 266.469 157.186 266.832 158.658 266.832C160.536 266.832 162.082 266.213 163.298 264.976L165.442 267.44C164.674 268.357 163.704 269.051 162.53 269.52C161.357 269.989 160.034 270.224 158.562 270.224C156.685 270.224 155.032 269.851 153.602 269.104C152.173 268.357 151.064 267.323 150.274 266C149.506 264.656 149.122 263.141 149.122 261.456C149.122 259.792 149.496 258.299 150.242 256.976C151.01 255.632 152.066 254.587 153.41 253.84C154.754 253.093 156.269 252.72 157.954 252.72C159.618 252.72 161.101 253.093 162.402 253.84C163.725 254.565 164.749 255.6 165.474 256.944C166.221 258.267 166.594 259.803 166.594 261.552ZM157.954 255.92C156.674 255.92 155.586 256.304 154.69 257.072C153.816 257.819 153.282 258.821 153.09 260.08H162.786C162.616 258.843 162.093 257.84 161.218 257.072C160.344 256.304 159.256 255.92 157.954 255.92ZM170.437 246.256H174.437V270H170.437V246.256ZM179.687 246.256H183.687V270H179.687V246.256ZM196.617 270.224C194.889 270.224 193.331 269.851 191.945 269.104C190.558 268.357 189.47 267.323 188.681 266C187.913 264.656 187.529 263.141 187.529 261.456C187.529 259.771 187.913 258.267 188.681 256.944C189.47 255.621 190.558 254.587 191.945 253.84C193.331 253.093 194.889 252.72 196.617 252.72C198.366 252.72 199.934 253.093 201.321 253.84C202.707 254.587 203.785 255.621 204.553 256.944C205.342 258.267 205.737 259.771 205.737 261.456C205.737 263.141 205.342 264.656 204.553 266C203.785 267.323 202.707 268.357 201.321 269.104C199.934 269.851 198.366 270.224 196.617 270.224ZM196.617 266.8C198.089 266.8 199.305 266.309 200.265 265.328C201.225 264.347 201.705 263.056 201.705 261.456C201.705 259.856 201.225 258.565 200.265 257.584C199.305 256.603 198.089 256.112 196.617 256.112C195.145 256.112 193.929 256.603 192.969 257.584C192.03 258.565 191.561 259.856 191.561 261.456C191.561 263.056 192.03 264.347 192.969 265.328C193.929 266.309 195.145 266.8 196.617 266.8ZM209.049 247.6H213.786L212.986 262.576H209.818L209.049 247.6ZM211.418 270.224C210.671 270.224 210.052 269.989 209.562 269.52C209.071 269.029 208.826 268.432 208.826 267.728C208.826 267.024 209.071 266.437 209.562 265.968C210.052 265.499 210.671 265.264 211.418 265.264C212.143 265.264 212.74 265.499 213.21 265.968C213.7 266.437 213.946 267.024 213.946 267.728C213.946 268.432 213.7 269.029 213.21 269.52C212.74 269.989 212.143 270.224 211.418 270.224Z" fill="white"/>
<circle cx="88.5" cy="258.502" fill="#FFE816" r="14.5"/>
<path d="M103.288 -221.337L15.6163 -221.337C13.7069 -221.337 11.8161 -220.961 10.0519 -220.231C8.28776 -219.5 6.68481 -218.428 5.33466 -217.078C3.9845 -215.727 2.91359 -214.123 2.18315 -212.358C1.4527 -210.593 1.07703 -208.701 1.07758 -206.791V-206.791C1.07758 -202.934 2.60876 -199.235 5.3344 -196.507C8.06004 -193.779 11.7569 -192.246 15.6121 -192.245L103.083 -192.245C105.072 -192.246 107.039 -191.837 108.863 -191.045C110.687 -190.253 112.329 -189.094 113.687 -187.64C115.044 -186.187 116.088 -184.469 116.755 -182.595C117.421 -180.72 117.695 -178.729 117.559 -176.744C117.057 -169.019 110.302 -163.183 102.568 -163.183L44.4719 -163.183C32.9626 -163.182 21.9251 -158.607 13.7872 -150.464C5.64934 -142.321 1.07758 -131.278 1.07758 -119.763L1.07758 -119.344C1.07758 -107.829 5.64934 -96.7862 13.7872 -88.6436C21.9251 -80.5009 32.9626 -75.9259 44.4719 -75.9248L102.602 -75.9248C110.336 -75.9248 117.082 -70.0596 117.563 -62.3426C117.693 -60.3603 117.415 -58.3723 116.747 -56.5018C116.078 -54.6313 115.032 -52.918 113.675 -51.4681C112.318 -50.0182 110.677 -48.8624 108.855 -48.0724C107.033 -47.2824 105.069 -46.8748 103.083 -46.8751L44.4593 -46.8751C32.95 -46.874 21.9125 -42.2989 13.7746 -34.1563C5.63676 -26.0137 1.065 -14.9704 1.065 -3.45552L1.065 -3.03657C1.07055 8.47607 5.64675 19.515 13.787 27.6521C21.9272 35.7893 32.9648 40.3581 44.4719 40.3537L103.096 40.3537C105.084 40.3531 107.052 40.7615 108.876 41.5536C110.7 42.3458 112.342 43.5047 113.699 44.9583C115.057 46.412 116.101 48.1294 116.767 50.0039C117.433 51.8783 117.707 53.8699 117.572 55.8547C117.069 63.5759 110.315 69.416 102.581 69.416L44.4719 69.416C38.7723 69.4165 33.1287 70.5403 27.8633 72.7231C22.5979 74.9059 17.8138 78.105 13.7843 82.1377C9.75467 86.1704 6.55849 90.9577 4.37826 96.2263C2.19804 101.495 1.07647 107.142 1.07757 112.844L1.07757 113.263C1.0809 124.775 5.65424 135.815 13.7919 143.954C21.9295 152.093 32.9652 156.666 44.4719 156.666L102.602 156.666C110.336 156.666 117.082 162.531 117.563 170.248C117.693 172.23 117.415 174.219 116.747 176.089C116.078 177.96 115.032 179.674 113.675 181.124C112.318 182.574 110.677 183.73 108.856 184.521C107.034 185.311 105.069 185.719 103.083 185.72L44.4593 185.72C32.9526 185.723 21.9183 190.298 13.783 198.44C5.64773 206.582 1.07757 217.623 1.07757 229.135L1.07757 229.554C1.07979 241.067 5.65264 252.108 13.7904 260.248C21.9282 268.388 32.9644 272.961 44.4719 272.961L88.2221 272.961C92.0517 272.972 95.7312 271.471 98.4613 268.784C101.191 266.097 102.751 262.441 102.803 258.61C102.854 254.779 101.392 251.082 98.7352 248.323C96.0781 245.564 92.4401 243.965 88.6115 243.873L44.677 243.873C40.8267 243.873 37.134 242.343 34.4114 239.619C31.6888 236.895 30.1592 233.201 30.1592 229.349C30.1592 225.496 31.6888 221.802 34.4114 219.078C37.134 216.354 40.8267 214.824 44.677 214.824L103.301 214.824C109 214.823 114.644 213.698 119.909 211.514C125.174 209.331 129.957 206.131 133.986 202.097C138.015 198.063 141.209 193.275 143.388 188.006C145.566 182.737 146.686 177.09 146.683 171.387L146.683 170.968C146.679 159.456 142.106 148.416 133.969 140.276C125.831 132.136 114.796 127.563 103.288 127.561L45.1712 127.561C37.4412 127.561 30.6952 121.726 30.2011 114.009C30.0693 112.026 30.3458 110.037 31.0136 108.165C31.6814 106.293 32.7262 104.579 34.0833 103.127C35.4404 101.676 37.0809 100.519 38.9032 99.7281C40.7254 98.937 42.6906 98.5287 44.677 98.5285L103.301 98.5285C109 98.5274 114.644 97.4029 119.909 95.2192C125.174 93.0355 129.957 89.8355 133.986 85.8018C138.015 81.7682 141.209 76.98 143.388 71.7107C145.566 66.4415 146.686 60.7944 146.683 55.0922L146.683 54.6732C146.679 43.1606 142.106 32.1205 133.969 23.9806C125.831 15.8407 114.796 11.2674 103.288 11.2663L44.6645 11.2663C40.8141 11.2663 37.1215 9.73594 34.3988 7.012C31.6762 4.28806 30.1467 0.593609 30.1467 -3.25862C30.1467 -7.11085 31.6762 -10.8053 34.3988 -13.5292C37.1215 -16.2532 40.8141 -17.7835 44.6645 -17.7835L103.288 -17.7835C108.988 -17.7829 114.631 -18.9057 119.896 -21.0876C125.162 -23.2694 129.946 -26.4677 133.976 -30.4998C138.005 -34.5318 141.202 -39.3186 143.382 -44.5867C145.562 -49.8549 146.684 -55.5011 146.683 -61.203L146.683 -61.622C146.683 -73.1368 142.111 -84.1801 133.973 -92.3227C125.835 -100.465 114.798 -105.04 103.288 -105.042L45.1712 -105.042C37.4412 -105.042 30.6952 -110.877 30.2011 -118.594C30.0692 -120.577 30.3458 -122.566 31.0136 -124.437C31.6814 -126.309 32.7263 -128.023 34.0835 -129.474C35.4407 -130.925 37.0812 -132.082 38.9035 -132.872C40.7257 -133.663 42.6908 -134.071 44.6771 -134.07L103.301 -134.07C109 -134.07 114.643 -135.192 119.908 -137.374C125.173 -139.556 129.957 -142.754 133.987 -146.785C138.016 -150.817 141.213 -155.603 143.393 -160.871C145.574 -166.138 146.696 -171.784 146.695 -177.486L146.695 -177.905C146.698 -183.608 145.576 -189.257 143.396 -194.527C141.215 -199.797 138.018 -204.586 133.987 -208.619C129.956 -212.653 125.17 -215.852 119.902 -218.034C114.635 -220.216 108.99 -221.338 103.288 -221.337V-221.337Z" stroke="white" stroke-miterlimit="10"/>
</svg>
