<svg fill="none" height="81" viewBox="0 0 270 81" width="270" xmlns="http://www.w3.org/2000/svg">
    <path
        d="M-0.734346 24.7479V72.6943C-0.734346 77.0869 2.83302 80.6543 7.22567 80.6543C11.6183 80.6543 15.1857 77.0869 15.1857 72.6943V24.8544C15.1857 20.302 19.0193 16.6281 23.6515 16.9476C27.8844 17.2138 31.0524 20.9143 31.0524 25.1472V56.9074C31.0524 70.0055 41.6747 80.6543 54.7994 80.6543H55.0123C68.1104 80.6543 78.7593 70.0321 78.7593 56.9074V25.1206C78.7593 20.8877 81.9539 17.1872 86.1868 16.9476C90.8191 16.6548 94.6526 20.302 94.6526 24.8544V56.9074C94.6526 70.0055 105.275 80.6543 118.4 80.6543H118.613C131.711 80.6543 142.359 70.0321 142.359 56.9074V24.8544C142.359 20.302 146.193 16.6281 150.825 16.9476C155.058 17.2138 158.226 20.9143 158.226 25.1472V56.9074C158.226 70.0055 168.848 80.6543 181.973 80.6543H182.186C195.284 80.6543 205.933 70.0321 205.933 56.9074V25.1206C205.933 20.8877 209.128 17.1872 213.361 16.9476C217.993 16.6548 221.826 20.302 221.826 24.8544V56.9074C221.826 70.0055 232.449 80.6543 245.573 80.6543H245.786C258.884 80.6543 269.533 70.0321 269.533 56.9074V32.9741C269.533 28.5815 265.966 25.0407 261.6 25.0407C257.287 25.0407 253.773 28.475 253.64 32.7611V56.8009C253.64 61.1935 250.099 64.7343 245.706 64.7343C241.314 64.7343 237.773 61.1935 237.773 56.8009V24.7479C237.773 11.6498 227.151 1.00098 214.026 1.00098H213.813C200.715 1.00098 190.066 11.6232 190.066 24.7479V56.5347C190.066 60.7676 186.872 64.4414 182.665 64.7343C178.033 65.0271 174.199 61.3799 174.199 56.8275V24.7745C174.199 11.6764 163.577 1.0276 150.453 1.0276H150.24C137.142 1.0276 126.493 11.6498 126.493 24.7745V56.8009C126.493 61.1935 122.952 64.7343 118.559 64.7343C114.167 64.7343 110.626 61.1935 110.626 56.8009V24.7479C110.626 11.6498 100.004 1.00098 86.879 1.00098H86.666C73.5679 1.00098 62.9191 11.6232 62.9191 24.7479V56.5347C62.9191 60.7676 59.7244 64.4414 55.5181 64.7343C50.8859 65.0271 47.0523 61.3799 47.0523 56.8275V24.7745C47.0523 11.6764 36.4301 1.0276 23.3054 1.0276H23.0924C9.88787 1.00098 -0.734346 11.6232 -0.734346 24.7479Z"
        opacity="0.3" stroke="white" stroke-miterlimit="10" stroke-width="0.532442" />
</svg>
