<svg width="12" height="16" viewBox="0 0 12 16" fill="none" xmlns="http://www.w3.org/2000/svg">
<path d="M6.94678 7.28008C6.82283 7.40505 6.67536 7.50424 6.51288 7.57194C6.3504 7.63963 6.17613 7.67448 6.00011 7.67448C5.82409 7.67448 5.64982 7.63963 5.48734 7.57194C5.32486 7.50424 5.17739 7.40505 5.05344 7.28008L1.05344 3.28008C0.795299 3.02901 0.647466 2.68567 0.642465 2.3256C0.637464 1.96553 0.775706 1.61823 1.02678 1.36008C1.27785 1.10194 1.62118 0.954104 1.98125 0.949104C2.34132 0.944103 2.68863 1.08234 2.94678 1.33341L6.00011 4.45341L9.05344 1.33341C9.17739 1.20844 9.32486 1.10925 9.48734 1.04156C9.64982 0.973867 9.82409 0.939015 10.0001 0.939015C10.1761 0.939015 10.3504 0.973867 10.5129 1.04156C10.6754 1.10925 10.8228 1.20844 10.9468 1.33341C11.0717 1.45737 11.1709 1.60483 11.2386 1.76731C11.3063 1.92979 11.3412 2.10406 11.3412 2.28008C11.3412 2.4561 11.3063 2.63037 11.2386 2.79285C11.1709 2.95533 11.0717 3.1028 10.9468 3.22675L6.94678 7.28008ZM2.94678 8.72008L6.00011 11.7867L9.05344 8.72008C9.17739 8.59511 9.32486 8.49592 9.48734 8.42823C9.64982 8.36053 9.82409 8.32568 10.0001 8.32568C10.1761 8.32568 10.3504 8.36053 10.5129 8.42823C10.6754 8.49592 10.8228 8.59511 10.9468 8.72008C11.0717 8.84403 11.1709 8.9915 11.2386 9.15398C11.3063 9.31646 11.3412 9.49073 11.3412 9.66675C11.3412 9.84276 11.3063 10.017 11.2386 10.1795C11.1709 10.342 11.0717 10.4895 10.9468 10.6134L6.94678 14.6134C6.82283 14.7384 6.67536 14.8376 6.51288 14.9053C6.3504 14.973 6.17613 15.0078 6.00011 15.0078C5.82409 15.0078 5.64982 14.973 5.48734 14.9053C5.32486 14.8376 5.17739 14.7384 5.05344 14.6134L1.05344 10.6134C0.802372 10.3623 0.661321 10.0218 0.661321 9.66675C0.661321 9.31168 0.802372 8.97115 1.05344 8.72008C1.30452 8.46901 1.64504 8.32796 2.00011 8.32796C2.35518 8.32796 2.69571 8.46901 2.94678 8.72008Z" fill="#998E8E"/>
</svg>
