<svg fill="none" height="16" viewBox="0 0 12 16" width="12" xmlns="http://www.w3.org/2000/svg">
    <path
        d="M6.94678 8.71992C6.82283 8.59495 6.67536 8.49576 6.51288 8.42806C6.3504 8.36037 6.17613 8.32552 6.00011 8.32552C5.82409 8.32552 5.64982 8.36037 5.48734 8.42806C5.32486 8.49576 5.17739 8.59495 5.05344 8.71992L1.05344 12.7199C0.795299 12.971 0.647466 13.3143 0.642465 13.6744C0.637464 14.0345 0.775706 14.3818 1.02678 14.6399C1.27785 14.8981 1.62118 15.0459 1.98125 15.0509C2.34132 15.0559 2.68863 14.9177 2.94678 14.6666L6.00011 11.5466L9.05344 14.6666C9.17739 14.7916 9.32486 14.8907 9.48734 14.9584C9.64982 15.0261 9.82409 15.061 10.0001 15.061C10.1761 15.061 10.3504 15.0261 10.5129 14.9584C10.6754 14.8907 10.8228 14.7916 10.9468 14.6666C11.0717 14.5426 11.1709 14.3952 11.2386 14.2327C11.3063 14.0702 11.3412 13.8959 11.3412 13.7199C11.3412 13.5439 11.3063 13.3696 11.2386 13.2071C11.1709 13.0447 11.0717 12.8972 10.9468 12.7733L6.94678 8.71992ZM2.94678 7.27992L6.00011 4.21325L9.05344 7.27992C9.17739 7.40489 9.32486 7.50408 9.48734 7.57177C9.64982 7.63947 9.82409 7.67432 10.0001 7.67432C10.1761 7.67432 10.3504 7.63947 10.5129 7.57177C10.6754 7.50408 10.8228 7.40489 10.9468 7.27992C11.0717 7.15597 11.1709 7.0085 11.2386 6.84602C11.3063 6.68354 11.3412 6.50927 11.3412 6.33325C11.3412 6.15724 11.3063 5.98296 11.2386 5.82048C11.1709 5.658 11.0717 5.51054 10.9468 5.38659L6.94678 1.38659C6.82283 1.26161 6.67536 1.16242 6.51288 1.09473C6.3504 1.02704 6.17613 0.992188 6.00011 0.992188C5.82409 0.992188 5.64982 1.02704 5.48734 1.09473C5.32486 1.16242 5.17739 1.26161 5.05344 1.38659L1.05344 5.38659C0.802372 5.63766 0.661321 5.97818 0.661321 6.33325C0.661321 6.68832 0.802372 7.02885 1.05344 7.27992C1.30452 7.53099 1.64504 7.67204 2.00011 7.67204C2.35518 7.67204 2.69571 7.53099 2.94678 7.27992Z"
        fill="#998E8E" />
</svg>
