<svg width="28" height="14" viewBox="0 0 28 14" fill="none" xmlns="http://www.w3.org/2000/svg">
<path d="M19.1108 8.51611V10.2932C19.1108 11.7904 17.9132 12.7387 16.6725 12.7669C15.9249 12.7838 15.1617 12.4666 14.6354 11.7338C14.3338 11.3138 14.1716 10.81 14.1717 10.2929C14.1717 7.87309 14.1717 5.77234 14.1717 3.82733C14.1717 3.50717 14.0989 3.1915 13.9586 2.90372L13.9153 2.81482C12.792 0.510572 9.29507 1.31677 9.29507 3.90304C9.29514 9.30286 9.29514 5.85898 9.29514 10.4093C9.29514 12.5965 6.6379 13.6771 5.11103 12.1111C4.66707 11.6557 4.41856 11.0448 4.41856 10.4089V3.73894C4.41856 1.93711 2.63616 0.874187 1.13751 1.39843" stroke="#3CB4E5" stroke-width="2" stroke-miterlimit="10" stroke-linecap="round" stroke-linejoin="round"/>
<path d="M19.1117 8.63097C19.1117 4.08069 19.1117 9.30281 19.1116 3.903C19.1116 1.31672 22.6085 0.510525 23.7318 2.81477L23.7752 2.90368C23.9154 3.19146 23.9883 3.50712 23.9883 3.82729C23.9883 5.77229 23.9883 7.87304 23.9882 10.2929C23.9882 10.8099 24.1504 11.3138 24.452 11.7337C24.9782 12.4665 25.7415 12.7838 26.4891 12.7668C26.6612 12.7629 26.8325 12.7413 26.9999 12.703" stroke="#3CB4E5" stroke-width="2" stroke-miterlimit="10" stroke-linecap="round" stroke-linejoin="round"/>
</svg>
