<svg fill="none" height="104" viewBox="0 0 122 104" width="122" xmlns="http://www.w3.org/2000/svg">
<path d="M0 1.74L1.0835 1.40395L2.29914 1.03947L2.69555 0.931465C3.01267 0.850468 3.3298 0.769467 3.66013 0.715469C3.81168 0.668668 3.9662 0.632594 4.1226 0.607483C4.50579 0.526486 4.87577 0.472489 5.27218 0.404991C5.89321 0.283496 6.59352 0.202492 7.1617 0.134995C8.11307 0.0539976 9.06444 0 10.0422 0H10.3858C11.3372 0 12.315 -2.98023e-07 13.2399 0.134995C13.9006 0.134995 14.5612 0.283496 15.1559 0.404991L16.3054 0.607483L16.7547 0.715469C17.0982 0.715469 17.4154 0.850468 17.7325 0.931465L18.1157 1.03947L19.3445 1.40395C19.8202 1.56594 20.2959 1.70094 20.7584 1.88993C21.6576 2.22155 22.5397 2.60003 23.4011 3.02388L24.8281 3.73936C29.6242 6.40778 33.628 10.3472 36.4182 15.1434C39.2085 19.9397 40.6821 25.4154 40.6843 30.9948V72.3842V72.8162C40.6678 74.6937 41.1717 76.5377 42.1378 78.135C42.398 78.6142 42.7033 79.0663 43.0495 79.4849C43.2113 79.6958 43.3879 79.8943 43.578 80.0789C44.5166 81.0765 45.6433 81.8695 46.8901 82.41C48.1368 82.9506 49.4778 83.2276 50.8322 83.2243C51.1623 83.2449 51.4932 83.2449 51.8232 83.2243C52.1932 83.2243 52.5632 83.1298 52.9067 83.0623C54.8597 82.6847 56.6505 81.6992 58.0336 80.2409C58.961 79.2969 59.6934 78.1722 60.1874 76.9335C60.4685 76.3104 60.6684 75.6524 60.782 74.9761C60.9184 74.2736 60.9892 73.5594 60.9934 72.8432V30.9948C60.9855 26.6246 61.8874 22.3027 63.6392 18.3158C65.3911 14.329 67.9529 10.7683 71.1546 7.8702C72.9382 6.2981 74.8728 4.91413 76.9288 3.73936C78.2502 3.10489 79.5715 2.38941 80.959 1.88993C81.4214 1.70094 81.8971 1.56594 82.3728 1.40395L83.5884 1.03947L83.9848 0.931465C84.302 0.850468 84.6191 0.769467 84.9626 0.715469C85.1097 0.668552 85.2598 0.632471 85.4119 0.607483C85.7951 0.526486 86.1651 0.472489 86.5615 0.404991C87.1825 0.283496 87.8828 0.202492 88.451 0.134995C89.4024 0.0539976 90.3537 0 91.3315 0H91.6751C92.6264 0 93.6042 -2.98023e-07 94.5292 0.134995C95.1899 0.134995 95.8505 0.283496 96.4451 0.404991L97.5947 0.607483L98.0572 0.715469C98.3875 0.715469 98.7047 0.850468 99.0218 0.931465C99.152 0.957585 99.2801 0.993691 99.405 1.03947L100.634 1.40395C101.11 1.56594 101.585 1.70094 102.048 1.88993C102.951 2.21211 103.833 2.5908 104.69 3.02388C105.19 3.22944 105.675 3.46846 106.144 3.73936C110.881 6.37455 114.847 10.2505 117.634 14.9692C120.42 19.6879 121.927 25.0793 122 30.5898V102.313C120.953 101.95 119.925 101.53 118.921 101.057C113.923 98.6471 109.674 94.873 106.643 90.1516C103.612 85.4301 101.916 79.9448 101.744 74.3011V31.1838C101.744 30.9003 101.744 30.6438 101.744 30.3468C101.744 30.0498 101.744 29.9688 101.664 29.7799C101.585 29.5909 101.664 29.3209 101.546 29.0779C101.5 28.8031 101.434 28.5323 101.347 28.2679C101.326 28.1427 101.29 28.0205 101.242 27.9034C101.149 27.6334 101.07 27.3905 100.951 27.1205C100.829 26.8145 100.688 26.5169 100.528 26.2295C100.376 25.9367 100.209 25.6527 100.026 25.379C99.9525 25.2902 99.8862 25.1954 99.8278 25.0955L99.6164 24.812C99.4271 24.5415 99.2149 24.2885 98.9821 24.0561L98.7839 23.8536C98.7839 23.8536 98.7047 23.7726 98.6914 23.7321L98.5461 23.6106C98.5461 23.6106 98.5461 23.5296 98.4536 23.5026C98.3611 23.4756 98.3743 23.4216 98.3082 23.3811L98.1629 23.2731C98.1128 23.2248 98.0598 23.1797 98.0043 23.1381C97.4942 22.7241 96.9454 22.3624 96.3659 22.0582L95.7977 21.7882C95.7337 21.7669 95.6718 21.7398 95.6127 21.7072C95.5512 21.6698 95.4843 21.6425 95.4145 21.6262L95.0974 21.5047L94.7406 21.3832L94.4763 21.3022C93.9638 21.1606 93.4431 21.0524 92.9171 20.9782H92.7718C92.6842 20.9649 92.5951 20.9649 92.5075 20.9782H91.7147H90.9483C90.8564 20.9641 90.7628 20.9641 90.6709 20.9782H90.5255C90.0035 21.0497 89.4869 21.1579 88.9795 21.3022C88.8889 21.3197 88.8003 21.3468 88.7153 21.3832C88.5895 21.4155 88.4659 21.4561 88.3453 21.5047C88.1826 21.5616 88.0237 21.6292 87.8696 21.7072C87.7998 21.7235 87.7329 21.7508 87.6714 21.7882C87.4468 21.8692 87.275 21.9772 87.0636 22.0582C86.5003 22.369 85.9653 22.4923 85.4647 22.9C85.4143 22.9611 85.3566 22.9535 85.293 23L85 23.2L84.5662 23.5971L84.4341 23.7186C84.3924 23.7527 84.3567 23.7938 84.3284 23.8401L84.2491 23.9211C84.2491 23.9211 84.2491 23.9886 84.1698 24.0021C83.9334 24.231 83.7209 24.4844 83.5356 24.758C83.4714 24.8609 83.396 24.956 83.311 25.0415C83.2571 25.1444 83.1905 25.2397 83.1127 25.325C82.9387 25.5992 82.7799 25.8831 82.6371 26.1755C82.4734 26.4627 82.3277 26.7603 82.201 27.0665C82.1085 27.3364 82.0028 27.5929 81.9235 27.8494C81.8443 28.1059 81.8443 28.0654 81.8046 28.2139C81.7182 28.4783 81.6519 28.7491 81.6064 29.0239C81.6064 29.2669 81.5271 29.5099 81.5007 29.7259C81.4623 29.9129 81.4358 30.1023 81.4214 30.2928C81.4214 30.5898 81.4214 30.8463 81.4214 31.1298V72.8027C81.4214 72.5597 81.4214 72.3167 81.4214 72.0872V73.2482C81.4346 73.4505 81.4346 73.6534 81.4214 73.8557C81.3353 78.1147 80.3787 82.3083 78.6129 86.1674C76.8471 90.0265 74.3112 93.4659 71.1678 96.2648C69.0338 98.1864 66.645 99.7906 64.0721 101.03C60.2049 102.913 55.9874 103.925 51.7043 104H49.9469C42.1484 103.848 34.711 100.614 29.1968 94.9779C23.6826 89.3419 20.5207 81.7421 20.3752 73.7747V31.1838C20.3752 30.9003 20.3752 30.6438 20.3752 30.3468C20.3673 30.1556 20.3407 29.9657 20.2959 29.7799C20.2798 29.5423 20.24 29.3071 20.177 29.0779C20.1315 28.8031 20.0652 28.5323 19.9788 28.2679C19.9671 28.1422 19.9359 28.0191 19.8863 27.9034C19.7806 27.6334 19.7013 27.3905 19.5824 27.1205C19.4647 26.8148 19.3279 26.5172 19.1728 26.2295C19.021 25.9367 18.8534 25.6527 18.6706 25.379C18.5972 25.2902 18.5309 25.1954 18.4724 25.0955L18.261 24.812C18.071 24.5381 17.8541 24.2848 17.6136 24.0561L17.4154 23.8536C17.4154 23.8536 17.3361 23.7726 17.3097 23.7321L17.1775 23.6106L17.0718 23.5026L16.9397 23.3811L16.8075 23.2731C16.752 23.2315 16.6991 23.1864 16.649 23.1381C16.1458 22.7209 15.601 22.359 15.0237 22.0582L14.4423 21.7882L14.2706 21.7072L14.0723 21.6262L13.7552 21.5047L13.3985 21.3832L13.1342 21.3022C12.6175 21.1592 12.0923 21.051 11.5618 20.9782H11.4297C11.342 20.9649 11.253 20.9649 11.1654 20.9782H10.3726H9.59298C9.50091 20.9654 9.40757 20.9654 9.3155 20.9782H9.18336C8.66113 21.0484 8.14448 21.1566 7.63739 21.3022C7.54677 21.3197 7.4582 21.3468 7.37312 21.3832C7.24256 21.4137 7.11446 21.4543 6.98993 21.5047C6.77119 21.5398 6.55492 21.5894 6.34247 21.6532H6.14427C5.93285 21.7342 5.74786 21.8422 5.54966 21.9232C4.99318 22.2384 4.46287 22.5996 3.96404 23.0031C3.90914 23.0647 3.847 23.1191 3.77905 23.1651L3.66013 23.2731L3.44872 23.5026C3.39515 23.5362 3.34626 23.5771 3.30337 23.6241C3.26624 23.6592 3.235 23.7002 3.21087 23.7456L3.13159 23.8266C3.13159 23.8266 3.13159 23.8941 3.05231 23.9076C2.81592 24.1365 2.60337 24.3899 2.41807 24.6636C2.35387 24.7664 2.27852 24.8615 2.19344 24.947C2.135 25.0469 2.06871 25.1417 1.99523 25.2305C1.73405 25.5362 1.50795 25.8713 1.32135 26.2295C1.14651 26.4938 0.987655 26.7688 0.845662 27.053C0.739955 27.323 0.64746 27.5794 0.568179 27.8359C0.488899 28.0924 0.488899 28.0519 0.449258 28.2004C0.362829 28.4648 0.296564 28.7356 0.251056 29.0104C0.251056 29.2534 0.171775 29.4964 0.145348 29.7124C0.118921 29.9284 0.0143858 30.1269 0 30.3175C0 30.6144 0 30.8709 0 31.1544" fill="#DFDFDF"/>
<path d="M10.1744 0.0272064C15.7935 0.0272064 20.3487 4.68102 20.3487 10.4218C20.3487 16.1626 15.7935 20.8164 10.1744 20.8164C4.55522 20.8164 0 16.1626 0 10.4218C0 4.68102 4.55522 0.0272064 10.1744 0.0272064Z" fill="#FFE816"/>
</svg>
