<svg fill="none" height="104" viewBox="0 0 122 104" width="122" xmlns="http://www.w3.org/2000/svg">
<path d="M55.6282 103.595L56.7954 103.392L57.2464 103.284C57.5913 103.284 57.9096 103.149 58.2279 103.068L58.5993 102.96L59.8461 102.596C60.3236 102.434 60.8011 102.299 61.2521 102.11C62.1591 101.79 63.0452 101.411 63.9048 100.976C64.4061 100.77 64.8935 100.531 65.3638 100.26C70.1782 97.5912 74.1971 93.6511 76.998 88.8541C79.7989 84.0572 81.2782 78.5806 81.2803 73.0002V31.1452C81.2803 30.8886 81.2803 30.6186 81.2803 30.3621C81.4039 28.7569 81.8945 27.2034 82.7128 25.8255C82.9789 25.3493 83.2851 24.8975 83.628 24.4753V24.4753C83.7951 24.2643 83.9768 24.0658 84.1718 23.8813C85.1126 22.8817 86.2433 22.0873 87.4951 21.5465C88.7469 21.0057 90.0937 20.7297 91.4536 20.7354C91.7849 20.7157 92.1171 20.7157 92.4484 20.7354C92.8065 20.7354 93.1779 20.8299 93.5228 20.8974C95.4831 21.275 97.2807 22.2607 98.6691 23.7193C99.597 24.702 100.323 25.8633 100.805 27.1352C101.077 27.7434 101.277 28.3825 101.401 29.0389C101.538 29.7415 101.609 30.4558 101.614 31.1722V73.0272C101.609 77.3976 102.516 81.7191 104.274 85.7061C106.033 89.6931 108.602 93.2547 111.813 96.1556C113.607 97.7241 115.548 99.108 117.61 100.287C118.936 100.922 120.262 101.637 121.668 102.137L122 102.258V30.4971C122 30.3891 122 30.2675 122 30.1595C121.847 22.2007 118.668 14.6124 113.132 8.98986C107.596 3.36734 100.135 0.148615 92.3158 0.0103669C92.1436 -0.00345562 91.9706 -0.00345562 91.7985 0.0103669H91.0557C90.8835 -0.00307505 90.7106 -0.00307505 90.5384 0.0103669C82.7937 0.137982 75.3941 3.29365 69.8728 8.8235C64.3515 14.3534 61.1317 21.8335 60.8807 29.714V72.8382C60.8807 73.1218 60.8807 73.3783 60.8807 73.6753C60.8662 73.8659 60.8396 74.0553 60.8011 74.2424C60.785 74.48 60.745 74.7152 60.6817 74.9445C60.636 75.2193 60.5695 75.4902 60.4828 75.7546C60.471 75.8803 60.4397 76.0034 60.3899 76.1191C60.2838 76.3892 60.2042 76.6322 60.0848 76.9022C59.9668 77.208 59.8294 77.5056 59.6737 77.7933C59.5214 78.0862 59.3531 78.3702 59.1696 78.6439C59.0959 78.7328 59.0293 78.8276 58.9707 78.9275L58.7585 79.211C58.5639 79.4818 58.3464 79.7348 58.1085 79.9671L58.029 80.0481L57.9096 80.1696C57.9096 80.1696 57.83 80.2506 57.8035 80.2911L57.6708 80.4126L57.5647 80.5207L57.4321 80.6422H57.3658L57.2331 80.7502C57.1583 80.8333 57.0916 80.9238 57.0342 81.0202V81.0202C56.529 81.4374 55.9822 81.7995 55.4027 82.1003L54.8191 82.3704L54.6467 82.4514L54.3814 82.5054L54.0631 82.6269L53.705 82.7484L53.4397 82.8294C52.9211 82.9724 52.3938 83.0807 51.8613 83.1535H51.7287C51.6407 83.1668 51.5513 83.1668 51.4634 83.1535H50.6676C50.4023 83.1535 50.1503 83.1535 49.885 83.1535C49.7926 83.1663 49.6989 83.1663 49.6065 83.1535H49.4738C48.9455 83.082 48.4225 82.9737 47.9087 82.8294C47.8224 82.8105 47.738 82.7834 47.6567 82.7484C47.5257 82.7179 47.3971 82.6773 47.2721 82.6269C47.1097 82.5676 46.9503 82.5 46.7946 82.4244L46.5956 82.3704C46.3834 82.2894 46.1977 82.1814 45.9987 82.1003C45.431 81.7864 44.8898 81.4251 44.3806 81.0202C44.3254 80.9586 44.2631 80.9042 44.1949 80.8582L44.0755 80.7502L43.7704 80.4261C43.7167 80.3925 43.6676 80.3516 43.6245 80.3046C43.5873 80.2696 43.5559 80.2285 43.5317 80.1831V80.1831L43.4521 80.1021C43.4521 80.1021 43.4521 80.0346 43.3725 80.0211C43.1352 79.7921 42.9219 79.5387 42.7359 79.265C42.6681 79.1647 42.5927 79.0699 42.5104 78.9815C42.4517 78.8816 42.3852 78.7868 42.3114 78.6979C42.1269 78.43 41.967 78.1452 41.8339 77.8473C41.6696 77.5601 41.5234 77.2624 41.3962 76.9562C41.2901 76.6862 41.1973 76.4297 41.1177 76.1731C41.0381 75.9166 41.0381 75.9571 40.9983 75.8086C40.9115 75.5442 40.845 75.2733 40.7993 74.9985C40.7993 74.7555 40.7198 74.5124 40.6932 74.2964C40.6547 74.1093 40.6281 73.9199 40.6137 73.7293C40.6137 73.4323 40.6137 73.1758 40.6137 72.8922V31.2127C40.6137 31.4557 40.6137 31.6987 40.6137 31.9282V30.7671C40.6269 30.5648 40.6269 30.3618 40.6137 30.1595V30.1595C40.4589 22.1639 37.2508 14.544 31.6696 8.91562C26.0884 3.28726 18.573 0.0930699 10.7172 0.0103669C10.5494 -0.00342415 10.3809 -0.00342415 10.2131 0.0103669V20.8029H10.8365C11.1947 20.8029 11.5793 20.8974 11.9109 20.9649C13.8727 21.3383 15.6715 22.3246 17.0572 23.7868C17.9921 24.7304 18.7317 25.8552 19.2325 27.0947C19.5308 27.7127 19.7535 28.3657 19.8957 29.0389C20.0435 29.7401 20.119 30.455 20.1212 31.1722V73.0272C20.1095 77.387 21.0054 81.6999 22.7497 85.6817C24.4941 89.6635 27.0474 93.2239 30.2414 96.1286C32.0375 97.6998 33.9837 99.0839 36.0509 100.26C37.3773 100.895 38.7037 101.61 40.0964 102.11C40.5606 102.299 41.0381 102.434 41.5156 102.596L42.7226 102.96L43.1338 103.068C43.4521 103.149 43.7704 103.23 44.102 103.284C44.2541 103.331 44.4093 103.367 44.5663 103.392C44.9376 103.473 45.3223 103.541 45.7202 103.595C46.3436 103.716 47.0466 103.797 47.6169 103.865C48.5719 103.946 49.5269 104 50.5084 104H50.8533C51.8083 104 52.7765 104 53.7182 103.865C54.3814 103.797 54.9916 103.716 55.6282 103.595Z" fill="#DFDFDF"/>
<path d="M55.6282 103.595L56.7954 103.392L57.2464 103.284C57.5913 103.284 57.9096 103.149 58.2279 103.068L58.5993 102.96L59.8461 102.596C60.3236 102.434 60.8011 102.299 61.2521 102.11C62.1591 101.79 63.0452 101.411 63.9048 100.976C64.4061 100.77 64.8935 100.531 65.3638 100.26C70.1782 97.5912 74.1971 93.6511 76.998 88.8541C79.7989 84.0572 81.2782 78.5806 81.2803 73.0002V31.1452C81.2803 30.8886 81.2803 30.6186 81.2803 30.3621C81.4039 28.7569 81.8945 27.2034 82.7128 25.8255C82.9789 25.3493 83.2851 24.8975 83.628 24.4753V24.4753C83.7951 24.2643 83.9768 24.0658 84.1718 23.8813C85.1126 22.8817 86.2433 22.0873 87.4951 21.5465C88.7469 21.0057 90.0937 20.7297 91.4536 20.7354C91.7849 20.7157 92.1171 20.7157 92.4484 20.7354C92.8065 20.7354 93.1779 20.8299 93.5228 20.8974C95.4831 21.275 97.2807 22.2607 98.6691 23.7193C99.597 24.702 100.323 25.8633 100.805 27.1352C101.077 27.7434 101.277 28.3825 101.401 29.0389C101.538 29.7415 101.609 30.4558 101.614 31.1722V73.0272C101.609 77.3976 102.516 81.7191 104.274 85.7061C106.033 89.6931 108.602 93.2547 111.813 96.1556C113.607 97.7241 115.548 99.108 117.61 100.287C118.936 100.922 120.262 101.637 121.668 102.137L122 102.258V30.4971C122 30.3891 122 30.2675 122 30.1595C121.847 22.2007 118.668 14.6124 113.132 8.98986C107.596 3.36734 100.135 0.148615 92.3158 0.0103669C92.1436 -0.00345562 91.9706 -0.00345562 91.7985 0.0103669H91.0557C90.8835 -0.00307505 90.7106 -0.00307505 90.5384 0.0103669C82.7937 0.137982 75.3941 3.29365 69.8728 8.8235C64.3515 14.3534 61.1317 21.8335 60.8807 29.714V72.8382C60.8807 73.1218 60.8807 73.3783 60.8807 73.6753C60.8662 73.8659 60.8396 74.0553 60.8011 74.2424C60.785 74.48 60.745 74.7152 60.6817 74.9445C60.636 75.2193 60.5695 75.4902 60.4828 75.7546C60.471 75.8803 60.4397 76.0034 60.3899 76.1191C60.2838 76.3892 60.2042 76.6322 60.0848 76.9022C59.9668 77.208 59.8294 77.5056 59.6737 77.7933C59.5214 78.0862 59.3531 78.3702 59.1696 78.6439C59.0959 78.7328 59.0293 78.8276 58.9707 78.9275L58.7585 79.211C58.5639 79.4818 58.3464 79.7348 58.1085 79.9671L58.029 80.0481L57.9096 80.1696C57.9096 80.1696 57.83 80.2506 57.8035 80.2911L57.6708 80.4126L57.5647 80.5207L57.4321 80.6422H57.3658L57.2331 80.7502C57.1583 80.8333 57.0916 80.9238 57.0342 81.0202V81.0202C56.529 81.4374 55.9822 81.7995 55.4027 82.1003L54.8191 82.3704L54.6467 82.4514L54.3814 82.5054L54.0631 82.6269L53.705 82.7484L53.4397 82.8294C52.9211 82.9724 52.3938 83.0807 51.8613 83.1535H51.7287C51.6407 83.1668 51.5513 83.1668 51.4634 83.1535H50.6676C50.4023 83.1535 50.1503 83.1535 49.885 83.1535C49.7926 83.1663 49.6989 83.1663 49.6065 83.1535H49.4738C48.9455 83.082 48.4225 82.9737 47.9087 82.8294C47.8224 82.8105 47.738 82.7834 47.6567 82.7484C47.5257 82.7179 47.3971 82.6773 47.2721 82.6269C47.1097 82.5676 46.9503 82.5 46.7946 82.4244L46.5956 82.3704C46.3834 82.2894 46.1977 82.1814 45.9987 82.1003C45.431 81.7864 44.8898 81.4251 44.3806 81.0202C44.3254 80.9586 44.2631 80.9042 44.1949 80.8582L44.0755 80.7502L43.7704 80.4261C43.7167 80.3925 43.6676 80.3516 43.6245 80.3046C43.5873 80.2696 43.5559 80.2285 43.5317 80.1831V80.1831L43.4521 80.1021C43.4521 80.1021 43.4521 80.0346 43.3725 80.0211C43.1352 79.7921 42.9219 79.5387 42.7359 79.265C42.6681 79.1647 42.5927 79.0699 42.5104 78.9815C42.4517 78.8816 42.3852 78.7868 42.3114 78.6979C42.1269 78.43 41.967 78.1452 41.8339 77.8473C41.6696 77.5601 41.5234 77.2624 41.3962 76.9562C41.2901 76.6862 41.1973 76.4297 41.1177 76.1731C41.0381 75.9166 41.0381 75.9571 40.9983 75.8086C40.9115 75.5442 40.845 75.2733 40.7993 74.9985C40.7993 74.7555 40.7198 74.5124 40.6932 74.2964C40.6547 74.1093 40.6281 73.9199 40.6137 73.7293C40.6137 73.4323 40.6137 73.1758 40.6137 72.8922V31.2127C40.6137 31.4557 40.6137 31.6987 40.6137 31.9282V30.7671C40.6269 30.5648 40.6269 30.3618 40.6137 30.1595V30.1595C40.4589 22.1639 37.2508 14.544 31.6696 8.91562C26.0884 3.28726 18.573 0.0930699 10.7172 0.0103669C10.5494 -0.00342415 10.3809 -0.00342415 10.2131 0.0103669V20.8029H10.8365C11.1947 20.8029 11.5793 20.8974 11.9109 20.9649C13.8727 21.3383 15.6715 22.3246 17.0572 23.7868C17.9921 24.7304 18.7317 25.8552 19.2325 27.0947C19.5308 27.7127 19.7535 28.3657 19.8957 29.0389C20.0435 29.7401 20.119 30.455 20.1212 31.1722V73.0272C20.1095 77.387 21.0054 81.6999 22.7497 85.6817C24.4941 89.6635 27.0474 93.2239 30.2414 96.1286C32.0375 97.6998 33.9837 99.0839 36.0509 100.26C37.3773 100.895 38.7037 101.61 40.0964 102.11C40.5606 102.299 41.0381 102.434 41.5156 102.596L42.7226 102.96L43.1338 103.068C43.4521 103.149 43.7704 103.23 44.102 103.284C44.2541 103.331 44.4093 103.367 44.5663 103.392C44.9376 103.473 45.3223 103.541 45.7202 103.595C46.3436 103.716 47.0466 103.797 47.6169 103.865C48.5719 103.946 49.5269 104 50.5084 104H50.8533C51.8083 104 52.7765 104 53.7182 103.865C54.3814 103.797 54.9916 103.716 55.6282 103.595Z" fill="#DFDFDF"/>
<path d="M10.2131 20.8033C15.8536 20.8033 20.4262 16.1487 20.4262 10.407C20.4262 4.66531 15.8536 0.0107422 10.2131 0.0107422C4.57256 0.0107422 0 4.66531 0 10.407C0 16.1487 4.57256 20.8033 10.2131 20.8033Z" fill="#E53E51"/>
</svg>
