<svg fill="none" height="105" viewBox="0 0 125 105" width="125" xmlns="http://www.w3.org/2000/svg">
<path d="M0.0722656 102.207L1.17837 102.598L2.41937 102.963L2.82405 103.07C3.14779 103.151 3.47153 103.232 3.80876 103.286C3.96347 103.333 4.12121 103.369 4.28088 103.394C4.67206 103.475 5.04976 103.529 5.45443 103.597C6.08842 103.718 6.80334 103.799 7.38338 103.867C8.35459 103.947 9.32581 104.001 10.324 104.001H10.6747C11.6459 104.001 12.6441 104.001 13.5884 103.867C14.2628 103.867 14.9373 103.718 15.5443 103.597L16.7179 103.394L17.1765 103.286C17.5272 103.286 17.8509 103.151 18.1747 103.07L18.5659 102.963L19.8204 102.598C20.306 102.436 20.7916 102.301 21.2637 102.112C22.1817 101.781 23.0822 101.403 23.9615 100.979L25.4183 100.264C30.3145 97.597 34.4018 93.6596 37.2502 88.8659C40.0987 84.0721 41.6031 78.5992 41.6053 73.0227V31.6548V31.223C41.5885 29.3465 42.1029 27.5035 43.0891 25.907C43.3547 25.428 43.6665 24.9761 44.0199 24.5578C44.185 24.347 44.3654 24.1486 44.5594 23.9641C45.5176 22.9671 46.6678 22.1745 47.9406 21.6342C49.2133 21.0939 50.5823 20.817 51.965 20.8203C52.3019 20.7998 52.6397 20.7998 52.9766 20.8203C53.3543 20.8203 53.732 20.9148 54.0828 20.9822C56.0764 21.3596 57.9046 22.3446 59.3165 23.8022C60.2633 24.7457 61.011 25.8698 61.5153 27.1078C61.8023 27.7306 62.0064 28.3884 62.1223 29.0642C62.2615 29.7664 62.3338 30.4802 62.3381 31.1961V73.0227C62.33 77.3906 63.2507 81.7103 65.0391 85.6951C66.8276 89.6799 69.4428 93.2387 72.7112 96.1353C74.5321 97.7066 76.5071 99.0899 78.606 100.264C79.9549 100.898 81.3038 101.613 82.7202 102.112C83.1923 102.301 83.6779 102.436 84.1635 102.598L85.4045 102.963L85.8092 103.07C86.1329 103.151 86.4567 103.232 86.8074 103.286C86.9575 103.333 87.1108 103.369 87.266 103.394C87.6572 103.475 88.0349 103.529 88.4396 103.597C89.0736 103.718 89.7885 103.799 90.3685 103.867C91.3397 103.947 92.311 104.001 93.3092 104.001H93.6599C94.6311 104.001 95.6293 104.001 96.5735 103.867C97.248 103.867 97.9224 103.718 98.5294 103.597L99.703 103.394L100.175 103.286C100.512 103.286 100.836 103.151 101.16 103.07C101.293 103.044 101.424 103.008 101.551 102.963L102.806 102.598C103.291 102.436 103.777 102.301 104.249 102.112C105.171 101.79 106.072 101.412 106.947 100.979C107.456 100.774 107.952 100.535 108.43 100.264C113.267 97.6302 117.315 93.7563 120.16 89.04C123.005 84.3237 124.543 78.9351 124.617 73.4275V1.74198C123.549 2.10483 122.499 2.52367 121.474 2.99678C116.372 5.40558 112.034 9.17764 108.94 13.8966C105.845 18.6157 104.115 24.0981 103.939 29.7389V72.8338C103.939 73.1172 103.939 73.3735 103.939 73.6704C103.939 73.9672 103.939 74.0481 103.858 74.237C103.777 74.4259 103.858 74.6958 103.736 74.9387C103.69 75.2133 103.622 75.484 103.534 75.7482C103.512 75.8733 103.476 75.9955 103.426 76.1125C103.332 76.3823 103.251 76.6252 103.129 76.8951C103.005 77.2008 102.86 77.4983 102.698 77.7856C102.543 78.0782 102.372 78.362 102.185 78.6356C102.11 78.7244 102.042 78.8192 101.983 78.9189L101.767 79.2023C101.574 79.4727 101.357 79.7255 101.119 79.9579L100.917 80.1602C100.917 80.1602 100.836 80.2412 100.823 80.2817L100.674 80.4031C100.674 80.4031 100.674 80.4841 100.58 80.511C100.485 80.538 100.499 80.592 100.431 80.6325L100.283 80.7404C100.232 80.7887 100.178 80.8337 100.121 80.8753C99.6003 81.2891 99.0401 81.6507 98.4485 81.9547L97.8685 82.2246C97.8032 82.2458 97.74 82.2729 97.6796 82.3055C97.6168 82.3429 97.5485 82.3702 97.4773 82.3865L97.1536 82.5079L96.7893 82.6294L96.5196 82.7103C95.9964 82.8519 95.4647 82.96 94.9278 83.0341H94.7795C94.69 83.0474 94.5991 83.0474 94.5097 83.0341H93.7003H92.918C92.8241 83.0482 92.7286 83.0482 92.6347 83.0341H92.4863C91.9534 82.9627 91.4261 82.8545 90.9081 82.7103C90.8156 82.6928 90.7252 82.6657 90.6383 82.6294C90.5099 82.597 90.3838 82.5565 90.2606 82.5079C90.0945 82.4511 89.9323 82.3835 89.775 82.3055C89.7038 82.2893 89.6355 82.262 89.5727 82.2246C89.3433 82.1436 89.168 82.0357 88.9522 81.9547C88.3772 81.6441 87.831 81.2828 87.32 80.8753C87.2685 80.8143 87.2096 80.7599 87.1446 80.7134L87.0232 80.6055L86.4027 80.4166L86.2678 80.2952C86.2253 80.261 86.1888 80.22 86.1599 80.1737L86.079 80.0928C86.079 80.0928 86.079 80.0253 85.998 80.0118C85.7567 79.783 85.5397 79.5298 85.3506 79.2562C85.285 79.1535 85.2081 79.0584 85.1212 78.9729C85.0663 78.8701 84.9983 78.7749 84.9189 78.6896C84.7412 78.4156 84.5791 78.1318 84.4333 77.8395C84.2662 77.5525 84.1175 77.255 83.9882 76.949C83.8937 76.6792 83.7858 76.4228 83.7049 76.1665C83.624 75.9101 83.624 75.9506 83.5835 75.8022C83.4953 75.5379 83.4276 75.2673 83.3811 74.9926C83.3811 74.7498 83.3002 74.5069 83.2732 74.291C83.234 74.1041 83.207 73.9148 83.1923 73.7243C83.1923 73.4275 83.1923 73.1711 83.1923 72.8878V31.2365C83.1923 31.4794 83.1923 31.7223 83.1923 31.9516V30.7913C83.2057 30.5891 83.2057 30.3863 83.1923 30.1841C83.1044 25.9273 82.1278 21.7358 80.3252 17.8787C78.5226 14.0216 75.9337 10.5841 72.7247 7.78661C70.5462 5.86604 68.1076 4.26261 65.4811 3.02376C61.5332 1.14231 57.2277 0.130075 52.8552 0.0554199L51.0612 0.0554199C43.0999 0.207602 35.5074 3.43967 29.8782 9.07279C24.249 14.7059 21.0211 22.3018 20.8725 30.2651V72.8338C20.8725 73.1172 20.8725 73.3735 20.8725 73.6704C20.8645 73.8615 20.8373 74.0513 20.7916 74.237C20.7752 74.4744 20.7345 74.7095 20.6702 74.9387C20.6237 75.2133 20.5561 75.484 20.4678 75.7482C20.4559 75.8739 20.424 75.9969 20.3734 76.1125C20.2655 76.3823 20.1846 76.6252 20.0632 76.8951C19.9431 77.2006 19.8034 77.498 19.645 77.7856C19.4901 78.0782 19.319 78.362 19.1324 78.6356C19.0574 78.7244 18.9897 78.8192 18.9301 78.9189L18.7142 79.2023C18.5203 79.4761 18.2988 79.7292 18.0533 79.9579L17.8509 80.1602C17.8509 80.1602 17.77 80.2412 17.743 80.2817L17.6081 80.4031L17.5002 80.511L17.3653 80.6325L17.2304 80.7404C17.1738 80.782 17.1197 80.8271 17.0686 80.8753C16.5548 81.2923 15.9987 81.6541 15.4094 81.9547L14.8159 82.2246L14.6405 82.3055L14.4382 82.3865L14.1145 82.5079L13.7502 82.6294L13.4805 82.7103C12.953 82.8532 12.4168 82.9614 11.8753 83.0341H11.7404C11.6509 83.0474 11.56 83.0474 11.4706 83.0341H10.6612H9.86538C9.77138 83.0469 9.6761 83.0469 9.5821 83.0341H9.44721C8.91408 82.964 8.38666 82.8558 7.86898 82.7103C7.77648 82.6928 7.68606 82.6657 7.5992 82.6294C7.46592 82.5989 7.33515 82.5583 7.20802 82.5079C6.98472 82.4728 6.76394 82.4232 6.54705 82.3595H6.34471C6.12889 82.2786 5.94004 82.1706 5.7377 82.0897C5.16961 81.7746 4.62824 81.4136 4.11901 81.0103C4.06295 80.9487 3.99953 80.8944 3.93016 80.8484L3.80876 80.7404L3.59293 80.511C3.53824 80.4774 3.48833 80.4366 3.44455 80.3896C3.40665 80.3546 3.37475 80.3136 3.35013 80.2682L3.26919 80.1872C3.26919 80.1872 3.26919 80.1198 3.18826 80.1063C2.94693 79.8774 2.72994 79.6242 2.54078 79.3507C2.47525 79.2479 2.39832 79.1529 2.31146 79.0674C2.2518 78.9676 2.18413 78.8728 2.10912 78.784C1.84249 78.4785 1.61167 78.1435 1.42118 77.7856C1.2427 77.5214 1.08053 77.2465 0.93557 76.9625C0.827657 76.6927 0.733233 76.4363 0.652298 76.18C0.571364 75.9236 0.571364 75.9641 0.530896 75.8157C0.442664 75.5514 0.375016 75.2808 0.328559 75.0061C0.328559 74.7633 0.247624 74.5204 0.220646 74.3045C0.181432 74.1176 0.154397 73.9283 0.139711 73.7378C0.139711 73.441 0.139711 73.1846 0.139711 72.9013" fill="#DFDFDF"/>
<path d="M10.4589 103.973C16.1953 103.973 20.8455 99.3218 20.8455 93.584C20.8455 87.8462 16.1953 83.1948 10.4589 83.1948C4.72252 83.1948 0.0722656 87.8462 0.0722656 93.584C0.0722656 99.3218 4.72252 103.973 10.4589 103.973Z" fill="#FFE816"/>
</svg>
