<svg fill="none" height="104" viewBox="0 0 144 104" width="144" xmlns="http://www.w3.org/2000/svg">
<path d="M0 31.1727C0 30.9162 0 30.6461 0 30.3896C0.124593 28.7845 0.619042 27.2309 1.44388 25.8531C1.70715 25.3738 2.01611 24.9216 2.36635 24.5029V24.5029C2.53478 24.2919 2.71796 24.0934 2.91449 23.9089C3.86071 22.9103 4.99812 22.1165 6.25758 21.5757C7.51705 21.0349 8.87226 20.7584 10.2408 20.763C10.5792 20.7429 10.9185 20.7429 11.2569 20.763C11.6179 20.763 11.9922 20.8575 12.3398 20.925C14.3158 21.3026 16.1277 22.2883 17.5271 23.7468C18.465 24.6941 19.2099 25.818 19.7196 27.0547C19.9942 27.6629 20.1962 28.302 20.3212 28.9584C20.4592 29.6611 20.5309 30.3754 20.5351 31.0917V72.9465C20.5305 77.3168 21.4446 81.6382 23.2169 85.6252C24.9892 89.6122 27.5793 93.1738 30.8161 96.0746C32.6208 97.6469 34.5782 99.0311 36.6584 100.206C37.9954 100.841 39.3323 101.556 40.7494 102.056C41.204 102.245 41.6853 102.38 42.1666 102.542L43.3965 102.906L43.7976 103.014C44.1185 103.095 44.4393 103.176 44.7869 103.23C44.9357 103.277 45.0876 103.313 45.2415 103.338C45.6292 103.419 46.0169 103.487 46.418 103.541C47.033 103.662 47.6747 103.743 48.3298 103.811C49.2924 103.892 50.2549 103.946 51.2309 103.946H51.5785C52.5411 103.946 53.5304 103.946 54.4796 103.811C55.1347 103.811 55.8165 103.662 56.4048 103.541C56.7925 103.541 57.1668 103.419 57.5679 103.338L58.0358 103.23C58.3701 103.23 58.6909 103.095 59.0252 103.014L59.3995 102.906L60.6428 102.542C61.1241 102.38 61.6054 102.245 62.0733 102.056C62.9842 101.727 63.8768 101.348 64.7472 100.922L66.1911 100.206C71.0437 97.5372 75.0946 93.5972 77.9178 88.8002C80.7409 84.0033 82.232 78.5267 82.2341 72.9465V31.0917C82.232 30.0473 82.3898 29.0089 82.7021 28.0133C82.9427 27.2271 83.2796 26.4742 83.7048 25.7721C83.9729 25.2959 84.2816 24.8441 84.6272 24.4219V24.4219C84.7957 24.2109 84.9788 24.0124 85.1754 23.8279C86.1236 22.8283 87.2633 22.0339 88.5251 21.4931C89.7869 20.9523 91.1444 20.6763 92.5151 20.682C92.849 20.6623 93.1838 20.6623 93.5178 20.682C93.8787 20.682 94.2665 20.7765 94.6007 20.844C96.5766 21.2216 98.3885 22.2073 99.7879 23.6658C100.726 24.6131 101.471 25.737 101.981 26.9737C102.255 27.5819 102.457 28.221 102.582 28.8774C102.731 29.5786 102.807 30.2935 102.809 31.0107V72.8654C102.802 77.2349 103.714 81.556 105.484 85.543C107.254 89.5301 109.842 93.0921 113.077 95.9936C114.898 97.6148 116.878 99.0443 118.986 100.26C120.323 100.895 121.66 101.61 123.064 102.11C123.518 102.299 124.013 102.434 124.494 102.596L125.711 102.96L126.112 103.068C126.446 103.149 126.767 103.23 127.101 103.284C127.255 103.331 127.411 103.367 127.569 103.392C127.944 103.473 128.331 103.541 128.732 103.595C129.361 103.716 130.069 103.797 130.644 103.865C131.607 103.946 132.569 104 133.559 104H133.692V83.2346C133.425 83.2346 133.171 83.2346 132.904 83.2346C132.81 83.2474 132.716 83.2474 132.623 83.2346H132.489C131.957 83.1631 131.429 83.0549 130.912 82.9106C130.825 82.8917 130.739 82.8646 130.658 82.8296C130.525 82.7991 130.396 82.7584 130.27 82.7081C130.106 82.6488 129.945 82.5812 129.789 82.5055C129.719 82.4868 129.651 82.4596 129.588 82.4245C129.374 82.3435 129.187 82.2355 128.986 82.1545C128.414 81.8405 127.869 81.4792 127.355 81.0744V81.0744C127.3 81.0128 127.237 80.9584 127.168 80.9124L127.008 80.7098L126.794 80.4803C126.74 80.4467 126.69 80.4058 126.647 80.3588C126.605 80.3247 126.568 80.2836 126.54 80.2373V80.2373L126.46 80.1563C126.46 80.1563 126.46 80.0888 126.379 80.0753C126.144 79.8428 125.929 79.5898 125.738 79.3192C125.678 79.216 125.606 79.1208 125.524 79.0357C125.465 78.9358 125.398 78.841 125.323 78.7521C125.137 78.4841 124.976 78.1994 124.842 77.9015C124.676 77.6142 124.529 77.3166 124.401 77.0104C124.294 76.7404 124.2 76.4839 124.12 76.2273C124.07 76.1094 124.03 75.9875 124 75.8628C123.914 75.5968 123.843 75.3264 123.786 75.0527C123.786 74.8097 123.706 74.5666 123.692 74.3506C123.64 74.1661 123.613 73.9754 123.612 73.7836C123.612 73.4865 123.612 73.23 123.612 72.9465V31.2132C123.626 31.4515 123.626 31.6905 123.612 31.9288V30.7677C123.612 30.5651 123.612 30.3626 123.612 30.1601C123.456 22.1575 120.216 14.5317 114.582 8.90233C108.948 3.27291 101.363 0.0833748 93.4376 0.0111436C93.264 -0.0026788 93.0897 -0.0026788 92.9162 0.0111436H92.1675C91.9939 -0.00229823 91.8196 -0.00229823 91.6461 0.0111436C87.3288 0.078774 83.0775 1.09223 79.186 2.98148C74.0531 5.42721 69.703 9.27868 66.6305 14.0978C63.558 18.9168 61.8864 24.51 61.806 30.2411V72.8384C61.806 73.122 61.806 73.3785 61.806 73.6755C61.7914 73.8661 61.7646 74.0555 61.7257 74.2426C61.7257 74.4586 61.6589 74.7017 61.6054 74.9447C61.5594 75.2195 61.4923 75.4904 61.4049 75.7548C61.3829 75.88 61.3471 76.0023 61.2979 76.1193C61.2043 76.3894 61.1241 76.6324 61.0038 76.9024C60.8802 77.2084 60.7373 77.506 60.576 77.7935C60.4156 78.0905 60.2551 78.3741 60.0813 78.6441C60.0026 78.7295 59.9352 78.8248 59.8808 78.9276L59.6535 79.2112C59.466 79.4849 59.251 79.7383 59.0118 79.9673L58.8113 80.1698C58.8113 80.1698 58.731 80.2508 58.7177 80.2913L58.5706 80.4128C58.5706 80.4128 58.5706 80.4938 58.477 80.5208C58.3834 80.5478 58.3968 80.6018 58.33 80.6423L58.1829 80.7503C58.1322 80.7986 58.0786 80.8437 58.0225 80.8854C58.0225 80.8854 58.0225 80.8854 58.0225 80.8854C57.5084 81.3024 56.9528 81.6644 56.3647 81.9655L55.7898 82.2355C55.7251 82.2567 55.6625 82.2839 55.6026 82.3165C55.5404 82.3539 55.4727 82.3813 55.4021 82.3975L55.0812 82.5191L54.7203 82.6406L54.4663 82.7216C53.9429 82.862 53.4116 82.9702 52.8753 83.0456H52.7283C52.6441 83.0588 52.5584 83.0588 52.4742 83.0456H51.6721C51.4047 83.0456 51.1373 83.0456 50.8833 83.0456C50.7902 83.0597 50.6956 83.0597 50.6025 83.0456H50.4555C49.9276 82.9727 49.405 82.8644 48.8913 82.7216L48.6239 82.6406C48.4967 82.6082 48.3716 82.5676 48.2496 82.5191C48.0849 82.4622 47.9242 82.3945 47.7683 82.3165C47.6976 82.3002 47.63 82.2729 47.5677 82.2355C47.3405 82.1545 47.1667 82.0465 46.9661 81.9655C46.3939 81.6515 45.8483 81.2902 45.3351 80.8854H45.2682C45.2172 80.8243 45.1588 80.7698 45.0944 80.7233L44.9741 80.6153L44.7468 80.3858L44.6131 80.2643C44.571 80.2301 44.5348 80.1891 44.5062 80.1428L44.426 80.0618C44.426 80.0618 44.426 79.9943 44.3457 79.9808C44.1102 79.7483 43.8955 79.4953 43.704 79.2247C43.6447 79.1215 43.5728 79.0263 43.4901 78.9411C43.431 78.8413 43.3639 78.7465 43.2896 78.6576C43.1044 78.3866 42.939 78.1023 42.7949 77.807C42.6293 77.5197 42.4819 77.2221 42.3537 76.9159C42.2601 76.6459 42.1532 76.3894 42.073 76.1328C41.9928 75.8763 41.9928 75.9168 41.9527 75.7683C41.8652 75.5039 41.7982 75.233 41.7521 74.9582C41.7521 74.7152 41.6719 74.4721 41.6585 74.2561C41.6067 74.0716 41.5797 73.8808 41.5783 73.689C41.5783 73.392 41.5783 73.1355 41.5783 72.852V31.2132C41.5919 31.4515 41.5919 31.6905 41.5783 31.9288V30.7677C41.5783 30.5651 41.5783 30.3626 41.5783 30.1601C41.447 25.8739 40.4246 21.6635 38.5774 17.8023C36.7302 13.941 34.0995 10.5153 30.8562 7.74753C28.697 5.82566 26.2801 4.22116 23.6769 2.98148C19.7706 1.09384 15.5066 0.0806178 11.1767 0.0111436C11.0165 -0.000631366 10.8556 -0.000631366 10.6954 0.0111436H9.9066C9.72418 -0.00371452 9.54088 -0.00371452 9.35846 0.0111436C6.17053 0.0735043 3.01227 0.643061 0 1.69884" fill="#DFDFDF"/>
<path d="M133.706 103.999C139.391 103.999 144 99.3449 144 93.6032C144 87.8616 139.391 83.207 133.706 83.207C128.021 83.207 123.412 87.8616 123.412 93.6032C123.412 99.3449 128.021 103.999 133.706 103.999Z" fill="#FFE816"/>
<path d="M10.2943 20.8031C15.9797 20.8031 20.5886 16.1486 20.5886 10.4069C20.5886 4.66527 15.9797 0.0107422 10.2943 0.0107422C4.60892 0.0107422 0 4.66527 0 10.4069C0 16.1486 4.60892 20.8031 10.2943 20.8031Z" fill="#FFE816"/>
</svg>
