<svg fill="none" height="104" viewBox="0 0 122 104" width="122" xmlns="http://www.w3.org/2000/svg">
<path d="M0 102.26L1.0835 102.596L2.29914 102.961L2.69555 103.069C3.01267 103.15 3.3298 103.231 3.66013 103.285C3.81168 103.331 3.9662 103.367 4.1226 103.393C4.50579 103.474 4.87577 103.528 5.27218 103.595C5.89321 103.717 6.59352 103.798 7.1617 103.865C8.11307 103.946 9.06444 104 10.0422 104H10.3858C11.3372 104 12.315 104 13.2399 103.865C13.9006 103.865 14.5612 103.717 15.1559 103.595L16.3054 103.393L16.7547 103.285C17.0982 103.285 17.4154 103.15 17.7325 103.069L18.1157 102.961L19.3445 102.596C19.8202 102.434 20.2959 102.299 20.7584 102.11C21.6576 101.778 22.5397 101.4 23.4011 100.976L24.8281 100.261C29.6242 97.5922 33.628 93.6528 36.4182 88.8566C39.2085 84.0603 40.6821 78.5846 40.6843 73.0052V31.6158V31.1838C40.6678 29.3063 41.1717 27.4623 42.1378 25.865C42.398 25.3858 42.7033 24.9337 43.0495 24.5151C43.2113 24.3042 43.3879 24.1057 43.578 23.9211C44.5166 22.9235 45.6433 22.1305 46.8901 21.59C48.1368 21.0494 49.4778 20.7724 50.8322 20.7757C51.1623 20.7551 51.4932 20.7551 51.8232 20.7757C52.1932 20.7757 52.5632 20.8702 52.9067 20.9377C54.8597 21.3153 56.6505 22.3008 58.0336 23.7591C58.961 24.7031 59.6934 25.8278 60.1874 27.0665C60.4685 27.6896 60.6684 28.3476 60.782 29.0239C60.9184 29.7264 60.9892 30.4406 60.9934 31.1568V73.0052C60.9855 77.3754 61.8874 81.6973 63.6392 85.6842C65.3911 89.671 67.9529 93.2317 71.1546 96.1298C72.9382 97.7019 74.8728 99.0859 76.9288 100.261C78.2502 100.895 79.5715 101.611 80.959 102.11C81.4214 102.299 81.8971 102.434 82.3728 102.596L83.5884 102.961L83.9848 103.069C84.302 103.15 84.6191 103.231 84.9626 103.285C85.1097 103.331 85.2598 103.368 85.4119 103.393C85.7951 103.474 86.1651 103.528 86.5615 103.595C87.1825 103.717 87.8828 103.798 88.451 103.865C89.4024 103.946 90.3537 104 91.3315 104H91.6751C92.6264 104 93.6042 104 94.5292 103.865C95.1899 103.865 95.8505 103.717 96.4451 103.595L97.5947 103.393L98.0572 103.285C98.3875 103.285 98.7047 103.15 99.0218 103.069C99.152 103.042 99.2801 103.006 99.405 102.961L100.634 102.596C101.11 102.434 101.585 102.299 102.048 102.11C102.951 101.788 103.833 101.409 104.69 100.976C105.19 100.771 105.675 100.532 106.144 100.261C110.881 97.6254 114.847 93.7495 117.634 89.0308C120.42 84.3121 121.927 78.9207 122 73.4102V1.68744C120.953 2.05047 119.925 2.46953 118.921 2.94289C113.923 5.35294 109.674 9.12696 106.643 13.8484C103.612 18.5699 101.916 24.0552 101.744 29.6989V72.8162C101.744 73.0997 101.744 73.3562 101.744 73.6532C101.744 73.9502 101.744 74.0312 101.664 74.2201C101.585 74.4091 101.664 74.6791 101.546 74.9221C101.5 75.1969 101.434 75.4677 101.347 75.7321C101.326 75.8573 101.29 75.9795 101.242 76.0966C101.149 76.3666 101.07 76.6095 100.951 76.8795C100.829 77.1855 100.688 77.4831 100.528 77.7705C100.376 78.0633 100.209 78.3473 100.026 78.621C99.9525 78.7098 99.8862 78.8046 99.8278 78.9045L99.6164 79.188C99.4271 79.4585 99.2149 79.7115 98.9821 79.9439L98.7839 80.1464C98.7839 80.1464 98.7047 80.2274 98.6914 80.2679L98.5461 80.3894C98.5461 80.3894 98.5461 80.4704 98.4536 80.4974C98.3611 80.5244 98.3743 80.5784 98.3082 80.6189L98.1629 80.7269C98.1128 80.7752 98.0598 80.8203 98.0043 80.8619C97.4942 81.2759 96.9454 81.6376 96.3659 81.9418L95.7977 82.2118C95.7337 82.2331 95.6718 82.2602 95.6127 82.2928C95.5512 82.3302 95.4843 82.3575 95.4145 82.3738L95.0974 82.4953L94.7406 82.6168L94.4763 82.6978C93.9638 82.8394 93.4431 82.9476 92.9171 83.0218H92.7718C92.6842 83.0351 92.5951 83.0351 92.5075 83.0218H91.7147H90.9483C90.8564 83.0359 90.7628 83.0359 90.6709 83.0218H90.5255C90.0035 82.9503 89.4869 82.8421 88.9795 82.6978C88.8889 82.6803 88.8003 82.6532 88.7153 82.6168C88.5895 82.5845 88.4659 82.5439 88.3453 82.4953C88.1826 82.4384 88.0237 82.3708 87.8696 82.2928C87.7998 82.2765 87.7329 82.2492 87.6714 82.2118C87.4468 82.1308 87.275 82.0228 87.0636 81.9418C86.5003 81.631 85.9653 81.5077 85.4647 81.1C85.4143 81.0389 85.3566 81.0465 85.293 81L85 80.8L84.5662 80.4029L84.4341 80.2814C84.3924 80.2473 84.3567 80.2062 84.3284 80.1599L84.2491 80.0789C84.2491 80.0789 84.2491 80.0114 84.1698 79.9979C83.9334 79.769 83.7209 79.5156 83.5356 79.242C83.4714 79.1391 83.396 79.044 83.311 78.9585C83.2571 78.8556 83.1905 78.7603 83.1127 78.675C82.9387 78.4008 82.7799 78.1169 82.6371 77.8245C82.4734 77.5373 82.3277 77.2397 82.201 76.9335C82.1085 76.6636 82.0028 76.4071 81.9235 76.1506C81.8443 75.8941 81.8443 75.9346 81.8046 75.7861C81.7182 75.5217 81.6519 75.2509 81.6064 74.9761C81.6064 74.7331 81.5271 74.4901 81.5007 74.2741C81.4623 74.0871 81.4358 73.8977 81.4214 73.7072C81.4214 73.4102 81.4214 73.1537 81.4214 72.8702V31.1973C81.4214 31.4403 81.4214 31.6833 81.4214 31.9128V30.7518C81.4346 30.5495 81.4346 30.3466 81.4214 30.1443C81.3353 25.8853 80.3787 21.6917 78.6129 17.8326C76.8471 13.9735 74.3112 10.5341 71.1678 7.7352C69.0338 5.81363 66.645 4.20938 64.0721 2.96989C60.2049 1.08745 55.9874 0.074694 51.7043 0H49.9469C42.1484 0.152262 34.711 3.386 29.1968 9.02206C23.6826 14.6581 20.5207 22.2579 20.3752 30.2253V72.8162C20.3752 73.0997 20.3752 73.3562 20.3752 73.6532C20.3673 73.8444 20.3407 74.0343 20.2959 74.2201C20.2798 74.4577 20.24 74.6929 20.177 74.9221C20.1315 75.1969 20.0652 75.4677 19.9788 75.7321C19.9671 75.8578 19.9359 75.9809 19.8863 76.0966C19.7806 76.3666 19.7013 76.6095 19.5824 76.8795C19.4647 77.1852 19.3279 77.4828 19.1728 77.7705C19.021 78.0633 18.8534 78.3473 18.6706 78.621C18.5972 78.7098 18.5309 78.8046 18.4724 78.9045L18.261 79.188C18.071 79.4619 17.8541 79.7152 17.6136 79.9439L17.4154 80.1464C17.4154 80.1464 17.3361 80.2274 17.3097 80.2679L17.1775 80.3894L17.0718 80.4974L16.9397 80.6189L16.8075 80.7269C16.752 80.7685 16.6991 80.8136 16.649 80.8619C16.1458 81.2791 15.601 81.641 15.0237 81.9418L14.4423 82.2118L14.2706 82.2928L14.0723 82.3738L13.7552 82.4953L13.3985 82.6168L13.1342 82.6978C12.6175 82.8408 12.0923 82.949 11.5618 83.0218H11.4297C11.342 83.0351 11.253 83.0351 11.1654 83.0218H10.3726H9.59298C9.50091 83.0346 9.40757 83.0346 9.3155 83.0218H9.18336C8.66113 82.9516 8.14448 82.8434 7.63739 82.6978C7.54677 82.6803 7.4582 82.6532 7.37312 82.6168C7.24256 82.5863 7.11446 82.5457 6.98993 82.4953C6.77119 82.4602 6.55492 82.4106 6.34247 82.3468H6.14427C5.93285 82.2658 5.74786 82.1578 5.54966 82.0768C4.99318 81.7616 4.46287 81.4004 3.96404 80.9969C3.90914 80.9353 3.847 80.8809 3.77905 80.8349L3.66013 80.7269L3.44872 80.4974C3.39515 80.4638 3.34626 80.4229 3.30337 80.3759C3.26624 80.3408 3.235 80.2998 3.21087 80.2544L3.13159 80.1734C3.13159 80.1734 3.13159 80.1059 3.05231 80.0924C2.81592 79.8635 2.60337 79.6101 2.41807 79.3364C2.35387 79.2336 2.27852 79.1385 2.19344 79.053C2.135 78.9531 2.06871 78.8583 1.99523 78.7695C1.73405 78.4638 1.50795 78.1287 1.32135 77.7705C1.14651 77.5062 0.987655 77.2312 0.845662 76.947C0.739955 76.677 0.64746 76.4206 0.568179 76.1641C0.488899 75.9076 0.488899 75.9481 0.449258 75.7996C0.362829 75.5352 0.296564 75.2644 0.251056 74.9896C0.251056 74.7466 0.171775 74.5036 0.145348 74.2876C0.118921 74.0716 0.0143858 73.8731 0 73.6825C0 73.3856 0 73.1291 0 72.8456" fill="#DFDFDF"/>
<path d="M10.1744 103.973C15.7935 103.973 20.3487 99.319 20.3487 93.5782C20.3487 87.8374 15.7935 83.1836 10.1744 83.1836C4.55522 83.1836 0 87.8374 0 93.5782C0 99.319 4.55522 103.973 10.1744 103.973Z" fill="#FFE816"/>
</svg>
