<svg fill="none" height="78" viewBox="0 0 93 78" width="93" xmlns="http://www.w3.org/2000/svg">
<path d="M0.309998 2.29L1.13 2L2.05 1.73L2.35 1.65C2.59 1.59 2.83 1.53 3.08 1.49C3.19469 1.45533 3.31163 1.4286 3.43 1.41C3.72 1.35001 4 1.31001 4.3 1.26C4.77 1.17001 5.3 1.11 5.73 1.06C6.45 1 7.17 0.959999 7.91 0.959999H8.17C8.89 0.959999 9.63 0.959999 10.33 1.06C10.83 1.06 11.33 1.17001 11.78 1.26L12.65 1.41L12.99 1.49C13.25 1.49 13.49 1.59 13.73 1.65L14.02 1.73L14.95 2C15.31 2.12 15.67 2.22 16.02 2.36C16.7006 2.60565 17.3681 2.88602 18.02 3.2L19.1 3.73C22.7297 5.70668 25.7597 8.62491 27.8714 12.1778C29.9831 15.7307 31.0984 19.7869 31.1 23.92V54.58V54.9C31.0875 56.2908 31.4689 57.6568 32.2 58.84C32.3969 59.195 32.628 59.5299 32.89 59.84C33.0125 59.9962 33.1461 60.1433 33.29 60.28C34.0003 61.019 34.853 61.6064 35.7966 62.0068C36.7401 62.4073 37.755 62.6125 38.78 62.61C39.0298 62.6252 39.2802 62.6252 39.53 62.61C39.81 62.61 40.09 62.54 40.35 62.49C41.828 62.2103 43.1833 61.4803 44.23 60.4C44.9319 59.7007 45.4862 58.8676 45.86 57.95C46.0728 57.4884 46.2241 57.0009 46.31 56.5C46.4132 55.9796 46.4668 55.4505 46.47 54.92V23.92C46.464 20.6827 47.1466 17.4812 48.4724 14.5278C49.7982 11.5745 51.737 8.93684 54.16 6.79C55.5099 5.62544 56.974 4.60023 58.53 3.73C59.53 3.26 60.53 2.73 61.58 2.36C61.93 2.22 62.29 2.12 62.65 2L63.57 1.73L63.87 1.65C64.11 1.59 64.35 1.53 64.61 1.49C64.7213 1.45525 64.8349 1.42851 64.95 1.41C65.24 1.35001 65.52 1.31001 65.82 1.26C66.29 1.17001 66.82 1.11 67.25 1.06C67.97 1 68.69 0.959999 69.43 0.959999H69.69C70.41 0.959999 71.15 0.959999 71.85 1.06C72.35 1.06 72.85 1.17001 73.3 1.26L74.17 1.41L74.52 1.49C74.77 1.49 75.01 1.59 75.25 1.65C75.3485 1.66935 75.4455 1.69609 75.54 1.73L76.47 2C76.83 2.12 77.19 2.22 77.54 2.36C78.2233 2.59866 78.8912 2.87919 79.54 3.2C79.9179 3.35227 80.2854 3.52933 80.64 3.73C84.2254 5.68207 87.2267 8.55325 89.3355 12.0487C91.4444 15.5442 92.585 19.538 92.64 23.62V76.75C91.8476 76.4811 91.0698 76.1706 90.31 75.82C86.5274 74.0347 83.3117 71.239 81.0176 67.7415C78.7236 64.244 77.4405 60.1807 77.31 56V24.06C77.31 23.85 77.31 23.66 77.31 23.44C77.31 23.22 77.31 23.16 77.25 23.02C77.19 22.88 77.25 22.68 77.16 22.5C77.1256 22.2964 77.0754 22.0958 77.01 21.9C76.9936 21.8073 76.9668 21.7167 76.93 21.63C76.86 21.43 76.8 21.25 76.71 21.05C76.6176 20.8234 76.5107 20.6029 76.39 20.39C76.2752 20.1731 76.1483 19.9627 76.01 19.76C75.9544 19.6942 75.9042 19.6239 75.86 19.55L75.7 19.34C75.5568 19.1396 75.3961 18.9522 75.22 18.78L75.07 18.63C75.07 18.63 75.01 18.57 75 18.54L74.89 18.45C74.89 18.45 74.89 18.39 74.82 18.37C74.75 18.35 74.76 18.31 74.71 18.28L74.6 18.2C74.5621 18.1642 74.522 18.1308 74.48 18.1C74.0939 17.7933 73.6786 17.5254 73.24 17.3L72.81 17.1C72.7616 17.0843 72.7148 17.0642 72.67 17.04C72.6234 17.0123 72.5728 16.9921 72.52 16.98L72.28 16.89L72.01 16.8L71.81 16.74C71.4221 16.6351 71.028 16.5549 70.63 16.5H70.52C70.4537 16.4901 70.3863 16.4901 70.32 16.5H69.72H69.14C69.0704 16.4896 68.9996 16.4896 68.93 16.5H68.82C68.4249 16.5529 68.034 16.6331 67.65 16.74C67.5814 16.753 67.5144 16.7731 67.45 16.8C67.3548 16.824 67.2613 16.854 67.17 16.89C67.0469 16.9321 66.9266 16.9822 66.81 17.04C66.7572 17.0521 66.7066 17.0723 66.66 17.1C66.49 17.16 66.36 17.24 66.2 17.3C65.7737 17.5303 65.3688 17.798 64.99 18.1C64.9518 18.1453 64.9082 18.1856 64.86 18.22L64.77 18.3L64.31 18.44L64.21 18.53C64.1785 18.5553 64.1514 18.5857 64.13 18.62L64.07 18.68C64.07 18.68 64.07 18.73 64.01 18.74C63.8311 18.9096 63.6702 19.0973 63.53 19.3C63.4814 19.3762 63.4244 19.4466 63.36 19.51C63.3193 19.5862 63.2689 19.6568 63.21 19.72C63.0783 19.9231 62.9581 20.1334 62.85 20.35C62.7261 20.5628 62.6159 20.7832 62.52 21.01C62.45 21.21 62.37 21.4 62.31 21.59C62.25 21.78 62.25 21.75 62.22 21.86C62.1546 22.0558 62.1044 22.2564 62.07 22.46C62.07 22.64 62.01 22.82 61.99 22.98C61.9609 23.1186 61.9409 23.2589 61.93 23.4C61.93 23.62 61.93 23.81 61.93 24.02V54.89C61.93 54.71 61.93 54.53 61.93 54.36V55.22C61.94 55.3698 61.94 55.5202 61.93 55.67C61.8648 58.825 61.1409 61.9315 59.8045 64.7902C58.4681 67.6489 56.5489 70.1966 54.17 72.27C52.555 73.6934 50.7472 74.8818 48.8 75.8C45.8733 77.1944 42.6814 77.9447 39.44 78H38.11C32.208 77.8872 26.5794 75.4918 22.4062 71.3167C18.2331 67.1417 15.8402 61.512 15.73 55.61V24.06C15.73 23.85 15.73 23.66 15.73 23.44C15.724 23.2984 15.7039 23.1577 15.67 23.02C15.6579 22.844 15.6277 22.6698 15.58 22.5C15.5456 22.2964 15.4954 22.0958 15.43 21.9C15.4212 21.8069 15.3975 21.7157 15.36 21.63C15.28 21.43 15.22 21.25 15.13 21.05C15.041 20.8236 14.9374 20.6031 14.82 20.39C14.7052 20.1731 14.5783 19.9627 14.44 19.76C14.3844 19.6942 14.3342 19.6239 14.29 19.55L14.13 19.34C13.9862 19.1371 13.822 18.9494 13.64 18.78L13.49 18.63C13.49 18.63 13.43 18.57 13.41 18.54L13.31 18.45L13.23 18.37L13.13 18.28L13.03 18.2C12.988 18.1692 12.9479 18.1358 12.91 18.1C12.5292 17.791 12.1169 17.5228 11.68 17.3L11.24 17.1L11.11 17.04L10.96 16.98L10.72 16.89L10.45 16.8L10.25 16.74C9.85899 16.6341 9.46148 16.5539 9.06 16.5H8.96C8.89369 16.4901 8.8263 16.4901 8.76 16.5H8.16H7.57C7.50032 16.4905 7.42968 16.4905 7.36 16.5H7.26C6.86477 16.552 6.47377 16.6322 6.09 16.74C6.02142 16.753 5.95439 16.7731 5.89 16.8C5.79119 16.8226 5.69424 16.8527 5.6 16.89C5.43446 16.916 5.27078 16.9528 5.11 17H4.96C4.8 17.06 4.66 17.14 4.51 17.2C4.08885 17.4335 3.68751 17.7011 3.31 18C3.26844 18.0456 3.22142 18.0859 3.17 18.12L3.08 18.2L2.92 18.37C2.87946 18.3949 2.84246 18.4252 2.81 18.46C2.7819 18.486 2.75825 18.5164 2.74 18.55L2.68 18.61C2.68 18.61 2.68 18.66 2.62 18.67C2.44109 18.8396 2.28023 19.0273 2.14 19.23C2.09142 19.3062 2.03439 19.3766 1.97 19.44C1.92577 19.5139 1.87561 19.5842 1.82 19.65C1.62233 19.8764 1.45122 20.1247 1.31 20.39C1.17768 20.5858 1.05746 20.7895 0.949998 21C0.869998 21.2 0.799998 21.39 0.739998 21.58C0.679998 21.77 0.679998 21.74 0.649998 21.85C0.584588 22.0458 0.534438 22.2464 0.499998 22.45C0.499998 22.63 0.439998 22.81 0.419998 22.97C0.390927 23.1086 0.370885 23.2488 0.359998 23.39C0.359998 23.61 0.359998 23.8 0.359998 24.01" fill="#DFDFDF"/>
<path d="M8.01 0.980862C12.2626 0.980862 15.71 4.42827 15.71 8.68086C15.71 12.9335 12.2626 16.3809 8.01 16.3809C3.7574 16.3809 0.309998 12.9335 0.309998 8.68086C0.309998 4.42827 3.7574 0.980862 8.01 0.980862Z" fill="#FFE816"/>
</svg>
