<svg fill="none" height="104" viewBox="0 0 146 104" width="146" xmlns="http://www.w3.org/2000/svg">
<path d="M0.619141 31.2072C0.619141 30.9508 0.619141 30.681 0.619141 30.4246C0.744851 28.8205 1.24373 27.2681 2.07597 25.8912C2.3416 25.4122 2.65333 24.9603 3.00672 24.5419C3.17665 24.331 3.36147 24.1327 3.55977 23.9482C4.51447 22.9503 5.66209 22.1571 6.93285 21.6166C8.20361 21.0762 9.57097 20.7999 10.9518 20.8045C11.2932 20.7844 11.6356 20.7844 11.977 20.8045C12.3412 20.8045 12.7189 20.8989 13.0696 20.9664C15.0633 21.3438 16.8914 22.3288 18.3034 23.7863C19.2497 24.733 20.0013 25.8561 20.5156 27.092C20.7927 27.6998 20.9965 28.3384 21.1226 28.9944C21.2619 29.6966 21.3341 30.4104 21.3384 31.1262V72.9529C21.3338 77.3203 22.2561 81.6388 24.0443 85.6231C25.8324 89.6074 28.4458 93.1667 31.7116 96.0655C33.5325 97.6368 35.5074 99.0201 37.6063 100.194C38.9553 100.828 40.3042 101.543 41.734 102.043C42.1926 102.232 42.6783 102.367 43.1639 102.528L44.4049 102.893L44.8095 103.001C45.1333 103.082 45.457 103.163 45.8077 103.217C45.9578 103.263 46.1111 103.299 46.2664 103.324C46.6576 103.405 47.0487 103.473 47.4534 103.527C48.0739 103.648 48.7214 103.729 49.3824 103.797C50.3536 103.878 51.3248 103.932 52.3095 103.932H52.6602C53.6314 103.932 54.6296 103.932 55.5874 103.797C56.2483 103.797 56.9363 103.648 57.5298 103.527C57.921 103.527 58.2987 103.405 58.7034 103.324L59.1755 103.217C59.5127 103.217 59.8364 103.082 60.1737 103.001L60.5514 102.893L61.8059 102.528C62.2915 102.367 62.7771 102.232 63.2492 102.043C64.1682 101.714 65.0688 101.335 65.947 100.909L67.4038 100.194C72.3 97.5272 76.3873 93.5898 79.2357 88.7961C82.0842 84.0023 83.5886 78.5294 83.5908 72.9529V31.1262C83.5886 30.0826 83.7479 29.0449 84.0629 28.0499C84.3057 27.2642 84.6456 26.5118 85.0746 25.8102C85.3452 25.3343 85.6566 24.8829 86.0054 24.4609C86.1753 24.2501 86.3601 24.0517 86.5584 23.8673C87.5152 22.8684 88.6651 22.0745 89.9381 21.5341C91.2113 20.9937 92.5809 20.7179 93.9639 20.7235C94.3009 20.7039 94.6387 20.7039 94.9756 20.7235C95.3398 20.7235 95.731 20.818 96.0683 20.8854C98.0619 21.2628 99.8901 22.2478 101.302 23.7054C102.248 24.652 103 25.7751 103.514 27.011C103.791 27.6188 103.995 28.2575 104.121 28.9135C104.272 29.6142 104.348 30.3286 104.351 31.0453V72.8719C104.343 77.2384 105.263 81.5567 107.049 85.541C108.835 89.5254 111.446 93.085 114.71 95.9846C116.548 97.6046 118.545 99.0332 120.672 100.248C122.021 100.882 123.37 101.597 124.787 102.097C125.245 102.286 125.744 102.42 126.23 102.582L127.457 102.947L127.862 103.055C128.199 103.136 128.523 103.217 128.86 103.27C129.015 103.317 129.173 103.353 129.332 103.378C129.71 103.459 130.101 103.527 130.506 103.581C131.14 103.702 131.855 103.783 132.435 103.851C133.406 103.932 134.377 103.986 135.376 103.986H135.51V83.2342C135.241 83.2342 134.984 83.2342 134.715 83.2342C134.621 83.2469 134.525 83.2469 134.431 83.2342H134.296C133.759 83.1627 133.227 83.0545 132.705 82.9104C132.617 82.8915 132.531 82.8644 132.448 82.8294C132.315 82.7989 132.184 82.7583 132.057 82.708C131.892 82.6487 131.73 82.5811 131.572 82.5056C131.501 82.4869 131.433 82.4597 131.369 82.4246C131.153 82.3437 130.965 82.2357 130.762 82.1548C130.185 81.841 129.634 81.48 129.117 81.0754C129.061 81.0138 128.997 80.9595 128.928 80.9135L128.766 80.7111L128.55 80.4817C128.495 80.4481 128.445 80.4072 128.402 80.3603C128.359 80.3261 128.323 80.2851 128.294 80.2388L128.213 80.1579C128.213 80.1579 128.213 80.0904 128.132 80.0769C127.894 79.8446 127.678 79.5918 127.484 79.3214C127.425 79.2183 127.352 79.1231 127.269 79.038C127.209 78.9382 127.141 78.8435 127.066 78.7547C126.879 78.4869 126.716 78.2023 126.581 77.9046C126.414 77.6176 126.265 77.3201 126.136 77.0141C126.028 76.7443 125.933 76.4879 125.852 76.2316C125.802 76.1137 125.761 75.9919 125.731 75.8673C125.645 75.6014 125.573 75.3312 125.515 75.0577C125.515 74.8149 125.434 74.572 125.421 74.3561C125.368 74.1717 125.341 73.9811 125.34 73.7894C125.34 73.4926 125.34 73.2363 125.34 72.9529V31.2477C125.353 31.4858 125.353 31.7246 125.34 31.9628V30.8024C125.34 30.6 125.34 30.3976 125.34 30.1953C125.182 22.1981 121.914 14.5774 116.229 8.95177C110.544 3.32613 102.891 0.138739 94.8947 0.066556C94.7196 0.0527429 94.5437 0.0527429 94.3686 0.066556H93.6132C93.4381 0.0531232 93.2623 0.0531232 93.0872 0.066556C88.7311 0.134141 84.4417 1.14692 80.5153 3.0349C75.3364 5.47899 70.9473 9.32787 67.8472 14.1437C64.7472 18.9596 63.0606 24.549 62.9794 30.2762V72.845C62.9794 73.1283 62.9794 73.3847 62.9794 73.6815C62.9647 73.8719 62.9377 74.0612 62.8985 74.2482C62.8985 74.4641 62.831 74.7069 62.7771 74.9498C62.7306 75.2245 62.663 75.4951 62.5747 75.7593C62.5526 75.8844 62.5164 76.0067 62.4668 76.1236C62.3724 76.3935 62.2915 76.6364 62.1701 76.9062C62.0454 77.212 61.9012 77.5094 61.7384 77.7967C61.5765 78.0935 61.4147 78.3769 61.2393 78.6467C61.1599 78.732 61.0919 78.8273 61.037 78.9301L60.8077 79.2134C60.6185 79.487 60.4015 79.7402 60.1602 79.969L59.9578 80.1714C59.9578 80.1714 59.8769 80.2523 59.8634 80.2928L59.715 80.4142C59.715 80.4142 59.715 80.4952 59.6206 80.5222C59.5262 80.5492 59.5397 80.6031 59.4722 80.6436L59.3238 80.7516C59.2727 80.7998 59.2187 80.8449 59.162 80.8865C58.6433 81.3033 58.0827 81.665 57.4893 81.9659L56.9093 82.2357C56.844 82.2569 56.7808 82.284 56.7204 82.3167C56.6576 82.354 56.5894 82.3814 56.5181 82.3976L56.1944 82.5191L55.8302 82.6405L55.5739 82.7215C55.0459 82.8618 54.5098 82.97 53.9687 83.0453H53.8203C53.7354 83.0584 53.6489 83.0584 53.564 83.0453H52.7546C52.4849 83.0453 52.2151 83.0453 51.9588 83.0453C51.8649 83.0593 51.7694 83.0593 51.6755 83.0453H51.5271C50.9945 82.9724 50.4672 82.8642 49.9489 82.7215L49.6791 82.6405C49.5507 82.6082 49.4246 82.5676 49.3014 82.5191C49.1353 82.4622 48.9731 82.3946 48.8158 82.3167C48.7446 82.3004 48.6763 82.2731 48.6135 82.2357C48.3842 82.1548 48.2088 82.0468 48.0065 81.9659C47.4291 81.6521 46.8786 81.2911 46.3608 80.8865H46.2933C46.2419 80.8254 46.183 80.771 46.118 80.7246L45.9966 80.6166L45.7673 80.3873L45.6324 80.2658C45.5898 80.2317 45.5534 80.1906 45.5245 80.1444L45.4435 80.0634C45.4435 80.0634 45.4435 79.996 45.3626 79.9825C45.125 79.7502 44.9083 79.4973 44.7151 79.2269C44.6553 79.1238 44.5828 79.0286 44.4993 78.9436C44.4396 78.8438 44.372 78.749 44.297 78.6602C44.1101 78.3894 43.9433 78.1053 43.7979 77.8102C43.6307 77.5231 43.482 77.2257 43.3527 76.9197C43.2583 76.6498 43.1504 76.3935 43.0694 76.1371C42.9885 75.8808 42.9885 75.9212 42.948 75.7728C42.8598 75.5086 42.7922 75.238 42.7457 74.9633C42.7457 74.7204 42.6648 74.4776 42.6513 74.2617C42.599 74.0773 42.5717 73.8867 42.5703 73.695C42.5703 73.3982 42.5703 73.1418 42.5703 72.8585V31.2477C42.5841 31.4858 42.5841 31.7246 42.5703 31.9628V30.8024C42.5703 30.6 42.5703 30.3976 42.5703 30.1953C42.4379 25.9119 41.4063 21.7044 39.5425 17.8457C37.6787 13.9871 35.0245 10.5637 31.7521 7.79774C29.5735 5.87717 27.1349 4.27375 24.5084 3.0349C20.567 1.14852 16.2648 0.135984 11.8961 0.066556C11.7344 0.054789 11.5721 0.054789 11.4104 0.066556H10.6146C10.4305 0.0517079 10.2456 0.0517079 10.0615 0.066556C6.84501 0.128875 3.65843 0.698049 0.619141 1.75312" fill="#DFDFDF"/>
<path d="M135.523 103.986C141.26 103.986 145.91 99.3348 145.91 93.597C145.91 87.8592 141.26 83.2078 135.523 83.2078C129.787 83.2078 125.137 87.8592 125.137 93.597C125.137 99.3348 129.787 103.986 135.523 103.986Z" fill="#FFE816"/>
<path d="M11.0058 20.8443C16.7422 20.8443 21.3924 16.1929 21.3924 10.4551C21.3924 4.71732 16.7422 0.065918 11.0058 0.065918C5.26939 0.065918 0.619141 4.71732 0.619141 10.4551C0.619141 16.1929 5.26939 20.8443 11.0058 20.8443Z" fill="#FFE816"/>
</svg>
