<svg fill="none" height="104" viewBox="0 0 125 104" width="125" xmlns="http://www.w3.org/2000/svg">
<path d="M56.5735 103.579L57.7606 103.377L58.2192 103.269C58.5699 103.269 58.8936 103.134 59.2174 103.053L59.5951 102.945L60.8631 102.581C61.3487 102.419 61.8343 102.284 62.2929 102.095C63.2154 101.775 64.1165 101.397 64.9907 100.962C65.5005 100.756 65.9962 100.517 66.4745 100.247C71.3707 97.5796 75.458 93.6422 78.3064 88.8485C81.1549 84.0548 82.6593 78.5819 82.6615 73.0054V31.1787C82.6615 30.9223 82.6615 30.6525 82.6615 30.3961C82.7872 28.7921 83.2861 27.2396 84.1183 25.8627C84.3889 25.3868 84.7003 24.9353 85.0491 24.5134C85.219 24.3026 85.4038 24.1042 85.6021 23.9197C86.5589 22.9208 87.7088 22.127 88.9819 21.5866C90.255 21.0461 91.6247 20.7703 93.0077 20.776C93.3446 20.7563 93.6824 20.7563 94.0193 20.776C94.3835 20.776 94.7612 20.8704 95.112 20.9379C97.1056 21.3153 98.9338 22.3003 100.346 23.7578C101.289 24.7399 102.028 25.9004 102.518 27.1714C102.795 27.7792 102.998 28.4179 103.125 29.0739C103.264 29.776 103.336 30.4898 103.34 31.2057V73.0324C103.336 77.3997 104.258 81.7183 106.046 85.7026C107.834 89.6869 110.448 93.2461 113.713 96.145C115.537 97.7125 117.512 99.0954 119.608 100.274C120.957 100.908 122.306 101.623 123.736 102.122L124.073 102.244V30.5311C124.073 30.4231 124.073 30.3017 124.073 30.1937C123.917 22.2403 120.685 14.6571 115.055 9.03844C109.425 3.41974 101.836 0.203202 93.8845 0.0650473C93.7094 0.0512342 93.5335 0.0512342 93.3584 0.0650473H92.603C92.4279 0.0516145 92.252 0.0516145 92.0769 0.0650473C84.2006 0.192576 76.6752 3.3461 71.0601 8.8722C65.445 14.3983 62.1705 21.8734 61.9152 29.7485V72.8435C61.9152 73.1268 61.9152 73.3832 61.9152 73.68C61.9005 73.8704 61.8735 74.0597 61.8343 74.2467C61.8179 74.4841 61.7772 74.7192 61.7129 74.9483C61.6664 75.223 61.5988 75.4936 61.5105 75.7578C61.4986 75.8835 61.4667 76.0065 61.4161 76.1221C61.3082 76.392 61.2273 76.6348 61.1059 76.9047C60.9858 77.2102 60.8461 77.5077 60.6877 77.7952C60.5328 78.0879 60.3617 78.3717 60.1751 78.6452C60.1001 78.734 60.0324 78.8288 59.9728 78.9286L59.7569 79.2119C59.559 79.4825 59.3379 79.7354 59.096 79.9675L59.015 80.0484L58.8936 80.1699C58.8936 80.1699 58.8127 80.2508 58.7857 80.2913L58.6508 80.4127L58.5429 80.5207L58.408 80.6421H58.3406L58.2057 80.7501C58.1295 80.8331 58.0618 80.9235 58.0034 81.0199C57.4896 81.4368 56.9335 81.7986 56.3442 82.0993L55.7507 82.3691L55.5753 82.4501L55.3055 82.5041L54.9818 82.6255L54.6176 82.7469L54.3478 82.8279C53.8204 82.9708 53.2842 83.0789 52.7426 83.1517H52.6077C52.5183 83.165 52.4274 83.165 52.3379 83.1517H51.5286C51.2588 83.1517 51.0025 83.1517 50.7327 83.1517C50.6387 83.1645 50.5434 83.1645 50.4494 83.1517H50.3146C49.7772 83.0803 49.2454 82.9721 48.7228 82.8279C48.635 82.809 48.5492 82.7819 48.4665 82.7469C48.3333 82.7164 48.2025 82.6758 48.0754 82.6255C47.9102 82.5662 47.7481 82.4987 47.5897 82.4231L47.3874 82.3691C47.1716 82.2882 46.9827 82.1803 46.7804 82.0993C46.203 81.7855 45.6526 81.4245 45.1347 81.0199C45.0787 80.9584 45.0152 80.904 44.9459 80.858L44.8245 80.7501L44.5142 80.4262C44.4595 80.3926 44.4096 80.3518 44.3658 80.3048C44.3279 80.2698 44.296 80.2287 44.2714 80.1834L44.1905 80.1024C44.1905 80.1024 44.1905 80.035 44.1096 80.0215C43.8682 79.7926 43.6512 79.5394 43.4621 79.2659C43.3931 79.1656 43.3165 79.0709 43.2328 78.9825C43.1731 78.8828 43.1054 78.788 43.0304 78.6992C42.8428 78.4314 42.6802 78.1469 42.5448 77.8492C42.3777 77.5621 42.229 77.2647 42.0997 76.9587C41.9918 76.6888 41.8973 76.4325 41.8164 76.1761C41.7355 75.9197 41.7355 75.9602 41.695 75.8118C41.6068 75.5476 41.5391 75.2769 41.4927 75.0023C41.4927 74.7594 41.4117 74.5165 41.3847 74.3007C41.3455 74.1137 41.3185 73.9244 41.3038 73.734C41.3038 73.4371 41.3038 73.1808 41.3038 72.8974V31.2462C41.3038 31.489 41.3038 31.7319 41.3038 31.9613V30.8009C41.3173 30.5987 41.3173 30.3959 41.3038 30.1937C41.1464 22.2035 37.8838 14.5888 32.2078 8.96425C26.5317 3.33972 18.8887 0.147694 10.8993 0.0650473C10.7287 0.0512657 10.5573 0.0512657 10.3867 0.0650473V20.8435H11.0207C11.3849 20.8435 11.7761 20.9379 12.1133 21.0054C14.1085 21.3785 15.9379 22.3641 17.3471 23.8253C18.2979 24.7683 19.0501 25.8923 19.5593 27.131C19.8627 27.7486 20.0892 28.4011 20.2338 29.0739C20.3841 29.7746 20.461 30.489 20.4631 31.2057V73.0324C20.4513 77.3892 21.3623 81.6991 23.1363 85.6782C24.9103 89.6573 27.507 93.2153 30.7553 96.118C32.5819 97.6881 34.5612 99.0713 36.6635 100.247C38.0125 100.881 39.3614 101.596 40.7777 102.095C41.2499 102.284 41.7355 102.419 42.2211 102.581L43.4486 102.945L43.8667 103.053C44.1905 103.134 44.5142 103.215 44.8515 103.269C45.0062 103.316 45.1639 103.352 45.3236 103.377C45.7013 103.458 46.0925 103.525 46.4971 103.579C47.1311 103.701 47.846 103.782 48.4261 103.849C49.3973 103.93 50.3685 103.984 51.3667 103.984H51.7174C52.6886 103.984 53.6733 103.984 54.6311 103.849C55.3055 103.782 55.926 103.701 56.5735 103.579Z" fill="#DFDFDF"/>
<path d="M56.5735 103.579L57.7606 103.377L58.2192 103.269C58.5699 103.269 58.8936 103.134 59.2174 103.053L59.5951 102.945L60.8631 102.581C61.3487 102.419 61.8343 102.284 62.2929 102.095C63.2154 101.775 64.1165 101.397 64.9907 100.962C65.5005 100.756 65.9962 100.517 66.4745 100.247C71.3707 97.5796 75.458 93.6422 78.3064 88.8485C81.1549 84.0548 82.6593 78.5819 82.6615 73.0054V31.1787C82.6615 30.9223 82.6615 30.6525 82.6615 30.3961C82.7872 28.7921 83.2861 27.2396 84.1183 25.8627C84.3889 25.3868 84.7003 24.9353 85.0491 24.5134C85.219 24.3026 85.4038 24.1042 85.6021 23.9197C86.5589 22.9208 87.7088 22.127 88.9819 21.5866C90.255 21.0461 91.6247 20.7703 93.0077 20.776C93.3446 20.7563 93.6824 20.7563 94.0193 20.776C94.3835 20.776 94.7612 20.8704 95.112 20.9379C97.1056 21.3153 98.9338 22.3003 100.346 23.7578C101.289 24.7399 102.028 25.9004 102.518 27.1714C102.795 27.7792 102.998 28.4179 103.125 29.0739C103.264 29.776 103.336 30.4898 103.34 31.2057V73.0324C103.336 77.3997 104.258 81.7183 106.046 85.7026C107.834 89.6869 110.448 93.2461 113.713 96.145C115.537 97.7125 117.512 99.0954 119.608 100.274C120.957 100.908 122.306 101.623 123.736 102.122L124.073 102.244V30.5311C124.073 30.4231 124.073 30.3017 124.073 30.1937C123.917 22.2403 120.685 14.6571 115.055 9.03844C109.425 3.41974 101.836 0.203202 93.8845 0.0650473C93.7094 0.0512342 93.5335 0.0512342 93.3584 0.0650473H92.603C92.4279 0.0516145 92.252 0.0516145 92.0769 0.0650473C84.2006 0.192576 76.6752 3.3461 71.0601 8.8722C65.445 14.3983 62.1705 21.8734 61.9152 29.7485V72.8435C61.9152 73.1268 61.9152 73.3832 61.9152 73.68C61.9005 73.8704 61.8735 74.0597 61.8343 74.2467C61.8179 74.4841 61.7772 74.7192 61.7129 74.9483C61.6664 75.223 61.5988 75.4936 61.5105 75.7578C61.4986 75.8835 61.4667 76.0065 61.4161 76.1221C61.3082 76.392 61.2273 76.6348 61.1059 76.9047C60.9858 77.2102 60.8461 77.5077 60.6877 77.7952C60.5328 78.0879 60.3617 78.3717 60.1751 78.6452C60.1001 78.734 60.0324 78.8288 59.9728 78.9286L59.7569 79.2119C59.559 79.4825 59.3379 79.7354 59.096 79.9675L59.015 80.0484L58.8936 80.1699C58.8936 80.1699 58.8127 80.2508 58.7857 80.2913L58.6508 80.4127L58.5429 80.5207L58.408 80.6421H58.3406L58.2057 80.7501C58.1295 80.8331 58.0618 80.9235 58.0034 81.0199C57.4896 81.4368 56.9335 81.7986 56.3442 82.0993L55.7507 82.3691L55.5753 82.4501L55.3055 82.5041L54.9818 82.6255L54.6176 82.7469L54.3478 82.8279C53.8204 82.9708 53.2842 83.0789 52.7426 83.1517H52.6077C52.5183 83.165 52.4274 83.165 52.3379 83.1517H51.5286C51.2588 83.1517 51.0025 83.1517 50.7327 83.1517C50.6387 83.1645 50.5434 83.1645 50.4494 83.1517H50.3146C49.7772 83.0803 49.2454 82.9721 48.7228 82.8279C48.635 82.809 48.5492 82.7819 48.4665 82.7469C48.3333 82.7164 48.2025 82.6758 48.0754 82.6255C47.9102 82.5662 47.7481 82.4987 47.5897 82.4231L47.3874 82.3691C47.1716 82.2882 46.9827 82.1803 46.7804 82.0993C46.203 81.7855 45.6526 81.4245 45.1347 81.0199C45.0787 80.9584 45.0152 80.904 44.9459 80.858L44.8245 80.7501L44.5142 80.4262C44.4595 80.3926 44.4096 80.3518 44.3658 80.3048C44.3279 80.2698 44.296 80.2287 44.2714 80.1834L44.1905 80.1024C44.1905 80.1024 44.1905 80.035 44.1096 80.0215C43.8682 79.7926 43.6512 79.5394 43.4621 79.2659C43.3931 79.1656 43.3165 79.0709 43.2328 78.9825C43.1731 78.8828 43.1054 78.788 43.0304 78.6992C42.8428 78.4314 42.6802 78.1469 42.5448 77.8492C42.3777 77.5621 42.229 77.2647 42.0997 76.9587C41.9918 76.6888 41.8973 76.4325 41.8164 76.1761C41.7355 75.9197 41.7355 75.9602 41.695 75.8118C41.6068 75.5476 41.5391 75.2769 41.4927 75.0023C41.4927 74.7594 41.4117 74.5165 41.3847 74.3007C41.3455 74.1137 41.3185 73.9244 41.3038 73.734C41.3038 73.4371 41.3038 73.1808 41.3038 72.8974V31.2462C41.3038 31.489 41.3038 31.7319 41.3038 31.9613V30.8009C41.3173 30.5987 41.3173 30.3959 41.3038 30.1937C41.1464 22.2035 37.8838 14.5888 32.2078 8.96425C26.5317 3.33972 18.8887 0.147694 10.8993 0.0650473C10.7287 0.0512657 10.5573 0.0512657 10.3867 0.0650473V20.8435H11.0207C11.3849 20.8435 11.7761 20.9379 12.1133 21.0054C14.1085 21.3785 15.9379 22.3641 17.3471 23.8253C18.2979 24.7683 19.0501 25.8923 19.5593 27.131C19.8627 27.7486 20.0892 28.4011 20.2338 29.0739C20.3841 29.7746 20.461 30.489 20.4631 31.2057V73.0324C20.4513 77.3892 21.3623 81.6991 23.1363 85.6782C24.9103 89.6573 27.507 93.2153 30.7553 96.118C32.5819 97.6881 34.5612 99.0713 36.6635 100.247C38.0125 100.881 39.3614 101.596 40.7777 102.095C41.2499 102.284 41.7355 102.419 42.2211 102.581L43.4486 102.945L43.8667 103.053C44.1905 103.134 44.5142 103.215 44.8515 103.269C45.0062 103.316 45.1639 103.352 45.3236 103.377C45.7013 103.458 46.0925 103.525 46.4971 103.579C47.1311 103.701 47.846 103.782 48.4261 103.849C49.3973 103.93 50.3685 103.984 51.3667 103.984H51.7174C52.6886 103.984 53.6733 103.984 54.6311 103.849C55.3055 103.782 55.926 103.701 56.5735 103.579Z" fill="#DFDFDF"/>
<path d="M10.3866 20.8436C16.123 20.8436 20.7733 16.1922 20.7733 10.4544C20.7733 4.71659 16.123 0.0651855 10.3866 0.0651855C4.65025 0.0651855 0 4.71659 0 10.4544C0 16.1922 4.65025 20.8436 10.3866 20.8436Z" fill="#E53E51"/>
</svg>
