<svg width="30" height="25" viewBox="0 0 30 25" fill="none" xmlns="http://www.w3.org/2000/svg">
<g id="ico" clip-path="url(#clip0_14871_9841)">
<path id="Vector" d="M11.5902 18.53C11.7202 18.66 11.9002 18.73 12.0802 18.73C12.2702 18.73 12.4502 18.66 12.5802 18.52C12.7102 18.38 12.7902 18.21 12.7902 18.02V16.67H13.3702C13.8702 16.67 14.3502 16.52 14.7702 16.25C15.1802 15.97 15.5002 15.58 15.6902 15.12C15.8802 14.66 15.9302 14.16 15.8302 13.67C15.7302 13.18 15.4902 12.74 15.1402 12.38C14.9102 12.15 14.6302 11.96 14.3302 11.83C14.0302 11.7 13.7002 11.64 13.3702 11.64H12.7902V9.46H14.6802C14.8702 9.46 15.0502 9.39 15.1802 9.25C15.3102 9.12 15.3902 8.94 15.3902 8.75C15.3902 8.56 15.3202 8.38 15.1802 8.25C15.0402 8.12 14.8702 8.04 14.6802 8.04H12.7902V6.71C12.7902 6.52 12.7202 6.34 12.5802 6.21C12.4402 6.08 12.2702 6 12.0802 6C11.8902 6 11.7102 6.07 11.5802 6.21C11.4502 6.35 11.3702 6.52 11.3702 6.71V8.04H10.7902C10.2802 8.04 9.79021 8.17 9.36021 8.45C8.93021 8.73 8.61021 9.13 8.41021 9.6C8.22021 10.07 8.17021 10.59 8.28021 11.08C8.39021 11.58 8.64022 12.03 9.01022 12.38C9.24022 12.61 9.52021 12.8 9.83021 12.92C10.1302 13.04 10.4602 13.11 10.7902 13.11H11.3702V15.22H8.99021C8.80021 15.22 8.62021 15.29 8.49021 15.43C8.36021 15.57 8.28021 15.74 8.28021 15.93C8.28021 16.12 8.35021 16.3 8.49021 16.43C8.62021 16.56 8.80021 16.64 8.99021 16.64H11.3702V18.06C11.3702 18.24 11.4602 18.42 11.5902 18.54V18.53ZM12.7902 13.06H13.3702C13.6602 13.06 13.9402 13.18 14.1402 13.38C14.3002 13.53 14.4102 13.73 14.4602 13.94C14.5102 14.16 14.4902 14.38 14.4002 14.58C14.3202 14.78 14.1702 14.96 13.9902 15.08C13.8102 15.2 13.5902 15.26 13.3702 15.26H12.7902V13.05V13.06ZM10.8002 11.64C10.6602 11.64 10.5102 11.61 10.3802 11.56C10.2502 11.5 10.1302 11.42 10.0202 11.32C9.92022 11.22 9.84021 11.1 9.78021 10.97C9.72021 10.84 9.70021 10.7 9.70021 10.55C9.70021 10.26 9.82022 9.98 10.0202 9.77C10.2302 9.56 10.5002 9.45 10.8002 9.45H11.3802V11.63H10.8002V11.64Z" fill="black"/>
<path id="Vector_2" d="M25.5904 18.71L18.1804 14.74C18.0504 14.67 17.9004 14.65 17.7504 14.66C17.6004 14.68 17.4604 14.74 17.3504 14.84C17.2404 14.94 17.1604 15.07 17.1204 15.22C17.0904 15.37 17.1004 15.52 17.1704 15.66L18.5904 18.75C18.6704 18.92 18.8104 19.06 18.9904 19.12C19.1704 19.19 19.3604 19.18 19.5404 19.11C19.6304 19.07 19.7104 19.02 19.7704 18.95C19.8404 18.88 19.8904 18.8 19.9204 18.71C19.9604 18.63 19.9804 18.53 19.9804 18.44C19.9804 18.35 19.9604 18.26 19.9204 18.17L19.3804 16.99L23.7504 19.32L19.3704 21.66L19.9304 20.47C19.9704 20.38 19.9904 20.29 19.9904 20.2C19.9904 20.11 19.9704 20.01 19.9304 19.93C19.8804 19.8 19.7804 19.68 19.6704 19.6C19.5604 19.52 19.4104 19.48 19.2704 19.48C19.1304 19.48 18.9904 19.52 18.8704 19.6C18.7504 19.68 18.6604 19.79 18.6104 19.93L17.1904 23C17.1304 23.14 17.1204 23.29 17.1504 23.44C17.1804 23.59 17.2604 23.72 17.3704 23.82C17.5004 23.94 17.6704 24 17.8504 24C17.9704 24 18.0904 23.97 18.2004 23.91L25.6104 19.95C25.7204 19.89 25.8204 19.8 25.8904 19.69C25.9604 19.58 25.9904 19.45 25.9904 19.33C25.9904 19.2 25.9604 19.07 25.8904 18.97C25.8204 18.86 25.7304 18.77 25.6104 18.71H25.5904Z" fill="black"/>
<path id="Vector_3" d="M28.2904 14.4401C28.2404 14.3101 28.1404 14.1901 28.0304 14.1101C27.9104 14.0301 27.7704 13.9901 27.6304 13.9901C27.4904 13.9901 27.3504 14.0301 27.2304 14.1101C27.1104 14.1901 27.0204 14.3001 26.9704 14.4401C26.9304 14.5301 26.9104 14.6201 26.9104 14.7101C26.9104 14.8001 26.9304 14.9001 26.9704 14.9801L27.5304 16.1701L23.1504 13.8301L27.5204 11.5001L26.9804 12.6801C26.9404 12.7601 26.9204 12.8601 26.9204 12.9501C26.9204 13.0401 26.9404 13.1301 26.9804 13.2201C27.0104 13.3101 27.0704 13.3901 27.1304 13.4601C27.2004 13.5301 27.2804 13.5801 27.3604 13.6201C27.5304 13.7001 27.7304 13.7001 27.9104 13.6301C28.0904 13.5601 28.2304 13.4301 28.3104 13.2601L29.7304 10.1701C29.7904 10.0301 29.8104 9.88005 29.7804 9.73005C29.7504 9.58005 29.6704 9.45006 29.5604 9.35006C29.4504 9.25006 29.3104 9.19006 29.1604 9.17006C29.0104 9.15006 28.8604 9.17006 28.7304 9.25006L21.3204 13.2201C21.2104 13.2801 21.1104 13.3701 21.0404 13.4801C20.9704 13.5901 20.9404 13.7201 20.9404 13.8401C20.9404 13.9701 20.9804 14.0901 21.0404 14.2001C21.1104 14.3101 21.2004 14.4001 21.3204 14.4601L28.7304 18.4201C28.8404 18.4801 28.9604 18.5001 29.0804 18.5101C29.2604 18.5101 29.4304 18.4501 29.5604 18.3301C29.6704 18.2301 29.7504 18.1001 29.7804 17.9501C29.8104 17.8001 29.8004 17.6501 29.7404 17.5101L28.3204 14.4401H28.2904Z" fill="black"/>
<path id="Vector_4" d="M15.12 21.93C14.13 22.24 13.09 22.39 12.04 22.39C6.33 22.39 1.69 17.75 1.69 12.04C1.69 6.33 6.34 1.7 12.05 1.7C17.01 1.7 21.29 5.23 22.21 10.1C22.3 10.56 22.74 10.86 23.2 10.78C23.66 10.69 23.96 10.25 23.88 9.79C22.8 4.11 17.83 0 12.05 0C5.4 0 0 5.4 0 12.05C0 18.7 5.4 24.1 12.05 24.1C13.27 24.1 14.48 23.92 15.63 23.56C16.08 23.42 16.33 22.94 16.19 22.5C16.05 22.05 15.58 21.8 15.13 21.94L15.12 21.93Z" fill="black"/>
</g>
<defs>
<clipPath id="clip0_14871_9841">
<rect width="29.77" height="24.09" fill="white"/>
</clipPath>
</defs>
</svg>
