<svg fill="none" height="24" viewBox="0 0 24 24" width="24" xmlns="http://www.w3.org/2000/svg">
<path d="M18.5882 9.50019H19.799L18.941 8.64586L16.6417 6.35663C16.6416 6.35651 16.6415 6.35639 16.6414 6.35627C16.5471 6.26177 16.4941 6.13371 16.4941 6.00019C16.4941 5.86649 16.5472 5.73827 16.6417 5.64374C16.7363 5.5492 16.8645 5.49609 16.9982 5.49609C17.0644 5.49609 17.1299 5.50913 17.1911 5.53447C17.2523 5.5598 17.3078 5.59693 17.3546 5.64374L21.3523 9.64137C21.3526 9.6417 21.3529 9.64203 21.3532 9.64235C21.4221 9.71251 21.4687 9.80142 21.4873 9.89796C21.506 9.99496 21.4956 10.0953 21.4573 10.1864L21.4557 10.1902C21.4182 10.2815 21.3545 10.3597 21.2726 10.4148C21.191 10.4698 21.0951 10.4995 20.9967 10.5002H6.99819C6.86558 10.5002 6.7384 10.4475 6.64463 10.3537C6.55086 10.26 6.49819 10.1328 6.49819 10.0002C6.49819 9.86758 6.55086 9.7404 6.64463 9.64663C6.7384 9.55286 6.86558 9.50019 6.99819 9.50019H18.5882ZM2.53909 13.814L2.53911 13.814L2.54068 13.8102C2.57819 13.7189 2.64189 13.6407 2.72375 13.5855C2.80531 13.5306 2.90126 13.5009 2.99959 13.5002H16.9982C17.1308 13.5002 17.258 13.5529 17.3517 13.6466C17.4455 13.7404 17.4982 13.8676 17.4982 14.0002C17.4982 14.1328 17.4455 14.26 17.3517 14.3537C17.258 14.4475 17.1308 14.5002 16.9982 14.5002H5.40819H4.19735L5.0554 15.3545L7.3554 17.6445L7.35609 17.6452C7.40295 17.6917 7.44015 17.747 7.46553 17.8079C7.49092 17.8688 7.50398 17.9342 7.50398 18.0002C7.50398 18.0662 7.49092 18.1315 7.46553 18.1925C7.44015 18.2534 7.40295 18.3087 7.35609 18.3552L7.35607 18.3552L7.35319 18.3581C7.3067 18.405 7.2514 18.4421 7.19047 18.4675C7.12955 18.4929 7.0642 18.506 6.99819 18.506C6.93218 18.506 6.86683 18.4929 6.8059 18.4675C6.74497 18.4421 6.68967 18.405 6.64319 18.3581L6.64174 18.3566L2.64409 14.359C2.64377 14.3587 2.64344 14.3583 2.64312 14.358C2.57427 14.2879 2.52763 14.1989 2.50903 14.1024C2.49034 14.0054 2.5008 13.9051 2.53909 13.814Z" fill="#131010" stroke="#101010"/>
</svg>
