<svg width="37" height="38" viewBox="0 0 37 38" fill="none" xmlns="http://www.w3.org/2000/svg">
<path d="M28.9332 24.06C28.5066 24.06 28.0799 23.8968 27.7549 23.5717C27.1031 22.9202 27.1031 21.8668 27.7549 21.2152L31.1216 17.8486C32.6566 16.3286 33.4997 14.2986 33.4997 12.127C33.4997 7.66207 29.8664 4.02721 25.4 4.02721C23.2299 4.02721 21.1999 4.87039 19.6835 6.40051L16.3117 9.77201C15.6602 10.4239 14.6067 10.4239 13.9552 9.77201C13.3037 9.12047 13.3037 8.06703 13.9552 7.4155L17.3218 4.04735C19.465 1.88736 22.3351 0.693848 25.4 0.693848C31.7047 0.693848 36.8331 5.82221 36.8331 12.127C36.8331 15.1952 35.6396 18.0634 33.4714 20.2118L30.1099 23.5717C29.7849 23.8968 29.3598 24.06 28.9332 24.06Z" fill="black"/>
<path d="M11.6001 37.3598C5.29536 37.3598 0.166992 32.2315 0.166992 25.9267C0.166992 22.8585 1.36051 19.9902 3.52873 17.8418L6.89017 14.4819C7.54201 13.8304 8.59515 13.8304 9.24699 14.4819C9.89852 15.1335 9.89852 16.1869 9.24699 16.8385L5.88036 20.2051C4.34353 21.7251 3.50035 23.7551 3.50035 25.9267C3.50035 30.3916 7.13369 34.0265 11.6001 34.0265C13.7702 34.0265 15.8002 33.1833 17.3166 31.6532L20.6884 28.2817C21.3399 27.6298 22.3934 27.6298 23.0449 28.2817C23.6964 28.9332 23.6964 29.9867 23.0449 30.6382L19.6783 34.0066C17.5351 36.1663 14.6653 37.3598 11.6001 37.3598Z" fill="black"/>
<path d="M22.0334 17.1601C21.6067 17.1601 21.1801 16.9968 20.8551 16.6718C20.2036 16.0203 20.2036 14.9668 20.8551 14.3153L23.9883 11.1821C24.6401 10.5303 25.6933 10.5303 26.3451 11.1821C26.9966 11.8337 26.9966 12.8871 26.3451 13.5386L23.2116 16.6718C22.8866 16.9968 22.46 17.1601 22.0334 17.1601Z" fill="black"/>
<path d="M11.8336 27.3601C11.407 27.3601 10.9801 27.1968 10.6554 26.8718C10.0035 26.22 10.0035 25.1668 10.6554 24.515L13.7886 21.3818C14.4401 20.7303 15.4935 20.7303 16.1451 21.3818C16.7969 22.0334 16.7969 23.0868 16.1451 23.7384L13.0119 26.8718C12.6869 27.1968 12.2603 27.3601 11.8336 27.3601Z" fill="black"/>
<path d="M35.1663 37.3598C34.7396 37.3598 34.313 37.1966 33.988 36.8716L0.655629 3.53888C0.00378789 2.88734 0.00378789 1.8339 0.655629 1.18236C1.30716 0.530521 2.3603 0.530521 3.01214 1.18236L36.3448 34.5147C36.9964 35.1666 36.9964 36.2197 36.3448 36.8716C36.0198 37.1966 35.5929 37.3598 35.1663 37.3598Z" fill="black"/>
</svg>
