<svg fill="none" height="25" viewBox="0 0 49 25" width="49" xmlns="http://www.w3.org/2000/svg">
    <path
        d="M21.6792 19.0366H23.1936C23.7538 19.0366 24.1894 19.1818 24.4591 19.4515C24.7496 19.7212 24.8948 20.0947 24.8948 20.5511C24.8948 21.049 24.7288 21.4431 24.4176 21.7128C24.1065 21.9825 23.6293 22.1277 23.0069 22.1277H22.3638V23.8704C22.3638 24.0778 22.2601 24.1816 22.0319 24.1816H21.6792V19.0366ZM23.0484 21.5261C23.4426 21.5261 23.733 21.4431 23.9197 21.2772C24.1064 21.1112 24.1894 20.883 24.1894 20.5511C24.1894 20.2399 24.1065 20.0117 23.9405 19.8457C23.7745 19.7005 23.5048 19.6175 23.1314 19.6175H22.3638V21.5054H23.0484V21.5261Z"
        fill="white" />
    <path
        d="M25.6002 19.0366H26.2641V23.8496C26.2641 23.9326 26.2433 24.0156 26.1811 24.0778C26.1189 24.1401 26.0566 24.1608 25.9529 24.1608H25.621V19.0366H25.6002Z"
        fill="white" />
    <path
        d="M29.6871 24.2437C29.5834 24.1815 29.5004 24.1193 29.4589 24.057C29.3967 23.974 29.3552 23.8703 29.3137 23.7251C29.21 23.8703 29.0855 23.9948 28.8988 24.0985C28.7121 24.2023 28.5461 24.2437 28.3386 24.2437C27.986 24.2437 27.7163 24.14 27.5088 23.9326C27.3014 23.7251 27.1976 23.4347 27.1976 23.082C27.1976 22.7501 27.3221 22.4803 27.5503 22.2936C27.7785 22.1069 28.1104 22.024 28.5254 22.024C28.7743 22.024 29.0233 22.0447 29.2515 22.1069V21.7335C29.2515 21.5053 29.1892 21.3601 29.0855 21.2356C28.9818 21.1319 28.7951 21.0697 28.5461 21.0697C28.3594 21.0697 28.1727 21.0904 28.0275 21.1319C27.8822 21.1734 27.7163 21.2356 27.5711 21.3393L27.4051 20.9244C27.6955 20.634 28.1105 20.4888 28.6084 20.4888C29.044 20.4888 29.3759 20.5925 29.6041 20.8207C29.8323 21.0489 29.9361 21.3393 29.9361 21.7335V23.3517C29.9361 23.4969 29.9568 23.6214 29.9776 23.7044C29.9983 23.8081 30.0605 23.8911 30.1435 23.9948L29.6871 24.2437ZM28.5461 22.5219C28.2972 22.5219 28.1312 22.5633 28.0067 22.6671C27.903 22.7501 27.8408 22.8953 27.8408 23.082C27.8408 23.2479 27.8823 23.3932 27.986 23.4969C28.0897 23.6006 28.2349 23.6629 28.4216 23.6629C28.5669 23.6629 28.7121 23.6214 28.8573 23.5176C29.0025 23.4347 29.127 23.3102 29.2307 23.1857V22.5841C29.0025 22.5426 28.7743 22.5219 28.5461 22.5219Z"
        fill="white" />
    <path
        d="M32.3631 23.6418C32.4669 23.6418 32.5706 23.6418 32.6328 23.6211C32.6951 23.6003 32.7988 23.5588 32.8818 23.5173L33.0685 23.953C32.8818 24.1604 32.6328 24.2434 32.2802 24.2434C31.9482 24.2434 31.6785 24.1605 31.5126 23.9737C31.3259 23.787 31.2429 23.5173 31.2429 23.1439V21.1108H30.662V20.6544L31.2429 20.5507V19.4512H31.9067V20.5507H32.8403V21.1108H31.9067V23.1024C31.9067 23.4551 32.052 23.6418 32.3631 23.6418Z"
        fill="white" />
    <path
        d="M34.6037 19.576C34.5207 19.6589 34.417 19.7004 34.2925 19.7004C34.168 19.7004 34.0643 19.6589 33.9813 19.576C33.8983 19.493 33.8776 19.3892 33.8776 19.2855C33.8776 19.161 33.9191 19.0573 33.9813 18.9743C34.0435 18.8914 34.1473 18.8706 34.2925 18.8706C34.4377 18.8706 34.5414 18.9121 34.6037 18.9743C34.6866 19.0573 34.7074 19.1403 34.7074 19.2855C34.7074 19.41 34.6659 19.493 34.6037 19.576ZM34.6037 20.551V23.8703C34.6037 23.9533 34.5829 24.0363 34.5207 24.0985C34.4585 24.1608 34.3755 24.1815 34.2925 24.1815H33.9398V20.551H34.6037Z"
        fill="white" />
    <path
        d="M36.3256 20.5508L36.4294 21.0072C36.6368 20.8412 36.8443 20.7167 37.0725 20.613C37.3007 20.53 37.5082 20.4678 37.6949 20.4678C38.0061 20.4678 38.255 20.5715 38.4417 20.7582C38.6077 20.9657 38.7114 21.2354 38.7114 21.588V23.8493C38.7114 23.9323 38.6907 24.0153 38.6284 24.0775C38.5662 24.1398 38.504 24.1605 38.4002 24.1605H38.0476V21.6295C38.0476 21.4428 38.0061 21.2976 37.9231 21.1939C37.8401 21.0901 37.7156 21.0486 37.5704 21.0486C37.3007 21.0486 36.9273 21.1939 36.4709 21.4636V23.8286C36.4709 23.9116 36.4501 23.9945 36.3879 24.0568C36.3257 24.119 36.2634 24.1398 36.1597 24.1398H35.807V20.5093H36.3256V20.5508Z"
        fill="white" />
    <path
        d="M42.2589 24.2435C42.1759 24.202 42.0929 24.1398 42.0307 24.0568C41.9684 23.9738 41.9062 23.8701 41.8647 23.7249C41.6365 23.8908 41.429 24.0361 41.2423 24.119C41.0556 24.202 40.8481 24.2435 40.6822 24.2435C40.371 24.2435 40.1221 24.1398 39.9353 23.9531C39.7486 23.7663 39.6656 23.4759 39.6656 23.1232V20.5508H40.3295V23.0817C40.3295 23.2685 40.371 23.4137 40.454 23.5174C40.537 23.6211 40.6407 23.6626 40.7859 23.6626C40.9519 23.6626 41.1178 23.6211 41.2838 23.5589C41.4498 23.4967 41.6365 23.3929 41.8232 23.2477V20.5715H42.4871V23.3515C42.4871 23.4759 42.5078 23.5797 42.5286 23.6834C42.57 23.7871 42.6115 23.8908 42.6738 24.0153L42.2589 24.2435Z"
        fill="white" />
    <path
        d="M44.0431 20.551L44.1468 21.0074C44.2713 20.8829 44.4372 20.7792 44.6447 20.6547C44.8522 20.5303 45.0596 20.4888 45.2463 20.4888C45.6612 20.4888 45.9517 20.6547 46.1176 21.0074C46.5118 20.6755 46.9267 20.4888 47.3209 20.4888C47.6321 20.4888 47.881 20.5925 48.0677 20.7792C48.2545 20.9659 48.3374 21.2771 48.3374 21.692V23.8911C48.3374 23.9741 48.3167 24.057 48.2544 24.1193C48.1922 24.1815 48.1092 24.2023 48.0055 24.2023H47.6736V21.5883C47.6736 21.4431 47.6321 21.3186 47.5698 21.2356C47.4869 21.1526 47.4039 21.1111 47.2794 21.1111C46.989 21.1111 46.657 21.2356 46.2836 21.4638V23.8911C46.2836 23.9741 46.2629 24.057 46.2006 24.1193C46.1384 24.1815 46.0761 24.2023 45.9724 24.2023H45.6197V21.5883C45.6197 21.4431 45.5783 21.3186 45.516 21.2356C45.433 21.1526 45.35 21.0904 45.2256 21.0904C45.0804 21.0904 44.9144 21.1319 44.7692 21.1941C44.6032 21.2564 44.4372 21.3601 44.2298 21.5053V23.8703C44.2298 23.9533 44.209 24.0363 44.1468 24.0985C44.0846 24.1608 44.0223 24.1815 43.9186 24.1815H43.5659V20.551H44.0431Z"
        fill="white" />
    <path
        d="M18.9408 0.842458L12.6549 15.8623H8.5472L5.45609 3.87133C5.26937 3.12448 5.10341 2.85478 4.52253 2.5436C3.58897 2.0457 2.05379 1.56856 0.68457 1.25737L0.767558 0.821692H7.38543C8.23601 0.821692 8.98286 1.38183 9.16957 2.35688L10.8085 11.0493L14.8539 0.821692H18.9408V0.842458ZM35.0187 10.9664C35.0395 7.00392 29.5419 6.77573 29.5834 5.01234C29.6041 4.47295 30.102 3.89208 31.2223 3.74686C31.7824 3.66388 33.3176 3.62237 35.0602 4.41071L35.7448 1.23661C34.8113 0.904675 33.608 0.572754 32.1143 0.572754C28.2764 0.572754 25.5794 2.60584 25.5587 5.53099C25.5379 7.68854 27.488 8.89178 28.961 9.61788C30.4754 10.344 30.9733 10.8211 30.9733 11.485C30.9526 12.5015 29.7701 12.9372 28.6498 12.9579C26.6997 12.9994 25.5587 12.4393 24.6666 12.0036L23.9613 15.3022C24.8741 15.7171 26.5337 16.0906 28.2764 16.0906C32.3425 16.1113 34.998 14.0782 35.0187 10.9664ZM45.1634 15.8623H48.7524L45.6198 0.842458H42.3005C41.5536 0.842458 40.9313 1.2781 40.6408 1.94197L34.8113 15.8623H38.8982L39.7073 13.6218H44.6862L45.1634 15.8623ZM40.8275 10.5514L42.8814 4.90861L44.0639 10.5514H40.8275ZM24.4799 0.842458L21.2643 15.8623H17.3849L20.6005 0.842458H24.4799Z"
        fill="white" />
</svg>
