<svg fill="none" height="279" viewBox="0 0 181 279" width="181" xmlns="http://www.w3.org/2000/svg">
<g clip-path="url(#clip0_579_65808)">
<path d="M188.187 -9H-7.43359V287.981H188.187V-9Z" fill="#FFE816"/>
<path d="M66.9017 185.832C86.0399 185.832 101.554 170.315 101.554 151.174C101.554 132.033 86.0399 116.516 66.9017 116.516C47.7636 116.516 32.249 132.033 32.249 151.174C32.249 170.315 47.7636 185.832 66.9017 185.832Z" fill="#E53E51"/>
<path d="M247.468 201.652V215.683C244.45 215.608 241.6 214.9 239.029 213.689C231.949 210.335 227.068 203.142 227.068 194.776V166.546C227.068 162.689 223.938 159.558 220.063 159.558C216.206 159.558 213.077 162.689 213.077 166.546V178.9C213.077 178.975 213.077 195.577 213.077 195.577C212.909 201.484 210.245 206.776 206.127 210.447C202.457 213.707 197.632 215.701 192.341 215.701H191.987C188.782 215.701 185.764 214.975 183.044 213.707C176.02 210.372 171.139 203.254 171.083 194.981V166.565C171.083 162.707 167.953 159.577 164.097 159.577C160.24 159.577 157.111 162.707 157.111 166.565V178.919C157.111 178.993 157.111 195.596 157.111 195.596C156.924 201.502 154.279 206.794 150.161 210.465C146.491 213.726 141.666 215.72 136.375 215.72H136.021C132.816 215.72 129.798 214.993 127.078 213.726C119.999 210.372 115.117 203.18 115.117 194.813V166.583C115.117 162.726 111.988 159.596 108.112 159.596C104.256 159.596 101.126 162.726 101.126 166.583V178.937C101.126 179.012 101.126 195.614 101.126 195.614C100.958 201.521 98.2941 206.813 94.1768 210.484C90.5066 213.745 85.6813 215.739 80.3902 215.739H80.0362C68.4853 215.739 59.1328 206.384 59.1328 194.832V152.571C59.1328 148.695 62.2627 145.565 66.1379 145.565C69.9385 145.565 73.0312 148.602 73.1429 152.384V194.701C73.1429 198.558 76.2729 201.689 80.1294 201.689C83.9859 201.689 87.1158 198.558 87.1158 194.701L87.1344 165.67C87.3207 159.763 89.9663 154.471 94.0836 150.801C97.7538 147.54 102.579 145.546 107.87 145.546H108.224C111.447 145.546 114.484 146.273 117.223 147.577C124.265 150.931 129.146 158.124 129.146 166.453V194.683C129.146 198.54 132.276 201.67 136.151 201.67C140.008 201.67 143.138 198.54 143.138 194.683L143.156 165.652C143.324 159.745 145.988 154.453 150.105 150.782C153.776 147.521 158.601 145.527 163.892 145.527H164.246C167.469 145.527 170.506 146.254 173.245 147.558C180.156 150.912 185 158.012 185.075 166.266V194.683C185.075 198.54 188.205 201.67 192.061 201.67C195.918 201.67 199.048 198.54 199.048 194.683L199.066 165.652C199.234 159.745 201.898 154.453 206.016 150.782C209.686 147.521 214.511 145.527 219.802 145.527H220.156C223.379 145.527 226.416 146.254 229.155 147.558C236.197 150.912 241.078 158.105 241.078 166.434V194.664C241.078 198.353 243.891 201.353 247.468 201.652Z" fill="white"/>
<path d="M66.0637 159.485C69.9325 159.485 73.0687 156.348 73.0687 152.479C73.0687 148.609 69.9325 145.473 66.0637 145.473C62.1949 145.473 59.0586 148.609 59.0586 152.479C59.0586 156.348 62.1949 159.485 66.0637 159.485Z" fill="#FFE816"/>
<path d="M144.069 264.84H145.429C145.932 264.84 146.305 264.952 146.566 265.194C146.827 265.436 146.939 265.771 146.939 266.181C146.939 266.628 146.789 266.964 146.51 267.206C146.231 267.448 145.802 267.56 145.243 267.56H144.666V269.125C144.666 269.311 144.572 269.404 144.368 269.404H144.051V264.84H144.069ZM145.299 267.038C145.653 267.038 145.914 266.964 146.081 266.815C146.249 266.666 146.324 266.461 146.324 266.181C146.324 265.902 146.249 265.697 146.1 265.548C145.951 265.417 145.709 265.343 145.392 265.343H144.703V267.038H145.299V267.038Z" fill="black"/>
<path d="M147.553 264.84H148.13V269.143C148.13 269.218 148.112 269.293 148.056 269.348C148 269.404 147.944 269.423 147.851 269.423H147.553V264.84Z" fill="black"/>
<path d="M151.204 269.481C151.111 269.425 151.037 269.369 150.999 269.313C150.944 269.257 150.906 269.145 150.869 269.015C150.776 269.145 150.664 269.257 150.496 269.35C150.347 269.443 150.18 269.481 149.993 269.481C149.677 269.481 149.435 269.387 149.248 269.201C149.062 269.015 148.969 268.773 148.969 268.437C148.969 268.139 149.081 267.897 149.285 267.729C149.49 267.562 149.788 267.487 150.161 267.487C150.385 267.487 150.608 267.506 150.813 267.543V267.208C150.813 267.021 150.757 266.872 150.664 266.761C150.571 266.667 150.403 266.612 150.18 266.612C150.012 266.612 149.844 266.63 149.714 266.667C149.584 266.705 149.435 266.761 149.304 266.854L149.155 266.481C149.416 266.22 149.789 266.09 150.236 266.09C150.627 266.09 150.925 266.183 151.13 266.388C151.335 266.593 151.428 266.854 151.428 267.189V268.642C151.428 268.773 151.447 268.884 151.465 268.959C151.484 269.052 151.54 269.127 151.614 269.201L151.204 269.481ZM150.198 267.934C149.975 267.934 149.826 267.972 149.714 268.065C149.621 268.139 149.565 268.27 149.565 268.437C149.565 268.586 149.602 268.717 149.695 268.81C149.788 268.903 149.919 268.959 150.087 268.959C150.217 268.959 150.347 268.922 150.478 268.847C150.608 268.773 150.72 268.661 150.813 268.549V268.009C150.608 267.953 150.403 267.934 150.198 267.934Z" fill="black"/>
<path d="M153.589 268.94C153.682 268.94 153.776 268.94 153.831 268.921C153.887 268.903 153.98 268.865 154.055 268.828L154.223 269.219C154.055 269.406 153.831 269.48 153.515 269.48C153.217 269.48 152.993 269.406 152.825 269.238C152.658 269.07 152.583 268.828 152.583 268.512V266.686H152.062V266.276L152.583 266.183V265.195H153.179V266.183H154.018V266.686H153.179V268.456C153.198 268.772 153.328 268.94 153.589 268.94Z" fill="black"/>
<path d="M155.601 265.325C155.527 265.399 155.434 265.437 155.322 265.437C155.21 265.437 155.117 265.399 155.042 265.325C154.986 265.25 154.949 265.157 154.949 265.064C154.949 264.952 154.986 264.859 155.042 264.785C155.098 264.71 155.191 264.691 155.322 264.691C155.452 264.691 155.545 264.729 155.601 264.785C155.657 264.859 155.694 264.934 155.694 265.064C155.694 265.157 155.676 265.25 155.601 265.325ZM155.601 266.182V269.144C155.601 269.219 155.583 269.293 155.527 269.349C155.471 269.405 155.415 269.424 155.322 269.424H155.005V266.182H155.601Z" fill="black"/>
<path d="M157.147 266.18L157.241 266.59C157.427 266.441 157.613 266.329 157.818 266.236C158.004 266.161 158.191 266.105 158.377 266.105C158.656 266.105 158.88 266.199 159.029 266.366C159.178 266.534 159.271 266.795 159.271 267.112V269.142C159.271 269.217 159.253 269.291 159.197 269.347C159.141 269.403 159.085 269.422 158.992 269.422H158.694V267.167C158.694 267 158.656 266.869 158.582 266.776C158.507 266.683 158.414 266.646 158.284 266.646C158.042 266.646 157.706 266.776 157.315 267.018V269.124C157.315 269.198 157.296 269.273 157.241 269.329C157.185 269.384 157.129 269.403 157.036 269.403H156.682V266.161H157.147V266.18Z" fill="black"/>
<path d="M162.44 269.48C162.366 269.443 162.291 269.387 162.235 269.313C162.179 269.238 162.123 269.145 162.086 269.015C161.9 269.164 161.714 269.294 161.527 269.369C161.341 269.443 161.192 269.48 161.024 269.48C160.745 269.48 160.521 269.387 160.354 269.219C160.186 269.052 160.111 268.791 160.111 268.474V266.164H160.689V268.418C160.689 268.586 160.726 268.716 160.801 268.81C160.875 268.903 160.968 268.94 161.099 268.94C161.248 268.94 161.397 268.903 161.546 268.847C161.695 268.791 161.863 268.698 162.03 268.567V266.164H162.626V268.642C162.626 268.754 162.645 268.847 162.664 268.94C162.701 269.033 162.738 269.126 162.794 269.238L162.44 269.48Z" fill="black"/>
<path d="M164.041 266.181L164.134 266.591C164.246 266.479 164.395 266.386 164.581 266.274C164.767 266.162 164.954 266.125 165.121 266.125C165.494 266.125 165.755 266.274 165.885 266.572C166.239 266.274 166.612 266.125 166.966 266.125C167.245 266.125 167.469 266.218 167.618 266.386C167.786 266.554 167.86 266.833 167.86 267.206V269.162C167.86 269.236 167.842 269.311 167.786 269.367C167.73 269.423 167.655 269.441 167.562 269.441H167.264V267.112C167.264 266.982 167.227 266.87 167.171 266.796C167.115 266.721 167.022 266.684 166.91 266.684C166.649 266.684 166.37 266.796 166.016 267.001V269.162C166.016 269.236 165.997 269.311 165.941 269.367C165.885 269.423 165.829 269.441 165.736 269.441H165.438V267.112C165.438 266.982 165.401 266.87 165.345 266.796C165.27 266.721 165.196 266.684 165.084 266.684C164.954 266.684 164.805 266.721 164.674 266.777C164.525 266.833 164.376 266.926 164.19 267.057V269.162C164.19 269.236 164.171 269.311 164.115 269.367C164.06 269.423 164.004 269.441 163.91 269.441H163.594V266.2H164.041V266.181Z" fill="black"/>
<path d="M141.61 248.589L135.984 262.005H132.314L129.556 251.31C129.389 250.657 129.24 250.415 128.737 250.136C127.898 249.688 126.52 249.26 125.309 248.999L125.383 248.608H131.289C132.034 248.608 132.724 249.111 132.891 249.968L134.344 257.738L137.959 248.608H141.61V248.589ZM155.974 257.608C155.993 254.067 151.075 253.881 151.112 252.297C151.13 251.813 151.578 251.31 152.584 251.179C153.087 251.123 154.447 251.067 156.012 251.775L156.626 248.924C155.788 248.626 154.708 248.328 153.385 248.328C149.957 248.328 147.535 250.154 147.516 252.763C147.498 254.701 149.23 255.763 150.553 256.415C151.894 257.067 152.36 257.496 152.36 258.074C152.36 258.968 151.28 259.378 150.292 259.378C148.541 259.415 147.535 258.912 146.734 258.539L146.1 261.483C146.92 261.856 148.41 262.173 149.957 262.192C153.59 262.21 155.974 260.403 155.974 257.608ZM165.029 261.987H168.233L165.439 248.57H162.476C161.806 248.57 161.247 248.962 161.005 249.558L155.807 261.987H159.44L160.166 259.993H164.619L165.029 261.987ZM161.154 257.235L162.979 252.204L164.023 257.235H161.154ZM146.566 248.589L143.697 262.005H140.232L143.101 248.589H146.566Z" fill="black"/>
<path d="M128.345 37.8063C128.587 38.1417 128.792 38.5144 128.923 38.9243C129.053 39.3343 129.128 39.7629 129.128 40.2101C129.128 40.6573 129.053 41.0858 128.923 41.4958C128.792 41.9057 128.587 42.2784 128.345 42.6138C128.01 43.061 128.103 43.7132 128.55 44.0486C128.997 44.384 129.649 44.2908 129.985 43.8436C130.357 43.3405 130.655 42.7815 130.86 42.1666C131.065 41.5517 131.177 40.8995 131.177 40.2287C131.177 39.5579 131.065 38.9057 130.86 38.2908C130.655 37.6759 130.357 37.1169 129.985 36.6138C129.649 36.1666 128.997 36.0548 128.55 36.4088C128.103 36.707 128.01 37.3591 128.345 37.8063Z" fill="black"/>
<path d="M131.866 35.89C132.63 37.1384 133.077 38.6104 133.077 40.1943C133.077 41.7781 132.63 43.2502 131.866 44.4986C131.568 44.9831 131.717 45.6167 132.202 45.9148C132.686 46.2129 133.32 46.0639 133.618 45.5794C134.586 44.0142 135.145 42.1694 135.145 40.1943C135.145 38.2191 134.586 36.3744 133.618 34.8092C133.32 34.3247 132.686 34.1757 132.202 34.4738C131.717 34.7906 131.568 35.4241 131.866 35.89Z" fill="black"/>
<path d="M135.592 33.9529C136.673 35.7976 137.288 37.9218 137.288 40.2138C137.288 42.5057 136.673 44.6299 135.592 46.4746C135.313 46.9591 135.481 47.5927 135.965 47.8722C136.449 48.1517 137.083 48.0026 137.362 47.4995C138.61 45.3566 139.337 42.8597 139.337 40.1951C139.337 37.5305 138.629 35.0336 137.362 32.8908C137.083 32.4063 136.449 32.2386 135.965 32.5181C135.481 32.8349 135.313 33.4498 135.592 33.9529Z" fill="black"/>
<path d="M139.318 31.9952C140.697 34.4176 141.479 37.2126 141.479 40.2126C141.479 43.2126 140.697 46.0076 139.318 48.43C139.039 48.9145 139.206 49.548 139.709 49.8275C140.212 50.107 140.827 49.9393 141.107 49.4362C142.653 46.7157 143.547 43.548 143.547 40.194C143.547 36.8399 142.653 33.6722 141.107 30.9517C140.827 30.4486 140.194 30.2809 139.709 30.5604C139.206 30.8586 139.039 31.4921 139.318 31.9952Z" fill="black"/>
<path d="M111.801 23.8516C112.751 23.8516 113.515 24.6155 113.515 25.5658V54.2615C113.515 55.2118 112.751 55.9758 111.801 55.9758H89.8546C88.9045 55.9758 88.1406 55.2118 88.1406 54.2615V25.5658C88.1406 24.6155 88.9045 23.8516 89.8546 23.8516H111.801V23.8516Z" fill="url(#paint0_linear_579_65808)"/>
<path d="M104.256 43.3415H97.4004V36.4844H103.921H104.256V43.3415ZM103.921 36.8384H103.586H103.921ZM103.586 42.6707V37.1552H98.0711V42.6707H103.586Z" fill="#92855F"/>
<path d="M97.7354 40.2488H88.1406V39.5781H97.7354V40.2488Z" fill="#92855F"/>
<path d="M113.516 40.2488H103.921V39.5781H113.516V40.2488Z" fill="#92855F"/>
<path d="M97.4937 37.0627L93.2832 32.8516V23.8516H93.9539V32.5721L97.9781 36.5969L97.4937 37.0627Z" fill="#92855F"/>
<path d="M108.373 32.8329L104.162 37.0627L103.678 36.5969L107.721 32.5721V23.8516H108.373V32.8329Z" fill="#92855F"/>
<path d="M93.9539 47.2749V55.9768H93.2832V46.9954L97.5123 42.7843V42.7656L97.9781 43.2501L93.9539 47.2749Z" fill="#92855F"/>
<path d="M108.373 55.9768H107.721L107.702 47.2749L103.678 43.2501L104.162 42.7656L108.373 46.9954V55.9768Z" fill="#92855F"/>
<path d="M101.163 36.8392H100.492V23.8516H101.163V36.8392Z" fill="#92855F"/>
<path d="M101.163 55.9767H100.492V43.0078H101.163V55.9767Z" fill="#92855F"/>
<path d="M53.9351 39.5582V47.7383C53.9351 48.4837 53.3203 49.0986 52.5751 49.0986C51.8298 49.0986 51.2337 48.5023 51.215 47.7756V39.5768C51.215 38.8315 50.6002 38.2166 49.855 38.2166C49.1098 38.2166 48.495 38.8315 48.495 39.5768V41.9619C48.495 41.9806 48.495 45.1855 48.495 45.1855C48.4577 46.3222 47.9547 47.347 47.1536 48.0551C46.4456 48.6886 45.5141 49.0613 44.4894 49.0613H44.4149C42.1792 49.0613 40.3721 47.2539 40.3721 45.0178V40.9185C40.3721 40.1731 40.9869 39.5582 41.7321 39.5582C42.4773 39.5582 43.0735 40.1545 43.0921 40.8812V44.9992C43.0921 45.7445 43.7069 46.3594 44.4522 46.3594C45.1974 46.3594 45.8122 45.7445 45.8122 44.9992V39.3719C45.8494 38.2352 46.3525 37.2104 47.1536 36.5023C47.8615 35.8688 48.7931 35.4961 49.8177 35.4961H49.8923C52.1279 35.5147 53.9351 37.3222 53.9351 39.5582Z" fill="black"/>
<path d="M36.3298 49.1C35.5845 49.1 34.9697 48.4851 34.9697 47.7397V31.454C34.9697 30.7087 35.5845 30.0938 36.3298 30.0938C37.075 30.0938 37.6898 30.7087 37.6898 31.454V47.7397C37.6711 48.4851 37.075 49.1 36.3298 49.1Z" fill="black"/>
<path d="M26.846 35.5161V31.454C26.846 30.7087 26.2312 30.0938 25.486 30.0938C24.7408 30.0938 24.126 30.7087 24.126 31.454V45.0937C24.126 47.3111 25.9331 49.1186 28.1502 49.1186H28.2433C30.4603 49.1186 32.2675 47.3111 32.2675 45.0937V39.5782C32.2675 37.3422 30.4603 35.5347 28.2247 35.5347H26.846V35.5161ZM28.1874 46.3795C27.4422 46.3795 26.8274 45.7646 26.8274 45.0192V39.5782C26.8274 38.8329 27.4422 38.218 28.1874 38.218C28.9326 38.218 29.5474 38.8329 29.5474 39.5782V45.0192C29.5474 45.7832 28.9326 46.3795 28.1874 46.3795Z" fill="black"/>
<path d="M64.8154 39.5978V36.8959C64.8154 36.1505 64.2006 35.5356 63.4554 35.5356C62.7102 35.5356 62.0954 36.1505 62.0954 36.8959V39.5978C62.0954 40.3431 61.4806 40.958 60.7353 40.958C59.9901 40.958 59.3753 40.3431 59.3753 39.5978V31.4735C59.3753 30.7282 58.7605 30.1133 58.0153 30.1133C57.2701 30.1133 56.6553 30.7282 56.6553 31.4735V47.7406C56.6553 48.4859 57.2701 49.1009 58.0153 49.1009C58.7605 49.1009 59.3753 48.4859 59.3753 47.7406V45.0201C59.3753 44.2748 59.9901 43.6599 60.7353 43.6599C61.4806 43.6599 62.0954 44.2748 62.0954 45.0201V47.7406C62.0954 48.4859 62.7102 49.1009 63.4554 49.1009C64.2006 49.1009 64.8154 48.4859 64.8154 47.7406V45.0201C64.8154 43.9766 64.4242 43.0263 63.7721 42.2996C64.4055 41.5915 64.8154 40.6412 64.8154 39.5978Z" fill="black"/>
<path d="M41.7497 38.2357C41.0045 38.2357 40.3896 37.6209 40.3896 36.8757C40.3896 36.1304 41.0045 35.5156 41.7497 35.5156C42.4949 35.5156 43.1097 36.1304 43.1097 36.8757C43.0911 37.6209 42.4949 38.2357 41.7497 38.2357Z" fill="#E53E51"/>
</g>
<defs>
<linearGradient gradientUnits="userSpaceOnUse" id="paint0_linear_579_65808" x1="91.7217" x2="104.055" y1="20.9822" y2="46.6172">
<stop stop-color="#FFCE44"/>
<stop offset="0.094634" stop-color="#FFCF48"/>
<stop offset="0.1977" stop-color="#FFD256"/>
<stop offset="0.3047" stop-color="#FFD76B"/>
<stop offset="0.4138" stop-color="#FFDF8A"/>
<stop offset="0.478" stop-color="#FFE49F"/>
<stop offset="0.5528" stop-color="#FFDE88"/>
<stop offset="0.6688" stop-color="#FFD76A"/>
<stop offset="0.7834" stop-color="#FFD255"/>
<stop offset="0.895" stop-color="#FFCF48"/>
<stop offset="1" stop-color="#FFCE44"/>
</linearGradient>
<clipPath id="clip0_579_65808">
<rect fill="white" height="279" rx="12" width="180.529"/>
</clipPath>
</defs>
</svg>
