<svg width="23" height="23" viewBox="0 0 23 23" fill="none" xmlns="http://www.w3.org/2000/svg">
<path d="M14.0494 5C15.0262 5.19057 15.9238 5.66826 16.6275 6.37194C17.3312 7.07561 17.8089 7.97326 17.9994 8.95M14.0494 1C16.0787 1.22544 17.971 2.13417 19.4157 3.57701C20.8603 5.01984 21.7715 6.91101 21.9994 8.94M20.9994 16.92V19.92C21.0006 20.1985 20.9435 20.4742 20.832 20.7293C20.7204 20.9845 20.5567 21.2136 20.3515 21.4019C20.1463 21.5901 19.904 21.7335 19.6402 21.8227C19.3764 21.9119 19.0968 21.9451 18.8194 21.92C15.7423 21.5856 12.7864 20.5341 10.1894 18.85C7.77327 17.3147 5.72478 15.2662 4.18945 12.85C2.49942 10.2412 1.44769 7.27099 1.11944 4.18C1.09446 3.90347 1.12732 3.62476 1.21595 3.36162C1.30457 3.09849 1.44702 2.85669 1.63421 2.65162C1.82141 2.44655 2.04925 2.28271 2.30324 2.17052C2.55722 2.05833 2.83179 2.00026 3.10945 2H6.10945C6.59475 1.99522 7.06524 2.16708 7.43321 2.48353C7.80118 2.79999 8.04152 3.23945 8.10944 3.72C8.23607 4.68007 8.47089 5.62273 8.80945 6.53C8.94399 6.88792 8.97311 7.27691 8.89335 7.65088C8.8136 8.02485 8.62831 8.36811 8.35944 8.64L7.08945 9.91C8.513 12.4135 10.5859 14.4864 13.0894 15.91L14.3594 14.64C14.6313 14.3711 14.9746 14.1858 15.3486 14.1061C15.7225 14.0263 16.1115 14.0555 16.4694 14.19C17.3767 14.5286 18.3194 14.7634 19.2794 14.89C19.7652 14.9585 20.2088 15.2032 20.526 15.5775C20.8431 15.9518 21.0116 16.4296 20.9994 16.92Z" stroke="black" stroke-width="1.5" stroke-linecap="round" stroke-linejoin="round"/>
</svg>
