<svg width="281" height="218" viewBox="0 0 281 218" fill="none" xmlns="http://www.w3.org/2000/svg">
<g clip-path="url(#clip0_5056_26587)">
<g clip-path="url(#clip1_5056_26587)">
<path d="M19.1758 103.889C19.231 101.112 21.4954 98.8912 24.257 98.9097C24.6067 98.9097 24.9381 98.9468 25.2695 99.0208C25.2143 98.7246 25.1959 98.41 25.1959 98.0953C25.1959 95.2263 27.5155 92.9126 30.3691 92.9311C31.3816 92.9311 32.3206 93.2273 33.1122 93.7456C34.1984 91.5429 36.4444 90.0251 39.0586 90.0251C42.4461 90.0251 45.2444 92.6165 45.5942 95.9297C45.9256 95.8927 46.257 95.8742 46.6067 95.8742C51.0988 95.8742 54.7256 99.5205 54.7992 104L42.1699 103.963L25.1038 103.907L19.1758 103.889Z" fill="white"/>
<path d="M237.998 54.5053C238.034 52.7099 239.489 51.2847 241.275 51.2847C241.496 51.2847 241.716 51.3032 241.919 51.3587C241.882 51.1736 241.864 50.97 241.864 50.7664C241.864 48.9154 243.373 47.4162 245.196 47.4347C245.84 47.4347 246.448 47.6383 246.963 47.9529C247.663 46.5277 249.117 45.5467 250.811 45.5652C253.002 45.5652 254.806 47.2311 255.027 49.3782C255.248 49.3597 255.469 49.3411 255.671 49.3411C258.562 49.3411 260.918 51.6919 260.955 54.5979H252.799L241.772 54.5423H237.942L237.998 54.5053Z" stroke="#FFE816" stroke-width="0.168837" stroke-miterlimit="10"/>
<path d="M81.3464 43.1774C81.3832 41.493 82.7456 40.1418 84.4393 40.1418C84.6418 40.1418 84.8443 40.1603 85.0468 40.1973C85.01 40.0122 84.9916 39.8271 84.9916 39.642C84.9916 37.9022 86.4092 36.4954 88.1397 36.4954C88.7472 36.4954 89.3179 36.6805 89.815 36.9767C90.4778 35.644 91.8401 34.7185 93.4234 34.7185C95.4853 34.7185 97.179 36.2918 97.4 38.3094C97.6025 38.2909 97.805 38.2723 98.0075 38.2723C100.732 38.2723 102.941 40.4935 102.978 43.2144H95.3012L84.9179 43.1589H81.3096L81.3464 43.1774Z" stroke="#FFE816" stroke-width="0.159457" stroke-miterlimit="10"/>
<path d="M105.611 53.302L86.8509 60.9465L78.2902 55.6712L77.4802 55.5972L72.5095 57.6147L72.1597 59.0215L77.0015 64.963L59.5488 72.0707L50.0492 67.1101L49.3128 67.0731L44.1948 69.1647L43.8818 70.6085L52.4609 79.6596L48.3923 81.3255C47.932 81.5106 47.7111 82.0289 47.8952 82.4916C48.0793 82.9543 48.5948 83.1764 49.0551 82.9914L54.0442 80.9553C61.132 83.306 68.717 82.4546 79.3028 78.1418L82.635 76.7906L83.5002 87.1375L84.7337 87.8964L89.7044 85.8788L90.2383 85.268L93.5337 72.3669L112.33 64.7039C118.884 62.0385 119.179 56.4672 119.197 56.245L118.958 55.5972C118.958 55.5972 113.766 50.0073 105.648 53.302M74.3505 58.8364L77.7747 57.4482L84.8442 61.7979L78.7873 64.2782L74.3689 58.8549L74.3505 58.8364ZM111.668 63.038L94.086 70.2012L94.6199 68.1467C94.7488 67.6654 94.4542 67.1842 93.9756 67.0546C93.4969 66.9251 93.0182 67.2212 92.8894 67.7025L88.6366 84.3981L85.2124 85.7863L84.071 72.1448C84.0341 71.645 83.5923 71.2933 83.1136 71.3303C82.6166 71.3673 82.2484 71.8116 82.3036 72.2928L82.5245 74.9212L78.6768 76.4945C69.6007 80.1964 62.881 81.2515 56.8057 79.8632L60.8191 78.2344C61.2793 78.0493 61.5002 77.531 61.3161 77.0683C61.132 76.6056 60.6166 76.3834 60.1563 76.5685L54.2835 78.9563L46.1279 70.3493L49.6626 68.9056L59.1622 73.8661C59.1622 73.8661 59.1806 73.8661 59.199 73.8661C59.2174 73.8661 59.2542 73.8846 59.2726 73.9032C59.3095 73.9032 59.3279 73.9217 59.3647 73.9217C59.3831 73.9217 59.4199 73.9217 59.4383 73.9217C59.4751 73.9217 59.4936 73.9217 59.5304 73.9217C59.5488 73.9217 59.5856 73.9217 59.6224 73.9217C59.6408 73.9217 59.6777 73.9217 59.7145 73.9217C59.7513 73.9217 59.7697 73.9217 59.8065 73.9217C59.8433 73.9217 59.8618 73.9217 59.8986 73.9032C59.8986 73.9032 59.917 73.9032 59.9354 73.9032L106.384 54.9679C109.587 53.6722 112.202 53.9128 114.116 54.5792L108.372 56.9299C107.912 57.115 107.691 57.6333 107.875 58.096C108.059 58.5587 108.575 58.7808 109.035 58.5958L116.27 55.6527C116.804 56.0044 117.191 56.3376 117.448 56.5412C117.264 57.6888 116.344 61.1686 111.741 63.0566" fill="#FFE816"/>
<path d="M101.156 59.0772C100.695 59.2623 100.475 59.7806 100.659 60.2433L101.156 61.502C101.34 61.9647 101.855 62.1868 102.316 62.0017C102.776 61.8166 102.997 61.2984 102.813 60.8356L102.316 59.5955C102.131 59.1327 101.616 58.9106 101.156 59.0957" fill="#FFE816"/>
<path d="M96.9399 60.7984C96.4796 60.9835 96.2587 61.5018 96.4428 61.9645L96.9399 63.2232C97.124 63.6859 97.6394 63.908 98.0997 63.7229C98.5599 63.5378 98.7809 63.0196 98.5968 62.5568L98.0997 61.3167C97.9156 60.8539 97.4001 60.6318 96.9399 60.8169" fill="#FFE816"/>
<path d="M92.724 62.5198C92.2638 62.7049 92.0429 63.2232 92.227 63.6859L92.724 64.9446C92.9081 65.4073 93.4236 65.6294 93.8839 65.4444C94.3441 65.2593 94.565 64.741 94.3809 64.2783L93.8839 63.0381C93.6998 62.5754 93.1843 62.3533 92.724 62.5384" fill="#FFE816"/>
<path d="M88.5082 64.2413C88.048 64.4264 87.827 64.9446 88.0111 65.4074L88.5082 66.666C88.6923 67.1288 89.2078 67.3509 89.6681 67.1658C90.1283 66.9807 90.3492 66.4624 90.1651 65.9997L89.6681 64.7595C89.484 64.2968 88.9685 64.0747 88.5082 64.2598" fill="#FFE816"/>
<path d="M84.2924 65.9627C83.8321 66.1478 83.6112 66.6661 83.7953 67.1288L84.2924 68.3875C84.4765 68.8502 84.992 69.0723 85.4522 68.8872C85.9125 68.7021 86.1334 68.1839 85.9493 67.7211L85.4522 66.481C85.2681 66.0182 84.7526 65.7961 84.2924 65.9812" fill="#FFE816"/>
<path d="M80.0756 67.6841C79.6153 67.8692 79.3944 68.3875 79.5785 68.8503L80.0756 70.1089C80.2597 70.5716 80.7752 70.7938 81.2354 70.6087C81.6957 70.4236 81.9166 69.9053 81.7325 69.4426L81.2354 68.2024C81.0513 67.7397 80.5359 67.5176 80.0756 67.7027" fill="#FFE816"/>
<path d="M75.8598 69.387C75.3995 69.5721 75.1786 70.0904 75.3627 70.5531L75.8598 71.8118C76.0439 72.2745 76.5594 72.4966 77.0196 72.3115C77.4799 72.1264 77.7008 71.6082 77.5167 71.1454L77.0196 69.9053C76.8355 69.4426 76.32 69.2204 75.8598 69.4055" fill="#FFE816"/>
<path d="M71.6264 71.1082C71.1661 71.2933 70.9452 71.8116 71.1293 72.2743L71.6264 73.533C71.8105 73.9957 72.326 74.2178 72.7862 74.0327C73.2465 73.8476 73.4674 73.3294 73.2833 72.8666L72.7862 71.6265C72.6021 71.1638 72.0866 70.9416 71.6264 71.1267" fill="#FFE816"/>
<path d="M67.4096 72.8297C66.9493 73.0148 66.7284 73.533 66.9125 73.9958L67.4096 75.2544C67.5937 75.7171 68.1092 75.9393 68.5694 75.7542C69.0297 75.5691 69.2506 75.0508 69.0665 74.5881L68.5694 73.3479C68.3853 72.8852 67.8698 72.6631 67.4096 72.8482" fill="#FFE816"/>
</g>
<g clip-path="url(#clip2_5056_26587)">
<path d="M406.633 217.719V217.219H392.708V196.304L383.332 200.206V217.219H378.579C382.222 204.496 378.228 185.431 369.204 172.615L370.812 170.359C371.09 170.378 371.367 170.378 371.645 170.378C373.716 170.378 375.935 169.804 375.935 168.769C375.935 167.733 373.734 167.16 371.645 167.16C369.555 167.16 367.354 167.733 367.354 168.769C367.354 169.342 368.02 169.804 369.185 170.1L368.353 171.413C363.804 165.255 358.349 161.131 352.153 159.134L351.895 147.965H351.118L349.842 217.238H346.421V165.255H334.438V217.238H330.221V180.974L330.11 180.9L315.964 170.618V166.79L315.353 166.069V160.281H314.244V179.273H317.314V185.985H314.244V188.611H324.692V189.795H314.244V191.792H324.692V192.846H314.244V194.843H324.692V195.897H314.244V197.895H324.692V198.949H314.244V200.946H324.692V202H314.244V203.997H324.692V205.218L314.244 205.088V217.238H311.488V205.865H308.751V202.185H303.148V200.391H308.751V197.617H303.148V195.823H308.751V193.05H303.148V191.256H308.751V188.482H303.148V186.688H308.751V183.914H303.148V182.12H308.751V179.347H303.148V177.423H311.488V175.537H309.047V168.824H311.488V149.832H310.508V155.639L310.027 156.36V160.188L298.655 170.544V217.275H295.363V142.491L281.549 152.366V217.238H262.834V203.183H261.521V180.715H260.708V152.588H259.709V125.866H258.507V96.8512H257.823V83.3886H257.527V77.3785H257.176V70H256.528V75.8621H256.325V79.2648H256.011V85.2194H255.622V94.854H254.827V115.492H253.181V142.306H251.424V169.305H249.446V193.364H247.929V217.238H245.008V146.8L231.175 133.725V217.219H227.458V124.183H220.154C220.098 116.823 219.71 116.823 219.414 116.823C219.118 116.823 218.73 116.823 218.674 124.183H211.37V217.219H207.024V157.803H197.648V217.219H194.56V177.849L194.079 177.775V172.116L192.267 172.024L192.211 170.84H191.324C191.065 169.379 189.863 168.214 188.383 168.048V166.476H187.496V168.048C185.85 168.288 184.611 169.712 184.611 171.395C184.611 172.745 185.406 173.91 186.534 174.446H184.518L183.723 177.183H183.242L183.187 177.368C183.113 177.608 183.039 177.886 182.965 178.163L182.873 178.477H187.792C187.755 178.644 187.736 178.792 187.699 178.958H182.725L181.855 182.009H187.07C187.033 182.176 186.996 182.342 186.959 182.49H181.707L180.875 185.542H186.294C186.257 185.708 186.22 185.874 186.183 186.022H180.746L179.932 189.074H185.406C185.369 189.24 185.314 189.407 185.277 189.554H179.821L179.322 191.515C179.248 191.774 179.192 192.051 179.119 192.31L179.045 192.624H184.389C184.333 192.791 184.296 192.957 184.241 193.105H178.915L178.86 193.29C178.786 193.549 178.73 193.826 178.675 194.085L178.434 195.065C178.379 195.324 178.305 195.602 178.249 195.86L178.175 196.156H183.187C183.131 196.323 183.057 196.489 183.002 196.637H178.064L178.027 196.822C177.972 197.081 177.916 197.358 177.843 197.617L177.602 198.708C177.547 198.93 177.51 199.171 177.454 199.393L177.399 199.688H181.744C181.671 199.855 181.596 200.021 181.523 200.169H177.306L177.269 200.373C177.214 200.632 177.158 200.909 177.103 201.168L176.918 202.148C176.862 202.425 176.825 202.684 176.77 202.943L176.715 203.239H179.969C179.877 203.405 179.784 203.572 179.692 203.72H176.622L176.585 203.923C176.548 204.201 176.493 204.459 176.456 204.718L176.308 205.698C176.271 205.976 176.234 206.235 176.197 206.494L176.086 207.474C176.067 207.751 176.03 208.029 176.012 208.269V208.528H176.899C176.123 209.989 175.531 211.339 175.032 212.837V212.874V217.145H170.945V195.768L161.569 191.644V217.127H157.612V203.664H147.737V217.127H-4.5127V217.626H148.236V204.164H157.131V217.626H162.068V192.402L170.464 196.082V217.626H175.549V212.948C176.086 211.357 176.714 209.952 177.565 208.38L177.769 208.01H176.567C176.567 207.844 176.604 207.659 176.622 207.492L176.733 206.512C176.77 206.253 176.807 205.994 176.844 205.735L176.992 204.755C177.029 204.57 177.047 204.367 177.084 204.164H180.025L180.099 204.034C180.284 203.72 180.45 203.387 180.653 203.054L180.857 202.684H177.362C177.399 202.518 177.417 202.351 177.454 202.185L177.639 201.205C177.676 201.001 177.713 200.816 177.75 200.613H181.892L181.966 200.465C182.114 200.151 182.262 199.818 182.41 199.485L182.558 199.134H178.064C178.083 199.004 178.12 198.875 178.138 198.745L178.379 197.654C178.416 197.451 178.471 197.247 178.508 197.062H183.39L183.446 196.896C183.557 196.582 183.686 196.249 183.816 195.916L183.927 195.583H178.841C178.878 195.417 178.915 195.25 178.952 195.102L179.193 194.122C179.248 193.919 179.285 193.715 179.34 193.512H184.629L184.685 193.345C184.796 193.031 184.888 192.698 184.999 192.365L185.092 192.051H179.71C179.747 191.885 179.784 191.718 179.84 191.57L180.247 189.98H185.702L185.757 189.795C185.85 189.48 185.924 189.148 186.016 188.815L186.09 188.5H180.616L181.153 186.429H186.59L186.626 186.244C186.7 185.93 186.774 185.597 186.848 185.264L186.922 184.968H181.541L182.114 182.897H187.385L187.422 182.694C187.496 182.379 187.551 182.046 187.625 181.714L187.681 181.418H182.503L183.094 179.347H188.106L188.143 179.143C188.198 178.829 188.272 178.496 188.328 178.163L188.383 177.867H183.52C183.557 177.756 183.575 177.664 183.612 177.571H184.093L184.888 174.834H188.92L189.068 174.002L188.698 174.095C188.457 174.15 188.217 174.187 187.976 174.187C186.386 174.187 185.073 172.893 185.073 171.284C185.073 169.786 186.238 168.528 187.736 168.399H187.902H188.106C189.53 168.473 190.695 169.582 190.843 170.988V171.21H191.712L191.767 172.375L193.561 172.467V178.071L194.042 178.145V217.589H198.129V158.302H206.525V217.719H211.869V124.683H219.155V124.442C219.173 120.929 219.284 118.876 219.414 117.933C219.543 118.894 219.636 120.929 219.673 124.442V124.683H226.977V217.719H231.674V134.872L244.508 147.003V217.7H248.41V193.826H249.927V169.767H251.905V142.768H253.662V115.954H255.308V95.3533H256.103V85.7187H256.491V79.7641H256.806V77.8593H257.028V83.8509H257.324V97.3135H258.008V126.328H259.21V153.05H260.208V181.177H261.022V203.646H262.335V217.7H282.03V152.606L294.863 143.434V217.719H299.135V170.711L310.508 160.355V156.453L310.989 155.732V168.27H308.548V175.981H310.989V176.887H302.649V179.79H308.252V181.584H302.649V184.358H308.252V186.152H302.649V188.926H308.252V190.719H302.649V193.493H308.252V195.287H302.649V198.061H308.252V199.855H302.649V202.629H308.252V206.309H310.989V217.682H314.743V205.551L325.191 205.68V203.479H324.951L314.743 203.461V202.444H325.191V200.428H324.951L314.743 200.41V199.411H325.191V197.395H324.951L314.743 197.377V196.36H325.191V194.344H324.951L314.743 194.326V193.308H325.191V191.293H324.951L314.743 191.274V190.257H325.191V188.094H314.743V186.448H317.813V178.736H314.743V160.725H314.872V166.198L315.483 166.92V170.821L315.575 170.895L329.722 181.177V217.682H334.937V165.699H345.94V217.682H350.323L351.506 152.884L351.913 170.766H359.532L359.366 170.415C357.683 166.92 355.778 163.831 353.799 161.353C356.129 163.591 358.33 166.735 360.235 170.637L360.309 170.785H363.194L362.935 170.396C359.994 165.902 356.666 162.352 353.226 160.003C358.922 162.13 363.933 166.161 368.168 171.968L368.371 172.264L369.98 169.749L369.629 169.675C368.408 169.435 367.854 169.028 367.854 168.75C367.854 168.288 369.296 167.641 371.645 167.641C373.993 167.641 375.436 168.288 375.436 168.75C375.436 169.213 373.993 169.86 371.645 169.86C371.33 169.86 371.016 169.86 370.72 169.823H370.572L368.593 172.578L368.704 172.726C377.784 185.542 381.797 204.737 378.006 217.367L377.914 217.682H383.813V200.521L392.208 197.025V217.7H406.633V217.719ZM355.353 162.315C357.775 164.405 360.105 167.123 362.25 170.322H360.586C359.014 167.123 357.239 164.423 355.353 162.315ZM352.172 160.262C354.502 162.833 356.758 166.291 358.737 170.322H352.394L352.172 160.262Z" fill="#000003"/>
<path d="M155.245 214.926C154.339 218.588 151.399 219.29 150.178 215.814C149.512 213.928 149.179 205.957 149.919 204.182C150.955 201.63 154.579 200.927 155.8 203.424C156.946 205.791 155.874 212.43 155.264 214.908" fill="#FFE816"/>
<path d="M241.291 169.989C240.81 164.552 243.51 137.701 233.598 139.772L233.172 140.623C232.729 150.128 231.157 159.559 231.841 169.083C232.248 174.871 233.209 180.622 233.339 186.429C233.45 192.217 232.507 197.931 232.433 203.683C232.396 206.549 232.137 213.835 236.057 214.723C239.996 215.61 242.197 209.397 242.955 206.678C246.247 194.825 242.363 181.898 241.309 169.989" fill="#FFE816"/>
<path d="M257.25 101.049C256.454 132.597 259.691 164.127 259.062 195.731C258.988 199.614 259.728 210.174 256.233 213.04C252.164 216.35 250.925 206.789 250.537 204.219C247.356 184.136 252.645 164.294 254.291 144.377C255.548 129.324 253.181 114.086 257.25 99.3477V101.049Z" fill="#FFE816"/>
<path d="M254.81 96.8513H258.49V212.726H254.81V96.8513ZM258.009 97.3506H255.309V212.226H258.009V97.3506Z" fill="#000003"/>
<path d="M251.388 152.477H260.689V158.154H251.388V152.477ZM251.887 152.976V157.655H260.19V152.976" fill="#000003"/>
<path d="M249.427 180.697H261.502V186.374H249.427V180.697ZM261.003 181.196H249.926V185.874H261.003V181.196Z" fill="#000003"/>
<path d="M247.911 203.165H262.816V208.842H247.911V203.165ZM262.317 203.664H248.41V208.343H262.317V203.664Z" fill="#000003"/>
<path d="M265.497 163.092L278.349 172.227V217.663H265.497V163.092ZM277.85 172.467L265.978 164.035V217.145H277.85V172.449V172.467Z" fill="#000003"/>
<path d="M265.627 163.295L266.126 163.72V174.298H266.847V164.146L267.347 164.571V174.298H268.678V165.44L269.178 165.866V174.298H271.674V167.641L272.173 167.992V174.28H274.651V169.712L275.151 170.063V174.28H276.482V171.043L276.981 171.395V174.28H277.703V171.894L278.202 172.245V217.497H265.608V163.258L265.627 163.295ZM277.98 172.393V174.539H276.778H274.966H271.988H269.011H267.199H265.997V163.831V217.275H278.091V172.393H277.98ZM265.886 213.003H267.088V217.275H265.886V213.003ZM266.847 213.243H266.126V217.016H266.847V213.243ZM267.106 213.003H268.937V217.275H267.106V213.003ZM268.678 213.243H267.347V217.016H268.678V213.243ZM268.937 213.003H271.914V217.275H268.937V213.003ZM271.674 213.243H269.178V217.016H271.674V213.243ZM271.933 213.003H274.91V217.275H271.933V213.003ZM274.67 213.243H272.173V217.016H274.67V213.243ZM274.929 213.003H276.759V217.275H274.929V213.003ZM276.501 213.243H275.169V217.016H276.501V213.243ZM276.759 213.003H277.961V217.275H276.759V213.003ZM277.721 213.243H277V217.016H277.721V213.243ZM265.886 208.731H267.088V213.003H265.886V208.731ZM266.847 208.972H266.126V212.744H266.847V208.972ZM267.106 208.731H268.937V213.003H267.106V208.731ZM268.678 208.972H267.347V212.744H268.678V208.972ZM268.937 208.731H271.914V213.003H268.937V208.731ZM271.674 208.972H269.178V212.744H271.674V208.972ZM271.933 208.731H274.91V213.003H271.933V208.731ZM274.67 208.972H272.173V212.744H274.67V208.972ZM274.929 208.731H276.759V213.003H274.929V208.731ZM276.501 208.972H275.169V212.744H276.501V208.972ZM276.759 208.731H277.961V213.003H276.759V208.731ZM277.721 208.972H277V212.744H277.721V208.972ZM265.886 204.459H267.088V208.731H265.886V204.459ZM266.847 204.7H266.126V208.472H266.847V204.7ZM267.106 204.459H268.937V208.731H267.106V204.459ZM268.678 204.7H267.347V208.472H268.678V204.7ZM268.937 204.459H271.914V208.731H268.937V204.459ZM271.674 204.7H269.178V208.472H271.674V204.7ZM271.933 204.459H274.91V208.731H271.933V204.459ZM274.67 204.7H272.173V208.472H274.67V204.7ZM274.929 204.459H276.759V208.731H274.929V204.459ZM276.501 204.7H275.169V208.472H276.501V204.7ZM276.759 204.459H277.961V208.731H276.759V204.459ZM277.721 204.7H277V208.472H277.721V204.7ZM265.886 200.188H267.088V204.459H265.886V200.188ZM266.847 200.428H266.126V204.201H266.847V200.428ZM267.106 200.188H268.937V204.459H267.106V200.188ZM268.678 200.428H267.347V204.201H268.678V200.428ZM268.937 200.188H271.914V204.459H268.937V200.188ZM271.674 200.428H269.178V204.201H271.674V200.428ZM271.933 200.188H274.91V204.459H271.933V200.188ZM274.67 200.428H272.173V204.201H274.67V200.428ZM274.929 200.188H276.759V204.459H274.929V200.188ZM276.501 200.428H275.169V204.201H276.501V200.428ZM276.759 200.188H277.961V204.459H276.759V200.188ZM277.721 200.428H277V204.201H277.721V200.428ZM265.886 195.916H267.088V200.188H265.886V195.916ZM266.847 196.156H266.126V199.929H266.847V196.156ZM267.106 195.916H268.937V200.188H267.106V195.916ZM268.678 196.156H267.347V199.929H268.678V196.156ZM268.937 195.916H271.914V200.188H268.937V195.916ZM271.674 196.156H269.178V199.929H271.674V196.156ZM271.933 195.916H274.91V200.188H271.933V195.916ZM274.67 196.156H272.173V199.929H274.67V196.156ZM274.929 195.916H276.759V200.188H274.929V195.916ZM276.501 196.156H275.169V199.929H276.501V196.156ZM276.759 195.916H277.961V200.188H276.759V195.916ZM277.721 196.156H277V199.929H277.721V196.156ZM265.886 191.644H267.088V195.916H265.886V191.644ZM266.847 191.885H266.126V195.657H266.847V191.885ZM267.106 191.644H268.937V195.916H267.106V191.644ZM268.678 191.885H267.347V195.657H268.678V191.885ZM268.937 191.644H271.914V195.916H268.937V191.644ZM271.674 191.885H269.178V195.657H271.674V191.885ZM271.933 191.644H274.91V195.916H271.933V191.644ZM274.67 191.885H272.173V195.657H274.67V191.885ZM274.929 191.644H276.759V195.916H274.929V191.644ZM276.501 191.885H275.169V195.657H276.501V191.885ZM276.759 191.644H277.961V195.916H276.759V191.644ZM277.721 191.885H277V195.657H277.721V191.885ZM265.886 187.372H267.088V191.644H265.886V187.372ZM266.847 187.613H266.126V191.385H266.847V187.613ZM267.106 187.372H268.937V191.644H267.106V187.372ZM268.678 187.613H267.347V191.385H268.678V187.613ZM268.937 187.372H271.914V191.644H268.937V187.372ZM271.674 187.613H269.178V191.385H271.674V187.613ZM271.933 187.372H274.91V191.644H271.933V187.372ZM274.67 187.613H272.173V191.385H274.67V187.613ZM274.929 187.372H276.759V191.644H274.929V187.372ZM276.501 187.613H275.169V191.385H276.501V187.613ZM276.759 187.372H277.961V191.644H276.759V187.372ZM277.721 187.613H277V191.385H277.721V187.613ZM265.886 183.101H267.088V187.372H265.886V183.101ZM266.847 183.341H266.126V187.113H266.847V183.341ZM267.106 183.101H268.937V187.372H267.106V183.101ZM268.678 183.341H267.347V187.113H268.678V183.341ZM268.937 183.101H271.914V187.372H268.937V183.101ZM271.674 183.341H269.178V187.113H271.674V183.341ZM271.933 183.101H274.91V187.372H271.933V183.101ZM274.67 183.341H272.173V187.113H274.67V183.341ZM274.929 183.101H276.759V187.372H274.929V183.101ZM276.501 183.341H275.169V187.113H276.501V183.341ZM276.759 183.101H277.961V187.372H276.759V183.101ZM277.721 183.341H277V187.113H277.721V183.341ZM265.886 178.829H267.088V183.101H265.886V178.829ZM266.847 179.069H266.126V182.842H266.847V179.069ZM267.106 178.829H268.937V183.101H267.106V178.829ZM268.678 179.069H267.347V182.842H268.678V179.069ZM268.937 178.829H271.914V183.101H268.937V178.829ZM271.674 179.069H269.178V182.842H271.674V179.069ZM271.933 178.829H274.91V183.101H271.933V178.829ZM274.67 179.069H272.173V182.842H274.67V179.069ZM274.929 178.829H276.759V183.101H274.929V178.829ZM276.501 179.069H275.169V182.842H276.501V179.069ZM276.759 178.829H277.961V183.101H276.759V178.829ZM277.721 179.069H277V182.842H277.721V179.069ZM265.886 174.557H267.088V178.829H265.886V174.557ZM266.847 174.797H266.126V178.57H266.847V174.797ZM267.106 174.557H268.937V178.829H267.106V174.557ZM268.678 174.797H267.347V178.57H268.678V174.797ZM268.937 174.557H271.914V178.829H268.937V174.557ZM271.674 174.797H269.178V178.57H271.674V174.797ZM271.933 174.557H274.91V178.829H271.933V174.557ZM274.67 174.797H272.173V178.57H274.67V174.797ZM274.929 174.557H276.759V178.829H274.929V174.557ZM276.501 174.797H275.169V178.57H276.501V174.797ZM276.759 174.557H277.961V178.829H276.759V174.557ZM277.721 174.797H277V178.57H277.721V174.797Z" fill="#000003"/>
<path d="M224.573 163.277H226.201V140.79H224.573V163.277ZM225.073 141.27H225.72V162.777H225.073V141.27Z" fill="#000003"/>
<path d="M226.201 165.255H224.573V187.742H226.201V165.255ZM225.701 187.261H225.054V165.754H225.701V187.261Z" fill="#000003"/>
<path d="M212.46 163.277H223.445V161.816L215.474 161.76V160.262H223.445V157.673H219.672V156.12H223.445V153.531H219.672V151.978H223.445V149.389H215.474V147.835H223.445V145.246H215.474V143.693H223.445V140.808H212.46V163.295V163.277ZM212.959 141.27H222.945V143.175H214.975V145.727H222.945V147.336H214.975V149.888H222.945V151.497H219.173V154.049H222.945V155.658H219.173V158.21H222.945V159.818H214.975V162.315L222.945 162.37V162.851H212.959V141.344V141.27Z" fill="#000003"/>
<path d="M212.46 187.742H223.445V186.281L215.474 186.17V184.709H223.445V182.12H219.672V180.567H223.445V177.978H219.672V176.425H223.445V173.836H215.474V172.356L223.445 172.282V169.693L215.474 169.73V168.14H223.445V165.255H212.46V187.742ZM212.959 165.736H222.945V167.641H214.975V170.23L222.945 170.193V171.801L214.975 171.875V174.335H222.945V175.944H219.173V178.496H222.945V180.105H219.173V182.657H222.945V184.265H214.975V186.707L222.945 186.817V187.298H212.959V165.791V165.736Z" fill="#000003"/>
<path d="M219.172 128.085H214.271V138.256H224.572V128.085H219.671V128.326C219.634 131.284 219.523 132.745 219.431 133.448C219.338 132.745 219.227 131.284 219.191 128.326V128.085H219.172ZM218.691 128.585C218.784 134.558 219.117 134.558 219.412 134.558C219.708 134.558 220.041 134.558 220.134 128.585H224.054V137.775H214.734V128.585H218.654H218.691Z" fill="#000003"/>
<path d="M226.201 190.701H224.573V213.928H226.201V190.701ZM225.701 213.447H225.054V191.2H225.701V213.447Z" fill="#000003"/>
<path d="M215.474 211.616V210.192H223.445V207.603H219.672V206.05H223.445V203.461H219.672V201.907H223.445V199.319H215.474V197.802L223.445 197.747V195.158H215.474V193.604H223.445V190.719H212.46V213.946H223.445V211.746L215.474 211.616ZM214.975 209.693V212.097L222.945 212.226V213.447H212.959V191.2H222.945V193.087H214.975V195.62H222.945V197.229L214.975 197.284V199.781H222.945V201.39H219.173V203.942H222.945V205.551H219.173V208.102H222.945V209.711H214.975V209.693Z" fill="#000003"/>
<path d="M-0.88863 177.016C-0.426316 170.544 3.82697 159.892 17.1971 165.255C19.6566 166.235 24.0209 169.767 24.89 172.985C26.4434 178.699 28.3111 184.284 28.4591 190.091C28.57 194.215 28.7549 198.301 29.2912 202.407C29.7535 205.865 30.6967 209.822 27.7933 213.003C21.1545 220.271 5.36184 217.663 2.53248 210.34C0.664729 205.476 1.0161 200.262 -0.111945 195.306C-1.44341 189.443 -1.33245 182.953 -0.88863 176.998" fill="#FFE816"/>
<path d="M77.8714 204.94C75.8372 212.855 63.8355 218.847 56.531 214.168C53.3132 212.116 52.9804 208.62 52.7215 205.162C52.4071 200.946 51.6489 196.785 51.39 192.587C50.9462 185.135 53.0728 176.628 61.9493 175.852C65.056 175.574 66.9608 177.46 68.7176 179.735C70.4189 181.936 72.2311 183.766 74.1359 185.764C79.0919 190.942 79.5727 198.283 77.8529 204.959" fill="#3CB4E5"/>
<path d="M30.1966 181.214L16.0498 170.932L16.3272 170.526L32.2863 180.456L32.3972 180.53V217.7H30.1781V181.196L30.1966 181.214ZM31.9164 180.807L21.9119 174.594L30.6774 180.955V217.219H31.8979V180.807H31.9164Z" fill="#000003"/>
<path d="M15.2005 206.068L15.219 179.014H14.7197V205.329L15.2005 206.068Z" fill="#000003"/>
<path d="M-2.25684 170.063L10.577 160.059L10.8914 160.429L-0.389097 170.711V217.719H-2.25684V170.063ZM-0.888376 170.489L5.76893 164.423L-1.75753 170.304V217.219H-0.869893V170.489H-0.888376Z" fill="#000003"/>
<path d="M11.9642 168.51H11.4648V206.087H11.9642V168.51Z" fill="#000003"/>
<path d="M65.2415 214.298L65.297 214.002H56.0322L54.8672 215.574H64.9641L65.0011 215.389C65.0751 215.019 65.1675 214.667 65.2415 214.298ZM64.7052 214.501C64.6683 214.704 64.6128 214.889 64.5758 215.093H55.8473L56.2911 214.501H64.7052Z" fill="#000003"/>
<path d="M1.16406 211.505H6.8043V209.582H1.16406V211.505ZM1.66334 210.081H6.32348V211.024H1.66334V210.081Z" fill="#000003"/>
<path d="M107.108 217.719V217.219H93.1649V196.304L83.7892 200.206V217.219H79.0366C82.6796 204.496 78.6852 185.431 69.6793 172.615L71.2882 170.359C71.5656 170.378 71.843 170.378 72.1019 170.378C74.173 170.378 76.3921 169.804 76.3921 168.769C76.3921 167.733 74.1915 167.16 72.1019 167.16C70.0122 167.16 67.8116 167.733 67.8116 168.769C67.8116 169.342 68.4773 169.804 69.6424 170.1L68.8102 171.413C64.261 165.255 58.8057 161.131 52.6107 159.134L52.3518 147.965H51.5751L50.2991 217.238H46.878V165.255H34.8948V217.238H30.6785V180.974L30.5676 180.9L16.4207 170.618V166.79L15.8105 166.069V160.281H14.7009V179.273H17.7707V185.985H14.7009V188.611H25.1492V189.795H14.7009V191.792H25.1492V192.846H14.7009V194.843H25.1492V195.897H14.7009V197.895H25.1492V198.949H14.7009V200.946H25.1492V202H14.7009V203.997H25.1492V205.218L14.7009 205.088V217.238H11.9455V205.865H9.20863V202.185H3.60538V200.391H9.20863V197.617H3.60538V195.823H9.20863V193.05H3.60538V191.256H9.20863V188.482H3.60538V186.688H9.20863V183.914H3.60538V182.12H9.20863V179.347H3.60538V177.423H11.9455V175.537H9.50452V168.824H11.9455V149.832H10.9654V155.639L10.4846 156.36V160.188L-0.888299 170.544V217.275H-4.17997V142.491L-18.0124 152.366V217.238H-36.7269V203.183H-38.0399V180.715H-38.8535V152.588H-39.8522V125.866H-41.0542V96.8512H-41.7384V83.3886H-42.0343V77.3785H-42.3856V70H-43.0329V75.8621H-43.2363V79.2648H-43.5507V85.2194H-43.939V94.854H-44.7342V115.492H-46.38V142.306H-48.1368V169.305H-50.1155V193.364H-51.6319V217.238H-54.5537V146.8L-68.3862 133.725V217.219H-72.1032V124.183H-79.4078C-79.4632 116.823 -79.8516 116.823 -80.1474 116.823C-80.4433 116.823 -80.8317 116.823 -80.8872 124.183H-88.1917V217.219H-92.5375V157.803H-101.913V217.219H-105.001V177.849L-105.482 177.775V172.116L-107.295 172.024L-107.35 170.84H-108.238C-108.497 169.379 -109.699 168.214 -111.178 168.048V166.476H-112.066V168.048C-113.711 168.288 -114.95 169.712 -114.95 171.395C-114.95 172.745 -114.155 173.91 -113.027 174.446H-115.043L-115.838 177.183H-116.319L-116.374 177.368C-116.448 177.608 -116.522 177.886 -116.596 178.163L-116.689 178.477H-111.77C-111.807 178.644 -111.825 178.792 -111.862 178.958H-116.837L-117.706 182.009H-112.491C-112.528 182.176 -112.565 182.342 -112.602 182.49H-117.854L-118.686 185.542H-113.268C-113.305 185.708 -113.342 185.874 -113.379 186.022H-118.815L-119.629 189.074H-114.155C-114.192 189.24 -114.248 189.407 -114.285 189.554H-119.74L-120.239 191.515C-120.313 191.774 -120.369 192.051 -120.443 192.31L-120.517 192.624H-115.172C-115.228 192.791 -115.265 192.957 -115.32 193.105H-120.646L-120.683 193.29C-120.757 193.549 -120.813 193.826 -120.868 194.085L-121.108 195.065C-121.164 195.324 -121.238 195.602 -121.293 195.86L-121.367 196.156H-116.356C-116.411 196.323 -116.485 196.489 -116.541 196.637H-121.478L-121.515 196.822C-121.571 197.081 -121.626 197.358 -121.7 197.617L-121.941 198.708C-121.996 198.93 -122.033 199.171 -122.089 199.393L-122.144 199.688H-117.798C-117.872 199.855 -117.946 200.021 -118.02 200.169H-122.237L-122.274 200.373C-122.329 200.632 -122.384 200.909 -122.44 201.168L-122.625 202.148C-122.68 202.425 -122.717 202.684 -122.773 202.943L-122.828 203.239H-119.574C-119.666 203.405 -119.759 203.572 -119.851 203.72H-122.921L-122.958 203.923C-122.995 204.201 -123.05 204.459 -123.087 204.718L-123.235 205.698C-123.272 205.976 -123.309 206.235 -123.346 206.494L-123.457 207.474C-123.476 207.751 -123.513 208.029 -123.531 208.269V208.528H-122.643C-123.42 209.989 -124.012 211.339 -124.511 212.837V212.874V217.145H-128.598V195.768L-137.974 191.644V217.127H-141.931V203.664H-151.806V217.127H-304V217.626H-151.251V204.164H-142.356V217.626H-137.419V192.402L-129.023 196.082V217.626H-123.938V212.948C-123.402 211.357 -122.773 209.952 -121.922 208.38L-121.719 208.01H-122.921C-122.921 207.844 -122.884 207.659 -122.865 207.492L-122.754 206.512C-122.717 206.253 -122.68 205.994 -122.643 205.735L-122.495 204.755C-122.458 204.57 -122.44 204.367 -122.403 204.164H-119.463L-119.389 204.034C-119.204 203.72 -119.037 203.387 -118.834 203.054L-118.63 202.684H-122.126C-122.089 202.518 -122.07 202.351 -122.033 202.185L-121.848 201.205C-121.811 201.001 -121.774 200.816 -121.737 200.613H-117.595L-117.521 200.465C-117.373 200.151 -117.225 199.818 -117.077 199.485L-116.929 199.134H-121.423C-121.404 199.004 -121.367 198.875 -121.349 198.745L-121.108 197.654C-121.072 197.451 -121.016 197.247 -120.979 197.062H-116.097L-116.042 196.896C-115.931 196.582 -115.801 196.249 -115.672 195.916L-115.561 195.583H-120.646C-120.609 195.417 -120.572 195.25 -120.535 195.102L-120.295 194.122C-120.239 193.919 -120.202 193.715 -120.147 193.512H-114.858L-114.803 193.345C-114.692 193.031 -114.599 192.698 -114.488 192.365L-114.396 192.051H-119.777C-119.74 191.885 -119.703 191.718 -119.648 191.57L-119.241 189.98H-113.785L-113.73 189.795C-113.637 189.48 -113.564 189.148 -113.471 188.815L-113.397 188.5H-118.871L-118.335 186.429H-112.898L-112.861 186.244C-112.787 185.93 -112.713 185.597 -112.639 185.264L-112.565 184.968H-117.946L-117.373 182.897H-112.103L-112.066 182.694C-111.992 182.379 -111.936 182.046 -111.862 181.714L-111.807 181.418H-116.985L-116.393 179.347H-111.381L-111.344 179.143C-111.289 178.829 -111.215 178.496 -111.159 178.163L-111.104 177.867H-115.968C-115.931 177.756 -115.912 177.664 -115.875 177.571H-115.394L-114.599 174.834H-110.568L-110.42 174.002L-110.79 174.095C-111.03 174.15 -111.27 174.187 -111.511 174.187C-113.101 174.187 -114.414 172.893 -114.414 171.284C-114.414 169.786 -113.249 168.528 -111.751 168.399H-111.585H-111.381C-109.957 168.473 -108.792 169.582 -108.645 170.988V171.21H-107.775L-107.72 172.375L-105.926 172.467V178.071L-105.445 178.145V217.589H-101.358V158.302H-92.9628V217.719H-87.6184V124.683H-80.3324V124.442C-80.3139 120.929 -80.2029 118.876 -80.0735 117.933C-79.944 118.894 -79.8516 120.929 -79.8146 124.442V124.683H-72.5285V217.719H-67.8314V134.872L-54.9976 147.003V217.7H-51.0956V193.826H-49.5792V169.767H-47.6005V142.768H-45.8437V115.954H-44.1979V95.3533H-43.4027V85.7187H-43.0144V79.7641H-42.7V77.8593H-42.4781V83.8509H-42.1822V97.3135H-41.498V126.328H-40.296V153.05H-39.2974V181.177H-38.4837V203.646H-37.1707V217.7H-17.4761V152.606L-4.64229 143.434V217.719H-0.370509V170.711L11.0024 160.355V156.453L11.4832 155.732V168.27H9.0422V175.981H11.4832V176.887H3.14307V179.79H8.74631V181.584H3.14307V184.358H8.74631V186.152H3.14307V188.926H8.74631V190.719H3.14307V193.493H8.74631V195.287H3.14307V198.061H8.74631V199.855H3.14307V202.629H8.74631V206.309H11.4832V217.682H15.2372V205.551L25.6855 205.68V203.479H25.4451L15.2372 203.461V202.444H25.6855V200.428H25.4451L15.2372 200.41V199.411H25.6855V197.395H25.4451L15.2372 197.377V196.36H25.6855V194.344H25.4451L15.2372 194.326V193.308H25.6855V191.293H25.4451L15.2372 191.274V190.257H25.6855V188.094H15.2372V186.448H18.307V178.736H15.2372V160.725H15.3667V166.198L15.9769 166.92V170.821L16.0879 170.895L30.2347 181.177V217.682H35.4496V165.699H46.4527V217.682H50.8354L52.0189 152.884L52.4258 170.766H60.0447L59.8783 170.415C58.1955 166.92 56.2907 163.831 54.312 161.353C56.6421 163.591 58.8427 166.735 60.7474 170.637L60.8214 170.785H63.7062L63.4473 170.396C60.507 165.902 57.1784 162.352 53.7387 160.003C59.4344 162.13 64.4459 166.161 68.6807 171.968L68.8842 172.264L70.493 169.749L70.1417 169.675C68.9212 169.435 68.3664 169.028 68.3664 168.75C68.3664 168.288 69.8088 167.641 72.1573 167.641C74.5059 167.641 75.9483 168.288 75.9483 168.75C75.9483 169.213 74.5059 169.86 72.1573 169.86C71.843 169.86 71.5286 169.86 71.2327 169.823H71.0848L69.1061 172.578L69.217 172.726C78.2969 185.542 82.3098 204.737 78.5188 217.367L78.4263 217.682H84.3255V200.521L92.7211 197.025V217.7H107.145L107.108 217.719ZM55.8284 162.315C58.2509 164.405 60.5995 167.123 62.7261 170.322H61.0618C59.4899 167.123 57.7146 164.423 55.8284 162.315ZM52.6477 160.262C54.9777 162.833 57.2338 166.291 59.2125 170.322H52.8696L52.6477 160.262Z" fill="#000003"/>
<path d="M52.4813 175.001H59.416L60.766 173.429H52.4443L52.4813 175.001ZM52.9436 173.91H59.6934L59.1941 174.502H52.9621V173.91H52.9436Z" fill="#000003"/>
<path d="M52.536 177.793H57.0112L58.3612 176.221H52.499L52.536 177.793ZM52.9983 176.702H57.2886L56.7893 177.294H53.0168V176.702H52.9983Z" fill="#000003"/>
<path d="M7.91406 217.719H10.577V208.842H7.91406V217.719ZM8.41337 209.342H10.0962V217.238H8.41337V209.342Z" fill="#000003"/>
<path d="M16.4209 217.719H19.6386V208.842H16.4209V217.719ZM16.9202 209.342H19.1393V217.238H16.9202V209.342Z" fill="#000003"/>
<path d="M6.8043 212.559H1.16406V214.556H6.8043V212.559ZM6.30499 214.057H1.64486V213.04H6.30499V214.057Z" fill="#000003"/>
<path d="M28.1076 212.596H21.1729V214.593H28.1076V212.596ZM27.6083 214.094H21.6537V213.077H27.6083V214.094Z" fill="#000003"/>
<path d="M21.1729 211.542H28.1076V209.545H21.1729V211.542ZM21.6722 210.044H27.6268V211.061H21.6722V210.044Z" fill="#000003"/>
<path d="M22.2822 216.424H251.461" stroke="#000003" stroke-width="0.628747" stroke-miterlimit="10"/>
<path d="M88.3194 195.454C92.2028 196.175 90.7974 203.202 91.648 207.511C92.2028 210.285 93.6452 218.162 87.5612 216.591C83.8072 215.611 85.3976 208.047 84.8428 205.014C84.1031 200.872 82.9195 196.637 88.3009 195.454" fill="#FFE816"/>
<path d="M66.5345 204.145C66.5345 203.775 66.5715 203.424 66.59 203.054V202.795H64.3154L63.1504 204.367H66.5345V204.127V204.145ZM66.0907 203.294C66.0907 203.498 66.0907 203.683 66.0722 203.886H64.149L64.5928 203.294H66.1092H66.0907Z" fill="#000003"/>
<path d="M66.4244 205.865V205.606H62.2451L61.0801 207.178H66.3135V206.956C66.369 206.586 66.4059 206.235 66.4244 205.865ZM65.9066 206.087C65.9066 206.29 65.8697 206.475 65.8512 206.679H62.0417L62.4855 206.087H65.9066Z" fill="#000003"/>
<path d="M66.1459 208.676L66.1829 208.398H60.1728L59.0078 209.97H65.9795L66.0165 209.748C66.072 209.378 66.1089 209.027 66.1644 208.657M65.6466 208.879C65.6281 209.082 65.5912 209.267 65.5727 209.471H60.0064L60.4502 208.879H65.6651H65.6466Z" fill="#000003"/>
<path d="M54.1448 215.574L55.3098 214.002H53.3496L53.3866 215.574H54.1448ZM54.3297 214.483L53.8859 215.074V214.483H54.3482H54.3297Z" fill="#000003"/>
<path d="M65.7575 211.487L65.813 211.209H58.1016L56.9365 212.781H65.5356L65.5726 212.578C65.6281 212.208 65.702 211.856 65.7575 211.487ZM65.2212 211.69C65.1842 211.893 65.1472 212.078 65.1103 212.282H57.8981L58.342 211.69H65.2212Z" fill="#000003"/>
<path d="M73.0627 211.487L73.0997 211.209H67.2376V211.431C67.1636 211.801 67.1267 212.152 67.0712 212.504L67.0342 212.781H72.8593L72.8963 212.578C72.9518 212.208 73.0073 211.856 73.0627 211.487ZM72.5265 211.69C72.4895 211.893 72.471 212.078 72.434 212.282H67.589C67.6075 212.078 67.6444 211.893 67.6629 211.69H72.508H72.5265Z" fill="#000003"/>
<path d="M67.6074 206.919V207.178H73.4696V206.937C73.4881 206.568 73.5065 206.216 73.525 205.846V205.587H67.6629V205.828C67.6444 206.198 67.6259 206.549 67.6074 206.9M68.1067 206.66C68.1067 206.457 68.1067 206.272 68.1252 206.068H73.0072C73.0072 206.272 73.0073 206.457 72.9888 206.66H68.1067Z" fill="#000003"/>
<path d="M72.5999 214.298L72.6553 214.002H66.8487L66.8117 214.205C66.7562 214.575 66.6822 214.926 66.6268 215.278L66.5713 215.574H72.3225L72.3595 215.389C72.4334 215.037 72.5259 214.667 72.5814 214.298M72.0451 214.501C72.0081 214.704 71.9526 214.889 71.9156 215.093H67.1631C67.2 214.889 67.237 214.704 67.274 214.501H72.0451Z" fill="#000003"/>
<path d="M73.3774 208.676V208.417H67.5152V208.639C67.4783 209.009 67.4413 209.36 67.4043 209.711V209.989H73.248V209.767C73.3034 209.397 73.3404 209.045 73.3774 208.676ZM72.8596 208.898C72.8596 209.101 72.8226 209.286 72.8041 209.489H67.9221C67.9221 209.286 67.9591 209.101 67.9776 208.898H72.8596Z" fill="#000003"/>
<path d="M65.2217 201.593L66.6271 199.707V200.447C66.6271 200.743 66.6271 201.038 66.6271 201.353V201.593H65.2217Z" fill="#000003"/>
<path d="M66.202 193.013H58.1947L56.8447 194.585H66.3684V194.307C66.3129 193.937 66.2759 193.586 66.239 193.216V192.994L66.202 193.013ZM65.7951 194.104H57.8988L58.3981 193.512H65.7396C65.7396 193.715 65.7766 193.9 65.7951 194.104Z" fill="#000003"/>
<path d="M66.4607 195.805H55.809L54.459 197.377H66.5531V197.118C66.5162 196.748 66.4976 196.397 66.4792 196.027V195.805H66.4607ZM66.0168 196.896H55.5131L56.0124 196.304H65.9799C65.9799 196.508 65.9983 196.693 66.0168 196.896Z" fill="#000003"/>
<path d="M65.1291 186.189H64.0195L64.9072 185.172L65.1291 186.189Z" fill="#000003"/>
<path d="M65.3693 187.409H62.9837L61.6338 188.981H65.6467L65.5912 188.685C65.5357 188.315 65.4617 187.964 65.3878 187.594L65.3508 187.391L65.3693 187.409ZM65.0734 188.5H62.7064L63.2057 187.909H64.9439C64.9809 188.112 65.0179 188.297 65.0549 188.5" fill="#000003"/>
<path d="M65.8509 190.22H60.599L59.249 191.792H66.0728L66.0358 191.515C65.9803 191.145 65.9434 190.793 65.8879 190.424L65.8509 190.22ZM65.4995 191.311H60.3031L60.8024 190.72H65.4071C65.444 190.923 65.4625 191.108 65.4995 191.311Z" fill="#000003"/>
<path d="M73.3587 200.003H67.626V200.262C67.6445 200.613 67.6629 200.983 67.6629 201.334V201.575H73.4511V201.316C73.4141 200.946 73.3956 200.594 73.3587 200.225V200.003ZM72.9149 201.094H68.1438C68.1438 200.89 68.1437 200.705 68.1253 200.502H72.8779C72.8779 200.705 72.9149 200.89 72.9149 201.094Z" fill="#000003"/>
<path d="M61.4313 174.076C61.5052 174.28 61.5977 174.464 61.6717 174.668L61.8011 175.001H60.1553L61.2648 173.688L61.4128 174.058L61.4313 174.076Z" fill="#000003"/>
<path d="M72.8769 195.805H67.3477V196.082C67.4031 196.434 67.4401 196.804 67.4586 197.155V197.377H73.0988L73.0619 197.099C73.0249 196.73 72.9694 196.378 72.9139 196.008L72.8769 195.805ZM72.5256 196.896H67.9209C67.9209 196.693 67.8839 196.508 67.8654 196.304H72.4331C72.4516 196.508 72.4886 196.693 72.5071 196.896" fill="#000003"/>
<path d="M56.7338 179.014L55.3838 180.586H63.724L63.6315 180.271C63.5205 179.901 63.4096 179.55 63.2986 179.18L63.2431 179.014H56.7338ZM56.4564 180.105L56.9557 179.513H62.8733C62.9288 179.716 63.0027 179.901 63.0582 180.105H56.4564Z" fill="#000003"/>
<path d="M52.6279 181.824H53.5895L52.6649 182.897L52.6279 181.824Z" fill="#000003"/>
<path d="M53.3319 212.781H56.2167L57.3818 211.209H53.2949L53.3319 212.781ZM53.7942 211.69H56.4017L55.9578 212.282H53.8127V211.69H53.7942Z" fill="#000003"/>
<path d="M52.6102 180.604H54.6444L55.9944 179.032H52.5732L52.6102 180.604ZM53.0725 179.513H54.9033L54.404 180.105H53.091V179.513H53.0725Z" fill="#000003"/>
<path d="M71.7874 190.22H66.6279L66.6649 190.498C66.7204 190.849 66.7759 191.219 66.8313 191.589L66.8683 191.792H72.1387L72.0832 191.496C72.0093 191.126 71.9168 190.775 71.8428 190.405L71.8059 190.22H71.7874ZM71.5285 191.311H67.2937C67.2567 191.108 67.2382 190.923 67.2012 190.72H71.399C71.4545 190.923 71.4915 191.108 71.5285 191.311Z" fill="#000003"/>
<path d="M66.7201 176.221H63.04L63.151 176.554C63.2804 176.905 63.4099 177.275 63.5209 177.627L63.5763 177.793H67.4598L67.2933 177.442C67.1269 177.072 66.942 176.72 66.7755 176.351L66.7016 176.221H66.7201ZM66.7201 177.312H63.9647C63.8907 177.109 63.8352 176.924 63.7612 176.72H66.4242C66.5166 176.924 66.6091 177.109 66.7201 177.312Z" fill="#000003"/>
<path d="M72.397 193.013H67.0342L67.0712 193.29C67.1082 193.641 67.1636 194.011 67.2006 194.363V194.585H72.6929L72.6374 194.289C72.5819 193.919 72.508 193.567 72.434 193.198L72.397 192.994V193.013ZM72.1012 194.104H67.6629C67.6444 193.9 67.6259 193.715 67.589 193.512H71.9902C72.0272 193.715 72.0642 193.9 72.1012 194.104Z" fill="#000003"/>
<path d="M65.2399 173.429H61.9482L62.0962 173.78C62.2441 174.132 62.3921 174.501 62.54 174.853L62.5955 175.001H66.1091L65.9057 174.631C65.7022 174.261 65.5173 173.891 65.3139 173.54L65.2399 173.41V173.429ZM64.944 173.928C65.055 174.132 65.166 174.317 65.2769 174.52H62.9283C62.8544 174.317 62.7619 174.132 62.6879 173.928H64.944Z" fill="#000003"/>
<path d="M62.2632 176.221H59.1195L57.7695 177.793H62.8365L62.7255 177.46C62.5961 177.091 62.4666 176.739 62.3372 176.369L62.2817 176.203L62.2632 176.221ZM62.1338 177.312H58.8421L59.3414 176.721H61.9118C61.9858 176.924 62.0598 177.109 62.1153 177.312" fill="#000003"/>
<path d="M73.5069 202.814H67.7002V203.054C67.7002 203.424 67.7002 203.775 67.7002 204.127V204.386H73.5439V204.145C73.5439 203.775 73.5438 203.424 73.5253 203.054V202.814H73.5069ZM73.0261 203.905H68.181C68.181 203.701 68.181 203.516 68.181 203.313H73.0261C73.0261 203.516 73.0261 203.701 73.0261 203.905Z" fill="#000003"/>
<path d="M53.1464 204.386H62.4481L63.6131 202.814H53.1094L53.1464 204.386ZM53.6087 203.295H62.633L62.1892 203.886H53.6272V203.295H53.6087Z" fill="#000003"/>
<path d="M52.9979 197.395H53.7191L55.0691 195.823H52.9609L52.9979 197.395ZM53.4602 196.304H53.9965L53.4972 196.896V196.304H53.4602Z" fill="#000003"/>
<path d="M53.2753 209.989H58.3053L59.4703 208.417H53.2383L53.2753 209.989ZM53.7376 208.898H58.4717L58.0279 209.489H53.7376V208.898Z" fill="#000003"/>
<path d="M53.2196 207.178H60.3762L61.5413 205.606H53.1826L53.2196 207.178ZM53.6819 206.087H60.5612L60.1173 206.679H53.6819V206.087Z" fill="#000003"/>
<path d="M53.0897 201.593H64.5181L65.6832 200.021H53.0527L53.0897 201.593ZM53.552 200.502H64.7031L64.2592 201.094H53.552V200.502Z" fill="#000003"/>
<path d="M52.7391 186.189H63.2799L64.6299 184.617H52.7021L52.7391 186.189ZM53.2015 185.098H63.5573L63.058 185.69H53.2199V185.098H53.2015Z" fill="#000003"/>
<path d="M52.9237 194.584H56.1044L57.4544 193.012H52.8867L52.9237 194.584ZM53.386 193.493H56.3633L55.864 194.085H53.4045V193.493H53.386Z" fill="#000003"/>
<path d="M64.0751 181.825H54.348L52.998 183.397H64.5004L64.4264 183.082C64.334 182.712 64.2415 182.361 64.1306 181.991L64.0751 181.806V181.825ZM63.8532 182.916H54.0706L54.5699 182.324H63.6867C63.7422 182.527 63.7977 182.712 63.8532 182.916Z" fill="#000003"/>
<path d="M52.7949 189H60.8946L62.2446 187.428H52.7764L52.8134 189H52.7949ZM53.2572 187.909H61.1535L60.6542 188.5H53.2757V187.909H53.2572Z" fill="#000003"/>
<path d="M52.869 191.792H58.5092L59.8592 190.22H52.832L52.869 191.792ZM53.3313 190.701H58.7681L58.2688 191.293H53.3498V190.701H53.3313Z" fill="#000003"/>
</g>
<g clip-path="url(#clip3_5056_26587)">
<path d="M70.4418 188.942H65.5352L65.5905 189.237C65.6643 189.587 65.7196 189.956 65.7934 190.307L65.8303 190.51H70.8845L70.8107 190.196C70.7185 189.827 70.6078 189.477 70.5156 189.108L70.4602 188.923L70.4418 188.942ZM70.2389 190.03H66.2361C66.1992 189.827 66.1623 189.643 66.1254 189.44H70.0729C70.1282 189.643 70.1835 189.827 70.2389 190.03Z" fill="#000003"/>
<path d="M68.5603 183.353H64.207L64.2993 183.666C64.3915 184.017 64.4837 184.386 64.576 184.736L64.6313 184.921H69.1505L69.0399 184.589C68.9107 184.22 68.7816 183.869 68.6341 183.5L68.5787 183.334L68.5603 183.353ZM68.4496 184.441H65.0002C64.9449 184.238 64.8895 184.054 64.8526 183.851H68.2282C68.302 184.054 68.3758 184.238 68.4496 184.441Z" fill="#000003"/>
<path d="M69.5751 186.156H64.9268L65.0005 186.452C65.0743 186.802 65.1666 187.171 65.2403 187.522L65.2772 187.724H70.0732L69.9809 187.411C69.8703 187.042 69.7596 186.691 69.6305 186.323L69.5751 186.156ZM69.4091 187.245H65.6646C65.6277 187.042 65.5724 186.857 65.5355 186.655H69.2062C69.2616 186.857 69.3353 187.042 69.3907 187.245" fill="#000003"/>
<path d="M67.4167 180.567H63.3955L63.4877 180.881C63.5984 181.231 63.7091 181.6 63.8198 181.951L63.8751 182.135H68.0808L67.9332 181.785C67.7856 181.416 67.6196 181.065 67.4721 180.696L67.4167 180.549V180.567ZM67.3429 181.656H64.2256C64.1702 181.453 64.1149 181.268 64.0411 181.065H67.0847C67.1769 181.268 67.2507 181.453 67.3429 181.656Z" fill="#000003"/>
<path d="M87.5234 172.617C87.2098 173.097 86.6196 173.263 86.2138 173.004C85.808 172.746 85.7157 172.156 86.0109 171.676L113.92 128.052C114.233 127.591 114.805 127.406 115.229 127.664C115.653 127.923 115.746 128.513 115.432 128.992L87.5419 172.599L87.5234 172.617Z" fill="#E53E51"/>
<path d="M73.2281 173.373C72.9145 173.834 72.3242 174.019 71.9184 173.761C71.4942 173.502 71.4019 172.912 71.7155 172.433L101.746 126.576C102.059 126.115 102.649 125.93 103.055 126.189C103.461 126.447 103.572 127.037 103.258 127.517L73.2281 173.355V173.373Z" fill="#E53E51"/>
<path fill-rule="evenodd" clip-rule="evenodd" d="M104.789 122.241L117.756 124.547C118.937 124.768 119.601 126.078 119.214 127.48C118.826 128.882 117.553 129.841 116.354 129.638L103.387 127.332C102.188 127.111 101.542 125.801 101.93 124.418C102.317 123.016 103.59 122.057 104.789 122.259" fill="#000003"/>
<path fill-rule="evenodd" clip-rule="evenodd" d="M52.3102 208.255C54.8926 206.945 57.7333 207.867 58.6556 210.302C59.5779 212.737 58.2498 215.781 55.6674 217.09C53.0849 218.4 50.2443 217.478 49.322 215.043C48.3997 212.608 49.7462 209.564 52.3102 208.255Z" fill="#000003"/>
<path fill-rule="evenodd" clip-rule="evenodd" d="M53.749 210.302C55.1693 209.583 56.7188 210.099 57.2352 211.427C57.7517 212.774 57.0139 214.434 55.5936 215.153C54.1732 215.873 52.6238 215.375 52.1073 214.028C51.5908 212.681 52.3286 211.021 53.749 210.302Z" fill="white"/>
<path fill-rule="evenodd" clip-rule="evenodd" d="M69.7232 215.116C81.3257 211.981 102.114 177.726 101.321 165.478C100.915 158.912 91.2312 152.99 85.7712 152.529C83.2256 152.308 76.1977 152.124 68.9485 161.144C61.6992 170.164 44.1018 197.722 43.4193 203.182C42.7368 208.642 46.4444 215.227 69.7232 215.116Z" fill="#FFE816"/>
<path fill-rule="evenodd" clip-rule="evenodd" d="M68.6721 212.515C80.2746 209.38 101.063 175.126 100.288 162.877C99.8642 156.311 90.6413 152.898 85.1813 152.437C82.6357 152.216 71.2915 156.163 64.0422 165.183C56.7929 174.203 44.4895 197.15 43.807 202.628C43.1245 208.088 45.4118 212.645 68.6721 212.534" fill="#E53E51"/>
<path fill-rule="evenodd" clip-rule="evenodd" d="M87.6892 152.677C81.2885 150.648 73.5412 152.511 64.8163 161.882C57.5301 169.721 38.2172 201.411 44.3228 207.867C46.3334 208.974 50.0964 210.413 52.8448 209.859C64.7978 207.48 90.4377 163.431 87.6708 152.677" fill="#FFE816"/>
<path fill-rule="evenodd" clip-rule="evenodd" d="M70.1469 206.89C73.1167 206.096 75.8283 207.812 76.1972 210.726C76.5477 213.641 74.4448 216.666 71.4566 217.478C68.4683 218.271 65.7752 216.555 65.4063 213.641C65.0558 210.726 67.1587 207.701 70.1469 206.89Z" fill="#000003"/>
<path fill-rule="evenodd" clip-rule="evenodd" d="M71.1431 209.509C72.7848 209.066 74.2605 210.025 74.4634 211.63C74.6663 213.235 73.4857 214.895 71.8625 215.338C70.2208 215.781 68.7451 214.84 68.5422 213.217C68.3393 211.612 69.5199 209.952 71.1431 209.509Z" fill="white"/>
<path fill-rule="evenodd" clip-rule="evenodd" d="M58.3975 171.086C67.8233 162.748 80.3297 161.457 81.75 173.447C77.8395 162.988 68.2845 164.501 58.3975 171.086Z" fill="#E53E51"/>
<path fill-rule="evenodd" clip-rule="evenodd" d="M63.47 173.484L71.1435 171.233C71.8814 171.012 72.3425 171.455 72.1949 172.23L70.7008 179.497C70.5533 180.254 69.8154 181.047 69.0776 181.268L61.4041 183.518C60.6662 183.74 60.2051 183.297 60.3526 182.541L61.8468 175.273C61.9943 174.517 62.7322 173.724 63.47 173.502" fill="white"/>
<path fill-rule="evenodd" clip-rule="evenodd" d="M64.0787 174.572L69.7047 172.912C70.2212 172.765 70.5532 173.078 70.4425 173.613L69.3911 178.704C69.2804 179.239 68.7639 179.793 68.2474 179.94L62.6214 181.6C62.1049 181.748 61.7729 181.434 61.8836 180.918L62.935 175.827C63.0457 175.292 63.5437 174.738 64.0602 174.591" fill="#3CB4E5"/>
<path fill-rule="evenodd" clip-rule="evenodd" d="M68.7456 179.719C68.6349 179.792 68.5242 179.848 68.4135 179.885L62.4739 181.637C62.2895 181.692 62.1419 181.655 62.0312 181.582C62.7506 180.456 64.7428 177.653 65.0564 177.155C65.7204 176.177 65.2408 177.339 66.1078 175.956C66.7165 174.996 67.2699 176.564 67.5281 176.989C67.6204 177.136 68.4689 179.128 68.7271 179.719" fill="#000003"/>
<path fill-rule="evenodd" clip-rule="evenodd" d="M64.9453 177.376L65.056 177.099C64.8346 177.966 64.1152 179.35 65.4249 177.782C65.8307 177.302 66.2734 176.786 66.5316 176.915C66.9559 177.136 67.5277 176.933 67.1588 176.177C67.0666 175.993 66.9005 175.624 66.7345 175.605C66.6239 175.605 66.587 175.587 66.4394 175.642C66.2549 175.753 65.7385 176.38 65.7016 176.398C65.388 176.601 65.1297 177.044 64.9453 177.376Z" fill="white"/>
<path fill-rule="evenodd" clip-rule="evenodd" d="M61.3305 189.624C61.4965 190.288 60.4451 191.174 59.7073 191.395L52.0338 193.645C51.2959 193.867 50.595 193.387 50.9823 192.668C52.7163 189.311 52.1444 189.975 55.686 184.035C56.6452 182.412 57.8073 181.748 58.5452 183.205C59.3568 184.847 60.814 187.651 61.3305 189.624Z" fill="white"/>
<path fill-rule="evenodd" clip-rule="evenodd" d="M59.3563 187.964C59.4854 188.444 58.7107 189.089 58.1758 189.255L53.8225 190.583C53.2876 190.749 52.7895 190.417 53.0478 189.882C54.3205 187.466 53.1953 189.311 55.7778 185.031C56.4787 183.869 57.3457 183.389 57.8622 184.422C58.4524 185.584 58.9874 186.562 59.3563 187.982" fill="#E53E51"/>
<path fill-rule="evenodd" clip-rule="evenodd" d="M52.4575 191.782C52.4022 192.004 52.1992 192.723 52.2546 192.889C52.974 192.575 52.6788 192.686 53.2876 192.594C53.7487 191.598 53.8963 192.28 53.9516 192.446C55.5564 192.133 54.9846 191.838 55.3535 191.745C56.0545 191.579 55.2428 192.336 56.6263 191.45C56.6263 191.45 57.2903 191.303 57.3457 191.284C57.7515 191.137 59.2825 190.897 59.5592 190.639C59.8359 190.38 59.6883 191.579 60.2232 189.735C60.5922 188.462 59.0611 190.085 58.8951 189.79C58.8398 189.735 58.7845 189.679 58.766 189.624C57.8253 190.251 58.3971 190.233 57.2534 190.233C56.7185 190.233 57.1243 190.694 56.3127 190.878L55.4088 191.063C55.4088 190.51 55.2059 190.602 54.2099 191.044C53.7487 191.247 53.8225 191.727 53.5458 191.506C53.4536 191.432 53.2138 191.579 53.1215 191.653C53.0847 191.635 52.642 190.952 52.4022 191.745C52.4022 191.801 52.4575 191.782 52.4575 191.801" fill="#3CB4E5"/>
<path fill-rule="evenodd" clip-rule="evenodd" d="M59.4674 193.516C58.0655 192.889 55.8151 194.088 54.4685 196.209C53.122 198.331 53.1589 200.563 54.5607 201.208C55.9626 201.835 58.213 200.636 59.5596 198.515C60.9062 196.394 60.8693 194.162 59.4674 193.516Z" fill="white"/>
<path fill-rule="evenodd" clip-rule="evenodd" d="M58.8949 194.328C57.7513 193.83 55.9436 194.789 54.8368 196.505C53.7301 198.202 53.767 200.009 54.9106 200.507C56.0543 201.005 57.862 200.046 58.9687 198.331C60.0755 196.615 60.0386 194.826 58.8949 194.328Z" fill="white"/>
<path fill-rule="evenodd" clip-rule="evenodd" d="M54.247 197.74C55.3168 197.5 58.1391 195.435 59.4118 194.973C59.4487 194.973 59.5041 194.937 59.5409 194.918C59.3934 194.66 59.1905 194.457 58.8953 194.346C57.7517 193.848 55.944 194.807 54.8372 196.523C54.579 196.929 54.3761 197.353 54.2285 197.759" fill="#3CB4E5"/>
<path fill-rule="evenodd" clip-rule="evenodd" d="M54.1357 199.733C54.9658 199.235 58.0832 197.648 58.987 197.058L59.0977 196.984C59.3559 196.818 59.5404 196.726 59.6511 196.708C59.522 197.224 59.3006 197.796 58.9317 198.349C57.8249 200.046 56.0172 201.024 54.8736 200.526C54.5231 200.378 54.2833 200.083 54.1357 199.733Z" fill="#E53E51"/>
<path d="M103.276 130.892C104.641 131.814 106.265 132.479 107.943 132.183C109.585 131.888 110.821 130.837 111.891 129.619C112.112 129.361 112.093 128.937 111.798 128.752C111.78 128.752 111.743 128.716 111.725 128.716C110.526 128.291 109.64 127.941 109.843 126.686C109.843 126.668 109.843 126.631 109.843 126.613C110.194 124.252 112.001 123.385 114.178 123.809C115.1 123.975 116.022 124.159 116.945 124.344C117.24 123.754 116.926 123.053 116.945 122.389C117.019 121.208 117.978 120.655 118.771 119.972C119.712 119.142 120.726 118.146 121.316 117.021C120.542 116.633 113.975 112.022 113.606 112.391C111.319 114.66 108.958 116.984 106.025 118.33C104.697 118.939 103.276 119.327 102.004 120.027C99.4027 121.448 98.1115 125.026 99.7531 127.719C100.546 129.029 101.985 130.062 103.239 130.911" fill="white"/>
<path d="M103.276 130.892C104.641 131.814 106.265 132.479 107.943 132.183C109.585 131.888 110.821 130.837 111.891 129.619C112.112 129.361 112.093 128.937 111.798 128.752C111.78 128.752 111.743 128.716 111.725 128.716C110.526 128.291 109.64 127.941 109.843 126.686C109.843 126.668 109.843 126.631 109.843 126.613C110.194 124.252 112.001 123.385 114.178 123.809C115.1 123.975 116.022 124.159 116.945 124.344C117.24 123.754 116.926 123.053 116.945 122.389C117.019 121.208 117.978 120.655 118.771 119.972C119.712 119.142 120.726 118.146 121.316 117.021C120.542 116.633 113.975 112.022 113.606 112.391C111.319 114.66 108.958 116.984 106.025 118.33C104.697 118.939 103.276 119.327 102.004 120.027C99.4027 121.448 98.1115 125.026 99.7531 127.719C100.546 129.029 101.985 130.062 103.239 130.911L103.276 130.892Z" stroke="#000003" stroke-width="0.627162" stroke-linecap="round" stroke-linejoin="round"/>
<path d="M107.943 132.165C107.943 132.165 105.324 132.184 104.881 129.601C104.789 129.048 104.826 128.494 104.955 127.941L105.176 127" fill="white"/>
<path d="M107.943 132.165C107.943 132.165 105.324 132.184 104.881 129.601C104.789 129.048 104.826 128.494 104.955 127.941L105.176 127" stroke="#000003" stroke-width="0.627162" stroke-linecap="round" stroke-linejoin="round"/>
<path d="M102.409 130.284C102.409 130.284 101.025 128.937 102.649 126.096Z" fill="white"/>
<path d="M102.409 130.284C102.409 130.284 101.025 128.937 102.649 126.096" stroke="#000003" stroke-width="0.627162" stroke-linecap="round" stroke-linejoin="round"/>
<path d="M240.902 191.543C242.433 191.395 243.245 193.313 242.083 194.328L217.125 215.928C215.631 217.219 213.381 217.09 212.034 215.652L201.76 200.6L214.432 189.79L219.56 197.242C220.39 198.441 221.94 198.884 223.268 198.275C227.805 196.228 237.822 191.838 240.921 191.543" fill="white"/>
<path d="M240.902 191.543C242.433 191.395 243.245 193.313 242.083 194.328L217.125 215.928C215.631 217.219 213.381 217.09 212.034 215.652L201.76 200.6L214.432 189.79L219.56 197.242C220.39 198.441 221.94 198.884 223.268 198.275C227.805 196.228 237.822 191.838 240.921 191.543H240.902Z" stroke="#000003" stroke-width="0.627162" stroke-linecap="round" stroke-linejoin="round"/>
<path d="M126.555 216.131C127.182 217.478 125.928 218.086 124.415 218.086L111.005 217.275C110.304 217.238 109.621 216.943 109.105 216.445L96.6354 204.436C94.8462 202.352 94.3666 201.43 95.252 199.733L106.504 185.88L120.006 193.018L115.34 201.227C114.842 202.112 114.694 203.163 114.971 204.141C115.303 205.359 115.782 207.092 116.114 208.365C116.409 209.435 117.147 210.339 118.162 210.819C120.8 212.073 125.835 214.618 126.536 216.113" fill="white"/>
<path d="M126.555 216.131C127.182 217.478 125.928 218.086 124.415 218.086L111.005 217.275C110.304 217.238 109.621 216.943 109.105 216.445L96.6354 204.436C94.8462 202.352 94.3666 201.43 95.252 199.733L106.504 185.88L120.006 193.018L115.34 201.227C114.842 202.112 114.694 203.163 114.971 204.141C115.303 205.359 115.782 207.092 116.114 208.365C116.409 209.435 117.147 210.339 118.162 210.819C120.8 212.073 125.835 214.618 126.536 216.113L126.555 216.131Z" stroke="#000003" stroke-width="0.627162" stroke-linecap="round" stroke-linejoin="round"/>
<path d="M220.722 72.4186C220.722 70.4449 214.1 70.7584 212.034 70.8507C209.968 70.9429 204.748 71.2565 204.195 72.3079C203.623 73.3409 200.137 80.129 200.137 80.129L205.08 90.1451L207.091 86.788C207.22 86.622 207.386 86.4559 207.607 86.4559C212.145 86.5113 211.831 82.158 211.831 82.158C211.831 82.158 213.75 82.6745 214.008 81.1435C214.266 79.6309 213.16 78.6349 213.16 78.6349C213.16 78.6349 215.299 78.5242 215.484 77.2514C215.668 75.9786 214.506 74.7428 214.506 74.7428C216.793 74.7797 220.722 74.4292 220.722 72.4186Z" fill="white"/>
<path d="M220.722 72.4186C220.722 70.4449 214.1 70.7584 212.034 70.8507C209.968 70.9429 204.748 71.2565 204.195 72.3079C203.623 73.3409 200.137 80.129 200.137 80.129L205.08 90.1451L207.091 86.788C207.22 86.622 207.386 86.4559 207.607 86.4559C212.145 86.5113 211.831 82.158 211.831 82.158C211.831 82.158 213.75 82.6745 214.008 81.1435C214.266 79.6309 213.16 78.6349 213.16 78.6349C213.16 78.6349 215.299 78.5242 215.484 77.2514C215.668 75.9786 214.506 74.7428 214.506 74.7428C216.793 74.7797 220.722 74.4292 220.722 72.4186Z" stroke="#000003" stroke-width="0.627162" stroke-linecap="round" stroke-linejoin="round"/>
<path d="M242.082 194.328L217.124 215.928C215.63 217.219 213.38 217.09 212.052 215.651L206.075 206.89C211.867 198.995 218.618 206.078 224.41 202.592C229.631 199.437 232.822 194.955 233.523 193.922C236.64 192.686 239.518 191.69 240.92 191.561C242.451 191.413 243.262 193.332 242.1 194.346" fill="#000003"/>
<path d="M222.198 185.806L168.76 117.869L169.11 108.61L139.099 102.67C139.154 104.201 136.516 113.94 137.752 122.61C123.696 148.6 102.004 189.753 102.004 189.753L132.181 207L157.102 153.95C174.109 177.966 195.082 207.609 195.082 207.609L222.216 185.806H222.198Z" fill="#000003"/>
<path d="M100.675 193.074C110.544 196.283 105.748 204.492 109.308 208.66C112.979 212.977 120.283 211.888 120.283 211.87C120.504 211.833 121.169 212.331 121.371 212.442C121.833 212.682 122.294 212.94 122.736 213.198C123.677 213.733 124.581 214.305 125.43 214.951C126.131 215.485 126.924 216.297 126.592 217.256C126.278 218.16 124.397 218.086 124.397 218.086L110.913 217.275C110.249 217.238 109.621 216.961 109.142 216.5L96.6354 204.436C94.8462 202.352 94.3666 201.43 95.252 199.733L100.675 193.055V193.074Z" fill="#000003"/>
<path d="M199.859 80.3136L188.589 88.2823C188.589 88.2823 183.387 80.7563 179.273 76.1448C174.238 70.4635 168.796 69.4858 161.178 67.8073C158.079 67.1248 155.589 66.2947 152.416 66.35C143.175 66.4607 141.588 69.6334 133.767 82.2135C130.06 88.1716 141.256 89.924 141.256 89.924L138.102 103.445L169.054 109.919L170.419 100.383C170.512 99.811 170.862 99.2945 171.379 99.0362C173.795 97.8188 174.773 96.0665 174.773 96.0665C179.237 106.212 188.349 108.554 196.004 103.076C204.175 97.2654 208.805 91.3627 208.805 91.3627L199.841 80.3136H199.859Z" fill="#E53E51"/>
<path d="M202.183 42.2226C202.81 38.7917 200.929 35.4899 197.867 34.1433C198.088 33.6268 198.272 33.0734 198.383 32.4832C199.102 28.462 196.446 24.6252 192.425 23.8874C191.743 23.7582 191.079 23.7398 190.433 23.8136C190.433 23.7951 190.433 23.7767 190.433 23.7398C191.152 19.7186 188.496 15.8818 184.475 15.144C182.538 14.7935 180.657 15.2362 179.126 16.2323C178.314 13.7237 176.174 11.7315 173.407 11.2334C170.604 10.7354 167.892 11.8791 166.25 13.9634C165.974 13.9634 165.697 14.0003 165.42 14.0188C164.35 12.3955 162.635 11.1781 160.569 10.8092C156.548 10.0898 152.711 12.746 151.973 16.7672C151.973 16.7857 151.973 16.8041 151.973 16.841C151.383 16.5643 150.756 16.343 150.073 16.2139C146.052 15.4945 142.215 18.1507 141.477 22.1719C141.367 22.7622 141.348 23.334 141.367 23.9058C138.028 24.0903 135.114 26.5436 134.505 29.9745C134.21 31.6531 134.505 33.3132 135.224 34.7151C134.044 35.7666 133.195 37.2053 132.882 38.9024C132.291 42.1304 133.896 45.2293 136.626 46.7234C136.257 47.4059 135.98 48.1622 135.833 48.9739C135.114 52.9951 137.77 56.8318 141.791 57.5697C142.51 57.6988 143.211 57.7172 143.894 57.6434C144.17 60.8899 146.587 63.6753 149.944 64.284C153.32 64.8927 156.566 63.1034 157.95 60.1336C159.462 60.7424 161.049 61.222 162.709 61.5171C165.051 61.9414 167.357 61.9967 169.607 61.7385C169.644 65.2247 172.135 68.2868 175.676 68.9324C179.033 69.5411 182.261 67.7703 183.663 64.8374C184.272 65.151 184.954 65.3723 185.655 65.5014C189.677 66.2208 193.532 63.5646 194.251 59.5434C194.399 58.7318 194.399 57.9201 194.288 57.1639C197.369 56.7212 199.951 54.3785 200.541 51.1505C200.836 49.4719 200.541 47.8118 199.803 46.4099C200.984 45.3584 201.832 43.9012 202.146 42.2226" fill="#000003"/>
<path d="M161.732 74.374C158.522 73.7284 156.438 70.611 157.083 67.4014L159.463 55.5222L171.102 57.8464L168.723 69.7256C168.077 72.9352 164.96 75.0196 161.75 74.374" fill="white"/>
<path d="M161.732 74.374C158.522 73.7284 156.438 70.611 157.083 67.4014L159.463 55.5222L171.102 57.8464L168.723 69.7256C168.077 72.9352 164.96 75.0196 161.75 74.374H161.732Z" stroke="#000003" stroke-width="0.627162" stroke-linecap="round" stroke-linejoin="round"/>
<path d="M179.144 57.053C177.908 63.214 171.913 67.2167 165.752 65.9809C159.591 64.745 155.589 58.75 156.825 52.5891C158.06 46.4282 164.055 42.4254 170.216 43.6613C176.377 44.8971 180.38 50.8921 179.144 57.053Z" fill="white"/>
<path d="M179.144 57.053C177.908 63.214 171.913 67.2167 165.752 65.9809C159.591 64.745 155.589 58.75 156.825 52.5891C158.06 46.4282 164.055 42.4254 170.216 43.6613C176.377 44.8971 180.38 50.8921 179.144 57.053Z" stroke="#000003" stroke-width="0.627162" stroke-linecap="round" stroke-linejoin="round"/>
<mask id="mask0_5056_26587" style="mask-type:luminance" maskUnits="userSpaceOnUse" x="164" y="50" width="9" height="6">
<path d="M164.313 52.5709C168.242 57.7727 172.319 54.4893 172.319 54.4893C172.319 54.4893 171.895 51.169 168.888 50.505C168.556 50.4312 168.242 50.3943 167.947 50.3943C165.549 50.3943 164.313 52.5709 164.313 52.5709Z" fill="white"/>
</mask>
<g mask="url(#mask0_5056_26587)">
<path d="M172.578 53.1796C172.301 54.5077 171.01 55.3746 169.682 55.1164C168.353 54.8581 167.486 53.5485 167.745 52.2204C168.003 50.8923 169.313 50.0253 170.641 50.2835C171.969 50.5602 172.836 51.8515 172.578 53.1796Z" fill="#000003"/>
</g>
<path d="M164.313 52.571C164.313 52.571 165.881 49.8225 168.888 50.4866C171.895 51.1691 172.319 54.4709 172.319 54.4709" stroke="#000003" stroke-width="0.627162" stroke-linecap="round" stroke-linejoin="round"/>
<path d="M175.787 55.3193C175.787 55.3193 176.894 53.364 179.052 53.1611" stroke="#000003" stroke-width="0.627162" stroke-linecap="round" stroke-linejoin="round"/>
<path d="M164.572 49.2321C164.572 49.2321 168.557 47.2768 172.246 49.6379" stroke="#000003" stroke-width="0.627162" stroke-linecap="round" stroke-linejoin="round"/>
<path d="M175.565 51.4824L175.953 59.7278" stroke="#000003" stroke-width="0.627162" stroke-linecap="round" stroke-linejoin="round"/>
<path d="M173.168 58.2708L174.422 59.1562" stroke="#000003" stroke-width="0.627162" stroke-linecap="round" stroke-linejoin="round"/>
<path d="M153.929 51.1135C153.541 53.0503 154.796 54.9503 156.732 55.3376C158.669 55.725 160.551 54.4707 160.957 52.5338C161.344 50.597 160.09 48.6971 158.153 48.3097C156.216 47.9224 154.334 49.1767 153.929 51.1135Z" fill="white"/>
<path d="M160.754 50.4494C160.311 49.398 159.37 48.568 158.153 48.3097C156.216 47.9224 154.334 49.1767 153.929 51.1135C153.541 53.0503 154.796 54.9318 156.732 55.3376C157.194 55.4298 157.673 55.4298 158.116 55.3376" stroke="#000003" stroke-width="0.627162" stroke-linecap="round" stroke-linejoin="round"/>
<path d="M155.883 51.8884C155.681 51.8515 155.551 51.6486 155.588 51.4457C155.791 50.4311 156.787 49.7486 157.82 49.97C158.023 50.0069 158.152 50.2098 158.115 50.4127C158.079 50.6156 157.876 50.7447 157.673 50.7078C157.064 50.5787 156.455 50.9845 156.345 51.5932C156.308 51.7961 156.105 51.9253 155.902 51.8884" fill="#000003"/>
<path d="M168.925 43.7167C168.925 43.7167 167.32 49.1952 158.521 48.402C158.521 48.402 162.432 42.0935 168.925 43.7167Z" fill="#000003"/>
<path d="M163.41 47.572L161.953 50.9845C161.695 51.5932 160.809 51.5748 160.588 50.9661C160.422 50.5418 160.237 50.0991 159.979 49.7487L158.577 48.0885L163.023 46.373L163.41 47.572Z" fill="#000003"/>
<path d="M168.703 43.3479C168.703 43.3479 169.312 49.2137 178.627 50.8001C178.627 50.8001 177.059 44.3993 168.703 43.3479Z" fill="#000003"/>
<mask id="mask1_5056_26587" style="mask-type:luminance" maskUnits="userSpaceOnUse" x="176" y="52" width="4" height="6">
<path d="M176.193 54.7477C176.193 54.7477 177.06 57.0719 179.182 57.2748C179.182 57.2748 180.251 54.3972 178.979 52.9031C178.979 52.9031 176.784 53.7331 176.175 54.7292" fill="white"/>
</mask>
<g mask="url(#mask1_5056_26587)">
<path d="M181.727 54.9506C181.45 56.2787 180.159 57.1456 178.831 56.8874C177.503 56.6291 176.636 55.3195 176.894 53.9914C177.152 52.6633 178.462 51.7963 179.79 52.0545C181.118 52.3312 181.985 53.6225 181.727 54.9506Z" fill="#000003"/>
</g>
<path d="M167.136 59.0271C167.136 59.0271 168.021 61.7018 170.936 62.9376" stroke="#000003" stroke-width="0.627162" stroke-linecap="round" stroke-linejoin="round"/>
<path d="M179.605 54.6738L181.523 45.0634L164.369 41.6325C161.51 41.0607 158.743 42.9053 158.171 45.7644L157.673 48.2362L159.019 48.5128L168.906 43.7169L178.609 50.8001L179.587 54.6738H179.605Z" fill="#000003"/>
<path d="M137.53 121.005C137.53 121.005 137.53 124.197 142.861 132.331C147.878 139.986 158.024 155.997 158.024 155.997" stroke="white" stroke-width="0.627162" stroke-linecap="round" stroke-linejoin="round"/>
<path d="M125.375 120.12C120.819 117.224 115.801 114.568 111.577 111.229C118.716 101.951 124.047 96.5276 130.447 86.7328C131.314 85.4232 143.821 68.6189 143.802 68.582C145.684 71.1091 150.369 76.4031 149.41 79.6865C149.115 80.701 148.506 81.6049 147.953 82.5087C144.06 89.0939 143.747 97.1917 139.338 103.519C134.653 110.233 131.204 112.114 125.375 120.12Z" fill="#E53E51"/>
<path d="M152.471 84.7222C152.471 84.7222 157.027 73.4332 147.896 69.8547" stroke="#000003" stroke-width="0.627162" stroke-linecap="round" stroke-linejoin="round"/>
<path d="M176.396 78.801C176.396 78.801 174.809 82.7853 176.193 90.1453C176.193 90.1453 177.521 96.1218 170.77 99.5158" stroke="#000003" stroke-width="0.627162" stroke-linecap="round" stroke-linejoin="round"/>
<path d="M208.824 91.3444L199.859 80.3137L184.217 91.3813" stroke="#000003" stroke-width="0.627162" stroke-linecap="round" stroke-linejoin="round"/>
<path d="M214.487 74.7615H210.429" stroke="#000003" stroke-width="0.627162" stroke-linecap="round" stroke-linejoin="round"/>
<path d="M209.045 75.5547C209.045 75.5547 207.643 78.1002 213.158 78.6352" stroke="#000003" stroke-width="0.627162" stroke-linecap="round" stroke-linejoin="round"/>
<path d="M209.247 77.2146C209.247 77.2146 206.628 80.3873 211.83 82.1581" stroke="#000003" stroke-width="0.627162" stroke-linecap="round" stroke-linejoin="round"/>
<path d="M208.971 80.3137C208.971 80.3137 206.591 83.5049 210.668 85.4048" stroke="#000003" stroke-width="0.627162" stroke-linecap="round" stroke-linejoin="round"/>
<path d="M147.196 93.0784L125.375 120.12L111.577 111.211" stroke="#000003" stroke-width="0.627162" stroke-linecap="round" stroke-linejoin="round"/>
</g>
</g>
<defs>
<clipPath id="clip0_5056_26587">
<rect width="281" height="218" fill="white"/>
</clipPath>
<clipPath id="clip1_5056_26587">
<rect width="242" height="69.4109" fill="white" transform="translate(19.1758 34.5889)"/>
</clipPath>
<clipPath id="clip2_5056_26587">
<rect width="710.632" height="148.07" fill="white" transform="translate(-304 70)"/>
</clipPath>
<clipPath id="clip3_5056_26587">
<rect width="287.572" height="218.4" fill="white" transform="translate(2.33984)"/>
</clipPath>
</defs>
</svg>
