<svg width="314" height="243" viewBox="0 0 314 243" fill="none" xmlns="http://www.w3.org/2000/svg">
<path d="M76.3677 209.705H70.9219L70.9833 210.033C71.0652 210.422 71.1266 210.831 71.2085 211.22L71.2494 211.445H76.859L76.7771 211.097C76.6748 210.688 76.5519 210.299 76.4496 209.889L76.3882 209.685L76.3677 209.705ZM76.1425 210.913H71.6999C71.6589 210.688 71.618 210.483 71.577 210.258H75.9582C76.0197 210.483 76.0811 210.688 76.1425 210.913Z" fill="#000003"/>
<path d="M74.2799 203.501H69.4482L69.5506 203.849C69.653 204.238 69.7553 204.647 69.8577 205.036L69.9191 205.241H74.935L74.8122 204.873C74.6688 204.463 74.5255 204.074 74.3618 203.665L74.3003 203.48L74.2799 203.501ZM74.157 204.709H70.3286C70.2672 204.484 70.2057 204.279 70.1648 204.054H73.9114C73.9932 204.279 74.0751 204.484 74.157 204.709Z" fill="#000003"/>
<path d="M75.4063 206.613H70.2471L70.329 206.941C70.4109 207.33 70.5132 207.739 70.5951 208.128L70.6361 208.353H75.959L75.8567 208.005C75.7338 207.596 75.611 207.207 75.4677 206.798L75.4063 206.613ZM75.222 207.821H71.066C71.025 207.596 70.9636 207.391 70.9227 207.166H74.9968C75.0582 207.391 75.1401 207.596 75.2015 207.821" fill="#000003"/>
<path d="M73.01 200.41H68.5469L68.6492 200.758C68.7721 201.147 68.8949 201.557 69.0178 201.946L69.0792 202.15H73.747L73.5832 201.761C73.4194 201.352 73.2352 200.963 73.0714 200.553L73.01 200.39V200.41ZM72.9281 201.618H69.4682C69.4067 201.393 69.3453 201.188 69.2634 200.963H72.6415C72.7438 201.188 72.8257 201.393 72.9281 201.618Z" fill="#000003"/>
<path d="M95.3268 191.586C94.9788 192.118 94.3236 192.302 93.8732 192.015C93.4228 191.729 93.3205 191.074 93.648 190.541L124.624 142.123C124.972 141.611 125.606 141.406 126.077 141.693C126.548 141.98 126.65 142.635 126.302 143.167L95.3473 191.565L95.3268 191.586Z" fill="#E53E51"/>
<path d="M79.4607 192.425C79.1126 192.937 78.4575 193.142 78.0071 192.855C77.5362 192.568 77.4339 191.913 77.7819 191.381L111.112 140.485C111.46 139.973 112.115 139.769 112.565 140.055C113.016 140.342 113.139 140.997 112.791 141.529L79.4607 192.405V192.425Z" fill="#E53E51"/>
<path fill-rule="evenodd" clip-rule="evenodd" d="M114.489 135.674L128.882 138.233C130.192 138.478 130.929 139.932 130.499 141.488C130.069 143.044 128.657 144.108 127.326 143.883L112.933 141.324C111.603 141.078 110.886 139.625 111.316 138.089C111.746 136.533 113.159 135.469 114.489 135.694" fill="#000003"/>
<path fill-rule="evenodd" clip-rule="evenodd" d="M56.2438 231.139C59.11 229.685 62.2628 230.709 63.2865 233.411C64.3101 236.114 62.8361 239.492 59.9698 240.946C57.1036 242.399 53.9508 241.375 52.9271 238.673C51.9035 235.971 53.398 232.593 56.2438 231.139Z" fill="#000003"/>
<path fill-rule="evenodd" clip-rule="evenodd" d="M57.8401 233.412C59.4165 232.613 61.1362 233.187 61.7094 234.661C62.2827 236.155 61.4638 237.998 59.8874 238.796C58.3109 239.595 56.5912 239.042 56.018 237.547C55.4447 236.053 56.2636 234.21 57.8401 233.412Z" fill="white"/>
<path fill-rule="evenodd" clip-rule="evenodd" d="M75.5701 238.755C88.4476 235.275 111.521 197.256 110.64 183.662C110.19 176.374 99.4416 169.802 93.3816 169.29C90.5563 169.045 82.7561 168.84 74.7102 178.851C66.6643 188.862 47.1331 219.449 46.3756 225.509C45.6181 231.569 49.7332 238.878 75.5701 238.755Z" fill="#FFE816"/>
<path fill-rule="evenodd" clip-rule="evenodd" d="M74.4037 235.868C87.2812 232.388 110.354 194.369 109.494 180.775C109.024 173.487 98.787 169.699 92.727 169.187C89.9018 168.942 77.3109 173.323 69.265 183.334C61.2191 193.346 47.5637 218.814 46.8062 224.894C46.0487 230.954 48.5873 236.011 74.4037 235.888" fill="#E53E51"/>
<path fill-rule="evenodd" clip-rule="evenodd" d="M95.5107 169.454C88.4066 167.202 79.8079 169.269 70.1242 179.67C62.0374 188.371 40.6022 223.543 47.3787 230.709C49.6103 231.937 53.7868 233.534 56.8372 232.92C70.1037 230.279 98.5611 181.389 95.4902 169.454" fill="#FFE816"/>
<path fill-rule="evenodd" clip-rule="evenodd" d="M76.0402 229.624C79.3364 228.744 82.3459 230.648 82.7554 233.882C83.1443 237.117 80.8104 240.475 77.4938 241.376C74.1772 242.256 71.1881 240.352 70.7787 237.117C70.3897 233.882 72.7236 230.525 76.0402 229.624Z" fill="#000003"/>
<path fill-rule="evenodd" clip-rule="evenodd" d="M77.1463 232.531C78.9684 232.04 80.6062 233.104 80.8314 234.885C81.0566 236.667 79.7463 238.509 77.9447 239C76.1226 239.492 74.4848 238.448 74.2596 236.646C74.0344 234.865 75.3446 233.022 77.1463 232.531Z" fill="white"/>
<path fill-rule="evenodd" clip-rule="evenodd" d="M63 189.887C73.4617 180.633 87.3424 179.2 88.9188 192.507C84.5785 180.899 73.9735 182.578 63 189.887Z" fill="#E53E51"/>
<path fill-rule="evenodd" clip-rule="evenodd" d="M68.63 192.548L77.1468 190.051C77.9657 189.805 78.4775 190.296 78.3138 191.156L76.6555 199.222C76.4917 200.062 75.6728 200.942 74.8538 201.188L66.3371 203.686C65.5182 203.931 65.0063 203.44 65.1701 202.6L66.8284 194.534C66.9922 193.695 67.8111 192.814 68.63 192.569" fill="white"/>
<path fill-rule="evenodd" clip-rule="evenodd" d="M69.3056 193.755L75.5499 191.913C76.1231 191.749 76.4916 192.097 76.3688 192.691L75.2018 198.341C75.079 198.935 74.5057 199.549 73.9325 199.713L67.6882 201.555C67.115 201.719 66.7465 201.371 66.8693 200.798L68.0363 195.147C68.1591 194.554 68.7119 193.939 69.2851 193.776" fill="#3CB4E5"/>
<path fill-rule="evenodd" clip-rule="evenodd" d="M74.4854 199.468C74.3625 199.55 74.2397 199.611 74.1168 199.652L67.5246 201.597C67.3198 201.658 67.156 201.617 67.0332 201.535C67.8316 200.287 70.0427 197.175 70.3908 196.622C71.1278 195.537 70.5955 196.827 71.5577 195.291C72.2333 194.227 72.8475 195.967 73.1341 196.438C73.2365 196.601 74.1783 198.813 74.4649 199.468" fill="#000003"/>
<path fill-rule="evenodd" clip-rule="evenodd" d="M70.2668 196.867L70.3896 196.56C70.1439 197.522 69.3455 199.058 70.7991 197.318C71.2495 196.785 71.7408 196.212 72.0274 196.355C72.4983 196.601 73.133 196.376 72.7235 195.536C72.6211 195.332 72.4369 194.922 72.2526 194.902C72.1298 194.902 72.0889 194.881 71.9251 194.943C71.7203 195.066 71.1471 195.762 71.1061 195.782C70.7581 196.007 70.4715 196.499 70.2668 196.867Z" fill="white"/>
<path fill-rule="evenodd" clip-rule="evenodd" d="M66.2552 210.462C66.4394 211.199 65.2725 212.181 64.4536 212.427L55.9368 214.925C55.1179 215.17 54.3399 214.638 54.7698 213.84C56.6943 210.114 56.0596 210.851 59.9904 204.258C61.055 202.457 62.3448 201.72 63.1638 203.337C64.0646 205.159 65.6819 208.271 66.2552 210.462Z" fill="white"/>
<path fill-rule="evenodd" clip-rule="evenodd" d="M64.0641 208.62C64.2074 209.152 63.3475 209.869 62.7538 210.053L57.9222 211.527C57.3285 211.711 56.7757 211.343 57.0623 210.749C58.475 208.067 57.2261 210.114 60.0923 205.364C60.8703 204.075 61.8325 203.542 62.4058 204.689C63.0609 205.979 63.6546 207.064 64.0641 208.64" fill="#E53E51"/>
<path fill-rule="evenodd" clip-rule="evenodd" d="M56.4076 212.857C56.3462 213.103 56.121 213.901 56.1824 214.085C56.9808 213.737 56.6533 213.86 57.3289 213.758C57.8407 212.652 58.0045 213.41 58.0659 213.594C59.847 213.246 59.2124 212.918 59.6218 212.816C60.3998 212.632 59.499 213.471 61.0345 212.488C61.0345 212.488 61.7715 212.325 61.8329 212.304C62.2833 212.14 63.9826 211.874 64.2897 211.588C64.5968 211.301 64.433 212.632 65.0267 210.584C65.4362 209.172 63.7369 210.973 63.5527 210.646C63.4912 210.584 63.4298 210.523 63.4093 210.462C62.3652 211.158 62.9999 211.137 61.7306 211.137C61.1368 211.137 61.5872 211.649 60.6864 211.854L59.6833 212.059C59.6833 211.444 59.4581 211.547 58.3525 212.038C57.8407 212.263 57.9226 212.796 57.6155 212.55C57.5131 212.468 57.247 212.632 57.1446 212.714C57.1037 212.693 56.6123 211.936 56.3462 212.816C56.3462 212.877 56.4076 212.857 56.4076 212.877" fill="#3CB4E5"/>
<path fill-rule="evenodd" clip-rule="evenodd" d="M64.1874 214.781C62.6315 214.085 60.1338 215.416 58.6393 217.77C57.1447 220.125 57.1857 222.602 58.7416 223.319C60.2976 224.015 62.7953 222.684 64.2898 220.33C65.7843 217.975 65.7434 215.498 64.1874 214.781Z" fill="white"/>
<path fill-rule="evenodd" clip-rule="evenodd" d="M63.5517 215.682C62.2824 215.129 60.276 216.194 59.0476 218.098C57.8192 219.981 57.8602 221.988 59.1295 222.54C60.3988 223.093 62.4052 222.029 63.6336 220.125C64.862 218.221 64.821 216.235 63.5517 215.682Z" fill="white"/>
<path fill-rule="evenodd" clip-rule="evenodd" d="M58.3935 219.469C59.581 219.203 62.7133 216.91 64.126 216.399C64.1669 216.399 64.2283 216.358 64.2693 216.337C64.1055 216.051 63.8803 215.825 63.5527 215.702C62.2834 215.15 60.277 216.214 59.0487 218.118C58.762 218.569 58.5368 219.04 58.373 219.49" fill="#3CB4E5"/>
<path fill-rule="evenodd" clip-rule="evenodd" d="M58.2695 221.681C59.1908 221.128 62.6507 219.367 63.6539 218.712L63.7768 218.63C64.0634 218.446 64.2681 218.344 64.3909 218.323C64.2476 218.896 64.002 219.531 63.5925 220.145C62.3641 222.029 60.3578 223.114 59.0884 222.561C58.6995 222.397 58.4333 222.07 58.2695 221.681Z" fill="#E53E51"/>
<path d="M112.81 145.276C114.325 146.3 116.127 147.037 117.99 146.71C119.812 146.382 121.184 145.215 122.371 143.864C122.617 143.577 122.596 143.106 122.269 142.902C122.248 142.902 122.207 142.861 122.187 142.861C120.856 142.39 119.873 142.001 120.098 140.609C120.098 140.588 120.098 140.547 120.098 140.527C120.487 137.906 122.494 136.944 124.91 137.415C125.933 137.599 126.957 137.804 127.981 138.009C128.308 137.353 127.96 136.575 127.981 135.838C128.062 134.528 129.127 133.914 130.007 133.156C131.051 132.235 132.178 131.13 132.833 129.881C131.973 129.451 124.684 124.333 124.275 124.742C121.736 127.26 119.116 129.84 115.861 131.334C114.386 132.01 112.81 132.44 111.397 133.218C108.511 134.794 107.078 138.766 108.9 141.755C109.78 143.209 111.377 144.355 112.769 145.297" fill="white"/>
<path d="M112.81 145.276C114.325 146.3 116.127 147.037 117.99 146.71C119.812 146.382 121.184 145.215 122.371 143.864C122.617 143.577 122.596 143.106 122.269 142.902C122.248 142.902 122.207 142.861 122.187 142.861C120.856 142.39 119.873 142.001 120.098 140.609C120.098 140.588 120.098 140.547 120.098 140.527C120.487 137.906 122.494 136.944 124.91 137.415C125.933 137.599 126.957 137.804 127.981 138.009C128.308 137.353 127.96 136.575 127.981 135.838C128.062 134.528 129.127 133.914 130.007 133.156C131.051 132.235 132.178 131.13 132.833 129.881C131.973 129.451 124.684 124.333 124.275 124.742C121.736 127.26 119.116 129.84 115.861 131.334C114.386 132.01 112.81 132.44 111.397 133.218C108.511 134.794 107.078 138.766 108.9 141.755C109.78 143.209 111.377 144.355 112.769 145.297L112.81 145.276Z" stroke="#000003" stroke-width="0.696081" stroke-linecap="round" stroke-linejoin="round"/>
<path d="M117.991 146.688C117.991 146.688 115.083 146.709 114.592 143.843C114.49 143.229 114.531 142.614 114.674 142L114.92 140.956" fill="white"/>
<path d="M117.991 146.688C117.991 146.688 115.083 146.709 114.592 143.843C114.49 143.229 114.531 142.614 114.674 142L114.92 140.956" stroke="#000003" stroke-width="0.696081" stroke-linecap="round" stroke-linejoin="round"/>
<path d="M111.847 144.6C111.847 144.6 110.312 143.105 112.113 139.952L111.847 144.6Z" fill="white"/>
<path d="M111.847 144.6C111.847 144.6 110.312 143.105 112.113 139.952" stroke="#000003" stroke-width="0.696081" stroke-linecap="round" stroke-linejoin="round"/>
<path d="M265.56 212.591C267.259 212.428 268.16 214.557 266.87 215.683L239.17 239.657C237.512 241.09 235.014 240.946 233.52 239.35L222.116 222.644L236.181 210.646L241.873 218.918C242.794 220.248 244.514 220.74 245.988 220.064C251.024 217.792 262.141 212.919 265.58 212.591" fill="white"/>
<path d="M265.56 212.591C267.259 212.428 268.16 214.557 266.87 215.683L239.17 239.657C237.512 241.09 235.014 240.946 233.52 239.35L222.116 222.644L236.181 210.646L241.873 218.918C242.794 220.248 244.514 220.74 245.988 220.064C251.024 217.792 262.141 212.919 265.58 212.591H265.56Z" stroke="#000003" stroke-width="0.696081" stroke-linecap="round" stroke-linejoin="round"/>
<path d="M138.647 239.88C139.343 241.375 137.951 242.051 136.272 242.051L121.388 241.15C120.61 241.109 119.852 240.781 119.279 240.228L105.439 226.901C103.454 224.587 102.921 223.563 103.904 221.68L116.393 206.305L131.379 214.228L126.199 223.338C125.646 224.321 125.483 225.488 125.79 226.573C126.158 227.924 126.69 229.849 127.059 231.261C127.387 232.449 128.205 233.452 129.331 233.984C132.259 235.376 137.848 238.202 138.626 239.86" fill="white"/>
<path d="M138.647 239.88C139.343 241.375 137.951 242.051 136.272 242.051L121.388 241.15C120.61 241.109 119.852 240.781 119.279 240.228L105.439 226.901C103.454 224.587 102.921 223.563 103.904 221.68L116.393 206.305L131.379 214.228L126.199 223.338C125.646 224.321 125.483 225.488 125.79 226.573C126.158 227.924 126.69 229.849 127.059 231.261C127.387 232.449 128.205 233.452 129.331 233.984C132.259 235.376 137.848 238.202 138.626 239.86L138.647 239.88Z" stroke="#000003" stroke-width="0.696081" stroke-linecap="round" stroke-linejoin="round"/>
<path d="M243.162 80.3762C243.162 78.1856 235.812 78.5337 233.52 78.636C231.227 78.7384 225.433 79.0864 224.819 80.2534C224.184 81.3999 220.314 88.9339 220.314 88.9339L225.801 100.051L228.033 96.3247C228.176 96.1404 228.36 95.9561 228.606 95.9561C233.642 96.0176 233.294 91.186 233.294 91.186C233.294 91.186 235.423 91.7592 235.71 90.0599C235.997 88.3812 234.768 87.2756 234.768 87.2756C234.768 87.2756 237.143 87.1528 237.348 85.7401C237.553 84.3275 236.263 82.9558 236.263 82.9558C238.802 82.9968 243.162 82.6078 243.162 80.3762Z" fill="white"/>
<path d="M243.162 80.3762C243.162 78.1856 235.812 78.5337 233.52 78.636C231.227 78.7384 225.433 79.0864 224.819 80.2534C224.184 81.3999 220.314 88.9339 220.314 88.9339L225.801 100.051L228.033 96.3247C228.176 96.1404 228.36 95.9561 228.606 95.9561C233.642 96.0176 233.294 91.186 233.294 91.186C233.294 91.186 235.423 91.7592 235.71 90.0599C235.997 88.3812 234.768 87.2756 234.768 87.2756C234.768 87.2756 237.143 87.1528 237.348 85.7401C237.553 84.3275 236.263 82.9558 236.263 82.9558C238.802 82.9968 243.162 82.6078 243.162 80.3762Z" stroke="#000003" stroke-width="0.696081" stroke-linecap="round" stroke-linejoin="round"/>
<path d="M266.869 215.682L239.17 239.656C237.511 241.089 235.014 240.946 233.54 239.349L226.906 229.625C233.335 220.862 240.828 228.724 247.256 224.854C253.05 221.353 256.592 216.378 257.37 215.232C260.83 213.86 264.024 212.755 265.58 212.611C267.279 212.448 268.18 214.577 266.89 215.703" fill="#000003"/>
<path d="M244.8 206.224L185.49 130.822L185.879 120.544L152.57 113.952C152.631 115.651 149.703 126.461 151.075 136.083C135.475 164.93 111.398 210.605 111.398 210.605L144.892 229.747L172.551 170.867C191.427 197.523 214.705 230.423 214.705 230.423L244.821 206.224H244.8Z" fill="#000003"/>
<path d="M109.923 214.29C120.876 217.852 115.553 226.963 119.504 231.59C123.579 236.38 131.686 235.172 131.686 235.152C131.932 235.111 132.669 235.664 132.894 235.787C133.406 236.053 133.917 236.339 134.409 236.626C135.453 237.22 136.456 237.854 137.398 238.571C138.176 239.165 139.056 240.065 138.688 241.13C138.34 242.133 136.251 242.051 136.251 242.051L121.286 241.151C120.549 241.11 119.852 240.802 119.32 240.291L105.439 226.901C103.454 224.588 102.921 223.564 103.904 221.681L109.923 214.27V214.29Z" fill="#000003"/>
<path d="M220.006 89.1386L207.497 97.983C207.497 97.983 201.724 89.63 197.159 84.5118C191.569 78.2061 185.53 77.121 177.075 75.258C173.635 74.5005 170.871 73.5792 167.35 73.6406C157.093 73.7634 155.332 77.2848 146.652 91.2474C142.537 97.8601 154.964 99.8051 154.964 99.8051L151.463 114.812L185.816 121.998L187.332 111.413C187.434 110.779 187.823 110.205 188.396 109.919C191.078 108.567 192.163 106.623 192.163 106.623C197.118 117.883 207.231 120.483 215.728 114.402C224.797 107.953 229.936 101.402 229.936 101.402L219.986 89.1386H220.006Z" fill="#E53E51"/>
<path d="M222.586 46.8621C223.282 43.0542 221.194 39.3895 217.796 37.895C218.041 37.3217 218.246 36.7075 218.369 36.0524C219.167 31.5893 216.219 27.3309 211.756 26.512C210.999 26.3687 210.262 26.3482 209.545 26.4301C209.545 26.4096 209.545 26.3892 209.545 26.3482C210.343 21.8851 207.395 17.6267 202.932 16.8078C200.783 16.4188 198.694 16.9102 196.995 18.0157C196.094 15.2314 193.719 13.0203 190.648 12.4675C187.537 11.9148 184.527 13.1841 182.705 15.4975C182.398 15.4975 182.091 15.5385 181.784 15.559C180.596 13.7573 178.692 12.4061 176.399 11.9967C171.936 11.1982 167.678 14.1463 166.859 18.6094C166.859 18.6299 166.859 18.6504 166.859 18.6913C166.204 18.3842 165.508 18.1386 164.75 17.9952C160.287 17.1968 156.029 20.1449 155.21 24.608C155.087 25.2632 155.066 25.8978 155.087 26.5325C151.381 26.7372 148.147 29.4601 147.471 33.2681C147.143 35.1311 147.471 36.9737 148.269 38.5296C146.959 39.6966 146.017 41.2935 145.669 43.177C145.014 46.7598 146.795 50.1992 149.825 51.8575C149.416 52.615 149.109 53.4544 148.945 54.3552C148.147 58.8183 151.095 63.0767 155.558 63.8956C156.356 64.039 157.134 64.0594 157.892 63.9775C158.199 67.5808 160.881 70.6722 164.607 71.3478C168.353 72.0234 171.957 70.0375 173.492 66.7414C175.171 67.417 176.932 67.9493 178.774 68.2769C181.374 68.7477 183.933 68.8092 186.431 68.5225C186.472 72.3919 189.236 75.7904 193.167 76.507C196.893 77.1826 200.475 75.2172 202.031 71.962C202.707 72.31 203.465 72.5557 204.243 72.699C208.706 73.4975 212.984 70.5494 213.783 66.0862C213.947 65.1854 213.947 64.2846 213.824 63.4452C217.243 62.9539 220.109 60.3538 220.764 56.771C221.092 54.908 220.764 53.0654 219.945 51.5095C221.256 50.3425 222.197 48.7252 222.545 46.8621" fill="#000003"/>
<path d="M177.689 82.5464C174.127 81.8299 171.813 78.3699 172.53 74.8076L175.171 61.623L188.089 64.2026L185.448 77.3872C184.731 80.9495 181.272 83.263 177.709 82.5464" fill="white"/>
<path d="M177.689 82.5464C174.127 81.8299 171.813 78.3699 172.53 74.8076L175.171 61.623L188.089 64.2026L185.448 77.3872C184.731 80.9495 181.272 83.263 177.709 82.5464H177.689Z" stroke="#000003" stroke-width="0.696081" stroke-linecap="round" stroke-linejoin="round"/>
<path d="M197.015 63.3229C195.643 70.1609 188.99 74.6035 182.152 73.2319C175.314 71.8602 170.871 65.2065 172.243 58.3685C173.614 51.5305 180.268 47.0879 187.106 48.4596C193.944 49.8313 198.387 56.485 197.015 63.3229Z" fill="white"/>
<path d="M197.015 63.3229C195.643 70.1609 188.99 74.6035 182.152 73.2319C175.314 71.8602 170.871 65.2065 172.243 58.3685C173.614 51.5305 180.268 47.0879 187.106 48.4596C193.944 49.8313 198.387 56.485 197.015 63.3229Z" stroke="#000003" stroke-width="0.696081" stroke-linecap="round" stroke-linejoin="round"/>
<mask id="mask0_15192_12662" style="mask-type:luminance" maskUnits="userSpaceOnUse" x="180" y="55" width="10" height="7">
<path d="M180.556 58.3475C184.916 64.1208 189.441 60.4766 189.441 60.4766C189.441 60.4766 188.97 56.7915 185.633 56.0545C185.264 55.9726 184.916 55.9316 184.589 55.9316C181.927 55.9316 180.556 58.3475 180.556 58.3475Z" fill="white"/>
</mask>
<g mask="url(#mask0_15192_12662)">
<path d="M189.728 59.0236C189.421 60.4976 187.988 61.4598 186.514 61.1732C185.04 60.8866 184.077 59.433 184.364 57.959C184.651 56.4849 186.104 55.5227 187.578 55.8093C189.052 56.1164 190.015 57.5495 189.728 59.0236Z" fill="#000003"/>
</g>
<path d="M180.555 58.3473C180.555 58.3473 182.295 55.2968 185.632 56.0338C188.969 56.7913 189.44 60.456 189.44 60.456" stroke="#000003" stroke-width="0.696081" stroke-linecap="round" stroke-linejoin="round"/>
<path d="M193.289 61.3983C193.289 61.3983 194.517 59.2281 196.913 59.0029" stroke="#000003" stroke-width="0.696081" stroke-linecap="round" stroke-linejoin="round"/>
<path d="M180.842 54.6416C180.842 54.6416 185.264 52.4714 189.359 55.092" stroke="#000003" stroke-width="0.696081" stroke-linecap="round" stroke-linejoin="round"/>
<path d="M193.043 57.1396L193.473 66.2911" stroke="#000003" stroke-width="0.696081" stroke-linecap="round" stroke-linejoin="round"/>
<path d="M190.383 64.6738L191.775 65.6565" stroke="#000003" stroke-width="0.696081" stroke-linecap="round" stroke-linejoin="round"/>
<path d="M169.029 56.7299C168.599 58.8795 169.991 60.9882 172.141 61.4182C174.291 61.8481 176.379 60.4559 176.829 58.3063C177.259 56.1566 175.867 54.0479 173.717 53.618C171.568 53.188 169.48 54.5802 169.029 56.7299Z" fill="white"/>
<path d="M176.604 55.9928C176.113 54.8259 175.069 53.9046 173.717 53.618C171.568 53.188 169.48 54.5802 169.029 56.7299C168.599 58.8795 169.991 60.9678 172.141 61.4182C172.653 61.5205 173.185 61.5205 173.676 61.4182" stroke="#000003" stroke-width="0.696081" stroke-linecap="round" stroke-linejoin="round"/>
<path d="M171.199 57.5896C170.974 57.5487 170.83 57.3235 170.871 57.0983C171.096 55.9722 172.202 55.2147 173.348 55.4604C173.574 55.5014 173.717 55.7266 173.676 55.9518C173.635 56.177 173.41 56.3203 173.185 56.2793C172.509 56.136 171.833 56.5864 171.711 57.262C171.67 57.4872 171.444 57.6306 171.219 57.5896" fill="#000003"/>
<path d="M185.673 48.52C185.673 48.52 183.892 54.6004 174.126 53.7201C174.126 53.7201 178.466 46.7184 185.673 48.52Z" fill="#000003"/>
<path d="M179.552 52.7995L177.935 56.587C177.648 57.2626 176.666 57.2421 176.42 56.5665C176.236 56.0956 176.031 55.6043 175.744 55.2153L174.188 53.3727L179.122 51.4688L179.552 52.7995Z" fill="#000003"/>
<path d="M185.427 48.1113C185.427 48.1113 186.102 54.6217 196.441 56.3824C196.441 56.3824 194.701 49.2783 185.427 48.1113Z" fill="#000003"/>
<mask id="mask1_15192_12662" style="mask-type:luminance" maskUnits="userSpaceOnUse" x="193" y="58" width="5" height="6">
<path d="M193.74 60.7641C193.74 60.7641 194.702 63.3437 197.057 63.5689C197.057 63.5689 198.244 60.3751 196.832 58.7168C196.832 58.7168 194.395 59.6381 193.72 60.7436" fill="white"/>
</mask>
<g mask="url(#mask1_15192_12662)">
<path d="M199.882 60.9894C199.575 62.4634 198.142 63.4257 196.668 63.139C195.194 62.8524 194.232 61.3988 194.518 59.9248C194.805 58.4507 196.258 57.4885 197.733 57.7751C199.207 58.0822 200.169 59.5153 199.882 60.9894Z" fill="#000003"/>
</g>
<path d="M183.688 65.5137C183.688 65.5137 184.67 68.4822 187.905 69.8539" stroke="#000003" stroke-width="0.696081" stroke-linecap="round" stroke-linejoin="round"/>
<path d="M197.527 60.6815L199.656 50.0151L180.616 46.2072C177.443 45.5725 174.372 47.6198 173.737 50.7931L173.185 53.5365L174.679 53.8436L185.653 48.5206L196.421 56.3822L197.506 60.6815H197.527Z" fill="#000003"/>
<path d="M150.828 134.302C150.828 134.302 150.828 137.844 156.745 146.872C162.313 155.368 173.574 173.139 173.574 173.139" stroke="white" stroke-width="0.696081" stroke-linecap="round" stroke-linejoin="round"/>
<path d="M137.337 133.32C132.28 130.105 126.712 127.157 122.023 123.452C129.946 113.154 135.863 107.135 142.967 96.2636C143.93 94.81 157.81 76.1591 157.79 76.1182C159.878 78.923 165.078 84.7987 164.014 88.4429C163.686 89.5689 163.01 90.5721 162.396 91.5753C158.076 98.8841 157.728 107.872 152.835 114.894C147.635 122.346 143.807 124.434 137.337 133.32Z" fill="#E53E51"/>
<path d="M167.411 94.0325C167.411 94.0325 172.468 81.503 162.334 77.5312" stroke="#000003" stroke-width="0.696081" stroke-linecap="round" stroke-linejoin="round"/>
<path d="M193.965 87.46C193.965 87.46 192.204 91.8821 193.74 100.051C193.74 100.051 195.214 106.684 187.721 110.451" stroke="#000003" stroke-width="0.696081" stroke-linecap="round" stroke-linejoin="round"/>
<path d="M229.956 101.382L220.007 89.1387L202.646 101.422" stroke="#000003" stroke-width="0.696081" stroke-linecap="round" stroke-linejoin="round"/>
<path d="M236.241 82.9775H231.737" stroke="#000003" stroke-width="0.696081" stroke-linecap="round" stroke-linejoin="round"/>
<path d="M230.202 83.8574C230.202 83.8574 228.646 86.6827 234.768 87.2764" stroke="#000003" stroke-width="0.696081" stroke-linecap="round" stroke-linejoin="round"/>
<path d="M230.426 85.7002C230.426 85.7002 227.519 89.2215 233.292 91.187" stroke="#000003" stroke-width="0.696081" stroke-linecap="round" stroke-linejoin="round"/>
<path d="M230.12 89.1387C230.12 89.1387 227.479 92.6805 232.003 94.7892" stroke="#000003" stroke-width="0.696081" stroke-linecap="round" stroke-linejoin="round"/>
<path d="M161.557 103.307L137.337 133.32L122.023 123.432" stroke="#000003" stroke-width="0.696081" stroke-linecap="round" stroke-linejoin="round"/>
</svg>
