<svg width="41" height="40" viewBox="0 0 41 40" fill="none" xmlns="http://www.w3.org/2000/svg">
<g clip-path="url(#clip0_6223_177881)">
<path d="M29.4668 4.83325C28.4925 3.87612 27.1826 3.33781 25.8168 3.33325L7.30011 3.33325C5.93831 3.33321 4.63193 3.87254 3.66678 4.83325C2.71216 5.80245 2.17391 7.10622 2.16678 8.46659V30.6999C2.16457 31.3747 2.29585 32.0432 2.55304 32.667C2.81024 33.2908 3.18827 33.8575 3.66538 34.3346C4.1425 34.8118 4.70927 35.1898 5.33307 35.447C5.95686 35.7042 6.62537 35.8355 7.30011 35.8333H33.2334C33.9082 35.8355 34.5767 35.7042 35.2005 35.447C35.8243 35.1898 36.391 34.8118 36.8682 34.3346C37.3453 33.8575 37.7233 33.2908 37.9805 32.667C38.2377 32.0432 38.369 31.3747 38.3668 30.6999V15.8833C38.3668 14.5203 37.8265 13.2129 36.8643 12.2475C35.9021 11.2822 34.5964 10.7377 33.2334 10.7333H30.9668V8.46659C30.9686 7.79199 30.837 7.12368 30.5796 6.50013C30.3222 5.87658 29.944 5.31009 29.4668 4.83325ZM5.70011 6.86659C5.91729 6.64703 6.17735 6.47454 6.46408 6.35985C6.75081 6.24515 7.05809 6.19071 7.36677 6.19992H25.8168C26.1255 6.19071 26.4327 6.24515 26.7195 6.35985C27.0062 6.47454 27.2663 6.64703 27.4834 6.86659C27.6998 7.08607 27.8703 7.34654 27.9848 7.63272C28.0992 7.91891 28.1554 8.22507 28.1501 8.53325V10.7333H7.30011C6.99274 10.7436 6.68647 10.6914 6.39994 10.5796C6.11341 10.4679 5.85262 10.299 5.63344 10.0833C5.19943 9.6378 4.9597 9.03847 4.96677 8.41658C5.00397 7.82514 5.26641 7.27044 5.70011 6.86659ZM35.5001 25.5499H33.2334C32.7803 25.5623 32.3338 25.4385 31.9517 25.1946C31.5696 24.9506 31.2694 24.5976 31.0899 24.1813C30.9105 23.765 30.86 23.3044 30.945 22.8591C31.03 22.4138 31.2466 22.0042 31.5668 21.6833C31.7815 21.4604 32.0411 21.2857 32.3284 21.1707C32.6158 21.0558 32.9243 21.0032 33.2334 21.0166H35.5001V25.5499ZM33.2334 13.6166C33.5406 13.6081 33.8463 13.6613 34.1326 13.7729C34.4188 13.8845 34.6798 14.0524 34.9001 14.2666C35.1197 14.4838 35.2922 14.7438 35.4068 15.0306C35.5215 15.3173 35.576 15.6246 35.5668 15.9333V18.1499H33.2334C31.9204 18.2247 30.6857 18.799 29.7826 19.755C28.8795 20.7111 28.3763 21.9764 28.3763 23.2916C28.3763 24.6068 28.8795 25.8721 29.7826 26.8281C30.6857 27.7842 31.9204 28.3585 33.2334 28.4333H35.5001V30.6999C35.5073 31.0084 35.452 31.3151 35.3374 31.6015C35.2228 31.888 35.0514 32.1482 34.8334 32.3666C34.6163 32.5861 34.3562 32.7586 34.0695 32.8733C33.7827 32.988 33.4755 33.0425 33.1668 33.0333H7.30011C6.99192 33.0386 6.68577 32.9824 6.39958 32.8679C6.11339 32.7534 5.85293 32.583 5.63344 32.3666C5.41548 32.1482 5.24404 31.888 5.12946 31.6015C5.01488 31.3151 4.95953 31.0084 4.96677 30.6999V13.1166L5.60011 13.3333C6.13456 13.5273 6.6982 13.6287 7.26677 13.6333H33.2334V13.6166Z" fill="black"/>
</g>
<defs>
<clipPath id="clip0_6223_177881">
<rect width="36.2" height="32.5" fill="white" transform="translate(2.16675 3.33325)"/>
</clipPath>
</defs>
</svg>
