<svg fill="none" height="276" viewBox="0 0 279 276" width="279" xmlns="http://www.w3.org/2000/svg">
<path d="M157.744 247.6L150.32 270H145.904L140.368 253.424L134.736 270H130.288L122.864 247.6H127.184L132.752 264.624L138.544 247.6H142.384L148.048 264.72L153.776 247.6H157.744ZM175.532 261.552C175.532 261.829 175.51 262.224 175.468 262.736H162.06C162.294 263.995 162.902 264.997 163.884 265.744C164.886 266.469 166.124 266.832 167.596 266.832C169.473 266.832 171.02 266.213 172.236 264.976L174.38 267.44C173.612 268.357 172.641 269.051 171.468 269.52C170.294 269.989 168.972 270.224 167.5 270.224C165.622 270.224 163.969 269.851 162.54 269.104C161.11 268.357 160.001 267.323 159.212 266C158.444 264.656 158.06 263.141 158.06 261.456C158.06 259.792 158.433 258.299 159.18 256.976C159.948 255.632 161.004 254.587 162.348 253.84C163.692 253.093 165.206 252.72 166.892 252.72C168.556 252.72 170.038 253.093 171.34 253.84C172.662 254.565 173.686 255.6 174.412 256.944C175.158 258.267 175.532 259.803 175.532 261.552ZM166.892 255.92C165.612 255.92 164.524 256.304 163.628 257.072C162.753 257.819 162.22 258.821 162.028 260.08H171.724C171.553 258.843 171.03 257.84 170.156 257.072C169.281 256.304 168.193 255.92 166.892 255.92ZM179.374 246.256H183.374V270H179.374V246.256ZM196.464 270.224C194.693 270.224 193.104 269.851 191.696 269.104C190.288 268.357 189.189 267.323 188.4 266C187.611 264.656 187.216 263.141 187.216 261.456C187.216 259.771 187.611 258.267 188.4 256.944C189.189 255.621 190.277 254.587 191.664 253.84C193.072 253.093 194.672 252.72 196.464 252.72C198.149 252.72 199.621 253.061 200.88 253.744C202.16 254.427 203.12 255.408 203.76 256.688L200.688 258.48C200.197 257.691 199.579 257.104 198.832 256.72C198.107 256.315 197.307 256.112 196.432 256.112C194.939 256.112 193.701 256.603 192.72 257.584C191.739 258.544 191.248 259.835 191.248 261.456C191.248 263.077 191.728 264.379 192.688 265.36C193.669 266.32 194.917 266.8 196.432 266.8C197.307 266.8 198.107 266.608 198.832 266.224C199.579 265.819 200.197 265.221 200.688 264.432L203.76 266.224C203.099 267.504 202.128 268.496 200.848 269.2C199.589 269.883 198.128 270.224 196.464 270.224ZM214.648 270.224C212.92 270.224 211.362 269.851 209.976 269.104C208.589 268.357 207.501 267.323 206.712 266C205.944 264.656 205.56 263.141 205.56 261.456C205.56 259.771 205.944 258.267 206.712 256.944C207.501 255.621 208.589 254.587 209.976 253.84C211.362 253.093 212.92 252.72 214.648 252.72C216.397 252.72 217.965 253.093 219.352 253.84C220.738 254.587 221.816 255.621 222.584 256.944C223.373 258.267 223.768 259.771 223.768 261.456C223.768 263.141 223.373 264.656 222.584 266C221.816 267.323 220.738 268.357 219.352 269.104C217.965 269.851 216.397 270.224 214.648 270.224ZM214.648 266.8C216.12 266.8 217.336 266.309 218.296 265.328C219.256 264.347 219.736 263.056 219.736 261.456C219.736 259.856 219.256 258.565 218.296 257.584C217.336 256.603 216.12 256.112 214.648 256.112C213.176 256.112 211.96 256.603 211 257.584C210.061 258.565 209.592 259.856 209.592 261.456C209.592 263.056 210.061 264.347 211 265.328C211.96 266.309 213.176 266.8 214.648 266.8ZM249.161 252.72C251.315 252.72 253.022 253.349 254.281 254.608C255.539 255.845 256.169 257.712 256.169 260.208V270H252.169V260.72C252.169 259.227 251.838 258.107 251.177 257.36C250.515 256.592 249.566 256.208 248.329 256.208C246.985 256.208 245.907 256.656 245.097 257.552C244.286 258.427 243.881 259.685 243.881 261.328V270H239.881V260.72C239.881 259.227 239.55 258.107 238.889 257.36C238.227 256.592 237.278 256.208 236.041 256.208C234.675 256.208 233.587 256.645 232.777 257.52C231.987 258.395 231.593 259.664 231.593 261.328V270H227.593V252.912H231.401V255.088C232.041 254.32 232.841 253.733 233.801 253.328C234.761 252.923 235.827 252.72 237.001 252.72C238.281 252.72 239.411 252.965 240.393 253.456C241.395 253.925 242.185 254.629 242.761 255.568C243.465 254.672 244.371 253.979 245.481 253.488C246.59 252.976 247.817 252.72 249.161 252.72ZM277.501 261.552C277.501 261.829 277.479 262.224 277.437 262.736H264.029C264.263 263.995 264.871 264.997 265.853 265.744C266.855 266.469 268.093 266.832 269.565 266.832C271.442 266.832 272.989 266.213 274.205 264.976L276.349 267.44C275.581 268.357 274.61 269.051 273.437 269.52C272.263 269.989 270.941 270.224 269.469 270.224C267.591 270.224 265.938 269.851 264.509 269.104C263.079 268.357 261.97 267.323 261.181 266C260.413 264.656 260.029 263.141 260.029 261.456C260.029 259.792 260.402 258.299 261.149 256.976C261.917 255.632 262.973 254.587 264.317 253.84C265.661 253.093 267.175 252.72 268.861 252.72C270.525 252.72 272.007 253.093 273.309 253.84C274.631 254.565 275.655 255.6 276.381 256.944C277.127 258.267 277.501 259.803 277.501 261.552ZM268.861 255.92C267.581 255.92 266.493 256.304 265.597 257.072C264.722 257.819 264.189 258.821 263.997 260.08H273.693C273.522 258.843 272.999 257.84 272.125 257.072C271.25 256.304 270.162 255.92 268.861 255.92Z" fill="white"/>
<circle cx="88.5" cy="258.5" fill="#FFE816" r="14.5"/>
<path d="M103.285 -221.337L15.6124 -221.337C13.703 -221.337 11.8122 -220.961 10.048 -220.231C8.28385 -219.5 6.68091 -218.428 5.33075 -217.078C3.98059 -215.727 2.90969 -214.123 2.17924 -212.358C1.4488 -210.593 1.07313 -208.701 1.07368 -206.791V-206.791C1.07368 -202.934 2.60486 -199.235 5.33049 -196.507C8.05613 -193.779 11.753 -192.246 15.6082 -192.245L103.079 -192.245C105.068 -192.246 107.035 -191.837 108.859 -191.045C110.683 -190.253 112.325 -189.094 113.683 -187.64C115.04 -186.187 116.085 -184.469 116.751 -182.595C117.417 -180.72 117.691 -178.729 117.555 -176.744C117.053 -169.019 110.298 -163.183 102.564 -163.183L44.468 -163.183C32.9587 -163.182 21.9212 -158.607 13.7833 -150.464C5.64543 -142.321 1.07368 -131.278 1.07367 -119.763L1.07367 -119.344C1.07367 -107.829 5.64543 -96.7862 13.7833 -88.6436C21.9212 -80.5009 32.9587 -75.9259 44.468 -75.9248L102.598 -75.9248C110.332 -75.9248 117.078 -70.0596 117.559 -62.3426C117.69 -60.3603 117.412 -58.3723 116.743 -56.5018C116.074 -54.6313 115.028 -52.918 113.671 -51.4681C112.314 -50.0182 110.673 -48.8624 108.851 -48.0724C107.03 -47.2824 105.065 -46.8748 103.079 -46.8751L44.4554 -46.8751C32.9461 -46.874 21.9086 -42.2989 13.7707 -34.1563C5.63285 -26.0137 1.0611 -14.9704 1.0611 -3.45552L1.0611 -3.03657C1.06665 8.47607 5.64284 19.515 13.7831 27.6521C21.9233 35.7893 32.9609 40.3581 44.468 40.3537L103.092 40.3537C105.08 40.3531 107.048 40.7615 108.872 41.5536C110.696 42.3458 112.338 43.5047 113.695 44.9583C115.053 46.412 116.097 48.1294 116.763 50.0039C117.429 51.8783 117.703 53.8699 117.568 55.8547C117.065 63.5759 110.311 69.416 102.577 69.416L44.468 69.416C38.7684 69.4165 33.1248 70.5403 27.8594 72.7231C22.594 74.9059 17.8099 78.105 13.7803 82.1377C9.75076 86.1704 6.55458 90.9577 4.37436 96.2263C2.19413 101.495 1.07257 107.142 1.07366 112.844L1.07366 113.263C1.077 124.775 5.65034 135.815 13.788 143.954C21.9256 152.093 32.9612 156.666 44.468 156.666L102.598 156.666C110.332 156.666 117.078 162.531 117.559 170.248C117.69 172.23 117.412 174.219 116.743 176.089C116.074 177.96 115.029 179.674 113.671 181.124C112.314 182.574 110.674 183.73 108.852 184.521C107.03 185.311 105.065 185.719 103.079 185.72L44.4554 185.72C32.9487 185.723 21.9144 190.298 13.7791 198.44C5.64382 206.582 1.07366 217.623 1.07366 229.135L1.07366 229.554C1.07588 241.067 5.64873 252.108 13.7865 260.248C21.9243 268.388 32.9605 272.961 44.468 272.961L88.2182 272.961C92.0478 272.972 95.7273 271.471 98.4574 268.784C101.187 266.097 102.748 262.441 102.799 258.61C102.85 254.779 101.388 251.082 98.7313 248.323C96.0742 245.564 92.4362 243.965 88.6076 243.873L44.6731 243.873C40.8228 243.873 37.1301 242.343 34.4075 239.619C31.6849 236.895 30.1553 233.201 30.1553 229.349C30.1553 225.496 31.6849 221.802 34.4075 219.078C37.1301 216.354 40.8228 214.824 44.6731 214.824L103.297 214.824C108.997 214.823 114.64 213.698 119.905 211.514C125.17 209.331 129.953 206.131 133.982 202.097C138.011 198.063 141.205 193.275 143.384 188.006C145.563 182.737 146.682 177.09 146.679 171.387L146.679 170.968C146.676 159.456 142.102 148.416 133.965 140.276C125.827 132.136 114.792 127.563 103.285 127.561L45.1673 127.561C37.4373 127.561 30.6913 121.726 30.1972 114.009C30.0654 112.026 30.3419 110.037 31.0097 108.165C31.6775 106.293 32.7223 104.579 34.0794 103.127C35.4365 101.676 37.077 100.519 38.8993 99.7281C40.7215 98.937 42.6867 98.5287 44.6731 98.5285L103.297 98.5285C108.997 98.5274 114.64 97.4029 119.905 95.2192C125.17 93.0355 129.953 89.8355 133.982 85.8018C138.011 81.7682 141.205 76.98 143.384 71.7107C145.563 66.4415 146.682 60.7944 146.679 55.0922L146.679 54.6732C146.676 43.1606 142.102 32.1205 133.965 23.9806C125.827 15.8407 114.792 11.2674 103.285 11.2663L44.6606 11.2663C40.8102 11.2663 37.1176 9.73594 34.3949 7.012C31.6723 4.28806 30.1428 0.593609 30.1428 -3.25862C30.1428 -7.11085 31.6723 -10.8053 34.3949 -13.5292C37.1176 -16.2532 40.8102 -17.7835 44.6606 -17.7835L103.285 -17.7835C108.984 -17.7829 114.627 -18.9057 119.892 -21.0876C125.158 -23.2694 129.942 -26.4677 133.972 -30.4998C138.001 -34.5318 141.198 -39.3186 143.378 -44.5867C145.558 -49.8549 146.68 -55.5011 146.679 -61.203L146.679 -61.622C146.679 -73.1368 142.107 -84.1801 133.969 -92.3227C125.831 -100.465 114.794 -105.04 103.285 -105.042L45.1673 -105.042C37.4373 -105.042 30.6913 -110.877 30.1972 -118.594C30.0653 -120.577 30.3419 -122.566 31.0097 -124.437C31.6775 -126.309 32.7224 -128.023 34.0796 -129.474C35.4368 -130.925 37.0773 -132.082 38.8995 -132.872C40.7218 -133.663 42.6869 -134.071 44.6731 -134.07L103.297 -134.07C108.996 -134.07 114.639 -135.192 119.904 -137.374C125.169 -139.556 129.953 -142.754 133.983 -146.785C138.012 -150.817 141.209 -155.603 143.389 -160.871C145.57 -166.138 146.692 -171.784 146.691 -177.486L146.691 -177.905C146.694 -183.608 145.572 -189.257 143.392 -194.527C141.211 -199.797 138.014 -204.586 133.983 -208.619C129.952 -212.653 125.166 -215.852 119.899 -218.034C114.631 -220.216 108.986 -221.338 103.285 -221.337V-221.337Z" stroke="white" stroke-miterlimit="10"/>
</svg>
