<svg fill="none" height="23" viewBox="0 0 18 23" width="18" xmlns="http://www.w3.org/2000/svg">
    <path
        d="M0.47648 8.48531C0.746174 8.85874 0.974372 9.27365 1.11959 9.73006C1.26481 10.1865 1.3478 10.6636 1.3478 11.1615C1.3478 11.6594 1.26481 12.1366 1.11959 12.593C0.974372 13.0494 0.746174 13.4643 0.47648 13.8377C0.103057 14.3564 0.206788 15.0617 0.725431 15.4559C1.24407 15.8293 1.94943 15.7256 2.34359 15.2277C2.75851 14.6675 3.09044 14.0244 3.31865 13.3398C3.54685 12.6552 3.67133 11.9291 3.67133 11.1823C3.67133 10.4147 3.54685 9.68857 3.31865 9.00396C3.09044 8.31935 2.75851 7.69698 2.34359 7.1161C1.97017 6.59746 1.24407 6.49373 0.725431 6.88789C0.206788 7.26132 0.103057 7.96667 0.47648 8.48531Z"
        fill="white" />
    <path
        d="M4.41833 6.32788C5.28965 7.73859 5.78754 9.3775 5.78754 11.1616C5.78754 12.925 5.28965 14.5847 4.41833 15.9746C4.0864 16.514 4.25236 17.2194 4.79175 17.5513C5.33114 17.8832 6.0365 17.7173 6.36843 17.1779C7.44721 15.4353 8.06957 13.3607 8.06957 11.1409C8.06957 8.94184 7.44721 6.86727 6.36843 5.10388C6.0365 4.5645 5.33114 4.39853 4.79175 4.73046C4.25236 5.08314 4.0864 5.78849 4.41833 6.32788Z"
        fill="white" />
    <path
        d="M8.6089 4.14943C9.81215 6.20326 10.4968 8.58901 10.4968 11.1615C10.4968 13.7132 9.81215 16.1197 8.6089 18.1735C8.29771 18.7129 8.46368 19.4183 9.02381 19.7502C9.5632 20.0821 10.2685 19.8954 10.6005 19.3353C12.0112 16.9288 12.7995 14.1489 12.7995 11.1615C12.7995 8.19484 11.9904 5.39417 10.6005 2.98767C10.2893 2.44828 9.58394 2.26157 9.02381 2.57275C8.46368 2.90468 8.27696 3.61004 8.6089 4.14943Z"
        fill="white" />
    <path
        d="M12.7787 1.95047C14.3346 4.66816 15.2059 7.80076 15.2059 11.1616C15.2059 14.5224 14.3346 17.655 12.7787 20.3727C12.4675 20.9328 12.6542 21.6174 13.2144 21.9493C13.7745 22.2605 14.4798 22.0738 14.791 21.5137C16.5337 18.4641 17.5295 14.9373 17.5295 11.1823C17.5295 7.42734 16.5337 3.87982 14.791 0.830199C14.4798 0.270064 13.7745 0.0833515 13.2144 0.394537C12.6542 0.705723 12.4675 1.41108 12.7787 1.95047Z"
        fill="white" />
</svg>
