<svg fill="none" height="156" viewBox="0 0 263 156" width="263" xmlns="http://www.w3.org/2000/svg">
    <path
        d="M110.375 55.2159C110.375 85.7176 85.6733 110.432 55.1874 110.432C24.7015 110.432 0 85.7176 0 55.2159C0 24.7143 24.7015 0 55.1874 0C85.6733 0 110.375 24.7143 110.375 55.2159Z"
        fill="#E53E51" />
    <path
        d="M344.841 133.648V156C340.03 155.882 335.486 154.76 331.383 152.811C320.11 147.467 312.319 135.981 312.319 122.693V77.6939C312.319 71.5227 307.331 66.5326 301.163 66.5326C295.025 66.5326 290.008 71.5227 290.008 77.6939V97.3885C290.008 97.5066 290.008 123.963 290.008 123.963C289.713 133.382 285.492 141.798 278.941 147.644C273.097 152.841 265.395 156 256.954 156H256.393C251.317 156 246.477 154.849 242.169 152.811C230.984 147.496 223.222 136.158 223.104 122.989V77.6939C223.104 71.5227 218.116 66.5326 211.948 66.5326C205.81 66.5326 200.793 71.5227 200.793 77.6939V97.3885C200.793 97.5066 200.793 123.963 200.793 123.963C200.498 133.382 196.278 141.798 189.726 147.644C183.883 152.841 176.18 156 167.739 156H167.179C162.073 156 157.263 154.849 152.924 152.811C141.651 147.467 133.86 135.981 133.86 122.693V77.6939C133.86 71.5227 128.872 66.5326 122.704 66.5326C116.566 66.5326 111.578 71.5227 111.578 77.6939V97.3885C111.578 97.5066 111.578 123.963 111.578 123.963C111.283 133.382 107.063 141.798 100.511 147.644C94.6678 152.841 86.9652 156 78.5248 156H77.9641C59.5781 156 44.6746 141.089 44.6746 122.693V55.4303C44.6746 49.2591 49.6621 44.269 55.8301 44.269C61.88 44.269 66.8085 49.1115 66.9856 55.1351V122.575C66.9856 128.746 71.9731 133.707 78.1411 133.707C84.3091 133.707 89.2967 128.717 89.2967 122.575L89.3262 76.3356C89.6213 66.9164 93.8415 58.5012 100.393 52.6548C106.237 47.458 113.939 44.2986 122.38 44.2986H122.94C128.075 44.2986 132.915 45.4501 137.254 47.517C148.468 52.8615 156.23 64.318 156.23 77.6053V122.605C156.23 128.776 161.217 133.737 167.385 133.737C173.524 133.737 178.511 128.746 178.511 122.605L178.541 76.3651C178.836 66.9459 183.056 58.5307 189.608 52.6843C195.451 47.4875 203.154 44.3281 211.594 44.3281H212.155C217.29 44.3281 222.13 45.4797 226.468 47.5466C237.624 52.8615 245.327 64.1999 245.445 77.3396V122.634C245.445 128.806 250.432 133.766 256.6 133.766C262.739 133.766 267.756 128.776 267.756 122.634L267.785 76.3947C268.051 66.9755 272.3 58.5602 278.852 52.7138C284.695 47.517 292.398 44.3576 300.839 44.3576H301.399C306.534 44.3576 311.374 45.5092 315.713 47.5761C326.927 52.9205 334.689 64.3771 334.689 77.6643V122.664C334.63 128.392 339.116 133.176 344.841 133.648Z"
        fill="white" />
    <path
        d="M66.9856 55.2819C66.9856 61.4531 61.9981 66.4432 55.8301 66.4432C49.6621 66.4432 44.6746 61.4531 44.6746 55.2819C44.6746 49.1107 49.6621 44.1206 55.8301 44.1206C61.9981 44.1206 66.9856 49.1402 66.9856 55.2819Z"
        fill="#FFE816" />
</svg>
