<svg width="375" height="57" viewBox="0 0 375 57" fill="none" xmlns="http://www.w3.org/2000/svg">
<g opacity="0.5">
<path d="M-177.84 5.72398V5.14398C-177.79 4.77146 -177.709 4.4036 -177.6 4.04398C-177.501 3.69938 -177.37 3.36463 -177.21 3.04398L-177 2.78398C-176.88 2.59398 -176.75 2.41398 -176.62 2.23398C-176.555 2.14399 -176.481 2.06029 -176.4 1.98398C-176.32 1.90398 -176.25 1.80398 -176.17 1.73398C-175.568 1.13482 -174.843 0.67343 -174.046 0.381655C-173.248 0.0898792 -172.396 -0.0253311 -171.55 0.0439768C-171.402 0.056761 -171.255 0.0801543 -171.11 0.113977L-170.57 0.243977C-170.225 0.345785 -169.89 0.479704 -169.57 0.643977C-169.57 0.643977 -169.43 0.723977 -169.57 0.643977C-169.418 0.724409 -169.271 0.814596 -169.13 0.913977C-168.824 1.10276 -168.539 1.32404 -168.28 1.57398C-167.73 2.08773 -167.294 2.71116 -167 3.40398C-166.851 3.72328 -166.741 4.0589 -166.67 4.40398C-166.656 4.53624 -166.629 4.66683 -166.59 4.79398C-166.58 4.92379 -166.58 5.05416 -166.59 5.18398C-166.58 5.34048 -166.58 5.49747 -166.59 5.65398V40.294C-166.59 40.424 -166.59 40.554 -166.52 40.684C-166.45 40.814 -166.45 40.974 -166.41 41.114C-166.401 41.1834 -166.38 41.2509 -166.35 41.314C-166.177 41.7937 -165.953 42.2531 -165.68 42.684L-165.57 42.834C-165.39 43.054 -165.2 43.294 -164.99 43.504C-164.988 43.5189 -164.983 43.5331 -164.974 43.5453C-164.965 43.5576 -164.954 43.5674 -164.94 43.574L-164.86 43.644C-164.86 43.644 -164.86 43.644 -164.8 43.644C-164.74 43.644 -164.8 43.694 -164.72 43.714L-164.64 43.764L-164.56 43.844C-164.275 44.067 -163.97 44.2644 -163.65 44.434L-163.34 44.574H-163.24C-163.204 44.5837 -163.166 44.5837 -163.13 44.574L-162.95 44.644C-162.564 44.7805 -162.165 44.8776 -161.76 44.934H-160.44C-160.153 44.8942 -159.869 44.8341 -159.59 44.754H-159.45L-159.24 44.684L-158.98 44.574H-158.87C-158.75 44.574 -158.65 44.474 -158.54 44.434C-158.228 44.2619 -157.93 44.0646 -157.65 43.844L-157.56 43.754H-157.49L-157.37 43.634L-157.29 43.564L-157.24 43.494C-157.113 43.3667 -156.996 43.2296 -156.89 43.084C-156.859 43.0275 -156.818 42.9768 -156.77 42.934C-156.739 42.88 -156.702 42.8297 -156.66 42.784C-156.558 42.6364 -156.471 42.479 -156.4 42.314C-156.197 41.9687 -156.039 41.5991 -155.93 41.214C-155.93 41.074 -155.85 40.924 -155.82 40.784C-155.79 40.644 -155.82 40.524 -155.77 40.394C-155.76 40.2909 -155.76 40.187 -155.77 40.084V17.084C-155.78 17.2138 -155.78 17.3442 -155.77 17.474V16.474C-154.68 -5.16602 -122.97 -5.33603 -121.65 16.274V40.344C-121.641 40.4762 -121.618 40.607 -121.58 40.734C-121.58 40.884 -121.51 41.024 -121.47 41.164C-121.476 41.2305 -121.476 41.2974 -121.47 41.364C-121.41 41.504 -121.37 41.634 -121.3 41.784C-121.235 41.9495 -121.159 42.11 -121.07 42.264C-120.986 42.4262 -120.893 42.5832 -120.79 42.734L-120.68 42.884C-120.52 43.074 -120.38 43.264 -120.21 43.444H-120.16L-120.1 43.514C-120.098 43.5289 -120.093 43.5431 -120.084 43.5553C-120.075 43.5676 -120.064 43.5774 -120.05 43.584L-119.97 43.654C-119.97 43.654 -119.97 43.654 -119.91 43.704C-119.85 43.754 -119.91 43.704 -119.83 43.774H-119.75L-119.67 43.854C-119.391 44.0803 -119.089 44.2779 -118.77 44.444L-118.45 44.584H-118.35C-118.314 44.5938 -118.276 44.5938 -118.24 44.584C-117.803 44.7574 -117.346 44.8783 -116.88 44.944H-115.56C-115.154 44.8888 -114.756 44.7916 -114.37 44.654L-114.1 44.544H-113.99C-113.87 44.544 -113.78 44.444 -113.67 44.404C-113.353 44.2343 -113.052 44.0369 -112.77 43.814L-112.67 43.724L-112.6 43.674L-112.48 43.554L-112.4 43.484L-112.34 43.414V43.334C-112.21 43.2068 -112.089 43.0698 -111.98 42.924C-111.949 42.8675 -111.908 42.8168 -111.86 42.774C-111.829 42.72 -111.792 42.6697 -111.75 42.624C-111.648 42.4764 -111.561 42.319 -111.49 42.154C-111.393 42.0015 -111.309 41.8409 -111.24 41.674C-111.24 41.534 -111.13 41.384 -111.09 41.254L-111.02 41.054C-111.02 40.914 -110.94 40.764 -110.91 40.624C-110.919 40.492 -110.902 40.3594 -110.86 40.234C-110.85 40.1309 -110.85 40.0271 -110.86 39.924C-110.85 39.7741 -110.85 39.6238 -110.86 39.474V16.764C-110.87 16.6542 -110.87 16.5437 -110.86 16.434C-110.57 4.23398 -97.4 -3.51602 -86.54 1.69398C-83.6347 2.94388 -81.146 4.99636 -79.3659 7.61068C-77.5858 10.225 -76.5882 13.2927 -76.49 16.454V40.334C-76.49 40.464 -76.49 40.594 -76.42 40.724C-76.35 40.854 -76.35 41.014 -76.31 41.154C-76.3007 41.2234 -76.2805 41.2909 -76.25 41.354C-76.0772 41.8337 -75.8526 42.2931 -75.58 42.724L-75.47 42.874L-75.35 43.024C-75.2408 43.1698 -75.1204 43.3068 -74.99 43.434L-74.89 43.544C-74.8867 43.5672 -74.8867 43.5908 -74.89 43.614L-74.81 43.684C-74.81 43.684 -74.81 43.684 -74.75 43.684C-74.69 43.684 -74.75 43.734 -74.67 43.754L-74.59 43.804L-74.51 43.884C-74.2246 44.107 -73.9201 44.3044 -73.6 44.474L-73.29 44.614H-73.19C-73.154 44.6237 -73.116 44.6237 -73.08 44.614L-72.9 44.684C-72.5141 44.8205 -72.1154 44.9176 -71.71 44.974H-70.39C-70.1028 44.9342 -69.8187 44.8741 -69.54 44.794H-69.4L-69.19 44.724L-68.93 44.614H-68.82C-68.7 44.614 -68.6 44.514 -68.49 44.474C-68.1906 44.3016 -67.9062 44.1042 -67.64 43.884L-67.55 43.794H-67.48L-67.35 43.674L-67.27 43.604C-67.2654 43.5809 -67.2654 43.5571 -67.27 43.534C-67.1428 43.4067 -67.0258 43.2696 -66.92 43.124C-66.8888 43.0676 -66.8482 43.0168 -66.8 42.974C-66.7691 42.92 -66.7322 42.8697 -66.69 42.824C-66.5883 42.6743 -66.498 42.5172 -66.42 42.354C-66.255 42.0704 -66.1241 41.7683 -66.03 41.454L-65.96 41.254C-65.96 41.114 -65.88 40.964 -65.85 40.824C-65.82 40.684 -65.85 40.564 -65.85 40.434C-65.8228 40.3326 -65.8061 40.2287 -65.8 40.124V17.044C-65.81 17.1738 -65.81 17.3042 -65.8 17.434C-65.9441 12.963 -64.3086 8.61754 -61.2526 5.35097C-58.1965 2.08441 -53.9694 0.163584 -49.4988 0.00997255C-45.0281 -0.143639 -40.6792 1.48251 -37.4061 4.5316C-34.133 7.5807 -32.2032 11.8037 -32.04 16.274V40.384C-32.04 40.514 -32.04 40.644 -31.97 40.774C-31.9 40.904 -31.9 41.064 -31.86 41.204C-31.8657 41.2705 -31.8657 41.3374 -31.86 41.404C-31.8 41.544 -31.76 41.674 -31.69 41.824C-31.6255 41.9895 -31.5486 42.15 -31.46 42.304C-31.3763 42.4662 -31.2828 42.6232 -31.18 42.774L-31.07 42.924C-30.89 43.144 -30.7 43.384 -30.49 43.594C-30.4882 43.6089 -30.4826 43.6231 -30.4739 43.6353C-30.4652 43.6476 -30.4535 43.6574 -30.44 43.664L-30.36 43.734C-30.36 43.734 -30.36 43.734 -30.3 43.784C-30.24 43.834 -30.3 43.784 -30.22 43.854H-30.14C-30.1161 43.8832 -30.0892 43.91 -30.06 43.934C-29.7805 44.1603 -29.479 44.3579 -29.16 44.524L-28.84 44.664H-28.74C-28.704 44.6737 -28.666 44.6737 -28.63 44.664C-28.1925 44.8374 -27.736 44.9583 -27.27 45.024H-25.95C-25.5444 44.9688 -25.1456 44.8716 -24.76 44.734L-24.49 44.624H-24.38C-24.26 44.624 -24.16 44.524 -24.05 44.484C-23.7506 44.3116 -23.4662 44.1142 -23.2 43.894L-23.1 43.804L-23.03 43.754L-22.91 43.634L-22.83 43.564L-22.77 43.494H-22.72C-22.5928 43.3667 -22.4758 43.2296 -22.37 43.084C-22.3388 43.0275 -22.2982 42.9768 -22.25 42.934C-22.2191 42.88 -22.1822 42.8297 -22.14 42.784C-22.0378 42.6364 -21.9507 42.479 -21.88 42.314C-21.783 42.1615 -21.6993 42.0009 -21.63 41.834C-21.63 41.694 -21.52 41.544 -21.48 41.414L-21.41 41.214C-21.41 41.074 -21.33 40.924 -21.3 40.784C-21.27 40.644 -21.3 40.514 -21.25 40.394C-21.2228 40.2926 -21.2061 40.1887 -21.2 40.084V16.814C-21.21 16.7042 -21.21 16.5938 -21.2 16.484C-21.06 4.28398 -7.89 -3.51602 2.97 1.74398C5.93491 2.94137 8.49232 4.96718 10.3366 7.57928C12.1808 10.1914 13.2339 13.2793 13.37 16.474V40.354C13.37 40.484 13.37 40.614 13.44 40.744C13.51 40.874 13.51 41.034 13.55 41.174C13.5593 41.2434 13.5795 41.3109 13.61 41.374C13.7828 41.8537 14.0074 42.3131 14.28 42.744L14.39 42.894L14.51 43.044C14.656 43.2266 14.813 43.4003 14.98 43.564C14.9818 43.5789 14.9874 43.5931 14.9961 43.6053C15.0048 43.6176 15.0165 43.6274 15.03 43.634L15.11 43.704C15.11 43.704 15.11 43.704 15.17 43.754C15.23 43.804 15.17 43.754 15.25 43.824H15.33L15.41 43.904C15.71 44.114 16.01 44.314 16.33 44.494L16.64 44.634H16.74C16.776 44.6437 16.814 44.6437 16.85 44.634L17.03 44.704C17.4159 44.8405 17.8146 44.9376 18.22 44.994H19.54C19.8272 44.9542 20.1113 44.8941 20.39 44.814H20.53L20.74 44.744L21 44.634H21.11C21.23 44.634 21.33 44.534 21.44 44.494C21.7394 44.3216 22.0238 44.1242 22.29 43.904L22.38 43.814H22.45L22.57 43.694L22.65 43.624V43.554H22.7C22.8272 43.4267 22.9442 43.2896 23.05 43.144C23.0812 43.0875 23.1218 43.0368 23.17 42.994C23.2009 42.94 23.2378 42.8897 23.28 42.844C23.3817 42.6943 23.472 42.5372 23.55 42.374C23.711 42.0884 23.8417 41.7867 23.94 41.474L24.01 41.274C24.01 41.134 24.09 40.984 24.12 40.844C24.15 40.704 24.12 40.584 24.17 40.454C24.1972 40.3526 24.2139 40.2487 24.22 40.144V17.044C24.21 17.1738 24.21 17.3042 24.22 17.434V16.434C25.39 -5.17603 56.59 -5.34602 57.99 16.234V39.644C57.9596 39.8964 57.9596 40.1516 57.99 40.404C57.99 40.534 57.99 40.664 58.06 40.794C58.13 40.924 58.13 41.084 58.17 41.224C58.1793 41.2934 58.1995 41.3609 58.23 41.424C58.4028 41.9037 58.6274 42.3631 58.9 42.794L59.01 42.944C59.17 43.134 59.31 43.324 59.48 43.504H59.53L59.59 43.574C59.5853 43.5851 59.5829 43.597 59.5829 43.609C59.5829 43.621 59.5853 43.6329 59.59 43.644L59.67 43.714C59.67 43.714 59.67 43.714 59.73 43.714C59.79 43.714 59.73 43.764 59.81 43.784L59.89 43.834L59.97 43.914C60.2519 44.1369 60.5531 44.3343 60.87 44.504L61.19 44.644H61.29C61.326 44.6537 61.364 44.6537 61.4 44.644C61.8375 44.8174 62.294 44.9383 62.76 45.004H64.08C64.4856 44.9488 64.8844 44.8516 65.27 44.714L65.54 44.604H65.65C65.77 44.604 65.87 44.504 65.98 44.464C66.2794 44.2916 66.5638 44.0942 66.83 43.874L66.93 43.784H67L67.12 43.664L67.2 43.594L67.26 43.524C67.3872 43.3967 67.5042 43.2596 67.61 43.114C67.6412 43.0575 67.6818 43.0068 67.73 42.964C67.7609 42.91 67.7978 42.8597 67.84 42.814C67.9422 42.6664 68.0293 42.509 68.1 42.344C68.197 42.1915 68.2807 42.0309 68.35 41.864C68.4 41.724 68.46 41.574 68.5 41.444L68.57 41.244C68.57 41.104 68.65 40.954 68.68 40.814C68.6544 40.6852 68.6544 40.5527 68.68 40.424C68.7072 40.3226 68.7239 40.2187 68.73 40.114V16.834C68.72 16.7242 68.72 16.6137 68.73 16.504C68.87 4.30398 82.04 -3.49602 92.9 1.76398C95.8537 2.97045 98.3985 5.00017 100.232 7.61157C102.065 10.223 103.109 13.3061 103.24 16.494V40.374C103.24 40.504 103.24 40.634 103.31 40.764C103.38 40.894 103.38 41.054 103.42 41.194C103.429 41.2634 103.45 41.3309 103.48 41.394C103.653 41.8737 103.877 42.3331 104.15 42.764L104.26 42.914L104.38 43.064C104.526 43.2466 104.683 43.4203 104.85 43.584C104.852 43.5989 104.857 43.6131 104.866 43.6253C104.875 43.6376 104.886 43.6474 104.9 43.654L104.98 43.724C104.98 43.724 104.98 43.724 105.04 43.724C105.1 43.724 105.04 43.774 105.12 43.794L105.2 43.844L105.28 43.924C105.565 44.147 105.87 44.3444 106.19 44.514L106.5 44.654H106.6C106.636 44.6637 106.674 44.6637 106.71 44.654L106.89 44.724C107.276 44.8605 107.675 44.9576 108.08 45.014H109.4C109.687 44.9742 109.971 44.9141 110.25 44.834H110.39L110.6 44.764L110.86 44.654H110.97C111.09 44.654 111.19 44.554 111.3 44.514C111.612 44.3419 111.91 44.1446 112.19 43.924L112.28 43.834L112.35 43.784L112.48 43.664L112.56 43.594C112.582 43.575 112.599 43.551 112.61 43.524C112.737 43.3967 112.854 43.2596 112.96 43.114C112.991 43.0575 113.032 43.0068 113.08 42.964C113.111 42.91 113.148 42.8597 113.19 42.814C113.299 42.669 113.39 42.5112 113.46 42.344C113.654 41.9955 113.808 41.6266 113.92 41.244C113.92 41.104 114 40.954 114.03 40.814C114.06 40.674 114.03 40.554 114.08 40.424C114.107 40.3226 114.124 40.2187 114.13 40.114V17.044C114.12 17.1738 114.12 17.3042 114.13 17.434V16.434C115.3 -5.17603 146.5 -5.34602 147.9 16.234V40.424C147.9 40.554 147.9 40.684 147.97 40.814C148.04 40.944 148.04 41.104 148.08 41.244C148.089 41.3134 148.11 41.3809 148.14 41.444C148.313 41.9237 148.537 42.3831 148.81 42.814L148.92 42.964C149.07 43.144 149.22 43.344 149.39 43.524H149.44L149.5 43.594C149.495 43.6051 149.493 43.617 149.493 43.629C149.493 43.641 149.495 43.6529 149.5 43.664L149.58 43.734C149.58 43.734 149.58 43.734 149.64 43.784C149.7 43.834 149.64 43.784 149.72 43.854H149.8L149.88 43.934C150.162 44.1569 150.463 44.3543 150.78 44.524L151.1 44.664H151.2C151.236 44.6737 151.274 44.6737 151.31 44.664C151.747 44.8386 152.204 44.9595 152.67 45.024H153.99C154.277 44.9842 154.561 44.9241 154.84 44.844H154.98L155.18 44.774L155.45 44.664H155.56C155.68 44.664 155.78 44.564 155.89 44.524C156.189 44.3516 156.474 44.1542 156.74 43.934C156.765 43.8991 156.795 43.8687 156.83 43.844H156.9L157.02 43.724L157.1 43.654L157.16 43.584C157.287 43.4567 157.404 43.3196 157.51 43.174C157.541 43.1175 157.582 43.0668 157.63 43.024C157.661 42.97 157.698 42.9197 157.74 42.874C157.842 42.7264 157.929 42.569 158 42.404C158.097 42.2515 158.181 42.0909 158.25 41.924C158.3 41.784 158.36 41.634 158.4 41.504L158.47 41.304C158.47 41.164 158.55 41.014 158.58 40.874C158.571 40.742 158.588 40.6094 158.63 40.484C158.657 40.3826 158.674 40.2787 158.68 40.174V16.854C158.67 16.7442 158.67 16.6337 158.68 16.524C158.82 4.32398 171.99 -3.42602 182.85 1.78398C185.799 2.9945 188.339 5.02578 190.168 7.63674C191.998 10.2477 193.039 13.3287 193.17 16.514V39.634C193.141 39.8865 193.141 40.1415 193.17 40.394C193.17 40.524 193.17 40.654 193.24 40.784C193.31 40.914 193.31 41.074 193.35 41.214C193.359 41.2834 193.38 41.3509 193.41 41.414C193.578 41.8956 193.803 42.3555 194.08 42.784L194.19 42.934L195 43.044C195.146 43.2266 195.303 43.4003 195.47 43.564C195.472 43.5789 195.477 43.5931 195.486 43.6053C195.495 43.6176 195.506 43.6274 195.52 43.634L195.6 43.704C195.6 43.704 195.6 43.704 195.66 43.704C195.72 43.704 195.66 43.704 195.74 43.774H195.82L195.9 43.854C196.185 44.077 196.49 44.2744 196.81 44.444L197.12 44.584H197.22C197.256 44.5938 197.294 44.5938 197.33 44.584L197.51 44.654C197.896 44.7905 198.295 44.8876 198.7 44.944H200.02C200.307 44.9042 200.591 44.8441 200.87 44.764H201.01L201.22 44.694L201.48 44.584H201.59C201.71 44.584 201.81 44.484 201.92 44.444C202.219 44.2716 202.504 44.0742 202.77 43.854L202.86 43.764C202.883 43.7686 202.907 43.7686 202.93 43.764L203.06 43.644L203.14 43.574C203.162 43.555 203.179 43.531 203.19 43.504C203.317 43.3767 203.434 43.2396 203.54 43.094C203.571 43.0375 203.612 42.9868 203.66 42.944C203.691 42.89 203.728 42.8397 203.77 42.794C203.872 42.6443 203.962 42.4872 204.04 42.324C204.201 42.0384 204.332 41.7367 204.43 41.424L204.5 41.224C204.5 41.084 204.58 40.934 204.61 40.794C204.599 40.6611 204.619 40.5274 204.67 40.404C204.685 40.1509 204.685 39.8971 204.67 39.644V17.044C204.66 17.1738 204.66 17.3042 204.67 17.434V16.434C205.84 -5.17603 237.04 -5.34602 238.44 16.234V40.444C238.44 40.574 238.44 40.704 238.51 40.834C238.58 40.964 238.58 41.124 238.62 41.264C238.629 41.3334 238.65 41.4009 238.68 41.464C238.848 41.9456 239.073 42.4055 239.35 42.834L239.46 42.984C239.61 43.164 239.76 43.364 239.93 43.544H239.98L240.04 43.614C240.061 43.6342 240.078 43.6579 240.09 43.684L240.17 43.754C240.17 43.754 240.17 43.754 240.23 43.754C240.29 43.754 240.23 43.804 240.31 43.824L240.39 43.874C240.414 43.9032 240.441 43.93 240.47 43.954C240.47 43.954 241.06 44.374 241.38 44.544L241.7 44.684H241.8C241.836 44.6937 241.874 44.6937 241.91 44.684C242.347 44.8586 242.804 44.9795 243.27 45.044H244.59C244.877 45.0042 245.161 44.9441 245.44 44.864H245.58L245.78 44.794L246.05 44.684H246.16C246.28 44.684 246.38 44.584 246.49 44.544C246.802 44.3719 247.1 44.1746 247.38 43.954L247.47 43.864H247.54L247.66 43.744L247.74 43.674L247.8 43.604H247.85C247.977 43.4767 248.094 43.3396 248.2 43.194C248.231 43.1376 248.272 43.0868 248.32 43.044C248.351 42.99 248.388 42.9397 248.43 42.894C248.532 42.7464 248.619 42.589 248.69 42.424C248.787 42.2715 248.871 42.1109 248.94 41.944C249.02 41.744 249.1 41.484 249.16 41.324C249.22 41.164 249.24 41.034 249.27 40.894C249.244 40.7652 249.244 40.6327 249.27 40.504C249.297 40.4026 249.314 40.2987 249.32 40.194V16.874C249.31 16.7642 249.31 16.6537 249.32 16.544C249.46 4.34398 262.63 -3.40602 273.49 1.80398C276.474 2.98672 279.053 5.00585 280.918 7.61882C282.782 10.2318 283.852 13.3275 284 16.534V39.654C283.983 39.9084 284 40.164 284.05 40.414C284.06 40.5453 284.08 40.6757 284.11 40.804C284.11 40.954 284.18 41.094 284.22 41.234C284.229 41.3034 284.25 41.3709 284.28 41.434C284.448 41.9156 284.673 42.3755 284.95 42.804L285.06 42.954L285.18 43.104C285.326 43.2866 285.483 43.4603 285.65 43.624C285.652 43.6389 285.657 43.6531 285.666 43.6653C285.675 43.6776 285.686 43.6874 285.7 43.694L285.78 43.764C285.78 43.764 285.78 43.764 285.84 43.814C285.9 43.864 285.84 43.814 285.92 43.884H286L286.08 43.964C286.365 44.187 286.67 44.3844 286.99 44.554L287.3 44.694H287.4C287.436 44.7038 287.474 44.7038 287.51 44.694L287.69 44.764C288.076 44.9005 288.475 44.9976 288.88 45.054H290.2C290.467 45.0681 290.734 45.0648 291 45.044H291.14L291.35 44.974L291.61 44.864H291.72C291.84 44.864 291.94 44.764 292.05 44.724C292.349 44.5516 292.634 44.3542 292.9 44.134L292.99 44.044C293.017 44.0332 293.041 44.0161 293.06 43.994L293.19 43.874L293.27 43.804C293.292 43.785 293.309 43.761 293.32 43.734H293.37C293.497 43.6067 293.614 43.4696 293.72 43.324C293.751 43.2675 293.792 43.2168 293.84 43.174C293.871 43.12 293.908 43.0697 293.95 43.024C294.059 42.879 294.15 42.7212 294.22 42.554C294.381 42.2684 294.512 41.9667 294.61 41.654C294.684 41.4481 294.744 41.2377 294.79 41.024C294.85 40.6438 294.87 40.2584 294.85 39.874V17.044C294.84 17.1738 294.84 17.3042 294.85 17.434V16.434C296.02 -5.17603 327.22 -5.34602 328.62 16.234V40.464C328.62 40.594 328.62 40.724 328.69 40.854C328.76 40.984 328.76 41.144 328.8 41.284C328.809 41.3534 328.829 41.4209 328.86 41.484C329.028 41.9656 329.253 42.4255 329.53 42.854L329.64 43.004C329.82 43.224 330.01 43.464 330.22 43.674C330.222 43.6889 330.227 43.7031 330.236 43.7153C330.245 43.7276 330.256 43.7374 330.27 43.744L330.35 43.814C330.35 43.814 330.35 43.814 330.41 43.814C330.47 43.814 330.41 43.814 330.49 43.884H330.57L330.65 43.964C330.932 44.1869 331.233 44.3843 331.55 44.554L331.87 44.694H331.97C332.006 44.7038 332.044 44.7038 332.08 44.694C332.517 44.8686 332.974 44.9895 333.44 45.054H334.76C335.047 45.0142 335.331 44.9541 335.61 44.874H335.75L335.96 44.804L336.22 44.694H336.33C336.45 44.694 336.55 44.594 336.66 44.554C336.959 44.3816 337.244 44.1842 337.51 43.964L337.6 43.874H337.67L337.79 43.754L337.87 43.684L337.92 43.614C338.047 43.4867 338.164 43.3496 338.27 43.204C338.301 43.1475 338.342 43.0968 338.39 43.054C338.421 43 338.458 42.9497 338.5 42.904C338.602 42.7564 338.689 42.599 338.76 42.434C338.857 42.2815 338.941 42.1209 339.01 41.954C339.01 41.814 339.12 41.664 339.16 41.534L339.23 41.334C339.23 41.194 339.31 41.044 339.34 40.904C339.37 40.764 339.34 40.644 339.39 40.514C339.4 40.4109 339.4 40.307 339.39 40.204V16.894C339.38 16.7842 339.38 16.6737 339.39 16.564C339.53 4.36398 352.7 -3.38602 363.56 1.82398C366.522 3.02393 369.077 5.05066 370.919 7.66243C372.761 10.2742 373.814 13.3608 373.95 16.554V39.674C373.916 39.9262 373.916 40.1818 373.95 40.434C373.96 40.5653 373.98 40.6957 374.01 40.824C374.01 40.974 374.08 41.114 374.12 41.254C374.129 41.3234 374.15 41.3909 374.18 41.454C374.348 41.9356 374.573 42.3955 374.85 42.824L374.96 42.974L375.08 43.124C375.23 43.344 375.44 43.494 375.6 43.714L375.68 43.784C375.68 43.784 375.68 43.784 375.74 43.784C375.8 43.784 375.74 43.834 375.82 43.854H375.9L376 43.944C376.285 44.167 376.59 44.3644 376.91 44.534L377.22 44.674H377.32C377.356 44.6838 377.394 44.6838 377.43 44.674L377.61 44.744C377.996 44.8805 378.395 44.9776 378.8 45.034H380.12C380.407 44.9942 380.691 44.9341 380.97 44.854H381.11L381.32 44.784L381.58 44.674H381.69C381.81 44.674 381.91 44.574 382.02 44.534C382.319 44.3616 382.604 44.1642 382.87 43.944L382.96 43.854C382.983 43.8586 383.007 43.8586 383.03 43.854L383.16 43.734L383.24 43.664C383.262 43.645 383.279 43.621 383.29 43.594C383.417 43.4667 383.534 43.3296 383.64 43.184C383.743 43.1013 383.868 43.0525 384 43.044C384.025 42.9864 384.063 42.9351 384.11 42.894C384.212 42.7464 384.299 42.589 384.37 42.424C384.531 42.1384 384.662 41.8367 384.76 41.524C384.834 41.3181 384.894 41.1077 384.94 40.894C385.015 40.5154 385.049 40.1298 385.04 39.744V17.044C385.03 17.1738 385.03 17.3042 385.04 17.434V16.434C386.21 -5.17603 417.4 -5.34602 418.81 16.234V40.384C418.81 40.514 418.81 40.644 418.88 40.774C418.95 40.904 418.95 41.064 418.99 41.204C418.999 41.2734 419.02 41.3409 419.05 41.404C419.218 41.8856 419.443 42.3455 419.72 42.774L419.83 42.924C419.98 43.104 420.13 43.304 420.3 43.484H420.35L420.41 43.554C420.412 43.5689 420.417 43.5831 420.426 43.5953C420.435 43.6076 420.447 43.6174 420.46 43.624L420.54 43.694C420.54 43.694 420.54 43.694 420.6 43.744C420.66 43.794 420.6 43.744 420.68 43.814H420.76L420.86 43.904C421.142 44.1269 421.443 44.3243 421.76 44.494L422.08 44.634H422.18C422.216 44.6437 422.254 44.6437 422.29 44.634L422.47 44.704C422.856 44.8405 423.255 44.9376 423.66 44.994H425C425.287 44.9542 425.571 44.8941 425.85 44.814H425.99L426.2 44.744L426.46 44.634H426.57C426.69 44.634 426.79 44.534 426.9 44.494C427.199 44.3216 427.484 44.1242 427.75 43.904L427.84 43.814H427.91L428.03 43.694L428.11 43.624V43.554H428.16C428.287 43.4267 428.404 43.2896 428.51 43.144C428.541 43.0875 428.582 43.0368 428.63 42.994C428.661 42.94 428.698 42.8897 428.74 42.844C428.842 42.6964 428.929 42.539 429 42.374C429.174 42.0938 429.309 41.7909 429.4 41.474L429.47 41.274C429.47 41.134 429.55 40.984 429.58 40.844C429.61 40.704 429.58 40.584 429.58 40.454C429.607 40.3526 429.624 40.2487 429.63 40.144V17.044C429.62 17.1738 429.62 17.3042 429.63 17.434C429.56 -5.05602 462.86 -5.90602 464.12 16.434V39.584C464.086 39.8362 464.086 40.0918 464.12 40.344C464.13 40.4753 464.15 40.6057 464.18 40.734C464.18 40.884 464.25 41.024 464.29 41.164C464.299 41.2334 464.32 41.3009 464.35 41.364C464.514 41.8473 464.739 42.3077 465.02 42.734L465.13 42.884L465.25 43.034C465.396 43.2166 465.553 43.3903 465.72 43.554C465.715 43.5651 465.713 43.577 465.713 43.589C465.713 43.601 465.715 43.6129 465.72 43.624L465.8 43.694C465.8 43.694 465.8 43.694 465.86 43.744C465.92 43.794 465.86 43.744 465.94 43.814H466.02L466.1 43.894C466.385 44.117 466.69 44.3144 467.01 44.484L467.32 44.624H467.42C467.456 44.6338 467.494 44.6338 467.53 44.624L467.71 44.694C468.096 44.8305 468.495 44.9276 468.9 44.984H470.22C470.507 44.9442 470.791 44.8841 471.07 44.804H471.21L471.42 44.734L471.68 44.624H471.79C471.91 44.624 472.01 44.524 472.12 44.484C472.419 44.3116 472.704 44.1142 472.97 43.894L473.06 43.804C473.087 43.7932 473.111 43.7761 473.13 43.754L473.26 43.634L473.34 43.564C473.362 43.545 473.379 43.521 473.39 43.494C473.609 43.3669 473.814 43.216 474 43.044C474.035 42.9875 474.079 42.9369 474.13 42.894C474.155 42.8364 474.193 42.7851 474.24 42.744C474.342 42.5964 474.429 42.439 474.5 42.274C474.661 41.9884 474.792 41.6867 474.89 41.374C474.964 41.1681 475.024 40.9577 475.07 40.744C475.059 40.6111 475.079 40.4774 475.13 40.354C475.145 40.1009 475.145 39.8471 475.13 39.594V17.044C475.12 17.1738 475.12 17.3042 475.13 17.434V16.434C476.3 -5.17603 507.49 -5.34602 508.9 16.234V39.634C508.87 39.8864 508.87 40.1416 508.9 40.394C508.9 40.524 508.9 40.654 508.97 40.784C509.04 40.914 509.04 41.074 509.08 41.214C509.089 41.2834 509.11 41.3509 509.14 41.414C509.304 41.8973 509.529 42.3577 509.81 42.784L509.92 42.934L510.04 43.084C510.149 43.2298 510.27 43.3668 510.4 43.494L510.46 43.564C510.455 43.5751 510.453 43.587 510.453 43.599C510.453 43.611 510.455 43.6229 510.46 43.634L510.54 43.704C510.54 43.704 510.54 43.704 510.6 43.704C510.66 43.704 510.6 43.704 510.68 43.774H510.76L510.84 43.854C511.125 44.077 511.43 44.2744 511.75 44.444L512.06 44.584H512.16C512.196 44.5938 512.234 44.5938 512.27 44.584L512.45 44.654C512.836 44.7905 513.235 44.8876 513.64 44.944H515C515.287 44.9042 515.571 44.8441 515.85 44.764H515.99L516.2 44.694L516.46 44.584H516.57C516.69 44.584 516.79 44.484 516.9 44.444C517.199 44.2716 517.484 44.0742 517.75 43.854L517.84 43.764H517.91L518.03 43.644L518.11 43.574L518.16 43.504C518.287 43.3767 518.404 43.2396 518.51 43.094C518.541 43.0375 518.582 42.9868 518.63 42.944C518.661 42.89 518.698 42.8397 518.74 42.794C518.842 42.6443 518.932 42.4872 519.01 42.324C519.171 42.0384 519.302 41.7367 519.4 41.424L519.47 41.224C519.47 41.084 519.55 40.934 519.58 40.794C519.61 40.654 519.58 40.534 519.63 40.404C519.64 40.3009 519.64 40.197 519.63 40.094V16.824C519.62 16.7142 519.62 16.6038 519.63 16.494C519.744 12.087 521.576 7.89902 524.735 4.82452C527.895 1.75002 532.131 0.0326505 536.539 0.0391777C540.948 0.0457049 545.179 1.77561 548.329 4.85945C551.48 7.9433 553.299 12.1366 553.4 16.544V50.934C553.402 51.51 553.318 52.0831 553.15 52.634C553.106 52.8138 553.042 52.9882 552.96 53.154C552.822 53.5008 552.655 53.8354 552.46 54.154C551.788 55.1586 550.811 55.9204 549.673 56.3267C548.535 56.733 547.296 56.7622 546.14 56.4101C544.984 56.058 543.971 55.3432 543.253 54.3715C542.534 53.3997 542.148 52.2225 542.15 51.014V17.044C542.154 15.7267 541.689 14.4509 540.84 13.444C540.75 13.3311 540.65 13.2272 540.54 13.134C540.023 12.5947 539.402 12.1659 538.714 11.8737C538.027 11.5815 537.287 11.4319 536.54 11.434H536C535.801 11.4445 535.604 11.4713 535.41 11.514C534.523 11.7022 533.695 12.1038 532.998 12.684C532.301 13.2643 531.756 14.0057 531.41 14.844C531.262 15.1625 531.154 15.4985 531.09 15.844C531.012 16.2389 530.982 16.6418 531 17.044V39.704C530.998 42.7362 530.176 45.7115 528.622 48.3151C527.068 50.9186 524.838 53.0536 522.17 54.494C521.44 54.834 520.72 55.214 519.94 55.494C519.52 55.654 518.94 55.814 518.48 55.954L518.26 56.004C518.083 56.0545 517.902 56.0946 517.72 56.124C517.639 56.1533 517.555 56.1735 517.47 56.184L516.83 56.294C515.369 56.5304 513.883 56.5775 512.41 56.434C511.839 56.3801 511.272 56.2966 510.71 56.184C510.624 56.1748 510.54 56.1547 510.46 56.124C510.276 56.1053 510.095 56.065 509.92 56.004L509.72 55.954C508.734 55.678 507.766 55.3441 506.82 54.954C503.929 53.6099 501.483 51.4662 499.771 48.7762C498.059 46.0862 497.153 42.9624 497.16 39.774V16.584C497.069 15.4203 496.614 14.3147 495.86 13.424C495.77 13.3111 495.67 13.2072 495.56 13.114C495.043 12.5751 494.422 12.1467 493.734 11.8545C493.047 11.5624 492.307 11.4125 491.56 11.414H491C490.801 11.4245 490.604 11.4513 490.41 11.494C489.325 11.7014 488.332 12.2434 487.57 13.044C487.057 13.5606 486.65 14.1719 486.37 14.844C486.214 15.1605 486.103 15.497 486.04 15.844C485.962 16.2226 485.919 16.6075 485.91 16.994V39.704C485.911 42.7369 485.091 45.7135 483.536 48.3176C481.981 50.9217 479.75 53.0561 477.08 54.494C476.35 54.834 475.63 55.214 474.85 55.494C474.43 55.654 473.85 55.814 473.4 55.954L472.64 56.124C472.559 56.1533 472.475 56.1735 472.39 56.184L471.75 56.294C470.289 56.5304 468.803 56.5775 467.33 56.434C466.759 56.3801 466.192 56.2966 465.63 56.184C465.544 56.1748 465.46 56.1547 465.38 56.124C465.198 56.0935 465.018 56.0535 464.84 56.004C463.776 55.7109 462.733 55.3433 461.72 54.904L460.93 54.514C458.414 52.9642 456.351 50.7798 454.947 48.1802C453.543 45.5807 452.847 42.6574 452.93 39.704V17.244C452.979 15.8496 452.513 14.486 451.62 13.414C451.53 13.3011 451.43 13.1972 451.32 13.104C450.803 12.5647 450.182 12.1359 449.494 11.8437C448.807 11.5515 448.067 11.4019 447.32 11.404H446.78C446.581 11.4145 446.384 11.4413 446.19 11.484C445.303 11.6722 444.475 12.0738 443.778 12.654C443.081 13.2343 442.536 13.9757 442.19 14.814C441.29 15.094 441.91 38.624 441.74 39.694C441.738 42.7262 440.916 45.7015 439.362 48.3051C437.808 50.9086 435.578 53.0436 432.91 54.484C432.18 54.824 431.46 55.204 430.68 55.484C430.26 55.644 429.68 55.804 429.22 55.944L429 55.994C428.823 56.0445 428.642 56.0846 428.46 56.114C428.379 56.1433 428.295 56.1635 428.21 56.174L427.57 56.284C426.109 56.5204 424.623 56.5675 423.15 56.424C422.579 56.3701 422.012 56.2866 421.45 56.174C421.364 56.1648 421.28 56.1446 421.2 56.114C421.016 56.0953 420.835 56.055 420.66 55.994L420.46 55.944C419.474 55.668 418.506 55.3341 417.56 54.944C414.684 53.5855 412.256 51.4325 410.564 48.7392C408.872 46.0459 407.986 42.9247 408.01 39.744V16.574C407.919 15.4103 407.464 14.3047 406.71 13.414C406.62 13.3011 406.52 13.1972 406.41 13.104C405.893 12.5651 405.271 12.1367 404.584 11.8445C403.896 11.5524 403.157 11.4025 402.41 11.404H401.86C401.661 11.4145 401.464 11.4413 401.27 11.484C400.151 11.6761 399.124 12.2231 398.34 13.044C397.827 13.5606 397.42 14.1719 397.14 14.844C396.984 15.1605 396.873 15.497 396.81 15.844C396.732 16.2226 396.689 16.6075 396.68 16.994V39.694C396.678 42.7262 395.856 45.7015 394.302 48.3051C392.748 50.9086 390.518 53.0436 387.85 54.484C387.12 54.824 386.4 55.204 385.62 55.484C385.2 55.644 384.62 55.804 384.16 55.944L383.41 56.114C383.329 56.1433 383.245 56.1635 383.16 56.174L382.52 56.284C381.059 56.5204 379.573 56.5675 378.1 56.424C377.529 56.3701 376.962 56.2866 376.4 56.174C376.314 56.1648 376.23 56.1446 376.15 56.114C375.968 56.0835 375.788 56.0435 375.61 55.994C374.543 55.6995 373.497 55.3319 372.48 54.894L371.69 54.504C369.029 53.0579 366.807 50.9209 365.258 48.318C363.709 45.7151 362.891 42.7428 362.89 39.714V17.254C362.939 15.8596 362.473 14.496 361.58 13.424C361.49 13.3111 361.39 13.2072 361.28 13.114C360.763 12.5747 360.142 12.1459 359.454 11.8537C358.767 11.5615 358.027 11.4119 357.28 11.414H356.74C356.538 11.4252 356.338 11.452 356.14 11.494C355.245 11.6772 354.408 12.0764 353.702 12.6567C352.996 13.2371 352.443 13.9811 352.09 14.824C351.942 15.1425 351.834 15.4785 351.77 15.824C351.682 16.201 351.639 16.5869 351.64 16.974V39.704C351.638 42.7362 350.816 45.7115 349.262 48.3151C347.708 50.9186 345.478 53.0536 342.81 54.494C342.08 54.834 341.36 55.214 340.58 55.494C340.16 55.654 339.58 55.814 339.12 55.954L338.9 56.004C338.723 56.0545 338.542 56.0946 338.36 56.124C338.279 56.1533 338.195 56.1735 338.11 56.184L337.47 56.294C336.009 56.5355 334.523 56.5826 333.05 56.434C332.5 56.434 331.89 56.274 331.35 56.184C331.264 56.1748 331.18 56.1547 331.1 56.124C330.916 56.1053 330.735 56.065 330.56 56.004L330.36 55.954C329.92 55.814 329.36 55.664 328.89 55.494C328.403 55.3155 327.926 55.1119 327.46 54.884C327.181 54.7744 326.91 54.6441 326.65 54.494C323.985 53.0509 321.76 50.9148 320.209 48.3115C318.659 45.7081 317.84 42.7342 317.84 39.704V16.574C317.749 15.4103 317.294 14.3047 316.54 13.414C316.45 13.3011 316.35 13.1972 316.24 13.104C315.723 12.5651 315.101 12.1367 314.414 11.8445C313.727 11.5524 312.987 11.4025 312.24 11.404H311.69C311.491 11.4145 311.294 11.4413 311.1 11.484C309.996 11.6842 308.983 12.2305 308.21 13.044C307.697 13.5606 307.29 14.1719 307.01 14.844C306.854 15.1605 306.743 15.497 306.68 15.844C306.602 16.2226 306.559 16.6075 306.55 16.994V39.694C306.548 42.7262 305.726 45.7015 304.172 48.3051C302.618 50.9086 300.388 53.0436 297.72 54.484C296.99 54.824 296.27 55.204 295.49 55.484C295.07 55.644 294.49 55.804 294.03 55.944L293.81 55.994C293.633 56.0445 293.452 56.0846 293.27 56.114C293.189 56.1433 293.105 56.1635 293.02 56.174L292.38 56.284C290.919 56.5204 289.433 56.5675 287.96 56.424C287.389 56.3701 286.822 56.2866 286.26 56.174C286.174 56.1648 286.09 56.1446 286.01 56.114C285.828 56.0835 285.648 56.0435 285.47 55.994C284.111 55.6475 282.799 55.1406 281.56 54.484C278.899 53.0379 276.677 50.9009 275.128 48.298C273.579 45.6951 272.761 42.7228 272.76 39.694V17.234C272.809 15.8396 272.343 14.476 271.45 13.404C271.36 13.2911 271.26 13.1872 271.15 13.094C270.632 12.5565 270.01 12.129 269.323 11.8369C268.636 11.5449 267.897 11.3942 267.15 11.394H266.6C266.402 11.4052 266.204 11.432 266.01 11.474C265.114 11.6548 264.276 12.053 263.57 12.6337C262.863 13.2143 262.311 13.9596 261.96 14.804C261.06 15.084 261.68 38.614 261.51 39.684C261.508 42.7162 260.686 45.6915 259.132 48.2951C257.578 50.8986 255.348 53.0336 252.68 54.474C251.95 54.814 251.23 55.194 250.45 55.474C250.03 55.634 249.45 55.794 248.99 55.934H248.77C248.592 55.9845 248.412 56.0246 248.23 56.054C248.149 56.0833 248.065 56.1035 247.98 56.114L247.34 56.224C245.879 56.4655 244.393 56.5126 242.92 56.364C242.349 56.3101 241.782 56.2266 241.22 56.114C241.134 56.1048 241.05 56.0846 240.97 56.054C240.786 56.0353 240.605 55.995 240.43 55.934H240.23C239.78 55.794 239.23 55.644 238.76 55.474C238.273 55.2955 237.796 55.0919 237.33 54.864C234.439 53.5199 231.993 51.3762 230.281 48.6862C228.569 45.9962 227.663 42.8724 227.67 39.684V16.584C227.579 15.4203 227.124 14.3147 226.37 13.424C226.28 13.3111 226.18 13.2072 226.07 13.114C225.553 12.5751 224.931 12.1467 224.244 11.8545C223.557 11.5624 222.817 11.4125 222.07 11.414H221.52C221.321 11.4245 221.124 11.4513 220.93 11.494C219.812 11.6834 218.785 12.2268 218 13.044C217.487 13.5606 217.08 14.1719 216.8 14.844C216.644 15.1605 216.533 15.497 216.47 15.844C216.392 16.2226 216.349 16.6075 216.34 16.994V39.704C216.338 42.7362 215.516 45.7115 213.962 48.3151C212.408 50.9186 210.178 53.0536 207.51 54.494C206.78 54.834 206.06 55.214 205.28 55.494C204.86 55.654 204.28 55.814 203.82 55.954L203.6 56.004C203.423 56.0545 203.242 56.0946 203.06 56.124C202.979 56.1533 202.895 56.1735 202.81 56.184L202.17 56.294C200.709 56.5303 199.223 56.5774 197.75 56.434C197.179 56.3801 196.612 56.2966 196.05 56.184C195.964 56.1748 195.88 56.1547 195.8 56.124C195.616 56.1053 195.435 56.065 195.26 56.004L195.06 55.954C194.073 55.672 193.102 55.3382 192.15 54.954L191.36 54.564C188.697 53.1204 186.473 50.984 184.924 48.3805C183.375 45.7771 182.558 42.8034 182.56 39.774V17.264C182.609 15.8696 182.143 14.506 181.25 13.434C181.16 13.3211 181.06 13.2172 180.95 13.124C180.432 12.5865 179.81 12.159 179.123 11.8669C178.436 11.5749 177.697 11.4242 176.95 11.424C176.77 11.414 176.59 11.414 176.41 11.424C176.208 11.4352 176.008 11.462 175.81 11.504C174.915 11.6872 174.078 12.0864 173.372 12.6667C172.666 13.2471 172.113 13.9911 171.76 14.834C170.86 15.114 171.48 38.644 171.31 39.714C171.308 42.7462 170.486 45.7215 168.932 48.3251C167.378 50.9286 165.148 53.0636 162.48 54.504C161.75 54.844 161.03 55.224 160.24 55.504C159.83 55.664 159.24 55.824 158.79 55.964H158.57C158.393 56.0145 158.212 56.0546 158.03 56.084C157.949 56.1133 157.865 56.1335 157.78 56.144L157.14 56.254C155.679 56.4955 154.193 56.5426 152.72 56.394C152.17 56.394 151.56 56.234 151.02 56.144C150.934 56.1348 150.85 56.1147 150.77 56.084C150.586 56.0653 150.405 56.025 150.23 55.964H150.03C149.58 55.824 149.03 55.674 148.56 55.504C148.073 55.3255 147.596 55.1219 147.13 54.894C144.239 53.5499 141.793 51.4062 140.081 48.7162C138.369 46.0262 137.463 42.9024 137.47 39.714V16.584C137.379 15.4203 136.924 14.3147 136.17 13.424C136.08 13.3111 135.98 13.2072 135.87 13.114C135.353 12.5751 134.731 12.1467 134.044 11.8545C133.357 11.5624 132.617 11.4125 131.87 11.414H131.32C131.121 11.4245 130.924 11.4513 130.73 11.494C129.641 11.6994 128.644 12.2416 127.88 13.044C127.367 13.5606 126.96 14.1719 126.68 14.844C126.524 15.1605 126.413 15.497 126.35 15.844C126.272 16.2226 126.229 16.6075 126.22 16.994V39.704C126.218 42.7362 125.396 45.7115 123.842 48.3151C122.288 50.9186 120.058 53.0536 117.39 54.494C116.66 54.834 115.94 55.214 115.16 55.494C114.74 55.654 114.16 55.814 113.7 55.954L113.48 56.004C113.303 56.0545 113.122 56.0946 112.94 56.124C112.859 56.1533 112.775 56.1735 112.69 56.184L112.05 56.294C110.589 56.5304 109.103 56.5775 107.63 56.434C107.059 56.3801 106.492 56.2966 105.93 56.184C105.844 56.1748 105.76 56.1547 105.68 56.124C105.496 56.1053 105.315 56.065 105.14 56.004L104.94 55.954C103.657 55.6044 102.416 55.1148 101.24 54.494C98.5766 53.0504 96.3528 50.914 94.8037 48.3105C93.2547 45.7071 92.438 42.7334 92.44 39.704V17.244C92.4894 15.8496 92.023 14.486 91.13 13.414C91.0404 13.3011 90.9399 13.1972 90.83 13.104C90.3116 12.5665 89.6902 12.139 89.003 11.8469C88.3158 11.5549 87.5767 11.4042 86.83 11.404H86.28C86.0815 11.4145 85.8842 11.4413 85.69 11.484C84.7941 11.6656 83.9565 12.0641 83.2504 12.6447C82.5443 13.2252 81.9914 13.9701 81.64 14.814C80.74 15.094 81.36 38.624 81.19 39.694C81.188 42.7262 80.3663 45.7015 78.812 48.3051C77.2576 50.9086 75.0283 53.0436 72.36 54.484C71.63 54.824 70.91 55.204 70.13 55.484C69.71 55.644 69.13 55.804 68.67 55.944L68.45 55.994C68.2725 56.0445 68.0922 56.0846 67.91 56.114C67.8292 56.1433 67.7453 56.1635 67.66 56.174L67.02 56.284C65.5593 56.5255 64.0731 56.5726 62.6 56.424C62.05 56.374 61.44 56.264 60.9 56.174C60.8144 56.1648 60.7304 56.1446 60.65 56.114C60.4659 56.0953 60.2847 56.055 60.11 55.994L59.91 55.944C59.46 55.804 58.91 55.654 58.44 55.484C57.9531 55.3055 57.4758 55.1019 57.01 54.874C54.1187 53.5299 51.6726 51.3862 49.9608 48.6962C48.249 46.0062 47.3431 42.8824 47.35 39.694V16.594C47.25 15.4325 46.7963 14.3296 46.05 13.434C45.9604 13.3211 45.8599 13.2172 45.75 13.124C45.233 12.5847 44.6119 12.1559 43.9244 11.8637C43.2368 11.5715 42.4971 11.4219 41.75 11.424C41.5701 11.414 41.3899 11.414 41.21 11.424C41.0115 11.4345 40.8141 11.4613 40.62 11.504C39.7238 11.6848 38.8857 12.083 38.1795 12.6637C37.4733 13.2443 36.9206 13.9896 36.57 14.834C36.4217 15.1525 36.3142 15.4885 36.25 15.834C36.1623 16.211 36.1187 16.5969 36.12 16.984V39.714C36.118 42.7462 35.2963 45.7215 33.742 48.3251C32.1876 50.9286 29.9583 53.0636 27.29 54.504C26.56 54.844 25.84 55.224 25.06 55.504C24.64 55.664 24.06 55.824 23.6 55.964H23.38C23.2056 56.0136 23.0287 56.0536 22.85 56.084C22.7692 56.1133 22.6853 56.1335 22.6 56.144L21.96 56.254C20.5022 56.4904 19.0199 56.5375 17.55 56.394C16.9794 56.3401 16.412 56.2566 15.85 56.144C15.7644 56.1348 15.6804 56.1147 15.6 56.084C15.3991 56.0963 15.1975 56.0828 15 56.044H14.8C13.8121 55.7456 12.8408 55.3951 11.89 54.994L11.1 54.604C8.4366 53.1604 6.2128 51.024 4.66376 48.4205C3.11472 45.8171 2.298 42.8434 2.3 39.814V17.274C2.33325 16.1726 2.03731 15.0863 1.45 14.154C1.31 13.8996 1.14232 13.6615 0.949997 13.444C0.860397 13.3311 0.759903 13.2272 0.649994 13.134C0.131577 12.5965 -0.489761 12.169 -1.177 11.8769C-1.86424 11.5849 -2.60327 11.4342 -3.35001 11.434H-3.89999C-4.09851 11.4445 -4.29585 11.4713 -4.49001 11.514C-5.37682 11.703 -6.20435 12.1049 -6.9012 12.685C-7.59805 13.2652 -8.14334 14.0061 -8.49001 14.844C-9.39 15.124 -8.77 38.654 -8.94 39.724C-8.942 42.7562 -9.76366 45.7315 -11.318 48.3351C-12.8724 50.9386 -15.1017 53.0736 -17.77 54.514C-18.5 54.854 -19.22 55.234 -20.01 55.514C-20.43 55.674 -21.01 55.834 -21.46 55.974H-21.68C-21.8575 56.0245 -22.0378 56.0646 -22.22 56.094C-22.3008 56.1233 -22.3847 56.1435 -22.47 56.154L-23.11 56.264C-24.564 56.5055 -26.0436 56.5526 -27.51 56.404C-28.0773 56.3501 -28.6414 56.2666 -29.2 56.154C-29.2856 56.1448 -29.3696 56.1246 -29.45 56.094C-29.6341 56.0753 -29.8153 56.035 -29.99 55.974H-30.19C-30.64 55.834 -31.19 55.684 -31.66 55.514C-32.1502 55.3356 -32.6308 55.132 -33.1 54.904C-35.9744 53.5428 -38.4035 51.3937 -40.1046 48.7065C-41.8058 46.0193 -42.7093 42.9044 -42.71 39.724V16.594C-42.81 15.4325 -43.2637 14.3296 -44.01 13.434C-44.0996 13.3211 -44.2001 13.2172 -44.31 13.124C-44.827 12.5847 -45.4481 12.1559 -46.1357 11.8637C-46.8232 11.5715 -47.5629 11.4219 -48.31 11.424C-48.4899 11.414 -48.6702 11.414 -48.85 11.424C-49.0485 11.4345 -49.2458 11.4613 -49.44 11.504C-50.3271 11.6922 -51.155 12.0938 -51.852 12.674C-52.549 13.2543 -53.0941 13.9957 -53.44 14.834C-53.5883 15.1525 -53.6958 15.4885 -53.76 15.834C-53.8896 16.2259 -53.9703 16.6323 -54 17.044V39.714C-54.002 42.7462 -54.8237 45.7215 -56.378 48.3251C-57.9324 50.9286 -60.1617 53.0636 -62.83 54.504C-63.56 54.844 -64.28 55.224 -65.06 55.504C-65.48 55.664 -66.06 55.824 -66.52 55.964H-66.74C-66.9175 56.0145 -67.0978 56.0546 -67.28 56.084C-67.3608 56.1133 -67.4447 56.1335 -67.53 56.144L-68.17 56.254C-69.6312 56.4904 -71.1168 56.5375 -72.59 56.394C-73.1606 56.3401 -73.728 56.2566 -74.29 56.144C-74.3756 56.1348 -74.4596 56.1147 -74.54 56.084C-74.7241 56.0653 -74.9053 56.025 -75.08 55.964H-75.28C-76.57 55.6158 -77.8176 55.1262 -79 54.504C-81.6646 53.0609 -83.8898 50.9249 -85.4405 48.3215C-86.9913 45.7181 -87.8099 42.7442 -87.81 39.714V17.044C-87.8094 16.0245 -88.0897 15.0246 -88.62 14.154C-88.76 13.8996 -88.9277 13.6615 -89.12 13.444C-89.2096 13.3311 -89.3101 13.2272 -89.42 13.134C-89.9384 12.5965 -90.5598 12.169 -91.247 11.8769C-91.9342 11.5849 -92.6733 11.4342 -93.42 11.434C-93.6032 11.4239 -93.7868 11.4239 -93.97 11.434C-94.1685 11.4445 -94.3658 11.4713 -94.56 11.514C-95.4468 11.703 -96.2743 12.1049 -96.9712 12.685C-97.6681 13.2652 -98.2133 14.0061 -98.56 14.844C-99.46 15.124 -98.84 38.654 -99.01 39.724C-99.012 42.7562 -99.8337 45.7315 -101.388 48.3351C-102.942 50.9386 -105.172 53.0736 -107.84 54.514C-108.57 54.854 -109.29 55.234 -110.08 55.514C-110.5 55.674 -111.08 55.834 -111.53 55.974H-111.75C-111.927 56.0245 -112.108 56.0646 -112.29 56.094C-112.371 56.1233 -112.455 56.1435 -112.54 56.154L-113.18 56.264C-114.644 56.5056 -116.134 56.5527 -117.61 56.404C-118.177 56.3501 -118.741 56.2666 -119.3 56.154C-119.386 56.1448 -119.47 56.1246 -119.55 56.094C-119.768 56.1075 -119.987 56.0906 -120.2 56.044H-120.4C-120.85 55.904 -121.4 55.754 -121.87 55.584C-122.36 55.4056 -122.841 55.202 -123.31 54.974C-126.184 53.6128 -128.613 51.4637 -130.315 48.7765C-132.016 46.0893 -132.919 42.9744 -132.92 39.794V16.604C-133.02 15.4425 -133.474 14.3396 -134.22 13.444C-134.31 13.3311 -134.41 13.2272 -134.52 13.134C-135.037 12.5947 -135.658 12.1659 -136.346 11.8737C-137.033 11.5815 -137.773 11.4319 -138.52 11.434H-139.06C-139.262 11.4452 -139.462 11.472 -139.66 11.514C-140.556 11.6956 -141.394 12.0941 -142.1 12.6747C-142.806 13.2552 -143.359 14.0001 -143.71 14.844C-143.858 15.1625 -143.966 15.4985 -144.03 15.844C-144.132 16.236 -144.185 16.639 -144.19 17.044V39.724C-144.19 42.7542 -145.009 45.7281 -146.559 48.3315C-148.11 50.9348 -150.335 53.0709 -153 54.514C-153.73 54.854 -154.45 55.234 -155.23 55.514C-155.65 55.674 -156.23 55.834 -156.69 55.974H-156.91C-157.087 56.0245 -157.268 56.0646 -157.45 56.094C-157.531 56.1233 -157.615 56.1435 -157.7 56.154L-158.34 56.264C-159.798 56.5004 -161.28 56.5475 -162.75 56.404C-163.321 56.3501 -163.888 56.2666 -164.45 56.154C-164.536 56.1448 -164.62 56.1246 -164.7 56.094C-164.884 56.0753 -165.065 56.035 -165.24 55.974H-165.44C-165.89 55.834 -166.44 55.684 -166.91 55.514C-170.153 54.3344 -172.956 52.1875 -174.939 49.3635C-176.922 46.5396 -177.991 43.1748 -178 39.724V5.72398H-177.84Z" fill="white"/>
</g>
</svg>
